*
G04 Mass Parameters ***
*
G04 Image ***
*
%INC:\CAINPCB\ECBOT\V5\ECBOTCPU5.BOT*%
%ICAS*%
%MOIN*%
%IPPOS*%
%ASAXBY*%
G74*%FSLAN2X34Y34*%
*
G04 Aperture Definitions ***
*
%ADD10R,0.0500X0.0400*%
%ADD11R,0.0400X0.0500*%
%ADD12R,0.0300X0.0350*%
%ADD13R,0.1000X0.0600*%
%ADD14R,0.0600X0.1000*%
%ADD15R,0.0650X0.1200*%
%ADD16R,0.2350X0.2350*%
%ADD17C,0.0550*%
%ADD18R,0.0550X0.0550*%
%ADD19C,0.0580*%
%ADD20R,0.0580X0.0580*%
%ADD21C,0.0512*%
%ADD22R,0.1024X0.1024*%
%ADD23C,0.0620*%
%ADD24C,0.0433*%
%ADD25C,0.3149X0.1574*%
%ADD26C,0.0600*%
%ADD27R,0.0800X0.1800*%
%ADD28R,0.0394X0.0236*%
%ADD29R,0.0197X0.0197*%
%ADD30C,0.0020*%
%ADD31R,0.0236X0.0394*%
%ADD32R,0.0701X0.0110*%
%ADD33R,0.0700X0.0110*%
%ADD34R,0.0110X0.0701*%
%ADD35R,0.0110X0.0700*%
%ADD36R,0.0550X0.0350*%
%ADD37R,0.0450X0.0350*%
%ADD38R,0.0350X0.0550*%
%ADD39R,0.0350X0.0450*%
%ADD40R,0.0350X0.0300*%
%ADD41R,0.1968X0.1968*%
%ADD42R,0.0800X0.0250*%
%ADD43R,0.0315X0.0197*%
%ADD44R,0.0197X0.0315*%
%ADD45R,0.0160X0.0700*%
%ADD46R,0.0100X0.0600*%
%ADD47R,0.0600X0.0100*%
%ADD48C,0.0472*%
%ADD49R,0.0750X0.0250*%
%ADD50C,0.0394*%
%ADD51R,0.0500X0.0160*%
%ADD52R,0.0880X0.1420*%
%ADD53R,0.0880X0.0480*%
%ADD54R,0.0150X0.0600*%
%ADD55R,0.0600X0.0150*%
%ADD56R,0.0866X0.0512*%
%ADD57C,0.0236*%
%ADD58C,0.0118*%
%ADD59C,0.0010*%
%ADD60C,0.0080*%
%ADD61C,0.0236*%
%ADD62C,0.0157*%
%ADD63C,0.0590*%
%ADD64C,0.0149*%
%ADD65C,0.0787*%
%ADD66C,0.0315*%
%ADD67C,0.0709*%
%ADD68C,0.0197*%
%ADD69C,0.0394*%
%ADD70C,0.0905*%
%ADD71C,0.0512*%
%ADD72C,0.0236*%
%ADD73C,0.0079*%
%ADD74R,0.0500X0.0400*%
%ADD75R,0.0400X0.0500*%
%ADD76R,0.1000X0.0600*%
%ADD77R,0.0600X0.1000*%
%ADD78R,0.0300X0.0350*%
%ADD79R,0.0350X0.0300*%
%ADD80C,0.0550*%
%ADD81R,0.0550X0.0550*%
%ADD82C,0.0580*%
%ADD83R,0.0580X0.0580*%
%ADD84C,0.0512*%
%ADD85R,0.0630X0.0827*%
%ADD86R,0.0551X0.0728*%
%ADD87R,0.0905X0.0472*%
%ADD88C,0.1024*%
%ADD89C,0.0620*%
%ADD90C,0.0433*%
%ADD91R,0.0394X0.0709*%
%ADD92R,0.0709X0.0669*%
%ADD93R,0.0236X0.0669*%
%ADD94R,0.0709X0.0748*%
%ADD95C,0.3149X0.1574*%
%ADD96C,0.0600*%
%ADD97R,0.0500X0.0500*%
%ADD98R,0.0197X0.0551*%
%ADD99R,0.0394X0.0138*%
%ADD100R,0.0880X0.1420*%
%ADD101R,0.0880X0.0480*%
%ADD102C,0.0472*%
%ADD103C,0.0394*%
%ADD104R,0.0550X0.0350*%
%ADD105R,0.0450X0.0350*%
%ADD106R,0.0700X0.0160*%
%ADD107R,0.0390X0.0272*%
%ADD108R,0.0272X0.0390*%
%ADD109C,0.0236*%
%ADD110C,0.0177*%
%ADD111C,0.0236*%
%ADD112C,0.0189*%
*
G04 Plot Data ***
*
G54D30*
G01X0016844Y0010116D02*
Y0009677D01*
X0016826Y0010106D02*
Y0009667D01*
X0016808Y0010095D02*
Y0009656D01*
X0016791Y0010085D02*
Y0009646D01*
X0016773Y0010075D02*
Y0009636D01*
X0016755Y0010065D02*
Y0009626D01*
X0016737Y0010055D02*
Y0009616D01*
X0016720Y0010044D02*
Y0009605D01*
X0016702Y0010034D02*
Y0009595D01*
X0016684Y0010024D02*
Y0009585D01*
X0016667Y0010014D02*
Y0009576D01*
X0016649Y0010004D02*
Y0009606D01*
X0016631Y0009993D02*
Y0009637D01*
X0016614Y0009983D02*
Y0009668D01*
X0016596Y0009973D02*
Y0009698D01*
X0016578Y0009963D02*
Y0009729D01*
X0016561Y0009953D02*
Y0009759D01*
X0016543Y0009942D02*
Y0009790D01*
X0016525Y0009932D02*
Y0009821D01*
X0016508Y0009922D02*
Y0009851D01*
X0016490Y0009912D02*
Y0009882D01*
X0016898Y0010136D02*
X0016879D01*
X0016908Y0010118D02*
X0016848D01*
X0016918Y0010101D02*
X0016818D01*
X0016928Y0010083D02*
X0016787D01*
X0016938Y0010065D02*
X0016756D01*
X0016949Y0010048D02*
X0016726D01*
X0016959Y0010030D02*
X0016695D01*
X0016969Y0010012D02*
X0016664D01*
X0016979Y0009995D02*
X0016634D01*
X0016990Y0009977D02*
X0016603D01*
X0017000Y0009959D02*
X0016572D01*
X0017010Y0009942D02*
X0016542D01*
X0017020Y0009924D02*
X0016511D01*
X0017030Y0009906D02*
X0016480D01*
X0017041Y0009889D02*
X0016486D01*
X0017051Y0009871D02*
X0016496D01*
X0017061Y0009853D02*
X0016506D01*
X0017071Y0009835D02*
X0016517D01*
X0017081Y0009818D02*
X0016527D01*
X0017057Y0009800D02*
X0016537D01*
X0017026Y0009782D02*
X0016547D01*
X0016996Y0009765D02*
X0016558D01*
X0016965Y0009747D02*
X0016568D01*
X0016934Y0009729D02*
X0016578D01*
X0016904Y0009712D02*
X0016588D01*
X0016873Y0009694D02*
X0016598D01*
X0016843Y0009676D02*
X0016609D01*
X0016812Y0009659D02*
X0016619D01*
X0016781Y0009641D02*
X0016629D01*
X0016751Y0009623D02*
X0016639D01*
X0016720Y0009606D02*
X0016650D01*
X0016690Y0009588D02*
X0016660D01*
X0017083Y0009815D02*
X0016667Y0009575D01*
X0016477Y0009904D02*
X0016667Y0009575D01*
X0016893Y0010144D02*
X0016477Y0009904D01*
X0016893Y0010144D02*
X0017083Y0009815D01*
X0017074Y0009831D02*
Y0009810D01*
X0017056Y0009862D02*
Y0009800D01*
X0017038Y0009893D02*
Y0009789D01*
X0017020Y0009923D02*
Y0009779D01*
X0017003Y0009954D02*
Y0009769D01*
X0016985Y0009985D02*
Y0009759D01*
X0016967Y0010015D02*
Y0009748D01*
X0016950Y0010046D02*
Y0009738D01*
X0016932Y0010077D02*
Y0009728D01*
X0016914Y0010107D02*
Y0009718D01*
X0016897Y0010138D02*
Y0009708D01*
X0016879Y0010136D02*
Y0009697D01*
X0016861Y0010126D02*
Y0009687D01*
X0016564Y0010601D02*
Y0010162D01*
X0016546Y0010591D02*
Y0010152D01*
X0016528Y0010580D02*
Y0010141D01*
X0016511Y0010570D02*
Y0010131D01*
X0016493Y0010560D02*
Y0010121D01*
X0016475Y0010550D02*
Y0010111D01*
X0016457Y0010539D02*
Y0010100D01*
X0016440Y0010529D02*
Y0010090D01*
X0016422Y0010519D02*
Y0010080D01*
X0016404Y0010509D02*
Y0010070D01*
X0016387Y0010499D02*
Y0010061D01*
X0016369Y0010488D02*
Y0010091D01*
X0016351Y0010478D02*
Y0010122D01*
X0016334Y0010468D02*
Y0010153D01*
X0016316Y0010458D02*
Y0010183D01*
X0016298Y0010447D02*
Y0010214D01*
X0016281Y0010437D02*
Y0010244D01*
X0016263Y0010427D02*
Y0010275D01*
X0016245Y0010417D02*
Y0010305D01*
X0016228Y0010407D02*
Y0010336D01*
X0016210Y0010396D02*
Y0010367D01*
X0016618Y0010621D02*
X0016599D01*
X0016628Y0010603D02*
X0016568D01*
X0016638Y0010586D02*
X0016538D01*
X0016648Y0010568D02*
X0016507D01*
X0016658Y0010550D02*
X0016476D01*
X0016669Y0010533D02*
X0016446D01*
X0016679Y0010515D02*
X0016415D01*
X0016689Y0010497D02*
X0016385D01*
X0016699Y0010480D02*
X0016354D01*
X0016709Y0010462D02*
X0016323D01*
X0016720Y0010444D02*
X0016293D01*
X0016730Y0010427D02*
X0016262D01*
X0016740Y0010409D02*
X0016232D01*
X0016750Y0010391D02*
X0016201D01*
X0016760Y0010374D02*
X0016206D01*
X0016771Y0010356D02*
X0016216D01*
X0016781Y0010338D02*
X0016226D01*
X0016791Y0010320D02*
X0016237D01*
X0016801Y0010303D02*
X0016247D01*
X0016777Y0010285D02*
X0016257D01*
X0016747Y0010267D02*
X0016267D01*
X0016716Y0010250D02*
X0016277D01*
X0016685Y0010232D02*
X0016288D01*
X0016655Y0010214D02*
X0016298D01*
X0016624Y0010197D02*
X0016308D01*
X0016593Y0010179D02*
X0016318D01*
X0016563Y0010161D02*
X0016329D01*
X0016532Y0010144D02*
X0016339D01*
X0016502Y0010126D02*
X0016349D01*
X0016471Y0010108D02*
X0016359D01*
X0016440Y0010091D02*
X0016370D01*
X0016410Y0010073D02*
X0016380D01*
X0016613Y0010629D02*
X0016197Y0010389D01*
X0016613Y0010629D02*
X0016803Y0010300D01*
X0016387Y0010060D01*
X0016197Y0010389D02*
X0016387Y0010060D01*
X0016794Y0010316D02*
Y0010295D01*
X0016776Y0010347D02*
Y0010284D01*
X0016758Y0010377D02*
Y0010274D01*
X0016740Y0010408D02*
Y0010264D01*
X0016723Y0010439D02*
Y0010254D01*
X0016705Y0010469D02*
Y0010243D01*
X0016687Y0010500D02*
Y0010233D01*
X0016670Y0010531D02*
Y0010223D01*
X0016652Y0010561D02*
Y0010213D01*
X0016634Y0010592D02*
Y0010203D01*
X0016617Y0010623D02*
Y0010192D01*
X0016599Y0010621D02*
Y0010182D01*
X0016581Y0010611D02*
Y0010172D01*
X-0018788Y-0004996D02*
Y-0005389D01*
X-0018805Y-0005001D02*
Y-0005394D01*
X-0018823Y-0005005D02*
Y-0005399D01*
X-0018841Y-0005010D02*
Y-0005403D01*
X-0018858Y-0005015D02*
Y-0005408D01*
X-0018876Y-0005020D02*
Y-0005413D01*
X-0018894Y-0005024D02*
Y-0005418D01*
X-0018912Y-0005029D02*
Y-0005422D01*
X-0018929Y-0005034D02*
Y-0005427D01*
X-0018947Y-0005038D02*
Y-0005373D01*
X-0018965Y-0005043D02*
Y-0005307D01*
X-0018982Y-0005048D02*
Y-0005241D01*
X-0019000Y-0005053D02*
Y-0005175D01*
X-0019018Y-0005057D02*
Y-0005109D01*
X-0018562Y-0004955D02*
X-0018636D01*
X-0018557Y-0004973D02*
X-0018702D01*
X-0018552Y-0004990D02*
X-0018768D01*
X-0018548Y-0005008D02*
X-0018834D01*
X-0018543Y-0005026D02*
X-0018900D01*
X-0018538Y-0005044D02*
X-0018966D01*
X-0018534Y-0005061D02*
X-0019030D01*
X-0018529Y-0005079D02*
X-0019026D01*
X-0018524Y-0005097D02*
X-0019021D01*
X-0018519Y-0005114D02*
X-0019016D01*
X-0018515Y-0005132D02*
X-0019012D01*
X-0018510Y-0005150D02*
X-0019007D01*
X-0018505Y-0005167D02*
X-0019002D01*
X-0018500Y-0005185D02*
X-0018997D01*
X-0018496Y-0005203D02*
X-0018993D01*
X-0018491Y-0005220D02*
X-0018988D01*
X-0018486Y-0005238D02*
X-0018983D01*
X-0018481Y-0005256D02*
X-0018978D01*
X-0018477Y-0005273D02*
X-0018974D01*
X-0018472Y-0005291D02*
X-0018969D01*
X-0018488Y-0005309D02*
X-0018964D01*
X-0018554Y-0005327D02*
X-0018959D01*
X-0018620Y-0005344D02*
X-0018955D01*
X-0018686Y-0005362D02*
X-0018950D01*
X-0018752Y-0005380D02*
X-0018945D01*
X-0018818Y-0005397D02*
X-0018940D01*
X-0018884Y-0005415D02*
X-0018936D01*
X-0018567Y-0004937D02*
X-0019031Y-0005061D01*
X-0018567Y-0004937D02*
X-0018469Y-0005304D01*
X-0018932Y-0005428D01*
X-0019031Y-0005061D02*
X-0018932Y-0005428D01*
X-0018487Y-0005235D02*
Y-0005309D01*
X-0018505Y-0005169D02*
Y-0005313D01*
X-0018522Y-0005103D02*
Y-0005318D01*
X-0018540Y-0005037D02*
Y-0005323D01*
X-0018558Y-0004971D02*
Y-0005327D01*
X-0018575Y-0004939D02*
Y-0005332D01*
X-0018593Y-0004944D02*
Y-0005337D01*
X-0018611Y-0004948D02*
Y-0005342D01*
X-0018629Y-0004953D02*
Y-0005346D01*
X-0018646Y-0004958D02*
Y-0005351D01*
X-0018664Y-0004963D02*
Y-0005356D01*
X-0018682Y-0004967D02*
Y-0005361D01*
X-0018699Y-0004972D02*
Y-0005365D01*
X-0018717Y-0004977D02*
Y-0005370D01*
X-0018735Y-0004982D02*
Y-0005375D01*
X-0018752Y-0004986D02*
Y-0005380D01*
X-0018770Y-0004991D02*
Y-0005384D01*
X-0018643Y-0005537D02*
Y-0005930D01*
X-0018660Y-0005541D02*
Y-0005935D01*
X-0018678Y-0005546D02*
Y-0005940D01*
X-0018696Y-0005551D02*
Y-0005944D01*
X-0018713Y-0005556D02*
Y-0005949D01*
X-0018731Y-0005560D02*
Y-0005954D01*
X-0018749Y-0005565D02*
Y-0005959D01*
X-0018767Y-0005570D02*
Y-0005963D01*
X-0018784Y-0005574D02*
Y-0005968D01*
X-0018802Y-0005579D02*
Y-0005914D01*
X-0018820Y-0005584D02*
Y-0005848D01*
X-0018837Y-0005589D02*
Y-0005782D01*
X-0018855Y-0005593D02*
Y-0005716D01*
X-0018873Y-0005598D02*
Y-0005650D01*
X-0018417Y-0005496D02*
X-0018491D01*
X-0018412Y-0005514D02*
X-0018557D01*
X-0018407Y-0005531D02*
X-0018623D01*
X-0018403Y-0005549D02*
X-0018690D01*
X-0018398Y-0005567D02*
X-0018756D01*
X-0018393Y-0005585D02*
X-0018822D01*
X-0018389Y-0005602D02*
X-0018885D01*
X-0018384Y-0005620D02*
X-0018881D01*
X-0018379Y-0005638D02*
X-0018876D01*
X-0018374Y-0005655D02*
X-0018871D01*
X-0018370Y-0005673D02*
X-0018866D01*
X-0018365Y-0005691D02*
X-0018862D01*
X-0018360Y-0005708D02*
X-0018857D01*
X-0018355Y-0005726D02*
X-0018852D01*
X-0018351Y-0005744D02*
X-0018848D01*
X-0018346Y-0005761D02*
X-0018843D01*
X-0018341Y-0005779D02*
X-0018838D01*
X-0018336Y-0005797D02*
X-0018833D01*
X-0018332Y-0005814D02*
X-0018829D01*
X-0018327Y-0005832D02*
X-0018824D01*
X-0018343Y-0005850D02*
X-0018819D01*
X-0018409Y-0005868D02*
X-0018814D01*
X-0018475Y-0005885D02*
X-0018810D01*
X-0018541Y-0005903D02*
X-0018805D01*
X-0018607Y-0005921D02*
X-0018800D01*
X-0018673Y-0005938D02*
X-0018795D01*
X-0018739Y-0005956D02*
X-0018791D01*
X-0018324Y-0005845D02*
X-0018787Y-0005969D01*
X-0018886Y-0005602D02*
X-0018787Y-0005969D01*
X-0018422Y-0005478D02*
X-0018886Y-0005602D01*
X-0018422Y-0005478D02*
X-0018324Y-0005845D01*
X-0018342Y-0005776D02*
Y-0005850D01*
X-0018360Y-0005710D02*
Y-0005854D01*
X-0018377Y-0005644D02*
Y-0005859D01*
X-0018395Y-0005578D02*
Y-0005864D01*
X-0018413Y-0005512D02*
Y-0005868D01*
X-0018430Y-0005480D02*
Y-0005873D01*
X-0018448Y-0005485D02*
Y-0005878D01*
X-0018466Y-0005489D02*
Y-0005883D01*
X-0018484Y-0005494D02*
Y-0005887D01*
X-0018501Y-0005499D02*
Y-0005892D01*
X-0018519Y-0005504D02*
Y-0005897D01*
X-0018537Y-0005508D02*
Y-0005902D01*
X-0018554Y-0005513D02*
Y-0005906D01*
X-0018572Y-0005518D02*
Y-0005911D01*
X-0018590Y-0005522D02*
Y-0005916D01*
X-0018607Y-0005527D02*
Y-0005921D01*
X-0018625Y-0005532D02*
Y-0005925D01*
X-0015049Y-0011898D02*
Y-0012395D01*
X-0015067Y-0011913D02*
Y-0012409D01*
X-0015085Y-0011928D02*
Y-0012424D01*
X-0015102Y-0011943D02*
Y-0012439D01*
X-0015120Y-0011957D02*
Y-0012454D01*
X-0015138Y-0011972D02*
Y-0012469D01*
X-0015155Y-0011987D02*
Y-0012484D01*
X-0015173Y-0012002D02*
Y-0012496D01*
X-0015191Y-0012017D02*
Y-0012474D01*
X-0015208Y-0012032D02*
Y-0012453D01*
X-0015226Y-0012047D02*
Y-0012432D01*
X-0015244Y-0012061D02*
Y-0012411D01*
X-0015261Y-0012076D02*
Y-0012390D01*
X-0015279Y-0012091D02*
Y-0012369D01*
X-0015297Y-0012106D02*
Y-0012348D01*
X-0015315Y-0012121D02*
Y-0012327D01*
X-0015332Y-0012136D02*
Y-0012306D01*
X-0015350Y-0012151D02*
Y-0012285D01*
X-0015368Y-0012165D02*
Y-0012264D01*
X-0015385Y-0012180D02*
Y-0012242D01*
X-0015403Y-0012195D02*
Y-0012221D01*
X-0015031Y-0011918D02*
X-0015073D01*
X-0015016Y-0011936D02*
X-0015094D01*
X-0015001Y-0011954D02*
X-0015115D01*
X-0014986Y-0011971D02*
X-0015137D01*
X-0014971Y-0011989D02*
X-0015158D01*
X-0014956Y-0012007D02*
X-0015179D01*
X-0014942Y-0012024D02*
X-0015200D01*
X-0014927Y-0012042D02*
X-0015221D01*
X-0014912Y-0012060D02*
X-0015242D01*
X-0014897Y-0012078D02*
X-0015263D01*
X-0014882Y-0012095D02*
X-0015284D01*
X-0014867Y-0012113D02*
X-0015305D01*
X-0014853Y-0012131D02*
X-0015326D01*
X-0014838Y-0012148D02*
X-0015347D01*
X-0014823Y-0012166D02*
X-0015368D01*
X-0014808Y-0012184D02*
X-0015389D01*
X-0014819Y-0012201D02*
X-0015410D01*
X-0014840Y-0012219D02*
X-0015405D01*
X-0014861Y-0012237D02*
X-0015390D01*
X-0014882Y-0012254D02*
X-0015375D01*
X-0014903Y-0012272D02*
X-0015360D01*
X-0014924Y-0012290D02*
X-0015346D01*
X-0014945Y-0012307D02*
X-0015331D01*
X-0014967Y-0012325D02*
X-0015316D01*
X-0014988Y-0012343D02*
X-0015301D01*
X-0015009Y-0012361D02*
X-0015286D01*
X-0015030Y-0012378D02*
X-0015271D01*
X-0015051Y-0012396D02*
X-0015257D01*
X-0015072Y-0012414D02*
X-0015242D01*
X-0015093Y-0012431D02*
X-0015227D01*
X-0015114Y-0012449D02*
X-0015212D01*
X-0015135Y-0012467D02*
X-0015197D01*
X-0015156Y-0012484D02*
X-0015182D01*
X-0015048Y-0011897D02*
X-0015416Y-0012206D01*
X-0015048Y-0011897D02*
X-0014804Y-0012189D01*
X-0015172Y-0012497D01*
X-0015416Y-0012206D02*
X-0015172Y-0012497D01*
X-0014819Y-0012170D02*
Y-0012201D01*
X-0014837Y-0012149D02*
Y-0012216D01*
X-0014855Y-0012128D02*
Y-0012231D01*
X-0014872Y-0012107D02*
Y-0012246D01*
X-0014890Y-0012086D02*
Y-0012261D01*
X-0014908Y-0012065D02*
Y-0012276D01*
X-0014925Y-0012044D02*
Y-0012291D01*
X-0014943Y-0012023D02*
Y-0012305D01*
X-0014961Y-0012002D02*
Y-0012320D01*
X-0014978Y-0011980D02*
Y-0012335D01*
X-0014996Y-0011959D02*
Y-0012350D01*
X-0015014Y-0011938D02*
Y-0012365D01*
X-0015032Y-0011917D02*
Y-0012380D01*
X-0014689Y-0012327D02*
Y-0012823D01*
X-0014707Y-0012342D02*
Y-0012838D01*
X-0014725Y-0012357D02*
Y-0012853D01*
X-0014742Y-0012372D02*
Y-0012868D01*
X-0014760Y-0012386D02*
Y-0012883D01*
X-0014778Y-0012401D02*
Y-0012897D01*
X-0014795Y-0012416D02*
Y-0012912D01*
X-0014813Y-0012431D02*
Y-0012924D01*
X-0014831Y-0012446D02*
Y-0012903D01*
X-0014848Y-0012461D02*
Y-0012882D01*
X-0014866Y-0012476D02*
Y-0012861D01*
X-0014884Y-0012490D02*
Y-0012840D01*
X-0014901Y-0012505D02*
Y-0012819D01*
X-0014919Y-0012520D02*
Y-0012798D01*
X-0014937Y-0012535D02*
Y-0012777D01*
X-0014955Y-0012550D02*
Y-0012756D01*
X-0014972Y-0012565D02*
Y-0012735D01*
X-0014990Y-0012580D02*
Y-0012714D01*
X-0015008Y-0012594D02*
Y-0012692D01*
X-0015025Y-0012609D02*
Y-0012671D01*
X-0015043Y-0012624D02*
Y-0012650D01*
X-0014671Y-0012347D02*
X-0014713D01*
X-0014656Y-0012365D02*
X-0014734D01*
X-0014641Y-0012382D02*
X-0014755D01*
X-0014626Y-0012400D02*
X-0014776D01*
X-0014612Y-0012418D02*
X-0014797D01*
X-0014597Y-0012435D02*
X-0014818D01*
X-0014582Y-0012453D02*
X-0014839D01*
X-0014567Y-0012471D02*
X-0014860D01*
X-0014552Y-0012488D02*
X-0014881D01*
X-0014537Y-0012506D02*
X-0014903D01*
X-0014523Y-0012524D02*
X-0014924D01*
X-0014508Y-0012542D02*
X-0014945D01*
X-0014493Y-0012559D02*
X-0014966D01*
X-0014478Y-0012577D02*
X-0014987D01*
X-0014463Y-0012595D02*
X-0015008D01*
X-0014448Y-0012612D02*
X-0015029D01*
X-0014459Y-0012630D02*
X-0015050D01*
X-0014480Y-0012648D02*
X-0015045D01*
X-0014501Y-0012665D02*
X-0015030D01*
X-0014522Y-0012683D02*
X-0015016D01*
X-0014543Y-0012701D02*
X-0015001D01*
X-0014564Y-0012718D02*
X-0014986D01*
X-0014585Y-0012736D02*
X-0014971D01*
X-0014606Y-0012754D02*
X-0014956D01*
X-0014627Y-0012771D02*
X-0014941D01*
X-0014649Y-0012789D02*
X-0014926D01*
X-0014670Y-0012807D02*
X-0014912D01*
X-0014691Y-0012825D02*
X-0014897D01*
X-0014712Y-0012842D02*
X-0014882D01*
X-0014733Y-0012860D02*
X-0014867D01*
X-0014754Y-0012878D02*
X-0014852D01*
X-0014775Y-0012895D02*
X-0014837D01*
X-0014796Y-0012913D02*
X-0014822D01*
X-0014444Y-0012618D02*
X-0014812Y-0012926D01*
X-0015056Y-0012635D02*
X-0014812Y-0012926D01*
X-0014688Y-0012326D02*
X-0015056Y-0012635D01*
X-0014688Y-0012326D02*
X-0014444Y-0012618D01*
X-0014459Y-0012599D02*
Y-0012630D01*
X-0014477Y-0012578D02*
Y-0012645D01*
X-0014495Y-0012557D02*
Y-0012660D01*
X-0014512Y-0012536D02*
Y-0012675D01*
X-0014530Y-0012515D02*
Y-0012690D01*
X-0014548Y-0012494D02*
Y-0012705D01*
X-0014565Y-0012473D02*
Y-0012719D01*
X-0014583Y-0012452D02*
Y-0012734D01*
X-0014601Y-0012431D02*
Y-0012749D01*
X-0014618Y-0012409D02*
Y-0012764D01*
X-0014636Y-0012388D02*
Y-0012779D01*
X-0014654Y-0012367D02*
Y-0012794D01*
X-0014672Y-0012346D02*
Y-0012808D01*
X-0015017Y-0013534D02*
Y-0014044D01*
X-0015034Y-0013513D02*
Y-0014059D01*
X-0015052Y-0013492D02*
Y-0014073D01*
X-0015070Y-0013471D02*
Y-0014062D01*
X-0015087Y-0013477D02*
Y-0014041D01*
X-0015105Y-0013491D02*
Y-0014020D01*
X-0015123Y-0013506D02*
Y-0013999D01*
X-0015140Y-0013521D02*
Y-0013978D01*
X-0015158Y-0013536D02*
Y-0013957D01*
X-0015176Y-0013551D02*
Y-0013936D01*
X-0015193Y-0013566D02*
Y-0013915D01*
X-0015211Y-0013580D02*
Y-0013894D01*
X-0015229Y-0013595D02*
Y-0013873D01*
X-0015247Y-0013610D02*
Y-0013852D01*
X-0015264Y-0013625D02*
Y-0013831D01*
X-0015282Y-0013640D02*
Y-0013810D01*
X-0015300Y-0013655D02*
Y-0013789D01*
X-0015317Y-0013669D02*
Y-0013767D01*
X-0015335Y-0013684D02*
Y-0013746D01*
X-0015353Y-0013699D02*
Y-0013725D01*
X-0015061Y-0013481D02*
X-0015093D01*
X-0015047Y-0013499D02*
X-0015114D01*
X-0015032Y-0013516D02*
X-0015135D01*
X-0015017Y-0013534D02*
X-0015156D01*
X-0015002Y-0013552D02*
X-0015177D01*
X-0014987Y-0013569D02*
X-0015198D01*
X-0014972Y-0013587D02*
X-0015219D01*
X-0014958Y-0013605D02*
X-0015240D01*
X-0014943Y-0013622D02*
X-0015261D01*
X-0014928Y-0013640D02*
X-0015282D01*
X-0014913Y-0013658D02*
X-0015303D01*
X-0014898Y-0013676D02*
X-0015325D01*
X-0014883Y-0013693D02*
X-0015346D01*
X-0014869Y-0013711D02*
X-0015365D01*
X-0014854Y-0013729D02*
X-0015350D01*
X-0014839Y-0013746D02*
X-0015335D01*
X-0014824Y-0013764D02*
X-0015320D01*
X-0014809Y-0013782D02*
X-0015305D01*
X-0014794Y-0013799D02*
X-0015291D01*
X-0014780Y-0013817D02*
X-0015276D01*
X-0014768Y-0013835D02*
X-0015261D01*
X-0014789Y-0013852D02*
X-0015246D01*
X-0014810Y-0013870D02*
X-0015231D01*
X-0014831Y-0013888D02*
X-0015216D01*
X-0014852Y-0013905D02*
X-0015201D01*
X-0014873Y-0013923D02*
X-0015187D01*
X-0014894Y-0013941D02*
X-0015172D01*
X-0014915Y-0013959D02*
X-0015157D01*
X-0014936Y-0013976D02*
X-0015142D01*
X-0014957Y-0013994D02*
X-0015127D01*
X-0014978Y-0014012D02*
X-0015112D01*
X-0014999Y-0014029D02*
X-0015097D01*
X-0015020Y-0014047D02*
X-0015083D01*
X-0015042Y-0014065D02*
X-0015068D01*
X-0015366Y-0013710D02*
X-0015057Y-0014078D01*
X-0015074Y-0013466D02*
X-0015366Y-0013710D01*
X-0015074Y-0013466D02*
X-0014766Y-0013833D01*
X-0015057Y-0014078D01*
X-0014787Y-0013809D02*
Y-0013851D01*
X-0014804Y-0013787D02*
Y-0013866D01*
X-0014822Y-0013766D02*
Y-0013880D01*
X-0014840Y-0013745D02*
Y-0013895D01*
X-0014857Y-0013724D02*
Y-0013910D01*
X-0014875Y-0013703D02*
Y-0013925D01*
X-0014893Y-0013682D02*
Y-0013940D01*
X-0014910Y-0013661D02*
Y-0013955D01*
X-0014928Y-0013640D02*
Y-0013969D01*
X-0014946Y-0013619D02*
Y-0013984D01*
X-0014964Y-0013598D02*
Y-0013999D01*
X-0014981Y-0013577D02*
Y-0014014D01*
X-0014999Y-0013555D02*
Y-0014029D01*
X-0014588Y-0013175D02*
Y-0013683D01*
X-0014605Y-0013154D02*
Y-0013698D01*
X-0014623Y-0013133D02*
Y-0013713D01*
X-0014641Y-0013111D02*
Y-0013703D01*
X-0014658Y-0013116D02*
Y-0013682D01*
X-0014676Y-0013131D02*
Y-0013661D01*
X-0014694Y-0013146D02*
Y-0013640D01*
X-0014711Y-0013161D02*
Y-0013618D01*
X-0014729Y-0013176D02*
Y-0013597D01*
X-0014747Y-0013191D02*
Y-0013576D01*
X-0014764Y-0013205D02*
Y-0013555D01*
X-0014782Y-0013220D02*
Y-0013534D01*
X-0014800Y-0013235D02*
Y-0013513D01*
X-0014818Y-0013250D02*
Y-0013492D01*
X-0014835Y-0013265D02*
Y-0013471D01*
X-0014853Y-0013280D02*
Y-0013450D01*
X-0014871Y-0013295D02*
Y-0013429D01*
X-0014888Y-0013309D02*
Y-0013408D01*
X-0014906Y-0013324D02*
Y-0013386D01*
X-0014924Y-0013339D02*
Y-0013365D01*
X-0014633Y-0013121D02*
X-0014664D01*
X-0014618Y-0013139D02*
X-0014685D01*
X-0014603Y-0013156D02*
X-0014706D01*
X-0014588Y-0013174D02*
X-0014727D01*
X-0014573Y-0013192D02*
X-0014748D01*
X-0014558Y-0013209D02*
X-0014769D01*
X-0014544Y-0013227D02*
X-0014790D01*
X-0014529Y-0013245D02*
X-0014811D01*
X-0014514Y-0013262D02*
X-0014832D01*
X-0014499Y-0013280D02*
X-0014853D01*
X-0014484Y-0013298D02*
X-0014875D01*
X-0014469Y-0013316D02*
X-0014896D01*
X-0014454Y-0013333D02*
X-0014917D01*
X-0014440Y-0013351D02*
X-0014936D01*
X-0014425Y-0013369D02*
X-0014921D01*
X-0014410Y-0013386D02*
X-0014906D01*
X-0014395Y-0013404D02*
X-0014891D01*
X-0014380Y-0013422D02*
X-0014876D01*
X-0014365Y-0013439D02*
X-0014862D01*
X-0014351Y-0013457D02*
X-0014847D01*
X-0014339Y-0013475D02*
X-0014832D01*
X-0014360Y-0013492D02*
X-0014817D01*
X-0014381Y-0013510D02*
X-0014802D01*
X-0014402Y-0013528D02*
X-0014787D01*
X-0014423Y-0013545D02*
X-0014773D01*
X-0014444Y-0013563D02*
X-0014758D01*
X-0014465Y-0013581D02*
X-0014743D01*
X-0014486Y-0013599D02*
X-0014728D01*
X-0014507Y-0013616D02*
X-0014713D01*
X-0014528Y-0013634D02*
X-0014698D01*
X-0014550Y-0013652D02*
X-0014684D01*
X-0014571Y-0013669D02*
X-0014669D01*
X-0014592Y-0013687D02*
X-0014654D01*
X-0014613Y-0013705D02*
X-0014639D01*
X-0014646Y-0013106D02*
X-0014337Y-0013473D01*
X-0014628Y-0013718D01*
X-0014937Y-0013350D02*
X-0014628Y-0013718D01*
X-0014646Y-0013106D02*
X-0014937Y-0013350D01*
X-0014358Y-0013449D02*
Y-0013491D01*
X-0014375Y-0013427D02*
Y-0013505D01*
X-0014393Y-0013406D02*
Y-0013520D01*
X-0014411Y-0013385D02*
Y-0013535D01*
X-0014428Y-0013364D02*
Y-0013550D01*
X-0014446Y-0013343D02*
Y-0013565D01*
X-0014464Y-0013322D02*
Y-0013580D01*
X-0014481Y-0013301D02*
Y-0013594D01*
X-0014499Y-0013280D02*
Y-0013609D01*
X-0014517Y-0013259D02*
Y-0013624D01*
X-0014535Y-0013238D02*
Y-0013639D01*
X-0014552Y-0013217D02*
Y-0013654D01*
X-0014570Y-0013196D02*
Y-0013669D01*
X-0018813Y0005231D02*
Y0004838D01*
X-0018830Y0005236D02*
Y0004843D01*
X-0018848Y0005241D02*
Y0004848D01*
X-0018866Y0005246D02*
Y0004852D01*
X-0018883Y0005250D02*
Y0004857D01*
X-0018901Y0005255D02*
Y0004862D01*
X-0018919Y0005260D02*
Y0004867D01*
X-0018937Y0005265D02*
Y0004871D01*
X-0018954Y0005269D02*
Y0004876D01*
X-0018972Y0005216D02*
Y0004881D01*
X-0018990Y0005150D02*
Y0004886D01*
X-0019007Y0005084D02*
Y0004890D01*
X-0019025Y0005018D02*
Y0004895D01*
X-0019043Y0004952D02*
Y0004900D01*
X-0018888Y0005252D02*
X-0018962D01*
X-0018822Y0005234D02*
X-0018967D01*
X-0018756Y0005216D02*
X-0018972D01*
X-0018690Y0005199D02*
X-0018976D01*
X-0018624Y0005181D02*
X-0018981D01*
X-0018558Y0005163D02*
X-0018986D01*
X-0018494Y0005146D02*
X-0018991D01*
X-0018498Y0005128D02*
X-0018995D01*
X-0018503Y0005110D02*
X-0019000D01*
X-0018508Y0005093D02*
X-0019005D01*
X-0018513Y0005075D02*
X-0019010D01*
X-0018517Y0005057D02*
X-0019014D01*
X-0018522Y0005039D02*
X-0019019D01*
X-0018527Y0005022D02*
X-0019024D01*
X-0018532Y0005004D02*
X-0019029D01*
X-0018536Y0004986D02*
X-0019033D01*
X-0018541Y0004969D02*
X-0019038D01*
X-0018546Y0004951D02*
X-0019043D01*
X-0018551Y0004933D02*
X-0019048D01*
X-0018555Y0004916D02*
X-0019052D01*
X-0018560Y0004898D02*
X-0019036D01*
X-0018565Y0004880D02*
X-0018970D01*
X-0018569Y0004863D02*
X-0018904D01*
X-0018574Y0004845D02*
X-0018838D01*
X-0018579Y0004827D02*
X-0018772D01*
X-0018584Y0004810D02*
X-0018706D01*
X-0018588Y0004792D02*
X-0018640D01*
X-0018957Y0005270D02*
X-0018494Y0005146D01*
X-0018592Y0004779D01*
X-0019056Y0004903D02*
X-0018592Y0004779D01*
X-0018957Y0005270D02*
X-0019056Y0004903D01*
X-0018512Y0005151D02*
Y0005077D01*
X-0018530Y0005156D02*
Y0005011D01*
X-0018547Y0005160D02*
Y0004945D01*
X-0018565Y0005165D02*
Y0004879D01*
X-0018583Y0005170D02*
Y0004813D01*
X-0018600Y0005175D02*
Y0004781D01*
X-0018618Y0005179D02*
Y0004786D01*
X-0018636Y0005184D02*
Y0004791D01*
X-0018654Y0005189D02*
Y0004795D01*
X-0018671Y0005194D02*
Y0004800D01*
X-0018689Y0005198D02*
Y0004805D01*
X-0018707Y0005203D02*
Y0004810D01*
X-0018724Y0005208D02*
Y0004814D01*
X-0018742Y0005213D02*
Y0004819D01*
X-0018760Y0005217D02*
Y0004824D01*
X-0018777Y0005222D02*
Y0004829D01*
X-0018795Y0005227D02*
Y0004833D01*
X-0018958Y0004691D02*
Y0004297D01*
X-0018975Y0004695D02*
Y0004302D01*
X-0018993Y0004700D02*
Y0004307D01*
X-0019011Y0004705D02*
Y0004311D01*
X-0019028Y0004710D02*
Y0004316D01*
X-0019046Y0004714D02*
Y0004321D01*
X-0019064Y0004719D02*
Y0004326D01*
X-0019082Y0004724D02*
Y0004330D01*
X-0019099Y0004728D02*
Y0004335D01*
X-0019117Y0004675D02*
Y0004340D01*
X-0019135Y0004609D02*
Y0004345D01*
X-0019152Y0004543D02*
Y0004349D01*
X-0019170Y0004477D02*
Y0004354D01*
X-0019188Y0004411D02*
Y0004359D01*
X-0019033Y0004711D02*
X-0019107D01*
X-0018967Y0004693D02*
X-0019112D01*
X-0018901Y0004675D02*
X-0019117D01*
X-0018834Y0004658D02*
X-0019121D01*
X-0018768Y0004640D02*
X-0019126D01*
X-0018702Y0004622D02*
X-0019131D01*
X-0018638Y0004605D02*
X-0019136D01*
X-0018643Y0004587D02*
X-0019140D01*
X-0018648Y0004569D02*
X-0019145D01*
X-0018653Y0004552D02*
X-0019150D01*
X-0018657Y0004534D02*
X-0019155D01*
X-0018662Y0004516D02*
X-0019159D01*
X-0018667Y0004498D02*
X-0019164D01*
X-0018672Y0004481D02*
X-0019169D01*
X-0018676Y0004463D02*
X-0019174D01*
X-0018681Y0004445D02*
X-0019178D01*
X-0018686Y0004428D02*
X-0019183D01*
X-0018691Y0004410D02*
X-0019188D01*
X-0018695Y0004392D02*
X-0019193D01*
X-0018700Y0004375D02*
X-0019197D01*
X-0018705Y0004357D02*
X-0019181D01*
X-0018710Y0004339D02*
X-0019115D01*
X-0018714Y0004322D02*
X-0019049D01*
X-0018719Y0004304D02*
X-0018983D01*
X-0018724Y0004286D02*
X-0018917D01*
X-0018729Y0004269D02*
X-0018851D01*
X-0018733Y0004251D02*
X-0018785D01*
X-0019201Y0004362D02*
X-0018737Y0004238D01*
X-0019102Y0004729D02*
X-0019201Y0004362D01*
X-0019102Y0004729D02*
X-0018638Y0004605D01*
X-0018737Y0004238D01*
X-0018657Y0004610D02*
Y0004535D01*
X-0018675Y0004615D02*
Y0004470D01*
X-0018692Y0004620D02*
Y0004404D01*
X-0018710Y0004624D02*
Y0004338D01*
X-0018728Y0004629D02*
Y0004272D01*
X-0018745Y0004634D02*
Y0004240D01*
X-0018763Y0004639D02*
Y0004245D01*
X-0018781Y0004643D02*
Y0004250D01*
X-0018799Y0004648D02*
Y0004254D01*
X-0018816Y0004653D02*
Y0004259D01*
X-0018834Y0004658D02*
Y0004264D01*
X-0018852Y0004662D02*
Y0004269D01*
X-0018869Y0004667D02*
Y0004273D01*
X-0018887Y0004672D02*
Y0004278D01*
X-0018905Y0004676D02*
Y0004283D01*
X-0018922Y0004681D02*
Y0004288D01*
X-0018940Y0004686D02*
Y0004292D01*
X-0020056Y0004347D02*
Y0003850D01*
X-0020074Y0004352D02*
Y0003855D01*
X-0020092Y0004357D02*
Y0003860D01*
X-0020109Y0004342D02*
Y0003865D01*
X-0020127Y0004276D02*
Y0003869D01*
X-0020145Y0004210D02*
Y0003874D01*
X-0020162Y0004143D02*
Y0003879D01*
X-0020180Y0004077D02*
Y0003884D01*
X-0020198Y0004011D02*
Y0003888D01*
X-0020215Y0003945D02*
Y0003893D01*
X-0020035Y0004342D02*
X-0020109D01*
X-0019969Y0004324D02*
X-0020114D01*
X-0019903Y0004306D02*
X-0020119D01*
X-0019837Y0004289D02*
X-0020123D01*
X-0019771Y0004271D02*
X-0020128D01*
X-0019739Y0004253D02*
X-0020133D01*
X-0019744Y0004236D02*
X-0020138D01*
X-0019749Y0004218D02*
X-0020142D01*
X-0019753Y0004200D02*
X-0020147D01*
X-0019758Y0004183D02*
X-0020152D01*
X-0019763Y0004165D02*
X-0020156D01*
X-0019768Y0004147D02*
X-0020161D01*
X-0019772Y0004130D02*
X-0020166D01*
X-0019777Y0004112D02*
X-0020171D01*
X-0019782Y0004094D02*
X-0020175D01*
X-0019787Y0004077D02*
X-0020180D01*
X-0019791Y0004059D02*
X-0020185D01*
X-0019796Y0004041D02*
X-0020190D01*
X-0019801Y0004023D02*
X-0020194D01*
X-0019806Y0004006D02*
X-0020199D01*
X-0019810Y0003988D02*
X-0020204D01*
X-0019815Y0003970D02*
X-0020209D01*
X-0019820Y0003953D02*
X-0020213D01*
X-0019825Y0003935D02*
X-0020218D01*
X-0019829Y0003917D02*
X-0020223D01*
X-0019834Y0003900D02*
X-0020227D01*
X-0019839Y0003882D02*
X-0020174D01*
X-0019844Y0003864D02*
X-0020108D01*
X-0019848Y0003847D02*
X-0020042D01*
X-0019853Y0003829D02*
X-0019976D01*
X-0019858Y0003811D02*
X-0019910D01*
X-0020104Y0004360D02*
X-0020228Y0003897D01*
X-0020104Y0004360D02*
X-0019737Y0004262D01*
X-0019861Y0003798D01*
X-0020228Y0003897D02*
X-0019861Y0003798D01*
X-0019755Y0004267D02*
Y0004193D01*
X-0019773Y0004272D02*
Y0004127D01*
X-0019791Y0004276D02*
Y0004061D01*
X-0019809Y0004281D02*
Y0003995D01*
X-0019826Y0004286D02*
Y0003929D01*
X-0019844Y0004291D02*
Y0003863D01*
X-0019862Y0004295D02*
Y0003798D01*
X-0019879Y0004300D02*
Y0003803D01*
X-0019897Y0004305D02*
Y0003808D01*
X-0019915Y0004309D02*
Y0003813D01*
X-0019932Y0004314D02*
Y0003817D01*
X-0019950Y0004319D02*
Y0003822D01*
X-0019968Y0004324D02*
Y0003827D01*
X-0019985Y0004328D02*
Y0003832D01*
X-0020003Y0004333D02*
Y0003836D01*
X-0020021Y0004338D02*
Y0003841D01*
X-0020038Y0004343D02*
Y0003846D01*
X-0019515Y0004203D02*
Y0003706D01*
X-0019533Y0004207D02*
Y0003710D01*
X-0019551Y0004212D02*
Y0003715D01*
X-0019569Y0004196D02*
Y0003720D01*
X-0019586Y0004130D02*
Y0003724D01*
X-0019604Y0004064D02*
Y0003729D01*
X-0019622Y0003998D02*
Y0003734D01*
X-0019639Y0003932D02*
Y0003739D01*
X-0019657Y0003866D02*
Y0003743D01*
X-0019675Y0003800D02*
Y0003748D01*
X-0019493Y0004197D02*
X-0019568D01*
X-0019428Y0004179D02*
X-0019573D01*
X-0019362Y0004161D02*
X-0019578D01*
X-0019296Y0004144D02*
X-0019582D01*
X-0019230Y0004126D02*
X-0019587D01*
X-0019199Y0004108D02*
X-0019592D01*
X-0019203Y0004091D02*
X-0019597D01*
X-0019208Y0004073D02*
X-0019601D01*
X-0019213Y0004055D02*
X-0019606D01*
X-0019217Y0004038D02*
X-0019611D01*
X-0019222Y0004020D02*
X-0019616D01*
X-0019227Y0004002D02*
X-0019620D01*
X-0019232Y0003985D02*
X-0019625D01*
X-0019236Y0003967D02*
X-0019630D01*
X-0019241Y0003949D02*
X-0019635D01*
X-0019246Y0003932D02*
X-0019639D01*
X-0019251Y0003914D02*
X-0019644D01*
X-0019255Y0003896D02*
X-0019649D01*
X-0019260Y0003878D02*
X-0019654D01*
X-0019265Y0003861D02*
X-0019658D01*
X-0019269Y0003843D02*
X-0019663D01*
X-0019274Y0003825D02*
X-0019668D01*
X-0019279Y0003808D02*
X-0019673D01*
X-0019284Y0003790D02*
X-0019677D01*
X-0019288Y0003772D02*
X-0019682D01*
X-0019293Y0003755D02*
X-0019687D01*
X-0019298Y0003737D02*
X-0019633D01*
X-0019303Y0003719D02*
X-0019567D01*
X-0019307Y0003702D02*
X-0019501D01*
X-0019312Y0003684D02*
X-0019435D01*
X-0019317Y0003666D02*
X-0019369D01*
X-0019196Y0004117D02*
X-0019320Y0003653D01*
X-0019688Y0003752D02*
X-0019320Y0003653D01*
X-0019563Y0004216D02*
X-0019688Y0003752D01*
X-0019563Y0004216D02*
X-0019196Y0004117D01*
X-0019215Y0004122D02*
Y0004048D01*
X-0019232Y0004127D02*
Y0003982D01*
X-0019250Y0004131D02*
Y0003915D01*
X-0019268Y0004136D02*
Y0003849D01*
X-0019286Y0004141D02*
Y0003783D01*
X-0019303Y0004146D02*
Y0003717D01*
X-0019321Y0004150D02*
Y0003653D01*
X-0019339Y0004155D02*
Y0003658D01*
X-0019356Y0004160D02*
Y0003663D01*
X-0019374Y0004165D02*
Y0003668D01*
X-0019392Y0004169D02*
Y0003672D01*
X-0019409Y0004174D02*
Y0003677D01*
X-0019427Y0004179D02*
Y0003682D01*
X-0019445Y0004184D02*
Y0003687D01*
X-0019462Y0004188D02*
Y0003691D01*
X-0019480Y0004193D02*
Y0003696D01*
X-0019498Y0004198D02*
Y0003701D01*
X-0015260Y0012607D02*
Y0012111D01*
X-0015278Y0012622D02*
Y0012126D01*
X-0015295Y0012637D02*
Y0012140D01*
X-0015313Y0012651D02*
Y0012155D01*
X-0015331Y0012666D02*
Y0012170D01*
X-0015348Y0012681D02*
Y0012185D01*
X-0015366Y0012696D02*
Y0012200D01*
X-0015384Y0012707D02*
Y0012215D01*
X-0015401Y0012686D02*
Y0012229D01*
X-0015419Y0012665D02*
Y0012244D01*
X-0015437Y0012644D02*
Y0012259D01*
X-0015454Y0012623D02*
Y0012274D01*
X-0015472Y0012602D02*
Y0012289D01*
X-0015490Y0012581D02*
Y0012304D01*
X-0015508Y0012560D02*
Y0012318D01*
X-0015525Y0012539D02*
Y0012333D01*
X-0015543Y0012518D02*
Y0012348D01*
X-0015561Y0012497D02*
Y0012363D01*
X-0015578Y0012476D02*
Y0012378D01*
X-0015596Y0012455D02*
Y0012393D01*
X-0015614Y0012434D02*
Y0012407D01*
X-0015357Y0012689D02*
X-0015399D01*
X-0015336Y0012671D02*
X-0015414D01*
X-0015315Y0012653D02*
X-0015429D01*
X-0015294Y0012635D02*
X-0015444D01*
X-0015273Y0012618D02*
X-0015459D01*
X-0015252Y0012600D02*
X-0015474D01*
X-0015231Y0012582D02*
X-0015489D01*
X-0015210Y0012565D02*
X-0015503D01*
X-0015188Y0012547D02*
X-0015518D01*
X-0015167Y0012529D02*
X-0015533D01*
X-0015146Y0012512D02*
X-0015548D01*
X-0015125Y0012494D02*
X-0015563D01*
X-0015104Y0012476D02*
X-0015578D01*
X-0015083Y0012459D02*
X-0015593D01*
X-0015062Y0012441D02*
X-0015608D01*
X-0015041Y0012423D02*
X-0015622D01*
X-0015020Y0012406D02*
X-0015611D01*
X-0015025Y0012388D02*
X-0015590D01*
X-0015040Y0012370D02*
X-0015569D01*
X-0015055Y0012352D02*
X-0015548D01*
X-0015070Y0012335D02*
X-0015527D01*
X-0015085Y0012317D02*
X-0015506D01*
X-0015099Y0012299D02*
X-0015485D01*
X-0015114Y0012282D02*
X-0015464D01*
X-0015129Y0012264D02*
X-0015443D01*
X-0015144Y0012246D02*
X-0015422D01*
X-0015159Y0012229D02*
X-0015401D01*
X-0015174Y0012211D02*
X-0015379D01*
X-0015188Y0012193D02*
X-0015358D01*
X-0015203Y0012176D02*
X-0015337D01*
X-0015218Y0012158D02*
X-0015316D01*
X-0015233Y0012140D02*
X-0015295D01*
X-0015248Y0012123D02*
X-0015274D01*
X-0015382Y0012709D02*
X-0015014Y0012401D01*
X-0015259Y0012110D01*
X-0015627Y0012418D02*
X-0015259Y0012110D01*
X-0015382Y0012709D02*
X-0015627Y0012418D01*
X-0015030Y0012414D02*
Y0012382D01*
X-0015048Y0012429D02*
Y0012361D01*
X-0015065Y0012444D02*
Y0012340D01*
X-0015083Y0012459D02*
Y0012319D01*
X-0015101Y0012473D02*
Y0012298D01*
X-0015118Y0012488D02*
Y0012277D01*
X-0015136Y0012503D02*
Y0012256D01*
X-0015154Y0012518D02*
Y0012235D01*
X-0015171Y0012533D02*
Y0012213D01*
X-0015189Y0012548D02*
Y0012192D01*
X-0015207Y0012562D02*
Y0012171D01*
X-0015225Y0012577D02*
Y0012150D01*
X-0015242Y0012592D02*
Y0012129D01*
X-0015620Y0012178D02*
Y0011681D01*
X-0015637Y0012193D02*
Y0011696D01*
X-0015655Y0012208D02*
Y0011711D01*
X-0015673Y0012222D02*
Y0011726D01*
X-0015690Y0012237D02*
Y0011741D01*
X-0015708Y0012252D02*
Y0011756D01*
X-0015726Y0012267D02*
Y0011771D01*
X-0015743Y0012279D02*
Y0011785D01*
X-0015761Y0012258D02*
Y0011800D01*
X-0015779Y0012237D02*
Y0011815D01*
X-0015796Y0012216D02*
Y0011830D01*
X-0015814Y0012194D02*
Y0011845D01*
X-0015832Y0012173D02*
Y0011860D01*
X-0015850Y0012152D02*
Y0011874D01*
X-0015867Y0012131D02*
Y0011889D01*
X-0015885Y0012110D02*
Y0011904D01*
X-0015903Y0012089D02*
Y0011919D01*
X-0015920Y0012068D02*
Y0011934D01*
X-0015938Y0012047D02*
Y0011949D01*
X-0015956Y0012026D02*
Y0011964D01*
X-0015973Y0012005D02*
Y0011978D01*
X-0015717Y0012260D02*
X-0015760D01*
X-0015696Y0012242D02*
X-0015774D01*
X-0015675Y0012224D02*
X-0015789D01*
X-0015654Y0012206D02*
X-0015804D01*
X-0015633Y0012189D02*
X-0015819D01*
X-0015611Y0012171D02*
X-0015834D01*
X-0015590Y0012153D02*
X-0015849D01*
X-0015569Y0012136D02*
X-0015863D01*
X-0015548Y0012118D02*
X-0015878D01*
X-0015527Y0012100D02*
X-0015893D01*
X-0015506Y0012083D02*
X-0015908D01*
X-0015485Y0012065D02*
X-0015923D01*
X-0015464Y0012047D02*
X-0015938D01*
X-0015443Y0012030D02*
X-0015952D01*
X-0015422Y0012012D02*
X-0015967D01*
X-0015401Y0011994D02*
X-0015982D01*
X-0015380Y0011977D02*
X-0015971D01*
X-0015385Y0011959D02*
X-0015950D01*
X-0015400Y0011941D02*
X-0015929D01*
X-0015415Y0011923D02*
X-0015908D01*
X-0015430Y0011906D02*
X-0015887D01*
X-0015445Y0011888D02*
X-0015866D01*
X-0015459Y0011870D02*
X-0015845D01*
X-0015474Y0011853D02*
X-0015824D01*
X-0015489Y0011835D02*
X-0015803D01*
X-0015504Y0011817D02*
X-0015781D01*
X-0015519Y0011800D02*
X-0015760D01*
X-0015534Y0011782D02*
X-0015739D01*
X-0015548Y0011764D02*
X-0015718D01*
X-0015563Y0011747D02*
X-0015697D01*
X-0015578Y0011729D02*
X-0015676D01*
X-0015593Y0011711D02*
X-0015655D01*
X-0015608Y0011694D02*
X-0015634D01*
X-0015986Y0011989D02*
X-0015619Y0011681D01*
X-0015742Y0012281D02*
X-0015986Y0011989D01*
X-0015742Y0012281D02*
X-0015374Y0011972D01*
X-0015619Y0011681D01*
X-0015390Y0011985D02*
Y0011954D01*
X-0015407Y0012000D02*
Y0011932D01*
X-0015425Y0012015D02*
Y0011911D01*
X-0015443Y0012029D02*
Y0011890D01*
X-0015460Y0012044D02*
Y0011869D01*
X-0015478Y0012059D02*
Y0011848D01*
X-0015496Y0012074D02*
Y0011827D01*
X-0015513Y0012089D02*
Y0011806D01*
X-0015531Y0012104D02*
Y0011785D01*
X-0015549Y0012118D02*
Y0011764D01*
X-0015567Y0012133D02*
Y0011743D01*
X-0015584Y0012148D02*
Y0011722D01*
X-0015602Y0012163D02*
Y0011701D01*
X-0016609Y0012229D02*
Y0011720D01*
X-0016626Y0012244D02*
Y0011699D01*
X-0016644Y0012259D02*
Y0011678D01*
X-0016662Y0012248D02*
Y0011656D01*
X-0016679Y0012227D02*
Y0011662D01*
X-0016697Y0012206D02*
Y0011677D01*
X-0016715Y0012185D02*
Y0011692D01*
X-0016732Y0012164D02*
Y0011706D01*
X-0016750Y0012143D02*
Y0011721D01*
X-0016768Y0012122D02*
Y0011736D01*
X-0016785Y0012101D02*
Y0011751D01*
X-0016803Y0012080D02*
Y0011766D01*
X-0016821Y0012058D02*
Y0011781D01*
X-0016839Y0012037D02*
Y0011796D01*
X-0016856Y0012016D02*
Y0011810D01*
X-0016874Y0011995D02*
Y0011825D01*
X-0016892Y0011974D02*
Y0011840D01*
X-0016909Y0011953D02*
Y0011855D01*
X-0016927Y0011932D02*
Y0011870D01*
X-0016945Y0011911D02*
Y0011885D01*
X-0016630Y0012248D02*
X-0016662D01*
X-0016609Y0012230D02*
X-0016677D01*
X-0016588Y0012212D02*
X-0016692D01*
X-0016567Y0012194D02*
X-0016707D01*
X-0016546Y0012177D02*
X-0016722D01*
X-0016525Y0012159D02*
X-0016736D01*
X-0016504Y0012141D02*
X-0016751D01*
X-0016483Y0012124D02*
X-0016766D01*
X-0016462Y0012106D02*
X-0016781D01*
X-0016441Y0012088D02*
X-0016796D01*
X-0016420Y0012071D02*
X-0016811D01*
X-0016398Y0012053D02*
X-0016825D01*
X-0016377Y0012035D02*
X-0016840D01*
X-0016359Y0012018D02*
X-0016855D01*
X-0016374Y0012000D02*
X-0016870D01*
X-0016389Y0011982D02*
X-0016885D01*
X-0016403Y0011965D02*
X-0016900D01*
X-0016418Y0011947D02*
X-0016915D01*
X-0016433Y0011929D02*
X-0016929D01*
X-0016448Y0011911D02*
X-0016944D01*
X-0016463Y0011894D02*
X-0016955D01*
X-0016478Y0011876D02*
X-0016934D01*
X-0016492Y0011858D02*
X-0016913D01*
X-0016507Y0011841D02*
X-0016892D01*
X-0016522Y0011823D02*
X-0016871D01*
X-0016537Y0011805D02*
X-0016850D01*
X-0016552Y0011788D02*
X-0016829D01*
X-0016566Y0011770D02*
X-0016808D01*
X-0016581Y0011752D02*
X-0016787D01*
X-0016596Y0011735D02*
X-0016766D01*
X-0016611Y0011717D02*
X-0016745D01*
X-0016626Y0011699D02*
X-0016724D01*
X-0016641Y0011682D02*
X-0016703D01*
X-0016655Y0011664D02*
X-0016682D01*
X-0016649Y0012263D02*
X-0016958Y0011896D01*
X-0016649Y0012263D02*
X-0016358Y0012019D01*
X-0016666Y0011651D01*
X-0016958Y0011896D02*
X-0016666Y0011651D01*
X-0016379Y0012036D02*
Y0011994D01*
X-0016396Y0012051D02*
Y0011973D01*
X-0016414Y0012066D02*
Y0011952D01*
X-0016432Y0012081D02*
Y0011931D01*
X-0016449Y0012096D02*
Y0011910D01*
X-0016467Y0012111D02*
Y0011889D01*
X-0016485Y0012125D02*
Y0011868D01*
X-0016502Y0012140D02*
Y0011846D01*
X-0016520Y0012155D02*
Y0011825D01*
X-0016538Y0012170D02*
Y0011804D01*
X-0016556Y0012185D02*
Y0011783D01*
X-0016573Y0012200D02*
Y0011762D01*
X-0016591Y0012215D02*
Y0011741D01*
X-0016180Y0011869D02*
Y0011360D01*
X-0016197Y0011884D02*
Y0011339D01*
X-0016215Y0011899D02*
Y0011318D01*
X-0016233Y0011888D02*
Y0011297D01*
X-0016250Y0011867D02*
Y0011302D01*
X-0016268Y0011846D02*
Y0011317D01*
X-0016286Y0011825D02*
Y0011332D01*
X-0016303Y0011804D02*
Y0011347D01*
X-0016321Y0011783D02*
Y0011361D01*
X-0016339Y0011762D02*
Y0011376D01*
X-0016356Y0011741D02*
Y0011391D01*
X-0016374Y0011720D02*
Y0011406D01*
X-0016392Y0011699D02*
Y0011421D01*
X-0016410Y0011678D02*
Y0011436D01*
X-0016427Y0011656D02*
Y0011450D01*
X-0016445Y0011635D02*
Y0011465D01*
X-0016463Y0011614D02*
Y0011480D01*
X-0016480Y0011593D02*
Y0011495D01*
X-0016498Y0011572D02*
Y0011510D01*
X-0016516Y0011551D02*
Y0011525D01*
X-0016202Y0011888D02*
X-0016233D01*
X-0016181Y0011870D02*
X-0016248D01*
X-0016160Y0011853D02*
X-0016263D01*
X-0016139Y0011835D02*
X-0016278D01*
X-0016118Y0011817D02*
X-0016292D01*
X-0016096Y0011799D02*
X-0016307D01*
X-0016075Y0011782D02*
X-0016322D01*
X-0016054Y0011764D02*
X-0016337D01*
X-0016033Y0011746D02*
X-0016352D01*
X-0016012Y0011729D02*
X-0016367D01*
X-0015991Y0011711D02*
X-0016381D01*
X-0015970Y0011693D02*
X-0016396D01*
X-0015949Y0011676D02*
X-0016411D01*
X-0015930Y0011658D02*
X-0016426D01*
X-0015945Y0011640D02*
X-0016441D01*
X-0015959Y0011623D02*
X-0016456D01*
X-0015974Y0011605D02*
X-0016470D01*
X-0015989Y0011587D02*
X-0016485D01*
X-0016004Y0011570D02*
X-0016500D01*
X-0016019Y0011552D02*
X-0016515D01*
X-0016034Y0011534D02*
X-0016527D01*
X-0016049Y0011516D02*
X-0016506D01*
X-0016063Y0011499D02*
X-0016485D01*
X-0016078Y0011481D02*
X-0016464D01*
X-0016093Y0011463D02*
X-0016443D01*
X-0016108Y0011446D02*
X-0016422D01*
X-0016123Y0011428D02*
X-0016400D01*
X-0016138Y0011410D02*
X-0016379D01*
X-0016152Y0011393D02*
X-0016358D01*
X-0016167Y0011375D02*
X-0016337D01*
X-0016182Y0011357D02*
X-0016316D01*
X-0016197Y0011340D02*
X-0016295D01*
X-0016212Y0011322D02*
X-0016274D01*
X-0016227Y0011304D02*
X-0016253D01*
X-0015929Y0011659D02*
X-0016238Y0011291D01*
X-0016529Y0011536D02*
X-0016238Y0011291D01*
X-0016220Y0011903D02*
X-0016529Y0011536D01*
X-0016220Y0011903D02*
X-0015929Y0011659D01*
X-0015950Y0011676D02*
Y0011634D01*
X-0015967Y0011691D02*
Y0011613D01*
X-0015985Y0011706D02*
Y0011592D01*
X-0016003Y0011721D02*
Y0011571D01*
X-0016020Y0011736D02*
Y0011550D01*
X-0016038Y0011750D02*
Y0011529D01*
X-0016056Y0011765D02*
Y0011508D01*
X-0016073Y0011780D02*
Y0011487D01*
X-0016091Y0011795D02*
Y0011466D01*
X-0016109Y0011810D02*
Y0011445D01*
X-0016127Y0011825D02*
Y0011424D01*
X-0016144Y0011839D02*
Y0011402D01*
X-0016162Y0011854D02*
Y0011381D01*
G54D58*
G01X-0006529Y-0000177D02*
X-0006097D01*
X-0006529D02*
X-0006097D01*
X0014252Y0002880D02*
X0012934D01*
X0012280Y0002226D01*
Y0001672D01*
X0014336Y0002034D02*
Y0002038D01*
X0014252Y0002122D01*
X0014980D01*
G54D60*
G01X-0010345Y0000826D03*
X-0014317Y0000000D03*
X-0012016Y-0001691D03*
X-0013126Y0005670D02*
X-0011177D01*
X-0011171Y0005664D01*
X-0010246Y0000728D02*
X-0010345Y0000826D01*
X-0012016Y-0001691D02*
X-0012134Y-0001809D01*
X-0013678Y0002222D02*
X-0013664D01*
Y0002463D01*
X0002321Y0008260D02*
X0002222D01*
X0001947Y0007985D01*
Y0007670D01*
X-0005900Y-0002458D02*
X-0005979Y-0002380D01*
X-0006490D01*
X0000787Y0007395D02*
X0000786Y0007394D01*
X-0002635Y0004110D03*
X0015374Y0003948D02*
X0015050D01*
Y0004266D02*
Y0003948D01*
Y0003602D01*
X0004012Y0003579D03*
X-0008732Y0001534D02*
X-0008968D01*
X-0007277Y0000747D02*
X-0007454D01*
X0004346Y0000256D03*
X0009229Y-0002804D03*
X0004012Y-0003737D03*
X-0015568Y-0004982D02*
Y-0005300D01*
X-0016318Y-0005002D02*
Y-0005300D01*
X0003092Y-0010304D02*
X0002712D01*
X0007234Y-0015654D02*
Y-0015950D01*
X0009914Y-0015450D02*
X0009692D01*
X0009378Y-0015764D01*
X-0014154Y-0013518D02*
X-0014530D01*
X-0014637Y-0013412D01*
X0001118Y-0010278D02*
X0001476D01*
X0001504Y-0010306D01*
X-0012185Y-0009773D02*
Y-0010075D01*
X-0012264Y-0010154D01*
X-0001101Y-0004130D02*
X-0001082Y-0004150D01*
Y-0004602D01*
X-0004862Y-0004666D02*
Y-0004184D01*
X-0004897Y-0004150D01*
Y-0004130D01*
X-0013275Y-0002989D02*
Y-0003179D01*
X-0013276Y-0003180D01*
X-0010888Y-0003284D02*
X-0011007D01*
X-0011112Y-0003180D01*
Y-0002989D01*
X0008437Y-0002586D02*
X0009011D01*
X0009229Y-0002804D01*
X-0001455Y-0002321D02*
X-0001457Y-0002322D01*
X-0001746D01*
X-0001494Y-0002070D02*
X-0001746Y-0002322D01*
X-0003530Y-0002318D02*
X-0003228D01*
X-0003225Y-0002321D01*
X0005546Y-0001495D02*
X0005408Y-0001632D01*
X0004877D01*
X0017106Y0000092D02*
Y-0000564D01*
X0016278Y-0001392D01*
X-0008968Y-0001023D02*
X-0008660D01*
X-0008657Y-0001026D01*
X-0008358Y0000118D02*
X-0008364D01*
X-0008420Y0000174D01*
X-0008830D01*
X-0008732Y0001534D02*
Y0001023D01*
X-0008830Y0000924D01*
X-0000865Y0003244D02*
Y0002518D01*
X-0000983Y0002399D01*
X-0004629Y0004294D02*
X-0004959D01*
X-0004629D02*
X-0004329Y0003995D01*
Y0003244D01*
X-0002635Y0004110D02*
X-0002439Y0003914D01*
X0004012Y0003579D02*
X0003678Y0003245D01*
X0003225D01*
X-0014298Y0002773D02*
Y0003442D01*
X-0014092Y0003648D01*
X-0013865D01*
X-0010777Y0004169D02*
X-0010915Y0004032D01*
Y0003707D01*
X-0019724Y0004566D02*
X-0019442Y0004284D01*
Y0003935D01*
X-0000865Y0003244D03*
Y0004110D01*
X-0000905D01*
X-0004130Y0006628D02*
Y0006195D01*
X-0004209Y0006116D01*
X0002832Y0006824D02*
Y0006667D01*
X0003383Y0006116D01*
X-0000767Y0006077D02*
X-0001278Y0006588D01*
X-0001318D01*
X-0000767Y0006077D02*
X-0000433Y0006411D01*
Y0006587D01*
X-0000434Y0006588D01*
X0003817Y0009697D02*
X0003566Y0009446D01*
Y0008988D01*
X0003694Y0002260D02*
X0003710D01*
X0003712Y0002258D01*
X0004008D01*
X0004012Y0002262D01*
X-0006490Y-0002380D02*
X-0005979D01*
X-0005900Y-0002458D01*
X0003690Y0002826D02*
X0004008D01*
X0004012Y0002822D01*
X-0013865Y0003088D02*
X-0013019D01*
X-0012882Y0002950D01*
X-0010915Y0003147D02*
X-0010718D01*
X-0010522Y0002950D01*
X-0001465Y0004110D02*
X-0001494Y0004080D01*
Y0003244D01*
X-0000433Y0007650D02*
Y0007149D01*
X-0000434Y0007148D01*
X-0005546Y0007296D02*
X-0005437Y0007188D01*
X-0005192D01*
X-0004248Y0007552D02*
X-0004130Y0007434D01*
Y0007188D01*
X0002596Y0007808D02*
X0002832Y0007572D01*
Y0007384D01*
X0002881Y0008260D02*
Y0008092D01*
X0002596Y0007808D01*
X0005918Y0009323D02*
X0005916Y0009321D01*
Y0008692D01*
X-0011298Y0009479D02*
X-0011328D01*
X-0011333Y0009484D01*
X-0010739D01*
X-0010738Y0009125D02*
Y0009469D01*
X-0010723Y0009484D01*
X-0010739D01*
X-0010738Y0009125D02*
Y0009833D01*
X0005832Y0010484D02*
X0006090D01*
X0006102Y0010472D01*
X-0002206Y0012176D02*
X-0002670Y0011712D01*
Y0011276D01*
X-0015360Y0012655D02*
Y0012449D01*
X-0015320Y0012410D01*
X0005270Y0014998D02*
Y0014938D01*
X0005608Y0014600D01*
X-0010187Y0009479D02*
X-0010128D01*
X-0010124Y0009484D01*
X-0010739D01*
X-0000442Y0008771D02*
X-0000501Y0008830D01*
X-0000846D01*
X-0000847D01*
X-0003384Y0003244D02*
Y0003601D01*
X-0003717Y0003933D01*
X-0003540Y0004110D01*
X-0003195D01*
X-0009528Y0001534D02*
X-0009676D01*
X-0009735Y0001593D01*
Y0001858D01*
X-0009764Y0001888D01*
X0004248Y-0000767D02*
Y-0000747D01*
X0004799D01*
X0005212Y-0000334D01*
Y-0000304D01*
X-0004329Y-0001316D02*
Y-0001020D01*
X-0004504Y-0000846D01*
X-0004779D01*
X-0004959Y-0001026D01*
Y-0001316D01*
X0001731Y-0005782D02*
X0001711Y-0005762D01*
X0001495D01*
X0001396Y-0005664D01*
Y-0005162D01*
X0002222D02*
Y-0005566D01*
X0002026Y-0005762D01*
X0001750D01*
X0001770Y-0005782D01*
X0001731D01*
X0011654Y-0014704D02*
X0011260D01*
X0011638Y-0016060D02*
X0011258D01*
X0004012Y-0003177D02*
Y-0003186D01*
X-0007434Y-0000236D02*
X-0007375Y-0000177D01*
X-0007089D01*
X-0008014Y0000747D02*
X-0008024Y0000737D01*
Y-0000177D01*
X-0007965Y-0000236D01*
X-0007434D01*
X-0007375Y-0000177D01*
X-0007089D01*
X-0001318Y0007148D02*
Y0007355D01*
X-0001023Y0007650D01*
X0001357Y0007690D02*
X0001346Y0007679D01*
Y0007394D01*
X-0007503Y0004553D02*
X-0007040D01*
X-0007011Y0004582D01*
X-0007513Y-0002399D02*
X-0007493Y-0002380D01*
X-0007050D01*
X-0004307Y-0004130D02*
X-0004302Y-0004135D01*
Y-0004666D01*
X-0003992Y-0005714D02*
Y-0005389D01*
X-0003265Y-0004661D01*
X-0002616D01*
X0007738Y-0012562D02*
Y-0012486D01*
X0007924Y-0012672D01*
X0010648D01*
X0010878Y-0012442D01*
X0014082D01*
X0017414Y-0009110D01*
Y-0008774D01*
X0017796Y-0008392D01*
X-0013118Y0002222D02*
X-0013078D01*
X-0012724Y0001868D01*
X-0008440Y0016002D02*
X-0000944D01*
X0016200Y0010532D02*
Y0013256D01*
X0014494Y0014962D01*
X0012980D01*
X0012146Y0014128D01*
X0006710D01*
X0005732Y0013150D01*
X-0000396D01*
X-0000624Y0013378D01*
X-0008624D01*
X-0009024Y0013778D01*
X-0013264D01*
X-0015370Y0011672D01*
X-0014829Y0001593D02*
Y0001534D01*
X-0015095D01*
X-0011308Y0001643D02*
X-0011475Y0001476D01*
X-0011680D01*
X0020390Y0002984D02*
Y0002158D01*
X0021122Y0001426D01*
X-0013506Y0001322D02*
X-0013498Y0001314D01*
X-0013116D01*
X0007218Y-0000413D02*
Y0002753D01*
X0007611Y0003147D01*
Y0003166D01*
X-0008830Y0000549D02*
X-0008212D01*
X-0008014Y0000747D01*
X-0013422Y0000012D02*
X-0013745D01*
X-0013757Y0000000D01*
X-0009528Y-0001023D02*
X-0009558D01*
X-0009755Y-0000826D01*
Y-0000236D01*
X-0011182Y-0000442D02*
Y-0000824D01*
X-0011180Y-0000826D01*
X0010368Y0006988D02*
X0010372Y0006984D01*
X0011042D01*
X0012924Y0005102D01*
X0014718D01*
X0015728Y0004092D01*
Y0001822D01*
X0015726Y0001820D01*
Y0001224D01*
X0016125Y0000825D01*
Y0000699D01*
X-0013056Y-0000536D02*
Y-0000843D01*
X-0013059Y-0000846D01*
X-0015370Y0011672D02*
X-0015352Y0011654D01*
Y0011496D01*
X-0018126Y0008722D01*
Y0004966D01*
X-0018608Y0004484D01*
X-0018919D01*
X-0014426Y-0012386D02*
X-0013750Y-0013062D01*
X-0010836D01*
X-0009514Y-0014384D01*
X-0006124D01*
X-0005280Y-0015228D01*
X0000592D01*
X0016200Y0010532D02*
X0016387Y0010345D01*
X0016500D01*
X-0012018Y-0000810D02*
Y-0001130D01*
X-0012016Y-0001131D01*
X-0007778Y-0013467D02*
X-0008995D01*
X-0009508Y-0012954D01*
X-0009990D01*
X-0009992Y-0012956D01*
X-0004329Y-0001316D02*
Y-0001610D01*
X-0004051Y-0001888D01*
X0009229Y-0001819D02*
X0008644D01*
X0008437Y-0002026D01*
X-0000865Y-0001316D02*
Y-0002059D01*
X-0000646Y-0002278D01*
X-0000853D01*
X-0000895Y-0002321D01*
X-0002396Y-0002316D02*
X-0002661D01*
X-0002665Y-0002321D01*
X0016500Y0010345D02*
X0016387D01*
X0016365D01*
X0016088Y0010068D01*
Y0006654D01*
X0019772Y0002970D01*
Y-0006458D01*
X0017882Y-0008348D01*
X0017840D01*
X0017796Y-0008392D01*
X-0006097Y-0000177D02*
X-0006038Y-0000236D01*
X-0014870Y-0005030D02*
X-0015182Y-0004718D01*
X-0015656D01*
X-0015884Y-0004490D01*
X-0015956D01*
X-0010912Y-0002199D02*
X-0011112Y-0002399D01*
Y-0002429D01*
X-0013472Y-0002203D02*
X-0013275Y-0002399D01*
Y-0002429D01*
X-0018460Y-0006620D02*
X-0018464Y-0006616D01*
Y-0005864D01*
X-0018605Y-0005723D01*
X0008746Y-0013080D02*
X0008956Y-0012870D01*
X0011150D01*
X0011256Y-0012764D01*
Y-0012780D01*
X-0002045Y-0004150D02*
Y-0004651D01*
X-0002056Y-0004661D01*
X0007036Y-0015654D02*
X0007234D01*
X-0006097Y-0000177D02*
X-0006038Y-0000236D01*
X-0012256Y-0005328D02*
X-0013994D01*
X-0014170Y-0005152D01*
Y-0003392D01*
X-0014866Y-0002696D01*
X-0015954Y-0004870D02*
X-0015943Y-0004881D01*
Y-0005300D01*
X0000570Y-0005162D02*
Y-0005526D01*
X0000452Y-0005644D01*
X-0000256Y-0005162D02*
Y-0005566D01*
X-0000334Y-0005644D01*
X-0014346Y-0007198D02*
Y-0007200D01*
X-0014040D01*
X-0013866Y-0007026D01*
X-0012492Y-0002127D02*
X-0011651D01*
X-0011454Y-0001930D01*
X-0009706D01*
X-0009042Y-0002594D01*
X-0009038D01*
X-0007676Y-0003956D01*
Y-0003962D01*
X-0004833Y-0006805D01*
X-0002714D01*
X-0002498Y-0006588D01*
Y-0006274D01*
X-0002262Y-0006038D01*
X0003579D01*
X0003717Y-0005900D01*
X-0002045Y-0007159D02*
X-0001917Y-0007287D01*
Y-0007867D01*
X0002596Y-0007237D02*
Y-0007719D01*
X0002783Y-0007906D01*
X-0011676Y-0009008D02*
X-0012060D01*
X-0012062Y-0009006D01*
X-0012185D01*
X0007498Y-0003496D02*
X0007264Y-0003262D01*
X0006650D01*
X0006293Y-0002905D01*
Y0001200D01*
X0006352Y0001259D01*
X-0009587Y-0009773D02*
X-0009643D01*
X-0009726Y-0009856D01*
X-0018919Y0004484D02*
X-0018945Y0004510D01*
X-0019076D01*
X-0019366Y0004800D01*
X0001486Y-0010808D02*
X0001456Y-0010838D01*
X0001118D01*
X-0012156Y-0013324D02*
X-0012406Y-0013574D01*
X-0012414D01*
X0009708Y-0014204D02*
X0009914Y-0014410D01*
Y-0014890D01*
X0006462Y-0018038D02*
Y-0017832D01*
X0007330Y-0016964D01*
X0007802D01*
X0014152Y0014668D02*
Y0013714D01*
X0015566Y0012300D01*
Y0007404D01*
X0015564Y0007402D01*
Y0006488D01*
X0017182Y0004870D01*
X-0009434Y-0013540D02*
X-0009184D01*
X-0009014Y-0013710D01*
X-0005894D01*
X-0005355Y-0014249D01*
X-0005040D01*
X0018054Y-0001144D02*
X0018372D01*
X0018626Y-0001398D01*
Y-0003858D01*
X0018620Y-0003864D01*
Y-0004930D01*
X0013030Y-0012690D02*
X0012690D01*
X0012498Y-0012882D01*
Y-0015484D01*
X0012484Y-0015498D01*
X-0005040Y-0014249D02*
X-0004785Y-0013994D01*
X-0004644D01*
X-0004302Y-0013652D01*
Y-0013647D01*
X0011650Y-0013340D02*
X0011256D01*
X0000365Y-0003767D02*
Y-0004116D01*
X-0008323Y-0010624D03*
X-0013974Y-0008755D03*
X0002783Y-0007906D03*
X-0001917Y-0007867D03*
X0019721Y-0007813D03*
X-0003992Y-0006274D03*
X0016791Y-0005695D02*
Y-0006265D01*
X-0001082Y-0005162D02*
Y-0005762D01*
X0016791Y-0005175D02*
Y-0005695D01*
X-0018749Y-0005182D03*
X0009229Y-0004772D03*
X0004012Y-0001839D03*
X0003225Y-0001318D02*
Y-0001770D01*
X-0014711Y-0001023D02*
X-0015075D01*
X-0010905Y0000826D02*
X-0011131D01*
X0004012Y0004150D02*
Y0004139D01*
X-0018774Y0005025D03*
X-0013686Y0005670D02*
X-0014026D01*
X-0017110Y0006086D02*
X-0017390D01*
X-0008731Y0006564D03*
X-0007470Y0009226D02*
Y0008728D01*
X-0010739Y0009484D03*
X-0001023Y0007650D02*
X-0001318Y0007355D01*
Y0007148D01*
X-0003195Y0004110D02*
X-0003225Y0004140D01*
X-0005467Y0004346D02*
Y0003776D01*
X-0003717Y0003933D02*
X-0003540Y0004110D01*
X-0003195D01*
X0004012Y-0003186D02*
Y-0003177D01*
X0001347Y0007679D02*
X0001346D01*
Y0007394D01*
X-0007011Y0004582D02*
X-0007040Y0004553D01*
X-0007503D01*
X-0000256Y-0005605D02*
Y-0005566D01*
X-0000334Y-0005644D01*
X-0005467Y0004346D02*
Y0003776D01*
X0011638Y-0016060D02*
X0011258D01*
X0011654Y-0014704D02*
X0011260D01*
X0011654D02*
X0011260D01*
X0009806Y0014624D02*
X0009496Y0014314D01*
X0006574D01*
X0005576Y0013316D01*
X0003276D01*
X0002764Y0013828D01*
Y0013830D01*
X0001124Y0015470D01*
Y0016616D01*
X0001120Y0017930D02*
Y0017934D01*
X0001020Y0017834D01*
X-0001054D01*
X-0001882Y0018662D01*
X-0016028Y0011348D02*
X-0016229Y0011548D01*
Y0011597D01*
X0001731Y-0005762D02*
X0001711D01*
X0001731Y-0005782D01*
X-0000334Y-0005644D02*
Y-0005664D01*
X0009176Y0014642D02*
X0009026Y0014492D01*
X0006452D01*
X0005560Y0013600D01*
X0003440D01*
X0002558Y0014482D01*
Y0016616D01*
X0002542Y0016632D01*
X-0003276Y-0019908D02*
Y-0018782D01*
X-0002168Y-0017674D01*
Y-0017672D01*
X-0002174Y-0017666D01*
X0009282Y-0013448D02*
X0009816D01*
X0010712Y-0014344D01*
Y-0015192D01*
X0011020Y-0015500D01*
X0011258D01*
X-0012112Y-0014134D02*
X-0012414D01*
X0007800Y-0013056D02*
X0008102Y-0013358D01*
X0008864D01*
X0009042Y-0013180D01*
X0009966D01*
X0010930Y-0014144D01*
X0011260D01*
X0011686Y-0012780D02*
X0012124Y-0013218D01*
Y-0016760D01*
X-0001040Y-0017360D02*
X-0001080Y-0017400D01*
Y-0018144D01*
X-0011238Y-0006106D02*
X-0011236D01*
X-0011194Y-0006064D01*
X-0007610D01*
X-0006630Y-0007044D01*
X-0003554D01*
X-0002694Y-0007904D01*
Y-0009778D01*
X0005800Y-0012412D02*
X0005814D01*
X0018258Y-0003032D02*
Y-0002718D01*
X0017802Y-0002262D01*
Y-0000840D01*
X0017356Y-0000394D01*
X-0011826Y0012416D02*
X-0010998D01*
X-0010622Y0012792D01*
Y0013336D01*
X-0010620Y0013338D01*
X0007818Y-0011098D02*
X0008530Y-0011810D01*
X-0001292Y0018590D02*
X-0001290Y0018592D01*
Y0019032D01*
X-0000822Y0019500D01*
X0006150D01*
X0009672Y0015978D01*
X-0016550Y0006086D02*
Y0006316D01*
X-0016160Y0006706D01*
X-0015240D01*
X0005841Y-0000551D02*
Y-0001214D01*
X0006042Y-0001416D01*
Y-0003234D01*
X0006790Y-0003982D01*
Y-0005992D01*
X0008240Y-0007442D01*
Y-0007840D01*
X0008244Y-0011028D02*
X0009230Y-0012014D01*
X0009226D01*
X-0005192Y0006628D02*
X-0005194Y0006626D01*
Y0006134D01*
X-0010090Y-0008494D02*
X-0010092Y-0008496D01*
X-0009850Y0000924D03*
X-0009241Y0009079D02*
X-0009243Y0009081D01*
Y0009892D01*
X-0008752Y0010384D01*
X-0008299D01*
X0001346Y0007394D02*
Y0007679D01*
X0001357Y0007690D01*
X0004189Y-0000374D02*
X0004268D01*
X0004346Y-0000304D01*
X-0015680Y0011981D02*
X-0015679D01*
X-0015370Y0011672D01*
X-0015655Y-0001003D02*
X-0015635Y-0001023D01*
X-0008030Y0008728D02*
Y0009278D01*
X-0008299Y0009547D01*
Y0010384D01*
X-0001554Y0002006D02*
Y0002891D01*
X-0001494Y0002950D01*
Y0003244D01*
X0004877Y-0001072D02*
X0004884Y-0001066D01*
X0005674D01*
X0005841Y-0000899D01*
Y-0000551D01*
X0012792Y0003948D02*
X0012822Y0003918D01*
Y0003564D01*
X-0016058Y-0000973D02*
X-0016009Y-0001023D01*
X0003652Y0018552D02*
X0004566Y0017638D01*
X0005074D01*
X-0006650Y0010384D02*
X-0006637Y0010371D01*
X0013322Y0004460D02*
Y0003978D01*
X0013352Y0003948D01*
X0011666Y-0014144D02*
X0011260D01*
X-0010739Y0011284D03*
X-0007778Y-0014117D02*
X-0009521D01*
X-0010428Y-0013210D01*
Y-0012970D01*
X-0000256Y-0003770D02*
Y-0004602D01*
X-0016356Y-0001698D02*
X-0016612Y-0001442D01*
Y0003054D01*
X-0016614Y0003056D01*
Y0003404D01*
X0001346Y0007394D02*
X0001347Y0007395D01*
Y0007679D01*
X-0016028Y0011348D02*
X-0016229Y0011548D01*
Y0011597D01*
X-0017462Y0005166D02*
X-0017408Y0005112D01*
Y0005098D01*
X-0017898Y0004608D01*
Y0003858D01*
X-0018254Y0003502D01*
X-0018268D01*
X-0005040Y-0014899D02*
X-0006061Y-0013878D01*
X-0009216D01*
X-0009260Y-0013834D01*
X-0003616Y-0013647D02*
X-0004302D01*
X-0007001Y0007277D02*
X-0006215Y0006490D01*
Y0005290D01*
X-0005821Y0004897D01*
X-0005035D01*
X-0004897Y0005035D01*
X-0017726Y0008328D02*
X-0017572Y0008482D01*
Y0008500D01*
X-0013986Y0012086D01*
X-0010910D01*
X-0010332Y0012664D01*
X-0003846D01*
X-0003504Y0013006D01*
X-0000930D01*
X-0000682Y0012758D01*
X0009094D01*
X0009452Y0012400D01*
X0009456D01*
X0010394Y-0012422D02*
X0010552Y-0012264D01*
X0013524D01*
X0017896Y-0007892D01*
X0018112D01*
X0019604Y-0006400D01*
Y0002414D01*
X0017934Y0004084D01*
X0017544D01*
X0015116Y0006512D01*
Y0010896D01*
X0013312Y0012700D01*
X0009708D01*
X0008724Y0013684D01*
X0006572D01*
X0005842Y0012954D01*
X-0000544D01*
X-0000770Y0013180D01*
X-0008772D01*
X-0009186Y0013594D01*
X-0013000D01*
X-0013802Y0012792D01*
X-0013810D01*
X0011686Y-0012780D02*
X0011256D01*
X0011658Y-0015500D02*
X0011258D01*
X0010710Y0003000D02*
X0011494Y0002216D01*
Y0001974D01*
X0006932Y-0018092D02*
X0006936D01*
X0006978Y-0018134D01*
X0011228D01*
X0012812Y-0016550D01*
Y-0014036D01*
X0016908Y-0009940D01*
X0017194D01*
X0018690Y-0008444D01*
Y-0007990D01*
X0019932Y-0006748D01*
Y0004684D01*
X0019736Y0004880D01*
X0005272Y0010484D02*
Y0011506D01*
X0005269Y0011503D01*
Y0011346D01*
X-0001318Y0007148D02*
Y0007355D01*
Y0007148D01*
X0005662Y-0016074D02*
X0005640Y-0016096D01*
Y-0017714D01*
X0006262Y-0018336D01*
X0011286D01*
X0012986Y-0016636D01*
Y-0014252D01*
X0015404Y-0011834D01*
X0001396Y-0003788D02*
Y-0004602D01*
X0004012Y-0002399D03*
X-0015416Y-0002596D02*
X-0015412Y-0002600D01*
X0006860Y-0013230D02*
Y-0012340D01*
X0007000Y-0012200D01*
Y-0011800D01*
X-0001456Y-0019866D02*
X-0001460Y-0019870D01*
Y-0020368D01*
X0006744Y-0014824D02*
X0006774Y-0014794D01*
X0007234D01*
X-0020338Y0001646D02*
X-0020240Y0001548D01*
Y0001054D01*
X-0006662Y-0009798D02*
X-0006726Y-0009862D01*
Y-0010130D01*
X0008190Y-0017886D02*
X0008612D01*
X0008926Y-0017572D01*
Y-0014470D01*
X0008468Y-0014012D01*
X0007202D01*
X0006562Y-0013372D01*
Y-0012416D01*
X-0000747Y0002104D02*
X-0000649D01*
X-0000550Y0002204D01*
Y0003244D01*
X0012336Y-0004812D02*
X0011728Y-0004204D01*
X0008622D01*
X0007228Y-0002810D01*
X0006834D01*
X0003225Y0000924D02*
X0003206Y0000905D01*
X-0000747D01*
X-0002124Y-0000728D02*
Y-0001316D01*
X-0004012Y-0000728D02*
X-0004014Y-0000730D01*
Y-0001316D01*
X-0005743Y0005172D02*
X-0005546D01*
X-0005349Y0005369D01*
X0000511D01*
X0001340Y0004540D01*
Y0003244D01*
X-0001809Y-0000374D02*
Y-0001316D01*
X0000708Y-0000767D02*
X0000710Y-0000769D01*
Y-0001316D01*
X-0007778Y-0013467D02*
Y-0013196D01*
X-0007598Y-0013016D01*
X-0007078D01*
X0001025Y0003244D02*
Y0004346D01*
X0000511Y0004858D01*
X0000236Y0005133D01*
X-0004602D01*
X-0004700Y0005035D01*
X-0004897D01*
X-0005035Y0004897D01*
X-0005821D01*
X-0006215Y0005290D01*
Y0006490D01*
X-0007001Y0007277D01*
X-0004641Y-0002026D02*
X-0004644Y-0002028D01*
Y-0001316D01*
X-0003068Y-0000728D02*
Y-0000843D01*
X-0003069Y-0000844D01*
Y-0001316D01*
X-0003699Y-0000372D02*
Y-0001316D01*
X-0011604Y-0009868D02*
X-0011687Y-0009951D01*
Y-0010304D01*
X-0003699Y0003244D02*
Y0002263D01*
X0001023Y-0000374D02*
X0001025Y-0000371D01*
Y-0001316D01*
X0005272Y0010484D02*
Y0009907D01*
X0005058Y0009693D01*
X-0002230Y0002370D02*
Y0002608D01*
X-0002124Y0002714D01*
Y0003243D01*
Y0003244D01*
X-0006637Y0009511D03*
X-0001460Y-0020928D02*
X-0001462Y-0020930D01*
Y-0021370D01*
X-0001280Y0002560D02*
X-0001259Y0002581D01*
Y0003165D01*
X-0001179Y0003244D01*
X-0008830Y0000549D02*
X-0008212D01*
X-0008024Y0000737D01*
Y0000747D01*
X-0008014D01*
X-0014914Y-0006360D02*
Y-0005914D01*
X-0015172Y-0005656D01*
X-0001179Y-0000728D02*
Y-0001316D01*
X0005244Y-0012598D02*
X0004970Y-0012872D01*
Y-0014078D01*
X-0002045Y-0006599D02*
X-0001819D01*
X-0001809Y-0006608D01*
X-0004644Y0003244D02*
Y0002506D01*
X-0004650Y0002500D01*
X-0001809Y0003244D02*
X-0001868Y0003185D01*
Y0002321D01*
X0005378Y-0016934D02*
Y-0016406D01*
X0004842Y-0015870D01*
X0004482D01*
X0003324Y-0006677D02*
X0002595D01*
X0002594Y-0006678D01*
X0013724Y0002586D02*
X0013734Y0002576D01*
Y0001822D01*
X-0011512Y-0009282D02*
X-0011536Y-0009306D01*
X-0012141D01*
X-0012185Y-0009262D01*
X-0010915Y-0004838D02*
X-0013142D01*
X-0013404Y-0004576D01*
Y-0003500D01*
X-0014180Y-0002725D01*
Y-0002045D01*
X-0013904Y-0004882D02*
X-0013702Y-0005084D01*
X-0011397D01*
X-0010925Y-0005556D01*
X-0009332D01*
X-0009037Y-0005261D01*
X-0009056Y-0005241D01*
X0016476Y-0005695D02*
Y-0005270D01*
X0016318Y-0005112D01*
X0011766D01*
X0011176Y-0005702D01*
X0009245D01*
X0009224Y-0005723D01*
X0005540Y-0015130D02*
X0004770D01*
X0003650Y-0016250D01*
Y-0016390D01*
X0017106Y-0005695D02*
Y-0004566D01*
X0016348Y-0003808D01*
X0009256D01*
X0009243Y-0003796D01*
X0001655Y0003714D02*
Y0003244D01*
X-0009587Y-0009518D02*
X-0009990D01*
X-0010132Y-0009660D01*
Y-0010706D01*
X-0009642Y-0011196D01*
Y-0011312D01*
X-0009587Y-0009262D02*
X-0009638D01*
X-0009682Y-0009306D01*
X-0010132D01*
X-0010328Y-0009502D01*
Y-0010932D01*
X-0010112Y-0011148D01*
X0010368Y-0000368D02*
X0008796D01*
X0008428Y0000000D01*
Y0000652D01*
X0008110Y0000970D01*
X-0002260Y-0020930D02*
X-0002258Y-0020932D01*
Y-0021256D01*
X-0012196Y-0015968D02*
X-0011870D01*
X-0011868Y-0015970D01*
X0016476Y0000092D02*
Y-0000288D01*
X0016158Y-0000606D01*
X0015466D01*
X0014130Y0000730D01*
X0010857D01*
X0010677Y0000550D01*
X0010012D01*
X-0016364Y-0002044D02*
X-0016650D01*
X-0016931Y-0001763D01*
Y0002952D01*
X-0017481Y0003502D01*
X-0013718Y-0014360D02*
X-0014648D01*
X-0012436Y-0015162D02*
X-0011928D01*
X-0011684Y-0014918D01*
X-0011664D01*
X-0004464Y0004740D02*
X-0004327D01*
X-0004130Y0004936D01*
X-0000118D01*
X0000710Y0004110D01*
Y0003244D01*
X0005942Y0014676D02*
X0005938Y0014680D01*
Y0015252D01*
X0005074Y0016116D01*
Y0017078D01*
X-0003120Y0002410D02*
Y0002549D01*
X-0003069Y0002599D01*
Y0003244D01*
X0005058Y0008953D02*
X0003997D01*
X0003304Y0008260D01*
Y0007473D01*
X0006832Y-0003624D02*
X0007052Y-0003844D01*
Y-0005784D01*
X0008144Y-0006876D01*
X0011592D01*
X0011836Y-0007120D01*
X0009066Y-0000846D02*
X0009073Y-0000852D01*
X0016406D01*
X0016791Y-0000467D01*
Y0000092D01*
X0007508Y-0003496D02*
X0007526D01*
X0008402Y-0004372D01*
X0010080D01*
X0010768Y-0005060D01*
Y-0005320D01*
X0015846Y0000092D02*
Y0000482D01*
X0015325Y0001003D01*
X0009224D01*
X-0014426Y-0012386D02*
X-0014666Y-0012626D01*
X-0014750D01*
X0001340Y-0000770D02*
Y-0001316D01*
X-0002754D02*
Y-0000375D01*
X-0002753Y-0000374D01*
X0001967Y0003245D02*
X0001986Y0003265D01*
Y0005496D01*
X0002000Y0005510D01*
X0002596Y-0001318D02*
Y-0000767D01*
X0001652Y-0000374D02*
Y-0001318D01*
X-0014132Y-0014840D02*
X-0013810Y-0015162D01*
X-0012996D01*
X0007180Y-0013276D02*
X0007408Y-0013048D01*
Y-0011058D01*
X0007410Y-0011056D01*
X0009224Y-0006411D02*
X0009236Y-0006424D01*
X0014842D01*
X0015571Y-0005695D01*
X0015846D01*
X0002222Y-0005162D02*
Y-0005566D01*
X0002026Y-0005762D01*
X0001750D01*
X0001731D01*
Y-0005782D01*
X0002281Y-0001318D02*
Y-0000374D01*
X0009225Y0000999D02*
X0009229Y0000995D01*
X-0002754Y0003244D02*
Y0002263D01*
X0002911Y0003245D02*
Y0004346D01*
X-0001299Y0009714D02*
X-0001298Y0009713D01*
Y0008948D01*
X-0001632Y0008614D01*
Y0008575D01*
X-0001633Y0008574D01*
X-0000654Y-0020938D02*
X-0000672Y-0020956D01*
Y-0021306D01*
X-0000235Y0003244D02*
Y0002204D01*
X-0000728Y0001711D01*
X-0004484D01*
X-0005074Y0002301D01*
X0008024Y-0015420D02*
X0008034Y-0015430D01*
Y-0015788D01*
X0007234Y-0014794D02*
X0007914D01*
X0008030Y-0014910D01*
X0009229Y0000149D02*
Y0000162D01*
X0009616Y0000550D01*
X0010012D01*
X0002281Y0003245D02*
Y0005330D01*
X-0002260Y-0020370D02*
X-0002254Y-0020364D01*
Y-0019754D01*
X-0002550Y-0019458D01*
Y-0018750D01*
X-0008851Y-0007470D03*
X-0009587D01*
X-0017470Y0004298D02*
Y0003513D01*
X-0017481Y0003502D01*
X0000395Y-0001316D02*
Y0000077D01*
X-0000118Y0000590D01*
X-0000236D01*
X-0001298Y-0007159D02*
X-0001357Y-0007218D01*
Y-0007867D01*
X-0014794Y-0007226D02*
X-0014828Y-0007260D01*
X-0015826D01*
X-0016102Y-0007536D01*
Y-0009632D01*
X-0016515Y-0010045D01*
X-0012185Y-0007470D02*
Y-0006681D01*
X-0011960Y-0006456D01*
X-0011461D01*
X-0011459Y-0006458D01*
X-0014426Y-0012386D02*
Y-0012008D01*
X-0015234Y-0011200D01*
X-0016978D01*
X-0018466Y-0009712D01*
Y-0007444D01*
X-0018460Y-0007438D01*
Y-0006622D01*
X-0012185Y-0007726D02*
X-0012810D01*
X-0013306Y-0007230D01*
Y-0007026D01*
X-0015655Y0001534D02*
X-0015950D01*
X0006550Y-0000788D02*
Y-0000786D01*
X0006560Y-0000776D01*
X0007408D01*
X0007602Y-0000582D01*
Y0002036D01*
X0008053Y0002488D01*
X-0008308Y-0012964D02*
X-0008522Y-0012750D01*
X-0009622D01*
Y-0012690D01*
X-0008310Y-0009142D02*
X-0008294D01*
X-0020242Y0000248D02*
X-0020240Y0000246D01*
X-0019446D01*
X-0009587Y-0007726D02*
X-0009549Y-0007764D01*
X-0008600D01*
X-0008306Y-0007470D01*
X-0008201D01*
X0002911Y-0001318D02*
Y-0000374D01*
X-0017046Y0012914D02*
X-0016658Y0012525D01*
Y0011957D01*
X0004377Y0009697D02*
X0004380Y0009693D01*
X0005058D01*
X-0020796Y-0000558D02*
X-0021136D01*
X-0000847Y0008574D02*
X-0000846D01*
Y0008575D01*
X-0000639D01*
X-0000580Y0008516D01*
X0000177D01*
X0000275Y0008614D01*
Y0008653D01*
X-0020800Y0001054D02*
X-0021140D01*
X0004710Y0014998D02*
Y0014204D01*
X0004706Y0014200D01*
X0003652Y-0010304D02*
X0004180D01*
X0004184Y-0010308D01*
X0006226Y-0014288D02*
Y-0012190D01*
X0007026Y-0011390D01*
X0007170D01*
X0006525Y0008360D02*
X0007036Y0008871D01*
Y0011074D01*
X0006764Y0011346D01*
X0005829D01*
X0000395Y0003244D02*
Y0002303D01*
X-0000590Y0001318D01*
X-0005054D01*
X-0005802Y0002065D01*
Y0002576D01*
X-0005706Y0002672D01*
X-0005202D01*
X-0005200Y0002670D01*
Y0002610D01*
X-0000236Y-0001318D02*
Y-0000275D01*
X0005560Y0014200D02*
X0005266D01*
X-0009587Y-0007982D02*
X-0009955D01*
X-0010526Y-0007413D01*
Y-0006742D01*
X-0010809Y-0006458D01*
X-0004080Y0002480D02*
X-0004014Y0002546D01*
Y0003244D01*
X0003324Y-0007237D02*
Y-0007886D01*
X0003343Y-0007906D01*
X-0000847Y0009085D02*
X-0000846D01*
Y0009086D01*
X-0000433D01*
X-0013138Y-0013934D02*
Y-0014340D01*
X-0013158Y-0014360D01*
X0002596Y0003245D02*
X0002557Y0003284D01*
Y0004641D01*
X0002734Y0004818D01*
Y0004906D01*
X0002730Y0004910D01*
X-0001298Y-0006599D02*
X-0001819D01*
X-0001809Y-0006608D01*
X-0000654Y-0020378D02*
Y-0019128D01*
X0000366Y-0003770D02*
X-0000256D01*
X0000080Y0003244D02*
Y0002263D01*
X-0000669Y0001514D01*
X-0004858D01*
X-0005507Y0002163D01*
Y0002353D01*
X-0005500Y0002360D01*
X0009229Y-0000835D02*
X0009077D01*
X0009066Y-0000846D01*
X-0013044Y-0015966D02*
X-0012758D01*
X-0012756Y-0015968D01*
X-0019284Y-0000556D02*
X-0019286Y-0000558D01*
X-0020236D01*
X-0008496Y-0005241D03*
X-0020802Y0000248D02*
X-0021142D01*
X0005278Y-0012930D02*
X0005222Y-0012986D01*
Y-0014482D01*
X0000080Y-0001316D02*
Y-0000100D01*
X-0000177Y0000157D01*
X-0000236D01*
X-0011037Y-0010304D02*
Y-0009713D01*
X-0011212Y-0009538D01*
X-0012165D01*
X-0012185Y-0009518D01*
X0001967Y-0000767D02*
Y-0001318D01*
X-0007078Y-0013017D02*
X-0006421D01*
X-0002086Y0009714D02*
X-0002085Y0009713D01*
Y0009243D01*
X-0001927Y0009086D01*
X-0001632D01*
X-0001633Y0009085D01*
G54D62*
G01X-0012016Y-0001691D02*
X-0010482D01*
X-0010246Y-0001455D01*
Y0000728D01*
X-0012134Y-0001809D02*
X-0013590D01*
X-0014317Y-0001082D01*
Y0000000D01*
X-0010345Y0000826D02*
X-0010246Y0000924D01*
Y0001908D01*
X-0010994Y0002655D01*
X-0012508D01*
X-0013664Y0002463D02*
X-0013472Y0002655D01*
X-0012508D01*
X-0002616Y-0003855D02*
Y-0003088D01*
Y-0003855D02*
Y-0003088D01*
X0001101D02*
Y-0003107D01*
X0001098Y-0003112D01*
Y-0003536D01*
X0001350Y-0003788D01*
X0001396D01*
X-0006057Y0004582D02*
X-0006451D01*
X0002045Y-0004110D02*
X0002222Y-0004287D01*
Y-0004602D01*
X-0001494Y-0001316D02*
Y-0002070D01*
X-0003225Y-0002321D02*
Y-0001888D01*
X-0003384Y-0001729D01*
Y-0001316D01*
X-0004959Y0004294D02*
Y0003244D01*
X-0004907Y0004346D02*
X-0004959Y0004294D01*
Y0003244D01*
X-0002439Y0003914D02*
Y0003244D01*
X0005212Y0000256D02*
X0005644D01*
X0005743Y0000354D01*
X-0002670Y0011276D02*
X-0003789D01*
X-0004289Y0010776D01*
X0005743Y0000354D02*
X0005644Y0000256D01*
X0005212D01*
X-0002439Y-0001316D02*
Y-0002273D01*
X-0002396Y-0002316D01*
X-0002616Y-0003088D02*
Y-0003855D01*
X-0011726Y-0008494D02*
X-0012185D01*
X-0002616Y-0003855D02*
Y-0003088D01*
X0000365D02*
Y-0004116D01*
X0000570Y-0004307D01*
Y-0004602D01*
X0000365Y-0004116D02*
X0000570Y-0004307D01*
Y-0004602D01*
X-0012185Y-0007982D02*
X-0011725D01*
X-0010614Y-0009094D01*
X-0010116D01*
X-0010030Y-0009008D01*
X-0009589D01*
X-0009587Y-0009006D01*
X-0006662Y-0009798D02*
Y-0008704D01*
X-0006872Y-0008494D01*
X-0009587D01*
X-0010090D01*
X0014210Y0003948D02*
X0014252Y0003906D01*
Y0002880D01*
X0014336Y0002034D02*
X0014252Y0002118D01*
Y0003906D01*
X0014210Y0003948D01*
X-0010162Y-0008500D02*
X-0010156D01*
X-0010348Y-0008692D01*
Y-0008768D01*
X-0010378Y-0008798D01*
X-0006267Y-0010423D02*
X-0006274Y-0010416D01*
Y-0008664D01*
X-0006695Y-0008244D01*
X-0008080D01*
X-0008082Y-0008242D01*
X-0009583D01*
X-0009587Y-0008238D01*
Y-0008750D02*
X-0008274D01*
X-0007916Y-0009108D01*
Y-0010080D01*
X-0007573Y-0010423D01*
X-0007267D01*
X-0011480Y-0008738D02*
X-0011484D01*
X-0011506Y-0008716D01*
Y-0008714D01*
X-0011726Y-0008494D01*
X0014210Y0003948D02*
X0013352D01*
G54D63*
G01X0007836Y0009880D02*
Y0009330D01*
X0007832Y0009326D01*
Y0008322D01*
X0008090Y0008064D01*
X0012696D01*
X0016542Y0004218D01*
Y0003410D01*
X0017350Y0002602D01*
X0018118D01*
X0019168Y0001552D01*
Y-0005922D01*
X0017842Y-0007248D01*
X0017836D01*
X0013240Y-0011844D01*
X0010098D01*
X0008544Y-0010290D01*
X0005864D01*
X0003418Y-0012736D01*
X0000404D01*
X0000396Y-0012728D01*
X-0003570D01*
X-0003582Y-0012740D01*
G54D66*
G01X-0015412Y-0003160D02*
X-0015046D01*
X-0014527Y-0003679D01*
X-0003582Y-0012740D02*
X-0003932D01*
X-0004502Y-0013310D01*
X-0005516D01*
X-0005804Y-0013022D01*
Y-0012748D01*
X-0001646Y0012176D02*
X-0001170Y0011700D01*
Y0011276D01*
X-0000316Y0009714D02*
Y0010994D01*
X-0000598Y0011276D01*
X-0001170D01*
X-0010739Y0011284D02*
X-0009745Y0012278D01*
X-0003576D01*
X-0003172Y0012682D01*
X-0001864D01*
X-0001744Y0012562D01*
Y0012274D01*
X-0001646Y0012176D01*
X-0010739Y0011284D02*
X-0010304D01*
X-0009656Y0010636D01*
Y0005300D01*
X-0009121Y0004764D01*
X-0008731D01*
X-0016009Y-0001023D02*
X-0015635D01*
X-0016218Y-0002596D02*
X-0015416D01*
X-0005804Y-0012748D02*
X-0005914D01*
X-0006386Y-0012276D01*
X-0012772D01*
X-0014060Y-0010988D01*
Y-0009366D01*
X-0014472Y-0008954D01*
Y-0008378D01*
X-0014199Y-0008105D01*
X-0013974D01*
X-0005267Y-0011423D02*
X-0004964Y-0011726D01*
Y-0012748D01*
X-0015568Y-0004280D02*
Y-0004038D01*
X-0016218Y-0003388D01*
Y-0003156D01*
G54D68*
G01X-0012508Y0002655D02*
Y0004779D01*
X-0011623Y0005664D01*
X-0011171D01*
X-0012508Y0002655D02*
Y0004779D01*
X-0011623Y0005664D01*
X-0011171D01*
X-0002616Y-0003088D02*
X0002507D01*
X0003560Y-0002035D01*
Y-0002163D01*
X0003796Y-0002399D01*
X0004012D01*
X0001632Y0006038D02*
Y0005802D01*
X0003303D02*
X0004504Y0004602D01*
Y0001731D01*
X0003560Y0000787D01*
Y-0002163D01*
X0003796Y-0002399D01*
X0004012D01*
X-0002616Y-0003088D02*
X0001101D01*
X-0005194Y0006134D02*
X-0005196Y0006132D01*
Y0005924D01*
X-0005034Y0005762D01*
X0001632D01*
Y0006038D01*
X-0006038Y-0000236D02*
Y-0001239D01*
X-0004189Y-0003088D01*
X-0002616D01*
X0000365D01*
X-0006637Y0009511D02*
X-0006375D01*
X-0006156Y0009292D01*
Y0007119D01*
X-0005664Y0006628D01*
X-0005192D01*
X-0016218Y-0002596D02*
X-0016648D01*
X-0016874Y-0002822D01*
Y-0003342D01*
X-0017117Y-0003585D01*
X-0017481D01*
X-0015655Y0001534D02*
X-0015662Y0001541D01*
Y0003772D01*
X-0016188Y0004298D01*
X-0016910D01*
X-0016902Y0005166D02*
Y0004306D01*
X-0016910Y0004298D01*
X-0015655Y0001534D02*
Y-0001003D01*
X-0008299Y0010384D02*
X-0006650D01*
X-0016058Y-0000973D02*
Y-0002436D01*
X-0016218Y-0002596D01*
X-0002616Y-0003855D02*
Y-0004661D01*
X0008594Y-0015788D02*
Y-0016050D01*
X0008184Y-0016460D01*
X0006700D01*
X0006232Y-0015992D01*
Y-0015096D01*
X0005942Y-0014806D01*
X0001630D01*
X-0003186Y-0009990D02*
Y-0007906D01*
X-0003602Y-0007490D01*
X-0005248D01*
X-0005841Y-0008083D01*
Y-0008368D01*
Y-0009223D01*
X-0005831Y-0009233D01*
X0008590Y-0014910D02*
Y-0015784D01*
X0008594Y-0015788D01*
G54D69*
G01X-0003582Y-0011240D02*
X-0004460D01*
X-0005267Y-0010433D01*
Y-0010423D01*
G54D110*
G01X-0005804Y-0012748D02*
X-0005746Y-0012690D01*
Y-0011178D01*
X-0006000Y-0010924D01*
X-0007976D01*
X-0008052Y-0011000D01*
X-0008820D01*
X-0008973Y-0010847D01*
Y-0010624D01*
X-0009054Y-0010543D01*
Y-0009120D01*
X-0009168Y-0009006D01*
X-0009587D01*
X-0012185Y-0007982D02*
X-0013851D01*
X-0013974Y-0008105D01*
X-0012185Y-0008750D02*
X-0012658D01*
X-0012712Y-0008804D01*
Y-0010290D01*
X-0011388Y-0011614D01*
X-0007456D01*
X-0007267Y-0011423D01*
X-0006267D02*
X-0006758Y-0011914D01*
X-0011480D01*
X-0013046Y-0010348D01*
Y-0009558D01*
X-0013050Y-0009554D01*
Y-0008662D01*
X-0012626Y-0008238D01*
X-0012185D01*
G54D111*
G01X-0007881Y0006564D02*
X-0008063Y0006382D01*
Y0006274D01*
X-0008226Y0006564D02*
X-0008731D01*
X-0007881D02*
X-0008226D01*
G54D112*
G01X0001632Y0005802D02*
X0003303D01*
G54D61*
X0001947Y0007670D03*
X-0005900Y-0002458D03*
X-0007434Y-0000236D03*
X-0001023Y0007650D03*
X-0007513Y-0002399D03*
X-0004307Y-0004130D03*
X-0008440Y0016002D03*
X-0000944D03*
X0005743Y0000354D03*
X-0006038Y-0000236D03*
X0006352Y0001259D03*
X0004247Y0000767D03*
X0018620Y-0004930D03*
X0013030Y-0012690D03*
X-0003717Y0003933D03*
X0004012Y-0003186D03*
X-0007503Y0004553D03*
X-0005999Y0000747D03*
X0011638Y-0016060D03*
X0011654Y-0014704D03*
X0001120Y0017930D03*
X-0012112Y-0014134D03*
X-0001040Y-0017360D03*
X-0002694Y-0009778D03*
X0005800Y-0012412D03*
X0007818Y-0011098D03*
X0008530Y-0011810D03*
X0008240Y-0007840D03*
X0008244Y-0011028D03*
X0001357Y0007690D03*
X0004189Y-0000374D03*
X-0001554Y0002006D03*
X-0008535Y0002714D03*
X-0016028Y0011348D03*
X-0003616Y-0013647D03*
X-0004897Y0005035D03*
X-0013810Y0012792D03*
X0001630Y-0014806D03*
X-0003186Y-0009990D03*
X0006860Y-0013230D03*
X0007000Y-0011800D03*
X0006744Y-0014824D03*
X-0002124Y-0000728D03*
X-0004012D03*
X-0005743Y0005172D03*
X-0001809Y-0000374D03*
X0000708Y-0000767D03*
X-0004641Y-0002026D03*
X-0003068Y-0000728D03*
X-0003699Y-0000372D03*
Y0002263D03*
X0001023Y-0000374D03*
X-0002230Y0002370D03*
X-0001280Y0002560D03*
X-0015172Y-0005656D03*
X-0001179Y-0000728D03*
X-0004650Y0002500D03*
X-0001868Y0002321D03*
X-0010915Y-0004838D03*
X0005540Y-0015130D03*
X0003650Y-0016390D03*
X0008110Y0000970D03*
X-0004464Y0004740D03*
X-0003120Y0002410D03*
X0003304Y0007473D03*
X0001340Y-0000770D03*
X-0002753Y-0000374D03*
X0002000Y0005510D03*
X0002596Y-0000767D03*
X0001652Y-0000374D03*
X0002281D03*
X-0002754Y0002263D03*
X0002911Y0004346D03*
X-0005074Y0002301D03*
X0002281Y0005330D03*
X-0002550Y-0018750D03*
X-0000236Y0000590D03*
X-0018460Y-0006620D03*
X0006549Y-0000787D03*
X0002911Y-0000374D03*
X0006226Y-0014288D03*
X0007170Y-0011390D03*
X-0005200Y0002610D03*
X-0000236Y-0000275D03*
X-0004080Y0002480D03*
X0002730Y0004910D03*
X-0000654Y-0019128D03*
X0000365Y-0003767D03*
X-0005500Y0002360D03*
X-0000236Y0000157D03*
X0001967Y-0000767D03*
G54D72*
X-0005467Y0003776D03*
G54D74*
X-0001460Y-0020928D03*
Y-0020368D03*
X-0000654Y-0020938D03*
Y-0020378D03*
X-0002260Y-0020930D03*
Y-0020370D03*
X-0012414Y-0013574D03*
Y-0014134D03*
X0011260Y-0014704D03*
Y-0014144D03*
X0011256Y-0013340D03*
Y-0012780D03*
X0011258Y-0016060D03*
Y-0015500D03*
X0005074Y0017638D03*
Y0017078D03*
X-0001298Y-0007159D03*
Y-0006599D03*
X0004346Y0000256D03*
Y-0000304D03*
X0004877Y-0001632D03*
Y-0001072D03*
X0003324Y-0007237D03*
Y-0006677D03*
X0007234Y-0014794D03*
Y-0015654D03*
X-0006637Y0010371D03*
Y0009511D03*
X-0015412Y-0003160D03*
Y-0002600D03*
X-0016218Y-0003156D03*
Y-0002596D03*
X0001118Y-0010278D03*
Y-0010838D03*
X0004012Y0002262D03*
Y0002822D03*
X-0001318Y0006588D03*
Y0007148D03*
X-0011308Y0002203D03*
Y0001643D03*
X-0013865Y0003648D03*
Y0003088D03*
X-0011112Y-0002989D03*
Y-0002429D03*
X-0013275Y-0002989D03*
Y-0002429D03*
X-0010915Y0003707D03*
Y0003147D03*
X-0013059Y-0001406D03*
Y-0000846D03*
X-0012016Y-0001691D03*
Y-0001131D03*
X0009914Y-0015450D03*
Y-0014890D03*
X0004012Y-0003737D03*
Y-0003177D03*
Y0003579D03*
Y0004139D03*
X0005212Y0000256D03*
Y-0000304D03*
X0002222Y-0004602D03*
Y-0005162D03*
X-0001082Y-0004602D03*
Y-0005162D03*
X-0004130Y0006628D03*
Y0007188D03*
X-0000434Y0006588D03*
Y0007148D03*
X0002832Y0006824D03*
Y0007384D03*
X0004012Y-0002399D03*
Y-0001839D03*
X-0005192Y0006628D03*
Y0007188D03*
X-0003992Y-0005714D03*
Y-0006274D03*
X-0002045Y-0007159D03*
Y-0006599D03*
X-0000256Y-0004602D03*
Y-0005162D03*
X0000570Y-0004602D03*
Y-0005162D03*
X0002596Y-0007237D03*
Y-0006677D03*
X0001396Y-0004602D03*
Y-0005162D03*
G54D75*
X-0012996Y-0015162D03*
X-0012436D03*
X-0012756Y-0015968D03*
X-0012196D03*
X-0013718Y-0014360D03*
X-0013158D03*
X-0020802Y0000248D03*
X-0020242D03*
X-0020796Y-0000558D03*
X-0020236D03*
X-0020800Y0001054D03*
X-0020240D03*
X0005269Y0011346D03*
X0005829D03*
X0004377Y0009697D03*
X0003817D03*
X-0017110Y0006086D03*
X-0016550D03*
X-0016910Y0004298D03*
X-0017470D03*
X-0016902Y0005166D03*
X-0017462D03*
X-0008496Y-0005241D03*
X-0009056D03*
X0012792Y0003948D03*
X0013352D03*
X0003652Y-0010304D03*
X0003092D03*
X0005266Y0014200D03*
X0004706D03*
X-0013866Y-0007026D03*
X-0013306D03*
X0008034Y-0015788D03*
X0008594D03*
X0008590Y-0014910D03*
X0008030D03*
X0005272Y0010484D03*
X0005832D03*
X-0004907Y0004346D03*
X-0005467D03*
X-0001455Y-0002321D03*
X-0000895D03*
X-0003225D03*
X-0002665D03*
X-0000905Y0004110D03*
X-0001465D03*
X-0002635D03*
X-0003195D03*
X-0008968Y0001534D03*
X-0009528D03*
X-0008968Y-0001023D03*
X-0009528D03*
X-0015635D03*
X-0015075D03*
X-0015655Y0001534D03*
X-0015095D03*
X-0001646Y0012176D03*
X-0002206D03*
X-0013126Y0005670D03*
X-0013686D03*
X-0008030Y0008728D03*
X-0007470D03*
X-0010620Y-0000826D03*
X-0011180D03*
X-0014066Y0001322D03*
X-0013506D03*
X-0013678Y0002222D03*
X-0013118D03*
X-0010345Y0000826D03*
X-0010905D03*
X-0014317Y0000000D03*
X-0013757D03*
X0004710Y0014998D03*
X0005270D03*
X0000786Y0007394D03*
X0001346D03*
X-0006490Y-0002380D03*
X-0007050D03*
X-0007454Y0000747D03*
X-0008014D03*
X-0006451Y0004582D03*
X-0007011D03*
X-0004862Y-0004666D03*
X-0004302D03*
X-0006529Y-0000177D03*
X-0007089D03*
X-0002616Y-0004661D03*
X-0002056D03*
X0002321Y0008260D03*
X0002881D03*
X-0001917Y-0007867D03*
X-0001357D03*
X0002783Y-0007906D03*
X0003343D03*
G54D76*
X-0001170Y0011276D03*
X-0002670D03*
G54D77*
X-0003582Y-0012740D03*
Y-0011240D03*
G54D78*
X-0013974Y-0008105D03*
Y-0008755D03*
G54D79*
X-0011037Y-0010304D03*
X-0011687D03*
X-0010809Y-0006458D03*
X-0011459D03*
X-0008973Y-0010624D03*
X-0008323D03*
X-0008851Y-0007470D03*
X-0008201D03*
G54D80*
X0008742Y-0009490D03*
X0005536Y-0008632D03*
X0008736Y-0008486D03*
X0009736D03*
X0010736D03*
G54D81*
X0009742Y-0009490D03*
X0005536Y-0007632D03*
X0007736Y-0008486D03*
G54D82*
X0006611Y0003166D03*
X-0017494Y-0008712D03*
Y-0007712D03*
Y-0006712D03*
Y-0005712D03*
G54D83*
X0007611Y0003166D03*
X-0017494Y-0009712D03*
G54D84*
X0010055Y-0007548D03*
X0009662Y0002787D03*
G54D85*
X0020390Y0002984D03*
G54D86*
X0019721Y-0007813D03*
G54D87*
X0009229Y-0007311D03*
Y-0006406D03*
Y-0005737D03*
Y-0004772D03*
Y-0003788D03*
Y-0002804D03*
Y-0001819D03*
Y-0000835D03*
Y0000149D03*
Y0000995D03*
Y0001842D03*
G54D88*
X0000903Y0010776D03*
X-0004289D03*
G54D89*
X0004525Y0008360D03*
X0006525D03*
Y0010860D03*
X0004525D03*
X0006743Y0012262D03*
Y0013245D03*
X-0000316Y0009714D03*
X-0001299D03*
X-0002086D03*
X-0003069D03*
G54D90*
X-0015728Y-0006108D03*
X-0016515D03*
X-0015728Y-0006895D03*
X-0016515D03*
X-0015728Y-0007683D03*
X-0016515D03*
X-0015728Y-0008470D03*
X-0016515D03*
X-0015728Y-0009258D03*
X-0016515D03*
X-0015728Y-0010045D03*
X-0016515D03*
X-0010590Y-0004466D03*
Y-0003679D03*
X-0011377Y-0004466D03*
Y-0003679D03*
X-0012165Y-0004466D03*
Y-0003679D03*
X-0012952Y-0004466D03*
Y-0003679D03*
X-0013740Y-0004466D03*
Y-0003679D03*
X-0014527Y-0004466D03*
Y-0003679D03*
X0007726Y0012262D03*
Y0013245D03*
G54D91*
X0011988Y-0001542D03*
G54D92*
X0017854Y0000092D03*
Y-0005695D03*
X0012303Y0000092D03*
G54D93*
X0017106D03*
X0016791D03*
X0016476D03*
X0016161D03*
X0015846D03*
X0017106Y-0005695D03*
X0016791D03*
X0016476D03*
X0016161D03*
X0015846D03*
G54D94*
X0012303Y-0005656D03*
G54D95*
X0012441Y-0009806D03*
X0012650Y0010105D03*
X-0013060Y0010076D03*
G54D96*
X-0000629Y-0009279D03*
Y-0007359D03*
X-0005267Y-0010423D03*
Y-0011423D03*
X-0006267Y-0010423D03*
Y-0011423D03*
X-0007267Y-0010423D03*
Y-0011423D03*
G54D97*
X0014210Y0003948D03*
X0015050D03*
X-0004964Y-0012748D03*
X-0005804D03*
G54D98*
X-0004959Y0003244D03*
X-0004644D03*
X-0004329D03*
X-0004014D03*
X-0003699D03*
X-0003384D03*
X-0003069D03*
X-0002754D03*
X-0002439D03*
X-0002124D03*
X-0001809D03*
X-0001494D03*
X-0001179D03*
X-0000865D03*
X-0000550D03*
X-0000235D03*
X0000080D03*
X0000395D03*
X0000710D03*
X0001025D03*
X0001340D03*
X0001655D03*
X0001652Y-0001318D03*
X0001340Y-0001316D03*
X0001025D03*
X0000710D03*
X0000395D03*
X0000080D03*
X-0000236Y-0001318D03*
X-0000550Y-0001316D03*
X-0000865D03*
X-0001179D03*
X-0001494D03*
X-0001809D03*
X-0002124D03*
X-0002439D03*
X-0002754D03*
X-0003069D03*
X-0003384D03*
X-0003699D03*
X-0004014D03*
X-0004329D03*
X-0004644D03*
X-0004959D03*
X0001967Y0003245D03*
X0002281D03*
X0002596D03*
X0002911D03*
X0003225D03*
Y-0001318D03*
X0002911D03*
X0002596D03*
X0002281D03*
X0001967D03*
G54D99*
X-0000847Y0009085D03*
Y0008830D03*
Y0008574D03*
X-0001633Y0009085D03*
Y0008574D03*
G54D100*
X-0008299Y0010384D03*
X-0011171Y0005664D03*
G54D101*
X-0010739Y0009484D03*
Y0010384D03*
Y0011284D03*
X-0008731Y0006564D03*
Y0005664D03*
Y0004764D03*
G54D102*
X-0018268Y0003502D03*
X-0017481D03*
X-0018268Y0002715D03*
X-0017481D03*
X-0018268Y0001927D03*
X-0017481D03*
X-0018268Y0001140D03*
X-0017481D03*
X-0018268Y0000352D03*
X-0017481D03*
X-0018268Y-0000435D03*
X-0017481D03*
X-0018268Y-0001222D03*
X-0017481D03*
X-0018268Y-0002010D03*
X-0017481D03*
X-0018268Y-0002797D03*
X-0017481D03*
X-0018268Y-0003585D03*
X-0017481D03*
G54D103*
X-0020399Y-0006415D03*
X-0020531Y-0005921D03*
X-0020785Y-0004971D03*
X-0020918Y-0004477D03*
X-0015880Y-0014280D03*
X-0016208Y-0013888D03*
X-0016841Y-0013135D03*
X-0017169Y-0012743D03*
X0019199Y-0009510D03*
X0018943Y-0009953D03*
X0018451Y-0010805D03*
X0018196Y-0011247D03*
X0018050Y0011483D03*
X0018306Y0011040D03*
X0018797Y0010189D03*
X0019053Y0009746D03*
X-0020815Y0004777D03*
X-0020682Y0005271D03*
X-0020428Y0006221D03*
X-0020295Y0006715D03*
X-0017046Y0012914D03*
X-0016717Y0013305D03*
X-0016085Y0014059D03*
X-0015757Y0014450D03*
G54D104*
X0005918Y0009323D03*
G54D105*
X0005058Y0008953D03*
Y0009693D03*
G54D106*
X-0012185Y-0009773D03*
Y-0009518D03*
Y-0009262D03*
Y-0009006D03*
Y-0008750D03*
Y-0008494D03*
Y-0008238D03*
Y-0007982D03*
Y-0007726D03*
Y-0007470D03*
X-0009587D03*
Y-0007726D03*
Y-0007982D03*
Y-0008238D03*
Y-0008494D03*
Y-0008750D03*
Y-0009006D03*
Y-0009262D03*
Y-0009518D03*
Y-0009773D03*
G54D107*
X-0008830Y0000924D03*
Y0000549D03*
Y0000174D03*
X-0009850Y0000924D03*
Y0000174D03*
G54D108*
X-0015568Y-0005300D03*
X-0015943D03*
X-0016318D03*
X-0015568Y-0004280D03*
X-0016318D03*
G54D109*
X0007838Y0008464D03*
X0007834Y0008826D03*
Y0009158D03*
Y0009496D03*
X0007836Y0009880D03*
X-0004629Y0004294D03*
X-0005194Y0006134D03*
X-0000256Y-0003770D03*
X0001396Y-0003788D03*
X-0001292Y0018590D03*
X0009672Y0015978D03*
X-0006676Y0015230D03*
X-0007052D03*
X-0007390D03*
X-0007736Y0015228D03*
X-0007924Y0015536D03*
X-0007562D03*
X-0007224D03*
X-0006850D03*
X-0008170Y0013658D03*
X-0017726Y0008328D03*
X0005608Y0014600D03*
X0005560Y0014200D03*
X0011406Y0017982D03*
X0011404Y0017154D03*
X0011982Y0017566D03*
X0009176Y0014642D03*
X0010238Y0013564D03*
X0005942Y0014676D03*
X0003652Y0018552D03*
X0009806Y0014624D03*
X-0009318Y0013264D03*
X0003469Y0021194D03*
X0003992Y0021577D03*
X0003598D03*
X0003204D03*
X0002811D03*
X0003795Y0021184D03*
X0002178Y0021234D03*
X0001092Y0018440D03*
X0002746Y0017644D03*
X0002586Y0018442D03*
X-0000186Y0018286D03*
X0005948Y0016040D03*
X0004046Y0015926D03*
X0002236Y0014974D03*
X-0010378Y-0008798D03*
X-0010092Y-0008496D03*
X-0011480Y-0008738D03*
X-0011726Y-0008494D03*
X-0006726Y-0010130D03*
X-0006662Y-0009798D03*
X-0010476Y-0008020D03*
X0013344Y0008238D03*
X0016125Y0000699D03*
X0010368Y0006988D03*
X0015972Y0002892D03*
X0013322Y0004460D03*
X0010737Y0007457D03*
X0010107Y0007451D03*
X-0009622Y-0012690D03*
X-0008308Y-0012964D03*
X-0014794Y-0007226D03*
X-0012318Y-0011600D03*
X-0013700Y-0009156D03*
X-0014518Y-0009464D03*
X-0011604Y-0009868D03*
X-0012769Y-0011535D03*
X-0005841Y-0008368D03*
X-0011868Y-0015970D03*
X-0007842Y0016544D03*
X-0007510Y0016550D03*
X-0007186Y0016544D03*
X-0006870D03*
X0009456Y0012400D03*
X-0021182Y-0000982D03*
X0009708Y-0014204D03*
X0008024Y-0015420D03*
X0007234Y-0015950D03*
X0000592Y-0015228D03*
X0005244Y-0012598D03*
X0005278Y-0012930D03*
X0005222Y-0014482D03*
X0004970Y-0014078D03*
X0010394Y-0012422D03*
X0006562Y-0012416D03*
X-0010620Y0013338D03*
X-0011826Y0012416D03*
X-0015240Y0006706D03*
X-0019366Y0004800D03*
X0005814Y-0012412D03*
X-0011238Y-0006106D03*
X-0002743Y-0015521D03*
X0006636Y-0015764D03*
X0004482Y-0015870D03*
X0005378Y-0016934D03*
X-0009950Y-0014554D03*
X-0014426Y-0012386D03*
X0005662Y-0016074D03*
X0006932Y-0018092D03*
X0015404Y-0011834D03*
X0019736Y0004880D03*
X-0015370Y0011672D03*
X0016200Y0010532D03*
X0017796Y-0008392D03*
X0007738Y-0012562D03*
X0007802Y-0016964D03*
X0006462Y-0018038D03*
X0009176Y-0016074D03*
Y-0015444D03*
X0009378Y-0015764D03*
X0009372Y-0015134D03*
X0008190Y-0017886D03*
X-0001482Y-0017294D03*
X-0010964Y-0013874D03*
X-0011222Y-0007512D03*
X-0010558Y-0014086D03*
X0009226Y-0012014D03*
X0007180Y-0013276D03*
X0007410Y-0011056D03*
X-0002174Y-0017666D03*
X-0003276Y-0019908D03*
X-0009968Y-0015854D03*
X-0011020Y-0016904D03*
X0012124Y-0016760D03*
X-0001080Y-0018144D03*
X0007800Y-0013056D03*
X0009282Y-0013448D03*
X0008746Y-0013080D03*
X0011650Y-0013340D03*
X0011658Y-0015500D03*
X0011666Y-0014144D03*
X0011686Y-0012780D03*
X0018258Y-0003032D03*
X0018054Y-0001144D03*
X0017356Y-0000394D03*
X0017404Y0003556D03*
X0017860Y-0000446D03*
X0012484Y-0015498D03*
X0017182Y0004870D03*
X0014152Y0014668D03*
X0009830Y0016538D03*
X0010906Y0013884D03*
X0017470Y-0001646D03*
X0010238Y0012356D03*
X-0000862Y0017290D03*
X0000558Y0017258D03*
X-0001882Y0018662D03*
X0002542Y0016632D03*
X0001124Y0016616D03*
X-0002602Y0016592D03*
X0010878Y0015236D03*
X0011260Y0012268D03*
X0015564Y-0006862D03*
X0011836Y-0007120D03*
X0006832Y-0003624D03*
X0012336Y-0004812D03*
X0006834Y-0002810D03*
X0010768Y-0005320D03*
X0010368Y-0000368D03*
X0012194Y-0006887D03*
X0014078Y-0006136D03*
X0013217Y-0006887D03*
X0014746Y-0003078D03*
X0014004Y-0004124D03*
X0011060Y-0002282D03*
X0002712Y-0010304D03*
X0004184Y-0010308D03*
X0001486Y-0010808D03*
X0001504Y-0010306D03*
X0009670Y0004692D03*
X0009668Y0005456D03*
X0010226Y0005072D03*
X0009050D03*
X0011168Y0004664D03*
X0010570Y0005074D03*
X0011168Y0005528D03*
X0011792Y0005074D03*
X-0013818Y0013684D03*
X-0000614Y0021270D03*
X0014174Y0016186D03*
X0015076Y0013222D03*
X0020942Y0002066D03*
X0016002Y-0014292D03*
X-0000576Y-0021776D03*
X-0014636Y-0015598D03*
X-0015956Y-0004490D03*
X-0014870Y-0005030D03*
X-0014914Y-0006360D03*
X-0011664Y-0014918D03*
X-0013138Y-0013934D03*
X-0012156Y-0013324D03*
X-0011664Y-0015394D03*
X-0013044Y-0015966D03*
X-0014132Y-0014840D03*
X-0014648Y-0014360D03*
X-0019740Y-0000062D03*
X-0017390Y0006086D03*
X-0011966Y0007684D03*
X-0019478Y0002840D03*
X-0016024Y0006238D03*
X-0014732Y0007472D03*
X-0020338Y0001646D03*
X-0019446Y0000246D03*
X-0019284Y-0000556D03*
X-0021136Y-0000558D03*
X-0021140Y0001054D03*
X-0021142Y0000248D03*
X-0011244Y0014026D03*
X-0011546Y0015916D03*
X-0011544Y0017450D03*
X-0001874Y-0019754D03*
X-0003162Y-0017542D03*
X-0001826Y-0018212D03*
X-0000458Y-0018076D03*
X-0001456Y-0019866D03*
X-0002258Y-0021256D03*
X-0001462Y-0021370D03*
X-0000672Y-0021306D03*
X0018222Y-0001882D03*
X0017888Y0001442D03*
X0012822Y0003564D03*
X0013724Y0002586D03*
X0013734Y0001822D03*
X0015374Y0003948D03*
X0015050Y0003602D03*
Y0004266D03*
X0012280Y0001672D03*
X0014336Y0002034D03*
X0014980Y0002122D03*
X0015430Y0000384D03*
X0013308Y0000386D03*
X0010710Y0003000D03*
X0011494Y0001974D03*
X0016791Y-0005175D03*
Y-0006265D03*
X0016278Y-0001392D03*
X-0016614Y0003404D03*
X-0016356Y-0001698D03*
X-0016364Y-0002044D03*
X-0011512Y-0009282D03*
X-0009642Y-0011312D03*
X-0010112Y-0011148D03*
X-0008692Y-0013008D03*
X-0009260Y-0013834D03*
X-0009434Y-0013540D03*
X-0008330Y-0007908D03*
X-0009992Y-0012956D03*
X-0010428Y-0012970D03*
X-0009616Y-0006960D03*
X-0010076Y-0006550D03*
X-0005040Y-0014899D03*
X-0012264Y-0010154D03*
X-0005742Y-0015248D03*
X-0007778Y-0014117D03*
X-0005040Y-0014249D03*
X-0003614Y-0013649D03*
X-0004302Y-0013647D03*
X-0002619D03*
X-0006414Y-0013025D03*
X-0007078Y-0013017D03*
X-0007778Y-0013467D03*
X-0005016Y-0013810D03*
X-0014026Y0005670D03*
X-0007470Y0009226D03*
X-0015568Y-0004982D03*
X-0015954Y-0004870D03*
X-0016318Y-0005002D03*
X-0019368Y-0004606D03*
X-0012256Y-0005328D03*
X-0013904Y-0004882D03*
X-0010322Y-0002174D03*
X-0009786Y-0004316D03*
X-0010988Y-0007808D03*
X-0008323Y-0010624D03*
X-0009726Y-0009856D03*
X0004012Y-0003737D03*
X-0007214Y-0009708D03*
X-0014346Y-0007198D03*
X-0013974Y-0008755D03*
X-0011676Y-0009008D03*
X0004136Y-0001240D03*
X0004096Y-0004276D03*
X-0014642Y0012862D03*
X-0013372Y-0008590D03*
X-0013344Y-0009004D03*
X-0013124Y-0008280D03*
X-0008718Y-0009850D03*
X-0008372Y-0009660D03*
X-0008294Y-0009142D03*
X-0015620Y-0011580D03*
X0016640Y0011488D03*
X0003097Y-0003530D03*
X0003245Y-0003176D03*
X0008053Y0002488D03*
X0007612Y0005620D03*
X0021122Y0001426D03*
X-0010739Y0011284D03*
X-0005605Y0018015D03*
X-0005595Y0018349D03*
X-0006696Y0018015D03*
X-0006274D03*
X-0005949D03*
Y0018349D03*
X-0006692Y0018344D03*
X-0006314D03*
X-0004169Y0016903D03*
X-0003550Y0016874D03*
X-0004169Y0018005D03*
X-0003550D03*
X-0002262Y0017444D03*
X-0002665D03*
X-0003038D03*
X-0003422D03*
X-0003874D03*
X-0004376D03*
X-0004759D03*
X-0005143D03*
X-0005566D03*
X-0005929D03*
X-0006314D03*
X-0009244Y0011280D03*
X-0008630Y0011338D03*
X-0009233Y0011692D03*
X-0009241Y0009846D03*
Y0009079D03*
Y0009479D03*
X-0006244Y0009991D03*
X-0004032Y-0007886D03*
X-0003602Y-0008483D03*
X-0004032Y-0009047D03*
X-0004395Y-0008486D03*
X-0004032Y-0010590D03*
X-0003628Y-0009991D03*
X-0004032Y-0009381D03*
X-0004356Y-0009981D03*
X-0006637Y0009511D03*
X-0010738Y0009833D03*
Y0009125D03*
X-0010187Y0009479D03*
X-0011298D03*
X-0010739Y0009484D03*
X-0008731Y0006564D03*
X-0008063Y0006274D03*
X-0007881Y0006564D03*
X-0008226D03*
X0004012Y-0001839D03*
X-0000442Y0008771D03*
X-0013116Y0001314D03*
X-0001986Y-0008624D03*
X-0003992Y-0006274D03*
X-0002965Y-0006298D03*
X-0000747Y0000905D03*
Y0002104D03*
X-0004248Y0007552D03*
X0001632Y0006038D03*
X-0007493Y-0009263D03*
X-0007198Y-0008853D03*
X-0005831Y-0009233D03*
X-0006906Y-0007712D03*
X-0008496Y-0005241D03*
X-0010888Y-0003284D03*
X-0016058Y-0000973D03*
X-0015950Y0001534D03*
X-0018749Y-0005182D03*
X0019721Y-0007813D03*
X0005916Y0008692D03*
X0000787Y0007886D03*
X0000452Y0008103D03*
X-0018966Y-0007144D03*
X0007218Y-0000413D03*
X0005841Y-0000551D03*
X0008437Y-0002026D03*
X0007498Y-0003496D03*
X0007513Y-0005389D03*
X0005546Y-0001495D03*
X0007498Y-0002159D03*
X0008437Y-0002586D03*
X0009229Y-0004772D03*
Y-0002804D03*
X0009243Y-0003796D03*
X0009066Y-0000846D03*
X0009224Y-0005723D03*
Y-0006411D03*
Y0001003D03*
X0010012Y0000550D03*
X0003566Y0008988D03*
X0006102Y0010472D03*
X-0001917Y-0007867D03*
X0004248Y-0000767D03*
X0002783Y-0007906D03*
X-0015360Y0012655D03*
X-0018650Y0006624D03*
X-0018774Y0005025D03*
X-0019724Y0004566D03*
X-0019981Y0004071D03*
X0016776Y0009853D03*
X0017320Y0008726D03*
X0016888Y-0010804D03*
X0018325Y-0008251D03*
X-0007001Y0007277D03*
X-0005546Y0007296D03*
X-0008358Y0000118D03*
X0003694Y0002260D03*
X-0000983Y0002399D03*
X-0002635Y0004110D03*
X-0014180Y-0002045D03*
X-0014866Y-0002696D03*
X-0011182Y-0000442D03*
X-0011131Y0000826D03*
X-0012018Y-0000810D03*
X-0013056Y-0000536D03*
X-0013422Y0000012D03*
X-0011680Y0001476D03*
X-0012724Y0001868D03*
X0004346Y0000256D03*
X0003225Y-0001770D03*
X-0004051Y-0001888D03*
X-0002045Y-0004150D03*
X0002596Y0007808D03*
X-0006057Y0004582D03*
X-0001809Y-0006608D03*
X0003717Y-0005900D03*
X0003690Y0002826D03*
X-0004209Y0006116D03*
X-0012492Y-0002127D03*
X0004012Y-0002399D03*
X-0002616Y-0003855D03*
X-0002396Y-0002316D03*
X-0000433Y0007650D03*
X-0000646Y-0002278D03*
X0000452Y-0005644D03*
X0004012Y0004150D03*
X0001731Y-0005782D03*
X-0000334Y-0005644D03*
X-0001082Y-0005762D03*
X-0009850Y0000924D03*
X-0008657Y-0001026D03*
X-0007277Y0000747D03*
X-0013672Y0002226D03*
X-0014317Y0000000D03*
X-0012016Y-0001691D03*
X-0010345Y0000826D03*
X-0011312Y0002180D03*
X-0010600Y-0000826D03*
X-0013082Y-0001400D03*
X-0014078Y0001334D03*
X-0014835Y0002524D03*
X-0014829Y0001593D03*
X-0014710Y-0001618D03*
X-0014711Y-0001023D03*
X-0014829Y-0000236D03*
X-0013472Y-0002203D03*
X-0013276Y-0003180D03*
X-0010912Y-0002199D03*
X-0009732Y-0001616D03*
X-0009755Y-0000236D03*
X-0009764Y0001888D03*
X-0008732Y0001534D03*
X-0009755Y0002517D03*
X-0010522Y0002950D03*
X-0010777Y0004169D03*
X-0012882Y0002950D03*
X-0015104Y-0012193D03*
X0001991Y-0006534D03*
X0000330Y-0006514D03*
X-0014154Y-0013518D03*
X0002616Y0006116D03*
X0000275Y0008653D03*
X-0003530Y-0002318D03*
X0000787Y0007395D03*
X-0000433Y0009086D03*
X-0014298Y0002773D03*
X-0004897Y-0004130D03*
X-0000767Y0006077D03*
X-0001746Y-0002322D03*
X0004012Y0003579D03*
X0001655Y0003714D03*
X0003225Y0000924D03*
X0002594Y-0006678D03*
X0003383Y0006116D03*
X0002045Y-0004110D03*
X-0001101Y-0004130D03*
M02*
