*
G04 Mass Parameters ***
*
G04 Image ***
*
%INC:\CAINPCB\ECBOT\V5\ECBOTCPU5.SSB*%
%ICAS*%
%MOIN*%
%IPPOS*%
%ASAXBY*%
G74*%FSLAN2X34Y34*%
*
G04 Aperture Definitions ***
*
%ADD10R,0.0500X0.0400*%
%ADD11R,0.0400X0.0500*%
%ADD12R,0.0300X0.0350*%
%ADD13R,0.1000X0.0600*%
%ADD14R,0.0600X0.1000*%
%ADD15R,0.0650X0.1200*%
%ADD16R,0.2350X0.2350*%
%ADD17C,0.0550*%
%ADD18R,0.0550X0.0550*%
%ADD19C,0.0580*%
%ADD20R,0.0580X0.0580*%
%ADD21C,0.0512*%
%ADD22R,0.1024X0.1024*%
%ADD23C,0.0620*%
%ADD24C,0.0433*%
%ADD25C,0.3149X0.1574*%
%ADD26C,0.0600*%
%ADD27R,0.0800X0.1800*%
%ADD28R,0.0394X0.0236*%
%ADD29R,0.0197X0.0197*%
%ADD30C,0.0020*%
%ADD31R,0.0236X0.0394*%
%ADD32R,0.0701X0.0110*%
%ADD33R,0.0700X0.0110*%
%ADD34R,0.0110X0.0701*%
%ADD35R,0.0110X0.0700*%
%ADD36R,0.0550X0.0350*%
%ADD37R,0.0450X0.0350*%
%ADD38R,0.0350X0.0550*%
%ADD39R,0.0350X0.0450*%
%ADD40R,0.0350X0.0300*%
%ADD41R,0.1968X0.1968*%
%ADD42R,0.0800X0.0250*%
%ADD43R,0.0315X0.0197*%
%ADD44R,0.0197X0.0315*%
%ADD45R,0.0160X0.0700*%
%ADD46R,0.0100X0.0600*%
%ADD47R,0.0600X0.0100*%
%ADD48C,0.0472*%
%ADD49R,0.0750X0.0250*%
%ADD50C,0.0394*%
%ADD51R,0.0500X0.0160*%
%ADD52R,0.0880X0.1420*%
%ADD53R,0.0880X0.0480*%
%ADD54R,0.0150X0.0600*%
%ADD55R,0.0600X0.0150*%
%ADD56R,0.0866X0.0512*%
%ADD57C,0.0236*%
%ADD58C,0.0118*%
%ADD59C,0.0010*%
%ADD60C,0.0080*%
%ADD61C,0.0236*%
%ADD62C,0.0157*%
%ADD63C,0.0590*%
%ADD64C,0.0149*%
%ADD65C,0.0787*%
%ADD66C,0.0315*%
%ADD67C,0.0709*%
%ADD68C,0.0197*%
%ADD69C,0.0394*%
%ADD70C,0.0905*%
%ADD71C,0.0512*%
%ADD72C,0.0236*%
%ADD73C,0.0079*%
%ADD74R,0.0500X0.0400*%
%ADD75R,0.0400X0.0500*%
%ADD76R,0.1000X0.0600*%
%ADD77R,0.0600X0.1000*%
%ADD78R,0.0300X0.0350*%
%ADD79R,0.0350X0.0300*%
%ADD80C,0.0550*%
%ADD81R,0.0550X0.0550*%
%ADD82C,0.0580*%
%ADD83R,0.0580X0.0580*%
%ADD84C,0.0512*%
%ADD85R,0.0630X0.0827*%
%ADD86R,0.0551X0.0728*%
%ADD87R,0.0905X0.0472*%
%ADD88C,0.1024*%
%ADD89C,0.0620*%
%ADD90C,0.0433*%
%ADD91R,0.0394X0.0709*%
%ADD92R,0.0709X0.0669*%
%ADD93R,0.0236X0.0669*%
%ADD94R,0.0709X0.0748*%
%ADD95C,0.3149X0.1574*%
%ADD96C,0.0600*%
%ADD97R,0.0500X0.0500*%
%ADD98R,0.0197X0.0551*%
%ADD99R,0.0394X0.0138*%
%ADD100R,0.0880X0.1420*%
%ADD101R,0.0880X0.0480*%
%ADD102C,0.0472*%
%ADD103C,0.0394*%
%ADD104R,0.0550X0.0350*%
%ADD105R,0.0450X0.0350*%
%ADD106R,0.0700X0.0160*%
%ADD107R,0.0390X0.0272*%
%ADD108R,0.0272X0.0390*%
%ADD109C,0.0236*%
%ADD110C,0.0177*%
%ADD111C,0.0236*%
%ADD112C,0.0189*%
%ADD113C,0.0750*%
%ADD114R,0.0750X0.0750*%
%ADD115C,0.0780*%
%ADD116R,0.0780X0.0780*%
%ADD117C,0.1102*%
%ADD118C,0.0700*%
%ADD119C,0.0670*%
%ADD120C,0.0650*%
%ADD121C,0.0059*%
%ADD122C,0.0236*%
%ADD123R,0.0350X0.0400*%
%ADD124R,0.1050X0.0650*%
%ADD125R,0.0650X0.1050*%
%ADD126R,0.0700X0.1250*%
%ADD127R,0.2400X0.2400*%
%ADD128R,0.1063X0.1063*%
%ADD129C,0.1390*%
%ADD130C,0.0492*%
%ADD131R,0.0850X0.1850*%
%ADD132R,0.0550X0.0450*%
%ADD133R,0.0433X0.0276*%
%ADD134R,0.0236X0.0236*%
%ADD135R,0.0276X0.0433*%
%ADD136R,0.0701X0.0110*%
%ADD137R,0.0700X0.0110*%
%ADD138R,0.0110X0.0701*%
%ADD139R,0.0110X0.0700*%
%ADD140R,0.0600X0.0400*%
%ADD141R,0.0400X0.0600*%
%ADD142R,0.0400X0.0350*%
%ADD143R,0.1968X0.1968*%
%ADD144R,0.0850X0.0300*%
%ADD145R,0.0384X0.0256*%
%ADD146R,0.0256X0.0384*%
%ADD147R,0.0210X0.0750*%
%ADD148R,0.0150X0.0650*%
%ADD149R,0.0650X0.0150*%
%ADD150C,0.0551*%
%ADD151R,0.0800X0.0300*%
%ADD152R,0.0550X0.0210*%
%ADD153R,0.0930X0.1470*%
%ADD154R,0.0930X0.0530*%
%ADD155R,0.0200X0.0650*%
%ADD156R,0.0650X0.0200*%
%ADD157R,0.0905X0.0551*%
%ADD158C,0.1063*%
%ADD159R,0.0236X0.0590*%
%ADD160R,0.0750X0.0210*%
%ADD161C,0.0060*%
%ADD162C,0.0100*%
%ADD163C,0.0500*%
%ADD164C,0.0030*%
%ADD165C,0.0098*%
%ADD166C,0.0039*%
%ADD167C,0.0063*%
*
G04 Plot Data ***
*
G54D60*
G01X-0012136Y-0009972D02*
X-0012336Y-0010172D01*
X-0011936D01*
X-0012136Y-0009972D01*
X-0004767Y-0011923D02*
Y-0009923D01*
X-0007767D01*
Y-0011923D01*
X-0004767D01*
G54D68*
G01X-0000012Y-0022389D02*
G03X0022371Y-0000006I0000000J0022383D01*
G01X-0022395D02*
G03X-0000012Y-0022389I0022383J0000000D01*
Y0022377D02*
G03X-0022395Y-0000006I0000000J0022383D01*
G01X0022371D02*
G03X-0000012Y0022377I0022383J0000000D01*
G54D73*
G01X0011839Y-0015501D02*
X0011795Y-0015479D01*
Y-0015348D01*
X0011839Y-0015326D01*
X0011926D01*
X0011970Y-0015370D01*
Y-0015501D01*
X0012057D01*
Y-0015326D01*
X0011795Y-0015812D02*
X0012057Y-0015680D01*
Y-0015855D01*
X0011926Y-0016100D02*
X0011795Y-0016035D01*
X0011926Y-0016210D02*
Y-0016078D01*
X0011970Y-0016035D01*
X0012014D01*
X0012057Y-0016078D01*
Y-0016210D01*
X0011795D01*
X0011924Y-0012775D02*
Y-0012644D01*
X0011880Y-0012622D01*
X0011837D01*
X0011793Y-0012644D01*
Y-0012775D01*
X0011837Y-0012797D01*
X0011880D01*
X0012055Y-0012710D01*
X0011793Y-0013108D02*
X0012055Y-0012976D01*
Y-0013151D01*
X0011924Y-0013396D02*
X0011793Y-0013331D01*
X0011924Y-0013506D02*
Y-0013374D01*
X0011968Y-0013331D01*
X0012012D01*
X0012055Y-0013374D01*
Y-0013506D01*
X0011793D01*
X0011797Y-0014282D02*
X0012059Y-0014150D01*
Y-0014325D01*
X0011797Y-0014636D02*
X0012059Y-0014504D01*
Y-0014679D01*
X0011928Y-0014924D02*
X0011797Y-0014859D01*
X0011928Y-0015034D02*
Y-0014902D01*
X0011972Y-0014859D01*
X0012016D01*
X0012059Y-0014902D01*
Y-0015034D01*
X0011797D01*
X-0015293Y-0003963D02*
Y-0005418D01*
X-0015450Y-0005575D01*
X-0016551D01*
Y-0003963D01*
X-0015293D01*
X-0010072Y0001202D02*
X-0008712Y0001200D01*
X-0008555Y0001042D01*
Y-0000059D01*
X-0010072D01*
Y0001202D01*
G54D121*
G01X-0005196Y-0009349D02*
X-0005432D01*
X-0005393Y-0009388D01*
X-0005314Y-0009428D01*
X-0005393Y-0009467D01*
X-0005432Y-0009506D01*
X-0005196D01*
X-0005432Y-0009644D02*
X-0005354D01*
X-0005196Y-0009723D01*
X-0005354Y-0009802D01*
X-0005432D01*
X-0007202Y-0008157D02*
X-0007438D01*
X-0007202Y-0008177D02*
Y-0008059D01*
X-0007242Y-0008020D01*
X-0007281D01*
X-0007320Y-0008039D01*
Y-0008157D02*
Y-0008039D01*
X-0007360Y-0008020D01*
X-0007399D01*
X-0007438Y-0008059D01*
Y-0008177D01*
X-0007202Y-0008315D02*
Y-0008452D01*
X-0007438D01*
X-0007202Y-0008590D02*
X-0007438D01*
X-0007399Y-0008630D01*
X-0007320Y-0008669D01*
X-0007399Y-0008708D01*
X-0007438Y-0008748D01*
X-0007202D01*
X-0005212Y-0008220D02*
X-0005448D01*
X-0005212Y-0008239D02*
Y-0008121D01*
X-0005291Y-0008082D01*
X-0005370D01*
X-0005448Y-0008121D01*
Y-0008239D01*
Y-0008377D02*
X-0005212D01*
X-0005252Y-0008416D01*
X-0005409Y-0008495D01*
X-0005448Y-0008534D01*
X-0005212D01*
X-0005330Y-0008751D02*
Y-0008672D01*
X-0005252D01*
X-0005212Y-0008692D01*
Y-0008810D01*
X-0005252Y-0008830D01*
X-0005409D01*
X-0005448Y-0008810D01*
Y-0008692D01*
X-0005409Y-0008672D01*
X-0006263Y-0009048D02*
Y-0009205D01*
X-0006184Y-0009048D02*
X-0006302D01*
X-0006420Y-0009107D01*
Y-0009146D01*
X-0006302Y-0009205D01*
X-0006184D01*
X-0006302Y-0009402D02*
X-0006184Y-0009343D01*
X-0006302Y-0009500D02*
Y-0009382D01*
X-0006342Y-0009343D01*
X-0006381D01*
X-0006420Y-0009382D01*
Y-0009500D01*
X-0006184D01*
Y-0009638D02*
X-0006420D01*
X-0006381Y-0009678D01*
X-0006302Y-0009717D01*
X-0006381Y-0009756D01*
X-0006420Y-0009796D01*
X-0006184D01*
X-0016838Y-0003216D02*
X-0016949D01*
X-0017171Y-0003327D01*
X-0016949Y-0003438D01*
X-0016838D01*
X-0017004Y-0003611D02*
X-0016949Y-0003584D01*
X-0016893D01*
X-0016838Y-0003611D01*
Y-0003778D01*
X-0016893Y-0003806D01*
X-0016949D01*
X-0017004Y-0003778D01*
Y-0003611D01*
X-0017060Y-0003584D01*
X-0017116D01*
X-0017171Y-0003611D01*
Y-0003778D01*
X-0017116Y-0003806D01*
X-0017060D01*
X-0017004Y-0003778D01*
X-0017171Y-0004007D02*
Y-0003952D01*
X-0017116D01*
Y-0004007D01*
X-0017171D01*
Y-0004208D02*
Y-0004431D01*
X-0016949Y-0004208D01*
X-0016893D01*
X-0016838Y-0004236D01*
Y-0004403D01*
X-0016893Y-0004431D01*
X-0017004Y-0005181D02*
Y-0005069D01*
X-0017116D01*
X-0017171Y-0005097D01*
Y-0005264D01*
X-0017116Y-0005292D01*
X-0016893D01*
X-0016838Y-0005264D01*
Y-0005097D01*
X-0016893Y-0005069D01*
X-0017004Y-0005493D02*
Y-0005660D01*
X-0017171Y-0005437D02*
Y-0005660D01*
X-0016838D01*
Y-0005437D01*
X-0017004Y-0005889D02*
X-0017171Y-0005805D01*
X-0017004Y-0006028D02*
Y-0005861D01*
X-0016949Y-0005805D01*
X-0016893D01*
X-0016838Y-0005861D01*
Y-0006028D01*
X-0017171D01*
X0019072Y0008660D02*
X0019010Y0008656D01*
X0018927Y0008800D01*
X0018961Y0008852D01*
X0019057Y0008908D01*
X0019133Y0008887D01*
X0019216Y0008743D01*
X0019312Y0008799D01*
X0019201Y0008991D01*
X0019097Y0008506D02*
X0019152Y0008409D01*
X0019124Y0008458D02*
X0019413Y0008624D01*
X0019393Y0008548D01*
X0019541Y0008402D02*
X0019301Y0008263D01*
X0019267Y0008211D01*
X0019350Y0008067D01*
X0019412Y0008070D01*
X0019653Y0008209D01*
X-0006184Y-0008158D02*
X-0006420D01*
X-0006184Y-0008177D02*
Y-0008059D01*
X-0006224Y-0008020D01*
X-0006263D01*
X-0006302Y-0008040D01*
Y-0008158D02*
Y-0008040D01*
X-0006342Y-0008020D01*
X-0006381D01*
X-0006420Y-0008059D01*
Y-0008177D01*
X-0006302Y-0008374D02*
X-0006184Y-0008315D01*
X-0006302Y-0008472D02*
Y-0008354D01*
X-0006342Y-0008315D01*
X-0006381D01*
X-0006420Y-0008354D01*
Y-0008472D01*
X-0006184D01*
Y-0008610D02*
X-0006420D01*
X-0006381Y-0008650D01*
X-0006302Y-0008689D01*
X-0006381Y-0008728D01*
X-0006420Y-0008768D01*
X-0006184D01*
X-0014836Y0014671D02*
X-0014694Y0014842D01*
X-0015007Y0014814D01*
X-0015049Y0014850D01*
X-0015074Y0014907D01*
X-0014967Y0015035D01*
X-0014906Y0015020D01*
X-0014600Y0014953D02*
X-0014528Y0015038D01*
X-0014564Y0014996D02*
X-0014819Y0015210D01*
X-0014741Y0015217D01*
X-0014654Y0015407D02*
X-0014442Y0015228D01*
X-0014381Y0015214D01*
X-0014274Y0015342D01*
X-0014299Y0015399D01*
X-0014512Y0015577D01*
X-0019646Y0007377D02*
X-0019607Y0007309D01*
X-0019636Y0007202D01*
X-0019704Y0007162D01*
X-0019757Y0007177D01*
X-0019836Y0007313D01*
X-0019972Y0007234D01*
X-0019915Y0007449D01*
X-0019555Y0007503D02*
X-0019526Y0007611D01*
X-0019540Y0007557D02*
X-0019862Y0007643D01*
X-0019794Y0007683D01*
X-0019796Y0007891D02*
X-0019528Y0007820D01*
X-0019467Y0007832D01*
X-0019424Y0007993D01*
X-0019470Y0008034D01*
X-0019738Y0008106D01*
X-0019798Y-0007930D02*
X-0019841Y-0007769D01*
X-0019902Y-0007757D01*
X-0019956Y-0007771D01*
X-0020002Y-0007812D01*
X-0019959Y-0007973D01*
X-0019898Y-0007986D01*
X-0019845Y-0007971D01*
X-0019659Y-0007807D01*
X-0019725Y-0007558D02*
X-0019754Y-0007451D01*
X-0019740Y-0007505D02*
X-0020062Y-0007591D01*
X-0020022Y-0007523D01*
X-0020128Y-0007343D02*
X-0019860Y-0007271D01*
X-0019813Y-0007230D01*
X-0019857Y-0007069D01*
X-0019917Y-0007056D01*
X-0020186Y-0007128D01*
X-0007281Y-0009042D02*
Y-0009199D01*
X-0007202Y-0009042D02*
X-0007320D01*
X-0007438Y-0009101D01*
Y-0009140D01*
X-0007320Y-0009199D01*
X-0007202D01*
Y-0009337D02*
Y-0009474D01*
X-0007438D01*
X-0007202Y-0009612D02*
X-0007438D01*
X-0007399Y-0009652D01*
X-0007320Y-0009691D01*
X-0007399Y-0009730D01*
X-0007438Y-0009770D01*
X-0007202D01*
X-0009214Y-0004689D02*
X-0008992D01*
X-0009214Y-0004467D01*
Y-0004411D01*
X-0009186Y-0004356D01*
X-0009019D01*
X-0008992Y-0004411D01*
X-0008624Y-0004634D02*
X-0008651Y-0004689D01*
X-0008818D01*
X-0008846Y-0004634D01*
Y-0004523D01*
X-0008790Y-0004467D01*
X-0008624D01*
Y-0004356D01*
X-0008846D01*
X-0008395Y-0004523D02*
X-0008478Y-0004689D01*
X-0008256Y-0004523D02*
X-0008422D01*
X-0008478Y-0004467D01*
Y-0004411D01*
X-0008422Y-0004356D01*
X-0008256D01*
Y-0004689D01*
X-0017327Y-0012073D02*
X-0017351Y-0012130D01*
X-0017394Y-0012166D01*
X-0017454Y-0012181D01*
X-0017561Y-0012053D01*
X-0017537Y-0011996D01*
X-0017494Y-0011960D01*
X-0017434Y-0011946D01*
X-0017327Y-0012073D01*
X-0017266Y-0012059D01*
X-0017224Y-0012023D01*
X-0017199Y-0011966D01*
X-0017306Y-0011839D01*
X-0017366Y-0011853D01*
X-0017409Y-0011889D01*
X-0017434Y-0011946D01*
X-0017418Y-0011706D02*
X-0017489Y-0011621D01*
X-0017453Y-0011663D02*
X-0017709Y-0011877D01*
X-0017702Y-0011799D01*
X-0017874Y-0011681D02*
X-0017661Y-0011502D01*
X-0017636Y-0011445D01*
X-0017743Y-0011317D01*
X-0017804Y-0011332D01*
X-0018017Y-0011510D01*
G54D161*
G01X0005806Y0014135D02*
X0005850Y0014179D01*
X0005872Y0014222D01*
Y0014310D01*
X0005850Y0014354D01*
X0005806Y0014397D01*
X0005762D01*
X0005719Y0014354D01*
X0005697Y0014310D01*
Y0014222D01*
X0005719Y0014179D01*
X0005762Y0014135D01*
X0005806D01*
X0006014D02*
X0006101D01*
X0006057D02*
Y0014397D01*
X0006101Y0014354D01*
X0006352Y0014266D02*
X0006287Y0014135D01*
X0006462Y0014266D02*
X0006330D01*
X0006287Y0014310D01*
Y0014354D01*
X0006330Y0014397D01*
X0006462D01*
Y0014135D01*
X0004843Y0018216D02*
X0004974D01*
X0004996Y0018260D01*
Y0018303D01*
X0004974Y0018347D01*
X0004843D01*
X0004821Y0018303D01*
Y0018260D01*
X0004908Y0018085D01*
X0005203Y0018216D02*
X0005137Y0018085D01*
X0005312Y0018216D02*
X0005181D01*
X0005137Y0018260D01*
Y0018303D01*
X0005181Y0018347D01*
X0005312D01*
Y0018085D01*
X0005979Y0014899D02*
X0005957Y0014856D01*
X0005826D01*
X0005804Y0014899D01*
Y0014987D01*
X0005848Y0015031D01*
X0005979D01*
Y0015118D01*
X0005804D01*
X0006121Y0014943D02*
X0006296D01*
X0006208Y0015118D01*
X0006165D01*
Y0014856D01*
X0006438Y0014899D02*
X0006460Y0014856D01*
X0006591D01*
X0006613Y0014899D01*
Y0015074D01*
X0006591Y0015118D01*
X0006460D01*
X0006438Y0015074D01*
X-0002077Y-0019785D02*
X-0002410Y-0019951D01*
Y-0019729D01*
X-0002188Y-0019581D02*
Y-0019359D01*
X-0002077Y-0019581D02*
X-0002244D01*
X-0002410Y-0019498D01*
Y-0019443D01*
X-0002244Y-0019359D01*
X-0002077D01*
X-0002244Y-0019128D02*
X-0002077Y-0019211D01*
X-0002244Y-0018989D02*
Y-0019156D01*
X-0002299Y-0019211D01*
X-0002355D01*
X-0002410Y-0019156D01*
Y-0018989D01*
X-0002077D01*
X-0001485Y-0019892D02*
Y-0019761D01*
X-0001529Y-0019739D01*
X-0001572D01*
X-0001616Y-0019761D01*
Y-0019892D01*
X-0001572Y-0019914D01*
X-0001529D01*
X-0001354Y-0019826D01*
X-0001441Y-0019597D02*
Y-0019422D01*
X-0001354Y-0019597D02*
X-0001485D01*
X-0001616Y-0019531D01*
Y-0019488D01*
X-0001485Y-0019422D01*
X-0001354D01*
X-0001485Y-0019215D02*
X-0001354Y-0019280D01*
X-0001485Y-0019105D02*
Y-0019237D01*
X-0001529Y-0019280D01*
X-0001572D01*
X-0001616Y-0019237D01*
Y-0019105D01*
X-0001354D01*
X-0000573Y-0019902D02*
X-0000617Y-0019924D01*
X-0000660D01*
X-0000704Y-0019902D01*
Y-0019771D01*
X-0000660Y-0019749D01*
X-0000617D01*
X-0000573Y-0019771D01*
Y-0019902D01*
X-0000529Y-0019924D01*
X-0000485D01*
X-0000442Y-0019902D01*
Y-0019771D01*
X-0000485Y-0019749D01*
X-0000529D01*
X-0000573Y-0019771D01*
X-0000529Y-0019607D02*
Y-0019432D01*
X-0000442Y-0019607D02*
X-0000573D01*
X-0000704Y-0019541D01*
Y-0019498D01*
X-0000573Y-0019432D01*
X-0000442D01*
X-0000573Y-0019225D02*
X-0000442Y-0019290D01*
X-0000573Y-0019115D02*
Y-0019247D01*
X-0000617Y-0019290D01*
X-0000660D01*
X-0000704Y-0019247D01*
Y-0019115D01*
X-0000442D01*
X-0015321Y-0014714D02*
X-0015146D01*
X-0015321Y-0014539D01*
Y-0014496D01*
X-0015299Y-0014452D01*
X-0015168D01*
X-0015146Y-0014496D01*
X-0015004Y-0014714D02*
X-0014829D01*
X-0015004Y-0014539D01*
Y-0014496D01*
X-0014982Y-0014452D01*
X-0014851D01*
X-0014829Y-0014496D01*
X-0014687Y-0014627D02*
X-0014512D01*
X-0014687Y-0014714D02*
Y-0014583D01*
X-0014621Y-0014452D01*
X-0014578D01*
X-0014512Y-0014583D01*
Y-0014714D01*
X-0014305Y-0014583D02*
X-0014370Y-0014714D01*
X-0014195Y-0014583D02*
X-0014327D01*
X-0014370Y-0014539D01*
Y-0014496D01*
X-0014327Y-0014452D01*
X-0014195D01*
Y-0014714D01*
X-0012679Y-0013063D02*
X-0012723Y-0013107D01*
X-0012810D01*
X-0012854Y-0013063D01*
Y-0013020D01*
X-0012767Y-0012932D01*
X-0012854Y-0012845D01*
X-0012679D01*
X-0012515Y-0012976D02*
X-0012384D01*
X-0012362Y-0012932D01*
Y-0012888D01*
X-0012384Y-0012845D01*
X-0012515D01*
X-0012537Y-0012888D01*
Y-0012932D01*
X-0012450Y-0013107D01*
X-0012155Y-0012976D02*
X-0012220Y-0013107D01*
X-0012045Y-0012976D02*
X-0012177D01*
X-0012220Y-0012932D01*
Y-0012888D01*
X-0012177Y-0012845D01*
X-0012045D01*
Y-0013107D01*
X0009197Y-0015455D02*
Y-0015622D01*
X0009253Y-0015649D01*
X0009309D01*
X0009364Y-0015622D01*
Y-0015455D01*
X0009309Y-0015427D01*
X0009253D01*
X0009031Y-0015538D01*
X0009309Y-0015057D02*
X0009364Y-0015113D01*
Y-0015224D01*
X0009309Y-0015279D01*
X0009253D01*
X0009142Y-0015168D01*
X0009031Y-0015279D01*
Y-0015057D01*
X0009309Y-0014909D02*
X0009364Y-0014882D01*
Y-0014715D01*
X0009309Y-0014687D01*
X0009086D01*
X0009031Y-0014715D01*
Y-0014882D01*
X0009086Y-0014909D01*
X-0002765Y-0013001D02*
X-0002988D01*
X-0002876Y-0012890D02*
Y-0013112D01*
X-0002553Y-0011633D02*
X-0002220Y-0011466D01*
Y-0011688D01*
X-0002386Y-0012030D02*
Y-0011864D01*
X-0002442Y-0011836D01*
X-0002498D01*
X-0002553Y-0011864D01*
Y-0012030D01*
X-0002498Y-0012058D01*
X-0002442D01*
X-0002220Y-0011947D01*
X-0002498Y-0012206D02*
X-0002553Y-0012234D01*
Y-0012400D01*
X-0002498Y-0012428D01*
X-0002275D01*
X-0002220Y-0012400D01*
Y-0012234D01*
X-0002275Y-0012206D01*
X-0016471Y-0001940D02*
X-0016305D01*
X-0016277Y-0001884D01*
Y-0001829D01*
X-0016305Y-0001773D01*
X-0016471D01*
X-0016499Y-0001829D01*
Y-0001884D01*
X-0016388Y-0002107D01*
X-0015935Y-0001995D02*
Y-0002051D01*
X-0015962Y-0002107D01*
X-0016074D01*
X-0016101Y-0002051D01*
Y-0001773D01*
X-0016129D02*
X-0016018D01*
X-0016228Y0004080D02*
X-0016394Y0004414D01*
X-0016172D01*
X-0015802Y0004136D02*
X-0015830Y0004080D01*
X-0015997D01*
X-0016024Y0004136D01*
Y0004247D01*
X-0015969Y0004303D01*
X-0015802D01*
Y0004414D01*
X-0016024D01*
X-0015571Y0004247D02*
X-0015654Y0004080D01*
X-0015432Y0004247D02*
X-0015599D01*
X-0015654Y0004303D01*
Y0004358D01*
X-0015599Y0004414D01*
X-0015432D01*
Y0004080D01*
X-0005770Y-0013599D02*
X-0005547D01*
X-0005770Y-0013377D01*
Y-0013321D01*
X-0005742Y-0013266D01*
X-0005575D01*
X-0005547Y-0013321D01*
X-0005400Y-0013488D02*
X-0005177D01*
X-0005400Y-0013599D02*
Y-0013433D01*
X-0005316Y-0013266D01*
X-0005261D01*
X-0005177Y-0013433D01*
Y-0013599D01*
X-0005030D02*
X-0004835D01*
Y-0013266D01*
X-0016186Y0005046D02*
X-0016214Y0004990D01*
X-0016381D01*
X-0016408Y0005046D01*
Y0005157D01*
X-0016353Y0005213D01*
X-0016186D01*
Y0005324D01*
X-0016408D01*
X-0015816Y0005046D02*
X-0015844Y0004990D01*
X-0016011D01*
X-0016038Y0005046D01*
Y0005157D01*
X-0015983Y0005213D01*
X-0015816D01*
Y0005324D01*
X-0016038D01*
X-0015585Y0005157D02*
X-0015668Y0004990D01*
X-0015446Y0005157D02*
X-0015613D01*
X-0015668Y0005213D01*
Y0005268D01*
X-0015613Y0005324D01*
X-0015446D01*
Y0004990D01*
X-0015745Y-0003979D02*
X-0015689Y-0003923D01*
X-0015661Y-0003867D01*
Y-0003756D01*
X-0015689Y-0003701D01*
X-0015745Y-0003645D01*
X-0015800D01*
X-0015856Y-0003701D01*
X-0015884Y-0003756D01*
Y-0003867D01*
X-0015856Y-0003923D01*
X-0015800Y-0003979D01*
X-0015745D01*
X-0015514D02*
X-0015402D01*
X-0015458D02*
Y-0003645D01*
X-0015402Y-0003701D01*
X-0015005Y-0003867D02*
Y-0003923D01*
X-0015032Y-0003979D01*
X-0015144D01*
X-0015171Y-0003923D01*
Y-0003645D01*
X-0015199D02*
X-0015088D01*
X-0013570Y0006403D02*
X-0013737D01*
X-0013764Y0006348D01*
Y0006292D01*
X-0013737Y0006236D01*
X-0013570D01*
X-0013542Y0006292D01*
Y0006348D01*
X-0013653Y0006570D01*
X-0013367Y0006403D02*
X-0013394Y0006459D01*
Y0006514D01*
X-0013367Y0006570D01*
X-0013200D01*
X-0013172Y0006514D01*
Y0006459D01*
X-0013200Y0006403D01*
X-0013367D01*
X-0013394Y0006348D01*
Y0006292D01*
X-0013367Y0006236D01*
X-0013200D01*
X-0013172Y0006292D01*
Y0006348D01*
X-0013200Y0006403D01*
X-0013024Y0006292D02*
X-0012997Y0006236D01*
X-0012830D01*
X-0012802Y0006292D01*
Y0006514D01*
X-0012830Y0006570D01*
X-0012997D01*
X-0013024Y0006514D01*
X-0007993Y0007911D02*
X-0008021Y0007855D01*
X-0008188D01*
X-0008215Y0007911D01*
Y0008022D01*
X-0008160Y0008077D01*
X-0007993D01*
Y0008188D01*
X-0008215D01*
X-0007818Y0008022D02*
X-0007845Y0008077D01*
Y0008133D01*
X-0007818Y0008188D01*
X-0007651D01*
X-0007623Y0008133D01*
Y0008077D01*
X-0007651Y0008022D01*
X-0007818D01*
X-0007845Y0007966D01*
Y0007911D01*
X-0007818Y0007855D01*
X-0007651D01*
X-0007623Y0007911D01*
Y0007966D01*
X-0007651Y0008022D01*
X-0007475Y0007911D02*
X-0007448Y0007855D01*
X-0007281D01*
X-0007253Y0007911D01*
Y0008133D01*
X-0007281Y0008188D01*
X-0007448D01*
X-0007475Y0008133D01*
X-0011840Y-0011087D02*
X-0011618D01*
X-0011840Y-0010865D01*
Y-0010809D01*
X-0011812Y-0010754D01*
X-0011645D01*
X-0011618Y-0010809D01*
X-0011275Y-0010920D02*
X-0011442D01*
X-0011470Y-0010976D01*
Y-0011032D01*
X-0011442Y-0011087D01*
X-0011275D01*
X-0011248Y-0011032D01*
Y-0010976D01*
X-0011359Y-0010754D01*
X-0011017Y-0010920D02*
X-0011100Y-0011087D01*
X-0010878Y-0010920D02*
X-0011044D01*
X-0011100Y-0010865D01*
Y-0010809D01*
X-0011044Y-0010754D01*
X-0010878D01*
Y-0011087D01*
X-0014571Y-0015437D02*
X-0014396D01*
X-0014483Y-0015262D01*
X-0014527D01*
Y-0015524D01*
X-0014254D02*
X-0014079D01*
X-0014254Y-0015349D01*
Y-0015306D01*
X-0014232Y-0015262D01*
X-0014101D01*
X-0014079Y-0015306D01*
X-0013937Y-0015437D02*
X-0013762D01*
X-0013937Y-0015524D02*
Y-0015393D01*
X-0013871Y-0015262D01*
X-0013828D01*
X-0013762Y-0015393D01*
Y-0015524D01*
X-0013555Y-0015393D02*
X-0013620Y-0015524D01*
X-0013445Y-0015393D02*
X-0013577D01*
X-0013620Y-0015349D01*
Y-0015306D01*
X-0013577Y-0015262D01*
X-0013445D01*
Y-0015524D01*
X-0019797Y0000140D02*
X-0019710D01*
X-0019753D02*
Y0000402D01*
X-0019710Y0000358D01*
X-0019524Y0000140D02*
X-0019349D01*
X-0019524Y0000315D01*
Y0000358D01*
X-0019502Y0000402D01*
X-0019371D01*
X-0019349Y0000358D01*
X-0019207Y0000227D02*
X-0019032D01*
X-0019207Y0000140D02*
Y0000271D01*
X-0019141Y0000402D01*
X-0019098D01*
X-0019032Y0000271D01*
Y0000140D01*
X-0018825Y0000271D02*
X-0018890Y0000140D01*
X-0018715Y0000271D02*
X-0018847D01*
X-0018890Y0000315D01*
Y0000358D01*
X-0018847Y0000402D01*
X-0018715D01*
Y0000140D01*
X-0008847Y-0006830D02*
X-0009014D01*
X-0009042Y-0006886D01*
Y-0006942D01*
X-0009014Y-0006997D01*
X-0008847D01*
X-0008820Y-0006942D01*
Y-0006886D01*
X-0008931Y-0006664D01*
X-0008672Y-0006997D02*
Y-0006664D01*
X-0008616Y-0006719D01*
X-0008561Y-0006830D01*
X-0008505Y-0006719D01*
X-0008450Y-0006664D01*
Y-0006997D01*
X-0008302Y-0006942D02*
X-0008274Y-0006997D01*
X-0008107D01*
X-0008080Y-0006942D01*
Y-0006719D01*
X-0008107Y-0006664D01*
X-0008274D01*
X-0008302Y-0006719D01*
X-0014232Y-0006489D02*
X-0014177Y-0006433D01*
X-0014149Y-0006378D01*
Y-0006267D01*
X-0014177Y-0006211D01*
X-0014232Y-0006155D01*
X-0014288D01*
X-0014344Y-0006211D01*
X-0014371Y-0006267D01*
Y-0006378D01*
X-0014344Y-0006433D01*
X-0014288Y-0006489D01*
X-0014232D01*
X-0014001D02*
X-0013890D01*
X-0013946D02*
Y-0006155D01*
X-0013890Y-0006211D01*
X-0013687Y-0006489D02*
Y-0006155D01*
X-0013631Y-0006211D01*
X-0013576Y-0006322D01*
X-0013520Y-0006211D01*
X-0013465Y-0006155D01*
Y-0006489D01*
X-0013317Y-0006433D02*
X-0013289Y-0006489D01*
X-0013122D01*
X-0013095Y-0006433D01*
Y-0006211D01*
X-0013122Y-0006155D01*
X-0013289D01*
X-0013317Y-0006211D01*
X-0011933Y-0005959D02*
X-0011822D01*
X-0011877D02*
Y-0005626D01*
X-0011822Y-0005681D01*
X-0011618Y-0005959D02*
X-0011507D01*
X-0011563D02*
Y-0005626D01*
X-0011507Y-0005681D01*
X-0011304Y-0005959D02*
Y-0005626D01*
X-0011248Y-0005681D01*
X-0011193Y-0005792D01*
X-0011137Y-0005681D01*
X-0011082Y-0005626D01*
Y-0005959D01*
X-0010934Y-0005904D02*
X-0010906Y-0005959D01*
X-0010739D01*
X-0010712Y-0005904D01*
Y-0005681D01*
X-0010739Y-0005626D01*
X-0010906D01*
X-0010934Y-0005681D01*
X-0013358Y-0008922D02*
Y-0008700D01*
X-0013580Y-0008811D01*
Y-0008866D01*
X-0013247D01*
Y-0008552D02*
X-0013580D01*
X-0013525Y-0008496D01*
X-0013413Y-0008441D01*
X-0013525Y-0008385D01*
X-0013580Y-0008330D01*
X-0013247D01*
X-0013302Y-0008182D02*
X-0013247Y-0008154D01*
Y-0007987D01*
X-0013302Y-0007960D01*
X-0013525D01*
X-0013580Y-0007987D01*
Y-0008154D01*
X-0013525Y-0008182D01*
X-0011016Y-0007275D02*
Y-0007362D01*
Y-0007319D02*
X-0010753D01*
X-0010797Y-0007362D01*
X-0010972Y-0007723D02*
X-0011016Y-0007679D01*
Y-0007592D01*
X-0010972Y-0007548D01*
X-0010928D01*
X-0010841Y-0007635D01*
X-0010753Y-0007548D01*
Y-0007723D01*
X-0010972Y-0008040D02*
X-0011016Y-0008018D01*
Y-0007887D01*
X-0010972Y-0007865D01*
X-0010884D01*
X-0010841Y-0007908D01*
Y-0008040D01*
X-0010753D01*
Y-0007865D01*
X-0011016Y-0008313D02*
X-0010753Y-0008182D01*
Y-0008357D01*
X-0011016Y-0008498D02*
Y-0008586D01*
Y-0008542D02*
X-0010753D01*
X-0010797Y-0008586D01*
X-0010972Y-0008771D02*
X-0011016Y-0008793D01*
Y-0008925D01*
X-0010972Y-0008946D01*
X-0010797D01*
X-0010753Y-0008925D01*
Y-0008793D01*
X-0010797Y-0008771D01*
X-0010884Y-0009263D02*
Y-0009132D01*
X-0010841Y-0009088D01*
X-0010797D01*
X-0010753Y-0009132D01*
Y-0009263D01*
X-0011016D01*
Y-0009405D02*
X-0010753D01*
X-0010797Y-0009449D01*
X-0010884Y-0009493D01*
X-0010797Y-0009536D01*
X-0010753Y-0009580D01*
X-0011016D01*
X-0009046Y-0011248D02*
X-0008879D01*
X-0008852Y-0011193D01*
Y-0011137D01*
X-0008879Y-0011082D01*
X-0009046D01*
X-0009074Y-0011137D01*
Y-0011193D01*
X-0008963Y-0011415D01*
X-0008704D02*
Y-0011082D01*
X-0008648Y-0011137D01*
X-0008593Y-0011248D01*
X-0008537Y-0011137D01*
X-0008482Y-0011082D01*
Y-0011415D01*
X-0008334Y-0011360D02*
X-0008306Y-0011415D01*
X-0008139D01*
X-0008112Y-0011360D01*
Y-0011137D01*
X-0008139Y-0011082D01*
X-0008306D01*
X-0008334Y-0011137D01*
X-0007919Y-0012399D02*
X-0008003Y-0012566D01*
X-0007780Y-0012399D02*
X-0007947D01*
X-0008003Y-0012343D01*
Y-0012288D01*
X-0007947Y-0012232D01*
X-0007780D01*
Y-0012566D01*
X-0007438D02*
X-0007410Y-0012510D01*
Y-0012288D01*
X-0007438Y-0012232D01*
X-0007605D01*
X-0007633Y-0012288D01*
Y-0012510D01*
X-0007605Y-0012566D01*
X-0007438D01*
X-0007151D02*
Y-0012232D01*
X-0007263D02*
X-0007040D01*
X-0006698Y-0012566D02*
X-0006670Y-0012510D01*
Y-0012288D01*
X-0006698Y-0012232D01*
X-0006865D01*
X-0006893Y-0012288D01*
Y-0012510D01*
X-0006865Y-0012566D01*
X-0006698D01*
X-0006523D02*
Y-0012232D01*
X-0006467Y-0012288D01*
X-0006411Y-0012399D01*
X-0006356Y-0012288D01*
X-0006300Y-0012232D01*
Y-0012566D01*
X-0019711Y-0000666D02*
X-0019668Y-0000623D01*
X-0019646Y-0000579D01*
Y-0000491D01*
X-0019668Y-0000448D01*
X-0019711Y-0000404D01*
X-0019755D01*
X-0019799Y-0000448D01*
X-0019821Y-0000491D01*
Y-0000579D01*
X-0019799Y-0000623D01*
X-0019755Y-0000666D01*
X-0019711D01*
X-0019504D02*
X-0019329D01*
X-0019504Y-0000491D01*
Y-0000448D01*
X-0019482Y-0000404D01*
X-0019351D01*
X-0019329Y-0000448D01*
X-0019187Y-0000579D02*
X-0019012D01*
X-0019187Y-0000666D02*
Y-0000535D01*
X-0019121Y-0000404D01*
X-0019078D01*
X-0019012Y-0000535D01*
Y-0000666D01*
X-0018805Y-0000535D02*
X-0018870Y-0000666D01*
X-0018695Y-0000535D02*
X-0018827D01*
X-0018870Y-0000491D01*
Y-0000448D01*
X-0018827Y-0000404D01*
X-0018695D01*
Y-0000666D01*
X-0017182Y0006594D02*
X-0017007D01*
X-0017182Y0006769D01*
Y0006812D01*
X-0017160Y0006856D01*
X-0017029D01*
X-0017007Y0006812D01*
X-0016843Y0006725D02*
X-0016712D01*
X-0016690Y0006769D01*
Y0006812D01*
X-0016712Y0006856D01*
X-0016843D01*
X-0016865Y0006812D01*
Y0006769D01*
X-0016778Y0006594D01*
X-0016483Y0006725D02*
X-0016548Y0006594D01*
X-0016373Y0006725D02*
X-0016505D01*
X-0016548Y0006769D01*
Y0006812D01*
X-0016505Y0006856D01*
X-0016373D01*
Y0006594D01*
X-0000909Y0012093D02*
Y0011870D01*
X-0001020Y0011981D02*
X-0000798D01*
X-0000590Y0010460D02*
X-0000645Y0010405D01*
X-0000756D01*
X-0000812Y0010460D01*
Y0010516D01*
X-0000701Y0010627D01*
X-0000812Y0010738D01*
X-0000590D01*
X-0000247Y0010571D02*
X-0000414D01*
X-0000442Y0010516D01*
Y0010460D01*
X-0000414Y0010405D01*
X-0000247D01*
X-0000220Y0010460D01*
Y0010516D01*
X-0000331Y0010738D01*
X-0000072Y0010460D02*
X-0000044Y0010405D01*
X0000122D01*
X0000150Y0010460D01*
Y0010683D01*
X0000122Y0010738D01*
X-0000044D01*
X-0000072Y0010683D01*
X-0019595Y0003274D02*
X-0019810Y0003332D01*
X-0019760Y0003088D01*
X-0019706Y0003074D01*
X-0019620Y0003396D01*
X-0019924Y0003477D02*
X-0020031Y0003506D01*
X-0019977Y0003492D02*
X-0020064Y0003170D01*
X-0020103Y0003238D01*
X-0020351Y0003419D02*
X-0020227Y0003559D01*
X-0020485Y0003455D02*
X-0020324Y0003412D01*
X-0020285Y0003344D01*
X-0020299Y0003290D01*
X-0020367Y0003251D01*
X-0020528Y0003294D01*
X-0020442Y0003616D01*
X0015764Y0009951D02*
X0015702Y0009948D01*
X0015618Y0010092D01*
X0015653Y0010144D01*
X0015749Y0010199D01*
X0015825Y0010179D01*
X0015908Y0010035D01*
X0016004Y0010090D01*
X0015893Y0010283D01*
X0016031Y0009710D02*
X0015948Y0009855D01*
X0015886Y0009851D01*
X0015838Y0009823D01*
X0015803Y0009771D01*
X0015887Y0009627D01*
X0015949Y0009631D01*
X0015997Y0009659D01*
X0016134Y0009866D01*
X0016160Y0009486D02*
X0015974Y0009475D01*
X0016230Y0009366D02*
X0016146Y0009510D01*
X0016167Y0009586D01*
X0016215Y0009614D01*
X0016291Y0009594D01*
X0016374Y0009449D01*
X0016085Y0009283D01*
X-0019199Y-0006092D02*
X-0019257Y-0005878D01*
X-0019443Y-0006042D01*
X-0019428Y-0006096D01*
X-0019106Y-0006010D01*
X-0019299Y-0005506D02*
X-0019231Y-0005545D01*
X-0019202Y-0005652D01*
X-0019241Y-0005720D01*
X-0019295Y-0005735D01*
X-0019431Y-0005656D01*
X-0019510Y-0005792D01*
X-0019567Y-0005578D01*
X-0019466Y-0005311D02*
X-0019283Y-0005349D01*
X-0019502Y-0005177D02*
X-0019459Y-0005338D01*
X-0019498Y-0005406D01*
X-0019552Y-0005421D01*
X-0019620Y-0005381D01*
X-0019663Y-0005220D01*
X-0019341Y-0005134D01*
X-0013450Y-0012535D02*
X-0013578Y-0012643D01*
X-0013563Y-0012703D01*
X-0013527Y-0012746D01*
X-0013470Y-0012770D01*
X-0013343Y-0012663D01*
X-0013357Y-0012603D01*
X-0013393Y-0012560D01*
X-0013621Y-0012461D01*
X-0013819Y-0012628D02*
X-0013989Y-0012771D01*
X-0013676Y-0012798D01*
X-0013641Y-0012840D01*
X-0013626Y-0012901D01*
X-0013754Y-0013008D01*
X-0013811Y-0012983D01*
X-0014059Y-0013047D02*
X-0014103Y-0012865D01*
X-0014166Y-0013136D02*
X-0014038Y-0013029D01*
X-0013960Y-0013036D01*
X-0013924Y-0013078D01*
X-0013931Y-0013156D01*
X-0014059Y-0013264D01*
X-0014273Y-0013008D01*
X-0002118Y0012742D02*
X-0002284Y0013076D01*
X-0002062D01*
X-0001887Y0012909D02*
X-0001914Y0012965D01*
Y0013020D01*
X-0001887Y0013076D01*
X-0001720D01*
X-0001692Y0013020D01*
Y0012965D01*
X-0001720Y0012909D01*
X-0001887D01*
X-0001914Y0012854D01*
Y0012798D01*
X-0001887Y0012742D01*
X-0001720D01*
X-0001692Y0012798D01*
Y0012854D01*
X-0001720Y0012909D01*
X-0001544Y0012798D02*
X-0001517Y0012742D01*
X-0001350D01*
X-0001322Y0012798D01*
Y0013020D01*
X-0001350Y0013076D01*
X-0001517D01*
X-0001544Y0013020D01*
X-0014134Y-0016303D02*
X-0014178Y-0016346D01*
X-0014265D01*
X-0014309Y-0016303D01*
Y-0016259D01*
X-0014221Y-0016171D01*
X-0014309Y-0016084D01*
X-0014134D01*
X-0013992Y-0016346D02*
X-0013817D01*
X-0013992Y-0016171D01*
Y-0016128D01*
X-0013970Y-0016084D01*
X-0013839D01*
X-0013817Y-0016128D01*
X-0013675Y-0016259D02*
X-0013500D01*
X-0013675Y-0016346D02*
Y-0016215D01*
X-0013609Y-0016084D01*
X-0013566D01*
X-0013500Y-0016215D01*
Y-0016346D01*
X-0013293Y-0016215D02*
X-0013358Y-0016346D01*
X-0013183Y-0016215D02*
X-0013315D01*
X-0013358Y-0016171D01*
Y-0016128D01*
X-0013315Y-0016084D01*
X-0013183D01*
Y-0016346D01*
X-0017317Y0011314D02*
X-0017147Y0011171D01*
X-0017175Y0011484D01*
X-0017139Y0011526D01*
X-0017082Y0011551D01*
X-0016954Y0011444D01*
X-0016969Y0011384D01*
X-0017034Y0011076D02*
X-0016949Y0011004D01*
X-0016991Y0011040D02*
X-0016777Y0011295D01*
X-0016770Y0011217D01*
X-0016622Y0010948D02*
X-0016793Y0010874D01*
X-0016516Y0010858D02*
X-0016644Y0010966D01*
X-0016650Y0011044D01*
X-0016615Y0011086D01*
X-0016536Y0011093D01*
X-0016409Y0010986D01*
X-0016623Y0010731D01*
X0014013Y0004531D02*
X0014041Y0004475D01*
X0014208D01*
X0014236Y0004531D01*
Y0004753D01*
X0014208Y0004808D01*
X0014041D01*
X0014013Y0004753D01*
X0014383Y0004531D02*
X0014411Y0004475D01*
X0014578D01*
X0014606Y0004531D01*
Y0004753D01*
X0014578Y0004808D01*
X0014411D01*
X0014383Y0004753D01*
X0014753Y0004586D02*
X0014976D01*
X0014753Y0004475D02*
Y0004642D01*
X0014837Y0004808D01*
X0014892D01*
X0014976Y0004642D01*
Y0004475D01*
X0015123D02*
X0015318D01*
Y0004808D01*
X0006275Y-0014850D02*
Y-0014961D01*
Y-0014905D02*
X0006609D01*
X0006553Y-0014961D01*
X0006387Y-0015164D02*
Y-0015387D01*
X0006275Y-0015164D02*
X0006442D01*
X0006609Y-0015248D01*
Y-0015303D01*
X0006442Y-0015387D01*
X0006275D01*
Y-0015534D02*
Y-0015729D01*
X0006609D01*
X0012642Y0004469D02*
X0012865D01*
X0012642Y0004691D01*
Y0004747D01*
X0012670Y0004802D01*
X0012837D01*
X0012865Y0004747D01*
X0013012Y0004580D02*
X0013235D01*
X0013124Y0004802D01*
X0013068D01*
Y0004469D01*
X0013466Y0004636D02*
X0013382Y0004469D01*
X0013605Y0004636D02*
X0013438D01*
X0013382Y0004691D01*
Y0004747D01*
X0013438Y0004802D01*
X0013605D01*
Y0004469D01*
X-0019583Y0004839D02*
X-0019626Y0004678D01*
X-0019580Y0004637D01*
X-0019526Y0004623D01*
X-0019465Y0004635D01*
X-0019422Y0004796D01*
X-0019469Y0004837D01*
X-0019522Y0004852D01*
X-0019766Y0004802D01*
X-0019377Y0004966D02*
X-0019348Y0005073D01*
X-0019362Y0005019D02*
X-0019684Y0005106D01*
X-0019616Y0005145D01*
X-0019435Y0005393D02*
X-0019295Y0005269D01*
X-0019399Y0005527D02*
X-0019442Y0005366D01*
X-0019510Y0005327D01*
X-0019564Y0005341D01*
X-0019603Y0005409D01*
X-0019560Y0005570D01*
X-0019238Y0005484D01*
X0000551Y-0011064D02*
X0000218Y-0011231D01*
Y-0011009D01*
X0000551Y-0010722D02*
X0000496Y-0010666D01*
X0000440Y-0010639D01*
X0000329D01*
X0000274Y-0010666D01*
X0000218Y-0010722D01*
Y-0010778D01*
X0000274Y-0010833D01*
X0000329Y-0010861D01*
X0000440D01*
X0000496Y-0010833D01*
X0000551Y-0010778D01*
Y-0010722D01*
Y-0010491D02*
Y-0010380D01*
Y-0010435D02*
X0000218D01*
X0000274Y-0010380D01*
X0000496Y-0010176D02*
X0000551Y-0010149D01*
Y-0009982D01*
X0000496Y-0009954D01*
X0000274D01*
X0000218Y-0009982D01*
Y-0010149D01*
X0000274Y-0010176D01*
X-0015169Y-0013008D02*
X-0015240Y-0012923D01*
X-0015205Y-0012965D02*
X-0015460Y-0013179D01*
X-0015453Y-0013101D01*
X-0015557Y-0012632D02*
X-0015478Y-0012639D01*
X-0015407Y-0012724D01*
X-0015414Y-0012803D01*
X-0015456Y-0012838D01*
X-0015613Y-0012825D01*
X-0015627Y-0012981D01*
X-0015769Y-0012811D01*
X-0015790Y-0012527D02*
X-0015609Y-0012483D01*
X-0015879Y-0012420D02*
X-0015772Y-0012548D01*
X-0015779Y-0012626D01*
X-0015822Y-0012662D01*
X-0015900Y-0012655D01*
X-0016007Y-0012527D01*
X-0015752Y-0012313D01*
X0008007Y-0014343D02*
X0008118D01*
X0008063D02*
Y-0014010D01*
X0008118Y-0014066D01*
X0008321Y-0014232D02*
X0008544D01*
X0008321Y-0014343D02*
Y-0014177D01*
X0008405Y-0014010D01*
X0008460D01*
X0008544Y-0014177D01*
Y-0014343D01*
X0008691Y-0014288D02*
X0008719Y-0014343D01*
X0008886D01*
X0008914Y-0014288D01*
Y-0014066D01*
X0008886Y-0014010D01*
X0008719D01*
X0008691Y-0014066D01*
X-0019795Y0001047D02*
X-0019664D01*
X-0019642Y0001091D01*
Y0001134D01*
X-0019664Y0001178D01*
X-0019795D01*
X-0019817Y0001134D01*
Y0001091D01*
X-0019730Y0000916D01*
X-0019500D02*
X-0019413D01*
X-0019456D02*
Y0001178D01*
X-0019413Y0001134D01*
X-0019227Y0001003D02*
X-0019052D01*
X-0019227Y0000916D02*
Y0001047D01*
X-0019161Y0001178D01*
X-0019118D01*
X-0019052Y0001047D01*
Y0000916D01*
X-0018845Y0001047D02*
X-0018910Y0000916D01*
X-0018735Y0001047D02*
X-0018867D01*
X-0018910Y0001091D01*
Y0001134D01*
X-0018867Y0001178D01*
X-0018735D01*
Y0000916D01*
X0007863Y-0016696D02*
X0008085D01*
X0007863Y-0016474D01*
Y-0016418D01*
X0007890Y-0016363D01*
X0008057D01*
X0008085Y-0016418D01*
X0008233Y-0016585D02*
X0008455D01*
X0008233Y-0016696D02*
Y-0016530D01*
X0008316Y-0016363D01*
X0008372D01*
X0008455Y-0016530D01*
Y-0016696D01*
X0008603Y-0016641D02*
X0008630Y-0016696D01*
X0008797D01*
X0008825Y-0016641D01*
Y-0016418D01*
X0008797Y-0016363D01*
X0008630D01*
X0008603Y-0016418D01*
X-0007831Y0004117D02*
Y0004340D01*
X-0008053Y0004117D01*
X-0008109D01*
X-0008164Y0004145D01*
Y0004312D01*
X-0008109Y0004340D01*
X-0007831Y0004543D02*
Y0004487D01*
X-0007887D01*
Y0004543D01*
X-0007831D01*
Y0004746D02*
Y0004857D01*
Y0004802D02*
X-0008164D01*
X-0008109Y0004857D01*
X-0007998Y0005061D02*
Y0005283D01*
X-0007831Y0005431D02*
Y0005653D01*
X-0008053Y0005431D01*
X-0008109D01*
X-0008164Y0005459D01*
Y0005625D01*
X-0008109Y0005653D01*
X-0007831Y0005801D02*
Y0005912D01*
Y0005856D02*
X-0008164D01*
X-0008109Y0005912D01*
X-0007831Y0006115D02*
Y0006226D01*
Y0006171D02*
X-0008164D01*
X-0008109Y0006226D01*
X-0007831Y0006430D02*
Y0006541D01*
Y0006485D02*
X-0008164D01*
X-0008109Y0006541D01*
X-0007831Y0006855D02*
X-0008164D01*
Y0006744D02*
Y0006966D01*
X-0007831Y0007114D02*
Y0007308D01*
X-0008164D01*
X-0014168Y0000512D02*
X-0014112Y0000568D01*
X-0014084Y0000623D01*
Y0000735D01*
X-0014112Y0000790D01*
X-0014168Y0000846D01*
X-0014223D01*
X-0014279Y0000790D01*
X-0014306Y0000735D01*
Y0000623D01*
X-0014279Y0000568D01*
X-0014223Y0000512D01*
X-0014168D01*
X-0013909Y0000679D02*
X-0013936Y0000735D01*
Y0000790D01*
X-0013909Y0000846D01*
X-0013742D01*
X-0013714Y0000790D01*
Y0000735D01*
X-0013742Y0000679D01*
X-0013909D01*
X-0013936Y0000623D01*
Y0000568D01*
X-0013909Y0000512D01*
X-0013742D01*
X-0013714Y0000568D01*
Y0000623D01*
X-0013742Y0000679D01*
X-0013566Y0000568D02*
X-0013539Y0000512D01*
X-0013372D01*
X-0013344Y0000568D01*
Y0000790D01*
X-0013372Y0000846D01*
X-0013539D01*
X-0013566Y0000790D01*
X-0012708Y-0002252D02*
Y-0002475D01*
X-0012486Y-0002252D01*
X-0012431D01*
X-0012375Y-0002280D01*
Y-0002447D01*
X-0012431Y-0002475D01*
X-0012542Y-0002650D02*
Y-0002817D01*
X-0012486Y-0002845D01*
X-0012431D01*
X-0012375Y-0002817D01*
Y-0002650D01*
X-0012431Y-0002622D01*
X-0012486D01*
X-0012708Y-0002734D01*
X-0012653Y-0002992D02*
X-0012708Y-0003020D01*
Y-0003187D01*
X-0012653Y-0003215D01*
X-0012431D01*
X-0012375Y-0003187D01*
Y-0003020D01*
X-0012431Y-0002992D01*
X-0013310Y-0000222D02*
X-0013199D01*
X-0013254D02*
Y0000111D01*
X-0013199Y0000056D01*
X-0012967Y-0000055D02*
X-0012995Y0000000D01*
Y0000056D01*
X-0012967Y0000111D01*
X-0012801D01*
X-0012773Y0000056D01*
Y0000000D01*
X-0012801Y-0000055D01*
X-0012967D01*
X-0012995Y-0000111D01*
Y-0000166D01*
X-0012967Y-0000222D01*
X-0012801D01*
X-0012773Y-0000166D01*
Y-0000111D01*
X-0012801Y-0000055D01*
X-0012625Y-0000166D02*
X-0012597Y-0000222D01*
X-0012431D01*
X-0012403Y-0000166D01*
Y0000056D01*
X-0012431Y0000111D01*
X-0012597D01*
X-0012625Y0000056D01*
X-0010470Y-0002494D02*
X-0010525Y-0002439D01*
Y-0002328D01*
X-0010470Y-0002272D01*
X-0010414D01*
X-0010303Y-0002383D01*
X-0010192Y-0002272D01*
Y-0002494D01*
X-0010359Y-0002670D02*
Y-0002837D01*
X-0010303Y-0002864D01*
X-0010248D01*
X-0010192Y-0002837D01*
Y-0002670D01*
X-0010248Y-0002642D01*
X-0010303D01*
X-0010525Y-0002753D01*
X-0010470Y-0003012D02*
X-0010525Y-0003040D01*
Y-0003207D01*
X-0010470Y-0003234D01*
X-0010248D01*
X-0010192Y-0003207D01*
Y-0003040D01*
X-0010248Y-0003012D01*
X-0014557Y-0000898D02*
X-0014335D01*
X-0014557Y-0000676D01*
Y-0000621D01*
X-0014530Y-0000565D01*
X-0014363D01*
X-0014335Y-0000621D01*
X-0014021Y-0000898D02*
X-0014187Y-0000565D01*
X-0013965D01*
X-0013817Y-0000843D02*
X-0013790Y-0000898D01*
X-0013623D01*
X-0013595Y-0000843D01*
Y-0000621D01*
X-0013623Y-0000565D01*
X-0013790D01*
X-0013817Y-0000621D01*
X-0011455Y-0000259D02*
X-0011233D01*
X-0011455Y-0000037D01*
Y0000018D01*
X-0011427Y0000074D01*
X-0011261D01*
X-0011233Y0000018D01*
X-0011057Y-0000093D02*
X-0011085Y-0000037D01*
Y0000018D01*
X-0011057Y0000074D01*
X-0010891D01*
X-0010863Y0000018D01*
Y-0000037D01*
X-0010891Y-0000093D01*
X-0011057D01*
X-0011085Y-0000148D01*
Y-0000204D01*
X-0011057Y-0000259D01*
X-0010891D01*
X-0010863Y-0000204D01*
Y-0000148D01*
X-0010891Y-0000093D01*
X-0010715Y-0000204D02*
X-0010687Y-0000259D01*
X-0010521D01*
X-0010493Y-0000204D01*
Y0000018D01*
X-0010521Y0000074D01*
X-0010687D01*
X-0010715Y0000018D01*
X-0012040Y0002395D02*
Y0002229D01*
X-0011985Y0002201D01*
X-0011929D01*
X-0011873Y0002229D01*
Y0002395D01*
X-0011929Y0002423D01*
X-0011985D01*
X-0012207Y0002312D01*
X-0012040Y0002025D02*
Y0001859D01*
X-0011985Y0001831D01*
X-0011929D01*
X-0011873Y0001859D01*
Y0002025D01*
X-0011929Y0002053D01*
X-0011985D01*
X-0012207Y0001942D01*
X-0012151Y0001683D02*
X-0012207Y0001655D01*
Y0001489D01*
X-0012151Y0001461D01*
X-0011929D01*
X-0011873Y0001489D01*
Y0001655D01*
X-0011929Y0001683D01*
X-0015846Y0002241D02*
X-0015623D01*
X-0015734Y0002463D01*
X-0015790D01*
Y0002130D01*
X-0015448Y0002297D02*
X-0015281D01*
X-0015253Y0002352D01*
Y0002408D01*
X-0015281Y0002463D01*
X-0015448D01*
X-0015476Y0002408D01*
Y0002352D01*
X-0015364Y0002130D01*
X-0015106Y0002186D02*
X-0015078Y0002130D01*
X-0014911D01*
X-0014883Y0002186D01*
Y0002408D01*
X-0014911Y0002463D01*
X-0015078D01*
X-0015106Y0002408D01*
X-0014381Y0001912D02*
X-0014325Y0001884D01*
Y0001717D01*
X-0014381Y0001690D01*
X-0014492D01*
X-0014548Y0001745D01*
Y0001912D01*
X-0014659D01*
Y0001690D01*
X-0014325Y0002226D02*
X-0014659Y0002060D01*
Y0002282D01*
X-0014381Y0002430D02*
X-0014325Y0002457D01*
Y0002624D01*
X-0014381Y0002652D01*
X-0014603D01*
X-0014659Y0002624D01*
Y0002457D01*
X-0014603Y0002430D01*
X-0015538Y-0000472D02*
X-0015566Y-0000527D01*
X-0015732D01*
X-0015760Y-0000472D01*
Y-0000361D01*
X-0015705Y-0000305D01*
X-0015538D01*
Y-0000194D01*
X-0015760D01*
X-0015362Y-0000361D02*
X-0015196D01*
X-0015168Y-0000305D01*
Y-0000250D01*
X-0015196Y-0000194D01*
X-0015362D01*
X-0015390Y-0000250D01*
Y-0000305D01*
X-0015279Y-0000527D01*
X-0015020Y-0000472D02*
X-0014992Y-0000527D01*
X-0014826D01*
X-0014798Y-0000472D01*
Y-0000250D01*
X-0014826Y-0000194D01*
X-0014992D01*
X-0015020Y-0000250D01*
X-0009530Y-0000309D02*
X-0009697D01*
X-0009724Y-0000365D01*
Y-0000420D01*
X-0009697Y-0000476D01*
X-0009530D01*
X-0009502Y-0000420D01*
Y-0000365D01*
X-0009613Y-0000142D01*
X-0009327Y-0000309D02*
X-0009160D01*
X-0009132Y-0000254D01*
Y-0000198D01*
X-0009160Y-0000142D01*
X-0009327D01*
X-0009354Y-0000198D01*
Y-0000254D01*
X-0009243Y-0000476D01*
X-0008984Y-0000420D02*
X-0008957Y-0000476D01*
X-0008790D01*
X-0008762Y-0000420D01*
Y-0000198D01*
X-0008790Y-0000142D01*
X-0008957D01*
X-0008984Y-0000198D01*
X-0009695Y0002120D02*
X-0009862Y0002453D01*
X-0009640D01*
X-0009464Y0002287D02*
X-0009298D01*
X-0009270Y0002342D01*
Y0002398D01*
X-0009298Y0002453D01*
X-0009464D01*
X-0009492Y0002398D01*
Y0002342D01*
X-0009381Y0002120D01*
X-0009122Y0002176D02*
X-0009094Y0002120D01*
X-0008928D01*
X-0008900Y0002176D01*
Y0002398D01*
X-0008928Y0002453D01*
X-0009094D01*
X-0009122Y0002398D01*
X0000711Y0006642D02*
X0000683Y0006698D01*
Y0006754D01*
X0000711Y0006809D01*
X0000878D01*
X0000906Y0006754D01*
Y0006698D01*
X0000878Y0006642D01*
X0000711D01*
X0000683Y0006587D01*
Y0006531D01*
X0000711Y0006476D01*
X0000878D01*
X0000906Y0006531D01*
Y0006587D01*
X0000878Y0006642D01*
X0001053Y0006476D02*
X0001276D01*
X0001053Y0006698D01*
Y0006754D01*
X0001081Y0006809D01*
X0001248D01*
X0001276Y0006754D01*
X0001423Y0006531D02*
X0001451Y0006476D01*
X0001618D01*
X0001646Y0006531D01*
Y0006754D01*
X0001618Y0006809D01*
X0001451D01*
X0001423Y0006754D01*
X0002449Y-0006136D02*
X0002393Y-0006191D01*
X0002282D01*
X0002227Y-0006136D01*
Y-0006080D01*
X0002338Y-0005969D01*
X0002227Y-0005858D01*
X0002449D01*
X0002597Y-0006136D02*
X0002624Y-0006191D01*
X0002791D01*
X0002819Y-0006136D01*
Y-0005913D01*
X0002791Y-0005858D01*
X0002624D01*
X0002597Y-0005913D01*
X-0006035Y0007087D02*
X-0006091Y0007114D01*
Y0007281D01*
X-0006035Y0007309D01*
X-0005924D01*
X-0005868Y0007253D01*
Y0007087D01*
X-0005757D01*
Y0007309D01*
X-0006091Y0006939D02*
Y0006828D01*
Y0006883D02*
X-0005757D01*
X-0005813Y0006828D01*
X-0006035Y0006624D02*
X-0006091Y0006597D01*
Y0006430D01*
X-0006035Y0006402D01*
X-0005813D01*
X-0005757Y0006430D01*
Y0006597D01*
X-0005813Y0006624D01*
X0003359Y-0001883D02*
Y-0001716D01*
X0003303Y-0001689D01*
X0003248D01*
X0003192Y-0001716D01*
Y-0001883D01*
X0003248Y-0001911D01*
X0003303D01*
X0003525Y-0001800D01*
X0003192Y-0002059D02*
Y-0002170D01*
Y-0002114D02*
X0003525D01*
X0003470Y-0002170D01*
X0003248Y-0002373D02*
X0003192Y-0002401D01*
Y-0002567D01*
X0003248Y-0002595D01*
X0003470D01*
X0003525Y-0002567D01*
Y-0002401D01*
X0003470Y-0002373D01*
X-0003603Y0007414D02*
Y0007191D01*
X-0003381Y0007414D01*
X-0003325D01*
X-0003269Y0007386D01*
Y0007219D01*
X-0003325Y0007191D01*
X-0003603Y0007044D02*
Y0006821D01*
X-0003381Y0007044D01*
X-0003325D01*
X-0003269Y0007016D01*
Y0006849D01*
X-0003325Y0006821D01*
X-0003547Y0006674D02*
X-0003603Y0006646D01*
Y0006479D01*
X-0003547Y0006451D01*
X-0003325D01*
X-0003269Y0006479D01*
Y0006646D01*
X-0003325Y0006674D01*
X0003035Y-0009637D02*
X0003201D01*
X0003229Y-0009581D01*
Y-0009525D01*
X0003201Y-0009470D01*
X0003035D01*
X0003007Y-0009525D01*
Y-0009581D01*
X0003118Y-0009803D01*
X0003377D02*
X0003488D01*
X0003432D02*
Y-0009470D01*
X0003488Y-0009525D01*
X0003774Y-0009637D02*
X0003691Y-0009803D01*
X0003913Y-0009637D02*
X0003747D01*
X0003691Y-0009581D01*
Y-0009525D01*
X0003747Y-0009470D01*
X0003913D01*
Y-0009803D01*
X-0002575Y-0005520D02*
X-0002741Y-0005187D01*
X-0002519D01*
X-0002371Y-0005520D02*
X-0002260D01*
X-0002316D02*
Y-0005187D01*
X-0002260Y-0005242D01*
X-0002057Y-0005465D02*
X-0002029Y-0005520D01*
X-0001862D01*
X-0001835Y-0005465D01*
Y-0005242D01*
X-0001862Y-0005187D01*
X-0002029D01*
X-0002057Y-0005242D01*
X-0002555Y-0006113D02*
X-0002444D01*
X-0002500D02*
Y-0005779D01*
X-0002444Y-0005835D01*
X-0002241Y-0006113D02*
X-0002130D01*
X-0002185D02*
Y-0005779D01*
X-0002130Y-0005835D01*
X-0001927Y-0006057D02*
X-0001899Y-0006113D01*
X-0001732D01*
X-0001704Y-0006057D01*
Y-0005835D01*
X-0001732Y-0005779D01*
X-0001899D01*
X-0001927Y-0005835D01*
X0006397Y0010333D02*
X0006452Y0010278D01*
X0006508Y0010250D01*
X0006619D01*
X0006675Y0010278D01*
X0006730Y0010333D01*
Y0010389D01*
X0006675Y0010444D01*
X0006619Y0010472D01*
X0006508D01*
X0006452Y0010444D01*
X0006397Y0010389D01*
Y0010333D01*
Y0009963D02*
X0006452Y0009908D01*
X0006508Y0009880D01*
X0006619D01*
X0006675Y0009908D01*
X0006730Y0009963D01*
Y0010019D01*
X0006675Y0010074D01*
X0006619Y0010102D01*
X0006508D01*
X0006452Y0010074D01*
X0006397Y0010019D01*
Y0009963D01*
X0006452Y0009510D02*
X0006397Y0009565D01*
Y0009677D01*
X0006452Y0009732D01*
X0006508D01*
X0006619Y0009621D01*
X0006730Y0009732D01*
Y0009510D01*
X0006452Y0009362D02*
X0006397Y0009334D01*
Y0009168D01*
X0006452Y0009140D01*
X0006675D01*
X0006730Y0009168D01*
Y0009334D01*
X0006675Y0009362D01*
X-0003449Y0004677D02*
X-0003394Y0004732D01*
X-0003366Y0004788D01*
Y0004899D01*
X-0003394Y0004955D01*
X-0003449Y0005010D01*
X-0003505D01*
X-0003560Y0004955D01*
X-0003588Y0004899D01*
Y0004788D01*
X-0003560Y0004732D01*
X-0003505Y0004677D01*
X-0003449D01*
X-0003079D02*
X-0003024Y0004732D01*
X-0002996Y0004788D01*
Y0004899D01*
X-0003024Y0004955D01*
X-0003079Y0005010D01*
X-0003135D01*
X-0003190Y0004955D01*
X-0003218Y0004899D01*
Y0004788D01*
X-0003190Y0004732D01*
X-0003135Y0004677D01*
X-0003079D01*
X-0002848D02*
X-0002737D01*
X-0002793D02*
Y0005010D01*
X-0002737Y0004955D01*
X-0002534Y0004732D02*
X-0002506Y0004677D01*
X-0002339D01*
X-0002312Y0004732D01*
Y0004955D01*
X-0002339Y0005010D01*
X-0002506D01*
X-0002534Y0004955D01*
X-0001813Y-0003049D02*
X-0001591D01*
X-0001702Y-0002827D01*
X-0001758D01*
Y-0003160D01*
X-0001304D02*
X-0001249Y-0003105D01*
X-0001221Y-0003049D01*
Y-0002938D01*
X-0001249Y-0002882D01*
X-0001304Y-0002827D01*
X-0001360D01*
X-0001415Y-0002882D01*
X-0001443Y-0002938D01*
Y-0003049D01*
X-0001415Y-0003105D01*
X-0001360Y-0003160D01*
X-0001304D01*
X-0001073D02*
X-0000962D01*
X-0001018D02*
Y-0002827D01*
X-0000962Y-0002882D01*
X-0000759Y-0003105D02*
X-0000731Y-0003160D01*
X-0000564D01*
X-0000537Y-0003105D01*
Y-0002882D01*
X-0000564Y-0002827D01*
X-0000731D01*
X-0000759Y-0002882D01*
X-0010924Y0001464D02*
X-0010702D01*
X-0010813Y0001686D01*
X-0010869D01*
Y0001353D01*
X-0010387D02*
X-0010554Y0001686D01*
X-0010332D01*
X-0010184Y0001409D02*
X-0010156Y0001353D01*
X-0009990D01*
X-0009962Y0001409D01*
Y0001631D01*
X-0009990Y0001686D01*
X-0010156D01*
X-0010184Y0001631D01*
X-0002197Y0007521D02*
Y0007299D01*
X-0001975Y0007521D01*
X-0001919D01*
X-0001864Y0007493D01*
Y0007327D01*
X-0001919Y0007299D01*
X-0002197Y0007012D02*
X-0002141Y0006957D01*
X-0002086Y0006929D01*
X-0001975D01*
X-0001919Y0006957D01*
X-0001864Y0007012D01*
Y0007068D01*
X-0001919Y0007123D01*
X-0001975Y0007151D01*
X-0002086D01*
X-0002141Y0007123D01*
X-0002197Y0007068D01*
Y0007012D01*
Y0006781D02*
Y0006670D01*
Y0006726D02*
X-0001864D01*
X-0001919Y0006670D01*
X-0002141Y0006467D02*
X-0002197Y0006439D01*
Y0006272D01*
X-0002141Y0006245D01*
X-0001919D01*
X-0001864Y0006272D01*
Y0006439D01*
X-0001919Y0006467D01*
X-0012122Y0000170D02*
X-0012177Y0000226D01*
Y0000337D01*
X-0012122Y0000393D01*
X-0012066D01*
X-0011955Y0000281D01*
X-0011844Y0000393D01*
Y0000170D01*
X-0012177Y-0000144D02*
X-0011844Y0000023D01*
Y-0000200D01*
X-0012122Y-0000347D02*
X-0012177Y-0000375D01*
Y-0000542D01*
X-0012122Y-0000570D01*
X-0011900D01*
X-0011844Y-0000542D01*
Y-0000375D01*
X-0011900Y-0000347D01*
X-0000548Y-0005990D02*
X-0000381D01*
X-0000353Y-0005935D01*
Y-0005879D01*
X-0000381Y-0005824D01*
X-0000548D01*
X-0000576Y-0005879D01*
Y-0005935D01*
X-0000464Y-0006157D01*
X-0000206Y-0006101D02*
X-0000178Y-0006157D01*
X-0000011D01*
X0000017Y-0006101D01*
Y-0005879D01*
X-0000011Y-0005824D01*
X-0000178D01*
X-0000206Y-0005879D01*
X-0007163Y-0000899D02*
X-0007191Y-0000844D01*
Y-0000788D01*
X-0007163Y-0000732D01*
X-0006996D01*
X-0006969Y-0000788D01*
Y-0000844D01*
X-0006996Y-0000899D01*
X-0007163D01*
X-0007191Y-0000955D01*
Y-0001010D01*
X-0007163Y-0001066D01*
X-0006996D01*
X-0006969Y-0001010D01*
Y-0000955D01*
X-0006996Y-0000899D01*
X-0006821Y-0001066D02*
X-0006710D01*
X-0006765D02*
Y-0000732D01*
X-0006710Y-0000788D01*
X-0006506Y-0001010D02*
X-0006479Y-0001066D01*
X-0006312D01*
X-0006284Y-0001010D01*
Y-0000788D01*
X-0006312Y-0000732D01*
X-0006479D01*
X-0006506Y-0000788D01*
X-0001982Y-0008726D02*
X-0001927Y-0008670D01*
X-0001899Y-0008615D01*
Y-0008504D01*
X-0001927Y-0008448D01*
X-0001982Y-0008392D01*
X-0002038D01*
X-0002093Y-0008448D01*
X-0002121Y-0008504D01*
Y-0008615D01*
X-0002093Y-0008670D01*
X-0002038Y-0008726D01*
X-0001982D01*
X-0001751D02*
X-0001640D01*
X-0001696D02*
Y-0008392D01*
X-0001640Y-0008448D01*
X-0001437Y-0008670D02*
X-0001409Y-0008726D01*
X-0001242D01*
X-0001215Y-0008670D01*
Y-0008448D01*
X-0001242Y-0008392D01*
X-0001409D01*
X-0001437Y-0008448D01*
X-0011428Y0012315D02*
X-0011456Y0012371D01*
Y0012427D01*
X-0011428Y0012482D01*
X-0011261D01*
X-0011234Y0012427D01*
Y0012371D01*
X-0011261Y0012315D01*
X-0011428D01*
X-0011456Y0012260D01*
Y0012204D01*
X-0011428Y0012149D01*
X-0011261D01*
X-0011234Y0012204D01*
Y0012260D01*
X-0011261Y0012315D01*
X-0011030Y0012149D02*
X-0011086D01*
Y0012204D01*
X-0011030D01*
Y0012149D01*
X-0010827D02*
X-0010716D01*
X-0010772D02*
Y0012482D01*
X-0010716Y0012427D01*
X-0010513Y0012315D02*
X-0010290D01*
X-0010143Y0012149D02*
X-0009920D01*
X-0010143Y0012371D01*
Y0012427D01*
X-0010115Y0012482D01*
X-0009948D01*
X-0009920Y0012427D01*
X-0009773Y0012149D02*
X-0009662D01*
X-0009717D02*
Y0012482D01*
X-0009662Y0012427D01*
X-0009458Y0012149D02*
X-0009347D01*
X-0009403D02*
Y0012482D01*
X-0009347Y0012427D01*
X-0009144Y0012149D02*
X-0009033D01*
X-0009088D02*
Y0012482D01*
X-0009033Y0012427D01*
X-0008718Y0012149D02*
Y0012482D01*
X-0008829D02*
X-0008607D01*
X-0008459Y0012149D02*
X-0008265D01*
Y0012482D01*
X0003162Y-0003065D02*
Y-0003176D01*
Y-0003121D02*
X0003496D01*
X0003440Y-0003176D01*
X0003218Y-0003602D02*
X0003162Y-0003546D01*
Y-0003435D01*
X0003218Y-0003380D01*
X0003274D01*
X0003385Y-0003491D01*
X0003496Y-0003380D01*
Y-0003602D01*
X0003218Y-0003750D02*
X0003162Y-0003777D01*
Y-0003944D01*
X0003218Y-0003972D01*
X0003440D01*
X0003496Y-0003944D01*
Y-0003777D01*
X0003440Y-0003750D01*
X-0004905Y-0004099D02*
X-0004849Y-0004043D01*
X-0004821Y-0003988D01*
Y-0003877D01*
X-0004849Y-0003821D01*
X-0004905Y-0003766D01*
X-0004960D01*
X-0005016Y-0003821D01*
X-0005043Y-0003877D01*
Y-0003988D01*
X-0005016Y-0004043D01*
X-0004960Y-0004099D01*
X-0004905D01*
X-0004673D02*
X-0004451D01*
X-0004673Y-0003877D01*
Y-0003821D01*
X-0004646Y-0003766D01*
X-0004479D01*
X-0004451Y-0003821D01*
X-0004303Y-0004043D02*
X-0004276Y-0004099D01*
X-0004109D01*
X-0004081Y-0004043D01*
Y-0003821D01*
X-0004109Y-0003766D01*
X-0004276D01*
X-0004303Y-0003821D01*
X0004588Y0004266D02*
X0004644Y0004210D01*
X0004699Y0004182D01*
X0004811D01*
X0004866Y0004210D01*
X0004922Y0004266D01*
Y0004321D01*
X0004866Y0004377D01*
X0004811Y0004405D01*
X0004699D01*
X0004644Y0004377D01*
X0004588Y0004321D01*
Y0004266D01*
X0004644Y0003812D02*
X0004588Y0003868D01*
Y0003979D01*
X0004644Y0004035D01*
X0004699D01*
X0004811Y0003923D01*
X0004922Y0004035D01*
Y0003812D01*
X0004644Y0003665D02*
X0004588Y0003637D01*
Y0003470D01*
X0004644Y0003442D01*
X0004866D01*
X0004922Y0003470D01*
Y0003637D01*
X0004866Y0003665D01*
X0005470Y-0001350D02*
X0005414Y-0001294D01*
Y-0001183D01*
X0005470Y-0001128D01*
X0005525D01*
X0005637Y-0001239D01*
X0005748Y-0001128D01*
Y-0001350D01*
X0005581Y-0001581D02*
X0005414Y-0001498D01*
X0005581Y-0001720D02*
Y-0001553D01*
X0005637Y-0001498D01*
X0005692D01*
X0005748Y-0001553D01*
Y-0001720D01*
X0005414D01*
X0002368Y0009000D02*
X0002313Y0008945D01*
X0002201D01*
X0002146Y0009000D01*
Y0009056D01*
X0002257Y0009167D01*
X0002146Y0009278D01*
X0002368D01*
X0002516Y0008945D02*
X0002627D01*
X0002571D02*
Y0009278D01*
X0002627Y0009222D01*
X0002830Y0009000D02*
X0002858Y0008945D01*
X0003025D01*
X0003053Y0009000D01*
Y0009222D01*
X0003025Y0009278D01*
X0002858D01*
X0002830Y0009222D01*
X-0006167Y0009636D02*
X-0006056D01*
X-0006111D02*
Y0009970D01*
X-0006056Y0009914D01*
X-0005853Y0009636D02*
X-0005658D01*
Y0009970D01*
X0002756Y-0008785D02*
X0002978D01*
X0002756Y-0008563D01*
Y-0008507D01*
X0002784Y-0008451D01*
X0002950D01*
X0002978Y-0008507D01*
X0003126Y-0008729D02*
X0003154Y-0008785D01*
X0003320D01*
X0003348Y-0008729D01*
Y-0008507D01*
X0003320Y-0008451D01*
X0003154D01*
X0003126Y-0008507D01*
X0005935Y0000507D02*
Y0000341D01*
X0005991Y0000313D01*
X0006046D01*
X0006102Y0000341D01*
Y0000507D01*
X0006046Y0000535D01*
X0005991D01*
X0005768Y0000424D01*
Y0000165D02*
Y-0000057D01*
X0005991Y0000165D01*
X0006046D01*
X0006102Y0000137D01*
Y-0000029D01*
X0006046Y-0000057D01*
X0005824Y-0000205D02*
X0005768Y-0000233D01*
Y-0000399D01*
X0005824Y-0000427D01*
X0006046D01*
X0006102Y-0000399D01*
Y-0000233D01*
X0006046Y-0000205D01*
X0005540Y0008188D02*
X0005374Y0008271D01*
X0005540Y0008049D02*
Y0008215D01*
X0005596Y0008271D01*
X0005652D01*
X0005707Y0008215D01*
Y0008049D01*
X0005374D01*
Y0007706D02*
X0005429Y0007679D01*
X0005652D01*
X0005707Y0007706D01*
Y0007873D01*
X0005652Y0007901D01*
X0005429D01*
X0005374Y0007873D01*
Y0007706D01*
X0005540Y0007309D02*
Y0007475D01*
X0005596Y0007531D01*
X0005652D01*
X0005707Y0007475D01*
Y0007309D01*
X0005374D01*
X-0008151Y0001445D02*
X-0007929D01*
X-0008040Y0001667D01*
X-0008096D01*
Y0001333D01*
X-0007781D02*
X-0007559D01*
X-0007781Y0001556D01*
Y0001611D01*
X-0007753Y0001667D01*
X-0007587D01*
X-0007559Y0001611D01*
X-0007411Y0001389D02*
X-0007383Y0001333D01*
X-0007217D01*
X-0007189Y0001389D01*
Y0001611D01*
X-0007217Y0001667D01*
X-0007383D01*
X-0007411Y0001611D01*
X0004725Y0003059D02*
Y0003226D01*
X0004670Y0003254D01*
X0004614D01*
X0004559Y0003226D01*
Y0003059D01*
X0004614Y0003032D01*
X0004670D01*
X0004892Y0003143D01*
X0004559Y0002745D02*
X0004614Y0002689D01*
X0004670Y0002662D01*
X0004781D01*
X0004837Y0002689D01*
X0004892Y0002745D01*
Y0002801D01*
X0004837Y0002856D01*
X0004781Y0002884D01*
X0004670D01*
X0004614Y0002856D01*
X0004559Y0002801D01*
Y0002745D01*
Y0002514D02*
Y0002403D01*
Y0002458D02*
X0004892D01*
X0004837Y0002403D01*
X0004614Y0002199D02*
X0004559Y0002172D01*
Y0002005D01*
X0004614Y0001977D01*
X0004837D01*
X0004892Y0002005D01*
Y0002172D01*
X0004837Y0002199D01*
X0003049Y-0006191D02*
X0003160D01*
X0003105D02*
Y-0005858D01*
X0003160Y-0005913D01*
X0003447Y-0006025D02*
X0003364Y-0006191D01*
X0003586Y-0006025D02*
X0003419D01*
X0003364Y-0005969D01*
Y-0005913D01*
X0003419Y-0005858D01*
X0003586D01*
Y-0006191D01*
X-0003322Y-0003105D02*
X-0003377Y-0003160D01*
X-0003488D01*
X-0003544Y-0003105D01*
Y-0003049D01*
X-0003433Y-0002938D01*
X-0003544Y-0002827D01*
X-0003322D01*
X-0003035Y-0003160D02*
X-0002979Y-0003105D01*
X-0002952Y-0003049D01*
Y-0002938D01*
X-0002979Y-0002882D01*
X-0003035Y-0002827D01*
X-0003091D01*
X-0003146Y-0002882D01*
X-0003174Y-0002938D01*
Y-0003049D01*
X-0003146Y-0003105D01*
X-0003091Y-0003160D01*
X-0003035D01*
X-0002804D02*
X-0002693D01*
X-0002748D02*
Y-0002827D01*
X-0002693Y-0002882D01*
X-0002489Y-0003105D02*
X-0002462Y-0003160D01*
X-0002295D01*
X-0002267Y-0003105D01*
Y-0002882D01*
X-0002295Y-0002827D01*
X-0002462D01*
X-0002489Y-0002882D01*
X-0016029Y0012533D02*
X-0016022Y0012455D01*
X-0016093Y0012370D01*
X-0016171Y0012363D01*
X-0016214Y0012399D01*
X-0016228Y0012555D01*
X-0016384Y0012541D01*
X-0016241Y0012712D01*
X-0015891Y0012611D02*
X-0015820Y0012696D01*
X-0015855Y0012653D02*
X-0016111Y0012867D01*
X-0016032Y0012874D01*
X-0015763Y0013022D02*
X-0015689Y0012851D01*
X-0015674Y0013129D02*
X-0015781Y0013001D01*
X-0015859Y0012994D01*
X-0015902Y0013030D01*
X-0015909Y0013108D01*
X-0015801Y0013236D01*
X-0015546Y0013022D01*
X0000209Y0001124D02*
Y0000791D01*
X0000153Y0000846D01*
X0000098Y0000957D01*
X0000042Y0000846D01*
X-0000013Y0000791D01*
Y0001124D01*
X-0000161Y0001013D02*
X-0000383D01*
X-0000161Y0001124D02*
Y0000957D01*
X-0000244Y0000791D01*
X-0000300D01*
X-0000383Y0000957D01*
Y0001124D01*
X-0000614Y0000957D02*
X-0000531Y0001124D01*
X-0000753Y0000957D02*
X-0000587D01*
X-0000531Y0000902D01*
Y0000846D01*
X-0000587Y0000791D01*
X-0000753D01*
Y0001124D01*
X-0001096D02*
Y0000791D01*
X-0001123Y0001124D02*
X-0000957D01*
X-0000901Y0001013D01*
Y0000902D01*
X-0000957Y0000791D01*
X-0001123D01*
X-0001271Y0000846D02*
X-0001299Y0000791D01*
X-0001466D01*
X-0001493Y0000846D01*
Y0000902D01*
X-0001466Y0000957D01*
X-0001299D01*
X-0001271Y0001013D01*
Y0001068D01*
X-0001299Y0001124D01*
X-0001466D01*
X-0001493Y0001068D01*
X-0006867Y0005204D02*
X-0006922Y0005149D01*
X-0007034D01*
X-0007089Y0005204D01*
Y0005260D01*
X-0006978Y0005371D01*
X-0007089Y0005482D01*
X-0006867D01*
X-0006719Y0005149D02*
X-0006497D01*
X-0006719Y0005371D01*
Y0005427D01*
X-0006691Y0005482D01*
X-0006525D01*
X-0006497Y0005427D01*
X-0006349Y0005204D02*
X-0006321Y0005149D01*
X-0006155D01*
X-0006127Y0005204D01*
Y0005427D01*
X-0006155Y0005482D01*
X-0006321D01*
X-0006349Y0005427D01*
X-0014577Y0003840D02*
X-0014522Y0003868D01*
X-0014466D01*
X-0014410Y0003840D01*
Y0003674D01*
X-0014466Y0003646D01*
X-0014522D01*
X-0014577Y0003674D01*
Y0003840D01*
X-0014633Y0003868D01*
X-0014688D01*
X-0014744Y0003840D01*
Y0003674D01*
X-0014688Y0003646D01*
X-0014633D01*
X-0014577Y0003674D01*
Y0003470D02*
Y0003304D01*
X-0014522Y0003276D01*
X-0014466D01*
X-0014410Y0003304D01*
Y0003470D01*
X-0014466Y0003498D01*
X-0014522D01*
X-0014744Y0003387D01*
X-0014688Y0003128D02*
X-0014744Y0003100D01*
Y0002934D01*
X-0014688Y0002906D01*
X-0014466D01*
X-0014410Y0002934D01*
Y0003100D01*
X-0014466Y0003128D01*
X0003565Y0007379D02*
Y0007213D01*
X0003621Y0007185D01*
X0003676D01*
X0003732Y0007213D01*
Y0007379D01*
X0003676Y0007407D01*
X0003621D01*
X0003398Y0007296D01*
Y0007037D02*
Y0006926D01*
Y0006982D02*
X0003732D01*
X0003676Y0006926D01*
X0003454Y0006723D02*
X0003398Y0006695D01*
Y0006528D01*
X0003454Y0006501D01*
X0003676D01*
X0003732Y0006528D01*
Y0006695D01*
X0003676Y0006723D01*
X-0001394Y-0005926D02*
X-0001561D01*
X-0001589Y-0005982D01*
Y-0006037D01*
X-0001561Y-0006093D01*
X-0001394D01*
X-0001366Y-0006037D01*
Y-0005982D01*
X-0001477Y-0005760D01*
X-0001135Y-0005926D02*
X-0001219Y-0006093D01*
X-0000996Y-0005926D02*
X-0001163D01*
X-0001219Y-0005871D01*
Y-0005815D01*
X-0001163Y-0005760D01*
X-0000996D01*
Y-0006093D01*
X-0001802Y0004677D02*
X-0001691D01*
X-0001746D02*
Y0005010D01*
X-0001691Y0004955D01*
X-0001349Y0004677D02*
X-0001293Y0004732D01*
X-0001265Y0004788D01*
Y0004899D01*
X-0001293Y0004955D01*
X-0001349Y0005010D01*
X-0001404D01*
X-0001460Y0004955D01*
X-0001488Y0004899D01*
Y0004788D01*
X-0001460Y0004732D01*
X-0001404Y0004677D01*
X-0001349D01*
X-0001118D02*
X-0001006D01*
X-0001062D02*
Y0005010D01*
X-0001006Y0004955D01*
X-0000803Y0004732D02*
X-0000775Y0004677D01*
X-0000609D01*
X-0000581Y0004732D01*
Y0004955D01*
X-0000609Y0005010D01*
X-0000775D01*
X-0000803Y0004955D01*
X0004852Y0011962D02*
X0004963D01*
X0004908D02*
Y0012295D01*
X0004963Y0012240D01*
X0005306Y0011962D02*
X0005361Y0012018D01*
X0005389Y0012073D01*
Y0012184D01*
X0005361Y0012240D01*
X0005306Y0012295D01*
X0005250D01*
X0005194Y0012240D01*
X0005167Y0012184D01*
Y0012073D01*
X0005194Y0012018D01*
X0005250Y0011962D01*
X0005306D01*
X0005759Y0012018D02*
X0005703Y0011962D01*
X0005592D01*
X0005537Y0012018D01*
Y0012073D01*
X0005648Y0012184D01*
X0005537Y0012295D01*
X0005759D01*
X0005990Y0012129D02*
X0005907Y0011962D01*
X0006129Y0012129D02*
X0005962D01*
X0005907Y0012184D01*
Y0012240D01*
X0005962Y0012295D01*
X0006129D01*
Y0011962D01*
X-0005638Y0004968D02*
X-0005666Y0004913D01*
X-0005832D01*
X-0005860Y0004968D01*
Y0005079D01*
X-0005805Y0005135D01*
X-0005638D01*
Y0005246D01*
X-0005860D01*
X-0005351Y0004913D02*
X-0005296Y0004968D01*
X-0005268Y0005024D01*
Y0005135D01*
X-0005296Y0005191D01*
X-0005351Y0005246D01*
X-0005407D01*
X-0005462Y0005191D01*
X-0005490Y0005135D01*
Y0005024D01*
X-0005462Y0004968D01*
X-0005407Y0004913D01*
X-0005351D01*
X-0005120D02*
X-0005009D01*
X-0005065D02*
Y0005246D01*
X-0005009Y0005191D01*
X-0004806Y0004968D02*
X-0004778Y0004913D01*
X-0004611D01*
X-0004584Y0004968D01*
Y0005191D01*
X-0004611Y0005246D01*
X-0004778D01*
X-0004806Y0005191D01*
X0002779Y-0004646D02*
X0003112Y-0004480D01*
Y-0004702D01*
X0002779Y-0004850D02*
Y-0005072D01*
X0003001Y-0004850D01*
X0003057D01*
X0003112Y-0004878D01*
Y-0005044D01*
X0003057Y-0005072D01*
X0002835Y-0005220D02*
X0002779Y-0005248D01*
Y-0005414D01*
X0002835Y-0005442D01*
X0003057D01*
X0003112Y-0005414D01*
Y-0005248D01*
X0003057Y-0005220D01*
X0003618Y0000283D02*
Y0000061D01*
X0003840Y0000172D01*
Y0000228D01*
X0003507D01*
X0003673Y-0000170D02*
X0003507Y-0000087D01*
X0003673Y-0000309D02*
Y-0000142D01*
X0003729Y-0000087D01*
X0003785D01*
X0003840Y-0000142D01*
Y-0000309D01*
X0003507D01*
Y0008838D02*
X0003563Y0008893D01*
X0003591Y0008949D01*
Y0009060D01*
X0003563Y0009116D01*
X0003507Y0009171D01*
X0003452D01*
X0003396Y0009116D01*
X0003368Y0009060D01*
Y0008949D01*
X0003396Y0008893D01*
X0003452Y0008838D01*
X0003507D01*
X0003877D02*
X0003933Y0008893D01*
X0003961Y0008949D01*
Y0009060D01*
X0003933Y0009116D01*
X0003877Y0009171D01*
X0003822D01*
X0003766Y0009116D01*
X0003738Y0009060D01*
Y0008949D01*
X0003766Y0008893D01*
X0003822Y0008838D01*
X0003877D01*
X0004331Y0008893D02*
X0004275Y0008838D01*
X0004164D01*
X0004108Y0008893D01*
Y0008949D01*
X0004219Y0009060D01*
X0004108Y0009171D01*
X0004331D01*
X0004562Y0009004D02*
X0004478Y0008838D01*
X0004701Y0009004D02*
X0004534D01*
X0004478Y0009060D01*
Y0009116D01*
X0004534Y0009171D01*
X0004701D01*
Y0008838D01*
X-0011853Y0003911D02*
Y0003800D01*
Y0003855D02*
X-0011519D01*
X-0011575Y0003800D01*
X-0011686Y0003569D02*
Y0003402D01*
X-0011631Y0003374D01*
X-0011575D01*
X-0011519Y0003402D01*
Y0003569D01*
X-0011575Y0003596D01*
X-0011631D01*
X-0011853Y0003485D01*
X-0011797Y0003226D02*
X-0011853Y0003199D01*
Y0003032D01*
X-0011797Y0003004D01*
X-0011575D01*
X-0011519Y0003032D01*
Y0003199D01*
X-0011575Y0003226D01*
X-0000067Y0008845D02*
X0000099D01*
Y0008679D02*
Y0009012D01*
X-0000123D01*
X0000441Y0008679D02*
Y0009012D01*
X0000469Y0008679D02*
X0000303D01*
X0000247Y0008734D01*
Y0008790D01*
X0000275Y0008845D01*
X0000441D02*
X0000275D01*
X0000247Y0008901D01*
Y0008956D01*
X0000303Y0009012D01*
X0000469D01*
X0000617Y0008956D02*
X0000645Y0009012D01*
X0000811D01*
X0000839Y0008956D01*
Y0008901D01*
X0000811Y0008845D01*
X0000645D01*
X0000617Y0008790D01*
Y0008734D01*
X0000645Y0008679D01*
X0000811D01*
X0000839Y0008734D01*
X0000987Y0009012D02*
Y0008734D01*
X0001015Y0008679D01*
X0001181D01*
X0001209Y0008734D01*
Y0009012D01*
X-0000882Y0007654D02*
X-0000771D01*
X-0000826D02*
Y0007987D01*
X-0000771Y0007931D01*
X-0000567Y0007654D02*
X-0000345D01*
X-0000567Y0007876D01*
Y0007931D01*
X-0000539Y0007987D01*
X-0000373D01*
X-0000345Y0007931D01*
X-0000197Y0007709D02*
X-0000169Y0007654D01*
X-0000003D01*
X0000025Y0007709D01*
Y0007931D01*
X-0000003Y0007987D01*
X-0000169D01*
X-0000197Y0007931D01*
X0001132Y-0006137D02*
X0001243D01*
X0001187D02*
Y-0005804D01*
X0001243Y-0005859D01*
X0001446Y-0006082D02*
X0001474Y-0006137D01*
X0001641D01*
X0001669Y-0006082D01*
Y-0005859D01*
X0001641Y-0005804D01*
X0001474D01*
X0001446Y-0005859D01*
X-0006985Y-0003193D02*
X-0007013Y-0003249D01*
X-0007179D01*
X-0007207Y-0003193D01*
Y-0003082D01*
X-0007152Y-0003027D01*
X-0006985D01*
Y-0002915D01*
X-0007207D01*
X-0006837Y-0003249D02*
X-0006615D01*
X-0006837Y-0003027D01*
Y-0002971D01*
X-0006809Y-0002915D01*
X-0006643D01*
X-0006615Y-0002971D01*
X-0006467Y-0003193D02*
X-0006439Y-0003249D01*
X-0006273D01*
X-0006245Y-0003193D01*
Y-0002971D01*
X-0006273Y-0002915D01*
X-0006439D01*
X-0006467Y-0002971D01*
X0000464Y-0005971D02*
X0000298D01*
X0000270Y-0006026D01*
Y-0006082D01*
X0000298Y-0006137D01*
X0000464D01*
X0000492Y-0006082D01*
Y-0006026D01*
X0000381Y-0005804D01*
X0000640Y-0006082D02*
X0000668Y-0006137D01*
X0000834D01*
X0000862Y-0006082D01*
Y-0005859D01*
X0000834Y-0005804D01*
X0000668D01*
X0000640Y-0005859D01*
X-0004789Y-0005598D02*
Y-0005820D01*
X-0004567Y-0005709D01*
Y-0005653D01*
X-0004901D01*
Y-0005968D02*
Y-0006079D01*
Y-0006023D02*
X-0004567D01*
X-0004623Y-0006079D01*
X-0004845Y-0006282D02*
X-0004901Y-0006310D01*
Y-0006477D01*
X-0004845Y-0006505D01*
X-0004623D01*
X-0004567Y-0006477D01*
Y-0006310D01*
X-0004623Y-0006282D01*
X-0001459Y-0003886D02*
X-0001626D01*
X-0001654Y-0003941D01*
Y-0003997D01*
X-0001626Y-0004053D01*
X-0001459D01*
X-0001431Y-0003997D01*
Y-0003941D01*
X-0001542Y-0003719D01*
X-0001284Y-0004053D02*
X-0001061D01*
X-0001284Y-0003830D01*
Y-0003775D01*
X-0001256Y-0003719D01*
X-0001089D01*
X-0001061Y-0003775D01*
X-0000914Y-0003997D02*
X-0000886Y-0004053D01*
X-0000719D01*
X-0000691Y-0003997D01*
Y-0003775D01*
X-0000719Y-0003719D01*
X-0000886D01*
X-0000914Y-0003775D01*
X0005474Y0017983D02*
X0004674D01*
Y0016733D01*
X0005474D01*
Y0017983D01*
X0004365Y0015398D02*
Y0014598D01*
X0005615D01*
Y0015398D01*
X0004365D01*
X0005611Y0013800D02*
Y0014600D01*
X0004361D01*
Y0013800D01*
X0005611D01*
X-0014063Y-0013960D02*
Y-0014760D01*
X-0012813D01*
Y-0013960D01*
X-0014063D01*
X-0012014Y-0013229D02*
X-0012814D01*
Y-0014479D01*
X-0012014D01*
Y-0013229D01*
X-0013341Y-0014762D02*
Y-0015562D01*
X-0012091D01*
Y-0014762D01*
X-0013341D01*
X-0013101Y-0015568D02*
Y-0016368D01*
X-0011851D01*
Y-0015568D01*
X-0013101D01*
X0001518Y-0009933D02*
X0000718D01*
Y-0011183D01*
X0001518D01*
Y-0009933D01*
X-0021145Y0001454D02*
Y0000654D01*
X-0019895D01*
Y0001454D01*
X-0021145D01*
X-0021147Y0000648D02*
Y-0000152D01*
X-0019897D01*
Y0000648D01*
X-0021147D01*
X-0017455Y0006486D02*
Y0005686D01*
X-0016205D01*
Y0006486D01*
X-0017455D01*
X-0021141Y-0000158D02*
Y-0000958D01*
X-0019891D01*
Y-0000158D01*
X-0021141D01*
X-0001860Y-0021273D02*
X-0001060D01*
Y-0020023D01*
X-0001860D01*
Y-0021273D01*
X-0001054Y-0021283D02*
X-0000254D01*
Y-0020033D01*
X-0001054D01*
Y-0021283D01*
X-0002660Y-0021275D02*
X-0001860D01*
Y-0020025D01*
X-0002660D01*
Y-0021275D01*
X0010858Y-0016405D02*
X0011658D01*
Y-0015155D01*
X0010858D01*
Y-0016405D01*
X-0011662Y-0010054D02*
Y-0010004D01*
X-0011062D01*
Y-0010054D01*
X-0011662Y-0010554D02*
Y-0010604D01*
X-0011062D01*
Y-0010554D01*
X0010860Y-0015049D02*
X0011660D01*
Y-0013799D01*
X0010860D01*
Y-0015049D01*
X0010856Y-0013685D02*
X0011656D01*
Y-0012435D01*
X0010856D01*
Y-0013685D01*
X-0012781Y0005270D02*
Y0006070D01*
X-0014031D01*
Y0005270D01*
X-0012781D01*
X-0008375Y0009128D02*
Y0008328D01*
X-0007125D01*
Y0009128D01*
X-0008375D01*
X-0002770Y0011626D02*
Y0011776D01*
X-0001070D01*
Y0011626D01*
X-0002770Y0010926D02*
Y0010774D01*
X-0002772Y0010776D01*
X-0001070D01*
Y0010926D01*
X-0001301Y0011776D02*
Y0012576D01*
X-0002551D01*
Y0011776D01*
X-0001301D01*
X0012447Y0004348D02*
Y0003548D01*
X0013697D01*
Y0004348D01*
X0012447D01*
X-0015812Y-0003505D02*
X-0015012D01*
Y-0002255D01*
X-0015812D01*
Y-0003505D01*
X-0016618Y-0003501D02*
X-0015818D01*
Y-0002251D01*
X-0016618D01*
Y-0003501D01*
X0009514Y-0015795D02*
X0010314D01*
Y-0014545D01*
X0009514D01*
Y-0015795D01*
X-0016557Y0004766D02*
Y0005566D01*
X-0017807D01*
Y0004766D01*
X-0016557D01*
X-0014224Y-0008730D02*
X-0014274D01*
Y-0008130D01*
X-0014224D01*
X-0013724Y-0008730D02*
X-0013674D01*
Y-0008130D01*
X-0013724D01*
X-0008226Y-0007720D02*
Y-0007770D01*
X-0008826D01*
Y-0007720D01*
X-0008226Y-0007220D02*
Y-0007170D01*
X-0008826D01*
Y-0007220D01*
X-0003232Y-0011140D02*
X-0002732D01*
Y-0012490D01*
X-0003082Y-0012840D01*
X-0003232D01*
X-0003932Y-0011140D02*
X-0004432D01*
Y-0012490D01*
X-0004082Y-0012840D01*
X-0003932D01*
X-0011034Y-0010026D02*
X-0011036Y-0009902D01*
Y-0009722D01*
X-0010736D01*
Y-0010030D01*
X-0010116D01*
Y-0007342D01*
X-0010114Y-0007186D01*
X-0011646D01*
Y-0010026D01*
X-0011034D01*
X-0008348Y-0010874D02*
Y-0010924D01*
X-0008948D01*
Y-0010874D01*
X-0008348Y-0010374D02*
Y-0010324D01*
X-0008948D01*
Y-0010374D01*
X-0016565Y0003898D02*
Y0004698D01*
X-0017815D01*
Y0003898D01*
X-0016565D01*
X-0011434Y-0006208D02*
Y-0006158D01*
X-0010834D01*
Y-0006208D01*
X-0011434Y-0006708D02*
Y-0006758D01*
X-0010834D01*
Y-0006708D01*
X-0014792Y0012417D02*
X-0015405Y0012931D01*
X-0016165Y0012025D01*
X-0016161Y0012029D01*
X-0015551Y0011512D01*
X-0014792Y0012417D01*
X0007534Y-0015624D02*
X0007584D01*
Y-0014824D01*
X0007534D01*
X0006934Y-0015624D02*
X0006884D01*
Y-0014824D01*
X0006934D01*
X-0016684Y0012462D02*
X-0016685D01*
X-0015727Y0011659D01*
X-0016222Y0011070D01*
X-0017179Y0011873D01*
X-0016684Y0012462D01*
X0007689Y-0015388D02*
Y-0016188D01*
X0008939D01*
Y-0015388D01*
X0007689D01*
X0008935Y-0015310D02*
Y-0014510D01*
X0007685D01*
Y-0015310D01*
X0008935D01*
X-0018299Y0005254D02*
X-0019071Y0005462D01*
X-0019395Y0004254D01*
X-0018622Y0004047D01*
X-0018299Y0005254D01*
X-0015025Y-0011676D02*
X-0015638Y-0012190D01*
X-0014835Y-0013147D01*
X-0014222Y-0012633D01*
X-0015025Y-0011676D01*
X-0014211Y-0006626D02*
Y-0007426D01*
X-0012961D01*
Y-0006626D01*
X-0014211D01*
X-0020230Y0004487D02*
X-0019025Y0004159D01*
X-0019212Y0003459D01*
X-0020419Y0003783D01*
X-0020230Y0004487D01*
X0016606Y0009361D02*
X0017299Y0009761D01*
X0016674Y0010844D01*
X0015981Y0010444D01*
X0016606Y0009361D01*
X-0018452Y-0004745D02*
X-0019225Y-0004952D01*
X-0018902Y-0006160D01*
X-0018129Y-0005953D01*
X-0018452Y-0004745D01*
X-0015587Y-0013687D02*
X-0015073Y-0014300D01*
X-0014115Y-0013496D01*
X-0014630Y-0012883D01*
X-0015587Y-0013687D01*
X-0009221Y0004344D02*
X-0010681D01*
Y0004804D01*
Y0006524D02*
Y0006984D01*
X-0009221D01*
X-0015980Y-0000623D02*
Y-0001423D01*
X-0014730D01*
Y-0000623D01*
X-0015980D01*
X-0008623Y-0001423D02*
Y-0000623D01*
X-0009873D01*
Y-0001423D01*
X-0008623D01*
X-0014662Y0000400D02*
Y-0000400D01*
X-0013412D01*
Y0000400D01*
X-0014662D01*
X-0012416Y-0002036D02*
X-0011616D01*
Y-0000786D01*
X-0012416D01*
Y-0002036D01*
X-0013465Y0003993D02*
X-0014265D01*
Y0002743D01*
X-0013465D01*
Y0003993D01*
X-0014023Y0002622D02*
Y0001822D01*
X-0012773D01*
Y0002622D01*
X-0014023D01*
X-0010082Y0000424D02*
X-0011250Y0000426D01*
Y0001226D01*
X-0010082D01*
Y0000424D01*
X-0010515Y0004052D02*
X-0011315D01*
Y0002802D01*
X-0010515D01*
Y0004052D01*
X-0014411Y0001722D02*
Y0000922D01*
X-0013161D01*
Y0001722D01*
X-0014411D01*
X-0013675Y-0003334D02*
X-0012875D01*
Y-0002084D01*
X-0013675D01*
Y-0003334D01*
X-0013459Y-0001751D02*
X-0012659D01*
Y-0000501D01*
X-0013459D01*
Y-0001751D01*
X-0011512Y-0003334D02*
X-0010712D01*
Y-0002084D01*
X-0011512D01*
Y-0003334D01*
X-0010275Y-0001226D02*
Y-0000426D01*
X-0011525D01*
Y-0001226D01*
X-0010275D01*
X-0010908Y0002548D02*
X-0011708D01*
Y0001298D01*
X-0010908D01*
Y0002548D01*
X-0016000Y0001934D02*
Y0001134D01*
X-0014750D01*
Y0001934D01*
X-0016000D01*
X-0008151Y-0005641D02*
Y-0004841D01*
X-0009401D01*
Y-0005641D01*
X-0008151D01*
X0004722Y0009297D02*
Y0010097D01*
X0003472D01*
Y0009297D01*
X0004722D01*
X0005288Y0009223D02*
Y0009423D01*
X0005738Y0009073D02*
Y0008673D01*
X0005288D01*
Y0008723D01*
X0005738Y0009573D02*
Y0009973D01*
X0005288D01*
Y0009923D01*
X0004927Y0010884D02*
Y0010084D01*
X0006177D01*
Y0010884D01*
X0004927D01*
X0004924Y0011746D02*
Y0010946D01*
X0006174D01*
Y0011746D01*
X0004924D01*
X-0010249Y0011704D02*
X-0008789D01*
Y0011244D01*
Y0009524D02*
Y0009064D01*
X-0010249D01*
X-0000682Y-0004257D02*
X-0001482D01*
Y-0005507D01*
X-0000682D01*
Y-0004257D01*
X0003612Y-0002744D02*
X0004412D01*
Y-0001494D01*
X0003612D01*
Y-0002744D01*
X-0005207Y-0004266D02*
Y-0005066D01*
X-0003957D01*
Y-0004266D01*
X-0005207D01*
X0003612Y0003234D02*
X0004412D01*
Y0004484D01*
X0003612D01*
Y0003234D01*
X-0002961Y-0004261D02*
Y-0005061D01*
X-0001711D01*
Y-0004261D01*
X-0002961D01*
X-0007109Y0000347D02*
Y0001147D01*
X-0008359D01*
Y0000347D01*
X-0007109D01*
X-0002290Y0003710D02*
Y0004510D01*
X-0003540D01*
Y0003710D01*
X-0002290D01*
X-0001800Y-0001921D02*
Y-0002721D01*
X-0000550D01*
Y-0001921D01*
X-0001800D01*
X-0006145Y-0002780D02*
Y-0001980D01*
X-0007395D01*
Y-0002780D01*
X-0006145D01*
X0003612Y-0004082D02*
X0004412D01*
Y-0002832D01*
X0003612D01*
Y-0004082D01*
Y0001917D02*
X0004412D01*
Y0003167D01*
X0003612D01*
Y0001917D01*
X0002432Y0006479D02*
X0003232D01*
Y0007729D01*
X0002432D01*
Y0006479D01*
X0004746Y0000601D02*
X0003946D01*
Y-0000649D01*
X0004746D01*
Y0000601D01*
X0000970Y-0004257D02*
X0000170D01*
Y-0005507D01*
X0000970D01*
Y-0004257D01*
X-0003570Y-0001921D02*
Y-0002721D01*
X-0002320D01*
Y-0001921D01*
X-0003570D01*
X-0001698Y-0007504D02*
X-0001003D01*
Y-0006254D01*
X-0001698D01*
Y-0007504D01*
X0005612Y0000601D02*
X0004812D01*
Y-0000649D01*
X0005612D01*
Y0000601D01*
X-0003592Y-0005369D02*
X-0004392D01*
Y-0006619D01*
X-0003592D01*
Y-0005369D01*
X-0006106Y0004182D02*
Y0004982D01*
X-0007356D01*
Y0004182D01*
X-0006106D01*
X-0005271Y0002914D02*
X0003461D01*
Y-0000986D01*
X-0005271D01*
Y0000764D01*
X-0005002D01*
Y0001164D01*
X-0005271D01*
Y0002914D01*
X-0005187Y0003320D02*
X-0005387Y0003520D01*
Y0003120D01*
X-0005187Y0003320D01*
X0002537Y-0007591D02*
Y-0008201D01*
X0003579D01*
Y-0007591D01*
X0002537D01*
X0001976Y0008660D02*
Y0007860D01*
X0003226D01*
Y0008660D01*
X0001976D01*
X0004477Y-0001977D02*
X0005277D01*
Y-0000727D01*
X0004477D01*
Y-0001977D01*
X-0006337Y0009541D02*
X-0006287D01*
Y0010341D01*
X-0006337D01*
X-0006937Y0009541D02*
X-0006987D01*
Y0010341D01*
X-0006937D01*
X0000441Y0007794D02*
Y0006994D01*
X0001691D01*
Y0007794D01*
X0000441D01*
X0002301Y-0007582D02*
Y-0006332D01*
X0002996D01*
Y-0007582D01*
X0002301D01*
X-0005592Y0006283D02*
X-0004792D01*
Y0007533D01*
X-0005592D01*
Y0006283D01*
X-0004530D02*
X-0003730D01*
Y0007533D01*
X-0004530D01*
Y0006283D01*
X0003997Y-0010704D02*
Y-0009904D01*
X0002747D01*
Y-0010704D01*
X0003997D01*
X-0002340Y-0007513D02*
X-0001645Y-0007504D01*
Y-0006254D01*
X-0002340D01*
Y-0007513D01*
X-0001718Y0006243D02*
X-0000918D01*
Y0007493D01*
X-0001718D01*
Y0006243D01*
X0000144Y-0004257D02*
X-0000656D01*
Y-0005507D01*
X0000144D01*
Y-0004257D01*
X-0006184Y-0000577D02*
Y0000223D01*
X-0007434D01*
Y-0000577D01*
X-0006184D01*
X-0002163Y-0007572D02*
Y-0008162D01*
X-0001101D01*
Y-0007572D01*
X-0002163D01*
X0002989D02*
Y-0006332D01*
X0003619D01*
Y-0007572D01*
X0002989D01*
X-0000560Y0003710D02*
Y0004510D01*
X-0001810D01*
Y0003710D01*
X-0000560D01*
X-0004562Y0003946D02*
Y0004746D01*
X-0005812D01*
Y0003946D01*
X-0004562D01*
X0002622Y-0004257D02*
X0001822D01*
Y-0005507D01*
X0002622D01*
Y-0004257D01*
X-0000834Y0006243D02*
X-0000034D01*
Y0007493D01*
X-0000834D01*
Y0006243D01*
X0001796Y-0004257D02*
X0000996D01*
Y-0005507D01*
X0001796D01*
Y-0004257D01*
X0015430Y0004323D02*
Y0003573D01*
X0013830D01*
Y0004323D01*
X0015430D01*
X-0006184Y-0013123D02*
Y-0012373D01*
X-0004584D01*
Y-0013123D01*
X-0006184D01*
G01X-0004382Y-0012015D02*
G03X-0003932Y-0012690I0000731J0000000D01*
Y-0011340D02*
G03X-0004382Y-0012015I0000281J0000675D01*
G01X-0002778D02*
G03X-0003232Y-0011340I0000729J0000000D01*
Y-0012690D02*
G03X-0002778Y-0012015I0000275J0000675D01*
G01X-0011466Y-0009808D02*
G03X-0011390Y-0009732I0000000J0000076D01*
G01X-0011542D02*
G03X-0011466Y-0009808I0000076J0000000D01*
Y-0009656D02*
G03X-0011542Y-0009732I0000000J0000076D01*
G01X-0011390D02*
G03X-0011466Y-0009656I0000076J0000000D01*
G54D162*
G01X0008331Y-0003217D02*
X0008414Y-0003175D01*
Y-0002925D01*
X0008331Y-0002883D01*
X0007997D01*
X0007914Y-0002925D01*
Y-0003175D01*
X0007997Y-0003217D01*
X0008414Y-0002642D02*
X0007914D01*
X0007997Y-0002558D01*
X0008164Y-0002475D01*
X0007997Y-0002392D01*
X0007914Y-0002308D01*
X0008414D01*
Y-0002067D02*
X0007914D01*
X0007997Y-0001983D01*
X0008164Y-0001900D01*
X0007997Y-0001817D01*
X0007914Y-0001733D01*
X0008414D01*
X0007914Y-0001492D02*
X0008414Y-0001242D01*
Y-0000667D02*
X0007914D01*
X0008414Y-0000625D02*
Y-0000875D01*
X0008247Y-0000958D01*
X0008081D01*
X0007914Y-0000875D01*
Y-0000625D01*
X0007997Y-0000383D02*
X0007914Y-0000342D01*
Y-0000092D01*
X0007997Y-0000050D01*
X0008081D01*
X0008164Y-0000092D01*
Y-0000342D01*
X0008247Y-0000383D01*
X0008331D01*
X0008414Y-0000342D01*
Y-0000092D01*
X0008331Y-0000050D01*
X0011670Y-0006136D02*
Y0000532D01*
X0018298D01*
Y-0006136D01*
X0011670D01*
X0008788Y0003386D02*
X0021088D01*
Y-0008162D01*
X0008792D01*
X0008788Y0003366D02*
Y-0008154D01*
G54D164*
G01X-0001904Y0011272D02*
X-0001936D01*
X-0001923Y0011292D02*
Y0011260D01*
X-0003204Y-0011330D02*
X-0003232D01*
X-0003161Y-0011357D02*
X-0003232D01*
X-0003123Y-0011384D02*
X-0003232D01*
X-0003089Y-0011411D02*
X-0003232D01*
X-0003059Y-0011438D02*
X-0003232D01*
X-0003032Y-0011465D02*
X-0003232D01*
X-0003007Y-0011492D02*
X-0003232D01*
X-0002985Y-0011519D02*
X-0003232D01*
X-0002965Y-0011546D02*
X-0003232D01*
X-0002946Y-0011573D02*
X-0003232D01*
X-0002929Y-0011600D02*
X-0003232D01*
X-0002976Y-0011531D02*
Y-0011640D01*
X-0003003Y-0011497D02*
Y-0011640D01*
X-0003030Y-0011467D02*
Y-0011640D01*
X-0003057Y-0011440D02*
Y-0011640D01*
X-0003084Y-0011415D02*
Y-0011640D01*
X-0003111Y-0011393D02*
Y-0011640D01*
X-0003138Y-0011373D02*
Y-0011640D01*
X-0003165Y-0011354D02*
Y-0011640D01*
X-0003192Y-0011337D02*
Y-0011640D01*
X-0003219Y-0011322D02*
Y-0011640D01*
X-0002914Y-0011627D02*
X-0003232D01*
Y-0011315D02*
Y-0011640D01*
X-0002907D02*
X-0003232D01*
X-0002922Y-0011612D02*
Y-0011640D01*
X-0002949Y-0011569D02*
Y-0011640D01*
X-0003932Y-0011330D02*
X-0003959D01*
X-0003932Y-0011357D02*
X-0004003D01*
X-0003932Y-0011384D02*
X-0004041D01*
X-0003932Y-0011411D02*
X-0004075D01*
X-0003932Y-0011438D02*
X-0004105D01*
X-0003932Y-0011465D02*
X-0004132D01*
X-0003932Y-0011492D02*
X-0004156D01*
X-0003932Y-0011519D02*
X-0004179D01*
X-0003932Y-0011546D02*
X-0004199D01*
X-0003932Y-0011573D02*
X-0004218D01*
X-0003932Y-0011600D02*
X-0004235D01*
X-0004001Y-0011355D02*
Y-0011640D01*
X-0004028Y-0011374D02*
Y-0011640D01*
X-0004055Y-0011395D02*
Y-0011640D01*
X-0004082Y-0011417D02*
Y-0011640D01*
X-0004109Y-0011442D02*
Y-0011640D01*
X-0004136Y-0011469D02*
Y-0011640D01*
X-0004163Y-0011499D02*
Y-0011640D01*
X-0004190Y-0011533D02*
Y-0011640D01*
X-0004217Y-0011572D02*
Y-0011640D01*
X-0004244Y-0011616D02*
Y-0011640D01*
X-0003932Y-0011627D02*
X-0004250D01*
X-0003932Y-0011315D02*
Y-0011640D01*
X-0004257D01*
X-0003947Y-0011323D02*
Y-0011640D01*
X-0003974Y-0011338D02*
Y-0011640D01*
X-0000508Y0009092D02*
X-0000358Y0008942D01*
Y0009242D01*
X-0000508Y0009092D01*
X-0000611Y0009203D02*
Y0008456D01*
X-0001869D01*
Y0009203D01*
X-0000611D01*
G01X-0001920Y0011292D02*
G03X-0001936Y0011276I0000000J0000016D01*
G03X-0001920Y0011260I0000016J0000000D01*
Y0011259D02*
G03X-0001903Y0011276I0000000J0000017D01*
G03X-0001920Y0011293I0000017J0000000D01*
G01X-0002907Y-0011640D02*
G03X-0003232Y-0011315I0000675J0000350D01*
G01X-0003932D02*
G03X-0004257Y-0011640I0000350J0000675D01*
G54D165*
G01X0009912Y-0002088D02*
Y-0001913D01*
Y-0002000D02*
X0009387D01*
X0009475Y-0001913D01*
X0009912Y-0001585D02*
Y-0001410D01*
Y-0001497D02*
X0009387D01*
X0009475Y-0001410D01*
X0009737Y-0000776D02*
X0009825D01*
X0009912Y-0000819D01*
Y-0000994D01*
X0009825Y-0001038D01*
X0009387D01*
Y-0001082D02*
Y-0000907D01*
G54D166*
G01X-0009338Y0000796D02*
Y0000866D01*
X-0009408D01*
X-0009443Y0000848D01*
Y0000743D01*
X-0009408Y0000726D01*
X-0009268D01*
X-0009233Y0000743D01*
Y0000848D01*
X-0009268Y0000866D01*
X-0009338Y0000595D02*
Y0000490D01*
X-0009443Y0000630D02*
Y0000490D01*
X-0009233D01*
Y0000630D01*
X-0009338Y0000341D02*
X-0009443Y0000393D01*
X-0009338Y0000253D02*
Y0000358D01*
X-0009303Y0000393D01*
X-0009268D01*
X-0009233Y0000358D01*
Y0000253D01*
X-0009443D01*
X-0020998Y-0005395D02*
X-0021109Y-0005587D01*
X-0020515Y-0004003D02*
X-0019813Y-0006625D01*
X-0020801Y-0006889D01*
X-0021503Y-0004268D01*
X-0020515Y-0004003D01*
X-0020916Y-0005699D02*
X-0021109Y-0005587D01*
X-0020691Y-0005475D01*
X-0016554Y0013990D02*
X-0016775Y0013970D01*
X-0015137Y0014393D02*
X-0016882Y0012314D01*
X-0017665Y0012971D01*
X-0015921Y0015050D01*
X-0015137Y0014393D01*
X-0016756Y0013749D02*
X-0016775Y0013970D01*
X-0016444Y0013692D01*
X-0020823Y0005961D02*
X-0021016Y0005849D01*
X-0019710Y0006925D02*
X-0020412Y0004303D01*
X-0021400Y0004568D01*
X-0020698Y0007189D01*
X-0019710Y0006925D01*
X-0020905Y0005657D02*
X-0021016Y0005849D01*
X-0020598Y0005737D01*
X0018893Y0010653D02*
X0018951Y0010868D01*
X0018787Y0009184D02*
X0017430Y0011534D01*
X0018316Y0012046D01*
X0019673Y0009695D01*
X0018787Y0009184D01*
X0018736Y0010925D02*
X0018951Y0010868D01*
X0018576Y0010651D01*
X0018901Y-0010655D02*
X0019116Y-0010598D01*
X0017576Y-0011298D02*
X0018933Y-0008948D01*
X0019818Y-0009459D01*
X0018461Y-0011810D01*
X0017576Y-0011298D01*
X0019058Y-0010383D02*
X0019116Y-0010598D01*
X0018741Y-0010381D01*
X-0016854Y-0013608D02*
X-0016873Y-0013830D01*
X-0017005Y-0012143D02*
X-0015261Y-0014222D01*
X-0016044Y-0014880D01*
X-0017788Y-0012801D01*
X-0017005Y-0012143D01*
X-0016652Y-0013849D02*
X-0016873Y-0013830D01*
X-0016542Y-0013552D01*
M02*
