*
G04 Mass Parameters ***
*
G04 Image ***
*
%INC:\CAINPCB\ECBOT\V5\ECBOTCPU5.SMT*%
%ICAS*%
%MOIN*%
%IPPOS*%
%ASAXBY*%
G74*%FSLAN2X34Y34*%
*
G04 Aperture Definitions ***
*
%ADD10R,0.0500X0.0400*%
%ADD11R,0.0400X0.0500*%
%ADD12R,0.0300X0.0350*%
%ADD13R,0.1000X0.0600*%
%ADD14R,0.0600X0.1000*%
%ADD15R,0.0650X0.1200*%
%ADD16R,0.2350X0.2350*%
%ADD17C,0.0550*%
%ADD18R,0.0550X0.0550*%
%ADD19C,0.0580*%
%ADD20R,0.0580X0.0580*%
%ADD21C,0.0512*%
%ADD22R,0.1024X0.1024*%
%ADD23C,0.0620*%
%ADD24C,0.0433*%
%ADD25C,0.3149X0.1574*%
%ADD26C,0.0600*%
%ADD27R,0.0800X0.1800*%
%ADD28R,0.0394X0.0236*%
%ADD29R,0.0197X0.0197*%
%ADD30C,0.0020*%
%ADD31R,0.0236X0.0394*%
%ADD32R,0.0701X0.0110*%
%ADD33R,0.0700X0.0110*%
%ADD34R,0.0110X0.0701*%
%ADD35R,0.0110X0.0700*%
%ADD36R,0.0550X0.0350*%
%ADD37R,0.0450X0.0350*%
%ADD38R,0.0350X0.0550*%
%ADD39R,0.0350X0.0450*%
%ADD40R,0.0350X0.0300*%
%ADD41R,0.1968X0.1968*%
%ADD42R,0.0800X0.0250*%
%ADD43R,0.0315X0.0197*%
%ADD44R,0.0197X0.0315*%
%ADD45R,0.0160X0.0700*%
%ADD46R,0.0100X0.0600*%
%ADD47R,0.0600X0.0100*%
%ADD48C,0.0472*%
%ADD49R,0.0750X0.0250*%
%ADD50C,0.0394*%
%ADD51R,0.0500X0.0160*%
%ADD52R,0.0880X0.1420*%
%ADD53R,0.0880X0.0480*%
%ADD54R,0.0150X0.0600*%
%ADD55R,0.0600X0.0150*%
%ADD56R,0.0866X0.0512*%
%ADD57C,0.0236*%
%ADD58C,0.0118*%
%ADD59C,0.0010*%
%ADD60C,0.0080*%
%ADD61C,0.0236*%
%ADD62C,0.0157*%
%ADD63C,0.0590*%
%ADD64C,0.0149*%
%ADD65C,0.0787*%
%ADD66C,0.0315*%
%ADD67C,0.0709*%
%ADD68C,0.0197*%
%ADD69C,0.0394*%
%ADD70C,0.0905*%
%ADD71C,0.0512*%
%ADD72C,0.0236*%
%ADD73C,0.0079*%
%ADD74R,0.0500X0.0400*%
%ADD75R,0.0400X0.0500*%
%ADD76R,0.1000X0.0600*%
%ADD77R,0.0600X0.1000*%
%ADD78R,0.0300X0.0350*%
%ADD79R,0.0350X0.0300*%
%ADD80C,0.0550*%
%ADD81R,0.0550X0.0550*%
%ADD82C,0.0580*%
%ADD83R,0.0580X0.0580*%
%ADD84C,0.0512*%
%ADD85R,0.0630X0.0827*%
%ADD86R,0.0551X0.0728*%
%ADD87R,0.0905X0.0472*%
%ADD88C,0.1024*%
%ADD89C,0.0620*%
%ADD90C,0.0433*%
%ADD91R,0.0394X0.0709*%
%ADD92R,0.0709X0.0669*%
%ADD93R,0.0236X0.0669*%
%ADD94R,0.0709X0.0748*%
%ADD95C,0.3149X0.1574*%
%ADD96C,0.0600*%
%ADD97R,0.0500X0.0500*%
%ADD98R,0.0197X0.0551*%
%ADD99R,0.0394X0.0138*%
%ADD100R,0.0880X0.1420*%
%ADD101R,0.0880X0.0480*%
%ADD102C,0.0472*%
%ADD103C,0.0394*%
%ADD104R,0.0550X0.0350*%
%ADD105R,0.0450X0.0350*%
%ADD106R,0.0700X0.0160*%
%ADD107R,0.0390X0.0272*%
%ADD108R,0.0272X0.0390*%
%ADD109C,0.0236*%
%ADD110C,0.0177*%
%ADD111C,0.0236*%
%ADD112C,0.0189*%
%ADD113C,0.0750*%
%ADD114R,0.0750X0.0750*%
%ADD115C,0.0780*%
%ADD116R,0.0780X0.0780*%
%ADD117C,0.1102*%
%ADD118C,0.0700*%
%ADD119C,0.0670*%
%ADD120C,0.0650*%
%ADD121C,0.0059*%
%ADD122C,0.0236*%
%ADD123R,0.0350X0.0400*%
%ADD124R,0.1050X0.0650*%
%ADD125R,0.0650X0.1050*%
%ADD126R,0.0700X0.1250*%
%ADD127R,0.2400X0.2400*%
%ADD128R,0.1063X0.1063*%
%ADD129C,0.1390*%
%ADD130C,0.0492*%
%ADD131R,0.0850X0.1850*%
%ADD132R,0.0550X0.0450*%
%ADD133R,0.0433X0.0276*%
%ADD134R,0.0236X0.0236*%
%ADD135R,0.0276X0.0433*%
%ADD136R,0.0701X0.0110*%
%ADD137R,0.0700X0.0110*%
%ADD138R,0.0110X0.0701*%
%ADD139R,0.0110X0.0700*%
%ADD140R,0.0600X0.0400*%
%ADD141R,0.0400X0.0600*%
%ADD142R,0.0400X0.0350*%
%ADD143R,0.1968X0.1968*%
%ADD144R,0.0850X0.0300*%
%ADD145R,0.0384X0.0256*%
%ADD146R,0.0256X0.0384*%
%ADD147R,0.0210X0.0750*%
%ADD148R,0.0150X0.0650*%
%ADD149R,0.0650X0.0150*%
%ADD150C,0.0551*%
%ADD151R,0.0800X0.0300*%
%ADD152R,0.0550X0.0210*%
%ADD153R,0.0930X0.1470*%
%ADD154R,0.0930X0.0530*%
%ADD155R,0.0200X0.0650*%
%ADD156R,0.0650X0.0200*%
%ADD157R,0.0905X0.0551*%
*
G04 Plot Data ***
*
G54D30*
G01X0016997Y-0008884D02*
Y-0009323D01*
X0016979Y-0008874D02*
Y-0009312D01*
X0016961Y-0008864D02*
Y-0009302D01*
X0016944Y-0008853D02*
Y-0009292D01*
X0016926Y-0008843D02*
Y-0009282D01*
X0016908Y-0008833D02*
Y-0009272D01*
X0016890Y-0008823D02*
Y-0009261D01*
X0016873Y-0008812D02*
Y-0009251D01*
X0016855Y-0008802D02*
Y-0009241D01*
X0016837Y-0008792D02*
Y-0009231D01*
X0016820Y-0008782D02*
Y-0009221D01*
X0016802Y-0008813D02*
Y-0009210D01*
X0016784Y-0008843D02*
Y-0009200D01*
X0016767Y-0008874D02*
Y-0009190D01*
X0016749Y-0008905D02*
Y-0009180D01*
X0016731Y-0008935D02*
Y-0009169D01*
X0016714Y-0008966D02*
Y-0009159D01*
X0016696Y-0008997D02*
Y-0009149D01*
X0016678Y-0009027D02*
Y-0009139D01*
X0016661Y-0009058D02*
Y-0009129D01*
X0016643Y-0009089D02*
Y-0009118D01*
X0016833Y-0008790D02*
X0016815D01*
X0016864Y-0008807D02*
X0016805D01*
X0016895Y-0008825D02*
X0016795D01*
X0016925Y-0008843D02*
X0016785D01*
X0016956Y-0008860D02*
X0016775D01*
X0016987Y-0008878D02*
X0016764D01*
X0017017Y-0008896D02*
X0016754D01*
X0017048Y-0008913D02*
X0016744D01*
X0017078Y-0008931D02*
X0016734D01*
X0017109Y-0008949D02*
X0016724D01*
X0017140Y-0008967D02*
X0016713D01*
X0017170Y-0008984D02*
X0016703D01*
X0017201Y-0009002D02*
X0016693D01*
X0017232Y-0009020D02*
X0016683D01*
X0017227Y-0009037D02*
X0016672D01*
X0017216Y-0009055D02*
X0016662D01*
X0017206Y-0009073D02*
X0016652D01*
X0017196Y-0009090D02*
X0016642D01*
X0017186Y-0009108D02*
X0016632D01*
X0017176Y-0009126D02*
X0016656D01*
X0017165Y-0009143D02*
X0016686D01*
X0017155Y-0009161D02*
X0016717D01*
X0017145Y-0009179D02*
X0016747D01*
X0017135Y-0009196D02*
X0016778D01*
X0017125Y-0009214D02*
X0016809D01*
X0017114Y-0009232D02*
X0016839D01*
X0017104Y-0009250D02*
X0016870D01*
X0017094Y-0009267D02*
X0016901D01*
X0017084Y-0009285D02*
X0016931D01*
X0017073Y-0009303D02*
X0016962D01*
X0017063Y-0009320D02*
X0016993D01*
X0017053Y-0009338D02*
X0017023D01*
X0016820Y-0008782D02*
X0017236Y-0009022D01*
X0017046Y-0009351D01*
X0016630Y-0009111D02*
X0017046Y-0009351D01*
X0016820Y-0008782D02*
X0016630Y-0009111D01*
X0017227Y-0009017D02*
Y-0009038D01*
X0017209Y-0009006D02*
Y-0009068D01*
X0017191Y-0008996D02*
Y-0009099D01*
X0017173Y-0008986D02*
Y-0009129D01*
X0017156Y-0008976D02*
Y-0009160D01*
X0017138Y-0008966D02*
Y-0009191D01*
X0017120Y-0008955D02*
Y-0009221D01*
X0017103Y-0008945D02*
Y-0009252D01*
X0017085Y-0008935D02*
Y-0009283D01*
X0017067Y-0008925D02*
Y-0009313D01*
X0017050Y-0008915D02*
Y-0009344D01*
X0017032Y-0008904D02*
Y-0009343D01*
X0017014Y-0008894D02*
Y-0009333D01*
X0017277Y-0008399D02*
Y-0008838D01*
X0017259Y-0008389D02*
Y-0008827D01*
X0017241Y-0008379D02*
Y-0008817D01*
X0017224Y-0008368D02*
Y-0008807D01*
X0017206Y-0008358D02*
Y-0008797D01*
X0017188Y-0008348D02*
Y-0008787D01*
X0017170Y-0008338D02*
Y-0008776D01*
X0017153Y-0008327D02*
Y-0008766D01*
X0017135Y-0008317D02*
Y-0008756D01*
X0017117Y-0008307D02*
Y-0008746D01*
X0017100Y-0008297D02*
Y-0008736D01*
X0017082Y-0008328D02*
Y-0008725D01*
X0017064Y-0008358D02*
Y-0008715D01*
X0017047Y-0008389D02*
Y-0008705D01*
X0017029Y-0008420D02*
Y-0008695D01*
X0017011Y-0008450D02*
Y-0008684D01*
X0016994Y-0008481D02*
Y-0008674D01*
X0016976Y-0008512D02*
Y-0008664D01*
X0016958Y-0008542D02*
Y-0008654D01*
X0016941Y-0008573D02*
Y-0008644D01*
X0016923Y-0008604D02*
Y-0008633D01*
X0017113Y-0008305D02*
X0017095D01*
X0017144Y-0008322D02*
X0017085D01*
X0017175Y-0008340D02*
X0017075D01*
X0017205Y-0008358D02*
X0017065D01*
X0017236Y-0008375D02*
X0017055D01*
X0017267Y-0008393D02*
X0017044D01*
X0017297Y-0008411D02*
X0017034D01*
X0017328Y-0008428D02*
X0017024D01*
X0017358Y-0008446D02*
X0017014D01*
X0017389Y-0008464D02*
X0017004D01*
X0017420Y-0008482D02*
X0016993D01*
X0017450Y-0008499D02*
X0016983D01*
X0017481Y-0008517D02*
X0016973D01*
X0017512Y-0008535D02*
X0016963D01*
X0017507Y-0008552D02*
X0016952D01*
X0017496Y-0008570D02*
X0016942D01*
X0017486Y-0008588D02*
X0016932D01*
X0017476Y-0008605D02*
X0016922D01*
X0017466Y-0008623D02*
X0016912D01*
X0017456Y-0008641D02*
X0016936D01*
X0017445Y-0008658D02*
X0016966D01*
X0017435Y-0008676D02*
X0016997D01*
X0017425Y-0008694D02*
X0017027D01*
X0017415Y-0008711D02*
X0017058D01*
X0017405Y-0008729D02*
X0017089D01*
X0017394Y-0008747D02*
X0017119D01*
X0017384Y-0008765D02*
X0017150D01*
X0017374Y-0008782D02*
X0017181D01*
X0017364Y-0008800D02*
X0017211D01*
X0017353Y-0008818D02*
X0017242D01*
X0017343Y-0008835D02*
X0017273D01*
X0017333Y-0008853D02*
X0017303D01*
X0016910Y-0008626D02*
X0017326Y-0008866D01*
X0017100Y-0008297D02*
X0016910Y-0008626D01*
X0017100Y-0008297D02*
X0017516Y-0008537D01*
X0017326Y-0008866D01*
X0017507Y-0008532D02*
Y-0008553D01*
X0017489Y-0008521D02*
Y-0008583D01*
X0017471Y-0008511D02*
Y-0008614D01*
X0017453Y-0008501D02*
Y-0008644D01*
X0017436Y-0008491D02*
Y-0008675D01*
X0017418Y-0008481D02*
Y-0008706D01*
X0017400Y-0008470D02*
Y-0008736D01*
X0017383Y-0008460D02*
Y-0008767D01*
X0017365Y-0008450D02*
Y-0008798D01*
X0017347Y-0008440D02*
Y-0008828D01*
X0017330Y-0008430D02*
Y-0008859D01*
X0017312Y-0008419D02*
Y-0008858D01*
X0017294Y-0008409D02*
Y-0008848D01*
X0017425Y0012251D02*
Y0011702D01*
X0017407Y0012246D02*
Y0011691D01*
X0017389Y0012235D02*
Y0011681D01*
X0017372Y0012225D02*
Y0011671D01*
X0017354Y0012215D02*
Y0011661D01*
X0017336Y0012205D02*
Y0011651D01*
X0017318Y0012195D02*
Y0011675D01*
X0017301Y0012184D02*
Y0011705D01*
X0017283Y0012174D02*
Y0011736D01*
X0017265Y0012164D02*
Y0011766D01*
X0017248Y0012154D02*
Y0011797D01*
X0017230Y0012144D02*
Y0011828D01*
X0017212Y0012133D02*
Y0011858D01*
X0017195Y0012123D02*
Y0011889D01*
X0017177Y0012113D02*
Y0011920D01*
X0017159Y0012103D02*
Y0011950D01*
X0017142Y0012092D02*
Y0011981D01*
X0017124Y0012082D02*
Y0012012D01*
X0017106Y0012072D02*
Y0012042D01*
X0017427Y0012246D02*
X0017407D01*
X0017438Y0012228D02*
X0017376D01*
X0017448Y0012210D02*
X0017345D01*
X0017458Y0012192D02*
X0017315D01*
X0017468Y0012175D02*
X0017284D01*
X0017479Y0012157D02*
X0017253D01*
X0017489Y0012139D02*
X0017223D01*
X0017499Y0012122D02*
X0017192D01*
X0017509Y0012104D02*
X0017162D01*
X0017519Y0012086D02*
X0017131D01*
X0017530Y0012069D02*
X0017100D01*
X0017540Y0012051D02*
X0017101D01*
X0017550Y0012033D02*
X0017111D01*
X0017560Y0012016D02*
X0017122D01*
X0017570Y0011998D02*
X0017132D01*
X0017581Y0011980D02*
X0017142D01*
X0017591Y0011963D02*
X0017152D01*
X0017601Y0011945D02*
X0017162D01*
X0017611Y0011927D02*
X0017173D01*
X0017622Y0011909D02*
X0017183D01*
X0017632Y0011892D02*
X0017193D01*
X0017642Y0011874D02*
X0017203D01*
X0017652Y0011856D02*
X0017213D01*
X0017662Y0011839D02*
X0017224D01*
X0017631Y0011821D02*
X0017234D01*
X0017601Y0011803D02*
X0017244D01*
X0017570Y0011786D02*
X0017254D01*
X0017539Y0011768D02*
X0017265D01*
X0017509Y0011750D02*
X0017275D01*
X0017478Y0011733D02*
X0017285D01*
X0017448Y0011715D02*
X0017295D01*
X0017417Y0011697D02*
X0017305D01*
X0017386Y0011680D02*
X0017316D01*
X0017356Y0011662D02*
X0017326D01*
X0017093Y0012065D02*
X0017333Y0011649D01*
X0017422Y0012255D02*
X0017093Y0012065D01*
X0017422Y0012255D02*
X0017662Y0011839D01*
X0017333Y0011649D01*
X0017655Y0011852D02*
Y0011834D01*
X0017637Y0011883D02*
Y0011824D01*
X0017619Y0011914D02*
Y0011814D01*
X0017601Y0011944D02*
Y0011804D01*
X0017584Y0011975D02*
Y0011794D01*
X0017566Y0012006D02*
Y0011783D01*
X0017548Y0012036D02*
Y0011773D01*
X0017531Y0012067D02*
Y0011763D01*
X0017513Y0012097D02*
Y0011753D01*
X0017495Y0012128D02*
Y0011743D01*
X0017478Y0012159D02*
Y0011732D01*
X0017460Y0012189D02*
Y0011722D01*
X0017442Y0012220D02*
Y0011712D01*
X0016940Y0011971D02*
Y0011422D01*
X0016922Y0011966D02*
Y0011411D01*
X0016904Y0011956D02*
Y0011401D01*
X0016887Y0011946D02*
Y0011391D01*
X0016869Y0011935D02*
Y0011381D01*
X0016851Y0011925D02*
Y0011371D01*
X0016833Y0011915D02*
Y0011395D01*
X0016816Y0011905D02*
Y0011425D01*
X0016798Y0011894D02*
Y0011456D01*
X0016780Y0011884D02*
Y0011486D01*
X0016763Y0011874D02*
Y0011517D01*
X0016745Y0011864D02*
Y0011548D01*
X0016727Y0011853D02*
Y0011578D01*
X0016710Y0011843D02*
Y0011609D01*
X0016692Y0011833D02*
Y0011640D01*
X0016674Y0011823D02*
Y0011670D01*
X0016657Y0011813D02*
Y0011701D01*
X0016639Y0011802D02*
Y0011732D01*
X0016621Y0011792D02*
Y0011762D01*
X0016943Y0011966D02*
X0016921D01*
X0016953Y0011948D02*
X0016890D01*
X0016963Y0011930D02*
X0016860D01*
X0016973Y0011912D02*
X0016829D01*
X0016984Y0011895D02*
X0016799D01*
X0016994Y0011877D02*
X0016768D01*
X0017004Y0011859D02*
X0016738D01*
X0017014Y0011842D02*
X0016707D01*
X0017024Y0011824D02*
X0016676D01*
X0017035Y0011806D02*
X0016646D01*
X0017045Y0011789D02*
X0016615D01*
X0017055Y0011771D02*
X0016616D01*
X0017065Y0011753D02*
X0016626D01*
X0017076Y0011736D02*
X0016637D01*
X0017086Y0011718D02*
X0016647D01*
X0017096Y0011700D02*
X0016657D01*
X0017106Y0011683D02*
X0016667D01*
X0017116Y0011665D02*
X0016677D01*
X0017127Y0011647D02*
X0016688D01*
X0017137Y0011629D02*
X0016698D01*
X0017147Y0011612D02*
X0016708D01*
X0017157Y0011594D02*
X0016718D01*
X0017167Y0011576D02*
X0016728D01*
X0017178Y0011559D02*
X0016739D01*
X0017147Y0011541D02*
X0016749D01*
X0017116Y0011523D02*
X0016759D01*
X0017085Y0011506D02*
X0016769D01*
X0017055Y0011488D02*
X0016780D01*
X0017024Y0011470D02*
X0016790D01*
X0016993Y0011453D02*
X0016800D01*
X0016963Y0011435D02*
X0016810D01*
X0016932Y0011417D02*
X0016820D01*
X0016901Y0011400D02*
X0016831D01*
X0016871Y0011382D02*
X0016841D01*
X0016937Y0011975D02*
X0017178Y0011559D01*
X0016848Y0011369D01*
X0016608Y0011785D02*
X0016848Y0011369D01*
X0016937Y0011975D02*
X0016608Y0011785D01*
X0017170Y0011573D02*
Y0011554D01*
X0017152Y0011604D02*
Y0011544D01*
X0017134Y0011634D02*
Y0011534D01*
X0017116Y0011665D02*
Y0011524D01*
X0017099Y0011695D02*
Y0011513D01*
X0017081Y0011726D02*
Y0011503D01*
X0017063Y0011757D02*
Y0011493D01*
X0017046Y0011787D02*
Y0011483D01*
X0017028Y0011818D02*
Y0011473D01*
X0017010Y0011848D02*
Y0011462D01*
X0016993Y0011879D02*
Y0011452D01*
X0016975Y0011910D02*
Y0011442D01*
X0016957Y0011940D02*
Y0011432D01*
X-0019904Y-0003981D02*
Y-0004374D01*
X-0019922Y-0003986D02*
Y-0004379D01*
X-0019940Y-0003990D02*
Y-0004384D01*
X-0019957Y-0003995D02*
Y-0004388D01*
X-0019975Y-0004000D02*
Y-0004393D01*
X-0019993Y-0004005D02*
Y-0004398D01*
X-0020011Y-0004009D02*
Y-0004403D01*
X-0020028Y-0004014D02*
Y-0004407D01*
X-0020046Y-0004019D02*
Y-0004412D01*
X-0020064Y-0004023D02*
Y-0004357D01*
X-0020081Y-0004028D02*
Y-0004291D01*
X-0020099Y-0004033D02*
Y-0004226D01*
X-0020117Y-0004038D02*
Y-0004160D01*
X-0020134Y-0004042D02*
Y-0004094D01*
X-0019678Y-0003940D02*
X-0019752D01*
X-0019674Y-0003958D02*
X-0019818D01*
X-0019669Y-0003975D02*
X-0019884D01*
X-0019664Y-0003993D02*
X-0019950D01*
X-0019659Y-0004011D02*
X-0020016D01*
X-0019655Y-0004029D02*
X-0020082D01*
X-0019650Y-0004046D02*
X-0020147D01*
X-0019645Y-0004064D02*
X-0020142D01*
X-0019640Y-0004082D02*
X-0020138D01*
X-0019636Y-0004099D02*
X-0020133D01*
X-0019631Y-0004117D02*
X-0020128D01*
X-0019626Y-0004135D02*
X-0020123D01*
X-0019621Y-0004152D02*
X-0020119D01*
X-0019617Y-0004170D02*
X-0020114D01*
X-0019612Y-0004188D02*
X-0020109D01*
X-0019607Y-0004205D02*
X-0020104D01*
X-0019602Y-0004223D02*
X-0020100D01*
X-0019598Y-0004241D02*
X-0020095D01*
X-0019593Y-0004258D02*
X-0020090D01*
X-0019588Y-0004276D02*
X-0020085D01*
X-0019605Y-0004294D02*
X-0020081D01*
X-0019671Y-0004312D02*
X-0020076D01*
X-0019736Y-0004329D02*
X-0020071D01*
X-0019802Y-0004347D02*
X-0020066D01*
X-0019868Y-0004365D02*
X-0020062D01*
X-0019934Y-0004382D02*
X-0020057D01*
X-0020000Y-0004400D02*
X-0020052D01*
X-0019585Y-0004289D02*
X-0020049Y-0004413D01*
X-0020147Y-0004046D02*
X-0020049Y-0004413D01*
X-0019683Y-0003922D02*
X-0020147Y-0004046D01*
X-0019683Y-0003922D02*
X-0019585Y-0004289D01*
X-0019604Y-0004219D02*
Y-0004294D01*
X-0019621Y-0004153D02*
Y-0004298D01*
X-0019639Y-0004087D02*
Y-0004303D01*
X-0019657Y-0004020D02*
Y-0004308D01*
X-0019674Y-0003954D02*
Y-0004313D01*
X-0019692Y-0003924D02*
Y-0004317D01*
X-0019710Y-0003929D02*
Y-0004322D01*
X-0019728Y-0003933D02*
Y-0004327D01*
X-0019745Y-0003938D02*
Y-0004332D01*
X-0019763Y-0003943D02*
Y-0004336D01*
X-0019781Y-0003948D02*
Y-0004341D01*
X-0019798Y-0003952D02*
Y-0004346D01*
X-0019816Y-0003957D02*
Y-0004351D01*
X-0019834Y-0003962D02*
Y-0004355D01*
X-0019851Y-0003967D02*
Y-0004360D01*
X-0019869Y-0003971D02*
Y-0004365D01*
X-0019887Y-0003976D02*
Y-0004370D01*
X-0019759Y-0004522D02*
Y-0004915D01*
X-0019777Y-0004526D02*
Y-0004920D01*
X-0019795Y-0004531D02*
Y-0004925D01*
X-0019812Y-0004536D02*
Y-0004929D01*
X-0019830Y-0004541D02*
Y-0004934D01*
X-0019848Y-0004545D02*
Y-0004939D01*
X-0019866Y-0004550D02*
Y-0004944D01*
X-0019883Y-0004555D02*
Y-0004948D01*
X-0019901Y-0004559D02*
Y-0004953D01*
X-0019919Y-0004564D02*
Y-0004899D01*
X-0019936Y-0004569D02*
Y-0004833D01*
X-0019954Y-0004574D02*
Y-0004767D01*
X-0019972Y-0004578D02*
Y-0004701D01*
X-0019989Y-0004583D02*
Y-0004635D01*
X-0019534Y-0004481D02*
X-0019608D01*
X-0019529Y-0004499D02*
X-0019674D01*
X-0019524Y-0004516D02*
X-0019740D01*
X-0019519Y-0004534D02*
X-0019806D01*
X-0019515Y-0004552D02*
X-0019872D01*
X-0019510Y-0004570D02*
X-0019939D01*
X-0019505Y-0004587D02*
X-0020002D01*
X-0019500Y-0004605D02*
X-0019997D01*
X-0019496Y-0004623D02*
X-0019993D01*
X-0019491Y-0004640D02*
X-0019988D01*
X-0019486Y-0004658D02*
X-0019983D01*
X-0019481Y-0004676D02*
X-0019978D01*
X-0019477Y-0004693D02*
X-0019974D01*
X-0019472Y-0004711D02*
X-0019969D01*
X-0019467Y-0004729D02*
X-0019964D01*
X-0019462Y-0004746D02*
X-0019959D01*
X-0019458Y-0004764D02*
X-0019955D01*
X-0019453Y-0004782D02*
X-0019950D01*
X-0019448Y-0004799D02*
X-0019945D01*
X-0019443Y-0004817D02*
X-0019941D01*
X-0019460Y-0004835D02*
X-0019936D01*
X-0019526Y-0004853D02*
X-0019931D01*
X-0019592Y-0004870D02*
X-0019926D01*
X-0019658Y-0004888D02*
X-0019922D01*
X-0019724Y-0004906D02*
X-0019917D01*
X-0019790Y-0004923D02*
X-0019912D01*
X-0019856Y-0004941D02*
X-0019907D01*
X-0019539Y-0004463D02*
X-0020002Y-0004587D01*
X-0019539Y-0004463D02*
X-0019440Y-0004830D01*
X-0019904Y-0004954D01*
X-0020002Y-0004587D02*
X-0019904Y-0004954D01*
X-0019459Y-0004760D02*
Y-0004835D01*
X-0019476Y-0004694D02*
Y-0004839D01*
X-0019494Y-0004628D02*
Y-0004844D01*
X-0019512Y-0004562D02*
Y-0004849D01*
X-0019529Y-0004497D02*
Y-0004854D01*
X-0019547Y-0004465D02*
Y-0004858D01*
X-0019565Y-0004470D02*
Y-0004863D01*
X-0019583Y-0004474D02*
Y-0004868D01*
X-0019600Y-0004479D02*
Y-0004873D01*
X-0019618Y-0004484D02*
Y-0004877D01*
X-0019636Y-0004489D02*
Y-0004882D01*
X-0019653Y-0004493D02*
Y-0004887D01*
X-0019671Y-0004498D02*
Y-0004891D01*
X-0019689Y-0004503D02*
Y-0004896D01*
X-0019706Y-0004507D02*
Y-0004901D01*
X-0019724Y-0004512D02*
Y-0004906D01*
X-0019742Y-0004517D02*
Y-0004910D01*
X-0019602Y-0006615D02*
Y-0007112D01*
X-0019620Y-0006620D02*
Y-0007117D01*
X-0019638Y-0006625D02*
Y-0007122D01*
X-0019656Y-0006629D02*
Y-0007107D01*
X-0019673Y-0006634D02*
Y-0007041D01*
X-0019691Y-0006639D02*
Y-0006974D01*
X-0019709Y-0006644D02*
Y-0006908D01*
X-0019726Y-0006648D02*
Y-0006842D01*
X-0019744Y-0006653D02*
Y-0006776D01*
X-0019762Y-0006658D02*
Y-0006710D01*
X-0019403Y-0006582D02*
X-0019478D01*
X-0019398Y-0006599D02*
X-0019544D01*
X-0019393Y-0006617D02*
X-0019610D01*
X-0019388Y-0006635D02*
X-0019676D01*
X-0019384Y-0006652D02*
X-0019742D01*
X-0019379Y-0006670D02*
X-0019772D01*
X-0019374Y-0006688D02*
X-0019767D01*
X-0019369Y-0006706D02*
X-0019763D01*
X-0019365Y-0006723D02*
X-0019758D01*
X-0019360Y-0006741D02*
X-0019753D01*
X-0019355Y-0006759D02*
X-0019749D01*
X-0019350Y-0006776D02*
X-0019744D01*
X-0019346Y-0006794D02*
X-0019739D01*
X-0019341Y-0006812D02*
X-0019734D01*
X-0019336Y-0006829D02*
X-0019730D01*
X-0019331Y-0006847D02*
X-0019725D01*
X-0019327Y-0006865D02*
X-0019720D01*
X-0019322Y-0006882D02*
X-0019715D01*
X-0019317Y-0006900D02*
X-0019711D01*
X-0019312Y-0006918D02*
X-0019706D01*
X-0019308Y-0006935D02*
X-0019701D01*
X-0019303Y-0006953D02*
X-0019697D01*
X-0019298Y-0006971D02*
X-0019692D01*
X-0019293Y-0006989D02*
X-0019687D01*
X-0019289Y-0007006D02*
X-0019682D01*
X-0019284Y-0007024D02*
X-0019678D01*
X-0019339Y-0007042D02*
X-0019673D01*
X-0019405Y-0007059D02*
X-0019668D01*
X-0019471Y-0007077D02*
X-0019663D01*
X-0019537Y-0007095D02*
X-0019659D01*
X-0019602Y-0007112D02*
X-0019654D01*
X-0019408Y-0006563D02*
X-0019283Y-0007027D01*
X-0019651Y-0007125D01*
X-0019775Y-0006661D02*
X-0019651Y-0007125D01*
X-0019408Y-0006563D02*
X-0019775Y-0006661D01*
X-0019302Y-0006958D02*
Y-0007032D01*
X-0019319Y-0006892D02*
Y-0007036D01*
X-0019337Y-0006826D02*
Y-0007041D01*
X-0019355Y-0006760D02*
Y-0007046D01*
X-0019373Y-0006694D02*
Y-0007051D01*
X-0019390Y-0006628D02*
Y-0007055D01*
X-0019408Y-0006563D02*
Y-0007060D01*
X-0019426Y-0006568D02*
Y-0007065D01*
X-0019443Y-0006572D02*
Y-0007070D01*
X-0019461Y-0006577D02*
Y-0007074D01*
X-0019479Y-0006582D02*
Y-0007079D01*
X-0019496Y-0006587D02*
Y-0007084D01*
X-0019514Y-0006591D02*
Y-0007089D01*
X-0019532Y-0006596D02*
Y-0007093D01*
X-0019549Y-0006601D02*
Y-0007098D01*
X-0019567Y-0006606D02*
Y-0007103D01*
X-0019585Y-0006610D02*
Y-0007108D01*
X-0019062Y-0006470D02*
Y-0006967D01*
X-0019079Y-0006475D02*
Y-0006972D01*
X-0019097Y-0006480D02*
Y-0006977D01*
X-0019115Y-0006485D02*
Y-0006961D01*
X-0019133Y-0006489D02*
Y-0006895D01*
X-0019150Y-0006494D02*
Y-0006829D01*
X-0019168Y-0006499D02*
Y-0006763D01*
X-0019186Y-0006504D02*
Y-0006697D01*
X-0019203Y-0006508D02*
Y-0006631D01*
X-0019221Y-0006513D02*
Y-0006565D01*
X-0018862Y-0006437D02*
X-0018936D01*
X-0018857Y-0006454D02*
X-0019002D01*
X-0018852Y-0006472D02*
X-0019068D01*
X-0018847Y-0006490D02*
X-0019134D01*
X-0018843Y-0006507D02*
X-0019200D01*
X-0018838Y-0006525D02*
X-0019232D01*
X-0018833Y-0006543D02*
X-0019227D01*
X-0018828Y-0006561D02*
X-0019222D01*
X-0018824Y-0006578D02*
X-0019217D01*
X-0018819Y-0006596D02*
X-0019213D01*
X-0018814Y-0006614D02*
X-0019208D01*
X-0018810Y-0006631D02*
X-0019203D01*
X-0018805Y-0006649D02*
X-0019198D01*
X-0018800Y-0006667D02*
X-0019194D01*
X-0018795Y-0006684D02*
X-0019189D01*
X-0018791Y-0006702D02*
X-0019184D01*
X-0018786Y-0006720D02*
X-0019179D01*
X-0018781Y-0006737D02*
X-0019175D01*
X-0018776Y-0006755D02*
X-0019170D01*
X-0018772Y-0006773D02*
X-0019165D01*
X-0018767Y-0006790D02*
X-0019160D01*
X-0018762Y-0006808D02*
X-0019156D01*
X-0018758Y-0006826D02*
X-0019151D01*
X-0018753Y-0006844D02*
X-0019146D01*
X-0018748Y-0006861D02*
X-0019142D01*
X-0018743Y-0006879D02*
X-0019137D01*
X-0018797Y-0006897D02*
X-0019132D01*
X-0018863Y-0006914D02*
X-0019127D01*
X-0018929Y-0006932D02*
X-0019123D01*
X-0018995Y-0006950D02*
X-0019118D01*
X-0019061Y-0006967D02*
X-0019113D01*
X-0019234Y-0006517D02*
X-0019110Y-0006980D01*
X-0018867Y-0006418D02*
X-0019234Y-0006517D01*
X-0018867Y-0006418D02*
X-0018743Y-0006882D01*
X-0019110Y-0006980D01*
X-0018761Y-0006813D02*
Y-0006887D01*
X-0018779Y-0006746D02*
Y-0006892D01*
X-0018796Y-0006680D02*
Y-0006896D01*
X-0018814Y-0006614D02*
Y-0006901D01*
X-0018832Y-0006548D02*
Y-0006906D01*
X-0018850Y-0006482D02*
Y-0006911D01*
X-0018867Y-0006418D02*
Y-0006915D01*
X-0018885Y-0006423D02*
Y-0006920D01*
X-0018903Y-0006428D02*
Y-0006925D01*
X-0018920Y-0006432D02*
Y-0006930D01*
X-0018938Y-0006437D02*
Y-0006934D01*
X-0018956Y-0006442D02*
Y-0006939D01*
X-0018973Y-0006447D02*
Y-0006944D01*
X-0018991Y-0006451D02*
Y-0006948D01*
X-0019009Y-0006456D02*
Y-0006953D01*
X-0019026Y-0006461D02*
Y-0006958D01*
X-0019044Y-0006466D02*
Y-0006963D01*
X-0016348Y-0011780D02*
Y-0012290D01*
X-0016366Y-0011759D02*
Y-0012305D01*
X-0016384Y-0011738D02*
Y-0012319D01*
X-0016401Y-0011717D02*
Y-0012308D01*
X-0016419Y-0011722D02*
Y-0012287D01*
X-0016437Y-0011737D02*
Y-0012266D01*
X-0016454Y-0011752D02*
Y-0012245D01*
X-0016472Y-0011767D02*
Y-0012224D01*
X-0016490Y-0011782D02*
Y-0012203D01*
X-0016507Y-0011796D02*
Y-0012182D01*
X-0016525Y-0011811D02*
Y-0012161D01*
X-0016543Y-0011826D02*
Y-0012140D01*
X-0016561Y-0011841D02*
Y-0012119D01*
X-0016578Y-0011856D02*
Y-0012098D01*
X-0016596Y-0011871D02*
Y-0012076D01*
X-0016614Y-0011885D02*
Y-0012055D01*
X-0016631Y-0011900D02*
Y-0012034D01*
X-0016649Y-0011915D02*
Y-0012013D01*
X-0016667Y-0011930D02*
Y-0011992D01*
X-0016684Y-0011945D02*
Y-0011971D01*
X-0016393Y-0011727D02*
X-0016425D01*
X-0016378Y-0011745D02*
X-0016446D01*
X-0016363Y-0011762D02*
X-0016467D01*
X-0016348Y-0011780D02*
X-0016488D01*
X-0016333Y-0011798D02*
X-0016509D01*
X-0016318Y-0011815D02*
X-0016530D01*
X-0016304Y-0011833D02*
X-0016551D01*
X-0016289Y-0011851D02*
X-0016572D01*
X-0016274Y-0011868D02*
X-0016593D01*
X-0016259Y-0011886D02*
X-0016614D01*
X-0016244Y-0011904D02*
X-0016636D01*
X-0016229Y-0011922D02*
X-0016657D01*
X-0016215Y-0011939D02*
X-0016678D01*
X-0016200Y-0011957D02*
X-0016696D01*
X-0016185Y-0011975D02*
X-0016681D01*
X-0016170Y-0011992D02*
X-0016666D01*
X-0016155Y-0012010D02*
X-0016652D01*
X-0016140Y-0012028D02*
X-0016637D01*
X-0016125Y-0012045D02*
X-0016622D01*
X-0016111Y-0012063D02*
X-0016607D01*
X-0016099Y-0012081D02*
X-0016592D01*
X-0016120Y-0012098D02*
X-0016577D01*
X-0016142Y-0012116D02*
X-0016563D01*
X-0016163Y-0012134D02*
X-0016548D01*
X-0016184Y-0012151D02*
X-0016533D01*
X-0016205Y-0012169D02*
X-0016518D01*
X-0016226Y-0012187D02*
X-0016503D01*
X-0016247Y-0012205D02*
X-0016488D01*
X-0016268Y-0012222D02*
X-0016474D01*
X-0016289Y-0012240D02*
X-0016459D01*
X-0016310Y-0012258D02*
X-0016444D01*
X-0016331Y-0012275D02*
X-0016429D01*
X-0016352Y-0012293D02*
X-0016414D01*
X-0016373Y-0012311D02*
X-0016399D01*
X-0016406Y-0011711D02*
X-0016097Y-0012079D01*
X-0016389Y-0012324D01*
X-0016697Y-0011956D02*
X-0016389Y-0012324D01*
X-0016406Y-0011711D02*
X-0016697Y-0011956D01*
X-0016118Y-0012054D02*
Y-0012097D01*
X-0016136Y-0012033D02*
Y-0012111D01*
X-0016154Y-0012012D02*
Y-0012126D01*
X-0016171Y-0011991D02*
Y-0012141D01*
X-0016189Y-0011970D02*
Y-0012156D01*
X-0016207Y-0011948D02*
Y-0012171D01*
X-0016224Y-0011927D02*
Y-0012186D01*
X-0016242Y-0011906D02*
Y-0012201D01*
X-0016260Y-0011885D02*
Y-0012215D01*
X-0016278Y-0011864D02*
Y-0012230D01*
X-0016295Y-0011843D02*
Y-0012245D01*
X-0016313Y-0011822D02*
Y-0012260D01*
X-0016331Y-0011801D02*
Y-0012275D01*
X-0015919Y-0011420D02*
Y-0011930D01*
X-0015937Y-0011399D02*
Y-0011945D01*
X-0015955Y-0011378D02*
Y-0011959D01*
X-0015972Y-0011357D02*
Y-0011948D01*
X-0015990Y-0011362D02*
Y-0011927D01*
X-0016008Y-0011377D02*
Y-0011906D01*
X-0016025Y-0011392D02*
Y-0011885D01*
X-0016043Y-0011407D02*
Y-0011864D01*
X-0016061Y-0011422D02*
Y-0011843D01*
X-0016078Y-0011437D02*
Y-0011822D01*
X-0016096Y-0011451D02*
Y-0011801D01*
X-0016114Y-0011466D02*
Y-0011780D01*
X-0016132Y-0011481D02*
Y-0011759D01*
X-0016149Y-0011496D02*
Y-0011738D01*
X-0016167Y-0011511D02*
Y-0011717D01*
X-0016185Y-0011526D02*
Y-0011696D01*
X-0016202Y-0011540D02*
Y-0011675D01*
X-0016220Y-0011555D02*
Y-0011653D01*
X-0016238Y-0011570D02*
Y-0011632D01*
X-0016255Y-0011585D02*
Y-0011611D01*
X-0015964Y-0011367D02*
X-0015996D01*
X-0015949Y-0011385D02*
X-0016017D01*
X-0015934Y-0011402D02*
X-0016038D01*
X-0015919Y-0011420D02*
X-0016059D01*
X-0015904Y-0011438D02*
X-0016080D01*
X-0015890Y-0011455D02*
X-0016101D01*
X-0015875Y-0011473D02*
X-0016122D01*
X-0015860Y-0011491D02*
X-0016143D01*
X-0015845Y-0011508D02*
X-0016164D01*
X-0015830Y-0011526D02*
X-0016185D01*
X-0015815Y-0011544D02*
X-0016206D01*
X-0015801Y-0011562D02*
X-0016227D01*
X-0015786Y-0011579D02*
X-0016248D01*
X-0015771Y-0011597D02*
X-0016267D01*
X-0015756Y-0011615D02*
X-0016253D01*
X-0015741Y-0011632D02*
X-0016238D01*
X-0015726Y-0011650D02*
X-0016223D01*
X-0015712Y-0011668D02*
X-0016208D01*
X-0015697Y-0011685D02*
X-0016193D01*
X-0015682Y-0011703D02*
X-0016178D01*
X-0015670Y-0011721D02*
X-0016163D01*
X-0015691Y-0011738D02*
X-0016149D01*
X-0015712Y-0011756D02*
X-0016134D01*
X-0015733Y-0011774D02*
X-0016119D01*
X-0015754Y-0011791D02*
X-0016104D01*
X-0015775Y-0011809D02*
X-0016089D01*
X-0015797Y-0011827D02*
X-0016074D01*
X-0015818Y-0011845D02*
X-0016060D01*
X-0015839Y-0011862D02*
X-0016045D01*
X-0015860Y-0011880D02*
X-0016030D01*
X-0015881Y-0011898D02*
X-0016015D01*
X-0015902Y-0011915D02*
X-0016000D01*
X-0015923Y-0011933D02*
X-0015985D01*
X-0015944Y-0011951D02*
X-0015970D01*
X-0016268Y-0011596D02*
X-0015960Y-0011964D01*
X-0015977Y-0011351D02*
X-0016268Y-0011596D01*
X-0015977Y-0011351D02*
X-0015668Y-0011719D01*
X-0015960Y-0011964D01*
X-0015689Y-0011694D02*
Y-0011737D01*
X-0015707Y-0011673D02*
Y-0011752D01*
X-0015725Y-0011652D02*
Y-0011767D01*
X-0015742Y-0011631D02*
Y-0011781D01*
X-0015760Y-0011610D02*
Y-0011796D01*
X-0015778Y-0011589D02*
Y-0011811D01*
X-0015795Y-0011568D02*
Y-0011826D01*
X-0015813Y-0011547D02*
Y-0011841D01*
X-0015831Y-0011525D02*
Y-0011856D01*
X-0015849Y-0011504D02*
Y-0011870D01*
X-0015866Y-0011483D02*
Y-0011885D01*
X-0015884Y-0011462D02*
Y-0011900D01*
X-0015902Y-0011441D02*
Y-0011915D01*
X0017598Y-0010503D02*
Y-0011053D01*
X0017580Y-0010493D02*
Y-0011048D01*
X0017563Y-0010483D02*
Y-0011037D01*
X0017545Y-0010472D02*
Y-0011027D01*
X0017527Y-0010462D02*
Y-0011017D01*
X0017509Y-0010452D02*
Y-0011007D01*
X0017492Y-0010477D02*
Y-0010996D01*
X0017474Y-0010507D02*
Y-0010986D01*
X0017456Y-0010538D02*
Y-0010976D01*
X0017439Y-0010569D02*
Y-0010966D01*
X0017421Y-0010599D02*
Y-0010956D01*
X0017403Y-0010630D02*
Y-0010945D01*
X0017386Y-0010660D02*
Y-0010935D01*
X0017368Y-0010691D02*
Y-0010925D01*
X0017350Y-0010722D02*
Y-0010915D01*
X0017333Y-0010752D02*
Y-0010904D01*
X0017315Y-0010783D02*
Y-0010894D01*
X0017297Y-0010813D02*
Y-0010884D01*
X0017280Y-0010844D02*
Y-0010874D01*
X0017523Y-0010460D02*
X0017501D01*
X0017554Y-0010478D02*
X0017491D01*
X0017584Y-0010495D02*
X0017481D01*
X0017615Y-0010513D02*
X0017471D01*
X0017646Y-0010531D02*
X0017461D01*
X0017676Y-0010548D02*
X0017450D01*
X0017707Y-0010566D02*
X0017440D01*
X0017738Y-0010584D02*
X0017430D01*
X0017768Y-0010601D02*
X0017420D01*
X0017799Y-0010619D02*
X0017409D01*
X0017829Y-0010637D02*
X0017399D01*
X0017828Y-0010655D02*
X0017389D01*
X0017818Y-0010672D02*
X0017379D01*
X0017807Y-0010690D02*
X0017369D01*
X0017797Y-0010708D02*
X0017358D01*
X0017787Y-0010725D02*
X0017348D01*
X0017777Y-0010743D02*
X0017338D01*
X0017767Y-0010761D02*
X0017328D01*
X0017756Y-0010778D02*
X0017317D01*
X0017746Y-0010796D02*
X0017307D01*
X0017736Y-0010814D02*
X0017297D01*
X0017726Y-0010831D02*
X0017287D01*
X0017716Y-0010849D02*
X0017277D01*
X0017705Y-0010867D02*
X0017267D01*
X0017695Y-0010884D02*
X0017298D01*
X0017685Y-0010902D02*
X0017329D01*
X0017675Y-0010920D02*
X0017359D01*
X0017665Y-0010938D02*
X0017390D01*
X0017654Y-0010955D02*
X0017421D01*
X0017644Y-0010973D02*
X0017451D01*
X0017634Y-0010991D02*
X0017482D01*
X0017624Y-0011008D02*
X0017512D01*
X0017614Y-0011026D02*
X0017543D01*
X0017603Y-0011044D02*
X0017574D01*
X0017507Y-0010451D02*
X0017267Y-0010866D01*
X0017507Y-0010451D02*
X0017836Y-0010641D01*
X0017596Y-0011057D01*
X0017267Y-0010866D02*
X0017596Y-0011057D01*
X0017828Y-0010636D02*
Y-0010655D01*
X0017810Y-0010626D02*
Y-0010685D01*
X0017792Y-0010615D02*
Y-0010716D01*
X0017775Y-0010605D02*
Y-0010747D01*
X0017757Y-0010595D02*
Y-0010777D01*
X0017739Y-0010585D02*
Y-0010808D01*
X0017722Y-0010575D02*
Y-0010839D01*
X0017704Y-0010564D02*
Y-0010869D01*
X0017686Y-0010554D02*
Y-0010900D01*
X0017669Y-0010544D02*
Y-0010931D01*
X0017651Y-0010534D02*
Y-0010961D01*
X0017633Y-0010524D02*
Y-0010992D01*
X0017616Y-0010513D02*
Y-0011022D01*
X0017113Y-0010223D02*
Y-0010773D01*
X0017096Y-0010213D02*
Y-0010768D01*
X0017078Y-0010203D02*
Y-0010757D01*
X0017060Y-0010193D02*
Y-0010747D01*
X0017042Y-0010182D02*
Y-0010737D01*
X0017025Y-0010172D02*
Y-0010727D01*
X0017007Y-0010196D02*
Y-0010717D01*
X0016989Y-0010227D02*
Y-0010706D01*
X0016972Y-0010258D02*
Y-0010696D01*
X0016954Y-0010288D02*
Y-0010686D01*
X0016936Y-0010319D02*
Y-0010676D01*
X0016919Y-0010350D02*
Y-0010666D01*
X0016901Y-0010380D02*
Y-0010655D01*
X0016883Y-0010411D02*
Y-0010645D01*
X0016866Y-0010442D02*
Y-0010635D01*
X0016848Y-0010472D02*
Y-0010625D01*
X0016830Y-0010503D02*
Y-0010614D01*
X0016813Y-0010534D02*
Y-0010604D01*
X0016795Y-0010564D02*
Y-0010594D01*
X0017038Y-0010180D02*
X0017017D01*
X0017069Y-0010198D02*
X0017006D01*
X0017099Y-0010215D02*
X0016996D01*
X0017130Y-0010233D02*
X0016986D01*
X0017160Y-0010251D02*
X0016976D01*
X0017191Y-0010268D02*
X0016965D01*
X0017222Y-0010286D02*
X0016955D01*
X0017252Y-0010304D02*
X0016945D01*
X0017283Y-0010321D02*
X0016935D01*
X0017313Y-0010339D02*
X0016925D01*
X0017344Y-0010357D02*
X0016914D01*
X0017343Y-0010375D02*
X0016904D01*
X0017333Y-0010392D02*
X0016894D01*
X0017323Y-0010410D02*
X0016884D01*
X0017312Y-0010428D02*
X0016874D01*
X0017302Y-0010445D02*
X0016863D01*
X0017292Y-0010463D02*
X0016853D01*
X0017282Y-0010481D02*
X0016843D01*
X0017272Y-0010498D02*
X0016833D01*
X0017261Y-0010516D02*
X0016823D01*
X0017251Y-0010534D02*
X0016812D01*
X0017241Y-0010551D02*
X0016802D01*
X0017231Y-0010569D02*
X0016792D01*
X0017221Y-0010587D02*
X0016782D01*
X0017210Y-0010604D02*
X0016813D01*
X0017200Y-0010622D02*
X0016843D01*
X0017190Y-0010640D02*
X0016874D01*
X0017180Y-0010658D02*
X0016905D01*
X0017169Y-0010675D02*
X0016935D01*
X0017159Y-0010693D02*
X0016966D01*
X0017149Y-0010711D02*
X0016997D01*
X0017139Y-0010728D02*
X0017027D01*
X0017129Y-0010746D02*
X0017058D01*
X0017118Y-0010764D02*
X0017089D01*
X0017351Y-0010361D02*
X0017111Y-0010777D01*
X0016782Y-0010587D02*
X0017111Y-0010777D01*
X0017022Y-0010171D02*
X0016782Y-0010587D01*
X0017022Y-0010171D02*
X0017351Y-0010361D01*
X0017343Y-0010356D02*
Y-0010374D01*
X0017325Y-0010346D02*
Y-0010405D01*
X0017308Y-0010336D02*
Y-0010436D01*
X0017290Y-0010326D02*
Y-0010466D01*
X0017272Y-0010316D02*
Y-0010497D01*
X0017255Y-0010305D02*
Y-0010528D01*
X0017237Y-0010295D02*
Y-0010558D01*
X0017219Y-0010285D02*
Y-0010589D01*
X0017202Y-0010275D02*
Y-0010619D01*
X0017184Y-0010264D02*
Y-0010650D01*
X0017166Y-0010254D02*
Y-0010681D01*
X0017149Y-0010244D02*
Y-0010711D01*
X0017131Y-0010234D02*
Y-0010742D01*
X0018857Y-0008281D02*
Y-0008831D01*
X0018839Y-0008271D02*
Y-0008825D01*
X0018821Y-0008260D02*
Y-0008815D01*
X0018804Y-0008250D02*
Y-0008805D01*
X0018786Y-0008240D02*
Y-0008795D01*
X0018768Y-0008230D02*
Y-0008784D01*
X0018750Y-0008254D02*
Y-0008774D01*
X0018733Y-0008285D02*
Y-0008764D01*
X0018715Y-0008316D02*
Y-0008754D01*
X0018697Y-0008346D02*
Y-0008743D01*
X0018680Y-0008377D02*
Y-0008733D01*
X0018662Y-0008407D02*
Y-0008723D01*
X0018644Y-0008438D02*
Y-0008713D01*
X0018627Y-0008469D02*
Y-0008703D01*
X0018609Y-0008499D02*
Y-0008692D01*
X0018591Y-0008530D02*
Y-0008682D01*
X0018574Y-0008560D02*
Y-0008672D01*
X0018556Y-0008591D02*
Y-0008662D01*
X0018538Y-0008622D02*
Y-0008651D01*
X0018782Y-0008238D02*
X0018760D01*
X0018812Y-0008255D02*
X0018750D01*
X0018843Y-0008273D02*
X0018740D01*
X0018874Y-0008291D02*
X0018729D01*
X0018904Y-0008308D02*
X0018719D01*
X0018935Y-0008326D02*
X0018709D01*
X0018966Y-0008344D02*
X0018699D01*
X0018996Y-0008361D02*
X0018689D01*
X0019027Y-0008379D02*
X0018678D01*
X0019057Y-0008397D02*
X0018668D01*
X0019088Y-0008415D02*
X0018658D01*
X0019087Y-0008432D02*
X0018648D01*
X0019076Y-0008450D02*
X0018637D01*
X0019066Y-0008468D02*
X0018627D01*
X0019056Y-0008485D02*
X0018617D01*
X0019046Y-0008503D02*
X0018607D01*
X0019036Y-0008521D02*
X0018597D01*
X0019025Y-0008538D02*
X0018586D01*
X0019015Y-0008556D02*
X0018576D01*
X0019005Y-0008574D02*
X0018566D01*
X0018995Y-0008591D02*
X0018556D01*
X0018984Y-0008609D02*
X0018545D01*
X0018974Y-0008627D02*
X0018535D01*
X0018964Y-0008644D02*
X0018526D01*
X0018954Y-0008662D02*
X0018557D01*
X0018944Y-0008680D02*
X0018587D01*
X0018933Y-0008698D02*
X0018618D01*
X0018923Y-0008715D02*
X0018649D01*
X0018913Y-0008733D02*
X0018679D01*
X0018903Y-0008751D02*
X0018710D01*
X0018893Y-0008768D02*
X0018740D01*
X0018882Y-0008786D02*
X0018771D01*
X0018872Y-0008804D02*
X0018802D01*
X0018862Y-0008821D02*
X0018832D01*
X0018766Y-0008228D02*
X0018525Y-0008644D01*
X0018766Y-0008228D02*
X0019095Y-0008418D01*
X0018855Y-0008834D01*
X0018525Y-0008644D02*
X0018855Y-0008834D01*
X0019087Y-0008414D02*
Y-0008432D01*
X0019069Y-0008403D02*
Y-0008463D01*
X0019051Y-0008393D02*
Y-0008494D01*
X0019033Y-0008383D02*
Y-0008524D01*
X0019016Y-0008373D02*
Y-0008555D01*
X0018998Y-0008363D02*
Y-0008586D01*
X0018980Y-0008352D02*
Y-0008616D01*
X0018963Y-0008342D02*
Y-0008647D01*
X0018945Y-0008332D02*
Y-0008678D01*
X0018927Y-0008322D02*
Y-0008708D01*
X0018910Y-0008311D02*
Y-0008739D01*
X0018892Y-0008301D02*
Y-0008770D01*
X0018874Y-0008291D02*
Y-0008800D01*
X0018372Y-0008001D02*
Y-0008550D01*
X0018354Y-0007991D02*
Y-0008545D01*
X0018337Y-0007981D02*
Y-0008535D01*
X0018319Y-0007970D02*
Y-0008525D01*
X0018301Y-0007960D02*
Y-0008515D01*
X0018283Y-0007950D02*
Y-0008505D01*
X0018266Y-0007974D02*
Y-0008494D01*
X0018248Y-0008005D02*
Y-0008484D01*
X0018230Y-0008035D02*
Y-0008474D01*
X0018213Y-0008066D02*
Y-0008464D01*
X0018195Y-0008097D02*
Y-0008453D01*
X0018177Y-0008127D02*
Y-0008443D01*
X0018160Y-0008158D02*
Y-0008433D01*
X0018142Y-0008189D02*
Y-0008423D01*
X0018124Y-0008219D02*
Y-0008413D01*
X0018107Y-0008250D02*
Y-0008402D01*
X0018089Y-0008281D02*
Y-0008392D01*
X0018071Y-0008311D02*
Y-0008382D01*
X0018054Y-0008342D02*
Y-0008372D01*
X0018297Y-0007958D02*
X0018275D01*
X0018327Y-0007975D02*
X0018265D01*
X0018358Y-0007993D02*
X0018255D01*
X0018389Y-0008011D02*
X0018245D01*
X0018419Y-0008028D02*
X0018234D01*
X0018450Y-0008046D02*
X0018224D01*
X0018480Y-0008064D02*
X0018214D01*
X0018511Y-0008081D02*
X0018204D01*
X0018541Y-0008099D02*
X0018194D01*
X0018572Y-0008117D02*
X0018183D01*
X0018603Y-0008135D02*
X0018173D01*
X0018602Y-0008152D02*
X0018163D01*
X0018592Y-0008170D02*
X0018153D01*
X0018581Y-0008188D02*
X0018143D01*
X0018571Y-0008205D02*
X0018132D01*
X0018561Y-0008223D02*
X0018122D01*
X0018551Y-0008241D02*
X0018112D01*
X0018540Y-0008258D02*
X0018102D01*
X0018530Y-0008276D02*
X0018091D01*
X0018520Y-0008294D02*
X0018081D01*
X0018510Y-0008311D02*
X0018071D01*
X0018500Y-0008329D02*
X0018061D01*
X0018489Y-0008347D02*
X0018051D01*
X0018479Y-0008364D02*
X0018041D01*
X0018469Y-0008382D02*
X0018072D01*
X0018459Y-0008400D02*
X0018102D01*
X0018449Y-0008418D02*
X0018133D01*
X0018438Y-0008435D02*
X0018163D01*
X0018428Y-0008453D02*
X0018194D01*
X0018418Y-0008471D02*
X0018225D01*
X0018408Y-0008488D02*
X0018255D01*
X0018397Y-0008506D02*
X0018286D01*
X0018387Y-0008524D02*
X0018317D01*
X0018377Y-0008541D02*
X0018347D01*
X0018610Y-0008139D02*
X0018370Y-0008554D01*
X0018041Y-0008364D02*
X0018370Y-0008554D01*
X0018281Y-0007948D02*
X0018041Y-0008364D01*
X0018281Y-0007948D02*
X0018610Y-0008139D01*
X0018602Y-0008134D02*
Y-0008152D01*
X0018584Y-0008124D02*
Y-0008183D01*
X0018566Y-0008114D02*
Y-0008213D01*
X0018549Y-0008103D02*
Y-0008244D01*
X0018531Y-0008093D02*
Y-0008275D01*
X0018513Y-0008083D02*
Y-0008305D01*
X0018496Y-0008073D02*
Y-0008336D01*
X0018478Y-0008062D02*
Y-0008366D01*
X0018460Y-0008052D02*
Y-0008397D01*
X0018443Y-0008042D02*
Y-0008428D01*
X0018425Y-0008032D02*
Y-0008458D01*
X0018407Y-0008022D02*
Y-0008489D01*
X0018390Y-0008011D02*
Y-0008520D01*
X0018124Y0009453D02*
Y0008903D01*
X0018107Y0009447D02*
Y0008893D01*
X0018089Y0009437D02*
Y0008883D01*
X0018071Y0009427D02*
Y0008872D01*
X0018053Y0009417D02*
Y0008862D01*
X0018036Y0009406D02*
Y0008852D01*
X0018018Y0009396D02*
Y0008877D01*
X0018000Y0009386D02*
Y0008907D01*
X0017983Y0009376D02*
Y0008938D01*
X0017965Y0009366D02*
Y0008969D01*
X0017947Y0009355D02*
Y0008999D01*
X0017930Y0009345D02*
Y0009030D01*
X0017912Y0009335D02*
Y0009060D01*
X0017894Y0009325D02*
Y0009091D01*
X0017877Y0009315D02*
Y0009122D01*
X0017859Y0009304D02*
Y0009152D01*
X0017841Y0009294D02*
Y0009183D01*
X0017824Y0009284D02*
Y0009213D01*
X0017806Y0009274D02*
Y0009244D01*
X0018127Y0009447D02*
X0018107D01*
X0018138Y0009430D02*
X0018076D01*
X0018148Y0009412D02*
X0018045D01*
X0018158Y0009394D02*
X0018015D01*
X0018168Y0009376D02*
X0017984D01*
X0018179Y0009359D02*
X0017953D01*
X0018189Y0009341D02*
X0017923D01*
X0018199Y0009323D02*
X0017892D01*
X0018209Y0009306D02*
X0017861D01*
X0018219Y0009288D02*
X0017831D01*
X0018230Y0009270D02*
X0017800D01*
X0018240Y0009253D02*
X0017801D01*
X0018250Y0009235D02*
X0017811D01*
X0018260Y0009217D02*
X0017821D01*
X0018270Y0009200D02*
X0017831D01*
X0018281Y0009182D02*
X0017842D01*
X0018291Y0009164D02*
X0017852D01*
X0018301Y0009147D02*
X0017862D01*
X0018311Y0009129D02*
X0017872D01*
X0018322Y0009111D02*
X0017883D01*
X0018332Y0009093D02*
X0017893D01*
X0018342Y0009076D02*
X0017903D01*
X0018352Y0009058D02*
X0017913D01*
X0018362Y0009040D02*
X0017924D01*
X0018331Y0009023D02*
X0017934D01*
X0018301Y0009005D02*
X0017944D01*
X0018270Y0008987D02*
X0017954D01*
X0018239Y0008970D02*
X0017964D01*
X0018209Y0008952D02*
X0017975D01*
X0018178Y0008934D02*
X0017985D01*
X0018148Y0008917D02*
X0017995D01*
X0018117Y0008899D02*
X0018005D01*
X0018086Y0008881D02*
X0018016D01*
X0018056Y0008864D02*
X0018026D01*
X0017793Y0009266D02*
X0018033Y0008851D01*
X0018122Y0009456D02*
X0017793Y0009266D01*
X0018122Y0009456D02*
X0018362Y0009041D01*
X0018033Y0008851D01*
X0018354Y0009055D02*
Y0009036D01*
X0018336Y0009085D02*
Y0009026D01*
X0018319Y0009116D02*
Y0009015D01*
X0018301Y0009146D02*
Y0009005D01*
X0018283Y0009177D02*
Y0008995D01*
X0018266Y0009208D02*
Y0008985D01*
X0018248Y0009238D02*
Y0008975D01*
X0018230Y0009269D02*
Y0008964D01*
X0018213Y0009300D02*
Y0008954D01*
X0018195Y0009330D02*
Y0008944D01*
X0018177Y0009361D02*
Y0008934D01*
X0018160Y0009392D02*
Y0008924D01*
X0018142Y0009422D02*
Y0008913D01*
X0017640Y0009172D02*
Y0008623D01*
X0017622Y0009167D02*
Y0008613D01*
X0017604Y0009157D02*
Y0008603D01*
X0017587Y0009147D02*
Y0008593D01*
X0017569Y0009137D02*
Y0008582D01*
X0017551Y0009127D02*
Y0008572D01*
X0017533Y0009116D02*
Y0008596D01*
X0017516Y0009106D02*
Y0008627D01*
X0017498Y0009096D02*
Y0008658D01*
X0017480Y0009086D02*
Y0008688D01*
X0017463Y0009075D02*
Y0008719D01*
X0017445Y0009065D02*
Y0008749D01*
X0017427Y0009055D02*
Y0008780D01*
X0017410Y0009045D02*
Y0008811D01*
X0017392Y0009035D02*
Y0008841D01*
X0017374Y0009024D02*
Y0008872D01*
X0017357Y0009014D02*
Y0008903D01*
X0017339Y0009004D02*
Y0008933D01*
X0017321Y0008994D02*
Y0008964D01*
X0017642Y0009167D02*
X0017622D01*
X0017653Y0009150D02*
X0017591D01*
X0017663Y0009132D02*
X0017560D01*
X0017673Y0009114D02*
X0017530D01*
X0017683Y0009096D02*
X0017499D01*
X0017694Y0009079D02*
X0017468D01*
X0017704Y0009061D02*
X0017438D01*
X0017714Y0009043D02*
X0017407D01*
X0017724Y0009026D02*
X0017377D01*
X0017734Y0009008D02*
X0017346D01*
X0017745Y0008990D02*
X0017315D01*
X0017755Y0008973D02*
X0017316D01*
X0017765Y0008955D02*
X0017326D01*
X0017775Y0008937D02*
X0017337D01*
X0017785Y0008920D02*
X0017347D01*
X0017796Y0008902D02*
X0017357D01*
X0017806Y0008884D02*
X0017367D01*
X0017816Y0008867D02*
X0017377D01*
X0017826Y0008849D02*
X0017388D01*
X0017837Y0008831D02*
X0017398D01*
X0017847Y0008813D02*
X0017408D01*
X0017857Y0008796D02*
X0017418D01*
X0017867Y0008778D02*
X0017428D01*
X0017877Y0008760D02*
X0017439D01*
X0017846Y0008743D02*
X0017449D01*
X0017816Y0008725D02*
X0017459D01*
X0017785Y0008707D02*
X0017469D01*
X0017754Y0008690D02*
X0017480D01*
X0017724Y0008672D02*
X0017490D01*
X0017693Y0008654D02*
X0017500D01*
X0017663Y0008637D02*
X0017510D01*
X0017632Y0008619D02*
X0017520D01*
X0017601Y0008601D02*
X0017531D01*
X0017571Y0008584D02*
X0017541D01*
X0017637Y0009176D02*
X0017877Y0008761D01*
X0017548Y0008571D01*
X0017308Y0008986D02*
X0017548Y0008571D01*
X0017637Y0009176D02*
X0017308Y0008986D01*
X0017870Y0008774D02*
Y0008756D01*
X0017852Y0008805D02*
Y0008746D01*
X0017834Y0008835D02*
Y0008736D01*
X0017816Y0008866D02*
Y0008725D01*
X0017799Y0008897D02*
Y0008715D01*
X0017781Y0008927D02*
Y0008705D01*
X0017763Y0008958D02*
Y0008695D01*
X0017746Y0008988D02*
Y0008685D01*
X0017728Y0009019D02*
Y0008674D01*
X0017710Y0009050D02*
Y0008664D01*
X0017693Y0009080D02*
Y0008654D01*
X0017675Y0009111D02*
Y0008644D01*
X0017657Y0009142D02*
Y0008634D01*
X-0019375Y0006698D02*
Y0006201D01*
X-0019393Y0006703D02*
Y0006205D01*
X-0019411Y0006707D02*
Y0006210D01*
X-0019428Y0006691D02*
Y0006215D01*
X-0019446Y0006625D02*
Y0006220D01*
X-0019464Y0006559D02*
Y0006224D01*
X-0019481Y0006493D02*
Y0006229D01*
X-0019499Y0006427D02*
Y0006234D01*
X-0019517Y0006361D02*
Y0006239D01*
X-0019534Y0006295D02*
Y0006243D01*
X-0019353Y0006692D02*
X-0019428D01*
X-0019287Y0006674D02*
X-0019433D01*
X-0019221Y0006656D02*
X-0019437D01*
X-0019155Y0006639D02*
X-0019442D01*
X-0019089Y0006621D02*
X-0019447D01*
X-0019058Y0006603D02*
X-0019452D01*
X-0019063Y0006586D02*
X-0019456D01*
X-0019068Y0006568D02*
X-0019461D01*
X-0019073Y0006550D02*
X-0019466D01*
X-0019077Y0006533D02*
X-0019471D01*
X-0019082Y0006515D02*
X-0019475D01*
X-0019087Y0006497D02*
X-0019480D01*
X-0019091Y0006480D02*
X-0019485D01*
X-0019096Y0006462D02*
X-0019490D01*
X-0019101Y0006444D02*
X-0019494D01*
X-0019106Y0006427D02*
X-0019499D01*
X-0019110Y0006409D02*
X-0019504D01*
X-0019115Y0006391D02*
X-0019509D01*
X-0019120Y0006373D02*
X-0019513D01*
X-0019125Y0006356D02*
X-0019518D01*
X-0019129Y0006338D02*
X-0019523D01*
X-0019134Y0006320D02*
X-0019528D01*
X-0019139Y0006303D02*
X-0019532D01*
X-0019144Y0006285D02*
X-0019537D01*
X-0019148Y0006267D02*
X-0019542D01*
X-0019153Y0006250D02*
X-0019547D01*
X-0019158Y0006232D02*
X-0019492D01*
X-0019163Y0006214D02*
X-0019426D01*
X-0019167Y0006197D02*
X-0019360D01*
X-0019172Y0006179D02*
X-0019294D01*
X-0019177Y0006161D02*
X-0019228D01*
X-0019056Y0006612D02*
X-0019180Y0006148D01*
X-0019547Y0006247D02*
X-0019180Y0006148D01*
X-0019423Y0006711D02*
X-0019547Y0006247D01*
X-0019423Y0006711D02*
X-0019056Y0006612D01*
X-0019074Y0006617D02*
Y0006543D01*
X-0019092Y0006622D02*
Y0006477D01*
X-0019110Y0006627D02*
Y0006411D01*
X-0019128Y0006631D02*
Y0006345D01*
X-0019145Y0006636D02*
Y0006279D01*
X-0019163Y0006641D02*
Y0006213D01*
X-0019181Y0006646D02*
Y0006148D01*
X-0019198Y0006650D02*
Y0006153D01*
X-0019216Y0006655D02*
Y0006158D01*
X-0019234Y0006660D02*
Y0006163D01*
X-0019251Y0006665D02*
Y0006167D01*
X-0019269Y0006669D02*
Y0006172D01*
X-0019287Y0006674D02*
Y0006177D01*
X-0019304Y0006679D02*
Y0006182D01*
X-0019322Y0006684D02*
Y0006186D01*
X-0019340Y0006688D02*
Y0006191D01*
X-0019357Y0006693D02*
Y0006196D01*
X-0018834Y0006553D02*
Y0006056D01*
X-0018852Y0006558D02*
Y0006061D01*
X-0018870Y0006562D02*
Y0006065D01*
X-0018887Y0006546D02*
Y0006070D01*
X-0018905Y0006480D02*
Y0006075D01*
X-0018923Y0006414D02*
Y0006079D01*
X-0018940Y0006348D02*
Y0006084D01*
X-0018958Y0006282D02*
Y0006089D01*
X-0018976Y0006216D02*
Y0006094D01*
X-0018993Y0006150D02*
Y0006098D01*
X-0018813Y0006547D02*
X-0018887D01*
X-0018747Y0006529D02*
X-0018892D01*
X-0018681Y0006512D02*
X-0018896D01*
X-0018615Y0006494D02*
X-0018901D01*
X-0018549Y0006476D02*
X-0018906D01*
X-0018517Y0006459D02*
X-0018911D01*
X-0018522Y0006441D02*
X-0018915D01*
X-0018527Y0006423D02*
X-0018920D01*
X-0018531Y0006406D02*
X-0018925D01*
X-0018536Y0006388D02*
X-0018930D01*
X-0018541Y0006370D02*
X-0018934D01*
X-0018546Y0006353D02*
X-0018939D01*
X-0018550Y0006335D02*
X-0018944D01*
X-0018555Y0006317D02*
X-0018949D01*
X-0018560Y0006300D02*
X-0018953D01*
X-0018565Y0006282D02*
X-0018958D01*
X-0018569Y0006264D02*
X-0018963D01*
X-0018574Y0006246D02*
X-0018967D01*
X-0018579Y0006229D02*
X-0018972D01*
X-0018584Y0006211D02*
X-0018977D01*
X-0018588Y0006193D02*
X-0018982D01*
X-0018593Y0006176D02*
X-0018986D01*
X-0018598Y0006158D02*
X-0018991D01*
X-0018603Y0006140D02*
X-0018996D01*
X-0018607Y0006123D02*
X-0019001D01*
X-0018612Y0006105D02*
X-0019005D01*
X-0018617Y0006087D02*
X-0018952D01*
X-0018622Y0006070D02*
X-0018886D01*
X-0018626Y0006052D02*
X-0018820D01*
X-0018631Y0006034D02*
X-0018754D01*
X-0018636Y0006017D02*
X-0018688D01*
X-0018882Y0006566D02*
X-0019006Y0006102D01*
X-0018882Y0006566D02*
X-0018515Y0006467D01*
X-0018639Y0006004D01*
X-0019006Y0006102D02*
X-0018639Y0006004D01*
X-0018533Y0006472D02*
Y0006398D01*
X-0018551Y0006477D02*
Y0006332D01*
X-0018569Y0006482D02*
Y0006266D01*
X-0018587Y0006486D02*
Y0006200D01*
X-0018604Y0006491D02*
Y0006134D01*
X-0018622Y0006496D02*
Y0006068D01*
X-0018640Y0006501D02*
Y0006004D01*
X-0018657Y0006505D02*
Y0006008D01*
X-0018675Y0006510D02*
Y0006013D01*
X-0018693Y0006515D02*
Y0006018D01*
X-0018710Y0006520D02*
Y0006023D01*
X-0018728Y0006524D02*
Y0006027D01*
X-0018746Y0006529D02*
Y0006032D01*
X-0018763Y0006534D02*
Y0006037D01*
X-0018781Y0006539D02*
Y0006042D01*
X-0018799Y0006543D02*
Y0006046D01*
X-0018816Y0006548D02*
Y0006051D01*
X-0015213Y0013689D02*
Y0013180D01*
X-0015231Y0013704D02*
Y0013159D01*
X-0015249Y0013719D02*
Y0013138D01*
X-0015266Y0013708D02*
Y0013117D01*
X-0015284Y0013687D02*
Y0013122D01*
X-0015302Y0013666D02*
Y0013137D01*
X-0015319Y0013645D02*
Y0013152D01*
X-0015337Y0013624D02*
Y0013167D01*
X-0015355Y0013603D02*
Y0013182D01*
X-0015372Y0013582D02*
Y0013196D01*
X-0015390Y0013561D02*
Y0013211D01*
X-0015408Y0013540D02*
Y0013226D01*
X-0015426Y0013518D02*
Y0013241D01*
X-0015443Y0013497D02*
Y0013256D01*
X-0015461Y0013476D02*
Y0013271D01*
X-0015479Y0013455D02*
Y0013285D01*
X-0015496Y0013434D02*
Y0013300D01*
X-0015514Y0013413D02*
Y0013315D01*
X-0015532Y0013392D02*
Y0013330D01*
X-0015549Y0013371D02*
Y0013345D01*
X-0015235Y0013708D02*
X-0015266D01*
X-0015214Y0013690D02*
X-0015281D01*
X-0015193Y0013673D02*
X-0015296D01*
X-0015172Y0013655D02*
X-0015311D01*
X-0015151Y0013637D02*
X-0015326D01*
X-0015130Y0013619D02*
X-0015341D01*
X-0015109Y0013602D02*
X-0015356D01*
X-0015088Y0013584D02*
X-0015370D01*
X-0015067Y0013566D02*
X-0015385D01*
X-0015046Y0013549D02*
X-0015400D01*
X-0015025Y0013531D02*
X-0015415D01*
X-0015004Y0013513D02*
X-0015430D01*
X-0014982Y0013496D02*
X-0015445D01*
X-0014963Y0013478D02*
X-0015460D01*
X-0014978Y0013460D02*
X-0015474D01*
X-0014993Y0013443D02*
X-0015489D01*
X-0015008Y0013425D02*
X-0015504D01*
X-0015023Y0013407D02*
X-0015519D01*
X-0015038Y0013390D02*
X-0015534D01*
X-0015052Y0013372D02*
X-0015549D01*
X-0015067Y0013354D02*
X-0015561D01*
X-0015082Y0013336D02*
X-0015539D01*
X-0015097Y0013319D02*
X-0015518D01*
X-0015112Y0013301D02*
X-0015497D01*
X-0015127Y0013283D02*
X-0015476D01*
X-0015141Y0013266D02*
X-0015455D01*
X-0015156Y0013248D02*
X-0015434D01*
X-0015171Y0013230D02*
X-0015413D01*
X-0015186Y0013213D02*
X-0015392D01*
X-0015201Y0013195D02*
X-0015371D01*
X-0015216Y0013177D02*
X-0015350D01*
X-0015230Y0013160D02*
X-0015329D01*
X-0015245Y0013142D02*
X-0015307D01*
X-0015260Y0013124D02*
X-0015286D01*
X-0014963Y0013479D02*
X-0015271Y0013111D01*
X-0015562Y0013356D02*
X-0015271Y0013111D01*
X-0015254Y0013723D02*
X-0015562Y0013356D01*
X-0015254Y0013723D02*
X-0014963Y0013479D01*
X-0014983Y0013496D02*
Y0013454D01*
X-0015001Y0013511D02*
Y0013433D01*
X-0015019Y0013526D02*
Y0013412D01*
X-0015036Y0013541D02*
Y0013391D01*
X-0015054Y0013556D02*
Y0013370D01*
X-0015072Y0013571D02*
Y0013349D01*
X-0015089Y0013585D02*
Y0013328D01*
X-0015107Y0013600D02*
Y0013307D01*
X-0015125Y0013615D02*
Y0013285D01*
X-0015143Y0013630D02*
Y0013264D01*
X-0015160Y0013645D02*
Y0013243D01*
X-0015178Y0013660D02*
Y0013222D01*
X-0015196Y0013675D02*
Y0013201D01*
X-0014784Y0013329D02*
Y0012820D01*
X-0014802Y0013344D02*
Y0012799D01*
X-0014820Y0013359D02*
Y0012778D01*
X-0014837Y0013349D02*
Y0012757D01*
X-0014855Y0013328D02*
Y0012762D01*
X-0014873Y0013307D02*
Y0012777D01*
X-0014890Y0013285D02*
Y0012792D01*
X-0014908Y0013264D02*
Y0012807D01*
X-0014926Y0013243D02*
Y0012821D01*
X-0014943Y0013222D02*
Y0012836D01*
X-0014961Y0013201D02*
Y0012851D01*
X-0014979Y0013180D02*
Y0012866D01*
X-0014997Y0013159D02*
Y0012881D01*
X-0015014Y0013138D02*
Y0012896D01*
X-0015032Y0013117D02*
Y0012910D01*
X-0015050Y0013095D02*
Y0012925D01*
X-0015067Y0013074D02*
Y0012940D01*
X-0015085Y0013053D02*
Y0012955D01*
X-0015103Y0013032D02*
Y0012970D01*
X-0015120Y0013011D02*
Y0012985D01*
X-0014806Y0013348D02*
X-0014838D01*
X-0014785Y0013330D02*
X-0014853D01*
X-0014764Y0013313D02*
X-0014868D01*
X-0014743Y0013295D02*
X-0014883D01*
X-0014722Y0013277D02*
X-0014897D01*
X-0014701Y0013259D02*
X-0014912D01*
X-0014680Y0013242D02*
X-0014927D01*
X-0014659Y0013224D02*
X-0014942D01*
X-0014638Y0013206D02*
X-0014957D01*
X-0014617Y0013189D02*
X-0014971D01*
X-0014596Y0013171D02*
X-0014986D01*
X-0014575Y0013153D02*
X-0015001D01*
X-0014553Y0013136D02*
X-0015016D01*
X-0014534Y0013118D02*
X-0015031D01*
X-0014549Y0013100D02*
X-0015046D01*
X-0014564Y0013083D02*
X-0015060D01*
X-0014579Y0013065D02*
X-0015075D01*
X-0014594Y0013047D02*
X-0015090D01*
X-0014609Y0013030D02*
X-0015105D01*
X-0014624Y0013012D02*
X-0015120D01*
X-0014638Y0012994D02*
X-0015132D01*
X-0014653Y0012976D02*
X-0015110D01*
X-0014668Y0012959D02*
X-0015089D01*
X-0014683Y0012941D02*
X-0015068D01*
X-0014698Y0012923D02*
X-0015047D01*
X-0014713Y0012906D02*
X-0015026D01*
X-0014727Y0012888D02*
X-0015005D01*
X-0014742Y0012870D02*
X-0014984D01*
X-0014757Y0012853D02*
X-0014963D01*
X-0014772Y0012835D02*
X-0014942D01*
X-0014787Y0012817D02*
X-0014921D01*
X-0014802Y0012800D02*
X-0014900D01*
X-0014817Y0012782D02*
X-0014879D01*
X-0014831Y0012764D02*
X-0014858D01*
X-0014825Y0013364D02*
X-0015133Y0012996D01*
X-0014825Y0013364D02*
X-0014534Y0013119D01*
X-0014842Y0012751D01*
X-0015133Y0012996D02*
X-0014842Y0012751D01*
X-0014554Y0013136D02*
Y0013094D01*
X-0014572Y0013151D02*
Y0013073D01*
X-0014590Y0013166D02*
Y0013052D01*
X-0014607Y0013181D02*
Y0013031D01*
X-0014625Y0013196D02*
Y0013010D01*
X-0014643Y0013211D02*
Y0012989D01*
X-0014660Y0013225D02*
Y0012968D01*
X-0014678Y0013240D02*
Y0012947D01*
X-0014696Y0013255D02*
Y0012926D01*
X-0014714Y0013270D02*
Y0012905D01*
X-0014731Y0013285D02*
Y0012884D01*
X-0014749Y0013300D02*
Y0012862D01*
X-0014767Y0013315D02*
Y0012841D01*
X-0018876Y-0005671D02*
Y-0006064D01*
X-0018894Y-0005676D02*
Y-0006069D01*
X-0018912Y-0005680D02*
Y-0006074D01*
X-0018929Y-0005685D02*
Y-0006079D01*
X-0018947Y-0005690D02*
Y-0006083D01*
X-0018965Y-0005695D02*
Y-0006088D01*
X-0018983Y-0005699D02*
Y-0006093D01*
X-0019000Y-0005704D02*
Y-0006098D01*
X-0019018Y-0005709D02*
Y-0006102D01*
X-0019036Y-0005714D02*
Y-0006049D01*
X-0019053Y-0005718D02*
Y-0005982D01*
X-0019071Y-0005723D02*
Y-0005916D01*
X-0019089Y-0005728D02*
Y-0005850D01*
X-0019106Y-0005732D02*
Y-0005784D01*
X-0018651Y-0005630D02*
X-0018725D01*
X-0018646Y-0005648D02*
X-0018791D01*
X-0018641Y-0005666D02*
X-0018857D01*
X-0018636Y-0005684D02*
X-0018923D01*
X-0018632Y-0005701D02*
X-0018989D01*
X-0018627Y-0005719D02*
X-0019056D01*
X-0018622Y-0005737D02*
X-0019119D01*
X-0018617Y-0005754D02*
X-0019114D01*
X-0018613Y-0005772D02*
X-0019110D01*
X-0018608Y-0005790D02*
X-0019105D01*
X-0018603Y-0005807D02*
X-0019100D01*
X-0018598Y-0005825D02*
X-0019095D01*
X-0018594Y-0005843D02*
X-0019091D01*
X-0018589Y-0005860D02*
X-0019086D01*
X-0018584Y-0005878D02*
X-0019081D01*
X-0018580Y-0005896D02*
X-0019076D01*
X-0018575Y-0005913D02*
X-0019072D01*
X-0018570Y-0005931D02*
X-0019067D01*
X-0018565Y-0005949D02*
X-0019062D01*
X-0018561Y-0005967D02*
X-0019058D01*
X-0018577Y-0005984D02*
X-0019053D01*
X-0018643Y-0006002D02*
X-0019048D01*
X-0018709Y-0006020D02*
X-0019043D01*
X-0018775Y-0006037D02*
X-0019039D01*
X-0018841Y-0006055D02*
X-0019034D01*
X-0018907Y-0006073D02*
X-0019029D01*
X-0018973Y-0006090D02*
X-0019024D01*
X-0018557Y-0005979D02*
X-0019021Y-0006103D01*
X-0019119Y-0005736D02*
X-0019021Y-0006103D01*
X-0018656Y-0005612D02*
X-0019119Y-0005736D01*
X-0018656Y-0005612D02*
X-0018557Y-0005979D01*
X-0018576Y-0005910D02*
Y-0005984D01*
X-0018593Y-0005844D02*
Y-0005989D01*
X-0018611Y-0005778D02*
Y-0005993D01*
X-0018629Y-0005712D02*
Y-0005998D01*
X-0018646Y-0005646D02*
Y-0006003D01*
X-0018664Y-0005614D02*
Y-0006008D01*
X-0018682Y-0005619D02*
Y-0006012D01*
X-0018700Y-0005624D02*
Y-0006017D01*
X-0018717Y-0005628D02*
Y-0006022D01*
X-0018735Y-0005633D02*
Y-0006027D01*
X-0018753Y-0005638D02*
Y-0006031D01*
X-0018770Y-0005643D02*
Y-0006036D01*
X-0018788Y-0005647D02*
Y-0006041D01*
X-0018806Y-0005652D02*
Y-0006046D01*
X-0018823Y-0005657D02*
Y-0006050D01*
X-0018841Y-0005662D02*
Y-0006055D01*
X-0018859Y-0005666D02*
Y-0006060D01*
X-0019068Y-0004956D02*
Y-0005350D01*
X-0019086Y-0004961D02*
Y-0005354D01*
X-0019103Y-0004966D02*
Y-0005359D01*
X-0019121Y-0004970D02*
Y-0005364D01*
X-0019139Y-0004975D02*
Y-0005369D01*
X-0019156Y-0004980D02*
Y-0005373D01*
X-0019174Y-0004985D02*
Y-0005378D01*
X-0019192Y-0004989D02*
Y-0005383D01*
X-0019210Y-0004994D02*
Y-0005387D01*
X-0019227Y-0004999D02*
Y-0005334D01*
X-0019245Y-0005004D02*
Y-0005268D01*
X-0019263Y-0005008D02*
Y-0005202D01*
X-0019280Y-0005013D02*
Y-0005136D01*
X-0019298Y-0005018D02*
Y-0005070D01*
X-0018842Y-0004915D02*
X-0018916D01*
X-0018838Y-0004933D02*
X-0018982D01*
X-0018833Y-0004951D02*
X-0019048D01*
X-0018828Y-0004969D02*
X-0019114D01*
X-0018823Y-0004986D02*
X-0019180D01*
X-0018819Y-0005004D02*
X-0019246D01*
X-0018814Y-0005022D02*
X-0019311D01*
X-0018809Y-0005039D02*
X-0019306D01*
X-0018804Y-0005057D02*
X-0019301D01*
X-0018800Y-0005075D02*
X-0019297D01*
X-0018795Y-0005092D02*
X-0019292D01*
X-0018790Y-0005110D02*
X-0019287D01*
X-0018785Y-0005128D02*
X-0019282D01*
X-0018781Y-0005145D02*
X-0019278D01*
X-0018776Y-0005163D02*
X-0019273D01*
X-0018771Y-0005181D02*
X-0019268D01*
X-0018766Y-0005198D02*
X-0019263D01*
X-0018762Y-0005216D02*
X-0019259D01*
X-0018757Y-0005234D02*
X-0019254D01*
X-0018752Y-0005252D02*
X-0019249D01*
X-0018767Y-0005269D02*
X-0019244D01*
X-0018833Y-0005287D02*
X-0019240D01*
X-0018899Y-0005305D02*
X-0019235D01*
X-0018966Y-0005322D02*
X-0019230D01*
X-0019032Y-0005340D02*
X-0019226D01*
X-0019098Y-0005358D02*
X-0019221D01*
X-0019164Y-0005375D02*
X-0019216D01*
X-0018749Y-0005264D02*
X-0019213Y-0005388D01*
X-0019311Y-0005021D02*
X-0019213Y-0005388D01*
X-0018847Y-0004897D02*
X-0019311Y-0005021D01*
X-0018847Y-0004897D02*
X-0018749Y-0005264D01*
X-0018767Y-0005194D02*
Y-0005269D01*
X-0018785Y-0005129D02*
Y-0005274D01*
X-0018803Y-0005063D02*
Y-0005279D01*
X-0018820Y-0004997D02*
Y-0005283D01*
X-0018838Y-0004931D02*
Y-0005288D01*
X-0018856Y-0004899D02*
Y-0005293D01*
X-0018873Y-0004904D02*
Y-0005298D01*
X-0018891Y-0004909D02*
Y-0005302D01*
X-0018909Y-0004913D02*
Y-0005307D01*
X-0018927Y-0004918D02*
Y-0005312D01*
X-0018944Y-0004923D02*
Y-0005317D01*
X-0018962Y-0004928D02*
Y-0005321D01*
X-0018980Y-0004932D02*
Y-0005326D01*
X-0018997Y-0004937D02*
Y-0005331D01*
X-0019015Y-0004942D02*
Y-0005335D01*
X-0019033Y-0004947D02*
Y-0005340D01*
X-0019050Y-0004951D02*
Y-0005345D01*
X-0019692Y-0005506D02*
Y-0005900D01*
X-0019710Y-0005511D02*
Y-0005905D01*
X-0019727Y-0005516D02*
Y-0005909D01*
X-0019745Y-0005521D02*
Y-0005914D01*
X-0019763Y-0005525D02*
Y-0005919D01*
X-0019780Y-0005530D02*
Y-0005924D01*
X-0019798Y-0005535D02*
Y-0005928D01*
X-0019816Y-0005540D02*
Y-0005933D01*
X-0019833Y-0005544D02*
Y-0005938D01*
X-0019851Y-0005549D02*
Y-0005943D01*
X-0019869Y-0005554D02*
Y-0005947D01*
X-0019886Y-0005559D02*
Y-0005952D01*
X-0019904Y-0005563D02*
Y-0005957D01*
X-0019922Y-0005568D02*
Y-0005961D01*
X-0019939Y-0005573D02*
Y-0005966D01*
X-0019957Y-0005578D02*
Y-0005971D01*
X-0019975Y-0005582D02*
Y-0005976D01*
X-0019993Y-0005587D02*
Y-0005980D01*
X-0020010Y-0005592D02*
Y-0005927D01*
X-0020028Y-0005597D02*
Y-0005861D01*
X-0020046Y-0005601D02*
Y-0005795D01*
X-0020063Y-0005606D02*
Y-0005729D01*
X-0020081Y-0005611D02*
Y-0005663D01*
X-0019531Y-0005473D02*
X-0019568D01*
X-0019526Y-0005491D02*
X-0019634D01*
X-0019522Y-0005508D02*
X-0019700D01*
X-0019517Y-0005526D02*
X-0019765D01*
X-0019512Y-0005544D02*
X-0019831D01*
X-0019507Y-0005562D02*
X-0019897D01*
X-0019503Y-0005579D02*
X-0019963D01*
X-0019498Y-0005597D02*
X-0020029D01*
X-0019493Y-0005615D02*
X-0020094D01*
X-0019489Y-0005632D02*
X-0020089D01*
X-0019484Y-0005650D02*
X-0020084D01*
X-0019479Y-0005668D02*
X-0020080D01*
X-0019474Y-0005685D02*
X-0020075D01*
X-0019470Y-0005703D02*
X-0020070D01*
X-0019465Y-0005721D02*
X-0020065D01*
X-0019460Y-0005738D02*
X-0020061D01*
X-0019455Y-0005756D02*
X-0020056D01*
X-0019451Y-0005774D02*
X-0020051D01*
X-0019446Y-0005791D02*
X-0020046D01*
X-0019441Y-0005809D02*
X-0020042D01*
X-0019436Y-0005827D02*
X-0020037D01*
X-0019485Y-0005845D02*
X-0020032D01*
X-0019551Y-0005862D02*
X-0020027D01*
X-0019617Y-0005880D02*
X-0020023D01*
X-0019683Y-0005898D02*
X-0020018D01*
X-0019749Y-0005915D02*
X-0020013D01*
X-0019815Y-0005933D02*
X-0020009D01*
X-0019881Y-0005951D02*
X-0020004D01*
X-0019947Y-0005968D02*
X-0019999D01*
X-0019534Y-0005464D02*
X-0020094Y-0005614D01*
X-0019534Y-0005464D02*
X-0019435Y-0005831D01*
X-0019996Y-0005981D01*
X-0020094Y-0005614D02*
X-0019996Y-0005981D01*
X-0019444Y-0005798D02*
Y-0005834D01*
X-0019462Y-0005732D02*
Y-0005838D01*
X-0019480Y-0005666D02*
Y-0005843D01*
X-0019497Y-0005599D02*
Y-0005848D01*
X-0019515Y-0005533D02*
Y-0005853D01*
X-0019533Y-0005464D02*
Y-0005857D01*
X-0019550Y-0005468D02*
Y-0005862D01*
X-0019568Y-0005473D02*
Y-0005867D01*
X-0019586Y-0005478D02*
Y-0005872D01*
X-0019603Y-0005483D02*
Y-0005876D01*
X-0019621Y-0005487D02*
Y-0005881D01*
X-0019639Y-0005492D02*
Y-0005886D01*
X-0019656Y-0005497D02*
Y-0005890D01*
X-0019674Y-0005502D02*
Y-0005895D01*
X-0014832Y-0012559D02*
Y-0013055D01*
X-0014850Y-0012574D02*
Y-0013070D01*
X-0014868Y-0012588D02*
Y-0013085D01*
X-0014885Y-0012603D02*
Y-0013100D01*
X-0014903Y-0012618D02*
Y-0013115D01*
X-0014921Y-0012633D02*
Y-0013129D01*
X-0014938Y-0012648D02*
Y-0013144D01*
X-0014956Y-0012663D02*
Y-0013155D01*
X-0014974Y-0012677D02*
Y-0013134D01*
X-0014991Y-0012692D02*
Y-0013113D01*
X-0015009Y-0012707D02*
Y-0013092D01*
X-0015027Y-0012722D02*
Y-0013071D01*
X-0015044Y-0012737D02*
Y-0013050D01*
X-0015062Y-0012752D02*
Y-0013029D01*
X-0015080Y-0012766D02*
Y-0013008D01*
X-0015098Y-0012781D02*
Y-0012987D01*
X-0015115Y-0012796D02*
Y-0012966D01*
X-0015133Y-0012811D02*
Y-0012945D01*
X-0015151Y-0012826D02*
Y-0012924D01*
X-0015168Y-0012841D02*
Y-0012903D01*
X-0015186Y-0012855D02*
Y-0012882D01*
X-0014813Y-0012579D02*
X-0014856D01*
X-0014798Y-0012596D02*
X-0014877D01*
X-0014784Y-0012614D02*
X-0014898D01*
X-0014769Y-0012632D02*
X-0014919D01*
X-0014754Y-0012649D02*
X-0014940D01*
X-0014739Y-0012667D02*
X-0014961D01*
X-0014724Y-0012685D02*
X-0014983D01*
X-0014709Y-0012702D02*
X-0015004D01*
X-0014695Y-0012720D02*
X-0015025D01*
X-0014680Y-0012738D02*
X-0015046D01*
X-0014665Y-0012756D02*
X-0015067D01*
X-0014650Y-0012773D02*
X-0015088D01*
X-0014635Y-0012791D02*
X-0015109D01*
X-0014620Y-0012809D02*
X-0015130D01*
X-0014606Y-0012826D02*
X-0015151D01*
X-0014591Y-0012844D02*
X-0015172D01*
X-0014602Y-0012862D02*
X-0015193D01*
X-0014623Y-0012879D02*
X-0015188D01*
X-0014644Y-0012897D02*
X-0015173D01*
X-0014665Y-0012915D02*
X-0015158D01*
X-0014686Y-0012932D02*
X-0015143D01*
X-0014707Y-0012950D02*
X-0015129D01*
X-0014728Y-0012968D02*
X-0015114D01*
X-0014749Y-0012985D02*
X-0015099D01*
X-0014770Y-0013003D02*
X-0015084D01*
X-0014791Y-0013021D02*
X-0015069D01*
X-0014812Y-0013039D02*
X-0015054D01*
X-0014833Y-0013056D02*
X-0015039D01*
X-0014855Y-0013074D02*
X-0015025D01*
X-0014876Y-0013092D02*
X-0015010D01*
X-0014897Y-0013109D02*
X-0014995D01*
X-0014918Y-0013127D02*
X-0014980D01*
X-0014939Y-0013145D02*
X-0014965D01*
X-0014587Y-0012849D02*
X-0014954Y-0013158D01*
X-0015199Y-0012866D02*
X-0014954Y-0013158D01*
X-0014831Y-0012558D02*
X-0015199Y-0012866D01*
X-0014831Y-0012558D02*
X-0014587Y-0012849D01*
X-0014602Y-0012830D02*
Y-0012862D01*
X-0014620Y-0012809D02*
Y-0012877D01*
X-0014638Y-0012788D02*
Y-0012892D01*
X-0014655Y-0012767D02*
Y-0012907D01*
X-0014673Y-0012746D02*
Y-0012922D01*
X-0014691Y-0012725D02*
Y-0012936D01*
X-0014708Y-0012704D02*
Y-0012951D01*
X-0014726Y-0012683D02*
Y-0012966D01*
X-0014744Y-0012661D02*
Y-0012981D01*
X-0014761Y-0012640D02*
Y-0012996D01*
X-0014779Y-0012619D02*
Y-0013011D01*
X-0014797Y-0012598D02*
Y-0013025D01*
X-0014815Y-0012577D02*
Y-0013040D01*
X-0015308Y-0011992D02*
Y-0012488D01*
X-0015326Y-0012007D02*
Y-0012503D01*
X-0015343Y-0012022D02*
Y-0012518D01*
X-0015361Y-0012036D02*
Y-0012533D01*
X-0015379Y-0012051D02*
Y-0012548D01*
X-0015396Y-0012066D02*
Y-0012562D01*
X-0015414Y-0012081D02*
Y-0012577D01*
X-0015432Y-0012096D02*
Y-0012588D01*
X-0015449Y-0012111D02*
Y-0012567D01*
X-0015467Y-0012125D02*
Y-0012546D01*
X-0015485Y-0012140D02*
Y-0012525D01*
X-0015502Y-0012155D02*
Y-0012504D01*
X-0015520Y-0012170D02*
Y-0012483D01*
X-0015538Y-0012185D02*
Y-0012462D01*
X-0015556Y-0012199D02*
Y-0012441D01*
X-0015573Y-0012214D02*
Y-0012420D01*
X-0015591Y-0012229D02*
Y-0012399D01*
X-0015609Y-0012244D02*
Y-0012378D01*
X-0015626Y-0012259D02*
Y-0012357D01*
X-0015644Y-0012274D02*
Y-0012336D01*
X-0015662Y-0012288D02*
Y-0012315D01*
X-0015289Y-0012012D02*
X-0015331D01*
X-0015274Y-0012029D02*
X-0015352D01*
X-0015259Y-0012047D02*
X-0015374D01*
X-0015245Y-0012065D02*
X-0015395D01*
X-0015230Y-0012082D02*
X-0015416D01*
X-0015215Y-0012100D02*
X-0015437D01*
X-0015200Y-0012118D02*
X-0015458D01*
X-0015185Y-0012135D02*
X-0015479D01*
X-0015170Y-0012153D02*
X-0015500D01*
X-0015156Y-0012171D02*
X-0015521D01*
X-0015141Y-0012189D02*
X-0015542D01*
X-0015126Y-0012206D02*
X-0015564D01*
X-0015111Y-0012224D02*
X-0015585D01*
X-0015096Y-0012242D02*
X-0015606D01*
X-0015081Y-0012259D02*
X-0015627D01*
X-0015066Y-0012277D02*
X-0015648D01*
X-0015077Y-0012295D02*
X-0015669D01*
X-0015098Y-0012312D02*
X-0015664D01*
X-0015120Y-0012330D02*
X-0015649D01*
X-0015141Y-0012348D02*
X-0015634D01*
X-0015162Y-0012365D02*
X-0015619D01*
X-0015183Y-0012383D02*
X-0015604D01*
X-0015204Y-0012401D02*
X-0015589D01*
X-0015225Y-0012418D02*
X-0015574D01*
X-0015246Y-0012436D02*
X-0015560D01*
X-0015267Y-0012454D02*
X-0015545D01*
X-0015288Y-0012472D02*
X-0015530D01*
X-0015309Y-0012489D02*
X-0015515D01*
X-0015330Y-0012507D02*
X-0015500D01*
X-0015351Y-0012525D02*
X-0015485D01*
X-0015372Y-0012542D02*
X-0015470D01*
X-0015393Y-0012560D02*
X-0015456D01*
X-0015415Y-0012578D02*
X-0015441D01*
X-0015062Y-0012282D02*
X-0015430Y-0012591D01*
X-0015675Y-0012299D02*
X-0015430Y-0012591D01*
X-0015307Y-0011991D02*
X-0015675Y-0012299D01*
X-0015307Y-0011991D02*
X-0015062Y-0012282D01*
X-0015078Y-0012263D02*
Y-0012295D01*
X-0015096Y-0012242D02*
Y-0012310D01*
X-0015113Y-0012221D02*
Y-0012325D01*
X-0015131Y-0012200D02*
Y-0012340D01*
X-0015149Y-0012179D02*
Y-0012355D01*
X-0015166Y-0012158D02*
Y-0012369D01*
X-0015184Y-0012137D02*
Y-0012384D01*
X-0015202Y-0012116D02*
Y-0012399D01*
X-0015219Y-0012095D02*
Y-0012414D01*
X-0015237Y-0012074D02*
Y-0012429D01*
X-0015255Y-0012053D02*
Y-0012444D01*
X-0015273Y-0012031D02*
Y-0012458D01*
X-0015290Y-0012010D02*
Y-0012473D01*
X-0015590Y-0012913D02*
Y-0013208D01*
X-0015608Y-0012892D02*
Y-0013223D01*
X-0015625Y-0012871D02*
Y-0013237D01*
X-0015643Y-0012850D02*
Y-0013252D01*
X-0015661Y-0012829D02*
Y-0013267D01*
X-0015678Y-0012808D02*
Y-0013282D01*
X-0015696Y-0012801D02*
Y-0013297D01*
X-0015714Y-0012816D02*
Y-0013312D01*
X-0015732Y-0012830D02*
Y-0013327D01*
X-0015749Y-0012845D02*
Y-0013341D01*
X-0015767Y-0012860D02*
Y-0013356D01*
X-0015785Y-0012875D02*
Y-0013371D01*
X-0015802Y-0012890D02*
Y-0013386D01*
X-0015820Y-0012905D02*
Y-0013401D01*
X-0015838Y-0012919D02*
Y-0013416D01*
X-0015855Y-0012934D02*
Y-0013430D01*
X-0015873Y-0012949D02*
Y-0013445D01*
X-0015891Y-0012964D02*
Y-0013457D01*
X-0015908Y-0012979D02*
Y-0013436D01*
X-0015926Y-0012994D02*
Y-0013415D01*
X-0015944Y-0013008D02*
Y-0013394D01*
X-0015961Y-0013023D02*
Y-0013373D01*
X-0015979Y-0013038D02*
Y-0013352D01*
X-0015997Y-0013053D02*
Y-0013331D01*
X-0016015Y-0013068D02*
Y-0013310D01*
X-0016032Y-0013083D02*
Y-0013288D01*
X-0016050Y-0013097D02*
Y-0013267D01*
X-0016068Y-0013112D02*
Y-0013246D01*
X-0016085Y-0013127D02*
Y-0013225D01*
X-0016103Y-0013142D02*
Y-0013204D01*
X-0016121Y-0013157D02*
Y-0013183D01*
X-0015677Y-0012809D02*
X-0015706D01*
X-0015662Y-0012827D02*
X-0015727D01*
X-0015648Y-0012845D02*
X-0015748D01*
X-0015633Y-0012862D02*
X-0015770D01*
X-0015618Y-0012880D02*
X-0015791D01*
X-0015603Y-0012898D02*
X-0015812D01*
X-0015588Y-0012915D02*
X-0015833D01*
X-0015573Y-0012933D02*
X-0015854D01*
X-0015558Y-0012951D02*
X-0015875D01*
X-0015544Y-0012968D02*
X-0015896D01*
X-0015529Y-0012986D02*
X-0015917D01*
X-0015514Y-0013004D02*
X-0015938D01*
X-0015499Y-0013021D02*
X-0015959D01*
X-0015484Y-0013039D02*
X-0015980D01*
X-0015469Y-0013057D02*
X-0016002D01*
X-0015454Y-0013075D02*
X-0016023D01*
X-0015452Y-0013092D02*
X-0016044D01*
X-0015474Y-0013110D02*
X-0016065D01*
X-0015495Y-0013128D02*
X-0016086D01*
X-0015516Y-0013145D02*
X-0016107D01*
X-0015537Y-0013163D02*
X-0016128D01*
X-0015558Y-0013181D02*
X-0016123D01*
X-0015579Y-0013198D02*
X-0016108D01*
X-0015600Y-0013216D02*
X-0016093D01*
X-0015621Y-0013234D02*
X-0016078D01*
X-0015642Y-0013251D02*
X-0016063D01*
X-0015663Y-0013269D02*
X-0016048D01*
X-0015684Y-0013287D02*
X-0016034D01*
X-0015705Y-0013304D02*
X-0016019D01*
X-0015726Y-0013322D02*
X-0016004D01*
X-0015747Y-0013340D02*
X-0015989D01*
X-0015768Y-0013358D02*
X-0015974D01*
X-0015790Y-0013375D02*
X-0015959D01*
X-0015811Y-0013393D02*
X-0015945D01*
X-0015832Y-0013411D02*
X-0015930D01*
X-0015853Y-0013428D02*
X-0015915D01*
X-0015874Y-0013446D02*
X-0015900D01*
X-0015689Y-0012795D02*
X-0016134Y-0013168D01*
X-0015689Y-0012795D02*
X-0015445Y-0013086D01*
X-0015889Y-0013459D01*
X-0016134Y-0013168D02*
X-0015889Y-0013459D01*
X-0015466Y-0013061D02*
Y-0013104D01*
X-0015484Y-0013039D02*
Y-0013119D01*
X-0015502Y-0013018D02*
Y-0013133D01*
X-0015519Y-0012997D02*
Y-0013148D01*
X-0015537Y-0012976D02*
Y-0013163D01*
X-0015555Y-0012955D02*
Y-0013178D01*
X-0015572Y-0012934D02*
Y-0013193D01*
X0017899Y-0008708D02*
Y-0009147D01*
X0017881Y-0008698D02*
Y-0009137D01*
X0017864Y-0008688D02*
Y-0009127D01*
X0017846Y-0008677D02*
Y-0009116D01*
X0017828Y-0008667D02*
Y-0009106D01*
X0017811Y-0008657D02*
Y-0009096D01*
X0017793Y-0008647D02*
Y-0009086D01*
X0017775Y-0008636D02*
Y-0009075D01*
X0017757Y-0008626D02*
Y-0009065D01*
X0017740Y-0008616D02*
Y-0009055D01*
X0017722Y-0008606D02*
Y-0009045D01*
X0017704Y-0008637D02*
Y-0009035D01*
X0017687Y-0008668D02*
Y-0009024D01*
X0017669Y-0008698D02*
Y-0009014D01*
X0017651Y-0008729D02*
Y-0009004D01*
X0017634Y-0008760D02*
Y-0008994D01*
X0017616Y-0008790D02*
Y-0008984D01*
X0017598Y-0008821D02*
Y-0008973D01*
X0017581Y-0008852D02*
Y-0008963D01*
X0017563Y-0008882D02*
Y-0008953D01*
X0017545Y-0008913D02*
Y-0008943D01*
X0017736Y-0008614D02*
X0017718D01*
X0017767Y-0008632D02*
X0017707D01*
X0017797Y-0008649D02*
X0017697D01*
X0017828Y-0008667D02*
X0017687D01*
X0017859Y-0008685D02*
X0017677D01*
X0017889Y-0008702D02*
X0017667D01*
X0017920Y-0008720D02*
X0017656D01*
X0017950Y-0008738D02*
X0017646D01*
X0017981Y-0008756D02*
X0017636D01*
X0018012Y-0008773D02*
X0017626D01*
X0018042Y-0008791D02*
X0017616D01*
X0018073Y-0008809D02*
X0017605D01*
X0018103Y-0008826D02*
X0017595D01*
X0018134Y-0008844D02*
X0017585D01*
X0018129Y-0008862D02*
X0017575D01*
X0018119Y-0008879D02*
X0017565D01*
X0018109Y-0008897D02*
X0017554D01*
X0018098Y-0008915D02*
X0017544D01*
X0018088Y-0008932D02*
X0017534D01*
X0018078Y-0008950D02*
X0017558D01*
X0018068Y-0008968D02*
X0017589D01*
X0018058Y-0008985D02*
X0017619D01*
X0018047Y-0009003D02*
X0017650D01*
X0018037Y-0009021D02*
X0017680D01*
X0018027Y-0009039D02*
X0017711D01*
X0018017Y-0009056D02*
X0017742D01*
X0018006Y-0009074D02*
X0017772D01*
X0017996Y-0009092D02*
X0017803D01*
X0017986Y-0009109D02*
X0017834D01*
X0017976Y-0009127D02*
X0017864D01*
X0017966Y-0009145D02*
X0017895D01*
X0017955Y-0009162D02*
X0017926D01*
X0017722Y-0008606D02*
X0018138Y-0008846D01*
X0017948Y-0009175D01*
X0017532Y-0008935D02*
X0017948Y-0009175D01*
X0017722Y-0008606D02*
X0017532Y-0008935D01*
X0018129Y-0008841D02*
Y-0008862D01*
X0018111Y-0008831D02*
Y-0008893D01*
X0018094Y-0008821D02*
Y-0008923D01*
X0018076Y-0008810D02*
Y-0008954D01*
X0018058Y-0008800D02*
Y-0008984D01*
X0018040Y-0008790D02*
Y-0009015D01*
X0018023Y-0008780D02*
Y-0009046D01*
X0018005Y-0008769D02*
Y-0009076D01*
X0017987Y-0008759D02*
Y-0009107D01*
X0017970Y-0008749D02*
Y-0009138D01*
X0017952Y-0008739D02*
Y-0009168D01*
X0017934Y-0008729D02*
Y-0009167D01*
X0017917Y-0008718D02*
Y-0009157D01*
X0017529Y-0009349D02*
Y-0009788D01*
X0017511Y-0009339D02*
Y-0009777D01*
X0017494Y-0009329D02*
Y-0009767D01*
X0017476Y-0009318D02*
Y-0009757D01*
X0017458Y-0009308D02*
Y-0009747D01*
X0017441Y-0009298D02*
Y-0009737D01*
X0017423Y-0009288D02*
Y-0009726D01*
X0017405Y-0009277D02*
Y-0009716D01*
X0017387Y-0009267D02*
Y-0009706D01*
X0017370Y-0009257D02*
Y-0009696D01*
X0017352Y-0009247D02*
Y-0009686D01*
X0017334Y-0009278D02*
Y-0009675D01*
X0017317Y-0009308D02*
Y-0009665D01*
X0017299Y-0009339D02*
Y-0009655D01*
X0017281Y-0009370D02*
Y-0009645D01*
X0017264Y-0009400D02*
Y-0009634D01*
X0017246Y-0009431D02*
Y-0009624D01*
X0017228Y-0009462D02*
Y-0009614D01*
X0017211Y-0009492D02*
Y-0009604D01*
X0017193Y-0009523D02*
Y-0009594D01*
X0017175Y-0009554D02*
Y-0009583D01*
X0017366Y-0009255D02*
X0017348D01*
X0017396Y-0009272D02*
X0017338D01*
X0017427Y-0009290D02*
X0017327D01*
X0017458Y-0009308D02*
X0017317D01*
X0017488Y-0009325D02*
X0017307D01*
X0017519Y-0009343D02*
X0017297D01*
X0017549Y-0009361D02*
X0017286D01*
X0017580Y-0009378D02*
X0017276D01*
X0017611Y-0009396D02*
X0017266D01*
X0017641Y-0009414D02*
X0017256D01*
X0017672Y-0009432D02*
X0017246D01*
X0017703Y-0009449D02*
X0017235D01*
X0017733Y-0009467D02*
X0017225D01*
X0017764Y-0009485D02*
X0017215D01*
X0017759Y-0009502D02*
X0017205D01*
X0017749Y-0009520D02*
X0017195D01*
X0017739Y-0009538D02*
X0017184D01*
X0017728Y-0009555D02*
X0017174D01*
X0017718Y-0009573D02*
X0017164D01*
X0017708Y-0009591D02*
X0017188D01*
X0017698Y-0009608D02*
X0017219D01*
X0017688Y-0009626D02*
X0017249D01*
X0017677Y-0009644D02*
X0017280D01*
X0017667Y-0009661D02*
X0017310D01*
X0017657Y-0009679D02*
X0017341D01*
X0017647Y-0009697D02*
X0017372D01*
X0017636Y-0009715D02*
X0017402D01*
X0017626Y-0009732D02*
X0017433D01*
X0017616Y-0009750D02*
X0017464D01*
X0017606Y-0009768D02*
X0017494D01*
X0017596Y-0009785D02*
X0017525D01*
X0017585Y-0009803D02*
X0017556D01*
X0017352Y-0009247D02*
X0017768Y-0009487D01*
X0017578Y-0009816D01*
X0017162Y-0009576D02*
X0017578Y-0009816D01*
X0017352Y-0009247D02*
X0017162Y-0009576D01*
X0017759Y-0009482D02*
Y-0009503D01*
X0017741Y-0009471D02*
Y-0009533D01*
X0017724Y-0009461D02*
Y-0009564D01*
X0017706Y-0009451D02*
Y-0009594D01*
X0017688Y-0009441D02*
Y-0009625D01*
X0017670Y-0009431D02*
Y-0009656D01*
X0017653Y-0009420D02*
Y-0009686D01*
X0017635Y-0009410D02*
Y-0009717D01*
X0017617Y-0009400D02*
Y-0009748D01*
X0017600Y-0009390D02*
Y-0009778D01*
X0017582Y-0009380D02*
Y-0009809D01*
X0017564Y-0009369D02*
Y-0009808D01*
X0017547Y-0009359D02*
Y-0009798D01*
X0018574Y-0009525D02*
Y-0009910D01*
X0018557Y-0009515D02*
Y-0009940D01*
X0018539Y-0009505D02*
Y-0009944D01*
X0018521Y-0009495D02*
Y-0009934D01*
X0018504Y-0009485D02*
Y-0009923D01*
X0018486Y-0009474D02*
Y-0009913D01*
X0018468Y-0009464D02*
Y-0009903D01*
X0018451Y-0009454D02*
Y-0009893D01*
X0018433Y-0009444D02*
Y-0009882D01*
X0018415Y-0009434D02*
Y-0009872D01*
X0018398Y-0009423D02*
Y-0009862D01*
X0018380Y-0009413D02*
Y-0009852D01*
X0018362Y-0009403D02*
Y-0009842D01*
X0018345Y-0009393D02*
Y-0009831D01*
X0018327Y-0009383D02*
Y-0009821D01*
X0018309Y-0009372D02*
Y-0009811D01*
X0018291Y-0009362D02*
Y-0009801D01*
X0018274Y-0009352D02*
Y-0009791D01*
X0018256Y-0009342D02*
Y-0009780D01*
X0018238Y-0009332D02*
Y-0009770D01*
X0018221Y-0009363D02*
Y-0009760D01*
X0018203Y-0009393D02*
Y-0009750D01*
X0018185Y-0009424D02*
Y-0009740D01*
X0018168Y-0009454D02*
Y-0009729D01*
X0018150Y-0009485D02*
Y-0009719D01*
X0018132Y-0009516D02*
Y-0009709D01*
X0018115Y-0009546D02*
Y-0009699D01*
X0018097Y-0009577D02*
Y-0009688D01*
X0018079Y-0009608D02*
Y-0009678D01*
X0018062Y-0009638D02*
Y-0009668D01*
X0018247Y-0009336D02*
X0018236D01*
X0018277Y-0009354D02*
X0018226D01*
X0018308Y-0009372D02*
X0018215D01*
X0018339Y-0009389D02*
X0018205D01*
X0018369Y-0009407D02*
X0018195D01*
X0018400Y-0009425D02*
X0018185D01*
X0018431Y-0009442D02*
X0018175D01*
X0018461Y-0009460D02*
X0018164D01*
X0018492Y-0009478D02*
X0018154D01*
X0018522Y-0009495D02*
X0018144D01*
X0018553Y-0009513D02*
X0018134D01*
X0018584Y-0009531D02*
X0018124D01*
X0018614Y-0009549D02*
X0018113D01*
X0018645Y-0009566D02*
X0018103D01*
X0018676Y-0009584D02*
X0018093D01*
X0018706Y-0009602D02*
X0018083D01*
X0018737Y-0009619D02*
X0018072D01*
X0018732Y-0009637D02*
X0018062D01*
X0018722Y-0009655D02*
X0018052D01*
X0018712Y-0009672D02*
X0018069D01*
X0018701Y-0009690D02*
X0018100D01*
X0018691Y-0009708D02*
X0018130D01*
X0018681Y-0009725D02*
X0018161D01*
X0018671Y-0009743D02*
X0018191D01*
X0018661Y-0009761D02*
X0018222D01*
X0018650Y-0009778D02*
X0018253D01*
X0018640Y-0009796D02*
X0018283D01*
X0018630Y-0009814D02*
X0018314D01*
X0018620Y-0009832D02*
X0018345D01*
X0018609Y-0009849D02*
X0018375D01*
X0018599Y-0009867D02*
X0018406D01*
X0018589Y-0009885D02*
X0018437D01*
X0018579Y-0009902D02*
X0018467D01*
X0018569Y-0009920D02*
X0018498D01*
X0018558Y-0009938D02*
X0018529D01*
X0018049Y-0009661D02*
X0018551Y-0009951D01*
X0018239Y-0009332D02*
X0018049Y-0009661D01*
X0018239Y-0009332D02*
X0018741Y-0009622D01*
X0018551Y-0009951D01*
X0018734Y-0009617D02*
Y-0009634D01*
X0018716Y-0009607D02*
Y-0009665D01*
X0018698Y-0009597D02*
Y-0009695D01*
X0018681Y-0009587D02*
Y-0009726D01*
X0018663Y-0009577D02*
Y-0009757D01*
X0018645Y-0009566D02*
Y-0009787D01*
X0018628Y-0009556D02*
Y-0009818D01*
X0018610Y-0009546D02*
Y-0009849D01*
X0018592Y-0009536D02*
Y-0009879D01*
X0016742Y0010791D02*
Y0010352D01*
X0016725Y0010780D02*
Y0010341D01*
X0016707Y0010770D02*
Y0010331D01*
X0016689Y0010760D02*
Y0010321D01*
X0016672Y0010750D02*
Y0010311D01*
X0016654Y0010739D02*
Y0010301D01*
X0016636Y0010729D02*
Y0010290D01*
X0016618Y0010719D02*
Y0010280D01*
X0016601Y0010709D02*
Y0010270D01*
X0016583Y0010699D02*
Y0010260D01*
X0016565Y0010688D02*
Y0010250D01*
X0016548Y0010678D02*
Y0010281D01*
X0016530Y0010668D02*
Y0010311D01*
X0016512Y0010658D02*
Y0010342D01*
X0016495Y0010647D02*
Y0010372D01*
X0016477Y0010637D02*
Y0010403D01*
X0016459Y0010627D02*
Y0010434D01*
X0016442Y0010617D02*
Y0010464D01*
X0016424Y0010607D02*
Y0010495D01*
X0016406Y0010596D02*
Y0010526D01*
X0016389Y0010586D02*
Y0010556D01*
X0016796Y0010811D02*
X0016777D01*
X0016806Y0010793D02*
X0016747D01*
X0016816Y0010775D02*
X0016716D01*
X0016827Y0010758D02*
X0016685D01*
X0016837Y0010740D02*
X0016655D01*
X0016847Y0010722D02*
X0016624D01*
X0016857Y0010705D02*
X0016594D01*
X0016867Y0010687D02*
X0016563D01*
X0016878Y0010669D02*
X0016533D01*
X0016888Y0010652D02*
X0016502D01*
X0016898Y0010634D02*
X0016471D01*
X0016908Y0010616D02*
X0016441D01*
X0016918Y0010599D02*
X0016410D01*
X0016929Y0010581D02*
X0016380D01*
X0016939Y0010563D02*
X0016384D01*
X0016949Y0010546D02*
X0016395D01*
X0016959Y0010528D02*
X0016405D01*
X0016969Y0010510D02*
X0016415D01*
X0016980Y0010492D02*
X0016425D01*
X0016956Y0010475D02*
X0016436D01*
X0016925Y0010457D02*
X0016446D01*
X0016894Y0010439D02*
X0016456D01*
X0016864Y0010422D02*
X0016466D01*
X0016833Y0010404D02*
X0016476D01*
X0016802Y0010386D02*
X0016487D01*
X0016772Y0010369D02*
X0016497D01*
X0016741Y0010351D02*
X0016507D01*
X0016711Y0010333D02*
X0016517D01*
X0016680Y0010316D02*
X0016527D01*
X0016649Y0010298D02*
X0016538D01*
X0016619Y0010280D02*
X0016548D01*
X0016588Y0010263D02*
X0016558D01*
X0016791Y0010819D02*
X0016376Y0010579D01*
X0016791Y0010819D02*
X0016981Y0010490D01*
X0016566Y0010250D01*
X0016376Y0010579D02*
X0016566Y0010250D01*
X0016972Y0010505D02*
Y0010484D01*
X0016955Y0010536D02*
Y0010474D01*
X0016937Y0010567D02*
Y0010464D01*
X0016919Y0010597D02*
Y0010454D01*
X0016901Y0010628D02*
Y0010444D01*
X0016884Y0010659D02*
Y0010433D01*
X0016866Y0010689D02*
Y0010423D01*
X0016848Y0010720D02*
Y0010413D01*
X0016831Y0010751D02*
Y0010403D01*
X0016813Y0010781D02*
Y0010392D01*
X0016795Y0010812D02*
Y0010382D01*
X0016778Y0010811D02*
Y0010372D01*
X0016760Y0010801D02*
Y0010362D01*
X0017112Y0010150D02*
Y0009711D01*
X0017095Y0010139D02*
Y0009701D01*
X0017077Y0010129D02*
Y0009691D01*
X0017059Y0010119D02*
Y0009680D01*
X0017042Y0010109D02*
Y0009670D01*
X0017024Y0010099D02*
Y0009660D01*
X0017006Y0010088D02*
Y0009650D01*
X0016988Y0010078D02*
Y0009639D01*
X0016971Y0010068D02*
Y0009629D01*
X0016953Y0010058D02*
Y0009619D01*
X0016935Y0010048D02*
Y0009609D01*
X0016918Y0010037D02*
Y0009640D01*
X0016900Y0010027D02*
Y0009670D01*
X0016882Y0010017D02*
Y0009701D01*
X0016865Y0010007D02*
Y0009732D01*
X0016847Y0009996D02*
Y0009762D01*
X0016829Y0009986D02*
Y0009793D01*
X0016812Y0009976D02*
Y0009824D01*
X0016794Y0009966D02*
Y0009854D01*
X0016776Y0009956D02*
Y0009885D01*
X0016759Y0009945D02*
Y0009916D01*
X0017166Y0010170D02*
X0017148D01*
X0017176Y0010152D02*
X0017117D01*
X0017186Y0010135D02*
X0017087D01*
X0017196Y0010117D02*
X0017056D01*
X0017207Y0010099D02*
X0017025D01*
X0017217Y0010082D02*
X0016995D01*
X0017227Y0010064D02*
X0016964D01*
X0017237Y0010046D02*
X0016933D01*
X0017247Y0010029D02*
X0016903D01*
X0017258Y0010011D02*
X0016872D01*
X0017268Y0009993D02*
X0016841D01*
X0017278Y0009976D02*
X0016811D01*
X0017288Y0009958D02*
X0016780D01*
X0017299Y0009940D02*
X0016750D01*
X0017309Y0009923D02*
X0016754D01*
X0017319Y0009905D02*
X0016765D01*
X0017329Y0009887D02*
X0016775D01*
X0017339Y0009869D02*
X0016785D01*
X0017350Y0009852D02*
X0016795D01*
X0017326Y0009834D02*
X0016806D01*
X0017295Y0009816D02*
X0016816D01*
X0017264Y0009799D02*
X0016826D01*
X0017234Y0009781D02*
X0016836D01*
X0017203Y0009763D02*
X0016846D01*
X0017172Y0009746D02*
X0016857D01*
X0017142Y0009728D02*
X0016867D01*
X0017111Y0009710D02*
X0016877D01*
X0017081Y0009693D02*
X0016887D01*
X0017050Y0009675D02*
X0016897D01*
X0017019Y0009657D02*
X0016908D01*
X0016989Y0009640D02*
X0016918D01*
X0016958Y0009622D02*
X0016928D01*
X0017161Y0010178D02*
X0016746Y0009938D01*
X0017161Y0010178D02*
X0017351Y0009849D01*
X0016936Y0009609D01*
X0016746Y0009938D02*
X0016936Y0009609D01*
X0017342Y0009865D02*
Y0009844D01*
X0017325Y0009895D02*
Y0009833D01*
X0017307Y0009926D02*
Y0009823D01*
X0017289Y0009956D02*
Y0009813D01*
X0017271Y0009987D02*
Y0009803D01*
X0017254Y0010018D02*
Y0009793D01*
X0017236Y0010048D02*
Y0009782D01*
X0017218Y0010079D02*
Y0009772D01*
X0017201Y0010110D02*
Y0009762D01*
X0017183Y0010140D02*
Y0009752D01*
X0017165Y0010171D02*
Y0009742D01*
X0017148Y0010170D02*
Y0009731D01*
X0017130Y0010160D02*
Y0009721D01*
X0017788Y0010912D02*
Y0010528D01*
X0017770Y0010943D02*
Y0010518D01*
X0017752Y0010946D02*
Y0010508D01*
X0017735Y0010936D02*
Y0010498D01*
X0017717Y0010926D02*
Y0010487D01*
X0017699Y0010916D02*
Y0010477D01*
X0017682Y0010906D02*
Y0010467D01*
X0017664Y0010895D02*
Y0010457D01*
X0017646Y0010885D02*
Y0010446D01*
X0017629Y0010875D02*
Y0010436D01*
X0017611Y0010865D02*
Y0010426D01*
X0017593Y0010855D02*
Y0010416D01*
X0017576Y0010844D02*
Y0010406D01*
X0017558Y0010834D02*
Y0010395D01*
X0017540Y0010824D02*
Y0010385D01*
X0017522Y0010814D02*
Y0010375D01*
X0017505Y0010803D02*
Y0010365D01*
X0017487Y0010793D02*
Y0010355D01*
X0017469Y0010783D02*
Y0010344D01*
X0017452Y0010773D02*
Y0010335D01*
X0017434Y0010763D02*
Y0010365D01*
X0017416Y0010752D02*
Y0010396D01*
X0017399Y0010742D02*
Y0010426D01*
X0017381Y0010732D02*
Y0010457D01*
X0017363Y0010722D02*
Y0010488D01*
X0017346Y0010712D02*
Y0010518D01*
X0017328Y0010701D02*
Y0010549D01*
X0017310Y0010691D02*
Y0010580D01*
X0017293Y0010681D02*
Y0010610D01*
X0017275Y0010671D02*
Y0010641D01*
X0017767Y0010949D02*
X0017756D01*
X0017777Y0010931D02*
X0017725D01*
X0017787Y0010913D02*
X0017695D01*
X0017798Y0010896D02*
X0017664D01*
X0017808Y0010878D02*
X0017634D01*
X0017818Y0010860D02*
X0017603D01*
X0017828Y0010842D02*
X0017572D01*
X0017838Y0010825D02*
X0017542D01*
X0017849Y0010807D02*
X0017511D01*
X0017859Y0010789D02*
X0017480D01*
X0017869Y0010772D02*
X0017450D01*
X0017879Y0010754D02*
X0017419D01*
X0017890Y0010736D02*
X0017388D01*
X0017900Y0010719D02*
X0017358D01*
X0017910Y0010701D02*
X0017327D01*
X0017920Y0010683D02*
X0017297D01*
X0017930Y0010666D02*
X0017266D01*
X0017941Y0010648D02*
X0017271D01*
X0017951Y0010630D02*
X0017281D01*
X0017934Y0010613D02*
X0017291D01*
X0017903Y0010595D02*
X0017301D01*
X0017873Y0010577D02*
X0017312D01*
X0017842Y0010559D02*
X0017322D01*
X0017811Y0010542D02*
X0017332D01*
X0017781Y0010524D02*
X0017342D01*
X0017750Y0010506D02*
X0017353D01*
X0017719Y0010489D02*
X0017363D01*
X0017689Y0010471D02*
X0017373D01*
X0017658Y0010453D02*
X0017383D01*
X0017628Y0010436D02*
X0017393D01*
X0017597Y0010418D02*
X0017404D01*
X0017566Y0010400D02*
X0017414D01*
X0017536Y0010383D02*
X0017424D01*
X0017505Y0010365D02*
X0017434D01*
X0017474Y0010347D02*
X0017444D01*
X0017954Y0010624D02*
X0017452Y0010334D01*
X0017262Y0010663D02*
X0017452Y0010334D01*
X0017764Y0010953D02*
X0017262Y0010663D01*
X0017764Y0010953D02*
X0017954Y0010624D01*
X0017947Y0010637D02*
Y0010620D01*
X0017929Y0010667D02*
Y0010610D01*
X0017912Y0010698D02*
Y0010600D01*
X0017894Y0010729D02*
Y0010589D01*
X0017876Y0010759D02*
Y0010579D01*
X0017859Y0010790D02*
Y0010569D01*
X0017841Y0010821D02*
Y0010559D01*
X0017823Y0010851D02*
Y0010549D01*
X0017805Y0010882D02*
Y0010538D01*
X-0019225Y0004681D02*
Y0004287D01*
X-0019243Y0004686D02*
Y0004292D01*
X-0019261Y0004690D02*
Y0004297D01*
X-0019278Y0004695D02*
Y0004301D01*
X-0019296Y0004700D02*
Y0004306D01*
X-0019314Y0004705D02*
Y0004311D01*
X-0019332Y0004709D02*
Y0004316D01*
X-0019349Y0004714D02*
Y0004320D01*
X-0019367Y0004719D02*
Y0004325D01*
X-0019385Y0004665D02*
Y0004330D01*
X-0019402Y0004599D02*
Y0004335D01*
X-0019420Y0004533D02*
Y0004339D01*
X-0019438Y0004467D02*
Y0004344D01*
X-0019455Y0004401D02*
Y0004349D01*
X-0019301Y0004701D02*
X-0019375D01*
X-0019235Y0004683D02*
X-0019380D01*
X-0019169Y0004666D02*
X-0019384D01*
X-0019103Y0004648D02*
X-0019389D01*
X-0019037Y0004630D02*
X-0019394D01*
X-0018971Y0004613D02*
X-0019399D01*
X-0018906Y0004595D02*
X-0019403D01*
X-0018911Y0004577D02*
X-0019408D01*
X-0018916Y0004560D02*
X-0019413D01*
X-0018920Y0004542D02*
X-0019417D01*
X-0018925Y0004524D02*
X-0019422D01*
X-0018930Y0004507D02*
X-0019427D01*
X-0018935Y0004489D02*
X-0019432D01*
X-0018939Y0004471D02*
X-0019436D01*
X-0018944Y0004453D02*
X-0019441D01*
X-0018949Y0004436D02*
X-0019446D01*
X-0018954Y0004418D02*
X-0019451D01*
X-0018958Y0004400D02*
X-0019455D01*
X-0018963Y0004383D02*
X-0019460D01*
X-0018968Y0004365D02*
X-0019465D01*
X-0018973Y0004347D02*
X-0019450D01*
X-0018977Y0004330D02*
X-0019384D01*
X-0018982Y0004312D02*
X-0019318D01*
X-0018987Y0004294D02*
X-0019251D01*
X-0018992Y0004277D02*
X-0019185D01*
X-0018996Y0004259D02*
X-0019119D01*
X-0019001Y0004241D02*
X-0019053D01*
X-0019468Y0004352D02*
X-0019005Y0004228D01*
X-0019370Y0004720D02*
X-0019468Y0004352D01*
X-0019370Y0004720D02*
X-0018906Y0004595D01*
X-0019005Y0004228D01*
X-0018925Y0004600D02*
Y0004525D01*
X-0018942Y0004605D02*
Y0004460D01*
X-0018960Y0004610D02*
Y0004394D01*
X-0018978Y0004614D02*
Y0004328D01*
X-0018995Y0004619D02*
Y0004262D01*
X-0019013Y0004624D02*
Y0004231D01*
X-0019031Y0004629D02*
Y0004235D01*
X-0019049Y0004633D02*
Y0004240D01*
X-0019066Y0004638D02*
Y0004245D01*
X-0019084Y0004643D02*
Y0004249D01*
X-0019102Y0004648D02*
Y0004254D01*
X-0019119Y0004652D02*
Y0004259D01*
X-0019137Y0004657D02*
Y0004264D01*
X-0019155Y0004662D02*
Y0004268D01*
X-0019172Y0004667D02*
Y0004273D01*
X-0019190Y0004671D02*
Y0004278D01*
X-0019208Y0004676D02*
Y0004283D01*
X-0019034Y0005395D02*
Y0005002D01*
X-0019051Y0005400D02*
Y0005007D01*
X-0019069Y0005405D02*
Y0005012D01*
X-0019087Y0005410D02*
Y0005016D01*
X-0019104Y0005414D02*
Y0005021D01*
X-0019122Y0005419D02*
Y0005026D01*
X-0019140Y0005424D02*
Y0005031D01*
X-0019158Y0005429D02*
Y0005035D01*
X-0019175Y0005433D02*
Y0005040D01*
X-0019193Y0005380D02*
Y0005045D01*
X-0019211Y0005314D02*
Y0005050D01*
X-0019228Y0005248D02*
Y0005054D01*
X-0019246Y0005182D02*
Y0005059D01*
X-0019264Y0005116D02*
Y0005064D01*
X-0019109Y0005416D02*
X-0019183D01*
X-0019043Y0005398D02*
X-0019188D01*
X-0018977Y0005380D02*
X-0019193D01*
X-0018911Y0005363D02*
X-0019197D01*
X-0018845Y0005345D02*
X-0019202D01*
X-0018779Y0005327D02*
X-0019207D01*
X-0018715Y0005310D02*
X-0019212D01*
X-0018719Y0005292D02*
X-0019216D01*
X-0018724Y0005274D02*
X-0019221D01*
X-0018729Y0005257D02*
X-0019226D01*
X-0018734Y0005239D02*
X-0019231D01*
X-0018738Y0005221D02*
X-0019235D01*
X-0018743Y0005203D02*
X-0019240D01*
X-0018748Y0005186D02*
X-0019245D01*
X-0018753Y0005168D02*
X-0019250D01*
X-0018757Y0005150D02*
X-0019254D01*
X-0018762Y0005133D02*
X-0019259D01*
X-0018767Y0005115D02*
X-0019264D01*
X-0018772Y0005097D02*
X-0019269D01*
X-0018776Y0005080D02*
X-0019273D01*
X-0018781Y0005062D02*
X-0019257D01*
X-0018786Y0005044D02*
X-0019191D01*
X-0018790Y0005027D02*
X-0019125D01*
X-0018795Y0005009D02*
X-0019059D01*
X-0018800Y0004991D02*
X-0018993D01*
X-0018805Y0004974D02*
X-0018927D01*
X-0018809Y0004956D02*
X-0018861D01*
X-0019277Y0005067D02*
X-0018813Y0004943D01*
X-0019178Y0005434D02*
X-0019277Y0005067D01*
X-0019178Y0005434D02*
X-0018715Y0005310D01*
X-0018813Y0004943D01*
X-0018733Y0005315D02*
Y0005241D01*
X-0018751Y0005320D02*
Y0005175D01*
X-0018768Y0005324D02*
Y0005109D01*
X-0018786Y0005329D02*
Y0005043D01*
X-0018804Y0005334D02*
Y0004977D01*
X-0018821Y0005339D02*
Y0004945D01*
X-0018839Y0005343D02*
Y0004950D01*
X-0018857Y0005348D02*
Y0004955D01*
X-0018875Y0005353D02*
Y0004959D01*
X-0018892Y0005358D02*
Y0004964D01*
X-0018910Y0005362D02*
Y0004969D01*
X-0018928Y0005367D02*
Y0004974D01*
X-0018945Y0005372D02*
Y0004978D01*
X-0018963Y0005377D02*
Y0004983D01*
X-0018981Y0005381D02*
Y0004988D01*
X-0018998Y0005386D02*
Y0004993D01*
X-0019016Y0005391D02*
Y0004997D01*
X-0019849Y0005231D02*
Y0004837D01*
X-0019867Y0005236D02*
Y0004842D01*
X-0019885Y0005240D02*
Y0004847D01*
X-0019902Y0005245D02*
Y0004852D01*
X-0019920Y0005250D02*
Y0004856D01*
X-0019938Y0005255D02*
Y0004861D01*
X-0019955Y0005259D02*
Y0004866D01*
X-0019973Y0005264D02*
Y0004871D01*
X-0019991Y0005269D02*
Y0004875D01*
X-0020008Y0005274D02*
Y0004880D01*
X-0020026Y0005278D02*
Y0004885D01*
X-0020044Y0005283D02*
Y0004890D01*
X-0020061Y0005288D02*
Y0004894D01*
X-0020079Y0005292D02*
Y0004899D01*
X-0020097Y0005297D02*
Y0004904D01*
X-0020115Y0005302D02*
Y0004909D01*
X-0020132Y0005307D02*
Y0004913D01*
X-0020150Y0005311D02*
Y0004918D01*
X-0020168Y0005258D02*
Y0004923D01*
X-0020185Y0005192D02*
Y0004928D01*
X-0020203Y0005126D02*
Y0004932D01*
X-0020221Y0005060D02*
Y0004937D01*
X-0020238Y0004994D02*
Y0004942D01*
X-0020119Y0005303D02*
X-0020155D01*
X-0020053Y0005285D02*
X-0020160D01*
X-0019987Y0005268D02*
X-0020165D01*
X-0019921Y0005250D02*
X-0020170D01*
X-0019854Y0005232D02*
X-0020174D01*
X-0019788Y0005215D02*
X-0020179D01*
X-0019722Y0005197D02*
X-0020184D01*
X-0019656Y0005179D02*
X-0020189D01*
X-0019593Y0005162D02*
X-0020193D01*
X-0019597Y0005144D02*
X-0020198D01*
X-0019602Y0005126D02*
X-0020203D01*
X-0019607Y0005109D02*
X-0020207D01*
X-0019612Y0005091D02*
X-0020212D01*
X-0019616Y0005073D02*
X-0020217D01*
X-0019621Y0005055D02*
X-0020222D01*
X-0019626Y0005038D02*
X-0020226D01*
X-0019631Y0005020D02*
X-0020231D01*
X-0019635Y0005002D02*
X-0020236D01*
X-0019640Y0004985D02*
X-0020241D01*
X-0019645Y0004967D02*
X-0020245D01*
X-0019650Y0004949D02*
X-0020250D01*
X-0019654Y0004932D02*
X-0020201D01*
X-0019659Y0004914D02*
X-0020135D01*
X-0019664Y0004896D02*
X-0020069D01*
X-0019669Y0004879D02*
X-0020003D01*
X-0019673Y0004861D02*
X-0019937D01*
X-0019678Y0004843D02*
X-0019871D01*
X-0019683Y0004826D02*
X-0019805D01*
X-0019687Y0004808D02*
X-0019739D01*
X-0020153Y0005312D02*
X-0019593Y0005162D01*
X-0019691Y0004795D01*
X-0020251Y0004945D02*
X-0019691Y0004795D01*
X-0020153Y0005312D02*
X-0020251Y0004945D01*
X-0019602Y0005165D02*
Y0005129D01*
X-0019619Y0005169D02*
Y0005063D01*
X-0019637Y0005174D02*
Y0004997D01*
X-0019655Y0005179D02*
Y0004930D01*
X-0019672Y0005184D02*
Y0004864D01*
X-0019690Y0005188D02*
Y0004798D01*
X-0019708Y0005193D02*
Y0004799D01*
X-0019725Y0005198D02*
Y0004804D01*
X-0019743Y0005203D02*
Y0004809D01*
X-0019761Y0005207D02*
Y0004814D01*
X-0019778Y0005212D02*
Y0004818D01*
X-0019796Y0005217D02*
Y0004823D01*
X-0019814Y0005221D02*
Y0004828D01*
X-0019832Y0005226D02*
Y0004833D01*
X-0015778Y0012283D02*
Y0011786D01*
X-0015796Y0012298D02*
Y0011801D01*
X-0015813Y0012313D02*
Y0011816D01*
X-0015831Y0012327D02*
Y0011831D01*
X-0015849Y0012342D02*
Y0011846D01*
X-0015866Y0012357D02*
Y0011861D01*
X-0015884Y0012372D02*
Y0011876D01*
X-0015902Y0012384D02*
Y0011890D01*
X-0015919Y0012363D02*
Y0011905D01*
X-0015937Y0012342D02*
Y0011920D01*
X-0015955Y0012321D02*
Y0011935D01*
X-0015972Y0012299D02*
Y0011950D01*
X-0015990Y0012278D02*
Y0011965D01*
X-0016008Y0012257D02*
Y0011979D01*
X-0016026Y0012236D02*
Y0011994D01*
X-0016043Y0012215D02*
Y0012009D01*
X-0016061Y0012194D02*
Y0012024D01*
X-0016079Y0012173D02*
Y0012039D01*
X-0016096Y0012152D02*
Y0012054D01*
X-0016114Y0012131D02*
Y0012069D01*
X-0016132Y0012110D02*
Y0012083D01*
X-0015875Y0012365D02*
X-0015918D01*
X-0015854Y0012347D02*
X-0015933D01*
X-0015833Y0012329D02*
X-0015948D01*
X-0015812Y0012311D02*
X-0015962D01*
X-0015791Y0012294D02*
X-0015977D01*
X-0015770Y0012276D02*
X-0015992D01*
X-0015749Y0012258D02*
X-0016007D01*
X-0015728Y0012241D02*
X-0016022D01*
X-0015707Y0012223D02*
X-0016037D01*
X-0015686Y0012205D02*
X-0016051D01*
X-0015664Y0012188D02*
X-0016066D01*
X-0015643Y0012170D02*
X-0016081D01*
X-0015622Y0012152D02*
X-0016096D01*
X-0015601Y0012135D02*
X-0016111D01*
X-0015580Y0012117D02*
X-0016126D01*
X-0015559Y0012099D02*
X-0016140D01*
X-0015538Y0012082D02*
X-0016129D01*
X-0015544Y0012064D02*
X-0016108D01*
X-0015558Y0012046D02*
X-0016087D01*
X-0015573Y0012028D02*
X-0016066D01*
X-0015588Y0012011D02*
X-0016045D01*
X-0015603Y0011993D02*
X-0016024D01*
X-0015618Y0011975D02*
X-0016003D01*
X-0015633Y0011958D02*
X-0015982D01*
X-0015647Y0011940D02*
X-0015961D01*
X-0015662Y0011922D02*
X-0015940D01*
X-0015677Y0011905D02*
X-0015919D01*
X-0015692Y0011887D02*
X-0015898D01*
X-0015707Y0011869D02*
X-0015877D01*
X-0015722Y0011852D02*
X-0015856D01*
X-0015736Y0011834D02*
X-0015834D01*
X-0015751Y0011816D02*
X-0015813D01*
X-0015766Y0011799D02*
X-0015792D01*
X-0016145Y0012094D02*
X-0015777Y0011786D01*
X-0015900Y0012386D02*
X-0016145Y0012094D01*
X-0015900Y0012386D02*
X-0015533Y0012077D01*
X-0015777Y0011786D01*
X-0015548Y0012090D02*
Y0012059D01*
X-0015566Y0012105D02*
Y0012037D01*
X-0015583Y0012120D02*
Y0012016D01*
X-0015601Y0012134D02*
Y0011995D01*
X-0015619Y0012149D02*
Y0011974D01*
X-0015636Y0012164D02*
Y0011953D01*
X-0015654Y0012179D02*
Y0011932D01*
X-0015672Y0012194D02*
Y0011911D01*
X-0015689Y0012209D02*
Y0011890D01*
X-0015707Y0012223D02*
Y0011869D01*
X-0015725Y0012238D02*
Y0011848D01*
X-0015743Y0012253D02*
Y0011827D01*
X-0015760Y0012268D02*
Y0011806D01*
X-0015302Y0012850D02*
Y0012353D01*
X-0015320Y0012864D02*
Y0012368D01*
X-0015338Y0012879D02*
Y0012383D01*
X-0015355Y0012894D02*
Y0012398D01*
X-0015373Y0012909D02*
Y0012413D01*
X-0015391Y0012924D02*
Y0012428D01*
X-0015408Y0012939D02*
Y0012443D01*
X-0015426Y0012951D02*
Y0012457D01*
X-0015444Y0012929D02*
Y0012472D01*
X-0015461Y0012908D02*
Y0012487D01*
X-0015479Y0012887D02*
Y0012502D01*
X-0015497Y0012866D02*
Y0012517D01*
X-0015514Y0012845D02*
Y0012532D01*
X-0015532Y0012824D02*
Y0012546D01*
X-0015550Y0012803D02*
Y0012561D01*
X-0015568Y0012782D02*
Y0012576D01*
X-0015585Y0012761D02*
Y0012591D01*
X-0015603Y0012740D02*
Y0012606D01*
X-0015621Y0012719D02*
Y0012621D01*
X-0015638Y0012698D02*
Y0012636D01*
X-0015656Y0012677D02*
Y0012650D01*
X-0015400Y0012932D02*
X-0015442D01*
X-0015379Y0012914D02*
X-0015457D01*
X-0015358Y0012896D02*
X-0015472D01*
X-0015337Y0012878D02*
X-0015487D01*
X-0015316Y0012861D02*
X-0015501D01*
X-0015294Y0012843D02*
X-0015516D01*
X-0015273Y0012825D02*
X-0015531D01*
X-0015252Y0012808D02*
X-0015546D01*
X-0015231Y0012790D02*
X-0015561D01*
X-0015210Y0012772D02*
X-0015576D01*
X-0015189Y0012755D02*
X-0015590D01*
X-0015168Y0012737D02*
X-0015605D01*
X-0015147Y0012719D02*
X-0015620D01*
X-0015126Y0012702D02*
X-0015635D01*
X-0015105Y0012684D02*
X-0015650D01*
X-0015083Y0012666D02*
X-0015665D01*
X-0015062Y0012649D02*
X-0015654D01*
X-0015068Y0012631D02*
X-0015633D01*
X-0015083Y0012613D02*
X-0015612D01*
X-0015098Y0012595D02*
X-0015591D01*
X-0015112Y0012578D02*
X-0015569D01*
X-0015127Y0012560D02*
X-0015548D01*
X-0015142Y0012542D02*
X-0015527D01*
X-0015157Y0012525D02*
X-0015506D01*
X-0015172Y0012507D02*
X-0015485D01*
X-0015187Y0012489D02*
X-0015464D01*
X-0015201Y0012472D02*
X-0015443D01*
X-0015216Y0012454D02*
X-0015422D01*
X-0015231Y0012436D02*
X-0015401D01*
X-0015246Y0012419D02*
X-0015380D01*
X-0015261Y0012401D02*
X-0015359D01*
X-0015276Y0012383D02*
X-0015338D01*
X-0015290Y0012366D02*
X-0015317D01*
X-0015669Y0012661D02*
X-0015301Y0012353D01*
X-0015425Y0012952D02*
X-0015669Y0012661D01*
X-0015425Y0012952D02*
X-0015057Y0012644D01*
X-0015301Y0012353D01*
X-0015072Y0012657D02*
Y0012626D01*
X-0015090Y0012672D02*
Y0012604D01*
X-0015108Y0012686D02*
Y0012583D01*
X-0015125Y0012701D02*
Y0012562D01*
X-0015143Y0012716D02*
Y0012541D01*
X-0015161Y0012731D02*
Y0012520D01*
X-0015178Y0012746D02*
Y0012499D01*
X-0015196Y0012761D02*
Y0012478D01*
X-0015214Y0012775D02*
Y0012457D01*
X-0015231Y0012790D02*
Y0012436D01*
X-0015249Y0012805D02*
Y0012415D01*
X-0015267Y0012820D02*
Y0012394D01*
X-0015285Y0012835D02*
Y0012373D01*
X-0016060Y0013003D02*
Y0012708D01*
X-0016078Y0013018D02*
Y0012687D01*
X-0016095Y0013032D02*
Y0012666D01*
X-0016113Y0013047D02*
Y0012645D01*
X-0016131Y0013062D02*
Y0012624D01*
X-0016148Y0013077D02*
Y0012603D01*
X-0016166Y0013092D02*
Y0012596D01*
X-0016184Y0013107D02*
Y0012611D01*
X-0016202Y0013122D02*
Y0012625D01*
X-0016219Y0013136D02*
Y0012640D01*
X-0016237Y0013151D02*
Y0012655D01*
X-0016255Y0013166D02*
Y0012670D01*
X-0016272Y0013181D02*
Y0012685D01*
X-0016290Y0013196D02*
Y0012700D01*
X-0016308Y0013211D02*
Y0012714D01*
X-0016325Y0013225D02*
Y0012729D01*
X-0016343Y0013240D02*
Y0012744D01*
X-0016361Y0013252D02*
Y0012759D01*
X-0016378Y0013231D02*
Y0012774D01*
X-0016396Y0013210D02*
Y0012789D01*
X-0016414Y0013189D02*
Y0012803D01*
X-0016431Y0013168D02*
Y0012818D01*
X-0016449Y0013147D02*
Y0012833D01*
X-0016467Y0013126D02*
Y0012848D01*
X-0016485Y0013105D02*
Y0012863D01*
X-0016502Y0013083D02*
Y0012878D01*
X-0016520Y0013062D02*
Y0012892D01*
X-0016538Y0013041D02*
Y0012907D01*
X-0016555Y0013020D02*
Y0012922D01*
X-0016573Y0012999D02*
Y0012937D01*
X-0016591Y0012978D02*
Y0012952D01*
X-0016342Y0013240D02*
X-0016371D01*
X-0016321Y0013222D02*
X-0016386D01*
X-0016300Y0013204D02*
X-0016401D01*
X-0016279Y0013187D02*
X-0016416D01*
X-0016258Y0013169D02*
X-0016431D01*
X-0016237Y0013151D02*
X-0016445D01*
X-0016216Y0013133D02*
X-0016460D01*
X-0016195Y0013116D02*
X-0016475D01*
X-0016174Y0013098D02*
X-0016490D01*
X-0016153Y0013080D02*
X-0016505D01*
X-0016131Y0013063D02*
X-0016520D01*
X-0016110Y0013045D02*
X-0016534D01*
X-0016089Y0013027D02*
X-0016549D01*
X-0016068Y0013010D02*
X-0016564D01*
X-0016047Y0012992D02*
X-0016579D01*
X-0016026Y0012974D02*
X-0016594D01*
X-0016005Y0012957D02*
X-0016596D01*
X-0015984Y0012939D02*
X-0016575D01*
X-0015963Y0012921D02*
X-0016554D01*
X-0015942Y0012904D02*
X-0016533D01*
X-0015921Y0012886D02*
X-0016512D01*
X-0015926Y0012868D02*
X-0016491D01*
X-0015940Y0012850D02*
X-0016470D01*
X-0015955Y0012833D02*
X-0016449D01*
X-0015970Y0012815D02*
X-0016428D01*
X-0015985Y0012797D02*
X-0016407D01*
X-0016000Y0012780D02*
X-0016386D01*
X-0016015Y0012762D02*
X-0016364D01*
X-0016030Y0012744D02*
X-0016343D01*
X-0016044Y0012727D02*
X-0016322D01*
X-0016059Y0012709D02*
X-0016301D01*
X-0016074Y0012691D02*
X-0016280D01*
X-0016089Y0012674D02*
X-0016259D01*
X-0016104Y0012656D02*
X-0016238D01*
X-0016119Y0012638D02*
X-0016217D01*
X-0016134Y0012621D02*
X-0016196D01*
X-0016148Y0012603D02*
X-0016175D01*
X-0016359Y0013254D02*
X-0015915Y0012881D01*
X-0016159Y0012590D01*
X-0016604Y0012963D02*
X-0016159Y0012590D01*
X-0016359Y0013254D02*
X-0016604Y0012963D01*
X-0015936Y0012899D02*
Y0012856D01*
X-0015954Y0012914D02*
Y0012834D01*
X-0015972Y0012928D02*
Y0012813D01*
X-0015989Y0012943D02*
Y0012792D01*
X-0016007Y0012958D02*
Y0012771D01*
X-0016025Y0012973D02*
Y0012750D01*
X-0016042Y0012988D02*
Y0012729D01*
X-0015114Y-0015170D02*
X-0015204D01*
X-0015096Y-0015188D02*
X-0015222D01*
X-0015078Y-0015205D02*
X-0015239D01*
X-0015061Y-0015223D02*
X-0015257D01*
X-0015043Y-0015241D02*
X-0015275D01*
X-0015025Y-0015258D02*
X-0015292D01*
X-0015008Y-0015276D02*
X-0015310D01*
X-0015022Y-0015294D02*
X-0015296D01*
X-0015040Y-0015312D02*
X-0015278D01*
X-0015057Y-0015329D02*
X-0015260D01*
X-0015075Y-0015347D02*
X-0015243D01*
X-0015093Y-0015365D02*
X-0015225D01*
X-0015110Y-0015382D02*
X-0015207D01*
X-0015128Y-0015400D02*
X-0015190D01*
X-0015122Y-0015162D02*
Y-0015394D01*
X-0015139Y-0015144D02*
Y-0015411D01*
X-0015157Y-0015127D02*
Y-0015429D01*
X-0015175Y-0015141D02*
Y-0015415D01*
X-0015193Y-0015159D02*
Y-0015397D01*
X-0015210Y-0015176D02*
Y-0015379D01*
X-0015228Y-0015194D02*
Y-0015362D01*
X-0015246Y-0015212D02*
Y-0015344D01*
X-0015263Y-0015229D02*
Y-0015326D01*
X-0015281Y-0015247D02*
Y-0015309D01*
X-0015299Y-0015265D02*
Y-0015291D01*
X-0015149Y-0015135D02*
X-0015169D01*
X-0015132Y-0015152D02*
X-0015186D01*
X-0015146Y-0015418D02*
X-0015172D01*
X-0015006Y-0015278D02*
X-0015159Y-0015431D01*
X-0015312Y-0015278D02*
X-0015159Y-0015431D01*
Y-0015125D02*
X-0015312Y-0015278D01*
X-0015159Y-0015125D02*
X-0015006Y-0015278D01*
X-0015016Y-0015268D02*
Y-0015288D01*
X-0015033Y-0015251D02*
Y-0015305D01*
X-0015051Y-0015233D02*
Y-0015323D01*
X-0015069Y-0015215D02*
Y-0015341D01*
X-0015086Y-0015197D02*
Y-0015358D01*
X-0015104Y-0015180D02*
Y-0015376D01*
X-0015337Y-0014947D02*
X-0015427D01*
X-0015319Y-0014965D02*
X-0015444D01*
X-0015301Y-0014983D02*
X-0015462D01*
X-0015284Y-0015000D02*
X-0015480D01*
X-0015266Y-0015018D02*
X-0015497D01*
X-0015248Y-0015036D02*
X-0015515D01*
X-0015231Y-0015053D02*
X-0015533D01*
X-0015245Y-0015071D02*
X-0015519D01*
X-0015263Y-0015089D02*
X-0015501D01*
X-0015280Y-0015107D02*
X-0015483D01*
X-0015298Y-0015124D02*
X-0015465D01*
X-0015316Y-0015142D02*
X-0015448D01*
X-0015333Y-0015160D02*
X-0015430D01*
X-0015351Y-0015177D02*
X-0015412D01*
X-0015345Y-0014939D02*
Y-0015171D01*
X-0015362Y-0014921D02*
Y-0015189D01*
X-0015380Y-0014904D02*
Y-0015206D01*
X-0015398Y-0014919D02*
Y-0015192D01*
X-0015416Y-0014936D02*
Y-0015174D01*
X-0015433Y-0014954D02*
Y-0015156D01*
X-0015451Y-0014972D02*
Y-0015139D01*
X-0015469Y-0014989D02*
Y-0015121D01*
X-0015486Y-0015007D02*
Y-0015103D01*
X-0015504Y-0015025D02*
Y-0015086D01*
X-0015522Y-0015042D02*
Y-0015068D01*
X-0015372Y-0014912D02*
X-0015391D01*
X-0015354Y-0014930D02*
X-0015409D01*
X-0015369Y-0015195D02*
X-0015395D01*
X-0015229Y-0015055D02*
X-0015382Y-0015208D01*
X-0015535Y-0015055D02*
X-0015382Y-0015208D01*
Y-0014902D02*
X-0015535Y-0015055D01*
X-0015382Y-0014902D02*
X-0015229Y-0015055D01*
X-0015239Y-0015045D02*
Y-0015065D01*
X-0015256Y-0015028D02*
Y-0015083D01*
X-0015274Y-0015010D02*
Y-0015100D01*
X-0015292Y-0014992D02*
Y-0015118D01*
X-0015309Y-0014975D02*
Y-0015136D01*
X-0015327Y-0014957D02*
Y-0015153D01*
X-0015819Y-0014811D02*
Y-0015049D01*
X-0015837Y-0014828D02*
Y-0015031D01*
X-0015855Y-0014846D02*
Y-0015014D01*
X-0015872Y-0014864D02*
Y-0014996D01*
X-0015890Y-0014882D02*
Y-0014978D01*
X-0015908Y-0014899D02*
Y-0014961D01*
X-0015925Y-0014917D02*
Y-0014943D01*
X-0015628Y-0014655D02*
X-0015664D01*
X-0015611Y-0014673D02*
X-0015682D01*
X-0015593Y-0014691D02*
X-0015699D01*
X-0015575Y-0014709D02*
X-0015717D01*
X-0015558Y-0014726D02*
X-0015735D01*
X-0015540Y-0014744D02*
X-0015752D01*
X-0015522Y-0014762D02*
X-0015770D01*
X-0015505Y-0014779D02*
X-0015788D01*
X-0015487Y-0014797D02*
X-0015805D01*
X-0015469Y-0014815D02*
X-0015823D01*
X-0015479Y-0014832D02*
X-0015841D01*
X-0015497Y-0014850D02*
X-0015858D01*
X-0015514Y-0014868D02*
X-0015876D01*
X-0015532Y-0014885D02*
X-0015894D01*
X-0015550Y-0014903D02*
X-0015911D01*
X-0015568Y-0014921D02*
X-0015929D01*
X-0015585Y-0014938D02*
X-0015930D01*
X-0015603Y-0014956D02*
X-0015912D01*
X-0015621Y-0014974D02*
X-0015894D01*
X-0015638Y-0014992D02*
X-0015877D01*
X-0015656Y-0015009D02*
X-0015859D01*
X-0015674Y-0015027D02*
X-0015841D01*
X-0015692Y-0015045D02*
X-0015824D01*
X-0015709Y-0015062D02*
X-0015806D01*
X-0015727Y-0015080D02*
X-0015788D01*
X-0015745Y-0015098D02*
X-0015771D01*
X-0015465Y-0014819D02*
X-0015758Y-0015111D01*
X-0015938Y-0014930D02*
X-0015758Y-0015111D01*
X-0015646Y-0014638D02*
X-0015938Y-0014930D01*
X-0015646Y-0014638D02*
X-0015465Y-0014819D01*
X-0015483Y-0014801D02*
Y-0014836D01*
X-0015501Y-0014783D02*
Y-0014854D01*
X-0015519Y-0014765D02*
Y-0014872D01*
X-0015536Y-0014748D02*
Y-0014889D01*
X-0015554Y-0014730D02*
Y-0014907D01*
X-0015572Y-0014712D02*
Y-0014925D01*
X-0015589Y-0014695D02*
Y-0014942D01*
X-0015607Y-0014677D02*
Y-0014960D01*
X-0015625Y-0014659D02*
Y-0014978D01*
X-0015642Y-0014642D02*
Y-0014995D01*
X-0015660Y-0014651D02*
Y-0015013D01*
X-0015678Y-0014669D02*
Y-0015031D01*
X-0015695Y-0014687D02*
Y-0015048D01*
X-0015713Y-0014704D02*
Y-0015066D01*
X-0015731Y-0014722D02*
Y-0015084D01*
X-0015748Y-0014740D02*
Y-0015101D01*
X-0015766Y-0014758D02*
Y-0015102D01*
X-0015784Y-0014775D02*
Y-0015084D01*
X-0015802Y-0014793D02*
Y-0015067D01*
X-0015096Y-0015535D02*
Y-0015773D01*
X-0015113Y-0015552D02*
Y-0015755D01*
X-0015131Y-0015570D02*
Y-0015737D01*
X-0015149Y-0015588D02*
Y-0015720D01*
X-0015166Y-0015605D02*
Y-0015702D01*
X-0015184Y-0015623D02*
Y-0015684D01*
X-0015202Y-0015641D02*
Y-0015667D01*
X-0014905Y-0015379D02*
X-0014940D01*
X-0014887Y-0015397D02*
X-0014958D01*
X-0014869Y-0015415D02*
X-0014976D01*
X-0014852Y-0015433D02*
X-0014994D01*
X-0014834Y-0015450D02*
X-0015011D01*
X-0014816Y-0015468D02*
X-0015029D01*
X-0014799Y-0015486D02*
X-0015047D01*
X-0014781Y-0015503D02*
X-0015064D01*
X-0014763Y-0015521D02*
X-0015082D01*
X-0014746Y-0015539D02*
X-0015100D01*
X-0014755Y-0015556D02*
X-0015117D01*
X-0014773Y-0015574D02*
X-0015135D01*
X-0014791Y-0015592D02*
X-0015153D01*
X-0014808Y-0015609D02*
X-0015170D01*
X-0014826Y-0015627D02*
X-0015188D01*
X-0014844Y-0015645D02*
X-0015206D01*
X-0014861Y-0015662D02*
X-0015206D01*
X-0014879Y-0015680D02*
X-0015188D01*
X-0014897Y-0015698D02*
X-0015170D01*
X-0014915Y-0015716D02*
X-0015153D01*
X-0014932Y-0015733D02*
X-0015135D01*
X-0014950Y-0015751D02*
X-0015117D01*
X-0014968Y-0015769D02*
X-0015100D01*
X-0014985Y-0015786D02*
X-0015082D01*
X-0015003Y-0015804D02*
X-0015064D01*
X-0015021Y-0015822D02*
X-0015047D01*
X-0014742Y-0015543D02*
X-0015034Y-0015835D01*
X-0015215Y-0015654D02*
X-0015034Y-0015835D01*
X-0014923Y-0015362D02*
X-0015215Y-0015654D01*
X-0014923Y-0015362D02*
X-0014742Y-0015543D01*
X-0014759Y-0015525D02*
Y-0015560D01*
X-0014777Y-0015507D02*
Y-0015578D01*
X-0014795Y-0015489D02*
Y-0015596D01*
X-0014813Y-0015472D02*
Y-0015614D01*
X-0014830Y-0015454D02*
Y-0015631D01*
X-0014848Y-0015436D02*
Y-0015649D01*
X-0014866Y-0015419D02*
Y-0015667D01*
X-0014883Y-0015401D02*
Y-0015684D01*
X-0014901Y-0015383D02*
Y-0015702D01*
X-0014919Y-0015366D02*
Y-0015720D01*
X-0014936Y-0015375D02*
Y-0015737D01*
X-0014954Y-0015393D02*
Y-0015755D01*
X-0014972Y-0015411D02*
Y-0015773D01*
X-0014989Y-0015428D02*
Y-0015790D01*
X-0015007Y-0015446D02*
Y-0015808D01*
X-0015025Y-0015464D02*
Y-0015826D01*
X-0015042Y-0015481D02*
Y-0015826D01*
X-0015060Y-0015499D02*
Y-0015808D01*
X-0015078Y-0015517D02*
Y-0015790D01*
X-0015195Y0015318D02*
X-0015285D01*
X-0015177Y0015301D02*
X-0015303D01*
X-0015159Y0015283D02*
X-0015320D01*
X-0015142Y0015265D02*
X-0015338D01*
X-0015124Y0015248D02*
X-0015356D01*
X-0015106Y0015230D02*
X-0015373D01*
X-0015089Y0015212D02*
X-0015391D01*
X-0015103Y0015195D02*
X-0015377D01*
X-0015121Y0015177D02*
X-0015359D01*
X-0015138Y0015159D02*
X-0015341D01*
X-0015156Y0015142D02*
X-0015324D01*
X-0015174Y0015124D02*
X-0015306D01*
X-0015191Y0015106D02*
X-0015288D01*
X-0015209Y0015089D02*
X-0015271D01*
X-0015203Y0015326D02*
Y0015095D01*
X-0015220Y0015344D02*
Y0015077D01*
X-0015238Y0015362D02*
Y0015060D01*
X-0015256Y0015348D02*
Y0015074D01*
X-0015274Y0015330D02*
Y0015092D01*
X-0015291Y0015312D02*
Y0015109D01*
X-0015309Y0015294D02*
Y0015127D01*
X-0015327Y0015277D02*
Y0015145D01*
X-0015344Y0015259D02*
Y0015162D01*
X-0015362Y0015241D02*
Y0015180D01*
X-0015380Y0015224D02*
Y0015198D01*
X-0015230Y0015354D02*
X-0015250D01*
X-0015213Y0015336D02*
X-0015267D01*
X-0015227Y0015071D02*
X-0015253D01*
X-0015393Y0015211D02*
X-0015240Y0015058D01*
Y0015364D02*
X-0015393Y0015211D01*
X-0015240Y0015364D02*
X-0015087Y0015211D01*
X-0015240Y0015058D01*
X-0015097Y0015220D02*
Y0015201D01*
X-0015114Y0015238D02*
Y0015183D01*
X-0015132Y0015256D02*
Y0015166D01*
X-0015150Y0015273D02*
Y0015148D01*
X-0015167Y0015291D02*
Y0015130D01*
X-0015185Y0015309D02*
Y0015113D01*
X-0014972Y0015541D02*
X-0015062D01*
X-0014954Y0015523D02*
X-0015080D01*
X-0014937Y0015506D02*
X-0015098D01*
X-0014919Y0015488D02*
X-0015115D01*
X-0014901Y0015470D02*
X-0015133D01*
X-0014884Y0015453D02*
X-0015151D01*
X-0014866Y0015435D02*
X-0015168D01*
X-0014880Y0015417D02*
X-0015154D01*
X-0014898Y0015400D02*
X-0015136D01*
X-0014916Y0015382D02*
X-0015119D01*
X-0014933Y0015364D02*
X-0015101D01*
X-0014951Y0015347D02*
X-0015083D01*
X-0014969Y0015329D02*
X-0015066D01*
X-0014987Y0015311D02*
X-0015048D01*
X-0014980Y0015549D02*
Y0015318D01*
X-0014998Y0015567D02*
Y0015300D01*
X-0015015Y0015584D02*
Y0015282D01*
X-0015033Y0015570D02*
Y0015297D01*
X-0015051Y0015553D02*
Y0015314D01*
X-0015069Y0015535D02*
Y0015332D01*
X-0015086Y0015517D02*
Y0015350D01*
X-0015104Y0015499D02*
Y0015367D01*
X-0015122Y0015482D02*
Y0015385D01*
X-0015139Y0015464D02*
Y0015403D01*
X-0015157Y0015446D02*
Y0015420D01*
X-0015008Y0015577D02*
X-0015027D01*
X-0014990Y0015559D02*
X-0015045D01*
X-0015004Y0015294D02*
X-0015030D01*
X-0015170Y0015433D02*
X-0015017Y0015281D01*
Y0015586D02*
X-0015170Y0015433D01*
X-0015017Y0015586D02*
X-0014864Y0015433D01*
X-0015017Y0015281D01*
X-0014874Y0015443D02*
Y0015424D01*
X-0014892Y0015461D02*
Y0015406D01*
X-0014909Y0015478D02*
Y0015388D01*
X-0014927Y0015496D02*
Y0015371D01*
X-0014945Y0015514D02*
Y0015353D01*
X-0014962Y0015531D02*
Y0015335D01*
X-0014954Y0015929D02*
Y0015690D01*
X-0014971Y0015911D02*
Y0015708D01*
X-0014989Y0015893D02*
Y0015726D01*
X-0015007Y0015875D02*
Y0015743D01*
X-0015024Y0015858D02*
Y0015761D01*
X-0015042Y0015840D02*
Y0015779D01*
X-0015060Y0015822D02*
Y0015796D01*
X-0014874Y0015972D02*
X-0014910D01*
X-0014856Y0015955D02*
X-0014927D01*
X-0014839Y0015937D02*
X-0014945D01*
X-0014821Y0015919D02*
X-0014963D01*
X-0014803Y0015902D02*
X-0014980D01*
X-0014786Y0015884D02*
X-0014998D01*
X-0014768Y0015866D02*
X-0015016D01*
X-0014750Y0015849D02*
X-0015033D01*
X-0014733Y0015831D02*
X-0015051D01*
X-0014715Y0015813D02*
X-0015069D01*
X-0014697Y0015796D02*
X-0015059D01*
X-0014679Y0015778D02*
X-0015041D01*
X-0014662Y0015760D02*
X-0015023D01*
X-0014644Y0015742D02*
X-0015006D01*
X-0014626Y0015725D02*
X-0014988D01*
X-0014609Y0015707D02*
X-0014970D01*
X-0014608Y0015689D02*
X-0014953D01*
X-0014626Y0015672D02*
X-0014935D01*
X-0014644Y0015654D02*
X-0014917D01*
X-0014661Y0015636D02*
X-0014900D01*
X-0014679Y0015619D02*
X-0014882D01*
X-0014697Y0015601D02*
X-0014864D01*
X-0014714Y0015583D02*
X-0014847D01*
X-0014732Y0015566D02*
X-0014829D01*
X-0014750Y0015548D02*
X-0014811D01*
X-0014768Y0015530D02*
X-0014794D01*
X-0015073Y0015809D02*
X-0014781Y0015517D01*
X-0014892Y0015990D02*
X-0015073Y0015809D01*
X-0014892Y0015990D02*
X-0014600Y0015698D01*
X-0014781Y0015517D01*
X-0014617Y0015716D02*
Y0015680D01*
X-0014635Y0015733D02*
Y0015662D01*
X-0014653Y0015751D02*
Y0015645D01*
X-0014671Y0015769D02*
Y0015627D01*
X-0014688Y0015787D02*
Y0015609D01*
X-0014706Y0015804D02*
Y0015592D01*
X-0014724Y0015822D02*
Y0015574D01*
X-0014741Y0015840D02*
Y0015556D01*
X-0014759Y0015857D02*
Y0015539D01*
X-0014777Y0015875D02*
Y0015521D01*
X-0014794Y0015893D02*
Y0015531D01*
X-0014812Y0015910D02*
Y0015549D01*
X-0014830Y0015928D02*
Y0015566D01*
X-0014847Y0015946D02*
Y0015584D01*
X-0014865Y0015963D02*
Y0015602D01*
X-0014883Y0015981D02*
Y0015619D01*
X-0014900Y0015982D02*
Y0015637D01*
X-0014918Y0015964D02*
Y0015655D01*
X-0014936Y0015946D02*
Y0015673D01*
X-0015678Y0015204D02*
Y0014966D01*
X-0015695Y0015187D02*
Y0014984D01*
X-0015713Y0015169D02*
Y0015002D01*
X-0015731Y0015151D02*
Y0015019D01*
X-0015748Y0015134D02*
Y0015037D01*
X-0015766Y0015116D02*
Y0015055D01*
X-0015784Y0015098D02*
Y0015072D01*
X-0015598Y0015248D02*
X-0015633D01*
X-0015580Y0015231D02*
X-0015651D01*
X-0015562Y0015213D02*
X-0015669D01*
X-0015545Y0015195D02*
X-0015687D01*
X-0015527Y0015178D02*
X-0015704D01*
X-0015509Y0015160D02*
X-0015722D01*
X-0015492Y0015142D02*
X-0015740D01*
X-0015474Y0015125D02*
X-0015757D01*
X-0015456Y0015107D02*
X-0015775D01*
X-0015439Y0015089D02*
X-0015793D01*
X-0015421Y0015072D02*
X-0015783D01*
X-0015403Y0015054D02*
X-0015765D01*
X-0015385Y0015036D02*
X-0015747D01*
X-0015368Y0015018D02*
X-0015730D01*
X-0015350Y0015001D02*
X-0015712D01*
X-0015332Y0014983D02*
X-0015694D01*
X-0015332Y0014965D02*
X-0015677D01*
X-0015350Y0014948D02*
X-0015659D01*
X-0015368Y0014930D02*
X-0015641D01*
X-0015386Y0014912D02*
X-0015624D01*
X-0015403Y0014895D02*
X-0015606D01*
X-0015421Y0014877D02*
X-0015588D01*
X-0015439Y0014859D02*
X-0015571D01*
X-0015456Y0014842D02*
X-0015553D01*
X-0015474Y0014824D02*
X-0015535D01*
X-0015492Y0014806D02*
X-0015518D01*
X-0015797Y0015085D02*
X-0015505Y0014793D01*
X-0015616Y0015266D02*
X-0015797Y0015085D01*
X-0015616Y0015266D02*
X-0015324Y0014974D01*
X-0015505Y0014793D01*
X-0015341Y0014992D02*
Y0014956D01*
X-0015359Y0015010D02*
Y0014939D01*
X-0015377Y0015028D02*
Y0014921D01*
X-0015395Y0015045D02*
Y0014903D01*
X-0015412Y0015063D02*
Y0014886D01*
X-0015430Y0015081D02*
Y0014868D01*
X-0015448Y0015098D02*
Y0014850D01*
X-0015465Y0015116D02*
Y0014833D01*
X-0015483Y0015134D02*
Y0014815D01*
X-0015501Y0015151D02*
Y0014797D01*
X-0015518Y0015169D02*
Y0014807D01*
X-0015536Y0015187D02*
Y0014825D01*
X-0015554Y0015204D02*
Y0014842D01*
X-0015571Y0015222D02*
Y0014860D01*
X-0015589Y0015240D02*
Y0014878D01*
X-0015607Y0015257D02*
Y0014895D01*
X-0015624Y0015257D02*
Y0014913D01*
X-0015642Y0015240D02*
Y0014931D01*
X-0015660Y0015222D02*
Y0014949D01*
X0015094Y0015559D02*
X0015004D01*
X0015111Y0015542D02*
X0014986D01*
X0015129Y0015524D02*
X0014968D01*
X0015147Y0015506D02*
X0014951D01*
X0015164Y0015489D02*
X0014933D01*
X0015182Y0015471D02*
X0014915D01*
X0015200Y0015453D02*
X0014898D01*
X0015186Y0015436D02*
X0014912D01*
X0015168Y0015418D02*
X0014930D01*
X0015150Y0015400D02*
X0014947D01*
X0015132Y0015383D02*
X0014965D01*
X0015115Y0015365D02*
X0014983D01*
X0015097Y0015347D02*
X0015000D01*
X0015079Y0015330D02*
X0015018D01*
X0015086Y0015567D02*
Y0015336D01*
X0015068Y0015585D02*
Y0015318D01*
X0015050Y0015603D02*
Y0015301D01*
X0015033Y0015589D02*
Y0015315D01*
X0015015Y0015571D02*
Y0015333D01*
X0014997Y0015553D02*
Y0015350D01*
X0014980Y0015535D02*
Y0015368D01*
X0014962Y0015518D02*
Y0015386D01*
X0014944Y0015500D02*
Y0015403D01*
X0014927Y0015482D02*
Y0015421D01*
X0014909Y0015465D02*
Y0015439D01*
X0015058Y0015595D02*
X0015039D01*
X0015076Y0015577D02*
X0015021D01*
X0015062Y0015312D02*
X0015036D01*
X0015049Y0015605D02*
X0014896Y0015452D01*
X0015049Y0015605D02*
X0015202Y0015452D01*
X0015049Y0015299D01*
X0014896Y0015452D02*
X0015049Y0015299D01*
X0015192Y0015461D02*
Y0015442D01*
X0015174Y0015479D02*
Y0015424D01*
X0015156Y0015497D02*
Y0015407D01*
X0015139Y0015514D02*
Y0015389D01*
X0015121Y0015532D02*
Y0015371D01*
X0015103Y0015550D02*
Y0015354D01*
X0015316Y0015336D02*
X0015226D01*
X0015334Y0015319D02*
X0015208D01*
X0015352Y0015301D02*
X0015191D01*
X0015370Y0015283D02*
X0015173D01*
X0015387Y0015266D02*
X0015155D01*
X0015405Y0015248D02*
X0015138D01*
X0015423Y0015230D02*
X0015120D01*
X0015408Y0015213D02*
X0015135D01*
X0015390Y0015195D02*
X0015152D01*
X0015373Y0015177D02*
X0015170D01*
X0015355Y0015160D02*
X0015188D01*
X0015337Y0015142D02*
X0015205D01*
X0015320Y0015124D02*
X0015223D01*
X0015302Y0015107D02*
X0015241D01*
X0015308Y0015345D02*
Y0015113D01*
X0015291Y0015362D02*
Y0015095D01*
X0015273Y0015380D02*
Y0015078D01*
X0015255Y0015366D02*
Y0015092D01*
X0015238Y0015348D02*
Y0015110D01*
X0015220Y0015330D02*
Y0015127D01*
X0015202Y0015313D02*
Y0015145D01*
X0015185Y0015295D02*
Y0015163D01*
X0015167Y0015277D02*
Y0015180D01*
X0015149Y0015260D02*
Y0015198D01*
X0015132Y0015242D02*
Y0015216D01*
X0015281Y0015372D02*
X0015262D01*
X0015299Y0015354D02*
X0015244D01*
X0015284Y0015089D02*
X0015258D01*
X0015271Y0015382D02*
X0015119Y0015229D01*
X0015271Y0015382D02*
X0015424Y0015229D01*
X0015271Y0015076D01*
X0015119Y0015229D02*
X0015271Y0015076D01*
X0015415Y0015239D02*
Y0015219D01*
X0015397Y0015256D02*
Y0015202D01*
X0015379Y0015274D02*
Y0015184D01*
X0015361Y0015292D02*
Y0015166D01*
X0015344Y0015309D02*
Y0015148D01*
X0015326Y0015327D02*
Y0015131D01*
X0015474Y0015111D02*
Y0014873D01*
X0015457Y0015094D02*
Y0014891D01*
X0015439Y0015076D02*
Y0014909D01*
X0015421Y0015058D02*
Y0014926D01*
X0015404Y0015041D02*
Y0014944D01*
X0015386Y0015023D02*
Y0014962D01*
X0015368Y0015005D02*
Y0014979D01*
X0015665Y0015267D02*
X0015629D01*
X0015683Y0015249D02*
X0015612D01*
X0015701Y0015231D02*
X0015594D01*
X0015718Y0015214D02*
X0015576D01*
X0015736Y0015196D02*
X0015559D01*
X0015754Y0015178D02*
X0015541D01*
X0015771Y0015161D02*
X0015523D01*
X0015789Y0015143D02*
X0015506D01*
X0015807Y0015125D02*
X0015488D01*
X0015824Y0015108D02*
X0015470D01*
X0015814Y0015090D02*
X0015453D01*
X0015797Y0015072D02*
X0015435D01*
X0015779Y0015054D02*
X0015417D01*
X0015761Y0015037D02*
X0015400D01*
X0015744Y0015019D02*
X0015382D01*
X0015726Y0015001D02*
X0015364D01*
X0015708Y0014984D02*
X0015364D01*
X0015691Y0014966D02*
X0015381D01*
X0015673Y0014948D02*
X0015399D01*
X0015655Y0014931D02*
X0015417D01*
X0015637Y0014913D02*
X0015435D01*
X0015620Y0014895D02*
X0015452D01*
X0015602Y0014878D02*
X0015470D01*
X0015584Y0014860D02*
X0015488D01*
X0015567Y0014842D02*
X0015505D01*
X0015549Y0014825D02*
X0015523D01*
X0015647Y0015285D02*
X0015355Y0014992D01*
X0015647Y0015285D02*
X0015828Y0015104D01*
X0015536Y0014812D01*
X0015355Y0014992D02*
X0015536Y0014812D01*
X0015810Y0015121D02*
Y0015086D01*
X0015793Y0015139D02*
Y0015068D01*
X0015775Y0015157D02*
Y0015050D01*
X0015757Y0015175D02*
Y0015033D01*
X0015740Y0015192D02*
Y0015015D01*
X0015722Y0015210D02*
Y0014997D01*
X0015704Y0015228D02*
Y0014980D01*
X0015687Y0015245D02*
Y0014962D01*
X0015669Y0015263D02*
Y0014944D01*
X0015651Y0015281D02*
Y0014927D01*
X0015634Y0015271D02*
Y0014909D01*
X0015616Y0015253D02*
Y0014891D01*
X0015598Y0015235D02*
Y0014874D01*
X0015580Y0015218D02*
Y0014856D01*
X0015563Y0015200D02*
Y0014838D01*
X0015545Y0015182D02*
Y0014821D01*
X0015527Y0015165D02*
Y0014820D01*
X0015510Y0015147D02*
Y0014838D01*
X0015492Y0015129D02*
Y0014856D01*
X0014750Y0015835D02*
Y0015597D01*
X0014733Y0015818D02*
Y0015615D01*
X0014715Y0015800D02*
Y0015633D01*
X0014697Y0015782D02*
Y0015650D01*
X0014680Y0015765D02*
Y0015668D01*
X0014662Y0015747D02*
Y0015686D01*
X0014644Y0015729D02*
Y0015703D01*
X0014941Y0015990D02*
X0014905D01*
X0014959Y0015973D02*
X0014888D01*
X0014977Y0015955D02*
X0014870D01*
X0014994Y0015937D02*
X0014852D01*
X0015012Y0015920D02*
X0014835D01*
X0015030Y0015902D02*
X0014817D01*
X0015047Y0015884D02*
X0014799D01*
X0015065Y0015867D02*
X0014782D01*
X0015083Y0015849D02*
X0014764D01*
X0015100Y0015831D02*
X0014746D01*
X0015091Y0015814D02*
X0014729D01*
X0015073Y0015796D02*
X0014711D01*
X0015055Y0015778D02*
X0014693D01*
X0015037Y0015760D02*
X0014675D01*
X0015020Y0015743D02*
X0014658D01*
X0015002Y0015725D02*
X0014640D01*
X0014984Y0015707D02*
X0014640D01*
X0014967Y0015690D02*
X0014658D01*
X0014949Y0015672D02*
X0014676D01*
X0014931Y0015654D02*
X0014693D01*
X0014914Y0015637D02*
X0014711D01*
X0014896Y0015619D02*
X0014729D01*
X0014878Y0015601D02*
X0014746D01*
X0014861Y0015584D02*
X0014764D01*
X0014843Y0015566D02*
X0014782D01*
X0014825Y0015548D02*
X0014799D01*
X0014923Y0016008D02*
X0014631Y0015716D01*
X0014923Y0016008D02*
X0015104Y0015827D01*
X0014812Y0015535D01*
X0014631Y0015716D02*
X0014812Y0015535D01*
X0015086Y0015845D02*
Y0015809D01*
X0015069Y0015863D02*
Y0015792D01*
X0015051Y0015881D02*
Y0015774D01*
X0015033Y0015898D02*
Y0015756D01*
X0015016Y0015916D02*
Y0015739D01*
X0014998Y0015934D02*
Y0015721D01*
X0014980Y0015951D02*
Y0015703D01*
X0014963Y0015969D02*
Y0015686D01*
X0014945Y0015987D02*
Y0015668D01*
X0014927Y0016004D02*
Y0015650D01*
X0014910Y0015995D02*
Y0015633D01*
X0014892Y0015977D02*
Y0015615D01*
X0014874Y0015959D02*
Y0015597D01*
X0014856Y0015941D02*
Y0015579D01*
X0014839Y0015924D02*
Y0015562D01*
X0014821Y0015906D02*
Y0015544D01*
X0014803Y0015888D02*
Y0015544D01*
X0014786Y0015871D02*
Y0015562D01*
X0014768Y0015853D02*
Y0015580D01*
X0015727Y-0014823D02*
X0015636D01*
X0015744Y-0014841D02*
X0015619D01*
X0015762Y-0014859D02*
X0015601D01*
X0015780Y-0014876D02*
X0015583D01*
X0015797Y-0014894D02*
X0015565D01*
X0015815Y-0014912D02*
X0015548D01*
X0015833Y-0014929D02*
X0015530D01*
X0015818Y-0014947D02*
X0015545D01*
X0015800Y-0014965D02*
X0015563D01*
X0015783Y-0014983D02*
X0015580D01*
X0015765Y-0015000D02*
X0015598D01*
X0015747Y-0015018D02*
X0015616D01*
X0015730Y-0015036D02*
X0015633D01*
X0015712Y-0015053D02*
X0015651D01*
X0015718Y-0014815D02*
Y-0015047D01*
X0015701Y-0014797D02*
Y-0015065D01*
X0015683Y-0014780D02*
Y-0015082D01*
X0015665Y-0014794D02*
Y-0015068D01*
X0015648Y-0014812D02*
Y-0015050D01*
X0015630Y-0014830D02*
Y-0015032D01*
X0015612Y-0014847D02*
Y-0015015D01*
X0015595Y-0014865D02*
Y-0014997D01*
X0015577Y-0014883D02*
Y-0014979D01*
X0015559Y-0014900D02*
Y-0014962D01*
X0015542Y-0014918D02*
Y-0014944D01*
X0015691Y-0014788D02*
X0015672D01*
X0015709Y-0014806D02*
X0015654D01*
X0015694Y-0015071D02*
X0015669D01*
X0015682Y-0014778D02*
X0015834Y-0014931D01*
X0015682Y-0015084D01*
X0015529Y-0014931D02*
X0015682Y-0015084D01*
Y-0014778D02*
X0015529Y-0014931D01*
X0015825Y-0014921D02*
Y-0014941D01*
X0015807Y-0014904D02*
Y-0014958D01*
X0015789Y-0014886D02*
Y-0014976D01*
X0015771Y-0014868D02*
Y-0014994D01*
X0015754Y-0014850D02*
Y-0015012D01*
X0015736Y-0014833D02*
Y-0015029D01*
X0015504Y-0015046D02*
X0015414D01*
X0015521Y-0015064D02*
X0015396D01*
X0015539Y-0015081D02*
X0015378D01*
X0015557Y-0015099D02*
X0015361D01*
X0015574Y-0015117D02*
X0015343D01*
X0015592Y-0015134D02*
X0015325D01*
X0015610Y-0015152D02*
X0015308D01*
X0015596Y-0015170D02*
X0015322D01*
X0015578Y-0015188D02*
X0015340D01*
X0015560Y-0015205D02*
X0015357D01*
X0015542Y-0015223D02*
X0015375D01*
X0015525Y-0015241D02*
X0015393D01*
X0015507Y-0015258D02*
X0015410D01*
X0015489Y-0015276D02*
X0015428D01*
X0015496Y-0015038D02*
Y-0015270D01*
X0015478Y-0015020D02*
Y-0015287D01*
X0015460Y-0015003D02*
Y-0015305D01*
X0015443Y-0015017D02*
Y-0015291D01*
X0015425Y-0015035D02*
Y-0015273D01*
X0015407Y-0015052D02*
Y-0015255D01*
X0015390Y-0015070D02*
Y-0015238D01*
X0015372Y-0015088D02*
Y-0015220D01*
X0015354Y-0015105D02*
Y-0015202D01*
X0015337Y-0015123D02*
Y-0015185D01*
X0015319Y-0015141D02*
Y-0015167D01*
X0015468Y-0015011D02*
X0015449D01*
X0015486Y-0015028D02*
X0015431D01*
X0015472Y-0015294D02*
X0015446D01*
X0015459Y-0015001D02*
X0015612Y-0015154D01*
X0015459Y-0015307D01*
X0015306Y-0015154D02*
X0015459Y-0015307D01*
Y-0015001D02*
X0015306Y-0015154D01*
X0015602Y-0015144D02*
Y-0015164D01*
X0015584Y-0015127D02*
Y-0015181D01*
X0015566Y-0015109D02*
Y-0015199D01*
X0015549Y-0015091D02*
Y-0015217D01*
X0015531Y-0015073D02*
Y-0015234D01*
X0015513Y-0015056D02*
Y-0015252D01*
X0015160Y-0015300D02*
Y-0015538D01*
X0015143Y-0015317D02*
Y-0015520D01*
X0015125Y-0015335D02*
Y-0015502D01*
X0015107Y-0015353D02*
Y-0015485D01*
X0015090Y-0015370D02*
Y-0015467D01*
X0015072Y-0015388D02*
Y-0015449D01*
X0015054Y-0015406D02*
Y-0015432D01*
X0015240Y-0015255D02*
X0015204D01*
X0015258Y-0015273D02*
X0015187D01*
X0015276Y-0015291D02*
X0015169D01*
X0015293Y-0015309D02*
X0015151D01*
X0015311Y-0015326D02*
X0015134D01*
X0015329Y-0015344D02*
X0015116D01*
X0015346Y-0015362D02*
X0015098D01*
X0015364Y-0015379D02*
X0015081D01*
X0015382Y-0015397D02*
X0015063D01*
X0015399Y-0015415D02*
X0015045D01*
X0015417Y-0015432D02*
X0015055D01*
X0015435Y-0015450D02*
X0015073D01*
X0015452Y-0015468D02*
X0015090D01*
X0015470Y-0015485D02*
X0015108D01*
X0015488Y-0015503D02*
X0015126D01*
X0015505Y-0015521D02*
X0015143D01*
X0015505Y-0015538D02*
X0015161D01*
X0015488Y-0015556D02*
X0015179D01*
X0015470Y-0015574D02*
X0015197D01*
X0015452Y-0015592D02*
X0015214D01*
X0015435Y-0015609D02*
X0015232D01*
X0015417Y-0015627D02*
X0015250D01*
X0015399Y-0015645D02*
X0015267D01*
X0015382Y-0015662D02*
X0015285D01*
X0015364Y-0015680D02*
X0015303D01*
X0015346Y-0015698D02*
X0015320D01*
X0015222Y-0015238D02*
X0015514Y-0015530D01*
X0015333Y-0015711D01*
X0015041Y-0015419D02*
X0015333Y-0015711D01*
X0015222Y-0015238D02*
X0015041Y-0015419D01*
X0015496Y-0015512D02*
Y-0015547D01*
X0015479Y-0015494D02*
Y-0015565D01*
X0015461Y-0015476D02*
Y-0015583D01*
X0015443Y-0015459D02*
Y-0015601D01*
X0015426Y-0015441D02*
Y-0015618D01*
X0015408Y-0015423D02*
Y-0015636D01*
X0015390Y-0015406D02*
Y-0015654D01*
X0015373Y-0015388D02*
Y-0015671D01*
X0015355Y-0015370D02*
Y-0015689D01*
X0015337Y-0015353D02*
Y-0015707D01*
X0015320Y-0015335D02*
Y-0015697D01*
X0015302Y-0015317D02*
Y-0015679D01*
X0015284Y-0015299D02*
Y-0015661D01*
X0015266Y-0015282D02*
Y-0015644D01*
X0015249Y-0015264D02*
Y-0015626D01*
X0015231Y-0015246D02*
Y-0015608D01*
X0015213Y-0015246D02*
Y-0015591D01*
X0015196Y-0015264D02*
Y-0015573D01*
X0015178Y-0015282D02*
Y-0015555D01*
X0015884Y-0014575D02*
Y-0014814D01*
X0015867Y-0014593D02*
Y-0014796D01*
X0015849Y-0014611D02*
Y-0014778D01*
X0015831Y-0014628D02*
Y-0014761D01*
X0015814Y-0014646D02*
Y-0014743D01*
X0015796Y-0014664D02*
Y-0014725D01*
X0015778Y-0014682D02*
Y-0014708D01*
X0015964Y-0014531D02*
X0015928D01*
X0015981Y-0014549D02*
X0015910D01*
X0015999Y-0014567D02*
X0015893D01*
X0016017Y-0014585D02*
X0015875D01*
X0016035Y-0014602D02*
X0015857D01*
X0016052Y-0014620D02*
X0015840D01*
X0016070Y-0014638D02*
X0015822D01*
X0016088Y-0014655D02*
X0015804D01*
X0016105Y-0014673D02*
X0015787D01*
X0016123Y-0014691D02*
X0015769D01*
X0016141Y-0014708D02*
X0015779D01*
X0016158Y-0014726D02*
X0015797D01*
X0016176Y-0014744D02*
X0015814D01*
X0016194Y-0014761D02*
X0015832D01*
X0016211Y-0014779D02*
X0015850D01*
X0016229Y-0014797D02*
X0015867D01*
X0016230Y-0014814D02*
X0015885D01*
X0016212Y-0014832D02*
X0015903D01*
X0016194Y-0014850D02*
X0015921D01*
X0016177Y-0014868D02*
X0015938D01*
X0016159Y-0014885D02*
X0015956D01*
X0016141Y-0014903D02*
X0015974D01*
X0016123Y-0014921D02*
X0015991D01*
X0016106Y-0014938D02*
X0016009D01*
X0016088Y-0014956D02*
X0016027D01*
X0016070Y-0014974D02*
X0016044D01*
X0015946Y-0014514D02*
X0016238Y-0014806D01*
X0016057Y-0014987D01*
X0015765Y-0014695D02*
X0016057Y-0014987D01*
X0015946Y-0014514D02*
X0015765Y-0014695D01*
X0016220Y-0014788D02*
Y-0014824D01*
X0016203Y-0014770D02*
Y-0014841D01*
X0016185Y-0014753D02*
Y-0014859D01*
X0016167Y-0014735D02*
Y-0014877D01*
X0016150Y-0014717D02*
Y-0014894D01*
X0016132Y-0014700D02*
Y-0014912D01*
X0016114Y-0014682D02*
Y-0014930D01*
X0016097Y-0014664D02*
Y-0014947D01*
X0016079Y-0014647D02*
Y-0014965D01*
X0016061Y-0014629D02*
Y-0014983D01*
X0016044Y-0014611D02*
Y-0014973D01*
X0016026Y-0014593D02*
Y-0014955D01*
X0016008Y-0014576D02*
Y-0014937D01*
X0015990Y-0014558D02*
Y-0014920D01*
X0015973Y-0014540D02*
Y-0014902D01*
X0015955Y-0014523D02*
Y-0014884D01*
X0015937Y-0014522D02*
Y-0014867D01*
X0015920Y-0014540D02*
Y-0014849D01*
X0015902Y-0014558D02*
Y-0014831D01*
G54D74*
X0000300Y0020770D03*
Y0020210D03*
X-0000482Y0020774D03*
Y0020214D03*
X0001102Y0020766D03*
Y0020206D03*
X-0009542Y-0015854D03*
Y-0015294D03*
X-0010598Y-0016904D03*
Y-0016344D03*
X-0020148Y0000058D03*
Y0000618D03*
X-0010884Y0015492D03*
Y0014932D03*
X-0010892Y0017098D03*
Y0016538D03*
X0010230Y0015184D03*
Y0014624D03*
X0010222Y0016538D03*
Y0015978D03*
X0010238Y0012682D03*
Y0013242D03*
X0017390Y0001244D03*
Y0000684D03*
X0017404Y0003160D03*
Y0002600D03*
X0017470Y-0001354D03*
Y-0000794D03*
X0008626Y0009462D03*
Y0010022D03*
X0007508Y-0003496D03*
Y-0004056D03*
X0007498Y-0002159D03*
Y-0002719D03*
X0002970Y0020388D03*
Y0020948D03*
X-0002965Y-0006298D03*
Y-0005738D03*
X0003150Y0016352D03*
Y0015792D03*
X-0011768Y-0014248D03*
Y-0013508D03*
X-0010226Y-0015294D03*
Y-0014554D03*
X-0011444Y-0016340D03*
Y-0015600D03*
X-0019478Y0001858D03*
Y0002598D03*
X-0011548Y0016432D03*
Y0017172D03*
X-0011546Y0014828D03*
Y0015568D03*
X-0011532Y0013264D03*
Y0014004D03*
X0011242Y0014624D03*
Y0013884D03*
X0011244Y0015974D03*
Y0015234D03*
X0011246Y0013246D03*
Y0012506D03*
X0012130Y-0014144D03*
Y-0014884D03*
X0012134Y-0012780D03*
Y-0013520D03*
Y-0015498D03*
Y-0016238D03*
X0018210Y0000684D03*
Y-0000056D03*
X0018218Y0002182D03*
Y0001442D03*
X0018222Y-0000796D03*
Y-0001536D03*
X0007513Y-0004829D03*
Y-0005389D03*
X0016270Y-0002478D03*
Y-0003038D03*
X0008437Y-0002586D03*
Y-0002026D03*
X-0007560Y0017444D03*
Y0018004D03*
X-0008170Y0014576D03*
Y0014016D03*
X0002178Y0020388D03*
Y0020948D03*
X0011060Y-0003124D03*
Y-0002564D03*
X0014746Y-0003966D03*
Y-0003406D03*
X-0006637Y0009509D03*
Y0010069D03*
X-0001986Y-0009184D03*
Y-0008624D03*
Y-0007336D03*
Y-0007896D03*
G54D75*
X-0009786Y-0004316D03*
X-0009226D03*
X-0013956Y0015194D03*
X-0013396D03*
X-0013962Y0014394D03*
X-0013402D03*
X-0013956Y0015988D03*
X-0013396D03*
X0013674Y0014252D03*
X0013114D03*
X0013680Y0015058D03*
X0013120D03*
X0013684Y0013442D03*
X0013124D03*
X0014322Y-0014596D03*
X0013762D03*
X0014332Y-0013808D03*
X0013772D03*
X0014324Y-0015382D03*
X0013764D03*
X0020346Y0000352D03*
X0019786D03*
X0020344Y0001170D03*
X0019784D03*
X0020344Y-0000444D03*
X0019784D03*
X-0013288Y-0005538D03*
X-0012728D03*
X-0014590Y-0006352D03*
X-0014030D03*
X-0013284Y-0006344D03*
X-0012724D03*
X-0014588Y-0005546D03*
X-0014028D03*
X-0012284Y0007684D03*
X-0012844D03*
X-0009646Y0013264D03*
X-0010206D03*
X0000558Y0017650D03*
X0001118D03*
X-0000862Y0017654D03*
X-0000302D03*
X0002484Y0017644D03*
X0001924D03*
X-0001482Y-0016980D03*
X-0000922D03*
X-0001502Y-0020386D03*
X-0000942D03*
X-0002202Y-0020388D03*
X-0002762D03*
X-0007994Y-0002890D03*
X-0008554D03*
X-0011131Y-0005290D03*
X-0011691D03*
X-0009873D03*
X-0010433D03*
X0007611Y0005280D03*
X0007051D03*
X-0002250Y0016592D03*
X-0001690D03*
X0007604Y0014938D03*
X0007044D03*
X0007000Y0014144D03*
X0006440D03*
X0002648Y0014974D03*
X0003208D03*
X-0015022Y0006238D03*
X-0015762D03*
X-0013714Y0007472D03*
X-0014454D03*
X0000352Y0018440D03*
X0001092D03*
X-0000926Y0018438D03*
X-0000186D03*
X0001632Y0018442D03*
X0002372D03*
X-0001086Y-0018494D03*
X-0001826D03*
X0000282Y-0017774D03*
X-0000458D03*
X-0002184Y-0017462D03*
X-0002924D03*
X-0009226Y-0003482D03*
X-0009786D03*
X0006392Y0005280D03*
X0005832D03*
X-0001682Y0017425D03*
X-0002242D03*
X-0013700Y-0009464D03*
X-0014260D03*
X-0006401Y-0008368D03*
X-0005841D03*
X-0005831Y-0009233D03*
X-0006391D03*
X0011932Y-0002882D03*
X0012492D03*
X0013182D03*
X0013742D03*
X0015158Y-0006862D03*
X0014598D03*
X0012386Y0007870D03*
X0012946D03*
X0014974Y0002892D03*
X0015534D03*
X0001431Y-0006534D03*
X0001991D03*
X0000890Y-0006514D03*
X0000330D03*
G54D80*
X0008742Y-0009490D03*
X0005536Y-0008632D03*
X0008736Y-0008486D03*
X0009736D03*
X0010736D03*
G54D81*
X0009742Y-0009490D03*
X0005536Y-0007632D03*
X0007736Y-0008486D03*
G54D82*
X0006611Y0003166D03*
X-0017494Y-0008712D03*
Y-0007712D03*
Y-0006712D03*
Y-0005712D03*
G54D83*
X0007611Y0003166D03*
X-0017494Y-0009712D03*
G54D90*
X-0020399Y-0006415D03*
X-0020531Y-0005921D03*
X-0020785Y-0004971D03*
X-0020918Y-0004477D03*
X-0015880Y-0014280D03*
X-0016208Y-0013888D03*
X-0016841Y-0013135D03*
X-0017169Y-0012743D03*
X0019199Y-0009510D03*
X0018943Y-0009953D03*
X0018451Y-0010805D03*
X0018196Y-0011247D03*
X0018050Y0011483D03*
X0018306Y0011040D03*
X0018797Y0010189D03*
X0019053Y0009746D03*
X-0020815Y0004777D03*
X-0020682Y0005271D03*
X-0020428Y0006221D03*
X-0020295Y0006715D03*
X-0017046Y0012914D03*
X-0016717Y0013305D03*
X-0016085Y0014059D03*
X-0015757Y0014450D03*
X0007726Y0012262D03*
Y0013245D03*
G54D119*
X0004525Y0008360D03*
X0006525D03*
Y0010860D03*
X0004525D03*
X0006743Y0012262D03*
Y0013245D03*
X-0000316Y0009714D03*
X-0001299D03*
X-0002086D03*
X-0003069D03*
G54D120*
X-0000629Y-0009279D03*
Y-0007359D03*
X-0005267Y-0010423D03*
Y-0011423D03*
X-0006267Y-0010423D03*
Y-0011423D03*
X-0007267Y-0010423D03*
Y-0011423D03*
G54D123*
X-0006414Y-0013025D03*
Y-0013675D03*
X-0007080Y-0014883D03*
Y-0014233D03*
X-0007078Y-0013667D03*
Y-0013017D03*
X-0005742Y-0014891D03*
Y-0014241D03*
X-0003620Y-0015523D03*
Y-0014873D03*
X-0004302Y-0013647D03*
Y-0014297D03*
Y-0014871D03*
Y-0015521D03*
X-0002944D03*
Y-0014871D03*
X-0002950Y-0014297D03*
Y-0013647D03*
X-0003614Y-0013649D03*
Y-0014299D03*
X-0005744Y-0013671D03*
Y-0013021D03*
X-0006412Y-0014887D03*
Y-0014237D03*
X-0013020Y-0010885D03*
Y-0011535D03*
X-0007778Y-0013467D03*
Y-0014117D03*
X-0005040Y-0014899D03*
Y-0014249D03*
G54D124*
X-0010741Y0011289D03*
X-0009241D03*
X0011168Y0005074D03*
X0009668D03*
X0009904Y0017566D03*
X0011404D03*
X-0009241Y0009479D03*
X-0010741D03*
G54D125*
X-0004032Y-0009983D03*
Y-0008483D03*
G54D126*
X0008748Y0019398D03*
X0006948D03*
G54D127*
X0007848Y0016598D03*
G54D128*
X0000903Y0010776D03*
X-0004289D03*
G54D129*
X0012441Y-0009806D03*
X0012650Y0010105D03*
X-0013060Y0010076D03*
G54D130*
X-0015728Y-0006108D03*
X-0016515D03*
X-0015728Y-0006895D03*
X-0016515D03*
X-0015728Y-0007683D03*
X-0016515D03*
X-0015728Y-0008470D03*
X-0016515D03*
X-0015728Y-0009258D03*
X-0016515D03*
X-0015728Y-0010045D03*
X-0016515D03*
X-0010590Y-0004466D03*
Y-0003679D03*
X-0011377Y-0004466D03*
Y-0003679D03*
X-0012165Y-0004466D03*
Y-0003679D03*
X-0012952Y-0004466D03*
Y-0003679D03*
X-0013740Y-0004466D03*
Y-0003679D03*
X-0014527Y-0004466D03*
Y-0003679D03*
G54D131*
X0006008Y0019788D03*
X0004048D03*
G54D132*
X-0007198Y-0009713D03*
Y-0008853D03*
G54D133*
X0015742Y-0000876D03*
Y-0000561D03*
Y-0000246D03*
Y0000069D03*
Y0000384D03*
Y0000699D03*
Y0001014D03*
X0012986D03*
Y0000699D03*
Y0000384D03*
Y0000069D03*
Y-0000246D03*
Y-0000561D03*
Y-0000876D03*
X-0021627Y0000602D03*
Y-0000421D03*
X0021732Y0000034D03*
Y0001058D03*
G54D134*
X-0021529Y-0000067D03*
Y0000248D03*
X-0000014Y0021497D03*
X0000301D03*
X-0001147Y-0021684D03*
X-0001462D03*
X0021633Y0000704D03*
Y0000389D03*
G54D135*
X0015309Y0001447D03*
X0014994D03*
X0014679D03*
X0014364D03*
X0014049D03*
X0013734D03*
X0013419D03*
Y-0001309D03*
X0013734D03*
X0014049D03*
X0014364D03*
X0014679D03*
X0014994D03*
X0015309D03*
X0000656Y0021596D03*
X-0000368D03*
X-0001816Y-0021782D03*
X-0000792D03*
G54D136*
X0004887Y-0004078D03*
Y-0003881D03*
Y-0003684D03*
Y-0003487D03*
Y-0003290D03*
Y-0003093D03*
Y-0002896D03*
Y-0002502D03*
Y-0002305D03*
Y-0002108D03*
Y-0001911D03*
Y-0001714D03*
Y-0001517D03*
Y-0001320D03*
Y-0001123D03*
Y-0000926D03*
Y-0000532D03*
Y-0000335D03*
Y-0000138D03*
Y0000059D03*
Y0000256D03*
Y0000453D03*
Y0000650D03*
Y0000847D03*
Y0001044D03*
Y0001438D03*
Y0001635D03*
Y0001832D03*
Y0002029D03*
Y0002226D03*
Y0002423D03*
Y0002620D03*
Y0002817D03*
Y0003014D03*
Y0003408D03*
Y0003605D03*
Y0003802D03*
Y0003999D03*
Y0004196D03*
Y0004393D03*
Y0004590D03*
Y0004787D03*
Y0004984D03*
Y0005378D03*
Y0005575D03*
Y0005772D03*
Y0005969D03*
X-0006720D03*
Y0005772D03*
Y0005575D03*
Y0005181D03*
Y0004984D03*
Y0004787D03*
Y0004590D03*
Y0004393D03*
Y0004196D03*
Y0003999D03*
Y0003802D03*
Y0003605D03*
Y0003211D03*
Y0003014D03*
Y0002817D03*
Y0002620D03*
Y0002423D03*
Y0002226D03*
Y0002029D03*
Y0001832D03*
Y0001635D03*
Y0001241D03*
Y0001044D03*
Y0000847D03*
Y0000650D03*
Y0000453D03*
Y0000256D03*
Y0000059D03*
Y-0000138D03*
Y-0000335D03*
Y-0000729D03*
Y-0000926D03*
Y-0001123D03*
Y-0001320D03*
Y-0001517D03*
Y-0001714D03*
Y-0001911D03*
Y-0002108D03*
Y-0002305D03*
Y-0002699D03*
Y-0002896D03*
Y-0003093D03*
Y-0003290D03*
Y-0003487D03*
Y-0003684D03*
Y-0003881D03*
Y-0004078D03*
G54D137*
X0004887Y-0002699D03*
Y-0000729D03*
Y0001241D03*
Y0003211D03*
Y0005181D03*
X-0006720Y0005378D03*
Y0003408D03*
Y0001438D03*
Y-0000532D03*
Y-0002502D03*
G54D138*
X-0005743Y-0004858D03*
X-0005546D03*
X-0005349D03*
X-0005152D03*
X-0004955D03*
X-0004758D03*
X-0004561D03*
X-0004364D03*
X-0003970D03*
X-0003773D03*
X-0003576D03*
X-0003379D03*
X-0003182D03*
X-0002985D03*
X-0002788D03*
X-0002591D03*
X-0002394D03*
X-0002000D03*
X-0001803D03*
X-0001606D03*
X-0001409D03*
X-0001212D03*
X-0001015D03*
X-0000818D03*
X-0000621D03*
X-0000424D03*
X-0000030D03*
X0000167D03*
X0000364D03*
X0000561D03*
X0000758D03*
X0000955D03*
X0001152D03*
X0001349D03*
X0001546D03*
X0001940D03*
X0002137D03*
X0002334D03*
X0002531D03*
X0002728D03*
X0002925D03*
X0003122D03*
X0003319D03*
X0003516D03*
X0003910D03*
X0004107D03*
Y0006749D03*
X0003910D03*
X0003713D03*
X0003516D03*
X0003319D03*
X0002925D03*
X0002728D03*
X0002531D03*
X0002334D03*
X0002137D03*
X0001940D03*
X0001743D03*
X0001546D03*
X0001349D03*
X0000955D03*
X0000758D03*
X0000561D03*
X0000364D03*
X0000167D03*
X-0000030D03*
X-0000227D03*
X-0000424D03*
X-0000621D03*
X-0001015D03*
X-0001212D03*
X-0001409D03*
X-0001606D03*
X-0001803D03*
X-0002000D03*
X-0002197D03*
X-0002394D03*
X-0002591D03*
X-0002985D03*
X-0003182D03*
X-0003379D03*
X-0003576D03*
X-0003773D03*
X-0003970D03*
X-0004167D03*
X-0004364D03*
X-0004561D03*
X-0004955D03*
X-0005152D03*
X-0005349D03*
X-0005546D03*
X-0005743D03*
X-0005940D03*
G54D139*
Y-0004858D03*
X-0004167D03*
X-0002197D03*
X-0000227D03*
X0001743D03*
X0003713D03*
X0003122Y0006749D03*
X0001152D03*
X-0000818D03*
X-0002788D03*
X-0004758D03*
G54D140*
X-0012628Y-0013878D03*
X-0011086Y-0014924D03*
X-0012304Y-0015970D03*
X-0020338Y0002228D03*
X-0012408Y0016802D03*
X-0012406Y0015198D03*
X-0012392Y0013634D03*
X0012102Y0014254D03*
X0012104Y0015604D03*
X0012106Y0012876D03*
X0012990Y-0014514D03*
X0012994Y-0013150D03*
Y-0015868D03*
X0019070Y0000314D03*
X0019078Y0001812D03*
X0019082Y-0001166D03*
G54D141*
X-0015392Y0005378D03*
X-0014084Y0006612D03*
X0000722Y0019300D03*
X-0000556Y0019298D03*
X0002002Y0019302D03*
X-0001456Y-0019354D03*
X-0000088Y-0018634D03*
X-0002554Y-0018322D03*
G54D142*
X-0010701Y-0011866D03*
X-0010051D03*
X-0010703Y-0011264D03*
X-0010053D03*
X-0012315Y-0011346D03*
X-0011665D03*
G54D143*
X0014364Y0000069D03*
G54D144*
X0004738Y-0011308D03*
Y-0010808D03*
Y-0010308D03*
Y-0009808D03*
X0002038D03*
Y-0010308D03*
Y-0010808D03*
Y-0011308D03*
G54D145*
X0009460Y0008274D03*
X0011064D03*
G54D146*
X0011052Y0008668D03*
X0010737D03*
X0010422D03*
X0010107D03*
X0009792D03*
X0009477D03*
Y0007861D03*
X0009792D03*
X0010107D03*
X0010422D03*
X0010737D03*
X0011052D03*
G54D147*
X0013729Y-0004042D03*
X0013474D03*
X0013217D03*
X0012961D03*
X0012706D03*
X0012450D03*
X0012194D03*
X0011938D03*
X0011682D03*
X0011427D03*
Y-0006382D03*
X0011682D03*
X0011938D03*
X0012194D03*
X0012450D03*
X0012706D03*
X0012961D03*
X0013217D03*
X0013474D03*
X0013729D03*
G54D148*
X-0009932Y0003404D03*
X-0010122D03*
X-0010322D03*
X-0010522D03*
X-0010722D03*
X-0010912D03*
X-0011112D03*
X-0011312D03*
X-0011502D03*
X-0011702D03*
X-0011902D03*
X-0012092D03*
X-0012292D03*
X-0012492D03*
X-0012682D03*
X-0012882D03*
X-0013082D03*
X-0013272D03*
X-0013472D03*
X-0013672D03*
X-0013862D03*
X-0014062D03*
X-0014262D03*
X-0014462D03*
X-0014652D03*
Y-0002696D03*
X-0014462D03*
X-0014262D03*
X-0014062D03*
X-0013862D03*
X-0013672D03*
X-0013472D03*
X-0013272D03*
X-0013082D03*
X-0012882D03*
X-0012682D03*
X-0012492D03*
X-0012292D03*
X-0012092D03*
X-0011902D03*
X-0011702D03*
X-0011502D03*
X-0011312D03*
X-0011112D03*
X-0010912D03*
X-0010722D03*
X-0010522D03*
X-0010322D03*
X-0010122D03*
X-0009932D03*
G54D149*
X-0009242Y-0002006D03*
Y-0001816D03*
Y-0001616D03*
Y-0001416D03*
Y-0001216D03*
Y-0001026D03*
Y-0000826D03*
Y-0000626D03*
Y-0000436D03*
Y-0000236D03*
Y-0000036D03*
Y0000154D03*
Y0000354D03*
Y0000554D03*
Y0000744D03*
Y0000944D03*
Y0001144D03*
Y0001334D03*
Y0001534D03*
Y0001734D03*
Y0001924D03*
Y0002124D03*
Y0002324D03*
Y0002524D03*
Y0002714D03*
X-0015342D03*
Y0002524D03*
Y0002324D03*
Y0002124D03*
Y0001924D03*
Y0001734D03*
Y0001534D03*
Y0001334D03*
Y0001144D03*
Y0000944D03*
Y0000744D03*
Y0000554D03*
Y0000354D03*
Y0000154D03*
Y-0000036D03*
Y-0000236D03*
Y-0000436D03*
Y-0000626D03*
Y-0000826D03*
Y-0001026D03*
Y-0001216D03*
Y-0001416D03*
Y-0001616D03*
Y-0001816D03*
Y-0002006D03*
G54D150*
X-0018268Y0003502D03*
X-0017481D03*
X-0018268Y0002715D03*
X-0017481D03*
X-0018268Y0001927D03*
X-0017481D03*
X-0018268Y0001140D03*
X-0017481D03*
X-0018268Y0000352D03*
X-0017481D03*
X-0018268Y-0000435D03*
X-0017481D03*
X-0018268Y-0001222D03*
X-0017481D03*
X-0018268Y-0002010D03*
X-0017481D03*
X-0018268Y-0002797D03*
X-0017481D03*
X-0018268Y-0003585D03*
X-0017481D03*
G54D151*
X0004038Y0018216D03*
Y0017716D03*
Y0017216D03*
Y0016716D03*
X0006038D03*
Y0017216D03*
Y0017716D03*
Y0018216D03*
G54D152*
X0005946Y0014951D03*
Y0015207D03*
Y0015462D03*
Y0015718D03*
X0004046D03*
Y0015462D03*
Y0015207D03*
Y0014951D03*
G54D153*
X-0003874Y0017444D03*
X-0003804Y0014636D03*
G54D154*
X-0006314Y0018344D03*
Y0017444D03*
Y0016544D03*
X-0006244Y0015536D03*
Y0014636D03*
Y0013736D03*
G54D155*
X0009060Y-0013795D03*
X0008750D03*
X0008430D03*
X0008120D03*
X0007800D03*
X0007490D03*
X0007180D03*
X0006860D03*
Y-0017394D03*
X0007180D03*
X0007490D03*
X0007800D03*
X0008120D03*
X0008430D03*
X0008750D03*
X0009060D03*
X-0011956Y-0010558D03*
X-0011646D03*
X-0011326D03*
X-0011016D03*
X-0010696D03*
X-0010386D03*
X-0010076D03*
X-0009756D03*
Y-0006960D03*
X-0010076D03*
X-0010386D03*
X-0010696D03*
X-0011016D03*
X-0011326D03*
X-0011646D03*
X-0011956D03*
G54D156*
X0009750Y-0016704D03*
Y-0016394D03*
Y-0016074D03*
Y-0015764D03*
Y-0015444D03*
Y-0015134D03*
Y-0014824D03*
Y-0014504D03*
X0006175D03*
Y-0014824D03*
Y-0015134D03*
Y-0015444D03*
Y-0015764D03*
Y-0016074D03*
Y-0016394D03*
Y-0016704D03*
X-0012646Y-0007650D03*
Y-0007960D03*
Y-0008280D03*
Y-0008590D03*
Y-0008910D03*
Y-0009220D03*
Y-0009530D03*
Y-0009850D03*
X-0009071D03*
Y-0009530D03*
Y-0009220D03*
Y-0008910D03*
Y-0008590D03*
Y-0008280D03*
Y-0007960D03*
Y-0007650D03*
G54D157*
X0001507Y-0009199D03*
Y-0007545D03*
M02*
