*
G04 Mass Parameters ***
*
G04 Image ***
*
%INC:\CAINPCB\ECBOT\V5\ECBOTCPU5.DRD*%
%ICAS*%
%MOIN*%
%IPPOS*%
%ASAXBY*%
G74*%FSLAN2X34Y34*%
*
G04 Aperture Definitions ***
*
%ADD10R,0.0500X0.0400*%
%ADD11R,0.0400X0.0500*%
%ADD12R,0.0300X0.0350*%
%ADD13R,0.1000X0.0600*%
%ADD14R,0.0600X0.1000*%
%ADD15R,0.0650X0.1200*%
%ADD16R,0.2350X0.2350*%
%ADD17C,0.0550*%
%ADD18R,0.0550X0.0550*%
%ADD19C,0.0580*%
%ADD20R,0.0580X0.0580*%
%ADD21C,0.0512*%
%ADD22R,0.1024X0.1024*%
%ADD23C,0.0620*%
%ADD24C,0.0433*%
%ADD25C,0.3149X0.1574*%
%ADD26C,0.0600*%
%ADD27R,0.0800X0.1800*%
%ADD28R,0.0394X0.0236*%
%ADD29R,0.0197X0.0197*%
%ADD30C,0.0020*%
%ADD31R,0.0236X0.0394*%
%ADD32R,0.0701X0.0110*%
%ADD33R,0.0700X0.0110*%
%ADD34R,0.0110X0.0701*%
%ADD35R,0.0110X0.0700*%
%ADD36R,0.0550X0.0350*%
%ADD37R,0.0450X0.0350*%
%ADD38R,0.0350X0.0550*%
%ADD39R,0.0350X0.0450*%
%ADD40R,0.0350X0.0300*%
%ADD41R,0.1968X0.1968*%
%ADD42R,0.0800X0.0250*%
%ADD43R,0.0315X0.0197*%
%ADD44R,0.0197X0.0315*%
%ADD45R,0.0160X0.0700*%
%ADD46R,0.0100X0.0600*%
%ADD47R,0.0600X0.0100*%
%ADD48C,0.0472*%
%ADD49R,0.0750X0.0250*%
%ADD50C,0.0394*%
%ADD51R,0.0500X0.0160*%
%ADD52R,0.0880X0.1420*%
%ADD53R,0.0880X0.0480*%
%ADD54R,0.0150X0.0600*%
%ADD55R,0.0600X0.0150*%
%ADD56R,0.0866X0.0512*%
%ADD57C,0.0236*%
%ADD58C,0.0118*%
%ADD59C,0.0010*%
%ADD60C,0.0080*%
%ADD61C,0.0236*%
%ADD62C,0.0157*%
%ADD63C,0.0590*%
%ADD64C,0.0149*%
%ADD65C,0.0787*%
%ADD66C,0.0315*%
%ADD67C,0.0709*%
%ADD68C,0.0197*%
%ADD69C,0.0394*%
%ADD70C,0.0905*%
%ADD71C,0.0512*%
%ADD72C,0.0236*%
%ADD73C,0.0079*%
%ADD74R,0.0500X0.0400*%
%ADD75R,0.0400X0.0500*%
%ADD76R,0.1000X0.0600*%
%ADD77R,0.0600X0.1000*%
%ADD78R,0.0300X0.0350*%
%ADD79R,0.0350X0.0300*%
%ADD80C,0.0550*%
%ADD81R,0.0550X0.0550*%
%ADD82C,0.0580*%
%ADD83R,0.0580X0.0580*%
%ADD84C,0.0512*%
%ADD85R,0.0630X0.0827*%
%ADD86R,0.0551X0.0728*%
%ADD87R,0.0905X0.0472*%
%ADD88C,0.1024*%
%ADD89C,0.0620*%
%ADD90C,0.0433*%
%ADD91R,0.0394X0.0709*%
%ADD92R,0.0709X0.0669*%
%ADD93R,0.0236X0.0669*%
%ADD94R,0.0709X0.0748*%
%ADD95C,0.3149X0.1574*%
%ADD96C,0.0600*%
%ADD97R,0.0500X0.0500*%
%ADD98R,0.0197X0.0551*%
%ADD99R,0.0394X0.0138*%
%ADD100R,0.0880X0.1420*%
%ADD101R,0.0880X0.0480*%
%ADD102C,0.0472*%
%ADD103C,0.0394*%
%ADD104R,0.0550X0.0350*%
%ADD105R,0.0450X0.0350*%
%ADD106R,0.0700X0.0160*%
%ADD107R,0.0390X0.0272*%
%ADD108R,0.0272X0.0390*%
%ADD109C,0.0236*%
%ADD110C,0.0177*%
%ADD111C,0.0236*%
%ADD112C,0.0189*%
%ADD113C,0.0750*%
%ADD114R,0.0750X0.0750*%
%ADD115C,0.0780*%
%ADD116R,0.0780X0.0780*%
%ADD117C,0.1102*%
%ADD118C,0.0700*%
%ADD119C,0.0670*%
%ADD120C,0.0650*%
%ADD121C,0.0059*%
%ADD122C,0.0236*%
%ADD123R,0.0350X0.0400*%
%ADD124R,0.1050X0.0650*%
%ADD125R,0.0650X0.1050*%
%ADD126R,0.0700X0.1250*%
%ADD127R,0.2400X0.2400*%
%ADD128R,0.1063X0.1063*%
%ADD129C,0.1390*%
%ADD130C,0.0492*%
%ADD131R,0.0850X0.1850*%
%ADD132R,0.0550X0.0450*%
%ADD133R,0.0433X0.0276*%
%ADD134R,0.0236X0.0236*%
%ADD135R,0.0276X0.0433*%
%ADD136R,0.0701X0.0110*%
%ADD137R,0.0700X0.0110*%
%ADD138R,0.0110X0.0701*%
%ADD139R,0.0110X0.0700*%
%ADD140R,0.0600X0.0400*%
%ADD141R,0.0400X0.0600*%
%ADD142R,0.0400X0.0350*%
%ADD143R,0.1968X0.1968*%
%ADD144R,0.0850X0.0300*%
%ADD145R,0.0384X0.0256*%
%ADD146R,0.0256X0.0384*%
%ADD147R,0.0210X0.0750*%
%ADD148R,0.0150X0.0650*%
%ADD149R,0.0650X0.0150*%
%ADD150C,0.0551*%
%ADD151R,0.0800X0.0300*%
%ADD152R,0.0550X0.0210*%
%ADD153R,0.0930X0.1470*%
%ADD154R,0.0930X0.0530*%
%ADD155R,0.0200X0.0650*%
%ADD156R,0.0650X0.0200*%
%ADD157R,0.0905X0.0551*%
%ADD158C,0.1063*%
%ADD159R,0.0236X0.0590*%
%ADD160R,0.0750X0.0210*%
%ADD161C,0.0060*%
%ADD162C,0.0100*%
%ADD163C,0.0500*%
%ADD164C,0.0030*%
%ADD165C,0.0098*%
%ADD166C,0.0039*%
%ADD167C,0.0063*%
*
G04 Plot Data ***
*
G54D68*
G01X0000022Y-0022369D02*
G03X0022349Y-0000042I0000000J0022327D01*
G01X-0022305D02*
G03X0000022Y-0022369I0022327J0000000D01*
Y0022285D02*
G03X-0022305Y-0000042I0000000J0022327D01*
G01X0022349D02*
G03X0000022Y0022285I0022327J0000000D01*
G54D162*
G01X-0000758Y-0036150D02*
X-0000675Y-0036317D01*
X-0000175D01*
X-0000091Y-0036150D01*
Y-0035817D01*
X-0000258Y-0035650D01*
X-0000758D01*
Y-0035317D01*
X-0000091D01*
X-0001125Y-0035817D02*
X-0001041Y-0035650D01*
Y-0035484D01*
X-0001125Y-0035317D01*
X-0001625D01*
X-0001708Y-0035484D01*
Y-0035650D01*
X-0001625Y-0035817D01*
X-0001125D01*
X-0001041Y-0035984D01*
Y-0036150D01*
X-0001125Y-0036317D01*
X-0001625D01*
X-0001708Y-0036150D01*
Y-0035984D01*
X-0001625Y-0035817D01*
X-0002575D02*
X-0002075D01*
X-0001991Y-0035984D01*
Y-0036150D01*
X-0002075Y-0036317D01*
X-0002575D01*
X-0002658Y-0036150D01*
Y-0035984D01*
X-0002325Y-0035317D01*
X-0012487Y-0036317D02*
X-0013070D01*
Y-0035317D01*
X-0013354Y-0035984D02*
X-0014020D01*
X-0013354Y-0036317D02*
Y-0035817D01*
X-0013604Y-0035317D01*
X-0013770D01*
X-0014020Y-0035817D01*
Y-0036317D01*
X-0014637D02*
Y-0035317D01*
X-0014304D02*
X-0014970D01*
X-0015837Y-0036317D02*
X-0015920Y-0036150D01*
Y-0035484D01*
X-0015837Y-0035317D01*
X-0015337D01*
X-0015254Y-0035484D01*
Y-0036150D01*
X-0015337Y-0036317D01*
X-0015837D01*
X-0016537D02*
Y-0035317D01*
X-0016204D02*
X-0016870D01*
X0007764Y-0034456D02*
Y-0033789D01*
X0007709Y-0034456D02*
X0008042D01*
X0008153Y-0034234D01*
Y-0034011D01*
X0008042Y-0033789D01*
X0007709D01*
X0007342Y-0034123D02*
X0007009D01*
X0007453Y-0034456D02*
X0007009D01*
Y-0033789D01*
X0007453D01*
X0006531Y-0034456D02*
Y-0033789D01*
X0006753D02*
X0006309D01*
X0006053Y-0034234D02*
X0005609D01*
X0006053Y-0034456D02*
Y-0034123D01*
X0005886Y-0033789D01*
X0005775D01*
X0005609Y-0034123D01*
Y-0034456D01*
X0005353D02*
X0004964D01*
Y-0033789D01*
X0004264Y-0034123D02*
X0004597D01*
X0004709Y-0034011D01*
Y-0033900D01*
X0004597Y-0033789D01*
X0004264D01*
Y-0034456D01*
X0004009Y-0034123D02*
X0003564D01*
X0003309Y-0033789D02*
Y-0034456D01*
X0003197Y-0034345D01*
X0002975Y-0033900D01*
X0002864Y-0033789D01*
Y-0034456D01*
X0002220D02*
X0002164Y-0034345D01*
Y-0033900D01*
X0002220Y-0033789D01*
X0002553D01*
X0002609Y-0033900D01*
Y-0034345D01*
X0002553Y-0034456D01*
X0002220D01*
X0001909Y-0033789D02*
Y-0034456D01*
X0001797Y-0034345D01*
X0001575Y-0033900D01*
X0001464Y-0033789D01*
Y-0034456D01*
X-0000536Y-0034345D02*
X-0000425Y-0034456D01*
X-0000202D01*
X-0000091Y-0034345D01*
Y-0034234D01*
X-0000314Y-0034011D01*
X-0000091Y-0033789D01*
X-0000536D01*
X-0013930Y-0034456D02*
Y-0034123D01*
X-0013708Y-0034456D02*
Y-0034123D01*
X-0013764Y-0034011D01*
X-0013875D01*
X-0013930Y-0034123D01*
X-0013986Y-0034011D01*
X-0014097D01*
X-0014152Y-0034123D01*
Y-0034456D01*
X-0014630D02*
Y-0034123D01*
X-0014408Y-0034456D02*
Y-0034123D01*
X-0014464Y-0034011D01*
X-0014575D01*
X-0014630Y-0034123D01*
X-0014686Y-0034011D01*
X-0014797D01*
X-0014852Y-0034123D01*
Y-0034456D01*
X-0016336D02*
X-0016447Y-0034345D01*
X-0016502Y-0034234D01*
Y-0034011D01*
X-0016447Y-0033900D01*
X-0016336Y-0033789D01*
X-0016225D01*
X-0016114Y-0033900D01*
X-0016058Y-0034011D01*
Y-0034234D01*
X-0016114Y-0034345D01*
X-0016225Y-0034456D01*
X-0016336D01*
X-0017036D02*
X-0017147Y-0034345D01*
X-0017202Y-0034234D01*
Y-0034011D01*
X-0017147Y-0033900D01*
X-0017036Y-0033789D01*
X-0016925D01*
X-0016814Y-0033900D01*
X-0016758Y-0034011D01*
Y-0034234D01*
X-0016814Y-0034345D01*
X-0016925Y-0034456D01*
X-0017036D01*
X-0017736D02*
X-0017847Y-0034345D01*
X-0017902Y-0034234D01*
Y-0034011D01*
X-0017847Y-0033900D01*
X-0017736Y-0033789D01*
X-0017625D01*
X-0017514Y-0033900D01*
X-0017458Y-0034011D01*
Y-0034234D01*
X-0017514Y-0034345D01*
X-0017625Y-0034456D01*
X-0017736D01*
X-0018269D02*
X-0018158D01*
Y-0034345D01*
X-0018269D01*
Y-0034456D01*
X-0019080Y-0034345D02*
X-0018969Y-0034456D01*
X-0018747D01*
X-0018636Y-0034345D01*
Y-0034234D01*
X-0018858Y-0034011D01*
X-0018636Y-0033789D01*
X-0019080D01*
X-0000091Y-0032956D02*
X-0000536D01*
X-0000091Y-0032511D01*
Y-0032400D01*
X-0000147Y-0032289D01*
X-0000480D01*
X-0000536Y-0032400D01*
X-0013930Y-0032956D02*
Y-0032623D01*
X-0013708Y-0032956D02*
Y-0032623D01*
X-0013764Y-0032511D01*
X-0013875D01*
X-0013930Y-0032623D01*
X-0013986Y-0032511D01*
X-0014097D01*
X-0014152Y-0032623D01*
Y-0032956D01*
X-0014630D02*
Y-0032623D01*
X-0014408Y-0032956D02*
Y-0032623D01*
X-0014464Y-0032511D01*
X-0014575D01*
X-0014630Y-0032623D01*
X-0014686Y-0032511D01*
X-0014797D01*
X-0014852Y-0032623D01*
Y-0032956D01*
X-0016336D02*
X-0016447Y-0032845D01*
X-0016502Y-0032734D01*
Y-0032511D01*
X-0016447Y-0032400D01*
X-0016336Y-0032289D01*
X-0016225D01*
X-0016114Y-0032400D01*
X-0016058Y-0032511D01*
Y-0032734D01*
X-0016114Y-0032845D01*
X-0016225Y-0032956D01*
X-0016336D01*
X-0017036D02*
X-0017147Y-0032845D01*
X-0017202Y-0032734D01*
Y-0032511D01*
X-0017147Y-0032400D01*
X-0017036Y-0032289D01*
X-0016925D01*
X-0016814Y-0032400D01*
X-0016758Y-0032511D01*
Y-0032734D01*
X-0016814Y-0032845D01*
X-0016925Y-0032956D01*
X-0017036D01*
X-0017458D02*
X-0017680D01*
X-0017569D02*
Y-0032289D01*
X-0017680Y-0032400D01*
X-0018158Y-0032956D02*
X-0018047D01*
Y-0032845D01*
X-0018158D01*
Y-0032956D01*
X-0018525D02*
X-0018969D01*
X-0018525Y-0032511D01*
Y-0032400D01*
X-0018580Y-0032289D01*
X-0018913D01*
X-0018969Y-0032400D01*
X-0000091Y-0031456D02*
X-0000536D01*
X-0000091Y-0031011D01*
Y-0030900D01*
X-0000147Y-0030789D01*
X-0000480D01*
X-0000536Y-0030900D01*
X-0013930Y-0031456D02*
Y-0031123D01*
X-0013708Y-0031456D02*
Y-0031123D01*
X-0013764Y-0031011D01*
X-0013875D01*
X-0013930Y-0031123D01*
X-0013986Y-0031011D01*
X-0014097D01*
X-0014152Y-0031123D01*
Y-0031456D01*
X-0014630D02*
Y-0031123D01*
X-0014408Y-0031456D02*
Y-0031123D01*
X-0014464Y-0031011D01*
X-0014575D01*
X-0014630Y-0031123D01*
X-0014686Y-0031011D01*
X-0014797D01*
X-0014852Y-0031123D01*
Y-0031456D01*
X-0016336D02*
X-0016447Y-0031345D01*
X-0016502Y-0031234D01*
Y-0031011D01*
X-0016447Y-0030900D01*
X-0016336Y-0030789D01*
X-0016225D01*
X-0016114Y-0030900D01*
X-0016058Y-0031011D01*
Y-0031234D01*
X-0016114Y-0031345D01*
X-0016225Y-0031456D01*
X-0016336D01*
X-0017036D02*
X-0017147Y-0031345D01*
X-0017202Y-0031234D01*
Y-0031011D01*
X-0017147Y-0030900D01*
X-0017036Y-0030789D01*
X-0016925D01*
X-0016814Y-0030900D01*
X-0016758Y-0031011D01*
Y-0031234D01*
X-0016814Y-0031345D01*
X-0016925Y-0031456D01*
X-0017036D01*
X-0017902Y-0031345D02*
X-0017791Y-0031456D01*
X-0017569D01*
X-0017458Y-0031345D01*
Y-0031234D01*
X-0017680Y-0031011D01*
X-0017458Y-0030789D01*
X-0017902D01*
X-0018269Y-0031456D02*
X-0018158D01*
Y-0031345D01*
X-0018269D01*
Y-0031456D01*
X-0018636D02*
X-0018858D01*
X-0018747D02*
Y-0030789D01*
X-0018858Y-0030900D01*
X-0000091Y-0029956D02*
X-0000536D01*
X-0000091Y-0029511D01*
Y-0029400D01*
X-0000147Y-0029289D01*
X-0000480D01*
X-0000536Y-0029400D01*
X-0000791Y-0029956D02*
X-0001013D01*
X-0000902D02*
Y-0029289D01*
X-0001013Y-0029400D01*
X-0013930Y-0029956D02*
Y-0029623D01*
X-0013708Y-0029956D02*
Y-0029623D01*
X-0013764Y-0029511D01*
X-0013875D01*
X-0013930Y-0029623D01*
X-0013986Y-0029511D01*
X-0014097D01*
X-0014152Y-0029623D01*
Y-0029956D01*
X-0014630D02*
Y-0029623D01*
X-0014408Y-0029956D02*
Y-0029623D01*
X-0014464Y-0029511D01*
X-0014575D01*
X-0014630Y-0029623D01*
X-0014686Y-0029511D01*
X-0014797D01*
X-0014852Y-0029623D01*
Y-0029956D01*
X-0016502Y-0029845D02*
X-0016447Y-0029956D01*
X-0016114D01*
X-0016058Y-0029845D01*
Y-0029623D01*
X-0016169Y-0029511D01*
X-0016502D01*
Y-0029289D01*
X-0016058D01*
X-0017147Y-0029623D02*
X-0016814D01*
X-0016758Y-0029734D01*
Y-0029845D01*
X-0016814Y-0029956D01*
X-0017147D01*
X-0017202Y-0029845D01*
Y-0029734D01*
X-0016980Y-0029289D01*
X-0017514Y-0029623D02*
X-0017847D01*
X-0017902Y-0029511D01*
Y-0029400D01*
X-0017847Y-0029289D01*
X-0017514D01*
X-0017458Y-0029400D01*
Y-0029511D01*
X-0017680Y-0029956D01*
X-0018269D02*
X-0018158D01*
Y-0029845D01*
X-0018269D01*
Y-0029956D01*
X-0018914D02*
X-0019025Y-0029845D01*
X-0019080Y-0029734D01*
Y-0029511D01*
X-0019025Y-0029400D01*
X-0018914Y-0029289D01*
X-0018802D01*
X-0018691Y-0029400D01*
X-0018636Y-0029511D01*
Y-0029734D01*
X-0018691Y-0029845D01*
X-0018802Y-0029956D01*
X-0018914D01*
X-0000536Y-0028345D02*
X-0000425Y-0028456D01*
X-0000202D01*
X-0000091Y-0028345D01*
Y-0028234D01*
X-0000314Y-0028011D01*
X-0000091Y-0027789D01*
X-0000536D01*
X-0000791Y-0028456D02*
X-0001013D01*
X-0000902D02*
Y-0027789D01*
X-0001013Y-0027900D01*
X-0013930Y-0028456D02*
Y-0028123D01*
X-0013708Y-0028456D02*
Y-0028123D01*
X-0013764Y-0028011D01*
X-0013875D01*
X-0013930Y-0028123D01*
X-0013986Y-0028011D01*
X-0014097D01*
X-0014152Y-0028123D01*
Y-0028456D01*
X-0014630D02*
Y-0028123D01*
X-0014408Y-0028456D02*
Y-0028123D01*
X-0014464Y-0028011D01*
X-0014575D01*
X-0014630Y-0028123D01*
X-0014686Y-0028011D01*
X-0014797D01*
X-0014852Y-0028123D01*
Y-0028456D01*
X-0016336D02*
X-0016447Y-0028345D01*
X-0016502Y-0028234D01*
Y-0028011D01*
X-0016447Y-0027900D01*
X-0016336Y-0027789D01*
X-0016225D01*
X-0016114Y-0027900D01*
X-0016058Y-0028011D01*
Y-0028234D01*
X-0016114Y-0028345D01*
X-0016225Y-0028456D01*
X-0016336D01*
X-0016758Y-0028234D02*
X-0017202D01*
X-0016980Y-0027789D01*
X-0016869D01*
Y-0028456D01*
X-0017514Y-0028123D02*
X-0017847D01*
X-0017902Y-0028011D01*
Y-0027900D01*
X-0017847Y-0027789D01*
X-0017514D01*
X-0017458Y-0027900D01*
Y-0028011D01*
X-0017680Y-0028456D01*
X-0018269D02*
X-0018158D01*
Y-0028345D01*
X-0018269D01*
Y-0028456D01*
X-0018914D02*
X-0019025Y-0028345D01*
X-0019080Y-0028234D01*
Y-0028011D01*
X-0019025Y-0027900D01*
X-0018914Y-0027789D01*
X-0018802D01*
X-0018691Y-0027900D01*
X-0018636Y-0028011D01*
Y-0028234D01*
X-0018691Y-0028345D01*
X-0018802Y-0028456D01*
X-0018914D01*
X-0000369Y-0026956D02*
X-0000480Y-0026845D01*
X-0000536Y-0026734D01*
Y-0026511D01*
X-0000480Y-0026400D01*
X-0000369Y-0026289D01*
X-0000258D01*
X-0000147Y-0026400D01*
X-0000091Y-0026511D01*
Y-0026734D01*
X-0000147Y-0026845D01*
X-0000258Y-0026956D01*
X-0000369D01*
X-0000791D02*
X-0001013D01*
X-0000902D02*
Y-0026289D01*
X-0001013Y-0026400D01*
X-0013930Y-0026956D02*
Y-0026623D01*
X-0013708Y-0026956D02*
Y-0026623D01*
X-0013764Y-0026511D01*
X-0013875D01*
X-0013930Y-0026623D01*
X-0013986Y-0026511D01*
X-0014097D01*
X-0014152Y-0026623D01*
Y-0026956D01*
X-0014630D02*
Y-0026623D01*
X-0014408Y-0026956D02*
Y-0026623D01*
X-0014464Y-0026511D01*
X-0014575D01*
X-0014630Y-0026623D01*
X-0014686Y-0026511D01*
X-0014797D01*
X-0014852Y-0026623D01*
Y-0026956D01*
X-0016058Y-0026734D02*
X-0016502D01*
X-0016280Y-0026289D01*
X-0016169D01*
Y-0026956D01*
X-0017147Y-0026623D02*
X-0016814D01*
X-0016758Y-0026734D01*
Y-0026845D01*
X-0016814Y-0026956D01*
X-0017147D01*
X-0017202Y-0026845D01*
Y-0026734D01*
X-0016980Y-0026289D01*
X-0017514Y-0026623D02*
X-0017458Y-0026511D01*
Y-0026400D01*
X-0017514Y-0026289D01*
X-0017847D01*
X-0017902Y-0026400D01*
Y-0026511D01*
X-0017847Y-0026623D01*
X-0017514D01*
X-0017458Y-0026734D01*
Y-0026845D01*
X-0017514Y-0026956D01*
X-0017847D01*
X-0017902Y-0026845D01*
Y-0026734D01*
X-0017847Y-0026623D01*
X-0018269Y-0026956D02*
X-0018158D01*
Y-0026845D01*
X-0018269D01*
Y-0026956D01*
X-0018914D02*
X-0019025Y-0026845D01*
X-0019080Y-0026734D01*
Y-0026511D01*
X-0019025Y-0026400D01*
X-0018914Y-0026289D01*
X-0018802D01*
X-0018691Y-0026400D01*
X-0018636Y-0026511D01*
Y-0026734D01*
X-0018691Y-0026845D01*
X-0018802Y-0026956D01*
X-0018914D01*
X-0000091Y-0025234D02*
X-0000536D01*
X-0000314Y-0024789D01*
X-0000202D01*
Y-0025456D01*
X-0000791Y-0025234D02*
X-0001236D01*
X-0001014Y-0024789D01*
X-0000902D01*
Y-0025456D01*
X-0013930D02*
Y-0025123D01*
X-0013708Y-0025456D02*
Y-0025123D01*
X-0013764Y-0025011D01*
X-0013875D01*
X-0013930Y-0025123D01*
X-0013986Y-0025011D01*
X-0014097D01*
X-0014152Y-0025123D01*
Y-0025456D01*
X-0014630D02*
Y-0025123D01*
X-0014408Y-0025456D02*
Y-0025123D01*
X-0014464Y-0025011D01*
X-0014575D01*
X-0014630Y-0025123D01*
X-0014686Y-0025011D01*
X-0014797D01*
X-0014852Y-0025123D01*
Y-0025456D01*
X-0016336D02*
X-0016447Y-0025345D01*
X-0016502Y-0025234D01*
Y-0025011D01*
X-0016447Y-0024900D01*
X-0016336Y-0024789D01*
X-0016225D01*
X-0016114Y-0024900D01*
X-0016058Y-0025011D01*
Y-0025234D01*
X-0016114Y-0025345D01*
X-0016225Y-0025456D01*
X-0016336D01*
X-0017036D02*
X-0017147Y-0025345D01*
X-0017202Y-0025234D01*
Y-0025011D01*
X-0017147Y-0024900D01*
X-0017036Y-0024789D01*
X-0016925D01*
X-0016814Y-0024900D01*
X-0016758Y-0025011D01*
Y-0025234D01*
X-0016814Y-0025345D01*
X-0016925Y-0025456D01*
X-0017036D01*
X-0017514Y-0025123D02*
X-0017458Y-0025011D01*
Y-0024900D01*
X-0017514Y-0024789D01*
X-0017847D01*
X-0017902Y-0024900D01*
Y-0025011D01*
X-0017847Y-0025123D01*
X-0017514D01*
X-0017458Y-0025234D01*
Y-0025345D01*
X-0017514Y-0025456D01*
X-0017847D01*
X-0017902Y-0025345D01*
Y-0025234D01*
X-0017847Y-0025123D01*
X-0018269Y-0025456D02*
X-0018158D01*
Y-0025345D01*
X-0018269D01*
Y-0025456D01*
X-0018914D02*
X-0019025Y-0025345D01*
X-0019080Y-0025234D01*
Y-0025011D01*
X-0019025Y-0024900D01*
X-0018914Y-0024789D01*
X-0018802D01*
X-0018691Y-0024900D01*
X-0018636Y-0025011D01*
Y-0025234D01*
X-0018691Y-0025345D01*
X-0018802Y-0025456D01*
X-0018914D01*
X-0000091Y-0023734D02*
X-0000536D01*
X-0000314Y-0023289D01*
X-0000202D01*
Y-0023956D01*
X-0000791D02*
X-0001236D01*
X-0000791Y-0023511D01*
Y-0023400D01*
X-0000847Y-0023289D01*
X-0001180D01*
X-0001236Y-0023400D01*
X-0013930Y-0023956D02*
Y-0023623D01*
X-0013708Y-0023956D02*
Y-0023623D01*
X-0013764Y-0023511D01*
X-0013875D01*
X-0013930Y-0023623D01*
X-0013986Y-0023511D01*
X-0014097D01*
X-0014152Y-0023623D01*
Y-0023956D01*
X-0014630D02*
Y-0023623D01*
X-0014408Y-0023956D02*
Y-0023623D01*
X-0014464Y-0023511D01*
X-0014575D01*
X-0014630Y-0023623D01*
X-0014686Y-0023511D01*
X-0014797D01*
X-0014852Y-0023623D01*
Y-0023956D01*
X-0016114Y-0023623D02*
X-0016447D01*
X-0016502Y-0023511D01*
Y-0023400D01*
X-0016447Y-0023289D01*
X-0016114D01*
X-0016058Y-0023400D01*
Y-0023511D01*
X-0016280Y-0023956D01*
X-0016814Y-0023623D02*
X-0017147D01*
X-0017202Y-0023511D01*
Y-0023400D01*
X-0017147Y-0023289D01*
X-0016814D01*
X-0016758Y-0023400D01*
Y-0023511D01*
X-0016980Y-0023956D01*
X-0017902Y-0023845D02*
X-0017847Y-0023956D01*
X-0017514D01*
X-0017458Y-0023845D01*
Y-0023623D01*
X-0017569Y-0023511D01*
X-0017902D01*
Y-0023289D01*
X-0017458D01*
X-0018269Y-0023956D02*
X-0018158D01*
Y-0023845D01*
X-0018269D01*
Y-0023956D01*
X-0018914D02*
X-0019025Y-0023845D01*
X-0019080Y-0023734D01*
Y-0023511D01*
X-0019025Y-0023400D01*
X-0018914Y-0023289D01*
X-0018802D01*
X-0018691Y-0023400D01*
X-0018636Y-0023511D01*
Y-0023734D01*
X-0018691Y-0023845D01*
X-0018802Y-0023956D01*
X-0018914D01*
X-0000536Y-0022345D02*
X-0000480Y-0022456D01*
X-0000147D01*
X-0000091Y-0022345D01*
Y-0022123D01*
X-0000202Y-0022011D01*
X-0000536D01*
Y-0021789D01*
X-0000091D01*
X-0001125Y-0022456D02*
X-0000791Y-0021789D01*
X-0001236D01*
X-0001936Y-0022345D02*
X-0001880Y-0022456D01*
X-0001547D01*
X-0001491Y-0022345D01*
Y-0022123D01*
X-0001602Y-0022011D01*
X-0001936D01*
Y-0021789D01*
X-0001491D01*
X-0013930Y-0022456D02*
Y-0022123D01*
X-0013708Y-0022456D02*
Y-0022123D01*
X-0013764Y-0022011D01*
X-0013875D01*
X-0013930Y-0022123D01*
X-0013986Y-0022011D01*
X-0014097D01*
X-0014152Y-0022123D01*
Y-0022456D01*
X-0014630D02*
Y-0022123D01*
X-0014408Y-0022456D02*
Y-0022123D01*
X-0014464Y-0022011D01*
X-0014575D01*
X-0014630Y-0022123D01*
X-0014686Y-0022011D01*
X-0014797D01*
X-0014852Y-0022123D01*
Y-0022456D01*
X-0016336D02*
X-0016447Y-0022345D01*
X-0016502Y-0022234D01*
Y-0022011D01*
X-0016447Y-0021900D01*
X-0016336Y-0021789D01*
X-0016225D01*
X-0016114Y-0021900D01*
X-0016058Y-0022011D01*
Y-0022234D01*
X-0016114Y-0022345D01*
X-0016225Y-0022456D01*
X-0016336D01*
X-0017036D02*
X-0017147Y-0022345D01*
X-0017202Y-0022234D01*
Y-0022011D01*
X-0017147Y-0021900D01*
X-0017036Y-0021789D01*
X-0016925D01*
X-0016814Y-0021900D01*
X-0016758Y-0022011D01*
Y-0022234D01*
X-0016814Y-0022345D01*
X-0016925Y-0022456D01*
X-0017036D01*
X-0017902Y-0022345D02*
X-0017791Y-0022456D01*
X-0017569D01*
X-0017458Y-0022345D01*
Y-0022234D01*
X-0017680Y-0022011D01*
X-0017458Y-0021789D01*
X-0017902D01*
X-0018269Y-0022456D02*
X-0018158D01*
Y-0022345D01*
X-0018269D01*
Y-0022456D01*
X-0018914D02*
X-0019025Y-0022345D01*
X-0019080Y-0022234D01*
Y-0022011D01*
X-0019025Y-0021900D01*
X-0018914Y-0021789D01*
X-0018802D01*
X-0018691Y-0021900D01*
X-0018636Y-0022011D01*
Y-0022234D01*
X-0018691Y-0022345D01*
X-0018802Y-0022456D01*
X-0018914D01*
X0008313Y-0020317D02*
X0007813D01*
X0008479Y-0020817D02*
X0007813D01*
Y-0019817D01*
X0008479D01*
X0007196Y-0020817D02*
Y-0019817D01*
X0007529D02*
X0006863D01*
X0005996Y-0020817D02*
X0005913Y-0020650D01*
Y-0019984D01*
X0005996Y-0019817D01*
X0006496D01*
X0006579Y-0019984D01*
Y-0020650D01*
X0006496Y-0020817D01*
X0005996D01*
X0005629Y-0019817D02*
Y-0020817D01*
X0005463Y-0020650D01*
X0005129Y-0019984D01*
X0004963Y-0019817D01*
Y-0020817D01*
X-0000875D02*
Y-0020317D01*
X-0000541Y-0019817D02*
X-0000791Y-0020317D01*
X-0000958D01*
X-0001208Y-0019817D01*
X-0001825Y-0020817D02*
Y-0019817D01*
X-0001491D02*
X-0002158D01*
X-0002775Y-0020484D02*
X-0002441Y-0020817D01*
X-0003108Y-0020650D02*
X-0003025Y-0020817D01*
X-0002691D01*
X-0002608Y-0020650D01*
X-0002441Y-0020484D01*
Y-0019984D01*
X-0002525Y-0019817D01*
X-0003025D01*
X-0003108Y-0019984D01*
Y-0020650D01*
X-0007391Y-0020817D02*
X-0007975D01*
Y-0019817D01*
X-0008841Y-0020817D02*
X-0008925Y-0020650D01*
Y-0019984D01*
X-0008841Y-0019817D01*
X-0008341D01*
X-0008258Y-0019984D01*
Y-0020650D01*
X-0008341Y-0020817D01*
X-0008841D01*
X-0009541D02*
Y-0019817D01*
X-0009208D02*
X-0009875D01*
X-0015212Y-0020817D02*
Y-0019817D01*
X-0015379Y-0019984D01*
X-0015545Y-0020317D01*
X-0015712Y-0019984D01*
X-0015879Y-0019817D01*
Y-0020817D01*
X-0016162Y-0020484D02*
X-0016829D01*
X-0016162Y-0020817D02*
Y-0020317D01*
X-0016412Y-0019817D01*
X-0016579D01*
X-0016829Y-0020317D01*
Y-0020817D01*
X-0017112D02*
X-0017445D01*
X-0017279D02*
Y-0019817D01*
X-0017112D02*
X-0017445D01*
X-0018479Y-0020817D02*
Y-0019817D01*
X-0018562Y-0020817D02*
X-0018062D01*
X-0017895Y-0020484D01*
Y-0020150D01*
X-0018062Y-0019817D01*
X-0018562D01*
X-0021650Y-0020817D02*
Y-0019817D01*
X-0021816Y-0019984D01*
X-0021983Y-0020317D01*
X-0022150Y-0019984D01*
X-0022316Y-0019817D01*
Y-0020817D01*
X-0022933D02*
Y-0020317D01*
X-0022600Y-0019817D02*
X-0022850Y-0020317D01*
X-0023016D01*
X-0023266Y-0019817D01*
X-0023550Y-0019984D02*
X-0023633Y-0019817D01*
X-0024133D01*
X-0024216Y-0019984D01*
Y-0020150D01*
X-0024133Y-0020317D01*
X-0023633D01*
X-0023550Y-0020484D01*
Y-0020650D01*
X-0023633Y-0020817D01*
X-0024133D01*
X-0024216Y-0020650D01*
X-0001362Y-0018817D02*
Y-0017817D01*
X-0001029D02*
X-0001695D01*
X-0002229Y-0018317D02*
X-0001979Y-0018817D01*
X-0002645Y-0018317D02*
X-0002145D01*
X-0001979Y-0018150D01*
Y-0017984D01*
X-0002145Y-0017817D01*
X-0002645D01*
Y-0018817D01*
X-0002929Y-0018484D02*
X-0003595D01*
X-0002929Y-0018817D02*
Y-0018317D01*
X-0003179Y-0017817D01*
X-0003345D01*
X-0003595Y-0018317D01*
Y-0018817D01*
X-0003879Y-0018317D02*
X-0004545D01*
X-0003879Y-0018817D02*
Y-0017817D01*
X-0004545Y-0018817D02*
Y-0017817D01*
X-0004829Y-0018650D02*
X-0004912Y-0018817D01*
X-0005412D01*
X-0005495Y-0018650D01*
Y-0017984D01*
X-0005412Y-0017817D01*
X-0004912D01*
X-0004829Y-0017984D01*
X-0007104Y-0018817D02*
X-0007687D01*
Y-0017817D01*
X-0007970Y-0018817D02*
X-0008554D01*
Y-0017817D01*
X-0008837Y-0018817D02*
X-0009170D01*
X-0009004D02*
Y-0017817D01*
X-0008837D02*
X-0009170D01*
X-0009870Y-0018317D02*
X-0009620Y-0018817D01*
X-0010287Y-0018317D02*
X-0009787D01*
X-0009620Y-0018150D01*
Y-0017984D01*
X-0009787Y-0017817D01*
X-0010287D01*
Y-0018817D01*
X-0011154D02*
Y-0017817D01*
X-0011237Y-0018817D02*
X-0010737D01*
X-0010570Y-0018484D01*
Y-0018150D01*
X-0010737Y-0017817D01*
X-0011237D01*
X0001697Y0007920D02*
Y0007420D01*
X0002197Y0007920D02*
X0001697D01*
X0002197Y0007420D02*
Y0007920D01*
X0001697Y0007420D02*
X0002197D01*
Y0007920D02*
X0001697Y0007420D01*
X0002197D02*
X0001697Y0007920D01*
X-0006150Y-0002208D02*
Y-0002708D01*
X-0005650Y-0002208D02*
X-0006150D01*
X-0005650Y-0002708D02*
Y-0002208D01*
X-0006150Y-0002708D02*
X-0005650D01*
Y-0002208D02*
X-0006150Y-0002708D01*
X-0005650D02*
X-0006150Y-0002208D01*
X0005493Y0000604D02*
Y0000104D01*
X0005993Y0000604D02*
X0005493D01*
X0005993Y0000104D02*
Y0000604D01*
X0005493Y0000104D02*
X0005993D01*
Y0000604D02*
X0005493Y0000104D01*
X0005993D02*
X0005493Y0000604D01*
X-0006150Y-0002208D02*
Y-0002708D01*
X-0005650Y-0002208D02*
X-0006150D01*
X-0005650Y-0002708D02*
Y-0002208D01*
X-0006150Y-0002708D02*
X-0005650D01*
Y-0002208D02*
X-0006150Y-0002708D01*
X-0005650D02*
X-0006150Y-0002208D01*
X0011404Y-0014454D02*
Y-0014954D01*
X0011904Y-0014454D02*
X0011404D01*
X0011904Y-0014954D02*
Y-0014454D01*
X0011404Y-0014954D02*
X0011904D01*
Y-0014454D02*
X0011404Y-0014954D01*
X0011904D02*
X0011404Y-0014454D01*
X0011388Y-0015810D02*
Y-0016310D01*
X0011888Y-0015810D02*
X0011388D01*
X0011888Y-0016310D02*
Y-0015810D01*
X0011388Y-0016310D02*
X0011888D01*
Y-0015810D02*
X0011388Y-0016310D01*
X0011888D02*
X0011388Y-0015810D01*
X0003762Y-0002936D02*
Y-0003436D01*
X0004262Y-0002936D02*
X0003762D01*
X0004262Y-0003436D02*
Y-0002936D01*
X0003762Y-0003436D02*
X0004262D01*
Y-0002936D02*
X0003762Y-0003436D01*
X0004262D02*
X0003762Y-0002936D01*
X-0007684Y0000014D02*
Y-0000486D01*
X-0007184Y0000014D02*
X-0007684D01*
X-0007184Y-0000486D02*
Y0000014D01*
X-0007684Y-0000486D02*
X-0007184D01*
Y0000014D02*
X-0007684Y-0000486D01*
X-0007184D02*
X-0007684Y0000014D01*
X-0001273Y0007900D02*
Y0007400D01*
X-0000773Y0007900D02*
X-0001273D01*
X-0000773Y0007400D02*
Y0007900D01*
X-0001273Y0007400D02*
X-0000773D01*
Y0007900D02*
X-0001273Y0007400D01*
X-0000773D02*
X-0001273Y0007900D01*
X0001107Y0007940D02*
Y0007440D01*
X0001607Y0007940D02*
X0001107D01*
X0001607Y0007440D02*
Y0007940D01*
X0001107Y0007440D02*
X0001607D01*
Y0007940D02*
X0001107Y0007440D01*
X0001607D02*
X0001107Y0007940D01*
X-0007753Y0004803D02*
Y0004303D01*
X-0007253Y0004803D02*
X-0007753D01*
X-0007253Y0004303D02*
Y0004803D01*
X-0007753Y0004303D02*
X-0007253D01*
Y0004803D02*
X-0007753Y0004303D01*
X-0007253D02*
X-0007753Y0004803D01*
X-0007763Y-0002149D02*
Y-0002649D01*
X-0007263Y-0002149D02*
X-0007763D01*
X-0007263Y-0002649D02*
Y-0002149D01*
X-0007763Y-0002649D02*
X-0007263D01*
Y-0002149D02*
X-0007763Y-0002649D01*
X-0007263D02*
X-0007763Y-0002149D01*
X-0004557Y-0003880D02*
Y-0004380D01*
X-0004057Y-0003880D02*
X-0004557D01*
X-0004057Y-0004380D02*
Y-0003880D01*
X-0004557Y-0004380D02*
X-0004057D01*
Y-0003880D02*
X-0004557Y-0004380D01*
X-0004057D02*
X-0004557Y-0003880D01*
X-0008690Y0016252D02*
Y0015752D01*
X-0008190Y0016252D02*
X-0008690D01*
X-0008190Y0015752D02*
Y0016252D01*
X-0008690Y0015752D02*
X-0008190D01*
Y0016252D02*
X-0008690Y0015752D01*
X-0008190D02*
X-0008690Y0016252D01*
X-0001194D02*
Y0015752D01*
X-0000694Y0016252D02*
X-0001194D01*
X-0000694Y0015752D02*
Y0016252D01*
X-0001194Y0015752D02*
X-0000694D01*
Y0016252D02*
X-0001194Y0015752D01*
X-0000694D02*
X-0001194Y0016252D01*
X0005493Y0000604D02*
Y0000104D01*
X0005993Y0000604D02*
X0005493D01*
X0005993Y0000104D02*
Y0000604D01*
X0005493Y0000104D02*
X0005993D01*
Y0000604D02*
X0005493Y0000104D01*
X0005993D02*
X0005493Y0000604D01*
X0003997Y0001017D02*
Y0000517D01*
X0004497Y0001017D02*
X0003997D01*
X0004497Y0000517D02*
Y0001017D01*
X0003997Y0000517D02*
X0004497D01*
Y0001017D02*
X0003997Y0000517D01*
X0004497D02*
X0003997Y0001017D01*
X-0006288Y0000014D02*
Y-0000486D01*
X-0005788Y0000014D02*
X-0006288D01*
X-0005788Y-0000486D02*
Y0000014D01*
X-0006288Y-0000486D02*
X-0005788D01*
Y0000014D02*
X-0006288Y-0000486D01*
X-0005788D02*
X-0006288Y0000014D01*
X-0018710Y-0006370D02*
Y-0006870D01*
X-0018210Y-0006370D02*
X-0018710D01*
X-0018210Y-0006870D02*
Y-0006370D01*
X-0018710Y-0006870D02*
X-0018210D01*
Y-0006370D02*
X-0018710Y-0006870D01*
X-0018210D02*
X-0018710Y-0006370D01*
X0006102Y0001509D02*
Y0001009D01*
X0006602Y0001509D02*
X0006102D01*
X0006602Y0001009D02*
Y0001509D01*
X0006102Y0001009D02*
X0006602D01*
Y0001509D02*
X0006102Y0001009D01*
X0006602D02*
X0006102Y0001509D01*
X0003997Y0001017D02*
Y0000517D01*
X0004497Y0001017D02*
X0003997D01*
X0004497Y0000517D02*
Y0001017D01*
X0003997Y0000517D02*
X0004497D01*
Y0001017D02*
X0003997Y0000517D01*
X0004497D02*
X0003997Y0001017D01*
X-0008785Y0002964D02*
Y0002464D01*
X-0008285Y0002964D02*
X-0008785D01*
X-0008285Y0002464D02*
Y0002964D01*
X-0008785Y0002464D02*
X-0008285D01*
Y0002964D02*
X-0008785Y0002464D01*
X-0008285D02*
X-0008785Y0002964D01*
X0018370Y-0004680D02*
Y-0005180D01*
X0018870Y-0004680D02*
X0018370D01*
X0018870Y-0005180D02*
Y-0004680D01*
X0018370Y-0005180D02*
X0018870D01*
Y-0004680D02*
X0018370Y-0005180D01*
X0018870D02*
X0018370Y-0004680D01*
X0012780Y-0012440D02*
Y-0012940D01*
X0013280Y-0012440D02*
X0012780D01*
X0013280Y-0012940D02*
Y-0012440D01*
X0012780Y-0012940D02*
X0013280D01*
Y-0012440D02*
X0012780Y-0012940D01*
X0013280D02*
X0012780Y-0012440D01*
X0000115Y-0003517D02*
Y-0004017D01*
X0000615Y-0003517D02*
X0000115D01*
X0000615Y-0004017D02*
Y-0003517D01*
X0000115Y-0004017D02*
X0000615D01*
Y-0003517D02*
X0000115Y-0004017D01*
X0000615D02*
X0000115Y-0003517D01*
X-0005717Y0004026D02*
Y0003526D01*
X-0005217Y0004026D02*
X-0005717D01*
X-0005217Y0003526D02*
Y0004026D01*
X-0005717Y0003526D02*
X-0005217D01*
Y0004026D02*
X-0005717Y0003526D01*
X-0005217D02*
X-0005717Y0004026D01*
X-0003967Y0004183D02*
Y0003683D01*
X-0003467Y0004183D02*
X-0003967D01*
X-0003467Y0003683D02*
Y0004183D01*
X-0003967Y0003683D02*
X-0003467D01*
Y0004183D02*
X-0003967Y0003683D01*
X-0003467D02*
X-0003967Y0004183D01*
X0003762Y-0002936D02*
Y-0003436D01*
X0004262Y-0002936D02*
X0003762D01*
X0004262Y-0003436D02*
Y-0002936D01*
X0003762Y-0003436D02*
X0004262D01*
Y-0002936D02*
X0003762Y-0003436D01*
X0004262D02*
X0003762Y-0002936D01*
X-0007753Y0004803D02*
Y0004303D01*
X-0007253Y0004803D02*
X-0007753D01*
X-0007253Y0004303D02*
Y0004803D01*
X-0007753Y0004303D02*
X-0007253D01*
Y0004803D02*
X-0007753Y0004303D01*
X-0007253D02*
X-0007753Y0004803D01*
X-0006249Y0000997D02*
Y0000497D01*
X-0005749Y0000997D02*
X-0006249D01*
X-0005749Y0000497D02*
Y0000997D01*
X-0006249Y0000497D02*
X-0005749D01*
Y0000997D02*
X-0006249Y0000497D01*
X-0005749D02*
X-0006249Y0000997D01*
X-0005717Y0004026D02*
Y0003526D01*
X-0005217Y0004026D02*
X-0005717D01*
X-0005217Y0003526D02*
Y0004026D01*
X-0005717Y0003526D02*
X-0005217D01*
Y0004026D02*
X-0005717Y0003526D01*
X-0005217D02*
X-0005717Y0004026D01*
X0011388Y-0015810D02*
Y-0016310D01*
X0011888Y-0015810D02*
X0011388D01*
X0011888Y-0016310D02*
Y-0015810D01*
X0011388Y-0016310D02*
X0011888D01*
Y-0015810D02*
X0011388Y-0016310D01*
X0011888D02*
X0011388Y-0015810D01*
X0011404Y-0014454D02*
Y-0014954D01*
X0011904Y-0014454D02*
X0011404D01*
X0011904Y-0014954D02*
Y-0014454D01*
X0011404Y-0014954D02*
X0011904D01*
Y-0014454D02*
X0011404Y-0014954D01*
X0011904D02*
X0011404Y-0014454D01*
Y-0014954D01*
X0011904Y-0014454D02*
X0011404D01*
X0011904Y-0014954D02*
Y-0014454D01*
X0011404Y-0014954D02*
X0011904D01*
Y-0014454D02*
X0011404Y-0014954D01*
X0011904D02*
X0011404Y-0014454D01*
X0000870Y0018180D02*
Y0017680D01*
X0001370Y0018180D02*
X0000870D01*
X0001370Y0017680D02*
Y0018180D01*
X0000870Y0017680D02*
X0001370D01*
Y0018180D02*
X0000870Y0017680D01*
X0001370D02*
X0000870Y0018180D01*
X-0016278Y0011598D02*
Y0011098D01*
X-0015778Y0011598D02*
X-0016278D01*
X-0015778Y0011098D02*
Y0011598D01*
X-0016278Y0011098D02*
X-0015778D01*
Y0011598D02*
X-0016278Y0011098D01*
X-0015778D02*
X-0016278Y0011598D01*
X-0012362Y-0013884D02*
Y-0014384D01*
X-0011862Y-0013884D02*
X-0012362D01*
X-0011862Y-0014384D02*
Y-0013884D01*
X-0012362Y-0014384D02*
X-0011862D01*
Y-0013884D02*
X-0012362Y-0014384D01*
X-0011862D02*
X-0012362Y-0013884D01*
X-0001290Y-0017110D02*
Y-0017610D01*
X-0000790Y-0017110D02*
X-0001290D01*
X-0000790Y-0017610D02*
Y-0017110D01*
X-0001290Y-0017610D02*
X-0000790D01*
Y-0017110D02*
X-0001290Y-0017610D01*
X-0000790D02*
X-0001290Y-0017110D01*
X-0002944Y-0009528D02*
Y-0010028D01*
X-0002444Y-0009528D02*
X-0002944D01*
X-0002444Y-0010028D02*
Y-0009528D01*
X-0002944Y-0010028D02*
X-0002444D01*
Y-0009528D02*
X-0002944Y-0010028D01*
X-0002444D02*
X-0002944Y-0009528D01*
X0005550Y-0012162D02*
Y-0012662D01*
X0006050Y-0012162D02*
X0005550D01*
X0006050Y-0012662D02*
Y-0012162D01*
X0005550Y-0012662D02*
X0006050D01*
Y-0012162D02*
X0005550Y-0012662D01*
X0006050D02*
X0005550Y-0012162D01*
X0007568Y-0010848D02*
Y-0011348D01*
X0008068Y-0010848D02*
X0007568D01*
X0008068Y-0011348D02*
Y-0010848D01*
X0007568Y-0011348D02*
X0008068D01*
Y-0010848D02*
X0007568Y-0011348D01*
X0008068D02*
X0007568Y-0010848D01*
X0008280Y-0011560D02*
Y-0012060D01*
X0008780Y-0011560D02*
X0008280D01*
X0008780Y-0012060D02*
Y-0011560D01*
X0008280Y-0012060D02*
X0008780D01*
Y-0011560D02*
X0008280Y-0012060D01*
X0008780D02*
X0008280Y-0011560D01*
X0007990Y-0007590D02*
Y-0008090D01*
X0008490Y-0007590D02*
X0007990D01*
X0008490Y-0008090D02*
Y-0007590D01*
X0007990Y-0008090D02*
X0008490D01*
Y-0007590D02*
X0007990Y-0008090D01*
X0008490D02*
X0007990Y-0007590D01*
X0007994Y-0010778D02*
Y-0011278D01*
X0008494Y-0010778D02*
X0007994D01*
X0008494Y-0011278D02*
Y-0010778D01*
X0007994Y-0011278D02*
X0008494D01*
Y-0010778D02*
X0007994Y-0011278D01*
X0008494D02*
X0007994Y-0010778D01*
X0001107Y0007940D02*
Y0007440D01*
X0001607Y0007940D02*
X0001107D01*
X0001607Y0007440D02*
Y0007940D01*
X0001107Y0007440D02*
X0001607D01*
Y0007940D02*
X0001107Y0007440D01*
X0001607D02*
X0001107Y0007940D01*
X0003939Y-0000124D02*
Y-0000624D01*
X0004439Y-0000124D02*
X0003939D01*
X0004439Y-0000624D02*
Y-0000124D01*
X0003939Y-0000624D02*
X0004439D01*
Y-0000124D02*
X0003939Y-0000624D01*
X0004439D02*
X0003939Y-0000124D01*
X-0001804Y0002256D02*
Y0001756D01*
X-0001304Y0002256D02*
X-0001804D01*
X-0001304Y0001756D02*
Y0002256D01*
X-0001804Y0001756D02*
X-0001304D01*
Y0002256D02*
X-0001804Y0001756D01*
X-0001304D02*
X-0001804Y0002256D01*
X-0008785Y0002964D02*
Y0002464D01*
X-0008285Y0002964D02*
X-0008785D01*
X-0008285Y0002464D02*
Y0002964D01*
X-0008785Y0002464D02*
X-0008285D01*
Y0002964D02*
X-0008785Y0002464D01*
X-0008285D02*
X-0008785Y0002964D01*
X-0016278Y0011598D02*
Y0011098D01*
X-0015778Y0011598D02*
X-0016278D01*
X-0015778Y0011098D02*
Y0011598D01*
X-0016278Y0011098D02*
X-0015778D01*
Y0011598D02*
X-0016278Y0011098D01*
X-0015778D02*
X-0016278Y0011598D01*
X-0003866Y-0013397D02*
Y-0013897D01*
X-0003366Y-0013397D02*
X-0003866D01*
X-0003366Y-0013897D02*
Y-0013397D01*
X-0003866Y-0013897D02*
X-0003366D01*
Y-0013397D02*
X-0003866Y-0013897D01*
X-0003366D02*
X-0003866Y-0013397D01*
X-0005147Y0005285D02*
Y0004785D01*
X-0004647Y0005285D02*
X-0005147D01*
X-0004647Y0004785D02*
Y0005285D01*
X-0005147Y0004785D02*
X-0004647D01*
Y0005285D02*
X-0005147Y0004785D01*
X-0004647D02*
X-0005147Y0005285D01*
X-0014060Y0013042D02*
Y0012542D01*
X-0013560Y0013042D02*
X-0014060D01*
X-0013560Y0012542D02*
Y0013042D01*
X-0014060Y0012542D02*
X-0013560D01*
Y0013042D02*
X-0014060Y0012542D01*
X-0013560D02*
X-0014060Y0013042D01*
X0001380Y-0014556D02*
Y-0015056D01*
X0001880Y-0014556D02*
X0001380D01*
X0001880Y-0015056D02*
Y-0014556D01*
X0001380Y-0015056D02*
X0001880D01*
Y-0014556D02*
X0001380Y-0015056D01*
X0001880D02*
X0001380Y-0014556D01*
X-0003436Y-0009740D02*
Y-0010240D01*
X-0002936Y-0009740D02*
X-0003436D01*
X-0002936Y-0010240D02*
Y-0009740D01*
X-0003436Y-0010240D02*
X-0002936D01*
Y-0009740D02*
X-0003436Y-0010240D01*
X-0002936D02*
X-0003436Y-0009740D01*
X0006610Y-0012980D02*
Y-0013480D01*
X0007110Y-0012980D02*
X0006610D01*
X0007110Y-0013480D02*
Y-0012980D01*
X0006610Y-0013480D02*
X0007110D01*
Y-0012980D02*
X0006610Y-0013480D01*
X0007110D02*
X0006610Y-0012980D01*
X0006750Y-0011550D02*
Y-0012050D01*
X0007250Y-0011550D02*
X0006750D01*
X0007250Y-0012050D02*
Y-0011550D01*
X0006750Y-0012050D02*
X0007250D01*
Y-0011550D02*
X0006750Y-0012050D01*
X0007250D02*
X0006750Y-0011550D01*
X0006494Y-0014574D02*
Y-0015074D01*
X0006994Y-0014574D02*
X0006494D01*
X0006994Y-0015074D02*
Y-0014574D01*
X0006494Y-0015074D02*
X0006994D01*
Y-0014574D02*
X0006494Y-0015074D01*
X0006994D02*
X0006494Y-0014574D01*
X-0002374Y-0000478D02*
Y-0000978D01*
X-0001874Y-0000478D02*
X-0002374D01*
X-0001874Y-0000978D02*
Y-0000478D01*
X-0002374Y-0000978D02*
X-0001874D01*
Y-0000478D02*
X-0002374Y-0000978D01*
X-0001874D02*
X-0002374Y-0000478D01*
X-0004262D02*
Y-0000978D01*
X-0003762Y-0000478D02*
X-0004262D01*
X-0003762Y-0000978D02*
Y-0000478D01*
X-0004262Y-0000978D02*
X-0003762D01*
Y-0000478D02*
X-0004262Y-0000978D01*
X-0003762D02*
X-0004262Y-0000478D01*
X-0005993Y0005422D02*
Y0004922D01*
X-0005493Y0005422D02*
X-0005993D01*
X-0005493Y0004922D02*
Y0005422D01*
X-0005993Y0004922D02*
X-0005493D01*
Y0005422D02*
X-0005993Y0004922D01*
X-0005493D02*
X-0005993Y0005422D01*
X-0002059Y-0000124D02*
Y-0000624D01*
X-0001559Y-0000124D02*
X-0002059D01*
X-0001559Y-0000624D02*
Y-0000124D01*
X-0002059Y-0000624D02*
X-0001559D01*
Y-0000124D02*
X-0002059Y-0000624D01*
X-0001559D02*
X-0002059Y-0000124D01*
X0000458Y-0000517D02*
Y-0001017D01*
X0000958Y-0000517D02*
X0000458D01*
X0000958Y-0001017D02*
Y-0000517D01*
X0000458Y-0001017D02*
X0000958D01*
Y-0000517D02*
X0000458Y-0001017D01*
X0000958D02*
X0000458Y-0000517D01*
X-0004891Y-0001776D02*
Y-0002276D01*
X-0004391Y-0001776D02*
X-0004891D01*
X-0004391Y-0002276D02*
Y-0001776D01*
X-0004891Y-0002276D02*
X-0004391D01*
Y-0001776D02*
X-0004891Y-0002276D01*
X-0004391D02*
X-0004891Y-0001776D01*
X-0003318Y-0000478D02*
Y-0000978D01*
X-0002818Y-0000478D02*
X-0003318D01*
X-0002818Y-0000978D02*
Y-0000478D01*
X-0003318Y-0000978D02*
X-0002818D01*
Y-0000478D02*
X-0003318Y-0000978D01*
X-0002818D02*
X-0003318Y-0000478D01*
X-0003949Y-0000122D02*
Y-0000622D01*
X-0003449Y-0000122D02*
X-0003949D01*
X-0003449Y-0000622D02*
Y-0000122D01*
X-0003949Y-0000622D02*
X-0003449D01*
Y-0000122D02*
X-0003949Y-0000622D01*
X-0003449D02*
X-0003949Y-0000122D01*
Y0002513D02*
Y0002013D01*
X-0003449Y0002513D02*
X-0003949D01*
X-0003449Y0002013D02*
Y0002513D01*
X-0003949Y0002013D02*
X-0003449D01*
Y0002513D02*
X-0003949Y0002013D01*
X-0003449D02*
X-0003949Y0002513D01*
X0000773Y-0000124D02*
Y-0000624D01*
X0001273Y-0000124D02*
X0000773D01*
X0001273Y-0000624D02*
Y-0000124D01*
X0000773Y-0000624D02*
X0001273D01*
Y-0000124D02*
X0000773Y-0000624D01*
X0001273D02*
X0000773Y-0000124D01*
X-0002480Y0002620D02*
Y0002120D01*
X-0001980Y0002620D02*
X-0002480D01*
X-0001980Y0002120D02*
Y0002620D01*
X-0002480Y0002120D02*
X-0001980D01*
Y0002620D02*
X-0002480Y0002120D01*
X-0001980D02*
X-0002480Y0002620D01*
X-0001530Y0002810D02*
Y0002310D01*
X-0001030Y0002810D02*
X-0001530D01*
X-0001030Y0002310D02*
Y0002810D01*
X-0001530Y0002310D02*
X-0001030D01*
Y0002810D02*
X-0001530Y0002310D01*
X-0001030D02*
X-0001530Y0002810D01*
X-0015422Y-0005406D02*
Y-0005906D01*
X-0014922Y-0005406D02*
X-0015422D01*
X-0014922Y-0005906D02*
Y-0005406D01*
X-0015422Y-0005906D02*
X-0014922D01*
Y-0005406D02*
X-0015422Y-0005906D01*
X-0014922D02*
X-0015422Y-0005406D01*
X-0001429Y-0000478D02*
Y-0000978D01*
X-0000929Y-0000478D02*
X-0001429D01*
X-0000929Y-0000978D02*
Y-0000478D01*
X-0001429Y-0000978D02*
X-0000929D01*
Y-0000478D02*
X-0001429Y-0000978D01*
X-0000929D02*
X-0001429Y-0000478D01*
X-0004900Y0002750D02*
Y0002250D01*
X-0004400Y0002750D02*
X-0004900D01*
X-0004400Y0002250D02*
Y0002750D01*
X-0004900Y0002250D02*
X-0004400D01*
Y0002750D02*
X-0004900Y0002250D01*
X-0004400D02*
X-0004900Y0002750D01*
X-0002118Y0002571D02*
Y0002071D01*
X-0001618Y0002571D02*
X-0002118D01*
X-0001618Y0002071D02*
Y0002571D01*
X-0002118Y0002071D02*
X-0001618D01*
Y0002571D02*
X-0002118Y0002071D01*
X-0001618D02*
X-0002118Y0002571D01*
X-0011165Y-0004588D02*
Y-0005088D01*
X-0010665Y-0004588D02*
X-0011165D01*
X-0010665Y-0005088D02*
Y-0004588D01*
X-0011165Y-0005088D02*
X-0010665D01*
Y-0004588D02*
X-0011165Y-0005088D01*
X-0010665D02*
X-0011165Y-0004588D01*
X0005290Y-0014880D02*
Y-0015380D01*
X0005790Y-0014880D02*
X0005290D01*
X0005790Y-0015380D02*
Y-0014880D01*
X0005290Y-0015380D02*
X0005790D01*
Y-0014880D02*
X0005290Y-0015380D01*
X0005790D02*
X0005290Y-0014880D01*
X0003400Y-0016140D02*
Y-0016640D01*
X0003900Y-0016140D02*
X0003400D01*
X0003900Y-0016640D02*
Y-0016140D01*
X0003400Y-0016640D02*
X0003900D01*
Y-0016140D02*
X0003400Y-0016640D01*
X0003900D02*
X0003400Y-0016140D01*
X0007860Y0001220D02*
Y0000720D01*
X0008360Y0001220D02*
X0007860D01*
X0008360Y0000720D02*
Y0001220D01*
X0007860Y0000720D02*
X0008360D01*
Y0001220D02*
X0007860Y0000720D01*
X0008360D02*
X0007860Y0001220D01*
X-0004714Y0004990D02*
Y0004490D01*
X-0004214Y0004990D02*
X-0004714D01*
X-0004214Y0004490D02*
Y0004990D01*
X-0004714Y0004490D02*
X-0004214D01*
Y0004990D02*
X-0004714Y0004490D01*
X-0004214D02*
X-0004714Y0004990D01*
X-0003370Y0002660D02*
Y0002160D01*
X-0002870Y0002660D02*
X-0003370D01*
X-0002870Y0002160D02*
Y0002660D01*
X-0003370Y0002160D02*
X-0002870D01*
Y0002660D02*
X-0003370Y0002160D01*
X-0002870D02*
X-0003370Y0002660D01*
X0003054Y0007723D02*
Y0007223D01*
X0003554Y0007723D02*
X0003054D01*
X0003554Y0007223D02*
Y0007723D01*
X0003054Y0007223D02*
X0003554D01*
Y0007723D02*
X0003054Y0007223D01*
X0003554D02*
X0003054Y0007723D01*
X0001090Y-0000520D02*
Y-0001020D01*
X0001590Y-0000520D02*
X0001090D01*
X0001590Y-0001020D02*
Y-0000520D01*
X0001090Y-0001020D02*
X0001590D01*
Y-0000520D02*
X0001090Y-0001020D01*
X0001590D02*
X0001090Y-0000520D01*
X-0003003Y-0000124D02*
Y-0000624D01*
X-0002503Y-0000124D02*
X-0003003D01*
X-0002503Y-0000624D02*
Y-0000124D01*
X-0003003Y-0000624D02*
X-0002503D01*
Y-0000124D02*
X-0003003Y-0000624D01*
X-0002503D02*
X-0003003Y-0000124D01*
X0001750Y0005760D02*
Y0005260D01*
X0002250Y0005760D02*
X0001750D01*
X0002250Y0005260D02*
Y0005760D01*
X0001750Y0005260D02*
X0002250D01*
Y0005760D02*
X0001750Y0005260D01*
X0002250D02*
X0001750Y0005760D01*
X0002346Y-0000517D02*
Y-0001017D01*
X0002846Y-0000517D02*
X0002346D01*
X0002846Y-0001017D02*
Y-0000517D01*
X0002346Y-0001017D02*
X0002846D01*
Y-0000517D02*
X0002346Y-0001017D01*
X0002846D02*
X0002346Y-0000517D01*
X0001402Y-0000124D02*
Y-0000624D01*
X0001902Y-0000124D02*
X0001402D01*
X0001902Y-0000624D02*
Y-0000124D01*
X0001402Y-0000624D02*
X0001902D01*
Y-0000124D02*
X0001402Y-0000624D01*
X0001902D02*
X0001402Y-0000124D01*
X0002031D02*
Y-0000624D01*
X0002531Y-0000124D02*
X0002031D01*
X0002531Y-0000624D02*
Y-0000124D01*
X0002031Y-0000624D02*
X0002531D01*
Y-0000124D02*
X0002031Y-0000624D01*
X0002531D02*
X0002031Y-0000124D01*
X-0003004Y0002513D02*
Y0002013D01*
X-0002504Y0002513D02*
X-0003004D01*
X-0002504Y0002013D02*
Y0002513D01*
X-0003004Y0002013D02*
X-0002504D01*
Y0002513D02*
X-0003004Y0002013D01*
X-0002504D02*
X-0003004Y0002513D01*
X0002661Y0004596D02*
Y0004096D01*
X0003161Y0004596D02*
X0002661D01*
X0003161Y0004096D02*
Y0004596D01*
X0002661Y0004096D02*
X0003161D01*
Y0004596D02*
X0002661Y0004096D01*
X0003161D02*
X0002661Y0004596D01*
X-0005324Y0002551D02*
Y0002051D01*
X-0004824Y0002551D02*
X-0005324D01*
X-0004824Y0002051D02*
Y0002551D01*
X-0005324Y0002051D02*
X-0004824D01*
Y0002551D02*
X-0005324Y0002051D01*
X-0004824D02*
X-0005324Y0002551D01*
X0002031Y0005580D02*
Y0005080D01*
X0002531Y0005580D02*
X0002031D01*
X0002531Y0005080D02*
Y0005580D01*
X0002031Y0005080D02*
X0002531D01*
Y0005580D02*
X0002031Y0005080D01*
X0002531D02*
X0002031Y0005580D01*
X-0002800Y-0018500D02*
Y-0019000D01*
X-0002300Y-0018500D02*
X-0002800D01*
X-0002300Y-0019000D02*
Y-0018500D01*
X-0002800Y-0019000D02*
X-0002300D01*
Y-0018500D02*
X-0002800Y-0019000D01*
X-0002300D02*
X-0002800Y-0018500D01*
X-0000486Y0000840D02*
Y0000340D01*
X0000014Y0000840D02*
X-0000486D01*
X0000014Y0000340D02*
Y0000840D01*
X-0000486Y0000340D02*
X0000014D01*
Y0000840D02*
X-0000486Y0000340D01*
X0000014D02*
X-0000486Y0000840D01*
X-0018710Y-0006370D02*
Y-0006870D01*
X-0018210Y-0006370D02*
X-0018710D01*
X-0018210Y-0006870D02*
Y-0006370D01*
X-0018710Y-0006870D02*
X-0018210D01*
Y-0006370D02*
X-0018710Y-0006870D01*
X-0018210D02*
X-0018710Y-0006370D01*
X0006299Y-0000537D02*
Y-0001037D01*
X0006799Y-0000537D02*
X0006299D01*
X0006799Y-0001037D02*
Y-0000537D01*
X0006299Y-0001037D02*
X0006799D01*
Y-0000537D02*
X0006299Y-0001037D01*
X0006799D02*
X0006299Y-0000537D01*
X0002661Y-0000124D02*
Y-0000624D01*
X0003161Y-0000124D02*
X0002661D01*
X0003161Y-0000624D02*
Y-0000124D01*
X0002661Y-0000624D02*
X0003161D01*
Y-0000124D02*
X0002661Y-0000624D01*
X0003161D02*
X0002661Y-0000124D01*
X0005976Y-0014038D02*
Y-0014538D01*
X0006476Y-0014038D02*
X0005976D01*
X0006476Y-0014538D02*
Y-0014038D01*
X0005976Y-0014538D02*
X0006476D01*
Y-0014038D02*
X0005976Y-0014538D01*
X0006476D02*
X0005976Y-0014038D01*
X0006920Y-0011140D02*
Y-0011640D01*
X0007420Y-0011140D02*
X0006920D01*
X0007420Y-0011640D02*
Y-0011140D01*
X0006920Y-0011640D02*
X0007420D01*
Y-0011140D02*
X0006920Y-0011640D01*
X0007420D02*
X0006920Y-0011140D01*
X-0005450Y0002860D02*
Y0002360D01*
X-0004950Y0002860D02*
X-0005450D01*
X-0004950Y0002360D02*
Y0002860D01*
X-0005450Y0002360D02*
X-0004950D01*
Y0002860D02*
X-0005450Y0002360D01*
X-0004950D02*
X-0005450Y0002860D01*
X-0000486Y-0000025D02*
Y-0000525D01*
X0000014Y-0000025D02*
X-0000486D01*
X0000014Y-0000525D02*
Y-0000025D01*
X-0000486Y-0000525D02*
X0000014D01*
Y-0000025D02*
X-0000486Y-0000525D01*
X0000014D02*
X-0000486Y-0000025D01*
X-0004330Y0002730D02*
Y0002230D01*
X-0003830Y0002730D02*
X-0004330D01*
X-0003830Y0002230D02*
Y0002730D01*
X-0004330Y0002230D02*
X-0003830D01*
Y0002730D02*
X-0004330Y0002230D01*
X-0003830D02*
X-0004330Y0002730D01*
X0002480Y0005160D02*
Y0004660D01*
X0002980Y0005160D02*
X0002480D01*
X0002980Y0004660D02*
Y0005160D01*
X0002480Y0004660D02*
X0002980D01*
Y0005160D02*
X0002480Y0004660D01*
X0002980D02*
X0002480Y0005160D01*
X-0000904Y-0018878D02*
Y-0019378D01*
X-0000404Y-0018878D02*
X-0000904D01*
X-0000404Y-0019378D02*
Y-0018878D01*
X-0000904Y-0019378D02*
X-0000404D01*
Y-0018878D02*
X-0000904Y-0019378D01*
X-0000404D02*
X-0000904Y-0018878D01*
X0000115Y-0003517D02*
Y-0004017D01*
X0000615Y-0003517D02*
X0000115D01*
X0000615Y-0004017D02*
Y-0003517D01*
X0000115Y-0004017D02*
X0000615D01*
Y-0003517D02*
X0000115Y-0004017D01*
X0000615D02*
X0000115Y-0003517D01*
X-0005750Y0002610D02*
Y0002110D01*
X-0005250Y0002610D02*
X-0005750D01*
X-0005250Y0002110D02*
Y0002610D01*
X-0005750Y0002110D02*
X-0005250D01*
Y0002610D02*
X-0005750Y0002110D01*
X-0005250D02*
X-0005750Y0002610D01*
X-0000486Y0000407D02*
Y-0000093D01*
X0000014Y0000407D02*
X-0000486D01*
X0000014Y-0000093D02*
Y0000407D01*
X-0000486Y-0000093D02*
X0000014D01*
Y0000407D02*
X-0000486Y-0000093D01*
X0000014D02*
X-0000486Y0000407D01*
X0001717Y-0000517D02*
Y-0001017D01*
X0002217Y-0000517D02*
X0001717D01*
X0002217Y-0001017D02*
Y-0000517D01*
X0001717Y-0001017D02*
X0002217D01*
Y-0000517D02*
X0001717Y-0001017D01*
X0002217D02*
X0001717Y-0000517D01*
X-0022975Y-0034084D02*
X-0023225Y-0034334D01*
X-0022725D02*
X-0022975Y-0034084D01*
X-0023225Y-0034334D02*
X-0022725D01*
X-0023225Y-0032484D02*
Y-0032984D01*
X-0022725Y-0032484D02*
X-0023225D01*
X-0022725Y-0032984D02*
Y-0032484D01*
X-0023225Y-0032984D02*
X-0022725D01*
Y-0032734D02*
X-0023225D01*
X-0022975Y-0032484D02*
Y-0032984D01*
X-0023225Y-0031134D02*
Y-0031334D01*
X-0022975Y-0031384D02*
X-0023225Y-0031134D01*
X-0022725D02*
X-0022975Y-0031384D01*
X-0022725Y-0031334D02*
Y-0031134D01*
X-0022975Y-0031084D02*
X-0022725Y-0031334D01*
X-0023225D02*
X-0022975Y-0031084D01*
Y-0029484D02*
X-0023225Y-0029734D01*
X-0022725D02*
X-0022975Y-0029484D01*
Y-0029984D02*
X-0022725Y-0029734D01*
X-0023225D02*
X-0022975Y-0029984D01*
X-0022725Y-0028234D02*
X-0023225D01*
X-0022975Y-0027984D02*
Y-0028484D01*
X-0022725Y-0026484D02*
X-0023225Y-0026984D01*
X-0022725D02*
X-0023225Y-0026484D01*
Y-0025134D02*
Y-0025334D01*
X-0023075Y-0024984D02*
X-0023225Y-0025134D01*
X-0022875Y-0024984D02*
X-0023075D01*
X-0022725Y-0025134D02*
X-0022875Y-0024984D01*
X-0022725Y-0025334D02*
Y-0025134D01*
X-0022875Y-0025484D02*
X-0022725Y-0025334D01*
X-0023075Y-0025484D02*
X-0022875D01*
X-0023225Y-0025334D02*
X-0023075Y-0025484D01*
X-0023225Y-0023484D02*
Y-0023734D01*
X-0022975Y-0023484D02*
X-0023225D01*
X-0022975Y-0023984D02*
Y-0023484D01*
X-0022725Y-0023984D02*
X-0022975D01*
X-0022725Y-0023734D02*
Y-0023984D01*
X-0023225Y-0023734D02*
X-0022725D01*
X-0023225Y-0021984D02*
Y-0022484D01*
X-0022725Y-0021984D02*
X-0023225D01*
X-0022725Y-0022484D02*
Y-0021984D01*
X-0023225Y-0022484D02*
X-0022725D01*
Y-0021984D02*
X-0023225Y-0022484D01*
X-0022725D02*
X-0023225Y-0021984D01*
X0012500Y-0037034D02*
X-0024850D01*
X0012450Y-0036984D02*
X-0024800D01*
X0012450Y-0034984D02*
X-0024800D01*
X0012450Y-0033484D02*
X-0024800D01*
X0012450Y-0031984D02*
X-0024800D01*
X0012450Y-0030484D02*
X-0024800D01*
X0012450Y-0028984D02*
X-0024800D01*
X0012450Y-0027484D02*
X-0024800D01*
X0012450Y-0025984D02*
X-0024800D01*
X0012450Y-0024484D02*
X-0024800D01*
X0012450Y-0022984D02*
X-0024800D01*
X0012450Y-0021484D02*
X-0024800D01*
X0012450Y-0021434D02*
X-0024800D01*
X0012450Y-0019484D02*
X-0024800D01*
X0012450Y-0019434D02*
X-0024800D01*
X0012450Y-0017484D02*
X-0024800D01*
X0012500Y-0017434D02*
X-0024850D01*
X0012500Y-0036984D02*
Y-0017484D01*
X0012450Y-0036984D02*
Y-0017484D01*
X0000909Y-0036984D02*
Y-0019484D01*
X-0004641Y-0036984D02*
Y-0019484D01*
X-0012708Y-0034984D02*
Y-0019484D01*
X-0021100Y-0034984D02*
Y-0019484D01*
X-0021150Y-0034984D02*
Y-0019484D01*
X-0024850Y-0036984D02*
Y-0017484D01*
X-0024800Y-0036984D02*
Y-0017484D01*
X0007588Y0008714D02*
Y0008214D01*
X0008088Y0008714D02*
X0007588D01*
X0008088Y0008214D02*
Y0008714D01*
X0007588Y0008214D02*
X0008088D01*
Y0008714D02*
X0007588Y0008214D01*
X0008088D02*
X0007588Y0008714D01*
X0007584Y0009076D02*
Y0008576D01*
X0008084Y0009076D02*
X0007584D01*
X0008084Y0008576D02*
Y0009076D01*
X0007584Y0008576D02*
X0008084D01*
Y0009076D02*
X0007584Y0008576D01*
X0008084D02*
X0007584Y0009076D01*
Y0009408D02*
Y0008908D01*
X0008084Y0009408D02*
X0007584D01*
X0008084Y0008908D02*
Y0009408D01*
X0007584Y0008908D02*
X0008084D01*
Y0009408D02*
X0007584Y0008908D01*
X0008084D02*
X0007584Y0009408D01*
Y0009746D02*
Y0009246D01*
X0008084Y0009746D02*
X0007584D01*
X0008084Y0009246D02*
Y0009746D01*
X0007584Y0009246D02*
X0008084D01*
Y0009746D02*
X0007584Y0009246D01*
X0008084D02*
X0007584Y0009746D01*
X0007586Y0010130D02*
Y0009630D01*
X0008086Y0010130D02*
X0007586D01*
X0008086Y0009630D02*
Y0010130D01*
X0007586Y0009630D02*
X0008086D01*
Y0010130D02*
X0007586Y0009630D01*
X0008086D02*
X0007586Y0010130D01*
X-0004879Y0004544D02*
Y0004044D01*
X-0004379Y0004544D02*
X-0004879D01*
X-0004379Y0004044D02*
Y0004544D01*
X-0004879Y0004044D02*
X-0004379D01*
Y0004544D02*
X-0004879Y0004044D01*
X-0004379D02*
X-0004879Y0004544D01*
X-0005444Y0006384D02*
Y0005884D01*
X-0004944Y0006384D02*
X-0005444D01*
X-0004944Y0005884D02*
Y0006384D01*
X-0005444Y0005884D02*
X-0004944D01*
Y0006384D02*
X-0005444Y0005884D01*
X-0004944D02*
X-0005444Y0006384D01*
X-0000506Y-0003520D02*
Y-0004020D01*
X-0000006Y-0003520D02*
X-0000506D01*
X-0000006Y-0004020D02*
Y-0003520D01*
X-0000506Y-0004020D02*
X-0000006D01*
Y-0003520D02*
X-0000506Y-0004020D01*
X-0000006D02*
X-0000506Y-0003520D01*
X0001146Y-0003538D02*
Y-0004038D01*
X0001646Y-0003538D02*
X0001146D01*
X0001646Y-0004038D02*
Y-0003538D01*
X0001146Y-0004038D02*
X0001646D01*
Y-0003538D02*
X0001146Y-0004038D01*
X0001646D02*
X0001146Y-0003538D01*
X-0001542Y0018840D02*
Y0018340D01*
X-0001042Y0018840D02*
X-0001542D01*
X-0001042Y0018340D02*
Y0018840D01*
X-0001542Y0018340D02*
X-0001042D01*
Y0018840D02*
X-0001542Y0018340D01*
X-0001042D02*
X-0001542Y0018840D01*
X0009422Y0016228D02*
Y0015728D01*
X0009922Y0016228D02*
X0009422D01*
X0009922Y0015728D02*
Y0016228D01*
X0009422Y0015728D02*
X0009922D01*
Y0016228D02*
X0009422Y0015728D01*
X0009922D02*
X0009422Y0016228D01*
X-0006926Y0015480D02*
Y0014980D01*
X-0006426Y0015480D02*
X-0006926D01*
X-0006426Y0014980D02*
Y0015480D01*
X-0006926Y0014980D02*
X-0006426D01*
Y0015480D02*
X-0006926Y0014980D01*
X-0006426D02*
X-0006926Y0015480D01*
X-0007302D02*
Y0014980D01*
X-0006802Y0015480D02*
X-0007302D01*
X-0006802Y0014980D02*
Y0015480D01*
X-0007302Y0014980D02*
X-0006802D01*
Y0015480D02*
X-0007302Y0014980D01*
X-0006802D02*
X-0007302Y0015480D01*
X-0007640D02*
Y0014980D01*
X-0007140Y0015480D02*
X-0007640D01*
X-0007140Y0014980D02*
Y0015480D01*
X-0007640Y0014980D02*
X-0007140D01*
Y0015480D02*
X-0007640Y0014980D01*
X-0007140D02*
X-0007640Y0015480D01*
X-0007986Y0015478D02*
Y0014978D01*
X-0007486Y0015478D02*
X-0007986D01*
X-0007486Y0014978D02*
Y0015478D01*
X-0007986Y0014978D02*
X-0007486D01*
Y0015478D02*
X-0007986Y0014978D01*
X-0007486D02*
X-0007986Y0015478D01*
X-0008174Y0015786D02*
Y0015286D01*
X-0007674Y0015786D02*
X-0008174D01*
X-0007674Y0015286D02*
Y0015786D01*
X-0008174Y0015286D02*
X-0007674D01*
Y0015786D02*
X-0008174Y0015286D01*
X-0007674D02*
X-0008174Y0015786D01*
X-0007812D02*
Y0015286D01*
X-0007312Y0015786D02*
X-0007812D01*
X-0007312Y0015286D02*
Y0015786D01*
X-0007812Y0015286D02*
X-0007312D01*
Y0015786D02*
X-0007812Y0015286D01*
X-0007312D02*
X-0007812Y0015786D01*
X-0007474D02*
Y0015286D01*
X-0006974Y0015786D02*
X-0007474D01*
X-0006974Y0015286D02*
Y0015786D01*
X-0007474Y0015286D02*
X-0006974D01*
Y0015786D02*
X-0007474Y0015286D01*
X-0006974D02*
X-0007474Y0015786D01*
X-0007100D02*
Y0015286D01*
X-0006600Y0015786D02*
X-0007100D01*
X-0006600Y0015286D02*
Y0015786D01*
X-0007100Y0015286D02*
X-0006600D01*
Y0015786D02*
X-0007100Y0015286D01*
X-0006600D02*
X-0007100Y0015786D01*
X-0008420Y0013908D02*
Y0013408D01*
X-0007920Y0013908D02*
X-0008420D01*
X-0007920Y0013408D02*
Y0013908D01*
X-0008420Y0013408D02*
X-0007920D01*
Y0013908D02*
X-0008420Y0013408D01*
X-0007920D02*
X-0008420Y0013908D01*
X-0017976Y0008578D02*
Y0008078D01*
X-0017476Y0008578D02*
X-0017976D01*
X-0017476Y0008078D02*
Y0008578D01*
X-0017976Y0008078D02*
X-0017476D01*
Y0008578D02*
X-0017976Y0008078D01*
X-0017476D02*
X-0017976Y0008578D01*
X0005358Y0014850D02*
Y0014350D01*
X0005858Y0014850D02*
X0005358D01*
X0005858Y0014350D02*
Y0014850D01*
X0005358Y0014350D02*
X0005858D01*
Y0014850D02*
X0005358Y0014350D01*
X0005858D02*
X0005358Y0014850D01*
X0005310Y0014450D02*
Y0013950D01*
X0005810Y0014450D02*
X0005310D01*
X0005810Y0013950D02*
Y0014450D01*
X0005310Y0013950D02*
X0005810D01*
Y0014450D02*
X0005310Y0013950D01*
X0005810D02*
X0005310Y0014450D01*
X0011156Y0018232D02*
Y0017732D01*
X0011656Y0018232D02*
X0011156D01*
X0011656Y0017732D02*
Y0018232D01*
X0011156Y0017732D02*
X0011656D01*
Y0018232D02*
X0011156Y0017732D01*
X0011656D02*
X0011156Y0018232D01*
X0011154Y0017404D02*
Y0016904D01*
X0011654Y0017404D02*
X0011154D01*
X0011654Y0016904D02*
Y0017404D01*
X0011154Y0016904D02*
X0011654D01*
Y0017404D02*
X0011154Y0016904D01*
X0011654D02*
X0011154Y0017404D01*
X0011732Y0017816D02*
Y0017316D01*
X0012232Y0017816D02*
X0011732D01*
X0012232Y0017316D02*
Y0017816D01*
X0011732Y0017316D02*
X0012232D01*
Y0017816D02*
X0011732Y0017316D01*
X0012232D02*
X0011732Y0017816D01*
X0008926Y0014892D02*
Y0014392D01*
X0009426Y0014892D02*
X0008926D01*
X0009426Y0014392D02*
Y0014892D01*
X0008926Y0014392D02*
X0009426D01*
Y0014892D02*
X0008926Y0014392D01*
X0009426D02*
X0008926Y0014892D01*
X0009988Y0013814D02*
Y0013314D01*
X0010488Y0013814D02*
X0009988D01*
X0010488Y0013314D02*
Y0013814D01*
X0009988Y0013314D02*
X0010488D01*
Y0013814D02*
X0009988Y0013314D01*
X0010488D02*
X0009988Y0013814D01*
X0005692Y0014926D02*
Y0014426D01*
X0006192Y0014926D02*
X0005692D01*
X0006192Y0014426D02*
Y0014926D01*
X0005692Y0014426D02*
X0006192D01*
Y0014926D02*
X0005692Y0014426D01*
X0006192D02*
X0005692Y0014926D01*
X0003402Y0018802D02*
Y0018302D01*
X0003902Y0018802D02*
X0003402D01*
X0003902Y0018302D02*
Y0018802D01*
X0003402Y0018302D02*
X0003902D01*
Y0018802D02*
X0003402Y0018302D01*
X0003902D02*
X0003402Y0018802D01*
X0009556Y0014874D02*
Y0014374D01*
X0010056Y0014874D02*
X0009556D01*
X0010056Y0014374D02*
Y0014874D01*
X0009556Y0014374D02*
X0010056D01*
Y0014874D02*
X0009556Y0014374D01*
X0010056D02*
X0009556Y0014874D01*
X-0009568Y0013514D02*
Y0013014D01*
X-0009068Y0013514D02*
X-0009568D01*
X-0009068Y0013014D02*
Y0013514D01*
X-0009568Y0013014D02*
X-0009068D01*
Y0013514D02*
X-0009568Y0013014D01*
X-0009068D02*
X-0009568Y0013514D01*
X0003219Y0021444D02*
Y0020944D01*
X0003719Y0021444D02*
X0003219D01*
X0003719Y0020944D02*
Y0021444D01*
X0003219Y0020944D02*
X0003719D01*
Y0021444D02*
X0003219Y0020944D01*
X0003719D02*
X0003219Y0021444D01*
X0003742Y0021827D02*
Y0021327D01*
X0004242Y0021827D02*
X0003742D01*
X0004242Y0021327D02*
Y0021827D01*
X0003742Y0021327D02*
X0004242D01*
Y0021827D02*
X0003742Y0021327D01*
X0004242D02*
X0003742Y0021827D01*
X0003348D02*
Y0021327D01*
X0003848Y0021827D02*
X0003348D01*
X0003848Y0021327D02*
Y0021827D01*
X0003348Y0021327D02*
X0003848D01*
Y0021827D02*
X0003348Y0021327D01*
X0003848D02*
X0003348Y0021827D01*
X0002954D02*
Y0021327D01*
X0003454Y0021827D02*
X0002954D01*
X0003454Y0021327D02*
Y0021827D01*
X0002954Y0021327D02*
X0003454D01*
Y0021827D02*
X0002954Y0021327D01*
X0003454D02*
X0002954Y0021827D01*
X0002561D02*
Y0021327D01*
X0003061Y0021827D02*
X0002561D01*
X0003061Y0021327D02*
Y0021827D01*
X0002561Y0021327D02*
X0003061D01*
Y0021827D02*
X0002561Y0021327D01*
X0003061D02*
X0002561Y0021827D01*
X0003545Y0021434D02*
Y0020934D01*
X0004045Y0021434D02*
X0003545D01*
X0004045Y0020934D02*
Y0021434D01*
X0003545Y0020934D02*
X0004045D01*
Y0021434D02*
X0003545Y0020934D01*
X0004045D02*
X0003545Y0021434D01*
X0001928Y0021484D02*
Y0020984D01*
X0002428Y0021484D02*
X0001928D01*
X0002428Y0020984D02*
Y0021484D01*
X0001928Y0020984D02*
X0002428D01*
Y0021484D02*
X0001928Y0020984D01*
X0002428D02*
X0001928Y0021484D01*
X0000842Y0018690D02*
Y0018190D01*
X0001342Y0018690D02*
X0000842D01*
X0001342Y0018190D02*
Y0018690D01*
X0000842Y0018190D02*
X0001342D01*
Y0018690D02*
X0000842Y0018190D01*
X0001342D02*
X0000842Y0018690D01*
X0002496Y0017894D02*
Y0017394D01*
X0002996Y0017894D02*
X0002496D01*
X0002996Y0017394D02*
Y0017894D01*
X0002496Y0017394D02*
X0002996D01*
Y0017894D02*
X0002496Y0017394D01*
X0002996D02*
X0002496Y0017894D01*
X0002336Y0018692D02*
Y0018192D01*
X0002836Y0018692D02*
X0002336D01*
X0002836Y0018192D02*
Y0018692D01*
X0002336Y0018192D02*
X0002836D01*
Y0018692D02*
X0002336Y0018192D01*
X0002836D02*
X0002336Y0018692D01*
X-0000436Y0018536D02*
Y0018036D01*
X0000064Y0018536D02*
X-0000436D01*
X0000064Y0018036D02*
Y0018536D01*
X-0000436Y0018036D02*
X0000064D01*
Y0018536D02*
X-0000436Y0018036D01*
X0000064D02*
X-0000436Y0018536D01*
X0005698Y0016290D02*
Y0015790D01*
X0006198Y0016290D02*
X0005698D01*
X0006198Y0015790D02*
Y0016290D01*
X0005698Y0015790D02*
X0006198D01*
Y0016290D02*
X0005698Y0015790D01*
X0006198D02*
X0005698Y0016290D01*
X0003796Y0016176D02*
Y0015676D01*
X0004296Y0016176D02*
X0003796D01*
X0004296Y0015676D02*
Y0016176D01*
X0003796Y0015676D02*
X0004296D01*
Y0016176D02*
X0003796Y0015676D01*
X0004296D02*
X0003796Y0016176D01*
X0001986Y0015224D02*
Y0014724D01*
X0002486Y0015224D02*
X0001986D01*
X0002486Y0014724D02*
Y0015224D01*
X0001986Y0014724D02*
X0002486D01*
Y0015224D02*
X0001986Y0014724D01*
X0002486D02*
X0001986Y0015224D01*
X-0010628Y-0008548D02*
Y-0009048D01*
X-0010128Y-0008548D02*
X-0010628D01*
X-0010128Y-0009048D02*
Y-0008548D01*
X-0010628Y-0009048D02*
X-0010128D01*
Y-0008548D02*
X-0010628Y-0009048D01*
X-0010128D02*
X-0010628Y-0008548D01*
X-0010342Y-0008246D02*
Y-0008746D01*
X-0009842Y-0008246D02*
X-0010342D01*
X-0009842Y-0008746D02*
Y-0008246D01*
X-0010342Y-0008746D02*
X-0009842D01*
Y-0008246D02*
X-0010342Y-0008746D01*
X-0009842D02*
X-0010342Y-0008246D01*
X-0011730Y-0008488D02*
Y-0008988D01*
X-0011230Y-0008488D02*
X-0011730D01*
X-0011230Y-0008988D02*
Y-0008488D01*
X-0011730Y-0008988D02*
X-0011230D01*
Y-0008488D02*
X-0011730Y-0008988D01*
X-0011230D02*
X-0011730Y-0008488D01*
X-0011976Y-0008244D02*
Y-0008744D01*
X-0011476Y-0008244D02*
X-0011976D01*
X-0011476Y-0008744D02*
Y-0008244D01*
X-0011976Y-0008744D02*
X-0011476D01*
Y-0008244D02*
X-0011976Y-0008744D01*
X-0011476D02*
X-0011976Y-0008244D01*
X-0006976Y-0009880D02*
Y-0010380D01*
X-0006476Y-0009880D02*
X-0006976D01*
X-0006476Y-0010380D02*
Y-0009880D01*
X-0006976Y-0010380D02*
X-0006476D01*
Y-0009880D02*
X-0006976Y-0010380D01*
X-0006476D02*
X-0006976Y-0009880D01*
X-0006912Y-0009548D02*
Y-0010048D01*
X-0006412Y-0009548D02*
X-0006912D01*
X-0006412Y-0010048D02*
Y-0009548D01*
X-0006912Y-0010048D02*
X-0006412D01*
Y-0009548D02*
X-0006912Y-0010048D01*
X-0006412D02*
X-0006912Y-0009548D01*
X-0010726Y-0007770D02*
Y-0008270D01*
X-0010226Y-0007770D02*
X-0010726D01*
X-0010226Y-0008270D02*
Y-0007770D01*
X-0010726Y-0008270D02*
X-0010226D01*
Y-0007770D02*
X-0010726Y-0008270D01*
X-0010226D02*
X-0010726Y-0007770D01*
X0013094Y0008488D02*
Y0007988D01*
X0013594Y0008488D02*
X0013094D01*
X0013594Y0007988D02*
Y0008488D01*
X0013094Y0007988D02*
X0013594D01*
Y0008488D02*
X0013094Y0007988D01*
X0013594D02*
X0013094Y0008488D01*
X0015875Y0000949D02*
Y0000449D01*
X0016375Y0000949D02*
X0015875D01*
X0016375Y0000449D02*
Y0000949D01*
X0015875Y0000449D02*
X0016375D01*
Y0000949D02*
X0015875Y0000449D01*
X0016375D02*
X0015875Y0000949D01*
X0010118Y0007238D02*
Y0006738D01*
X0010618Y0007238D02*
X0010118D01*
X0010618Y0006738D02*
Y0007238D01*
X0010118Y0006738D02*
X0010618D01*
Y0007238D02*
X0010118Y0006738D01*
X0010618D02*
X0010118Y0007238D01*
X0015722Y0003142D02*
Y0002642D01*
X0016222Y0003142D02*
X0015722D01*
X0016222Y0002642D02*
Y0003142D01*
X0015722Y0002642D02*
X0016222D01*
Y0003142D02*
X0015722Y0002642D01*
X0016222D02*
X0015722Y0003142D01*
X0013072Y0004710D02*
Y0004210D01*
X0013572Y0004710D02*
X0013072D01*
X0013572Y0004210D02*
Y0004710D01*
X0013072Y0004210D02*
X0013572D01*
Y0004710D02*
X0013072Y0004210D01*
X0013572D02*
X0013072Y0004710D01*
X0010487Y0007707D02*
Y0007207D01*
X0010987Y0007707D02*
X0010487D01*
X0010987Y0007207D02*
Y0007707D01*
X0010487Y0007207D02*
X0010987D01*
Y0007707D02*
X0010487Y0007207D01*
X0010987D02*
X0010487Y0007707D01*
X0009857Y0007701D02*
Y0007201D01*
X0010357Y0007701D02*
X0009857D01*
X0010357Y0007201D02*
Y0007701D01*
X0009857Y0007201D02*
X0010357D01*
Y0007701D02*
X0009857Y0007201D01*
X0010357D02*
X0009857Y0007701D01*
X-0009872Y-0012440D02*
Y-0012940D01*
X-0009372Y-0012440D02*
X-0009872D01*
X-0009372Y-0012940D02*
Y-0012440D01*
X-0009872Y-0012940D02*
X-0009372D01*
Y-0012440D02*
X-0009872Y-0012940D01*
X-0009372D02*
X-0009872Y-0012440D01*
X-0008558Y-0012714D02*
Y-0013214D01*
X-0008058Y-0012714D02*
X-0008558D01*
X-0008058Y-0013214D02*
Y-0012714D01*
X-0008558Y-0013214D02*
X-0008058D01*
Y-0012714D02*
X-0008558Y-0013214D01*
X-0008058D02*
X-0008558Y-0012714D01*
X-0015044Y-0006976D02*
Y-0007476D01*
X-0014544Y-0006976D02*
X-0015044D01*
X-0014544Y-0007476D02*
Y-0006976D01*
X-0015044Y-0007476D02*
X-0014544D01*
Y-0006976D02*
X-0015044Y-0007476D01*
X-0014544D02*
X-0015044Y-0006976D01*
X-0012568Y-0011350D02*
Y-0011850D01*
X-0012068Y-0011350D02*
X-0012568D01*
X-0012068Y-0011850D02*
Y-0011350D01*
X-0012568Y-0011850D02*
X-0012068D01*
Y-0011350D02*
X-0012568Y-0011850D01*
X-0012068D02*
X-0012568Y-0011350D01*
X-0013950Y-0008906D02*
Y-0009406D01*
X-0013450Y-0008906D02*
X-0013950D01*
X-0013450Y-0009406D02*
Y-0008906D01*
X-0013950Y-0009406D02*
X-0013450D01*
Y-0008906D02*
X-0013950Y-0009406D01*
X-0013450D02*
X-0013950Y-0008906D01*
X-0014768Y-0009214D02*
Y-0009714D01*
X-0014268Y-0009214D02*
X-0014768D01*
X-0014268Y-0009714D02*
Y-0009214D01*
X-0014768Y-0009714D02*
X-0014268D01*
Y-0009214D02*
X-0014768Y-0009714D01*
X-0014268D02*
X-0014768Y-0009214D01*
X-0011854Y-0009618D02*
Y-0010118D01*
X-0011354Y-0009618D02*
X-0011854D01*
X-0011354Y-0010118D02*
Y-0009618D01*
X-0011854Y-0010118D02*
X-0011354D01*
Y-0009618D02*
X-0011854Y-0010118D01*
X-0011354D02*
X-0011854Y-0009618D01*
X-0013019Y-0011285D02*
Y-0011785D01*
X-0012519Y-0011285D02*
X-0013019D01*
X-0012519Y-0011785D02*
Y-0011285D01*
X-0013019Y-0011785D02*
X-0012519D01*
Y-0011285D02*
X-0013019Y-0011785D01*
X-0012519D02*
X-0013019Y-0011285D01*
X-0006091Y-0008118D02*
Y-0008618D01*
X-0005591Y-0008118D02*
X-0006091D01*
X-0005591Y-0008618D02*
Y-0008118D01*
X-0006091Y-0008618D02*
X-0005591D01*
Y-0008118D02*
X-0006091Y-0008618D01*
X-0005591D02*
X-0006091Y-0008118D01*
X-0012118Y-0015720D02*
Y-0016220D01*
X-0011618Y-0015720D02*
X-0012118D01*
X-0011618Y-0016220D02*
Y-0015720D01*
X-0012118Y-0016220D02*
X-0011618D01*
Y-0015720D02*
X-0012118Y-0016220D01*
X-0011618D02*
X-0012118Y-0015720D01*
X-0008092Y0016794D02*
Y0016294D01*
X-0007592Y0016794D02*
X-0008092D01*
X-0007592Y0016294D02*
Y0016794D01*
X-0008092Y0016294D02*
X-0007592D01*
Y0016794D02*
X-0008092Y0016294D01*
X-0007592D02*
X-0008092Y0016794D01*
X-0007760Y0016800D02*
Y0016300D01*
X-0007260Y0016800D02*
X-0007760D01*
X-0007260Y0016300D02*
Y0016800D01*
X-0007760Y0016300D02*
X-0007260D01*
Y0016800D02*
X-0007760Y0016300D01*
X-0007260D02*
X-0007760Y0016800D01*
X-0007436Y0016794D02*
Y0016294D01*
X-0006936Y0016794D02*
X-0007436D01*
X-0006936Y0016294D02*
Y0016794D01*
X-0007436Y0016294D02*
X-0006936D01*
Y0016794D02*
X-0007436Y0016294D01*
X-0006936D02*
X-0007436Y0016794D01*
X-0007120D02*
Y0016294D01*
X-0006620Y0016794D02*
X-0007120D01*
X-0006620Y0016294D02*
Y0016794D01*
X-0007120Y0016294D02*
X-0006620D01*
Y0016794D02*
X-0007120Y0016294D01*
X-0006620D02*
X-0007120Y0016794D01*
X0009206Y0012650D02*
Y0012150D01*
X0009706Y0012650D02*
X0009206D01*
X0009706Y0012150D02*
Y0012650D01*
X0009206Y0012150D02*
X0009706D01*
Y0012650D02*
X0009206Y0012150D01*
X0009706D02*
X0009206Y0012650D01*
X-0021432Y-0000732D02*
Y-0001232D01*
X-0020932Y-0000732D02*
X-0021432D01*
X-0020932Y-0001232D02*
Y-0000732D01*
X-0021432Y-0001232D02*
X-0020932D01*
Y-0000732D02*
X-0021432Y-0001232D01*
X-0020932D02*
X-0021432Y-0000732D01*
X0009458Y-0013954D02*
Y-0014454D01*
X0009958Y-0013954D02*
X0009458D01*
X0009958Y-0014454D02*
Y-0013954D01*
X0009458Y-0014454D02*
X0009958D01*
Y-0013954D02*
X0009458Y-0014454D01*
X0009958D02*
X0009458Y-0013954D01*
X0007774Y-0015170D02*
Y-0015670D01*
X0008274Y-0015170D02*
X0007774D01*
X0008274Y-0015670D02*
Y-0015170D01*
X0007774Y-0015670D02*
X0008274D01*
Y-0015170D02*
X0007774Y-0015670D01*
X0008274D02*
X0007774Y-0015170D01*
X0006984Y-0015700D02*
Y-0016200D01*
X0007484Y-0015700D02*
X0006984D01*
X0007484Y-0016200D02*
Y-0015700D01*
X0006984Y-0016200D02*
X0007484D01*
Y-0015700D02*
X0006984Y-0016200D01*
X0007484D02*
X0006984Y-0015700D01*
X0000342Y-0014978D02*
Y-0015478D01*
X0000842Y-0014978D02*
X0000342D01*
X0000842Y-0015478D02*
Y-0014978D01*
X0000342Y-0015478D02*
X0000842D01*
Y-0014978D02*
X0000342Y-0015478D01*
X0000842D02*
X0000342Y-0014978D01*
X0004994Y-0012348D02*
Y-0012848D01*
X0005494Y-0012348D02*
X0004994D01*
X0005494Y-0012848D02*
Y-0012348D01*
X0004994Y-0012848D02*
X0005494D01*
Y-0012348D02*
X0004994Y-0012848D01*
X0005494D02*
X0004994Y-0012348D01*
X0005028Y-0012680D02*
Y-0013180D01*
X0005528Y-0012680D02*
X0005028D01*
X0005528Y-0013180D02*
Y-0012680D01*
X0005028Y-0013180D02*
X0005528D01*
Y-0012680D02*
X0005028Y-0013180D01*
X0005528D02*
X0005028Y-0012680D01*
X0004972Y-0014232D02*
Y-0014732D01*
X0005472Y-0014232D02*
X0004972D01*
X0005472Y-0014732D02*
Y-0014232D01*
X0004972Y-0014732D02*
X0005472D01*
Y-0014232D02*
X0004972Y-0014732D01*
X0005472D02*
X0004972Y-0014232D01*
X0004720Y-0013828D02*
Y-0014328D01*
X0005220Y-0013828D02*
X0004720D01*
X0005220Y-0014328D02*
Y-0013828D01*
X0004720Y-0014328D02*
X0005220D01*
Y-0013828D02*
X0004720Y-0014328D01*
X0005220D02*
X0004720Y-0013828D01*
X0010144Y-0012172D02*
Y-0012672D01*
X0010644Y-0012172D02*
X0010144D01*
X0010644Y-0012672D02*
Y-0012172D01*
X0010144Y-0012672D02*
X0010644D01*
Y-0012172D02*
X0010144Y-0012672D01*
X0010644D02*
X0010144Y-0012172D01*
X0006312Y-0012166D02*
Y-0012666D01*
X0006812Y-0012166D02*
X0006312D01*
X0006812Y-0012666D02*
Y-0012166D01*
X0006312Y-0012666D02*
X0006812D01*
Y-0012166D02*
X0006312Y-0012666D01*
X0006812D02*
X0006312Y-0012166D01*
X-0010870Y0013588D02*
Y0013088D01*
X-0010370Y0013588D02*
X-0010870D01*
X-0010370Y0013088D02*
Y0013588D01*
X-0010870Y0013088D02*
X-0010370D01*
Y0013588D02*
X-0010870Y0013088D01*
X-0010370D02*
X-0010870Y0013588D01*
X-0012076Y0012666D02*
Y0012166D01*
X-0011576Y0012666D02*
X-0012076D01*
X-0011576Y0012166D02*
Y0012666D01*
X-0012076Y0012166D02*
X-0011576D01*
Y0012666D02*
X-0012076Y0012166D01*
X-0011576D02*
X-0012076Y0012666D01*
X-0015490Y0006956D02*
Y0006456D01*
X-0014990Y0006956D02*
X-0015490D01*
X-0014990Y0006456D02*
Y0006956D01*
X-0015490Y0006456D02*
X-0014990D01*
Y0006956D02*
X-0015490Y0006456D01*
X-0014990D02*
X-0015490Y0006956D01*
X-0019616Y0005050D02*
Y0004550D01*
X-0019116Y0005050D02*
X-0019616D01*
X-0019116Y0004550D02*
Y0005050D01*
X-0019616Y0004550D02*
X-0019116D01*
Y0005050D02*
X-0019616Y0004550D01*
X-0019116D02*
X-0019616Y0005050D01*
X0005564Y-0012162D02*
Y-0012662D01*
X0006064Y-0012162D02*
X0005564D01*
X0006064Y-0012662D02*
Y-0012162D01*
X0005564Y-0012662D02*
X0006064D01*
Y-0012162D02*
X0005564Y-0012662D01*
X0006064D02*
X0005564Y-0012162D01*
X-0011488Y-0005856D02*
Y-0006356D01*
X-0010988Y-0005856D02*
X-0011488D01*
X-0010988Y-0006356D02*
Y-0005856D01*
X-0011488Y-0006356D02*
X-0010988D01*
Y-0005856D02*
X-0011488Y-0006356D01*
X-0010988D02*
X-0011488Y-0005856D01*
X-0002993Y-0015271D02*
Y-0015771D01*
X-0002493Y-0015271D02*
X-0002993D01*
X-0002493Y-0015771D02*
Y-0015271D01*
X-0002993Y-0015771D02*
X-0002493D01*
Y-0015271D02*
X-0002993Y-0015771D01*
X-0002493D02*
X-0002993Y-0015271D01*
X0006386Y-0015514D02*
Y-0016014D01*
X0006886Y-0015514D02*
X0006386D01*
X0006886Y-0016014D02*
Y-0015514D01*
X0006386Y-0016014D02*
X0006886D01*
Y-0015514D02*
X0006386Y-0016014D01*
X0006886D02*
X0006386Y-0015514D01*
X0004232Y-0015620D02*
Y-0016120D01*
X0004732Y-0015620D02*
X0004232D01*
X0004732Y-0016120D02*
Y-0015620D01*
X0004232Y-0016120D02*
X0004732D01*
Y-0015620D02*
X0004232Y-0016120D01*
X0004732D02*
X0004232Y-0015620D01*
X0005128Y-0016684D02*
Y-0017184D01*
X0005628Y-0016684D02*
X0005128D01*
X0005628Y-0017184D02*
Y-0016684D01*
X0005128Y-0017184D02*
X0005628D01*
Y-0016684D02*
X0005128Y-0017184D01*
X0005628D02*
X0005128Y-0016684D01*
X-0010200Y-0014304D02*
Y-0014804D01*
X-0009700Y-0014304D02*
X-0010200D01*
X-0009700Y-0014804D02*
Y-0014304D01*
X-0010200Y-0014804D02*
X-0009700D01*
Y-0014304D02*
X-0010200Y-0014804D01*
X-0009700D02*
X-0010200Y-0014304D01*
X-0014676Y-0012136D02*
Y-0012636D01*
X-0014176Y-0012136D02*
X-0014676D01*
X-0014176Y-0012636D02*
Y-0012136D01*
X-0014676Y-0012636D02*
X-0014176D01*
Y-0012136D02*
X-0014676Y-0012636D01*
X-0014176D02*
X-0014676Y-0012136D01*
X0005412Y-0015824D02*
Y-0016324D01*
X0005912Y-0015824D02*
X0005412D01*
X0005912Y-0016324D02*
Y-0015824D01*
X0005412Y-0016324D02*
X0005912D01*
Y-0015824D02*
X0005412Y-0016324D01*
X0005912D02*
X0005412Y-0015824D01*
X0006682Y-0017842D02*
Y-0018342D01*
X0007182Y-0017842D02*
X0006682D01*
X0007182Y-0018342D02*
Y-0017842D01*
X0006682Y-0018342D02*
X0007182D01*
Y-0017842D02*
X0006682Y-0018342D01*
X0007182D02*
X0006682Y-0017842D01*
X0015154Y-0011584D02*
Y-0012084D01*
X0015654Y-0011584D02*
X0015154D01*
X0015654Y-0012084D02*
Y-0011584D01*
X0015154Y-0012084D02*
X0015654D01*
Y-0011584D02*
X0015154Y-0012084D01*
X0015654D02*
X0015154Y-0011584D01*
X0019486Y0005130D02*
Y0004630D01*
X0019986Y0005130D02*
X0019486D01*
X0019986Y0004630D02*
Y0005130D01*
X0019486Y0004630D02*
X0019986D01*
Y0005130D02*
X0019486Y0004630D01*
X0019986D02*
X0019486Y0005130D01*
X-0015620Y0011922D02*
Y0011422D01*
X-0015120Y0011922D02*
X-0015620D01*
X-0015120Y0011422D02*
Y0011922D01*
X-0015620Y0011422D02*
X-0015120D01*
Y0011922D02*
X-0015620Y0011422D01*
X-0015120D02*
X-0015620Y0011922D01*
X0015950Y0010782D02*
Y0010282D01*
X0016450Y0010782D02*
X0015950D01*
X0016450Y0010282D02*
Y0010782D01*
X0015950Y0010282D02*
X0016450D01*
Y0010782D02*
X0015950Y0010282D01*
X0016450D02*
X0015950Y0010782D01*
X0017546Y-0008142D02*
Y-0008642D01*
X0018046Y-0008142D02*
X0017546D01*
X0018046Y-0008642D02*
Y-0008142D01*
X0017546Y-0008642D02*
X0018046D01*
Y-0008142D02*
X0017546Y-0008642D01*
X0018046D02*
X0017546Y-0008142D01*
X0007488Y-0012312D02*
Y-0012812D01*
X0007988Y-0012312D02*
X0007488D01*
X0007988Y-0012812D02*
Y-0012312D01*
X0007488Y-0012812D02*
X0007988D01*
Y-0012312D02*
X0007488Y-0012812D01*
X0007988D02*
X0007488Y-0012312D01*
X0007552Y-0016714D02*
Y-0017214D01*
X0008052Y-0016714D02*
X0007552D01*
X0008052Y-0017214D02*
Y-0016714D01*
X0007552Y-0017214D02*
X0008052D01*
Y-0016714D02*
X0007552Y-0017214D01*
X0008052D02*
X0007552Y-0016714D01*
X0006212Y-0017788D02*
Y-0018288D01*
X0006712Y-0017788D02*
X0006212D01*
X0006712Y-0018288D02*
Y-0017788D01*
X0006212Y-0018288D02*
X0006712D01*
Y-0017788D02*
X0006212Y-0018288D01*
X0006712D02*
X0006212Y-0017788D01*
X0008926Y-0015824D02*
Y-0016324D01*
X0009426Y-0015824D02*
X0008926D01*
X0009426Y-0016324D02*
Y-0015824D01*
X0008926Y-0016324D02*
X0009426D01*
Y-0015824D02*
X0008926Y-0016324D01*
X0009426D02*
X0008926Y-0015824D01*
Y-0015194D02*
Y-0015694D01*
X0009426Y-0015194D02*
X0008926D01*
X0009426Y-0015694D02*
Y-0015194D01*
X0008926Y-0015694D02*
X0009426D01*
Y-0015194D02*
X0008926Y-0015694D01*
X0009426D02*
X0008926Y-0015194D01*
X0009128Y-0015514D02*
Y-0016014D01*
X0009628Y-0015514D02*
X0009128D01*
X0009628Y-0016014D02*
Y-0015514D01*
X0009128Y-0016014D02*
X0009628D01*
Y-0015514D02*
X0009128Y-0016014D01*
X0009628D02*
X0009128Y-0015514D01*
X0009122Y-0014884D02*
Y-0015384D01*
X0009622Y-0014884D02*
X0009122D01*
X0009622Y-0015384D02*
Y-0014884D01*
X0009122Y-0015384D02*
X0009622D01*
Y-0014884D02*
X0009122Y-0015384D01*
X0009622D02*
X0009122Y-0014884D01*
X0007940Y-0017636D02*
Y-0018136D01*
X0008440Y-0017636D02*
X0007940D01*
X0008440Y-0018136D02*
Y-0017636D01*
X0007940Y-0018136D02*
X0008440D01*
Y-0017636D02*
X0007940Y-0018136D01*
X0008440D02*
X0007940Y-0017636D01*
X-0001732Y-0017044D02*
Y-0017544D01*
X-0001232Y-0017044D02*
X-0001732D01*
X-0001232Y-0017544D02*
Y-0017044D01*
X-0001732Y-0017544D02*
X-0001232D01*
Y-0017044D02*
X-0001732Y-0017544D01*
X-0001232D02*
X-0001732Y-0017044D01*
X-0011214Y-0013624D02*
Y-0014124D01*
X-0010714Y-0013624D02*
X-0011214D01*
X-0010714Y-0014124D02*
Y-0013624D01*
X-0011214Y-0014124D02*
X-0010714D01*
Y-0013624D02*
X-0011214Y-0014124D01*
X-0010714D02*
X-0011214Y-0013624D01*
X-0011472Y-0007262D02*
Y-0007762D01*
X-0010972Y-0007262D02*
X-0011472D01*
X-0010972Y-0007762D02*
Y-0007262D01*
X-0011472Y-0007762D02*
X-0010972D01*
Y-0007262D02*
X-0011472Y-0007762D01*
X-0010972D02*
X-0011472Y-0007262D01*
X-0010808Y-0013836D02*
Y-0014336D01*
X-0010308Y-0013836D02*
X-0010808D01*
X-0010308Y-0014336D02*
Y-0013836D01*
X-0010808Y-0014336D02*
X-0010308D01*
Y-0013836D02*
X-0010808Y-0014336D01*
X-0010308D02*
X-0010808Y-0013836D01*
X0008976Y-0011764D02*
Y-0012264D01*
X0009476Y-0011764D02*
X0008976D01*
X0009476Y-0012264D02*
Y-0011764D01*
X0008976Y-0012264D02*
X0009476D01*
Y-0011764D02*
X0008976Y-0012264D01*
X0009476D02*
X0008976Y-0011764D01*
X0006930Y-0013026D02*
Y-0013526D01*
X0007430Y-0013026D02*
X0006930D01*
X0007430Y-0013526D02*
Y-0013026D01*
X0006930Y-0013526D02*
X0007430D01*
Y-0013026D02*
X0006930Y-0013526D01*
X0007430D02*
X0006930Y-0013026D01*
X0007160Y-0010806D02*
Y-0011306D01*
X0007660Y-0010806D02*
X0007160D01*
X0007660Y-0011306D02*
Y-0010806D01*
X0007160Y-0011306D02*
X0007660D01*
Y-0010806D02*
X0007160Y-0011306D01*
X0007660D02*
X0007160Y-0010806D01*
X-0002424Y-0017416D02*
Y-0017916D01*
X-0001924Y-0017416D02*
X-0002424D01*
X-0001924Y-0017916D02*
Y-0017416D01*
X-0002424Y-0017916D02*
X-0001924D01*
Y-0017416D02*
X-0002424Y-0017916D01*
X-0001924D02*
X-0002424Y-0017416D01*
X-0003526Y-0019658D02*
Y-0020158D01*
X-0003026Y-0019658D02*
X-0003526D01*
X-0003026Y-0020158D02*
Y-0019658D01*
X-0003526Y-0020158D02*
X-0003026D01*
Y-0019658D02*
X-0003526Y-0020158D01*
X-0003026D02*
X-0003526Y-0019658D01*
X-0010218Y-0015604D02*
Y-0016104D01*
X-0009718Y-0015604D02*
X-0010218D01*
X-0009718Y-0016104D02*
Y-0015604D01*
X-0010218Y-0016104D02*
X-0009718D01*
Y-0015604D02*
X-0010218Y-0016104D01*
X-0009718D02*
X-0010218Y-0015604D01*
X-0011270Y-0016654D02*
Y-0017154D01*
X-0010770Y-0016654D02*
X-0011270D01*
X-0010770Y-0017154D02*
Y-0016654D01*
X-0011270Y-0017154D02*
X-0010770D01*
Y-0016654D02*
X-0011270Y-0017154D01*
X-0010770D02*
X-0011270Y-0016654D01*
X0011874Y-0016510D02*
Y-0017010D01*
X0012374Y-0016510D02*
X0011874D01*
X0012374Y-0017010D02*
Y-0016510D01*
X0011874Y-0017010D02*
X0012374D01*
Y-0016510D02*
X0011874Y-0017010D01*
X0012374D02*
X0011874Y-0016510D01*
X-0001330Y-0017894D02*
Y-0018394D01*
X-0000830Y-0017894D02*
X-0001330D01*
X-0000830Y-0018394D02*
Y-0017894D01*
X-0001330Y-0018394D02*
X-0000830D01*
Y-0017894D02*
X-0001330Y-0018394D01*
X-0000830D02*
X-0001330Y-0017894D01*
X0007550Y-0012806D02*
Y-0013306D01*
X0008050Y-0012806D02*
X0007550D01*
X0008050Y-0013306D02*
Y-0012806D01*
X0007550Y-0013306D02*
X0008050D01*
Y-0012806D02*
X0007550Y-0013306D01*
X0008050D02*
X0007550Y-0012806D01*
X0009032Y-0013198D02*
Y-0013698D01*
X0009532Y-0013198D02*
X0009032D01*
X0009532Y-0013698D02*
Y-0013198D01*
X0009032Y-0013698D02*
X0009532D01*
Y-0013198D02*
X0009032Y-0013698D01*
X0009532D02*
X0009032Y-0013198D01*
X0008496Y-0012830D02*
Y-0013330D01*
X0008996Y-0012830D02*
X0008496D01*
X0008996Y-0013330D02*
Y-0012830D01*
X0008496Y-0013330D02*
X0008996D01*
Y-0012830D02*
X0008496Y-0013330D01*
X0008996D02*
X0008496Y-0012830D01*
X0011400Y-0013090D02*
Y-0013590D01*
X0011900Y-0013090D02*
X0011400D01*
X0011900Y-0013590D02*
Y-0013090D01*
X0011400Y-0013590D02*
X0011900D01*
Y-0013090D02*
X0011400Y-0013590D01*
X0011900D02*
X0011400Y-0013090D01*
X0011408Y-0015250D02*
Y-0015750D01*
X0011908Y-0015250D02*
X0011408D01*
X0011908Y-0015750D02*
Y-0015250D01*
X0011408Y-0015750D02*
X0011908D01*
Y-0015250D02*
X0011408Y-0015750D01*
X0011908D02*
X0011408Y-0015250D01*
X0011416Y-0013894D02*
Y-0014394D01*
X0011916Y-0013894D02*
X0011416D01*
X0011916Y-0014394D02*
Y-0013894D01*
X0011416Y-0014394D02*
X0011916D01*
Y-0013894D02*
X0011416Y-0014394D01*
X0011916D02*
X0011416Y-0013894D01*
X0011436Y-0012530D02*
Y-0013030D01*
X0011936Y-0012530D02*
X0011436D01*
X0011936Y-0013030D02*
Y-0012530D01*
X0011436Y-0013030D02*
X0011936D01*
Y-0012530D02*
X0011436Y-0013030D01*
X0011936D02*
X0011436Y-0012530D01*
X0018008Y-0002782D02*
Y-0003282D01*
X0018508Y-0002782D02*
X0018008D01*
X0018508Y-0003282D02*
Y-0002782D01*
X0018008Y-0003282D02*
X0018508D01*
Y-0002782D02*
X0018008Y-0003282D01*
X0018508D02*
X0018008Y-0002782D01*
X0017804Y-0000894D02*
Y-0001394D01*
X0018304Y-0000894D02*
X0017804D01*
X0018304Y-0001394D02*
Y-0000894D01*
X0017804Y-0001394D02*
X0018304D01*
Y-0000894D02*
X0017804Y-0001394D01*
X0018304D02*
X0017804Y-0000894D01*
X0017106Y-0000144D02*
Y-0000644D01*
X0017606Y-0000144D02*
X0017106D01*
X0017606Y-0000644D02*
Y-0000144D01*
X0017106Y-0000644D02*
X0017606D01*
Y-0000144D02*
X0017106Y-0000644D01*
X0017606D02*
X0017106Y-0000144D01*
X0017154Y0003806D02*
Y0003306D01*
X0017654Y0003806D02*
X0017154D01*
X0017654Y0003306D02*
Y0003806D01*
X0017154Y0003306D02*
X0017654D01*
Y0003806D02*
X0017154Y0003306D01*
X0017654D02*
X0017154Y0003806D01*
X0017610Y-0000196D02*
Y-0000696D01*
X0018110Y-0000196D02*
X0017610D01*
X0018110Y-0000696D02*
Y-0000196D01*
X0017610Y-0000696D02*
X0018110D01*
Y-0000196D02*
X0017610Y-0000696D01*
X0018110D02*
X0017610Y-0000196D01*
X0012234Y-0015248D02*
Y-0015748D01*
X0012734Y-0015248D02*
X0012234D01*
X0012734Y-0015748D02*
Y-0015248D01*
X0012234Y-0015748D02*
X0012734D01*
Y-0015248D02*
X0012234Y-0015748D01*
X0012734D02*
X0012234Y-0015248D01*
X0016932Y0005120D02*
Y0004620D01*
X0017432Y0005120D02*
X0016932D01*
X0017432Y0004620D02*
Y0005120D01*
X0016932Y0004620D02*
X0017432D01*
Y0005120D02*
X0016932Y0004620D01*
X0017432D02*
X0016932Y0005120D01*
X0013902Y0014918D02*
Y0014418D01*
X0014402Y0014918D02*
X0013902D01*
X0014402Y0014418D02*
Y0014918D01*
X0013902Y0014418D02*
X0014402D01*
Y0014918D02*
X0013902Y0014418D01*
X0014402D02*
X0013902Y0014918D01*
X0009580Y0016788D02*
Y0016288D01*
X0010080Y0016788D02*
X0009580D01*
X0010080Y0016288D02*
Y0016788D01*
X0009580Y0016288D02*
X0010080D01*
Y0016788D02*
X0009580Y0016288D01*
X0010080D02*
X0009580Y0016788D01*
X0010656Y0014134D02*
Y0013634D01*
X0011156Y0014134D02*
X0010656D01*
X0011156Y0013634D02*
Y0014134D01*
X0010656Y0013634D02*
X0011156D01*
Y0014134D02*
X0010656Y0013634D01*
X0011156D02*
X0010656Y0014134D01*
X0017220Y-0001396D02*
Y-0001896D01*
X0017720Y-0001396D02*
X0017220D01*
X0017720Y-0001896D02*
Y-0001396D01*
X0017220Y-0001896D02*
X0017720D01*
Y-0001396D02*
X0017220Y-0001896D01*
X0017720D02*
X0017220Y-0001396D01*
X0009988Y0012606D02*
Y0012106D01*
X0010488Y0012606D02*
X0009988D01*
X0010488Y0012106D02*
Y0012606D01*
X0009988Y0012106D02*
X0010488D01*
Y0012606D02*
X0009988Y0012106D01*
X0010488D02*
X0009988Y0012606D01*
X-0001112Y0017540D02*
Y0017040D01*
X-0000612Y0017540D02*
X-0001112D01*
X-0000612Y0017040D02*
Y0017540D01*
X-0001112Y0017040D02*
X-0000612D01*
Y0017540D02*
X-0001112Y0017040D01*
X-0000612D02*
X-0001112Y0017540D01*
X0000308Y0017508D02*
Y0017008D01*
X0000808Y0017508D02*
X0000308D01*
X0000808Y0017008D02*
Y0017508D01*
X0000308Y0017008D02*
X0000808D01*
Y0017508D02*
X0000308Y0017008D01*
X0000808D02*
X0000308Y0017508D01*
X-0002132Y0018912D02*
Y0018412D01*
X-0001632Y0018912D02*
X-0002132D01*
X-0001632Y0018412D02*
Y0018912D01*
X-0002132Y0018412D02*
X-0001632D01*
Y0018912D02*
X-0002132Y0018412D01*
X-0001632D02*
X-0002132Y0018912D01*
X0002292Y0016882D02*
Y0016382D01*
X0002792Y0016882D02*
X0002292D01*
X0002792Y0016382D02*
Y0016882D01*
X0002292Y0016382D02*
X0002792D01*
Y0016882D02*
X0002292Y0016382D01*
X0002792D02*
X0002292Y0016882D01*
X0000874Y0016866D02*
Y0016366D01*
X0001374Y0016866D02*
X0000874D01*
X0001374Y0016366D02*
Y0016866D01*
X0000874Y0016366D02*
X0001374D01*
Y0016866D02*
X0000874Y0016366D01*
X0001374D02*
X0000874Y0016866D01*
X-0002852Y0016842D02*
Y0016342D01*
X-0002352Y0016842D02*
X-0002852D01*
X-0002352Y0016342D02*
Y0016842D01*
X-0002852Y0016342D02*
X-0002352D01*
Y0016842D02*
X-0002852Y0016342D01*
X-0002352D02*
X-0002852Y0016842D01*
X0010628Y0015486D02*
Y0014986D01*
X0011128Y0015486D02*
X0010628D01*
X0011128Y0014986D02*
Y0015486D01*
X0010628Y0014986D02*
X0011128D01*
Y0015486D02*
X0010628Y0014986D01*
X0011128D02*
X0010628Y0015486D01*
X0011010Y0012518D02*
Y0012018D01*
X0011510Y0012518D02*
X0011010D01*
X0011510Y0012018D02*
Y0012518D01*
X0011010Y0012018D02*
X0011510D01*
Y0012518D02*
X0011010Y0012018D01*
X0011510D02*
X0011010Y0012518D01*
X0015314Y-0006612D02*
Y-0007112D01*
X0015814Y-0006612D02*
X0015314D01*
X0015814Y-0007112D02*
Y-0006612D01*
X0015314Y-0007112D02*
X0015814D01*
Y-0006612D02*
X0015314Y-0007112D01*
X0015814D02*
X0015314Y-0006612D01*
X0011586Y-0006870D02*
Y-0007370D01*
X0012086Y-0006870D02*
X0011586D01*
X0012086Y-0007370D02*
Y-0006870D01*
X0011586Y-0007370D02*
X0012086D01*
Y-0006870D02*
X0011586Y-0007370D01*
X0012086D02*
X0011586Y-0006870D01*
X0006582Y-0003374D02*
Y-0003874D01*
X0007082Y-0003374D02*
X0006582D01*
X0007082Y-0003874D02*
Y-0003374D01*
X0006582Y-0003874D02*
X0007082D01*
Y-0003374D02*
X0006582Y-0003874D01*
X0007082D02*
X0006582Y-0003374D01*
X0012086Y-0004562D02*
Y-0005062D01*
X0012586Y-0004562D02*
X0012086D01*
X0012586Y-0005062D02*
Y-0004562D01*
X0012086Y-0005062D02*
X0012586D01*
Y-0004562D02*
X0012086Y-0005062D01*
X0012586D02*
X0012086Y-0004562D01*
X0006584Y-0002560D02*
Y-0003060D01*
X0007084Y-0002560D02*
X0006584D01*
X0007084Y-0003060D02*
Y-0002560D01*
X0006584Y-0003060D02*
X0007084D01*
Y-0002560D02*
X0006584Y-0003060D01*
X0007084D02*
X0006584Y-0002560D01*
X0010518Y-0005070D02*
Y-0005570D01*
X0011018Y-0005070D02*
X0010518D01*
X0011018Y-0005570D02*
Y-0005070D01*
X0010518Y-0005570D02*
X0011018D01*
Y-0005070D02*
X0010518Y-0005570D01*
X0011018D02*
X0010518Y-0005070D01*
X0010118Y-0000118D02*
Y-0000618D01*
X0010618Y-0000118D02*
X0010118D01*
X0010618Y-0000618D02*
Y-0000118D01*
X0010118Y-0000618D02*
X0010618D01*
Y-0000118D02*
X0010118Y-0000618D01*
X0010618D02*
X0010118Y-0000118D01*
X0011944Y-0006637D02*
Y-0007137D01*
X0012444Y-0006637D02*
X0011944D01*
X0012444Y-0007137D02*
Y-0006637D01*
X0011944Y-0007137D02*
X0012444D01*
Y-0006637D02*
X0011944Y-0007137D01*
X0012444D02*
X0011944Y-0006637D01*
X0013828Y-0005886D02*
Y-0006386D01*
X0014328Y-0005886D02*
X0013828D01*
X0014328Y-0006386D02*
Y-0005886D01*
X0013828Y-0006386D02*
X0014328D01*
Y-0005886D02*
X0013828Y-0006386D01*
X0014328D02*
X0013828Y-0005886D01*
X0012967Y-0006637D02*
Y-0007137D01*
X0013467Y-0006637D02*
X0012967D01*
X0013467Y-0007137D02*
Y-0006637D01*
X0012967Y-0007137D02*
X0013467D01*
Y-0006637D02*
X0012967Y-0007137D01*
X0013467D02*
X0012967Y-0006637D01*
X0014496Y-0002828D02*
Y-0003328D01*
X0014996Y-0002828D02*
X0014496D01*
X0014996Y-0003328D02*
Y-0002828D01*
X0014496Y-0003328D02*
X0014996D01*
Y-0002828D02*
X0014496Y-0003328D01*
X0014996D02*
X0014496Y-0002828D01*
X0013754Y-0003874D02*
Y-0004374D01*
X0014254Y-0003874D02*
X0013754D01*
X0014254Y-0004374D02*
Y-0003874D01*
X0013754Y-0004374D02*
X0014254D01*
Y-0003874D02*
X0013754Y-0004374D01*
X0014254D02*
X0013754Y-0003874D01*
X0010810Y-0002032D02*
Y-0002532D01*
X0011310Y-0002032D02*
X0010810D01*
X0011310Y-0002532D02*
Y-0002032D01*
X0010810Y-0002532D02*
X0011310D01*
Y-0002032D02*
X0010810Y-0002532D01*
X0011310D02*
X0010810Y-0002032D01*
X0002462Y-0010054D02*
Y-0010554D01*
X0002962Y-0010054D02*
X0002462D01*
X0002962Y-0010554D02*
Y-0010054D01*
X0002462Y-0010554D02*
X0002962D01*
Y-0010054D02*
X0002462Y-0010554D01*
X0002962D02*
X0002462Y-0010054D01*
X0003934Y-0010058D02*
Y-0010558D01*
X0004434Y-0010058D02*
X0003934D01*
X0004434Y-0010558D02*
Y-0010058D01*
X0003934Y-0010558D02*
X0004434D01*
Y-0010058D02*
X0003934Y-0010558D01*
X0004434D02*
X0003934Y-0010058D01*
X0001236Y-0010558D02*
Y-0011058D01*
X0001736Y-0010558D02*
X0001236D01*
X0001736Y-0011058D02*
Y-0010558D01*
X0001236Y-0011058D02*
X0001736D01*
Y-0010558D02*
X0001236Y-0011058D01*
X0001736D02*
X0001236Y-0010558D01*
X0001254Y-0010056D02*
Y-0010556D01*
X0001754Y-0010056D02*
X0001254D01*
X0001754Y-0010556D02*
Y-0010056D01*
X0001254Y-0010556D02*
X0001754D01*
Y-0010056D02*
X0001254Y-0010556D01*
X0001754D02*
X0001254Y-0010056D01*
X0009420Y0004942D02*
Y0004442D01*
X0009920Y0004942D02*
X0009420D01*
X0009920Y0004442D02*
Y0004942D01*
X0009420Y0004442D02*
X0009920D01*
Y0004942D02*
X0009420Y0004442D01*
X0009920D02*
X0009420Y0004942D01*
X0009418Y0005706D02*
Y0005206D01*
X0009918Y0005706D02*
X0009418D01*
X0009918Y0005206D02*
Y0005706D01*
X0009418Y0005206D02*
X0009918D01*
Y0005706D02*
X0009418Y0005206D01*
X0009918D02*
X0009418Y0005706D01*
X0009976Y0005322D02*
Y0004822D01*
X0010476Y0005322D02*
X0009976D01*
X0010476Y0004822D02*
Y0005322D01*
X0009976Y0004822D02*
X0010476D01*
Y0005322D02*
X0009976Y0004822D01*
X0010476D02*
X0009976Y0005322D01*
X0008800D02*
Y0004822D01*
X0009300Y0005322D02*
X0008800D01*
X0009300Y0004822D02*
Y0005322D01*
X0008800Y0004822D02*
X0009300D01*
Y0005322D02*
X0008800Y0004822D01*
X0009300D02*
X0008800Y0005322D01*
X0010918Y0004914D02*
Y0004414D01*
X0011418Y0004914D02*
X0010918D01*
X0011418Y0004414D02*
Y0004914D01*
X0010918Y0004414D02*
X0011418D01*
Y0004914D02*
X0010918Y0004414D01*
X0011418D02*
X0010918Y0004914D01*
X0010320Y0005324D02*
Y0004824D01*
X0010820Y0005324D02*
X0010320D01*
X0010820Y0004824D02*
Y0005324D01*
X0010320Y0004824D02*
X0010820D01*
Y0005324D02*
X0010320Y0004824D01*
X0010820D02*
X0010320Y0005324D01*
X0010918Y0005778D02*
Y0005278D01*
X0011418Y0005778D02*
X0010918D01*
X0011418Y0005278D02*
Y0005778D01*
X0010918Y0005278D02*
X0011418D01*
Y0005778D02*
X0010918Y0005278D01*
X0011418D02*
X0010918Y0005778D01*
X0011542Y0005324D02*
Y0004824D01*
X0012042Y0005324D02*
X0011542D01*
X0012042Y0004824D02*
Y0005324D01*
X0011542Y0004824D02*
X0012042D01*
Y0005324D02*
X0011542Y0004824D01*
X0012042D02*
X0011542Y0005324D01*
X-0014068Y0013934D02*
Y0013434D01*
X-0013568Y0013934D02*
X-0014068D01*
X-0013568Y0013434D02*
Y0013934D01*
X-0014068Y0013434D02*
X-0013568D01*
Y0013934D02*
X-0014068Y0013434D01*
X-0013568D02*
X-0014068Y0013934D01*
X-0000864Y0021520D02*
Y0021020D01*
X-0000364Y0021520D02*
X-0000864D01*
X-0000364Y0021020D02*
Y0021520D01*
X-0000864Y0021020D02*
X-0000364D01*
Y0021520D02*
X-0000864Y0021020D01*
X-0000364D02*
X-0000864Y0021520D01*
X0013924Y0016436D02*
Y0015936D01*
X0014424Y0016436D02*
X0013924D01*
X0014424Y0015936D02*
Y0016436D01*
X0013924Y0015936D02*
X0014424D01*
Y0016436D02*
X0013924Y0015936D01*
X0014424D02*
X0013924Y0016436D01*
X0014826Y0013472D02*
Y0012972D01*
X0015326Y0013472D02*
X0014826D01*
X0015326Y0012972D02*
Y0013472D01*
X0014826Y0012972D02*
X0015326D01*
Y0013472D02*
X0014826Y0012972D01*
X0015326D02*
X0014826Y0013472D01*
X0020692Y0002316D02*
Y0001816D01*
X0021192Y0002316D02*
X0020692D01*
X0021192Y0001816D02*
Y0002316D01*
X0020692Y0001816D02*
X0021192D01*
Y0002316D02*
X0020692Y0001816D01*
X0021192D02*
X0020692Y0002316D01*
X0015752Y-0014042D02*
Y-0014542D01*
X0016252Y-0014042D02*
X0015752D01*
X0016252Y-0014542D02*
Y-0014042D01*
X0015752Y-0014542D02*
X0016252D01*
Y-0014042D02*
X0015752Y-0014542D01*
X0016252D02*
X0015752Y-0014042D01*
X-0000826Y-0021526D02*
Y-0022026D01*
X-0000326Y-0021526D02*
X-0000826D01*
X-0000326Y-0022026D02*
Y-0021526D01*
X-0000826Y-0022026D02*
X-0000326D01*
Y-0021526D02*
X-0000826Y-0022026D01*
X-0000326D02*
X-0000826Y-0021526D01*
X-0014886Y-0015348D02*
Y-0015848D01*
X-0014386Y-0015348D02*
X-0014886D01*
X-0014386Y-0015848D02*
Y-0015348D01*
X-0014886Y-0015848D02*
X-0014386D01*
Y-0015348D02*
X-0014886Y-0015848D01*
X-0014386D02*
X-0014886Y-0015348D01*
X-0016206Y-0004240D02*
Y-0004740D01*
X-0015706Y-0004240D02*
X-0016206D01*
X-0015706Y-0004740D02*
Y-0004240D01*
X-0016206Y-0004740D02*
X-0015706D01*
Y-0004240D02*
X-0016206Y-0004740D01*
X-0015706D02*
X-0016206Y-0004240D01*
X-0015120Y-0004780D02*
Y-0005280D01*
X-0014620Y-0004780D02*
X-0015120D01*
X-0014620Y-0005280D02*
Y-0004780D01*
X-0015120Y-0005280D02*
X-0014620D01*
Y-0004780D02*
X-0015120Y-0005280D01*
X-0014620D02*
X-0015120Y-0004780D01*
X-0015164Y-0006110D02*
Y-0006610D01*
X-0014664Y-0006110D02*
X-0015164D01*
X-0014664Y-0006610D02*
Y-0006110D01*
X-0015164Y-0006610D02*
X-0014664D01*
Y-0006110D02*
X-0015164Y-0006610D01*
X-0014664D02*
X-0015164Y-0006110D01*
X-0011914Y-0014668D02*
Y-0015168D01*
X-0011414Y-0014668D02*
X-0011914D01*
X-0011414Y-0015168D02*
Y-0014668D01*
X-0011914Y-0015168D02*
X-0011414D01*
Y-0014668D02*
X-0011914Y-0015168D01*
X-0011414D02*
X-0011914Y-0014668D01*
X-0013388Y-0013684D02*
Y-0014184D01*
X-0012888Y-0013684D02*
X-0013388D01*
X-0012888Y-0014184D02*
Y-0013684D01*
X-0013388Y-0014184D02*
X-0012888D01*
Y-0013684D02*
X-0013388Y-0014184D01*
X-0012888D02*
X-0013388Y-0013684D01*
X-0012406Y-0013074D02*
Y-0013574D01*
X-0011906Y-0013074D02*
X-0012406D01*
X-0011906Y-0013574D02*
Y-0013074D01*
X-0012406Y-0013574D02*
X-0011906D01*
Y-0013074D02*
X-0012406Y-0013574D01*
X-0011906D02*
X-0012406Y-0013074D01*
X-0011914Y-0015144D02*
Y-0015644D01*
X-0011414Y-0015144D02*
X-0011914D01*
X-0011414Y-0015644D02*
Y-0015144D01*
X-0011914Y-0015644D02*
X-0011414D01*
Y-0015144D02*
X-0011914Y-0015644D01*
X-0011414D02*
X-0011914Y-0015144D01*
X-0013294Y-0015716D02*
Y-0016216D01*
X-0012794Y-0015716D02*
X-0013294D01*
X-0012794Y-0016216D02*
Y-0015716D01*
X-0013294Y-0016216D02*
X-0012794D01*
Y-0015716D02*
X-0013294Y-0016216D01*
X-0012794D02*
X-0013294Y-0015716D01*
X-0014382Y-0014590D02*
Y-0015090D01*
X-0013882Y-0014590D02*
X-0014382D01*
X-0013882Y-0015090D02*
Y-0014590D01*
X-0014382Y-0015090D02*
X-0013882D01*
Y-0014590D02*
X-0014382Y-0015090D01*
X-0013882D02*
X-0014382Y-0014590D01*
X-0014898Y-0014110D02*
Y-0014610D01*
X-0014398Y-0014110D02*
X-0014898D01*
X-0014398Y-0014610D02*
Y-0014110D01*
X-0014898Y-0014610D02*
X-0014398D01*
Y-0014110D02*
X-0014898Y-0014610D01*
X-0014398D02*
X-0014898Y-0014110D01*
X-0019990Y0000188D02*
Y-0000312D01*
X-0019490Y0000188D02*
X-0019990D01*
X-0019490Y-0000312D02*
Y0000188D01*
X-0019990Y-0000312D02*
X-0019490D01*
Y0000188D02*
X-0019990Y-0000312D01*
X-0019490D02*
X-0019990Y0000188D01*
X-0017640Y0006336D02*
Y0005836D01*
X-0017140Y0006336D02*
X-0017640D01*
X-0017140Y0005836D02*
Y0006336D01*
X-0017640Y0005836D02*
X-0017140D01*
Y0006336D02*
X-0017640Y0005836D01*
X-0017140D02*
X-0017640Y0006336D01*
X-0012216Y0007934D02*
Y0007434D01*
X-0011716Y0007934D02*
X-0012216D01*
X-0011716Y0007434D02*
Y0007934D01*
X-0012216Y0007434D02*
X-0011716D01*
Y0007934D02*
X-0012216Y0007434D01*
X-0011716D02*
X-0012216Y0007934D01*
X-0019728Y0003090D02*
Y0002590D01*
X-0019228Y0003090D02*
X-0019728D01*
X-0019228Y0002590D02*
Y0003090D01*
X-0019728Y0002590D02*
X-0019228D01*
Y0003090D02*
X-0019728Y0002590D01*
X-0019228D02*
X-0019728Y0003090D01*
X-0016274Y0006488D02*
Y0005988D01*
X-0015774Y0006488D02*
X-0016274D01*
X-0015774Y0005988D02*
Y0006488D01*
X-0016274Y0005988D02*
X-0015774D01*
Y0006488D02*
X-0016274Y0005988D01*
X-0015774D02*
X-0016274Y0006488D01*
X-0014982Y0007722D02*
Y0007222D01*
X-0014482Y0007722D02*
X-0014982D01*
X-0014482Y0007222D02*
Y0007722D01*
X-0014982Y0007222D02*
X-0014482D01*
Y0007722D02*
X-0014982Y0007222D01*
X-0014482D02*
X-0014982Y0007722D01*
X-0020588Y0001896D02*
Y0001396D01*
X-0020088Y0001896D02*
X-0020588D01*
X-0020088Y0001396D02*
Y0001896D01*
X-0020588Y0001396D02*
X-0020088D01*
Y0001896D02*
X-0020588Y0001396D01*
X-0020088D02*
X-0020588Y0001896D01*
X-0019696Y0000496D02*
Y-0000004D01*
X-0019196Y0000496D02*
X-0019696D01*
X-0019196Y-0000004D02*
Y0000496D01*
X-0019696Y-0000004D02*
X-0019196D01*
Y0000496D02*
X-0019696Y-0000004D01*
X-0019196D02*
X-0019696Y0000496D01*
X-0019534Y-0000306D02*
Y-0000806D01*
X-0019034Y-0000306D02*
X-0019534D01*
X-0019034Y-0000806D02*
Y-0000306D01*
X-0019534Y-0000806D02*
X-0019034D01*
Y-0000306D02*
X-0019534Y-0000806D01*
X-0019034D02*
X-0019534Y-0000306D01*
X-0021386Y-0000308D02*
Y-0000808D01*
X-0020886Y-0000308D02*
X-0021386D01*
X-0020886Y-0000808D02*
Y-0000308D01*
X-0021386Y-0000808D02*
X-0020886D01*
Y-0000308D02*
X-0021386Y-0000808D01*
X-0020886D02*
X-0021386Y-0000308D01*
X-0021390Y0001304D02*
Y0000804D01*
X-0020890Y0001304D02*
X-0021390D01*
X-0020890Y0000804D02*
Y0001304D01*
X-0021390Y0000804D02*
X-0020890D01*
Y0001304D02*
X-0021390Y0000804D01*
X-0020890D02*
X-0021390Y0001304D01*
X-0021392Y0000498D02*
Y-0000002D01*
X-0020892Y0000498D02*
X-0021392D01*
X-0020892Y-0000002D02*
Y0000498D01*
X-0021392Y-0000002D02*
X-0020892D01*
Y0000498D02*
X-0021392Y-0000002D01*
X-0020892D02*
X-0021392Y0000498D01*
X-0011494Y0014276D02*
Y0013776D01*
X-0010994Y0014276D02*
X-0011494D01*
X-0010994Y0013776D02*
Y0014276D01*
X-0011494Y0013776D02*
X-0010994D01*
Y0014276D02*
X-0011494Y0013776D01*
X-0010994D02*
X-0011494Y0014276D01*
X-0011796Y0016166D02*
Y0015666D01*
X-0011296Y0016166D02*
X-0011796D01*
X-0011296Y0015666D02*
Y0016166D01*
X-0011796Y0015666D02*
X-0011296D01*
Y0016166D02*
X-0011796Y0015666D01*
X-0011296D02*
X-0011796Y0016166D01*
X-0011794Y0017700D02*
Y0017200D01*
X-0011294Y0017700D02*
X-0011794D01*
X-0011294Y0017200D02*
Y0017700D01*
X-0011794Y0017200D02*
X-0011294D01*
Y0017700D02*
X-0011794Y0017200D01*
X-0011294D02*
X-0011794Y0017700D01*
X-0002124Y-0019504D02*
Y-0020004D01*
X-0001624Y-0019504D02*
X-0002124D01*
X-0001624Y-0020004D02*
Y-0019504D01*
X-0002124Y-0020004D02*
X-0001624D01*
Y-0019504D02*
X-0002124Y-0020004D01*
X-0001624D02*
X-0002124Y-0019504D01*
X-0003412Y-0017292D02*
Y-0017792D01*
X-0002912Y-0017292D02*
X-0003412D01*
X-0002912Y-0017792D02*
Y-0017292D01*
X-0003412Y-0017792D02*
X-0002912D01*
Y-0017292D02*
X-0003412Y-0017792D01*
X-0002912D02*
X-0003412Y-0017292D01*
X-0002076Y-0017962D02*
Y-0018462D01*
X-0001576Y-0017962D02*
X-0002076D01*
X-0001576Y-0018462D02*
Y-0017962D01*
X-0002076Y-0018462D02*
X-0001576D01*
Y-0017962D02*
X-0002076Y-0018462D01*
X-0001576D02*
X-0002076Y-0017962D01*
X-0000708Y-0017826D02*
Y-0018326D01*
X-0000208Y-0017826D02*
X-0000708D01*
X-0000208Y-0018326D02*
Y-0017826D01*
X-0000708Y-0018326D02*
X-0000208D01*
Y-0017826D02*
X-0000708Y-0018326D01*
X-0000208D02*
X-0000708Y-0017826D01*
X-0001706Y-0019616D02*
Y-0020116D01*
X-0001206Y-0019616D02*
X-0001706D01*
X-0001206Y-0020116D02*
Y-0019616D01*
X-0001706Y-0020116D02*
X-0001206D01*
Y-0019616D02*
X-0001706Y-0020116D01*
X-0001206D02*
X-0001706Y-0019616D01*
X-0002508Y-0021006D02*
Y-0021506D01*
X-0002008Y-0021006D02*
X-0002508D01*
X-0002008Y-0021506D02*
Y-0021006D01*
X-0002508Y-0021506D02*
X-0002008D01*
Y-0021006D02*
X-0002508Y-0021506D01*
X-0002008D02*
X-0002508Y-0021006D01*
X-0001712Y-0021120D02*
Y-0021620D01*
X-0001212Y-0021120D02*
X-0001712D01*
X-0001212Y-0021620D02*
Y-0021120D01*
X-0001712Y-0021620D02*
X-0001212D01*
Y-0021120D02*
X-0001712Y-0021620D01*
X-0001212D02*
X-0001712Y-0021120D01*
X-0000922Y-0021056D02*
Y-0021556D01*
X-0000422Y-0021056D02*
X-0000922D01*
X-0000422Y-0021556D02*
Y-0021056D01*
X-0000922Y-0021556D02*
X-0000422D01*
Y-0021056D02*
X-0000922Y-0021556D01*
X-0000422D02*
X-0000922Y-0021056D01*
X0017972Y-0001632D02*
Y-0002132D01*
X0018472Y-0001632D02*
X0017972D01*
X0018472Y-0002132D02*
Y-0001632D01*
X0017972Y-0002132D02*
X0018472D01*
Y-0001632D02*
X0017972Y-0002132D01*
X0018472D02*
X0017972Y-0001632D01*
X0017638Y0001692D02*
Y0001192D01*
X0018138Y0001692D02*
X0017638D01*
X0018138Y0001192D02*
Y0001692D01*
X0017638Y0001192D02*
X0018138D01*
Y0001692D02*
X0017638Y0001192D01*
X0018138D02*
X0017638Y0001692D01*
X0012572Y0003814D02*
Y0003314D01*
X0013072Y0003814D02*
X0012572D01*
X0013072Y0003314D02*
Y0003814D01*
X0012572Y0003314D02*
X0013072D01*
Y0003814D02*
X0012572Y0003314D01*
X0013072D02*
X0012572Y0003814D01*
X0013474Y0002836D02*
Y0002336D01*
X0013974Y0002836D02*
X0013474D01*
X0013974Y0002336D02*
Y0002836D01*
X0013474Y0002336D02*
X0013974D01*
Y0002836D02*
X0013474Y0002336D01*
X0013974D02*
X0013474Y0002836D01*
X0013484Y0002072D02*
Y0001572D01*
X0013984Y0002072D02*
X0013484D01*
X0013984Y0001572D02*
Y0002072D01*
X0013484Y0001572D02*
X0013984D01*
Y0002072D02*
X0013484Y0001572D01*
X0013984D02*
X0013484Y0002072D01*
X0015124Y0004198D02*
Y0003698D01*
X0015624Y0004198D02*
X0015124D01*
X0015624Y0003698D02*
Y0004198D01*
X0015124Y0003698D02*
X0015624D01*
Y0004198D02*
X0015124Y0003698D01*
X0015624D02*
X0015124Y0004198D01*
X0014800Y0003852D02*
Y0003352D01*
X0015300Y0003852D02*
X0014800D01*
X0015300Y0003352D02*
Y0003852D01*
X0014800Y0003352D02*
X0015300D01*
Y0003852D02*
X0014800Y0003352D01*
X0015300D02*
X0014800Y0003852D01*
Y0004516D02*
Y0004016D01*
X0015300Y0004516D02*
X0014800D01*
X0015300Y0004016D02*
Y0004516D01*
X0014800Y0004016D02*
X0015300D01*
Y0004516D02*
X0014800Y0004016D01*
X0015300D02*
X0014800Y0004516D01*
X0012030Y0001922D02*
Y0001422D01*
X0012530Y0001922D02*
X0012030D01*
X0012530Y0001422D02*
Y0001922D01*
X0012030Y0001422D02*
X0012530D01*
Y0001922D02*
X0012030Y0001422D01*
X0012530D02*
X0012030Y0001922D01*
X0014086Y0002284D02*
Y0001784D01*
X0014586Y0002284D02*
X0014086D01*
X0014586Y0001784D02*
Y0002284D01*
X0014086Y0001784D02*
X0014586D01*
Y0002284D02*
X0014086Y0001784D01*
X0014586D02*
X0014086Y0002284D01*
X0014730Y0002372D02*
Y0001872D01*
X0015230Y0002372D02*
X0014730D01*
X0015230Y0001872D02*
Y0002372D01*
X0014730Y0001872D02*
X0015230D01*
Y0002372D02*
X0014730Y0001872D01*
X0015230D02*
X0014730Y0002372D01*
X0015180Y0000634D02*
Y0000134D01*
X0015680Y0000634D02*
X0015180D01*
X0015680Y0000134D02*
Y0000634D01*
X0015180Y0000134D02*
X0015680D01*
Y0000634D02*
X0015180Y0000134D01*
X0015680D02*
X0015180Y0000634D01*
X0013058Y0000636D02*
Y0000136D01*
X0013558Y0000636D02*
X0013058D01*
X0013558Y0000136D02*
Y0000636D01*
X0013058Y0000136D02*
X0013558D01*
Y0000636D02*
X0013058Y0000136D01*
X0013558D02*
X0013058Y0000636D01*
X0010460Y0003250D02*
Y0002750D01*
X0010960Y0003250D02*
X0010460D01*
X0010960Y0002750D02*
Y0003250D01*
X0010460Y0002750D02*
X0010960D01*
Y0003250D02*
X0010460Y0002750D01*
X0010960D02*
X0010460Y0003250D01*
X0011244Y0002224D02*
Y0001724D01*
X0011744Y0002224D02*
X0011244D01*
X0011744Y0001724D02*
Y0002224D01*
X0011244Y0001724D02*
X0011744D01*
Y0002224D02*
X0011244Y0001724D01*
X0011744D02*
X0011244Y0002224D01*
X0016541Y-0004925D02*
Y-0005425D01*
X0017041Y-0004925D02*
X0016541D01*
X0017041Y-0005425D02*
Y-0004925D01*
X0016541Y-0005425D02*
X0017041D01*
Y-0004925D02*
X0016541Y-0005425D01*
X0017041D02*
X0016541Y-0004925D01*
Y-0006015D02*
Y-0006515D01*
X0017041Y-0006015D02*
X0016541D01*
X0017041Y-0006515D02*
Y-0006015D01*
X0016541Y-0006515D02*
X0017041D01*
Y-0006015D02*
X0016541Y-0006515D01*
X0017041D02*
X0016541Y-0006015D01*
X0016028Y-0001142D02*
Y-0001642D01*
X0016528Y-0001142D02*
X0016028D01*
X0016528Y-0001642D02*
Y-0001142D01*
X0016028Y-0001642D02*
X0016528D01*
Y-0001142D02*
X0016028Y-0001642D01*
X0016528D02*
X0016028Y-0001142D01*
X-0016864Y0003654D02*
Y0003154D01*
X-0016364Y0003654D02*
X-0016864D01*
X-0016364Y0003154D02*
Y0003654D01*
X-0016864Y0003154D02*
X-0016364D01*
Y0003654D02*
X-0016864Y0003154D01*
X-0016364D02*
X-0016864Y0003654D01*
X-0016606Y-0001448D02*
Y-0001948D01*
X-0016106Y-0001448D02*
X-0016606D01*
X-0016106Y-0001948D02*
Y-0001448D01*
X-0016606Y-0001948D02*
X-0016106D01*
Y-0001448D02*
X-0016606Y-0001948D01*
X-0016106D02*
X-0016606Y-0001448D01*
X-0016614Y-0001794D02*
Y-0002294D01*
X-0016114Y-0001794D02*
X-0016614D01*
X-0016114Y-0002294D02*
Y-0001794D01*
X-0016614Y-0002294D02*
X-0016114D01*
Y-0001794D02*
X-0016614Y-0002294D01*
X-0016114D02*
X-0016614Y-0001794D01*
X-0011762Y-0009032D02*
Y-0009532D01*
X-0011262Y-0009032D02*
X-0011762D01*
X-0011262Y-0009532D02*
Y-0009032D01*
X-0011762Y-0009532D02*
X-0011262D01*
Y-0009032D02*
X-0011762Y-0009532D01*
X-0011262D02*
X-0011762Y-0009032D01*
X-0009892Y-0011062D02*
Y-0011562D01*
X-0009392Y-0011062D02*
X-0009892D01*
X-0009392Y-0011562D02*
Y-0011062D01*
X-0009892Y-0011562D02*
X-0009392D01*
Y-0011062D02*
X-0009892Y-0011562D01*
X-0009392D02*
X-0009892Y-0011062D01*
X-0010362Y-0010898D02*
Y-0011398D01*
X-0009862Y-0010898D02*
X-0010362D01*
X-0009862Y-0011398D02*
Y-0010898D01*
X-0010362Y-0011398D02*
X-0009862D01*
Y-0010898D02*
X-0010362Y-0011398D01*
X-0009862D02*
X-0010362Y-0010898D01*
X-0008942Y-0012758D02*
Y-0013258D01*
X-0008442Y-0012758D02*
X-0008942D01*
X-0008442Y-0013258D02*
Y-0012758D01*
X-0008942Y-0013258D02*
X-0008442D01*
Y-0012758D02*
X-0008942Y-0013258D01*
X-0008442D02*
X-0008942Y-0012758D01*
X-0009510Y-0013584D02*
Y-0014084D01*
X-0009010Y-0013584D02*
X-0009510D01*
X-0009010Y-0014084D02*
Y-0013584D01*
X-0009510Y-0014084D02*
X-0009010D01*
Y-0013584D02*
X-0009510Y-0014084D01*
X-0009010D02*
X-0009510Y-0013584D01*
X-0009684Y-0013290D02*
Y-0013790D01*
X-0009184Y-0013290D02*
X-0009684D01*
X-0009184Y-0013790D02*
Y-0013290D01*
X-0009684Y-0013790D02*
X-0009184D01*
Y-0013290D02*
X-0009684Y-0013790D01*
X-0009184D02*
X-0009684Y-0013290D01*
X-0008580Y-0007658D02*
Y-0008158D01*
X-0008080Y-0007658D02*
X-0008580D01*
X-0008080Y-0008158D02*
Y-0007658D01*
X-0008580Y-0008158D02*
X-0008080D01*
Y-0007658D02*
X-0008580Y-0008158D01*
X-0008080D02*
X-0008580Y-0007658D01*
X-0010242Y-0012706D02*
Y-0013206D01*
X-0009742Y-0012706D02*
X-0010242D01*
X-0009742Y-0013206D02*
Y-0012706D01*
X-0010242Y-0013206D02*
X-0009742D01*
Y-0012706D02*
X-0010242Y-0013206D01*
X-0009742D02*
X-0010242Y-0012706D01*
X-0010678Y-0012720D02*
Y-0013220D01*
X-0010178Y-0012720D02*
X-0010678D01*
X-0010178Y-0013220D02*
Y-0012720D01*
X-0010678Y-0013220D02*
X-0010178D01*
Y-0012720D02*
X-0010678Y-0013220D01*
X-0010178D02*
X-0010678Y-0012720D01*
X-0009866Y-0006710D02*
Y-0007210D01*
X-0009366Y-0006710D02*
X-0009866D01*
X-0009366Y-0007210D02*
Y-0006710D01*
X-0009866Y-0007210D02*
X-0009366D01*
Y-0006710D02*
X-0009866Y-0007210D01*
X-0009366D02*
X-0009866Y-0006710D01*
X-0010326Y-0006300D02*
Y-0006800D01*
X-0009826Y-0006300D02*
X-0010326D01*
X-0009826Y-0006800D02*
Y-0006300D01*
X-0010326Y-0006800D02*
X-0009826D01*
Y-0006300D02*
X-0010326Y-0006800D01*
X-0009826D02*
X-0010326Y-0006300D01*
X-0005290Y-0014649D02*
Y-0015149D01*
X-0004790Y-0014649D02*
X-0005290D01*
X-0004790Y-0015149D02*
Y-0014649D01*
X-0005290Y-0015149D02*
X-0004790D01*
Y-0014649D02*
X-0005290Y-0015149D01*
X-0004790D02*
X-0005290Y-0014649D01*
X-0012514Y-0009904D02*
Y-0010404D01*
X-0012014Y-0009904D02*
X-0012514D01*
X-0012014Y-0010404D02*
Y-0009904D01*
X-0012514Y-0010404D02*
X-0012014D01*
Y-0009904D02*
X-0012514Y-0010404D01*
X-0012014D02*
X-0012514Y-0009904D01*
X-0005992Y-0014998D02*
Y-0015498D01*
X-0005492Y-0014998D02*
X-0005992D01*
X-0005492Y-0015498D02*
Y-0014998D01*
X-0005992Y-0015498D02*
X-0005492D01*
Y-0014998D02*
X-0005992Y-0015498D01*
X-0005492D02*
X-0005992Y-0014998D01*
X-0008028Y-0013867D02*
Y-0014367D01*
X-0007528Y-0013867D02*
X-0008028D01*
X-0007528Y-0014367D02*
Y-0013867D01*
X-0008028Y-0014367D02*
X-0007528D01*
Y-0013867D02*
X-0008028Y-0014367D01*
X-0007528D02*
X-0008028Y-0013867D01*
X-0005290Y-0013999D02*
Y-0014499D01*
X-0004790Y-0013999D02*
X-0005290D01*
X-0004790Y-0014499D02*
Y-0013999D01*
X-0005290Y-0014499D02*
X-0004790D01*
Y-0013999D02*
X-0005290Y-0014499D01*
X-0004790D02*
X-0005290Y-0013999D01*
X-0003864Y-0013399D02*
Y-0013899D01*
X-0003364Y-0013399D02*
X-0003864D01*
X-0003364Y-0013899D02*
Y-0013399D01*
X-0003864Y-0013899D02*
X-0003364D01*
Y-0013399D02*
X-0003864Y-0013899D01*
X-0003364D02*
X-0003864Y-0013399D01*
X-0004552Y-0013397D02*
Y-0013897D01*
X-0004052Y-0013397D02*
X-0004552D01*
X-0004052Y-0013897D02*
Y-0013397D01*
X-0004552Y-0013897D02*
X-0004052D01*
Y-0013397D02*
X-0004552Y-0013897D01*
X-0004052D02*
X-0004552Y-0013397D01*
X-0002869D02*
Y-0013897D01*
X-0002369Y-0013397D02*
X-0002869D01*
X-0002369Y-0013897D02*
Y-0013397D01*
X-0002869Y-0013897D02*
X-0002369D01*
Y-0013397D02*
X-0002869Y-0013897D01*
X-0002369D02*
X-0002869Y-0013397D01*
X-0006664Y-0012775D02*
Y-0013275D01*
X-0006164Y-0012775D02*
X-0006664D01*
X-0006164Y-0013275D02*
Y-0012775D01*
X-0006664Y-0013275D02*
X-0006164D01*
Y-0012775D02*
X-0006664Y-0013275D01*
X-0006164D02*
X-0006664Y-0012775D01*
X-0007328Y-0012767D02*
Y-0013267D01*
X-0006828Y-0012767D02*
X-0007328D01*
X-0006828Y-0013267D02*
Y-0012767D01*
X-0007328Y-0013267D02*
X-0006828D01*
Y-0012767D02*
X-0007328Y-0013267D01*
X-0006828D02*
X-0007328Y-0012767D01*
X-0008028Y-0013217D02*
Y-0013717D01*
X-0007528Y-0013217D02*
X-0008028D01*
X-0007528Y-0013717D02*
Y-0013217D01*
X-0008028Y-0013717D02*
X-0007528D01*
Y-0013217D02*
X-0008028Y-0013717D01*
X-0007528D02*
X-0008028Y-0013217D01*
X-0005266Y-0013560D02*
Y-0014060D01*
X-0004766Y-0013560D02*
X-0005266D01*
X-0004766Y-0014060D02*
Y-0013560D01*
X-0005266Y-0014060D02*
X-0004766D01*
Y-0013560D02*
X-0005266Y-0014060D01*
X-0004766D02*
X-0005266Y-0013560D01*
X-0014276Y0005920D02*
Y0005420D01*
X-0013776Y0005920D02*
X-0014276D01*
X-0013776Y0005420D02*
Y0005920D01*
X-0014276Y0005420D02*
X-0013776D01*
Y0005920D02*
X-0014276Y0005420D01*
X-0013776D02*
X-0014276Y0005920D01*
X-0007720Y0009476D02*
Y0008976D01*
X-0007220Y0009476D02*
X-0007720D01*
X-0007220Y0008976D02*
Y0009476D01*
X-0007720Y0008976D02*
X-0007220D01*
Y0009476D02*
X-0007720Y0008976D01*
X-0007220D02*
X-0007720Y0009476D01*
X-0015818Y-0004732D02*
Y-0005232D01*
X-0015318Y-0004732D02*
X-0015818D01*
X-0015318Y-0005232D02*
Y-0004732D01*
X-0015818Y-0005232D02*
X-0015318D01*
Y-0004732D02*
X-0015818Y-0005232D01*
X-0015318D02*
X-0015818Y-0004732D01*
X-0016204Y-0004620D02*
Y-0005120D01*
X-0015704Y-0004620D02*
X-0016204D01*
X-0015704Y-0005120D02*
Y-0004620D01*
X-0016204Y-0005120D02*
X-0015704D01*
Y-0004620D02*
X-0016204Y-0005120D01*
X-0015704D02*
X-0016204Y-0004620D01*
X-0016568Y-0004752D02*
Y-0005252D01*
X-0016068Y-0004752D02*
X-0016568D01*
X-0016068Y-0005252D02*
Y-0004752D01*
X-0016568Y-0005252D02*
X-0016068D01*
Y-0004752D02*
X-0016568Y-0005252D01*
X-0016068D02*
X-0016568Y-0004752D01*
X-0019618Y-0004356D02*
Y-0004856D01*
X-0019118Y-0004356D02*
X-0019618D01*
X-0019118Y-0004856D02*
Y-0004356D01*
X-0019618Y-0004856D02*
X-0019118D01*
Y-0004356D02*
X-0019618Y-0004856D01*
X-0019118D02*
X-0019618Y-0004356D01*
X-0012506Y-0005078D02*
Y-0005578D01*
X-0012006Y-0005078D02*
X-0012506D01*
X-0012006Y-0005578D02*
Y-0005078D01*
X-0012506Y-0005578D02*
X-0012006D01*
Y-0005078D02*
X-0012506Y-0005578D01*
X-0012006D02*
X-0012506Y-0005078D01*
X-0014154Y-0004632D02*
Y-0005132D01*
X-0013654Y-0004632D02*
X-0014154D01*
X-0013654Y-0005132D02*
Y-0004632D01*
X-0014154Y-0005132D02*
X-0013654D01*
Y-0004632D02*
X-0014154Y-0005132D01*
X-0013654D02*
X-0014154Y-0004632D01*
X-0010572Y-0001924D02*
Y-0002424D01*
X-0010072Y-0001924D02*
X-0010572D01*
X-0010072Y-0002424D02*
Y-0001924D01*
X-0010572Y-0002424D02*
X-0010072D01*
Y-0001924D02*
X-0010572Y-0002424D01*
X-0010072D02*
X-0010572Y-0001924D01*
X-0010036Y-0004066D02*
Y-0004566D01*
X-0009536Y-0004066D02*
X-0010036D01*
X-0009536Y-0004566D02*
Y-0004066D01*
X-0010036Y-0004566D02*
X-0009536D01*
Y-0004066D02*
X-0010036Y-0004566D01*
X-0009536D02*
X-0010036Y-0004066D01*
X-0011238Y-0007558D02*
Y-0008058D01*
X-0010738Y-0007558D02*
X-0011238D01*
X-0010738Y-0008058D02*
Y-0007558D01*
X-0011238Y-0008058D02*
X-0010738D01*
Y-0007558D02*
X-0011238Y-0008058D01*
X-0010738D02*
X-0011238Y-0007558D01*
X-0008573Y-0010374D02*
Y-0010874D01*
X-0008073Y-0010374D02*
X-0008573D01*
X-0008073Y-0010874D02*
Y-0010374D01*
X-0008573Y-0010874D02*
X-0008073D01*
Y-0010374D02*
X-0008573Y-0010874D01*
X-0008073D02*
X-0008573Y-0010374D01*
X-0009976Y-0009606D02*
Y-0010106D01*
X-0009476Y-0009606D02*
X-0009976D01*
X-0009476Y-0010106D02*
Y-0009606D01*
X-0009976Y-0010106D02*
X-0009476D01*
Y-0009606D02*
X-0009976Y-0010106D01*
X-0009476D02*
X-0009976Y-0009606D01*
X0003762Y-0003487D02*
Y-0003987D01*
X0004262Y-0003487D02*
X0003762D01*
X0004262Y-0003987D02*
Y-0003487D01*
X0003762Y-0003987D02*
X0004262D01*
Y-0003487D02*
X0003762Y-0003987D01*
X0004262D02*
X0003762Y-0003487D01*
X-0007464Y-0009458D02*
Y-0009958D01*
X-0006964Y-0009458D02*
X-0007464D01*
X-0006964Y-0009958D02*
Y-0009458D01*
X-0007464Y-0009958D02*
X-0006964D01*
Y-0009458D02*
X-0007464Y-0009958D01*
X-0006964D02*
X-0007464Y-0009458D01*
X-0014596Y-0006948D02*
Y-0007448D01*
X-0014096Y-0006948D02*
X-0014596D01*
X-0014096Y-0007448D02*
Y-0006948D01*
X-0014596Y-0007448D02*
X-0014096D01*
Y-0006948D02*
X-0014596Y-0007448D01*
X-0014096D02*
X-0014596Y-0006948D01*
X-0014224Y-0008505D02*
Y-0009005D01*
X-0013724Y-0008505D02*
X-0014224D01*
X-0013724Y-0009005D02*
Y-0008505D01*
X-0014224Y-0009005D02*
X-0013724D01*
Y-0008505D02*
X-0014224Y-0009005D01*
X-0013724D02*
X-0014224Y-0008505D01*
X-0011926Y-0008758D02*
Y-0009258D01*
X-0011426Y-0008758D02*
X-0011926D01*
X-0011426Y-0009258D02*
Y-0008758D01*
X-0011926Y-0009258D02*
X-0011426D01*
Y-0008758D02*
X-0011926Y-0009258D01*
X-0011426D02*
X-0011926Y-0008758D01*
X0003886Y-0000990D02*
Y-0001490D01*
X0004386Y-0000990D02*
X0003886D01*
X0004386Y-0001490D02*
Y-0000990D01*
X0003886Y-0001490D02*
X0004386D01*
Y-0000990D02*
X0003886Y-0001490D01*
X0004386D02*
X0003886Y-0000990D01*
X0003846Y-0004026D02*
Y-0004526D01*
X0004346Y-0004026D02*
X0003846D01*
X0004346Y-0004526D02*
Y-0004026D01*
X0003846Y-0004526D02*
X0004346D01*
Y-0004026D02*
X0003846Y-0004526D01*
X0004346D02*
X0003846Y-0004026D01*
X-0014892Y0013112D02*
Y0012612D01*
X-0014392Y0013112D02*
X-0014892D01*
X-0014392Y0012612D02*
Y0013112D01*
X-0014892Y0012612D02*
X-0014392D01*
Y0013112D02*
X-0014892Y0012612D01*
X-0014392D02*
X-0014892Y0013112D01*
X-0013622Y-0008340D02*
Y-0008840D01*
X-0013122Y-0008340D02*
X-0013622D01*
X-0013122Y-0008840D02*
Y-0008340D01*
X-0013622Y-0008840D02*
X-0013122D01*
Y-0008340D02*
X-0013622Y-0008840D01*
X-0013122D02*
X-0013622Y-0008340D01*
X-0013594Y-0008754D02*
Y-0009254D01*
X-0013094Y-0008754D02*
X-0013594D01*
X-0013094Y-0009254D02*
Y-0008754D01*
X-0013594Y-0009254D02*
X-0013094D01*
Y-0008754D02*
X-0013594Y-0009254D01*
X-0013094D02*
X-0013594Y-0008754D01*
X-0013374Y-0008030D02*
Y-0008530D01*
X-0012874Y-0008030D02*
X-0013374D01*
X-0012874Y-0008530D02*
Y-0008030D01*
X-0013374Y-0008530D02*
X-0012874D01*
Y-0008030D02*
X-0013374Y-0008530D01*
X-0012874D02*
X-0013374Y-0008030D01*
X-0008968Y-0009600D02*
Y-0010100D01*
X-0008468Y-0009600D02*
X-0008968D01*
X-0008468Y-0010100D02*
Y-0009600D01*
X-0008968Y-0010100D02*
X-0008468D01*
Y-0009600D02*
X-0008968Y-0010100D01*
X-0008468D02*
X-0008968Y-0009600D01*
X-0008622Y-0009410D02*
Y-0009910D01*
X-0008122Y-0009410D02*
X-0008622D01*
X-0008122Y-0009910D02*
Y-0009410D01*
X-0008622Y-0009910D02*
X-0008122D01*
Y-0009410D02*
X-0008622Y-0009910D01*
X-0008122D02*
X-0008622Y-0009410D01*
X-0008544Y-0008892D02*
Y-0009392D01*
X-0008044Y-0008892D02*
X-0008544D01*
X-0008044Y-0009392D02*
Y-0008892D01*
X-0008544Y-0009392D02*
X-0008044D01*
Y-0008892D02*
X-0008544Y-0009392D01*
X-0008044D02*
X-0008544Y-0008892D01*
X-0015870Y-0011330D02*
Y-0011830D01*
X-0015370Y-0011330D02*
X-0015870D01*
X-0015370Y-0011830D02*
Y-0011330D01*
X-0015870Y-0011830D02*
X-0015370D01*
Y-0011330D02*
X-0015870Y-0011830D01*
X-0015370D02*
X-0015870Y-0011330D01*
X0016390Y0011738D02*
Y0011238D01*
X0016890Y0011738D02*
X0016390D01*
X0016890Y0011238D02*
Y0011738D01*
X0016390Y0011238D02*
X0016890D01*
Y0011738D02*
X0016390Y0011238D01*
X0016890D02*
X0016390Y0011738D01*
X0002847Y-0003280D02*
Y-0003780D01*
X0003347Y-0003280D02*
X0002847D01*
X0003347Y-0003780D02*
Y-0003280D01*
X0002847Y-0003780D02*
X0003347D01*
Y-0003280D02*
X0002847Y-0003780D01*
X0003347D02*
X0002847Y-0003280D01*
X0002995Y-0002926D02*
Y-0003426D01*
X0003495Y-0002926D02*
X0002995D01*
X0003495Y-0003426D02*
Y-0002926D01*
X0002995Y-0003426D02*
X0003495D01*
Y-0002926D02*
X0002995Y-0003426D01*
X0003495D02*
X0002995Y-0002926D01*
X0007803Y0002738D02*
Y0002238D01*
X0008303Y0002738D02*
X0007803D01*
X0008303Y0002238D02*
Y0002738D01*
X0007803Y0002238D02*
X0008303D01*
Y0002738D02*
X0007803Y0002238D01*
X0008303D02*
X0007803Y0002738D01*
X0007362Y0005870D02*
Y0005370D01*
X0007862Y0005870D02*
X0007362D01*
X0007862Y0005370D02*
Y0005870D01*
X0007362Y0005370D02*
X0007862D01*
Y0005870D02*
X0007362Y0005370D01*
X0007862D02*
X0007362Y0005870D01*
X0020872Y0001676D02*
Y0001176D01*
X0021372Y0001676D02*
X0020872D01*
X0021372Y0001176D02*
Y0001676D01*
X0020872Y0001176D02*
X0021372D01*
Y0001676D02*
X0020872Y0001176D01*
X0021372D02*
X0020872Y0001676D01*
X-0010989Y0011534D02*
Y0011034D01*
X-0010489Y0011534D02*
X-0010989D01*
X-0010489Y0011034D02*
Y0011534D01*
X-0010989Y0011034D02*
X-0010489D01*
Y0011534D02*
X-0010989Y0011034D01*
X-0010489D02*
X-0010989Y0011534D01*
X-0005855Y0018265D02*
Y0017765D01*
X-0005355Y0018265D02*
X-0005855D01*
X-0005355Y0017765D02*
Y0018265D01*
X-0005855Y0017765D02*
X-0005355D01*
Y0018265D02*
X-0005855Y0017765D01*
X-0005355D02*
X-0005855Y0018265D01*
X-0005845Y0018599D02*
Y0018099D01*
X-0005345Y0018599D02*
X-0005845D01*
X-0005345Y0018099D02*
Y0018599D01*
X-0005845Y0018099D02*
X-0005345D01*
Y0018599D02*
X-0005845Y0018099D01*
X-0005345D02*
X-0005845Y0018599D01*
X-0006946Y0018265D02*
Y0017765D01*
X-0006446Y0018265D02*
X-0006946D01*
X-0006446Y0017765D02*
Y0018265D01*
X-0006946Y0017765D02*
X-0006446D01*
Y0018265D02*
X-0006946Y0017765D01*
X-0006446D02*
X-0006946Y0018265D01*
X-0006524D02*
Y0017765D01*
X-0006024Y0018265D02*
X-0006524D01*
X-0006024Y0017765D02*
Y0018265D01*
X-0006524Y0017765D02*
X-0006024D01*
Y0018265D02*
X-0006524Y0017765D01*
X-0006024D02*
X-0006524Y0018265D01*
X-0006199D02*
Y0017765D01*
X-0005699Y0018265D02*
X-0006199D01*
X-0005699Y0017765D02*
Y0018265D01*
X-0006199Y0017765D02*
X-0005699D01*
Y0018265D02*
X-0006199Y0017765D01*
X-0005699D02*
X-0006199Y0018265D01*
Y0018599D02*
Y0018099D01*
X-0005699Y0018599D02*
X-0006199D01*
X-0005699Y0018099D02*
Y0018599D01*
X-0006199Y0018099D02*
X-0005699D01*
Y0018599D02*
X-0006199Y0018099D01*
X-0005699D02*
X-0006199Y0018599D01*
X-0006942Y0018594D02*
Y0018094D01*
X-0006442Y0018594D02*
X-0006942D01*
X-0006442Y0018094D02*
Y0018594D01*
X-0006942Y0018094D02*
X-0006442D01*
Y0018594D02*
X-0006942Y0018094D01*
X-0006442D02*
X-0006942Y0018594D01*
X-0006564D02*
Y0018094D01*
X-0006064Y0018594D02*
X-0006564D01*
X-0006064Y0018094D02*
Y0018594D01*
X-0006564Y0018094D02*
X-0006064D01*
Y0018594D02*
X-0006564Y0018094D01*
X-0006064D02*
X-0006564Y0018594D01*
X-0004419Y0017153D02*
Y0016653D01*
X-0003919Y0017153D02*
X-0004419D01*
X-0003919Y0016653D02*
Y0017153D01*
X-0004419Y0016653D02*
X-0003919D01*
Y0017153D02*
X-0004419Y0016653D01*
X-0003919D02*
X-0004419Y0017153D01*
X-0003800Y0017124D02*
Y0016624D01*
X-0003300Y0017124D02*
X-0003800D01*
X-0003300Y0016624D02*
Y0017124D01*
X-0003800Y0016624D02*
X-0003300D01*
Y0017124D02*
X-0003800Y0016624D01*
X-0003300D02*
X-0003800Y0017124D01*
X-0004419Y0018255D02*
Y0017755D01*
X-0003919Y0018255D02*
X-0004419D01*
X-0003919Y0017755D02*
Y0018255D01*
X-0004419Y0017755D02*
X-0003919D01*
Y0018255D02*
X-0004419Y0017755D01*
X-0003919D02*
X-0004419Y0018255D01*
X-0003800D02*
Y0017755D01*
X-0003300Y0018255D02*
X-0003800D01*
X-0003300Y0017755D02*
Y0018255D01*
X-0003800Y0017755D02*
X-0003300D01*
Y0018255D02*
X-0003800Y0017755D01*
X-0003300D02*
X-0003800Y0018255D01*
X-0002512Y0017694D02*
Y0017194D01*
X-0002012Y0017694D02*
X-0002512D01*
X-0002012Y0017194D02*
Y0017694D01*
X-0002512Y0017194D02*
X-0002012D01*
Y0017694D02*
X-0002512Y0017194D01*
X-0002012D02*
X-0002512Y0017694D01*
X-0002915D02*
Y0017194D01*
X-0002415Y0017694D02*
X-0002915D01*
X-0002415Y0017194D02*
Y0017694D01*
X-0002915Y0017194D02*
X-0002415D01*
Y0017694D02*
X-0002915Y0017194D01*
X-0002415D02*
X-0002915Y0017694D01*
X-0003288D02*
Y0017194D01*
X-0002788Y0017694D02*
X-0003288D01*
X-0002788Y0017194D02*
Y0017694D01*
X-0003288Y0017194D02*
X-0002788D01*
Y0017694D02*
X-0003288Y0017194D01*
X-0002788D02*
X-0003288Y0017694D01*
X-0003672D02*
Y0017194D01*
X-0003172Y0017694D02*
X-0003672D01*
X-0003172Y0017194D02*
Y0017694D01*
X-0003672Y0017194D02*
X-0003172D01*
Y0017694D02*
X-0003672Y0017194D01*
X-0003172D02*
X-0003672Y0017694D01*
X-0004124D02*
Y0017194D01*
X-0003624Y0017694D02*
X-0004124D01*
X-0003624Y0017194D02*
Y0017694D01*
X-0004124Y0017194D02*
X-0003624D01*
Y0017694D02*
X-0004124Y0017194D01*
X-0003624D02*
X-0004124Y0017694D01*
X-0004626D02*
Y0017194D01*
X-0004126Y0017694D02*
X-0004626D01*
X-0004126Y0017194D02*
Y0017694D01*
X-0004626Y0017194D02*
X-0004126D01*
Y0017694D02*
X-0004626Y0017194D01*
X-0004126D02*
X-0004626Y0017694D01*
X-0005009D02*
Y0017194D01*
X-0004509Y0017694D02*
X-0005009D01*
X-0004509Y0017194D02*
Y0017694D01*
X-0005009Y0017194D02*
X-0004509D01*
Y0017694D02*
X-0005009Y0017194D01*
X-0004509D02*
X-0005009Y0017694D01*
X-0005393D02*
Y0017194D01*
X-0004893Y0017694D02*
X-0005393D01*
X-0004893Y0017194D02*
Y0017694D01*
X-0005393Y0017194D02*
X-0004893D01*
Y0017694D02*
X-0005393Y0017194D01*
X-0004893D02*
X-0005393Y0017694D01*
X-0005816D02*
Y0017194D01*
X-0005316Y0017694D02*
X-0005816D01*
X-0005316Y0017194D02*
Y0017694D01*
X-0005816Y0017194D02*
X-0005316D01*
Y0017694D02*
X-0005816Y0017194D01*
X-0005316D02*
X-0005816Y0017694D01*
X-0006179D02*
Y0017194D01*
X-0005679Y0017694D02*
X-0006179D01*
X-0005679Y0017194D02*
Y0017694D01*
X-0006179Y0017194D02*
X-0005679D01*
Y0017694D02*
X-0006179Y0017194D01*
X-0005679D02*
X-0006179Y0017694D01*
X-0006564D02*
Y0017194D01*
X-0006064Y0017694D02*
X-0006564D01*
X-0006064Y0017194D02*
Y0017694D01*
X-0006564Y0017194D02*
X-0006064D01*
Y0017694D02*
X-0006564Y0017194D01*
X-0006064D02*
X-0006564Y0017694D01*
X-0009494Y0011530D02*
Y0011030D01*
X-0008994Y0011530D02*
X-0009494D01*
X-0008994Y0011030D02*
Y0011530D01*
X-0009494Y0011030D02*
X-0008994D01*
Y0011530D02*
X-0009494Y0011030D01*
X-0008994D02*
X-0009494Y0011530D01*
X-0008880Y0011588D02*
Y0011088D01*
X-0008380Y0011588D02*
X-0008880D01*
X-0008380Y0011088D02*
Y0011588D01*
X-0008880Y0011088D02*
X-0008380D01*
Y0011588D02*
X-0008880Y0011088D01*
X-0008380D02*
X-0008880Y0011588D01*
X-0009483Y0011942D02*
Y0011442D01*
X-0008983Y0011942D02*
X-0009483D01*
X-0008983Y0011442D02*
Y0011942D01*
X-0009483Y0011442D02*
X-0008983D01*
Y0011942D02*
X-0009483Y0011442D01*
X-0008983D02*
X-0009483Y0011942D01*
X-0009491Y0010096D02*
Y0009596D01*
X-0008991Y0010096D02*
X-0009491D01*
X-0008991Y0009596D02*
Y0010096D01*
X-0009491Y0009596D02*
X-0008991D01*
Y0010096D02*
X-0009491Y0009596D01*
X-0008991D02*
X-0009491Y0010096D01*
Y0009329D02*
Y0008829D01*
X-0008991Y0009329D02*
X-0009491D01*
X-0008991Y0008829D02*
Y0009329D01*
X-0009491Y0008829D02*
X-0008991D01*
Y0009329D02*
X-0009491Y0008829D01*
X-0008991D02*
X-0009491Y0009329D01*
Y0009729D02*
Y0009229D01*
X-0008991Y0009729D02*
X-0009491D01*
X-0008991Y0009229D02*
Y0009729D01*
X-0009491Y0009229D02*
X-0008991D01*
Y0009729D02*
X-0009491Y0009229D01*
X-0008991D02*
X-0009491Y0009729D01*
X-0006494Y0010241D02*
Y0009741D01*
X-0005994Y0010241D02*
X-0006494D01*
X-0005994Y0009741D02*
Y0010241D01*
X-0006494Y0009741D02*
X-0005994D01*
Y0010241D02*
X-0006494Y0009741D01*
X-0005994D02*
X-0006494Y0010241D01*
X-0004282Y-0007636D02*
Y-0008136D01*
X-0003782Y-0007636D02*
X-0004282D01*
X-0003782Y-0008136D02*
Y-0007636D01*
X-0004282Y-0008136D02*
X-0003782D01*
Y-0007636D02*
X-0004282Y-0008136D01*
X-0003782D02*
X-0004282Y-0007636D01*
X-0003852Y-0008233D02*
Y-0008733D01*
X-0003352Y-0008233D02*
X-0003852D01*
X-0003352Y-0008733D02*
Y-0008233D01*
X-0003852Y-0008733D02*
X-0003352D01*
Y-0008233D02*
X-0003852Y-0008733D01*
X-0003352D02*
X-0003852Y-0008233D01*
X-0004282Y-0008797D02*
Y-0009297D01*
X-0003782Y-0008797D02*
X-0004282D01*
X-0003782Y-0009297D02*
Y-0008797D01*
X-0004282Y-0009297D02*
X-0003782D01*
Y-0008797D02*
X-0004282Y-0009297D01*
X-0003782D02*
X-0004282Y-0008797D01*
X-0004645Y-0008236D02*
Y-0008736D01*
X-0004145Y-0008236D02*
X-0004645D01*
X-0004145Y-0008736D02*
Y-0008236D01*
X-0004645Y-0008736D02*
X-0004145D01*
Y-0008236D02*
X-0004645Y-0008736D01*
X-0004145D02*
X-0004645Y-0008236D01*
X-0004282Y-0010340D02*
Y-0010840D01*
X-0003782Y-0010340D02*
X-0004282D01*
X-0003782Y-0010840D02*
Y-0010340D01*
X-0004282Y-0010840D02*
X-0003782D01*
Y-0010340D02*
X-0004282Y-0010840D01*
X-0003782D02*
X-0004282Y-0010340D01*
X-0003878Y-0009741D02*
Y-0010241D01*
X-0003378Y-0009741D02*
X-0003878D01*
X-0003378Y-0010241D02*
Y-0009741D01*
X-0003878Y-0010241D02*
X-0003378D01*
Y-0009741D02*
X-0003878Y-0010241D01*
X-0003378D02*
X-0003878Y-0009741D01*
X-0004282Y-0009131D02*
Y-0009631D01*
X-0003782Y-0009131D02*
X-0004282D01*
X-0003782Y-0009631D02*
Y-0009131D01*
X-0004282Y-0009631D02*
X-0003782D01*
Y-0009131D02*
X-0004282Y-0009631D01*
X-0003782D02*
X-0004282Y-0009131D01*
X-0004606Y-0009731D02*
Y-0010231D01*
X-0004106Y-0009731D02*
X-0004606D01*
X-0004106Y-0010231D02*
Y-0009731D01*
X-0004606Y-0010231D02*
X-0004106D01*
Y-0009731D02*
X-0004606Y-0010231D01*
X-0004106D02*
X-0004606Y-0009731D01*
X-0006887Y0009761D02*
Y0009261D01*
X-0006387Y0009761D02*
X-0006887D01*
X-0006387Y0009261D02*
Y0009761D01*
X-0006887Y0009261D02*
X-0006387D01*
Y0009761D02*
X-0006887Y0009261D01*
X-0006387D02*
X-0006887Y0009761D01*
X-0010988Y0010083D02*
Y0009583D01*
X-0010488Y0010083D02*
X-0010988D01*
X-0010488Y0009583D02*
Y0010083D01*
X-0010988Y0009583D02*
X-0010488D01*
Y0010083D02*
X-0010988Y0009583D01*
X-0010488D02*
X-0010988Y0010083D01*
Y0009375D02*
Y0008875D01*
X-0010488Y0009375D02*
X-0010988D01*
X-0010488Y0008875D02*
Y0009375D01*
X-0010988Y0008875D02*
X-0010488D01*
Y0009375D02*
X-0010988Y0008875D01*
X-0010488D02*
X-0010988Y0009375D01*
X-0010437Y0009729D02*
Y0009229D01*
X-0009937Y0009729D02*
X-0010437D01*
X-0009937Y0009229D02*
Y0009729D01*
X-0010437Y0009229D02*
X-0009937D01*
Y0009729D02*
X-0010437Y0009229D01*
X-0009937D02*
X-0010437Y0009729D01*
X-0011548D02*
Y0009229D01*
X-0011048Y0009729D02*
X-0011548D01*
X-0011048Y0009229D02*
Y0009729D01*
X-0011548Y0009229D02*
X-0011048D01*
Y0009729D02*
X-0011548Y0009229D01*
X-0011048D02*
X-0011548Y0009729D01*
X-0010989Y0009734D02*
Y0009234D01*
X-0010489Y0009734D02*
X-0010989D01*
X-0010489Y0009234D02*
Y0009734D01*
X-0010989Y0009234D02*
X-0010489D01*
Y0009734D02*
X-0010989Y0009234D01*
X-0010489D02*
X-0010989Y0009734D01*
X-0008981Y0006814D02*
Y0006314D01*
X-0008481Y0006814D02*
X-0008981D01*
X-0008481Y0006314D02*
Y0006814D01*
X-0008981Y0006314D02*
X-0008481D01*
Y0006814D02*
X-0008981Y0006314D01*
X-0008481D02*
X-0008981Y0006814D01*
X-0008313Y0006524D02*
Y0006024D01*
X-0007813Y0006524D02*
X-0008313D01*
X-0007813Y0006024D02*
Y0006524D01*
X-0008313Y0006024D02*
X-0007813D01*
Y0006524D02*
X-0008313Y0006024D01*
X-0007813D02*
X-0008313Y0006524D01*
X-0008131Y0006814D02*
Y0006314D01*
X-0007631Y0006814D02*
X-0008131D01*
X-0007631Y0006314D02*
Y0006814D01*
X-0008131Y0006314D02*
X-0007631D01*
Y0006814D02*
X-0008131Y0006314D01*
X-0007631D02*
X-0008131Y0006814D01*
X-0008476D02*
Y0006314D01*
X-0007976Y0006814D02*
X-0008476D01*
X-0007976Y0006314D02*
Y0006814D01*
X-0008476Y0006314D02*
X-0007976D01*
Y0006814D02*
X-0008476Y0006314D01*
X-0007976D02*
X-0008476Y0006814D01*
X0003762Y-0001589D02*
Y-0002089D01*
X0004262Y-0001589D02*
X0003762D01*
X0004262Y-0002089D02*
Y-0001589D01*
X0003762Y-0002089D02*
X0004262D01*
Y-0001589D02*
X0003762Y-0002089D01*
X0004262D02*
X0003762Y-0001589D01*
X-0000692Y0009021D02*
Y0008521D01*
X-0000192Y0009021D02*
X-0000692D01*
X-0000192Y0008521D02*
Y0009021D01*
X-0000692Y0008521D02*
X-0000192D01*
Y0009021D02*
X-0000692Y0008521D01*
X-0000192D02*
X-0000692Y0009021D01*
X-0013366Y0001564D02*
Y0001064D01*
X-0012866Y0001564D02*
X-0013366D01*
X-0012866Y0001064D02*
Y0001564D01*
X-0013366Y0001064D02*
X-0012866D01*
Y0001564D02*
X-0013366Y0001064D01*
X-0012866D02*
X-0013366Y0001564D01*
X-0002236Y-0008374D02*
Y-0008874D01*
X-0001736Y-0008374D02*
X-0002236D01*
X-0001736Y-0008874D02*
Y-0008374D01*
X-0002236Y-0008874D02*
X-0001736D01*
Y-0008374D02*
X-0002236Y-0008874D01*
X-0001736D02*
X-0002236Y-0008374D01*
X-0004242Y-0006024D02*
Y-0006524D01*
X-0003742Y-0006024D02*
X-0004242D01*
X-0003742Y-0006524D02*
Y-0006024D01*
X-0004242Y-0006524D02*
X-0003742D01*
Y-0006024D02*
X-0004242Y-0006524D01*
X-0003742D02*
X-0004242Y-0006024D01*
X-0003215Y-0006048D02*
Y-0006548D01*
X-0002715Y-0006048D02*
X-0003215D01*
X-0002715Y-0006548D02*
Y-0006048D01*
X-0003215Y-0006548D02*
X-0002715D01*
Y-0006048D02*
X-0003215Y-0006548D01*
X-0002715D02*
X-0003215Y-0006048D01*
X-0000997Y0001155D02*
Y0000655D01*
X-0000497Y0001155D02*
X-0000997D01*
X-0000497Y0000655D02*
Y0001155D01*
X-0000997Y0000655D02*
X-0000497D01*
Y0001155D02*
X-0000997Y0000655D01*
X-0000497D02*
X-0000997Y0001155D01*
Y0002354D02*
Y0001854D01*
X-0000497Y0002354D02*
X-0000997D01*
X-0000497Y0001854D02*
Y0002354D01*
X-0000997Y0001854D02*
X-0000497D01*
Y0002354D02*
X-0000997Y0001854D01*
X-0000497D02*
X-0000997Y0002354D01*
X-0004498Y0007802D02*
Y0007302D01*
X-0003998Y0007802D02*
X-0004498D01*
X-0003998Y0007302D02*
Y0007802D01*
X-0004498Y0007302D02*
X-0003998D01*
Y0007802D02*
X-0004498Y0007302D01*
X-0003998D02*
X-0004498Y0007802D01*
X0001382Y0006288D02*
Y0005788D01*
X0001882Y0006288D02*
X0001382D01*
X0001882Y0005788D02*
Y0006288D01*
X0001382Y0005788D02*
X0001882D01*
Y0006288D02*
X0001382Y0005788D01*
X0001882D02*
X0001382Y0006288D01*
X-0007743Y-0009013D02*
Y-0009513D01*
X-0007243Y-0009013D02*
X-0007743D01*
X-0007243Y-0009513D02*
Y-0009013D01*
X-0007743Y-0009513D02*
X-0007243D01*
Y-0009013D02*
X-0007743Y-0009513D01*
X-0007243D02*
X-0007743Y-0009013D01*
X-0007448Y-0008603D02*
Y-0009103D01*
X-0006948Y-0008603D02*
X-0007448D01*
X-0006948Y-0009103D02*
Y-0008603D01*
X-0007448Y-0009103D02*
X-0006948D01*
Y-0008603D02*
X-0007448Y-0009103D01*
X-0006948D02*
X-0007448Y-0008603D01*
X-0006081Y-0008983D02*
Y-0009483D01*
X-0005581Y-0008983D02*
X-0006081D01*
X-0005581Y-0009483D02*
Y-0008983D01*
X-0006081Y-0009483D02*
X-0005581D01*
Y-0008983D02*
X-0006081Y-0009483D01*
X-0005581D02*
X-0006081Y-0008983D01*
X-0007156Y-0007462D02*
Y-0007962D01*
X-0006656Y-0007462D02*
X-0007156D01*
X-0006656Y-0007962D02*
Y-0007462D01*
X-0007156Y-0007962D02*
X-0006656D01*
Y-0007462D02*
X-0007156Y-0007962D01*
X-0006656D02*
X-0007156Y-0007462D01*
X-0008746Y-0004991D02*
Y-0005491D01*
X-0008246Y-0004991D02*
X-0008746D01*
X-0008246Y-0005491D02*
Y-0004991D01*
X-0008746Y-0005491D02*
X-0008246D01*
Y-0004991D02*
X-0008746Y-0005491D01*
X-0008246D02*
X-0008746Y-0004991D01*
X-0011138Y-0003034D02*
Y-0003534D01*
X-0010638Y-0003034D02*
X-0011138D01*
X-0010638Y-0003534D02*
Y-0003034D01*
X-0011138Y-0003534D02*
X-0010638D01*
Y-0003034D02*
X-0011138Y-0003534D01*
X-0010638D02*
X-0011138Y-0003034D01*
X-0016308Y-0000723D02*
Y-0001223D01*
X-0015808Y-0000723D02*
X-0016308D01*
X-0015808Y-0001223D02*
Y-0000723D01*
X-0016308Y-0001223D02*
X-0015808D01*
Y-0000723D02*
X-0016308Y-0001223D01*
X-0015808D02*
X-0016308Y-0000723D01*
X-0016200Y0001784D02*
Y0001284D01*
X-0015700Y0001784D02*
X-0016200D01*
X-0015700Y0001284D02*
Y0001784D01*
X-0016200Y0001284D02*
X-0015700D01*
Y0001784D02*
X-0016200Y0001284D01*
X-0015700D02*
X-0016200Y0001784D01*
X-0018999Y-0004932D02*
Y-0005432D01*
X-0018499Y-0004932D02*
X-0018999D01*
X-0018499Y-0005432D02*
Y-0004932D01*
X-0018999Y-0005432D02*
X-0018499D01*
Y-0004932D02*
X-0018999Y-0005432D01*
X-0018499D02*
X-0018999Y-0004932D01*
X0019471Y-0007563D02*
Y-0008063D01*
X0019971Y-0007563D02*
X0019471D01*
X0019971Y-0008063D02*
Y-0007563D01*
X0019471Y-0008063D02*
X0019971D01*
Y-0007563D02*
X0019471Y-0008063D01*
X0019971D02*
X0019471Y-0007563D01*
X0005666Y0008942D02*
Y0008442D01*
X0006166Y0008942D02*
X0005666D01*
X0006166Y0008442D02*
Y0008942D01*
X0005666Y0008442D02*
X0006166D01*
Y0008942D02*
X0005666Y0008442D01*
X0006166D02*
X0005666Y0008942D01*
X0000537Y0008136D02*
Y0007636D01*
X0001037Y0008136D02*
X0000537D01*
X0001037Y0007636D02*
Y0008136D01*
X0000537Y0007636D02*
X0001037D01*
Y0008136D02*
X0000537Y0007636D01*
X0001037D02*
X0000537Y0008136D01*
X0000202Y0008353D02*
Y0007853D01*
X0000702Y0008353D02*
X0000202D01*
X0000702Y0007853D02*
Y0008353D01*
X0000202Y0007853D02*
X0000702D01*
Y0008353D02*
X0000202Y0007853D01*
X0000702D02*
X0000202Y0008353D01*
X-0019216Y-0006894D02*
Y-0007394D01*
X-0018716Y-0006894D02*
X-0019216D01*
X-0018716Y-0007394D02*
Y-0006894D01*
X-0019216Y-0007394D02*
X-0018716D01*
Y-0006894D02*
X-0019216Y-0007394D01*
X-0018716D02*
X-0019216Y-0006894D01*
X0006968Y-0000163D02*
Y-0000663D01*
X0007468Y-0000163D02*
X0006968D01*
X0007468Y-0000663D02*
Y-0000163D01*
X0006968Y-0000663D02*
X0007468D01*
Y-0000163D02*
X0006968Y-0000663D01*
X0007468D02*
X0006968Y-0000163D01*
X0005591Y-0000301D02*
Y-0000801D01*
X0006091Y-0000301D02*
X0005591D01*
X0006091Y-0000801D02*
Y-0000301D01*
X0005591Y-0000801D02*
X0006091D01*
Y-0000301D02*
X0005591Y-0000801D01*
X0006091D02*
X0005591Y-0000301D01*
X0008187Y-0001776D02*
Y-0002276D01*
X0008687Y-0001776D02*
X0008187D01*
X0008687Y-0002276D02*
Y-0001776D01*
X0008187Y-0002276D02*
X0008687D01*
Y-0001776D02*
X0008187Y-0002276D01*
X0008687D02*
X0008187Y-0001776D01*
X0007248Y-0003246D02*
Y-0003746D01*
X0007748Y-0003246D02*
X0007248D01*
X0007748Y-0003746D02*
Y-0003246D01*
X0007248Y-0003746D02*
X0007748D01*
Y-0003246D02*
X0007248Y-0003746D01*
X0007748D02*
X0007248Y-0003246D01*
X0007263Y-0005139D02*
Y-0005639D01*
X0007763Y-0005139D02*
X0007263D01*
X0007763Y-0005639D02*
Y-0005139D01*
X0007263Y-0005639D02*
X0007763D01*
Y-0005139D02*
X0007263Y-0005639D01*
X0007763D02*
X0007263Y-0005139D01*
X0005296Y-0001245D02*
Y-0001745D01*
X0005796Y-0001245D02*
X0005296D01*
X0005796Y-0001745D02*
Y-0001245D01*
X0005296Y-0001745D02*
X0005796D01*
Y-0001245D02*
X0005296Y-0001745D01*
X0005796D02*
X0005296Y-0001245D01*
X0007248Y-0001909D02*
Y-0002409D01*
X0007748Y-0001909D02*
X0007248D01*
X0007748Y-0002409D02*
Y-0001909D01*
X0007248Y-0002409D02*
X0007748D01*
Y-0001909D02*
X0007248Y-0002409D01*
X0007748D02*
X0007248Y-0001909D01*
X0008187Y-0002336D02*
Y-0002836D01*
X0008687Y-0002336D02*
X0008187D01*
X0008687Y-0002836D02*
Y-0002336D01*
X0008187Y-0002836D02*
X0008687D01*
Y-0002336D02*
X0008187Y-0002836D01*
X0008687D02*
X0008187Y-0002336D01*
X0008979Y-0004522D02*
Y-0005022D01*
X0009479Y-0004522D02*
X0008979D01*
X0009479Y-0005022D02*
Y-0004522D01*
X0008979Y-0005022D02*
X0009479D01*
Y-0004522D02*
X0008979Y-0005022D01*
X0009479D02*
X0008979Y-0004522D01*
Y-0002554D02*
Y-0003054D01*
X0009479Y-0002554D02*
X0008979D01*
X0009479Y-0003054D02*
Y-0002554D01*
X0008979Y-0003054D02*
X0009479D01*
Y-0002554D02*
X0008979Y-0003054D01*
X0009479D02*
X0008979Y-0002554D01*
X0008993Y-0003546D02*
Y-0004046D01*
X0009493Y-0003546D02*
X0008993D01*
X0009493Y-0004046D02*
Y-0003546D01*
X0008993Y-0004046D02*
X0009493D01*
Y-0003546D02*
X0008993Y-0004046D01*
X0009493D02*
X0008993Y-0003546D01*
X0008816Y-0000596D02*
Y-0001096D01*
X0009316Y-0000596D02*
X0008816D01*
X0009316Y-0001096D02*
Y-0000596D01*
X0008816Y-0001096D02*
X0009316D01*
Y-0000596D02*
X0008816Y-0001096D01*
X0009316D02*
X0008816Y-0000596D01*
X0008974Y-0005473D02*
Y-0005973D01*
X0009474Y-0005473D02*
X0008974D01*
X0009474Y-0005973D02*
Y-0005473D01*
X0008974Y-0005973D02*
X0009474D01*
Y-0005473D02*
X0008974Y-0005973D01*
X0009474D02*
X0008974Y-0005473D01*
Y-0006161D02*
Y-0006661D01*
X0009474Y-0006161D02*
X0008974D01*
X0009474Y-0006661D02*
Y-0006161D01*
X0008974Y-0006661D02*
X0009474D01*
Y-0006161D02*
X0008974Y-0006661D01*
X0009474D02*
X0008974Y-0006161D01*
Y0001253D02*
Y0000753D01*
X0009474Y0001253D02*
X0008974D01*
X0009474Y0000753D02*
Y0001253D01*
X0008974Y0000753D02*
X0009474D01*
Y0001253D02*
X0008974Y0000753D01*
X0009474D02*
X0008974Y0001253D01*
X0009762Y0000800D02*
Y0000300D01*
X0010262Y0000800D02*
X0009762D01*
X0010262Y0000300D02*
Y0000800D01*
X0009762Y0000300D02*
X0010262D01*
Y0000800D02*
X0009762Y0000300D01*
X0010262D02*
X0009762Y0000800D01*
X0003316Y0009238D02*
Y0008738D01*
X0003816Y0009238D02*
X0003316D01*
X0003816Y0008738D02*
Y0009238D01*
X0003316Y0008738D02*
X0003816D01*
Y0009238D02*
X0003316Y0008738D01*
X0003816D02*
X0003316Y0009238D01*
X0005852Y0010722D02*
Y0010222D01*
X0006352Y0010722D02*
X0005852D01*
X0006352Y0010222D02*
Y0010722D01*
X0005852Y0010222D02*
X0006352D01*
Y0010722D02*
X0005852Y0010222D01*
X0006352D02*
X0005852Y0010722D01*
X-0002167Y-0007617D02*
Y-0008117D01*
X-0001667Y-0007617D02*
X-0002167D01*
X-0001667Y-0008117D02*
Y-0007617D01*
X-0002167Y-0008117D02*
X-0001667D01*
Y-0007617D02*
X-0002167Y-0008117D01*
X-0001667D02*
X-0002167Y-0007617D01*
X0003998Y-0000517D02*
Y-0001017D01*
X0004498Y-0000517D02*
X0003998D01*
X0004498Y-0001017D02*
Y-0000517D01*
X0003998Y-0001017D02*
X0004498D01*
Y-0000517D02*
X0003998Y-0001017D01*
X0004498D02*
X0003998Y-0000517D01*
X0002533Y-0007656D02*
Y-0008156D01*
X0003033Y-0007656D02*
X0002533D01*
X0003033Y-0008156D02*
Y-0007656D01*
X0002533Y-0008156D02*
X0003033D01*
Y-0007656D02*
X0002533Y-0008156D01*
X0003033D02*
X0002533Y-0007656D01*
X-0015610Y0012905D02*
Y0012405D01*
X-0015110Y0012905D02*
X-0015610D01*
X-0015110Y0012405D02*
Y0012905D01*
X-0015610Y0012405D02*
X-0015110D01*
Y0012905D02*
X-0015610Y0012405D01*
X-0015110D02*
X-0015610Y0012905D01*
X-0018900Y0006874D02*
Y0006374D01*
X-0018400Y0006874D02*
X-0018900D01*
X-0018400Y0006374D02*
Y0006874D01*
X-0018900Y0006374D02*
X-0018400D01*
Y0006874D02*
X-0018900Y0006374D01*
X-0018400D02*
X-0018900Y0006874D01*
X-0019024Y0005275D02*
Y0004775D01*
X-0018524Y0005275D02*
X-0019024D01*
X-0018524Y0004775D02*
Y0005275D01*
X-0019024Y0004775D02*
X-0018524D01*
Y0005275D02*
X-0019024Y0004775D01*
X-0018524D02*
X-0019024Y0005275D01*
X-0019974Y0004816D02*
Y0004316D01*
X-0019474Y0004816D02*
X-0019974D01*
X-0019474Y0004316D02*
Y0004816D01*
X-0019974Y0004316D02*
X-0019474D01*
Y0004816D02*
X-0019974Y0004316D01*
X-0019474D02*
X-0019974Y0004816D01*
X-0020231Y0004321D02*
Y0003821D01*
X-0019731Y0004321D02*
X-0020231D01*
X-0019731Y0003821D02*
Y0004321D01*
X-0020231Y0003821D02*
X-0019731D01*
Y0004321D02*
X-0020231Y0003821D01*
X-0019731D02*
X-0020231Y0004321D01*
X0016526Y0010103D02*
Y0009603D01*
X0017026Y0010103D02*
X0016526D01*
X0017026Y0009603D02*
Y0010103D01*
X0016526Y0009603D02*
X0017026D01*
Y0010103D02*
X0016526Y0009603D01*
X0017026D02*
X0016526Y0010103D01*
X0017070Y0008976D02*
Y0008476D01*
X0017570Y0008976D02*
X0017070D01*
X0017570Y0008476D02*
Y0008976D01*
X0017070Y0008476D02*
X0017570D01*
Y0008976D02*
X0017070Y0008476D01*
X0017570D02*
X0017070Y0008976D01*
X0016638Y-0010554D02*
Y-0011054D01*
X0017138Y-0010554D02*
X0016638D01*
X0017138Y-0011054D02*
Y-0010554D01*
X0016638Y-0011054D02*
X0017138D01*
Y-0010554D02*
X0016638Y-0011054D01*
X0017138D02*
X0016638Y-0010554D01*
X0018075Y-0008001D02*
Y-0008501D01*
X0018575Y-0008001D02*
X0018075D01*
X0018575Y-0008501D02*
Y-0008001D01*
X0018075Y-0008501D02*
X0018575D01*
Y-0008001D02*
X0018075Y-0008501D01*
X0018575D02*
X0018075Y-0008001D01*
X-0007251Y0007527D02*
Y0007027D01*
X-0006751Y0007527D02*
X-0007251D01*
X-0006751Y0007027D02*
Y0007527D01*
X-0007251Y0007027D02*
X-0006751D01*
Y0007527D02*
X-0007251Y0007027D01*
X-0006751D02*
X-0007251Y0007527D01*
X-0005796Y0007546D02*
Y0007046D01*
X-0005296Y0007546D02*
X-0005796D01*
X-0005296Y0007046D02*
Y0007546D01*
X-0005796Y0007046D02*
X-0005296D01*
Y0007546D02*
X-0005796Y0007046D01*
X-0005296D02*
X-0005796Y0007546D01*
X-0008608Y0000368D02*
Y-0000132D01*
X-0008108Y0000368D02*
X-0008608D01*
X-0008108Y-0000132D02*
Y0000368D01*
X-0008608Y-0000132D02*
X-0008108D01*
Y0000368D02*
X-0008608Y-0000132D01*
X-0008108D02*
X-0008608Y0000368D01*
X0003444Y0002510D02*
Y0002010D01*
X0003944Y0002510D02*
X0003444D01*
X0003944Y0002010D02*
Y0002510D01*
X0003444Y0002010D02*
X0003944D01*
Y0002510D02*
X0003444Y0002010D01*
X0003944D02*
X0003444Y0002510D01*
X-0001233Y0002649D02*
Y0002149D01*
X-0000733Y0002649D02*
X-0001233D01*
X-0000733Y0002149D02*
Y0002649D01*
X-0001233Y0002149D02*
X-0000733D01*
Y0002649D02*
X-0001233Y0002149D01*
X-0000733D02*
X-0001233Y0002649D01*
X-0002885Y0004360D02*
Y0003860D01*
X-0002385Y0004360D02*
X-0002885D01*
X-0002385Y0003860D02*
Y0004360D01*
X-0002885Y0003860D02*
X-0002385D01*
Y0004360D02*
X-0002885Y0003860D01*
X-0002385D02*
X-0002885Y0004360D01*
X-0014430Y-0001795D02*
Y-0002295D01*
X-0013930Y-0001795D02*
X-0014430D01*
X-0013930Y-0002295D02*
Y-0001795D01*
X-0014430Y-0002295D02*
X-0013930D01*
Y-0001795D02*
X-0014430Y-0002295D01*
X-0013930D02*
X-0014430Y-0001795D01*
X-0015116Y-0002446D02*
Y-0002946D01*
X-0014616Y-0002446D02*
X-0015116D01*
X-0014616Y-0002946D02*
Y-0002446D01*
X-0015116Y-0002946D02*
X-0014616D01*
Y-0002446D02*
X-0015116Y-0002946D01*
X-0014616D02*
X-0015116Y-0002446D01*
X-0011432Y-0000192D02*
Y-0000692D01*
X-0010932Y-0000192D02*
X-0011432D01*
X-0010932Y-0000692D02*
Y-0000192D01*
X-0011432Y-0000692D02*
X-0010932D01*
Y-0000192D02*
X-0011432Y-0000692D01*
X-0010932D02*
X-0011432Y-0000192D01*
X-0011381Y0001076D02*
Y0000576D01*
X-0010881Y0001076D02*
X-0011381D01*
X-0010881Y0000576D02*
Y0001076D01*
X-0011381Y0000576D02*
X-0010881D01*
Y0001076D02*
X-0011381Y0000576D01*
X-0010881D02*
X-0011381Y0001076D01*
X-0012268Y-0000560D02*
Y-0001060D01*
X-0011768Y-0000560D02*
X-0012268D01*
X-0011768Y-0001060D02*
Y-0000560D01*
X-0012268Y-0001060D02*
X-0011768D01*
Y-0000560D02*
X-0012268Y-0001060D01*
X-0011768D02*
X-0012268Y-0000560D01*
X-0013306Y-0000286D02*
Y-0000786D01*
X-0012806Y-0000286D02*
X-0013306D01*
X-0012806Y-0000786D02*
Y-0000286D01*
X-0013306Y-0000786D02*
X-0012806D01*
Y-0000286D02*
X-0013306Y-0000786D01*
X-0012806D02*
X-0013306Y-0000286D01*
X-0013672Y0000262D02*
Y-0000238D01*
X-0013172Y0000262D02*
X-0013672D01*
X-0013172Y-0000238D02*
Y0000262D01*
X-0013672Y-0000238D02*
X-0013172D01*
Y0000262D02*
X-0013672Y-0000238D01*
X-0013172D02*
X-0013672Y0000262D01*
X-0011930Y0001726D02*
Y0001226D01*
X-0011430Y0001726D02*
X-0011930D01*
X-0011430Y0001226D02*
Y0001726D01*
X-0011930Y0001226D02*
X-0011430D01*
Y0001726D02*
X-0011930Y0001226D01*
X-0011430D02*
X-0011930Y0001726D01*
X-0012974Y0002118D02*
Y0001618D01*
X-0012474Y0002118D02*
X-0012974D01*
X-0012474Y0001618D02*
Y0002118D01*
X-0012974Y0001618D02*
X-0012474D01*
Y0002118D02*
X-0012974Y0001618D01*
X-0012474D02*
X-0012974Y0002118D01*
X0004096Y0000506D02*
Y0000006D01*
X0004596Y0000506D02*
X0004096D01*
X0004596Y0000006D02*
Y0000506D01*
X0004096Y0000006D02*
X0004596D01*
Y0000506D02*
X0004096Y0000006D01*
X0004596D02*
X0004096Y0000506D01*
X0002975Y-0001520D02*
Y-0002020D01*
X0003475Y-0001520D02*
X0002975D01*
X0003475Y-0002020D02*
Y-0001520D01*
X0002975Y-0002020D02*
X0003475D01*
Y-0001520D02*
X0002975Y-0002020D01*
X0003475D02*
X0002975Y-0001520D01*
X-0004301Y-0001638D02*
Y-0002138D01*
X-0003801Y-0001638D02*
X-0004301D01*
X-0003801Y-0002138D02*
Y-0001638D01*
X-0004301Y-0002138D02*
X-0003801D01*
Y-0001638D02*
X-0004301Y-0002138D01*
X-0003801D02*
X-0004301Y-0001638D01*
X-0002295Y-0003900D02*
Y-0004400D01*
X-0001795Y-0003900D02*
X-0002295D01*
X-0001795Y-0004400D02*
Y-0003900D01*
X-0002295Y-0004400D02*
X-0001795D01*
Y-0003900D02*
X-0002295Y-0004400D01*
X-0001795D02*
X-0002295Y-0003900D01*
X0002346Y0008058D02*
Y0007558D01*
X0002846Y0008058D02*
X0002346D01*
X0002846Y0007558D02*
Y0008058D01*
X0002346Y0007558D02*
X0002846D01*
Y0008058D02*
X0002346Y0007558D01*
X0002846D02*
X0002346Y0008058D01*
X-0006307Y0004832D02*
Y0004332D01*
X-0005807Y0004832D02*
X-0006307D01*
X-0005807Y0004332D02*
Y0004832D01*
X-0006307Y0004332D02*
X-0005807D01*
Y0004832D02*
X-0006307Y0004332D01*
X-0005807D02*
X-0006307Y0004832D01*
X-0002059Y-0006358D02*
Y-0006858D01*
X-0001559Y-0006358D02*
X-0002059D01*
X-0001559Y-0006858D02*
Y-0006358D01*
X-0002059Y-0006858D02*
X-0001559D01*
Y-0006358D02*
X-0002059Y-0006858D01*
X-0001559D02*
X-0002059Y-0006358D01*
X0003467Y-0005650D02*
Y-0006150D01*
X0003967Y-0005650D02*
X0003467D01*
X0003967Y-0006150D02*
Y-0005650D01*
X0003467Y-0006150D02*
X0003967D01*
Y-0005650D02*
X0003467Y-0006150D01*
X0003967D02*
X0003467Y-0005650D01*
X0003440Y0003076D02*
Y0002576D01*
X0003940Y0003076D02*
X0003440D01*
X0003940Y0002576D02*
Y0003076D01*
X0003440Y0002576D02*
X0003940D01*
Y0003076D02*
X0003440Y0002576D01*
X0003940D02*
X0003440Y0003076D01*
X-0004459Y0006366D02*
Y0005866D01*
X-0003959Y0006366D02*
X-0004459D01*
X-0003959Y0005866D02*
Y0006366D01*
X-0004459Y0005866D02*
X-0003959D01*
Y0006366D02*
X-0004459Y0005866D01*
X-0003959D02*
X-0004459Y0006366D01*
X-0012742Y-0001877D02*
Y-0002377D01*
X-0012242Y-0001877D02*
X-0012742D01*
X-0012242Y-0002377D02*
Y-0001877D01*
X-0012742Y-0002377D02*
X-0012242D01*
Y-0001877D02*
X-0012742Y-0002377D01*
X-0012242D02*
X-0012742Y-0001877D01*
X0003762Y-0002149D02*
Y-0002649D01*
X0004262Y-0002149D02*
X0003762D01*
X0004262Y-0002649D02*
Y-0002149D01*
X0003762Y-0002649D02*
X0004262D01*
Y-0002149D02*
X0003762Y-0002649D01*
X0004262D02*
X0003762Y-0002149D01*
X-0002866Y-0003605D02*
Y-0004105D01*
X-0002366Y-0003605D02*
X-0002866D01*
X-0002366Y-0004105D02*
Y-0003605D01*
X-0002866Y-0004105D02*
X-0002366D01*
Y-0003605D02*
X-0002866Y-0004105D01*
X-0002366D02*
X-0002866Y-0003605D01*
X-0002646Y-0002066D02*
Y-0002566D01*
X-0002146Y-0002066D02*
X-0002646D01*
X-0002146Y-0002566D02*
Y-0002066D01*
X-0002646Y-0002566D02*
X-0002146D01*
Y-0002066D02*
X-0002646Y-0002566D01*
X-0002146D02*
X-0002646Y-0002066D01*
X-0000683Y0007900D02*
Y0007400D01*
X-0000183Y0007900D02*
X-0000683D01*
X-0000183Y0007400D02*
Y0007900D01*
X-0000683Y0007400D02*
X-0000183D01*
Y0007900D02*
X-0000683Y0007400D01*
X-0000183D02*
X-0000683Y0007900D01*
X-0000896Y-0002028D02*
Y-0002528D01*
X-0000396Y-0002028D02*
X-0000896D01*
X-0000396Y-0002528D02*
Y-0002028D01*
X-0000896Y-0002528D02*
X-0000396D01*
Y-0002028D02*
X-0000896Y-0002528D01*
X-0000396D02*
X-0000896Y-0002028D01*
X0000202Y-0005394D02*
Y-0005894D01*
X0000702Y-0005394D02*
X0000202D01*
X0000702Y-0005894D02*
Y-0005394D01*
X0000202Y-0005894D02*
X0000702D01*
Y-0005394D02*
X0000202Y-0005894D01*
X0000702D02*
X0000202Y-0005394D01*
X0003762Y0004400D02*
Y0003900D01*
X0004262Y0004400D02*
X0003762D01*
X0004262Y0003900D02*
Y0004400D01*
X0003762Y0003900D02*
X0004262D01*
Y0004400D02*
X0003762Y0003900D01*
X0004262D02*
X0003762Y0004400D01*
X0001481Y-0005532D02*
Y-0006032D01*
X0001981Y-0005532D02*
X0001481D01*
X0001981Y-0006032D02*
Y-0005532D01*
X0001481Y-0006032D02*
X0001981D01*
Y-0005532D02*
X0001481Y-0006032D01*
X0001981D02*
X0001481Y-0005532D01*
X-0000584Y-0005394D02*
Y-0005894D01*
X-0000084Y-0005394D02*
X-0000584D01*
X-0000084Y-0005894D02*
Y-0005394D01*
X-0000584Y-0005894D02*
X-0000084D01*
Y-0005394D02*
X-0000584Y-0005894D01*
X-0000084D02*
X-0000584Y-0005394D01*
X-0001332Y-0005512D02*
Y-0006012D01*
X-0000832Y-0005512D02*
X-0001332D01*
X-0000832Y-0006012D02*
Y-0005512D01*
X-0001332Y-0006012D02*
X-0000832D01*
Y-0005512D02*
X-0001332Y-0006012D01*
X-0000832D02*
X-0001332Y-0005512D01*
X-0010100Y0001174D02*
Y0000674D01*
X-0009600Y0001174D02*
X-0010100D01*
X-0009600Y0000674D02*
Y0001174D01*
X-0010100Y0000674D02*
X-0009600D01*
Y0001174D02*
X-0010100Y0000674D01*
X-0009600D02*
X-0010100Y0001174D01*
X-0008907Y-0000776D02*
Y-0001276D01*
X-0008407Y-0000776D02*
X-0008907D01*
X-0008407Y-0001276D02*
Y-0000776D01*
X-0008907Y-0001276D02*
X-0008407D01*
Y-0000776D02*
X-0008907Y-0001276D01*
X-0008407D02*
X-0008907Y-0000776D01*
X-0007527Y0000997D02*
Y0000497D01*
X-0007027Y0000997D02*
X-0007527D01*
X-0007027Y0000497D02*
Y0000997D01*
X-0007527Y0000497D02*
X-0007027D01*
Y0000997D02*
X-0007527Y0000497D01*
X-0007027D02*
X-0007527Y0000997D01*
X-0013922Y0002476D02*
Y0001976D01*
X-0013422Y0002476D02*
X-0013922D01*
X-0013422Y0001976D02*
Y0002476D01*
X-0013922Y0001976D02*
X-0013422D01*
Y0002476D02*
X-0013922Y0001976D01*
X-0013422D02*
X-0013922Y0002476D01*
X-0014567Y0000250D02*
Y-0000250D01*
X-0014067Y0000250D02*
X-0014567D01*
X-0014067Y-0000250D02*
Y0000250D01*
X-0014567Y-0000250D02*
X-0014067D01*
Y0000250D02*
X-0014567Y-0000250D01*
X-0014067D02*
X-0014567Y0000250D01*
X-0012266Y-0001441D02*
Y-0001941D01*
X-0011766Y-0001441D02*
X-0012266D01*
X-0011766Y-0001941D02*
Y-0001441D01*
X-0012266Y-0001941D02*
X-0011766D01*
Y-0001441D02*
X-0012266Y-0001941D01*
X-0011766D02*
X-0012266Y-0001441D01*
X-0010595Y0001076D02*
Y0000576D01*
X-0010095Y0001076D02*
X-0010595D01*
X-0010095Y0000576D02*
Y0001076D01*
X-0010595Y0000576D02*
X-0010095D01*
Y0001076D02*
X-0010595Y0000576D01*
X-0010095D02*
X-0010595Y0001076D01*
X-0011562Y0002430D02*
Y0001930D01*
X-0011062Y0002430D02*
X-0011562D01*
X-0011062Y0001930D02*
Y0002430D01*
X-0011562Y0001930D02*
X-0011062D01*
Y0002430D02*
X-0011562Y0001930D01*
X-0011062D02*
X-0011562Y0002430D01*
X-0010850Y-0000576D02*
Y-0001076D01*
X-0010350Y-0000576D02*
X-0010850D01*
X-0010350Y-0001076D02*
Y-0000576D01*
X-0010850Y-0001076D02*
X-0010350D01*
Y-0000576D02*
X-0010850Y-0001076D01*
X-0010350D02*
X-0010850Y-0000576D01*
X-0013332Y-0001150D02*
Y-0001650D01*
X-0012832Y-0001150D02*
X-0013332D01*
X-0012832Y-0001650D02*
Y-0001150D01*
X-0013332Y-0001650D02*
X-0012832D01*
Y-0001150D02*
X-0013332Y-0001650D01*
X-0012832D02*
X-0013332Y-0001150D01*
X-0014328Y0001584D02*
Y0001084D01*
X-0013828Y0001584D02*
X-0014328D01*
X-0013828Y0001084D02*
Y0001584D01*
X-0014328Y0001084D02*
X-0013828D01*
Y0001584D02*
X-0014328Y0001084D01*
X-0013828D02*
X-0014328Y0001584D01*
X-0015085Y0002774D02*
Y0002274D01*
X-0014585Y0002774D02*
X-0015085D01*
X-0014585Y0002274D02*
Y0002774D01*
X-0015085Y0002274D02*
X-0014585D01*
Y0002774D02*
X-0015085Y0002274D01*
X-0014585D02*
X-0015085Y0002774D01*
X-0015079Y0001843D02*
Y0001343D01*
X-0014579Y0001843D02*
X-0015079D01*
X-0014579Y0001343D02*
Y0001843D01*
X-0015079Y0001343D02*
X-0014579D01*
Y0001843D02*
X-0015079Y0001343D01*
X-0014579D02*
X-0015079Y0001843D01*
X-0014960Y-0001368D02*
Y-0001868D01*
X-0014460Y-0001368D02*
X-0014960D01*
X-0014460Y-0001868D02*
Y-0001368D01*
X-0014960Y-0001868D02*
X-0014460D01*
Y-0001368D02*
X-0014960Y-0001868D01*
X-0014460D02*
X-0014960Y-0001368D01*
X-0014961Y-0000773D02*
Y-0001273D01*
X-0014461Y-0000773D02*
X-0014961D01*
X-0014461Y-0001273D02*
Y-0000773D01*
X-0014961Y-0001273D02*
X-0014461D01*
Y-0000773D02*
X-0014961Y-0001273D01*
X-0014461D02*
X-0014961Y-0000773D01*
X-0015079Y0000014D02*
Y-0000486D01*
X-0014579Y0000014D02*
X-0015079D01*
X-0014579Y-0000486D02*
Y0000014D01*
X-0015079Y-0000486D02*
X-0014579D01*
Y0000014D02*
X-0015079Y-0000486D01*
X-0014579D02*
X-0015079Y0000014D01*
X-0013722Y-0001953D02*
Y-0002453D01*
X-0013222Y-0001953D02*
X-0013722D01*
X-0013222Y-0002453D02*
Y-0001953D01*
X-0013722Y-0002453D02*
X-0013222D01*
Y-0001953D02*
X-0013722Y-0002453D01*
X-0013222D02*
X-0013722Y-0001953D01*
X-0013526Y-0002930D02*
Y-0003430D01*
X-0013026Y-0002930D02*
X-0013526D01*
X-0013026Y-0003430D02*
Y-0002930D01*
X-0013526Y-0003430D02*
X-0013026D01*
Y-0002930D02*
X-0013526Y-0003430D01*
X-0013026D02*
X-0013526Y-0002930D01*
X-0011162Y-0001949D02*
Y-0002449D01*
X-0010662Y-0001949D02*
X-0011162D01*
X-0010662Y-0002449D02*
Y-0001949D01*
X-0011162Y-0002449D02*
X-0010662D01*
Y-0001949D02*
X-0011162Y-0002449D01*
X-0010662D02*
X-0011162Y-0001949D01*
X-0009982Y-0001366D02*
Y-0001866D01*
X-0009482Y-0001366D02*
X-0009982D01*
X-0009482Y-0001866D02*
Y-0001366D01*
X-0009982Y-0001866D02*
X-0009482D01*
Y-0001366D02*
X-0009982Y-0001866D01*
X-0009482D02*
X-0009982Y-0001366D01*
X-0010005Y0000014D02*
Y-0000486D01*
X-0009505Y0000014D02*
X-0010005D01*
X-0009505Y-0000486D02*
Y0000014D01*
X-0010005Y-0000486D02*
X-0009505D01*
Y0000014D02*
X-0010005Y-0000486D01*
X-0009505D02*
X-0010005Y0000014D01*
X-0010014Y0002138D02*
Y0001638D01*
X-0009514Y0002138D02*
X-0010014D01*
X-0009514Y0001638D02*
Y0002138D01*
X-0010014Y0001638D02*
X-0009514D01*
Y0002138D02*
X-0010014Y0001638D01*
X-0009514D02*
X-0010014Y0002138D01*
X-0008982Y0001784D02*
Y0001284D01*
X-0008482Y0001784D02*
X-0008982D01*
X-0008482Y0001284D02*
Y0001784D01*
X-0008982Y0001284D02*
X-0008482D01*
Y0001784D02*
X-0008982Y0001284D01*
X-0008482D02*
X-0008982Y0001784D01*
X-0010005Y0002767D02*
Y0002267D01*
X-0009505Y0002767D02*
X-0010005D01*
X-0009505Y0002267D02*
Y0002767D01*
X-0010005Y0002267D02*
X-0009505D01*
Y0002767D02*
X-0010005Y0002267D01*
X-0009505D02*
X-0010005Y0002767D01*
X-0010772Y0003200D02*
Y0002700D01*
X-0010272Y0003200D02*
X-0010772D01*
X-0010272Y0002700D02*
Y0003200D01*
X-0010772Y0002700D02*
X-0010272D01*
Y0003200D02*
X-0010772Y0002700D01*
X-0010272D02*
X-0010772Y0003200D01*
X-0011027Y0004419D02*
Y0003919D01*
X-0010527Y0004419D02*
X-0011027D01*
X-0010527Y0003919D02*
Y0004419D01*
X-0011027Y0003919D02*
X-0010527D01*
Y0004419D02*
X-0011027Y0003919D01*
X-0010527D02*
X-0011027Y0004419D01*
X-0013132Y0003200D02*
Y0002700D01*
X-0012632Y0003200D02*
X-0013132D01*
X-0012632Y0002700D02*
Y0003200D01*
X-0013132Y0002700D02*
X-0012632D01*
Y0003200D02*
X-0013132Y0002700D01*
X-0012632D02*
X-0013132Y0003200D01*
X-0015354Y-0011943D02*
Y-0012443D01*
X-0014854Y-0011943D02*
X-0015354D01*
X-0014854Y-0012443D02*
Y-0011943D01*
X-0015354Y-0012443D02*
X-0014854D01*
Y-0011943D02*
X-0015354Y-0012443D01*
X-0014854D02*
X-0015354Y-0011943D01*
X0001741Y-0006284D02*
Y-0006784D01*
X0002241Y-0006284D02*
X0001741D01*
X0002241Y-0006784D02*
Y-0006284D01*
X0001741Y-0006784D02*
X0002241D01*
Y-0006284D02*
X0001741Y-0006784D01*
X0002241D02*
X0001741Y-0006284D01*
X0000080Y-0006264D02*
Y-0006764D01*
X0000580Y-0006264D02*
X0000080D01*
X0000580Y-0006764D02*
Y-0006264D01*
X0000080Y-0006764D02*
X0000580D01*
Y-0006264D02*
X0000080Y-0006764D01*
X0000580D02*
X0000080Y-0006264D01*
X-0014404Y-0013268D02*
Y-0013768D01*
X-0013904Y-0013268D02*
X-0014404D01*
X-0013904Y-0013768D02*
Y-0013268D01*
X-0014404Y-0013768D02*
X-0013904D01*
Y-0013268D02*
X-0014404Y-0013768D01*
X-0013904D02*
X-0014404Y-0013268D01*
X0002366Y0006366D02*
Y0005866D01*
X0002866Y0006366D02*
X0002366D01*
X0002866Y0005866D02*
Y0006366D01*
X0002366Y0005866D02*
X0002866D01*
Y0006366D02*
X0002366Y0005866D01*
X0002866D02*
X0002366Y0006366D01*
X0000025Y0008903D02*
Y0008403D01*
X0000525Y0008903D02*
X0000025D01*
X0000525Y0008403D02*
Y0008903D01*
X0000025Y0008403D02*
X0000525D01*
Y0008903D02*
X0000025Y0008403D01*
X0000525D02*
X0000025Y0008903D01*
X-0003780Y-0002068D02*
Y-0002568D01*
X-0003280Y-0002068D02*
X-0003780D01*
X-0003280Y-0002568D02*
Y-0002068D01*
X-0003780Y-0002568D02*
X-0003280D01*
Y-0002068D02*
X-0003780Y-0002568D01*
X-0003280D02*
X-0003780Y-0002068D01*
X0000537Y0007645D02*
Y0007145D01*
X0001037Y0007645D02*
X0000537D01*
X0001037Y0007145D02*
Y0007645D01*
X0000537Y0007145D02*
X0001037D01*
Y0007645D02*
X0000537Y0007145D01*
X0001037D02*
X0000537Y0007645D01*
X-0000683Y0009336D02*
Y0008836D01*
X-0000183Y0009336D02*
X-0000683D01*
X-0000183Y0008836D02*
Y0009336D01*
X-0000683Y0008836D02*
X-0000183D01*
Y0009336D02*
X-0000683Y0008836D01*
X-0000183D02*
X-0000683Y0009336D01*
X-0014548Y0003023D02*
Y0002523D01*
X-0014048Y0003023D02*
X-0014548D01*
X-0014048Y0002523D02*
Y0003023D01*
X-0014548Y0002523D02*
X-0014048D01*
Y0003023D02*
X-0014548Y0002523D01*
X-0014048D02*
X-0014548Y0003023D01*
X-0005147Y-0003880D02*
Y-0004380D01*
X-0004647Y-0003880D02*
X-0005147D01*
X-0004647Y-0004380D02*
Y-0003880D01*
X-0005147Y-0004380D02*
X-0004647D01*
Y-0003880D02*
X-0005147Y-0004380D01*
X-0004647D02*
X-0005147Y-0003880D01*
X-0001017Y0006327D02*
Y0005827D01*
X-0000517Y0006327D02*
X-0001017D01*
X-0000517Y0005827D02*
Y0006327D01*
X-0001017Y0005827D02*
X-0000517D01*
Y0006327D02*
X-0001017Y0005827D01*
X-0000517D02*
X-0001017Y0006327D01*
X-0001996Y-0002072D02*
Y-0002572D01*
X-0001496Y-0002072D02*
X-0001996D01*
X-0001496Y-0002572D02*
Y-0002072D01*
X-0001996Y-0002572D02*
X-0001496D01*
Y-0002072D02*
X-0001996Y-0002572D01*
X-0001496D02*
X-0001996Y-0002072D01*
X0003762Y0003829D02*
Y0003329D01*
X0004262Y0003829D02*
X0003762D01*
X0004262Y0003329D02*
Y0003829D01*
X0003762Y0003329D02*
X0004262D01*
Y0003829D02*
X0003762Y0003329D01*
X0004262D02*
X0003762Y0003829D01*
X0001405Y0003964D02*
Y0003464D01*
X0001905Y0003964D02*
X0001405D01*
X0001905Y0003464D02*
Y0003964D01*
X0001405Y0003464D02*
X0001905D01*
Y0003964D02*
X0001405Y0003464D01*
X0001905D02*
X0001405Y0003964D01*
X0002975Y0001174D02*
Y0000674D01*
X0003475Y0001174D02*
X0002975D01*
X0003475Y0000674D02*
Y0001174D01*
X0002975Y0000674D02*
X0003475D01*
Y0001174D02*
X0002975Y0000674D01*
X0003475D02*
X0002975Y0001174D01*
X0002344Y-0006428D02*
Y-0006928D01*
X0002844Y-0006428D02*
X0002344D01*
X0002844Y-0006928D02*
Y-0006428D01*
X0002344Y-0006928D02*
X0002844D01*
Y-0006428D02*
X0002344Y-0006928D01*
X0002844D02*
X0002344Y-0006428D01*
X0003133Y0006366D02*
Y0005866D01*
X0003633Y0006366D02*
X0003133D01*
X0003633Y0005866D02*
Y0006366D01*
X0003133Y0005866D02*
X0003633D01*
Y0006366D02*
X0003133Y0005866D01*
X0003633D02*
X0003133Y0006366D01*
X0001795Y-0003860D02*
Y-0004360D01*
X0002295Y-0003860D02*
X0001795D01*
X0002295Y-0004360D02*
Y-0003860D01*
X0001795Y-0004360D02*
X0002295D01*
Y-0003860D02*
X0001795Y-0004360D01*
X0002295D02*
X0001795Y-0003860D01*
X-0001351Y-0003880D02*
Y-0004380D01*
X-0000851Y-0003880D02*
X-0001351D01*
X-0000851Y-0004380D02*
Y-0003880D01*
X-0001351Y-0004380D02*
X-0000851D01*
Y-0003880D02*
X-0001351Y-0004380D01*
X-0000851D02*
X-0001351Y-0003880D01*
X-0000379Y-0009029D02*
X-0000879Y-0009529D01*
X-0000379D02*
X-0000879Y-0009029D01*
X-0000379Y-0007109D02*
X-0000879Y-0007609D01*
X-0000379D02*
X-0000879Y-0007109D01*
X0004525Y0008610D02*
X0004275Y0008360D01*
X0004775D02*
X0004525Y0008610D01*
Y0008110D02*
X0004775Y0008360D01*
X0004275D02*
X0004525Y0008110D01*
X0006525Y0008610D02*
X0006275Y0008360D01*
X0006775D02*
X0006525Y0008610D01*
Y0008110D02*
X0006775Y0008360D01*
X0006275D02*
X0006525Y0008110D01*
Y0011110D02*
X0006275Y0010860D01*
X0006775D02*
X0006525Y0011110D01*
Y0010610D02*
X0006775Y0010860D01*
X0006275D02*
X0006525Y0010610D01*
X0004525Y0011110D02*
X0004275Y0010860D01*
X0004775D02*
X0004525Y0011110D01*
Y0010610D02*
X0004775Y0010860D01*
X0004275D02*
X0004525Y0010610D01*
X-0020649Y-0006165D02*
Y-0006415D01*
X-0020399Y-0006165D02*
X-0020649D01*
X-0020399Y-0006665D02*
Y-0006165D01*
X-0020149Y-0006665D02*
X-0020399D01*
X-0020149Y-0006415D02*
Y-0006665D01*
X-0020649Y-0006415D02*
X-0020149D01*
X-0020781Y-0005671D02*
Y-0005921D01*
X-0020531Y-0005671D02*
X-0020781D01*
X-0020531Y-0006171D02*
Y-0005671D01*
X-0020281Y-0006171D02*
X-0020531D01*
X-0020281Y-0005921D02*
Y-0006171D01*
X-0020781Y-0005921D02*
X-0020281D01*
X-0021035Y-0004721D02*
Y-0004971D01*
X-0020785Y-0004721D02*
X-0021035D01*
X-0020785Y-0005221D02*
Y-0004721D01*
X-0020535Y-0005221D02*
X-0020785D01*
X-0020535Y-0004971D02*
Y-0005221D01*
X-0021035Y-0004971D02*
X-0020535D01*
X-0021168Y-0004227D02*
Y-0004477D01*
X-0020918Y-0004227D02*
X-0021168D01*
X-0020918Y-0004727D02*
Y-0004227D01*
X-0020668Y-0004727D02*
X-0020918D01*
X-0020668Y-0004477D02*
Y-0004727D01*
X-0021168Y-0004477D02*
X-0020668D01*
X-0016130Y-0014030D02*
Y-0014280D01*
X-0015880Y-0014030D02*
X-0016130D01*
X-0015880Y-0014530D02*
Y-0014030D01*
X-0015630Y-0014530D02*
X-0015880D01*
X-0015630Y-0014280D02*
Y-0014530D01*
X-0016130Y-0014280D02*
X-0015630D01*
X-0016458Y-0013638D02*
Y-0013888D01*
X-0016208Y-0013638D02*
X-0016458D01*
X-0016208Y-0014138D02*
Y-0013638D01*
X-0015958Y-0014138D02*
X-0016208D01*
X-0015958Y-0013888D02*
Y-0014138D01*
X-0016458Y-0013888D02*
X-0015958D01*
X-0017091Y-0012885D02*
Y-0013135D01*
X-0016841Y-0012885D02*
X-0017091D01*
X-0016841Y-0013385D02*
Y-0012885D01*
X-0016591Y-0013385D02*
X-0016841D01*
X-0016591Y-0013135D02*
Y-0013385D01*
X-0017091Y-0013135D02*
X-0016591D01*
X-0017419Y-0012493D02*
Y-0012743D01*
X-0017169Y-0012493D02*
X-0017419D01*
X-0017169Y-0012993D02*
Y-0012493D01*
X-0016919Y-0012993D02*
X-0017169D01*
X-0016919Y-0012743D02*
Y-0012993D01*
X-0017419Y-0012743D02*
X-0016919D01*
X0018949Y-0009260D02*
Y-0009510D01*
X0019199Y-0009260D02*
X0018949D01*
X0019199Y-0009760D02*
Y-0009260D01*
X0019449Y-0009760D02*
X0019199D01*
X0019449Y-0009510D02*
Y-0009760D01*
X0018949Y-0009510D02*
X0019449D01*
X0018693Y-0009703D02*
Y-0009953D01*
X0018943Y-0009703D02*
X0018693D01*
X0018943Y-0010203D02*
Y-0009703D01*
X0019193Y-0010203D02*
X0018943D01*
X0019193Y-0009953D02*
Y-0010203D01*
X0018693Y-0009953D02*
X0019193D01*
X0018201Y-0010555D02*
Y-0010805D01*
X0018451Y-0010555D02*
X0018201D01*
X0018451Y-0011055D02*
Y-0010555D01*
X0018701Y-0011055D02*
X0018451D01*
X0018701Y-0010805D02*
Y-0011055D01*
X0018201Y-0010805D02*
X0018701D01*
X0017946Y-0010997D02*
Y-0011247D01*
X0018196Y-0010997D02*
X0017946D01*
X0018196Y-0011497D02*
Y-0010997D01*
X0018446Y-0011497D02*
X0018196D01*
X0018446Y-0011247D02*
Y-0011497D01*
X0017946Y-0011247D02*
X0018446D01*
X0017800Y0011733D02*
Y0011483D01*
X0018050Y0011733D02*
X0017800D01*
X0018050Y0011233D02*
Y0011733D01*
X0018300Y0011233D02*
X0018050D01*
X0018300Y0011483D02*
Y0011233D01*
X0017800Y0011483D02*
X0018300D01*
X0018056Y0011290D02*
Y0011040D01*
X0018306Y0011290D02*
X0018056D01*
X0018306Y0010790D02*
Y0011290D01*
X0018556Y0010790D02*
X0018306D01*
X0018556Y0011040D02*
Y0010790D01*
X0018056Y0011040D02*
X0018556D01*
X0018547Y0010439D02*
Y0010189D01*
X0018797Y0010439D02*
X0018547D01*
X0018797Y0009939D02*
Y0010439D01*
X0019047Y0009939D02*
X0018797D01*
X0019047Y0010189D02*
Y0009939D01*
X0018547Y0010189D02*
X0019047D01*
X0018803Y0009996D02*
Y0009746D01*
X0019053Y0009996D02*
X0018803D01*
X0019053Y0009496D02*
Y0009996D01*
X0019303Y0009496D02*
X0019053D01*
X0019303Y0009746D02*
Y0009496D01*
X0018803Y0009746D02*
X0019303D01*
X-0021065Y0005027D02*
Y0004777D01*
X-0020815Y0005027D02*
X-0021065D01*
X-0020815Y0004527D02*
Y0005027D01*
X-0020565Y0004527D02*
X-0020815D01*
X-0020565Y0004777D02*
Y0004527D01*
X-0021065Y0004777D02*
X-0020565D01*
X-0020932Y0005521D02*
Y0005271D01*
X-0020682Y0005521D02*
X-0020932D01*
X-0020682Y0005021D02*
Y0005521D01*
X-0020432Y0005021D02*
X-0020682D01*
X-0020432Y0005271D02*
Y0005021D01*
X-0020932Y0005271D02*
X-0020432D01*
X-0020678Y0006471D02*
Y0006221D01*
X-0020428Y0006471D02*
X-0020678D01*
X-0020428Y0005971D02*
Y0006471D01*
X-0020178Y0005971D02*
X-0020428D01*
X-0020178Y0006221D02*
Y0005971D01*
X-0020678Y0006221D02*
X-0020178D01*
X-0020545Y0006965D02*
Y0006715D01*
X-0020295Y0006965D02*
X-0020545D01*
X-0020295Y0006465D02*
Y0006965D01*
X-0020045Y0006465D02*
X-0020295D01*
X-0020045Y0006715D02*
Y0006465D01*
X-0020545Y0006715D02*
X-0020045D01*
X-0017296Y0013164D02*
Y0012914D01*
X-0017046Y0013164D02*
X-0017296D01*
X-0017046Y0012664D02*
Y0013164D01*
X-0016796Y0012664D02*
X-0017046D01*
X-0016796Y0012914D02*
Y0012664D01*
X-0017296Y0012914D02*
X-0016796D01*
X-0016967Y0013555D02*
Y0013305D01*
X-0016717Y0013555D02*
X-0016967D01*
X-0016717Y0013055D02*
Y0013555D01*
X-0016467Y0013055D02*
X-0016717D01*
X-0016467Y0013305D02*
Y0013055D01*
X-0016967Y0013305D02*
X-0016467D01*
X-0016335Y0014309D02*
Y0014059D01*
X-0016085Y0014309D02*
X-0016335D01*
X-0016085Y0013809D02*
Y0014309D01*
X-0015835Y0013809D02*
X-0016085D01*
X-0015835Y0014059D02*
Y0013809D01*
X-0016335Y0014059D02*
X-0015835D01*
X-0016007Y0014700D02*
Y0014450D01*
X-0015757Y0014700D02*
X-0016007D01*
X-0015757Y0014200D02*
Y0014700D01*
X-0015507Y0014200D02*
X-0015757D01*
X-0015507Y0014450D02*
Y0014200D01*
X-0016007Y0014450D02*
X-0015507D01*
X-0018518Y0003602D02*
Y0003402D01*
X-0018368Y0003752D02*
X-0018518Y0003602D01*
X-0018168Y0003752D02*
X-0018368D01*
X-0018018Y0003602D02*
X-0018168Y0003752D01*
X-0018018Y0003402D02*
Y0003602D01*
X-0018168Y0003252D02*
X-0018018Y0003402D01*
X-0018368Y0003252D02*
X-0018168D01*
X-0018518Y0003402D02*
X-0018368Y0003252D01*
X-0017731Y0003602D02*
Y0003402D01*
X-0017581Y0003752D02*
X-0017731Y0003602D01*
X-0017381Y0003752D02*
X-0017581D01*
X-0017231Y0003602D02*
X-0017381Y0003752D01*
X-0017231Y0003402D02*
Y0003602D01*
X-0017381Y0003252D02*
X-0017231Y0003402D01*
X-0017581Y0003252D02*
X-0017381D01*
X-0017731Y0003402D02*
X-0017581Y0003252D01*
X-0018518Y0002815D02*
Y0002615D01*
X-0018368Y0002965D02*
X-0018518Y0002815D01*
X-0018168Y0002965D02*
X-0018368D01*
X-0018018Y0002815D02*
X-0018168Y0002965D01*
X-0018018Y0002615D02*
Y0002815D01*
X-0018168Y0002465D02*
X-0018018Y0002615D01*
X-0018368Y0002465D02*
X-0018168D01*
X-0018518Y0002615D02*
X-0018368Y0002465D01*
X-0017731Y0002815D02*
Y0002615D01*
X-0017581Y0002965D02*
X-0017731Y0002815D01*
X-0017381Y0002965D02*
X-0017581D01*
X-0017231Y0002815D02*
X-0017381Y0002965D01*
X-0017231Y0002615D02*
Y0002815D01*
X-0017381Y0002465D02*
X-0017231Y0002615D01*
X-0017581Y0002465D02*
X-0017381D01*
X-0017731Y0002615D02*
X-0017581Y0002465D01*
X-0018518Y0002027D02*
Y0001827D01*
X-0018368Y0002177D02*
X-0018518Y0002027D01*
X-0018168Y0002177D02*
X-0018368D01*
X-0018018Y0002027D02*
X-0018168Y0002177D01*
X-0018018Y0001827D02*
Y0002027D01*
X-0018168Y0001677D02*
X-0018018Y0001827D01*
X-0018368Y0001677D02*
X-0018168D01*
X-0018518Y0001827D02*
X-0018368Y0001677D01*
X-0017731Y0002027D02*
Y0001827D01*
X-0017581Y0002177D02*
X-0017731Y0002027D01*
X-0017381Y0002177D02*
X-0017581D01*
X-0017231Y0002027D02*
X-0017381Y0002177D01*
X-0017231Y0001827D02*
Y0002027D01*
X-0017381Y0001677D02*
X-0017231Y0001827D01*
X-0017581Y0001677D02*
X-0017381D01*
X-0017731Y0001827D02*
X-0017581Y0001677D01*
X-0018518Y0001240D02*
Y0001040D01*
X-0018368Y0001390D02*
X-0018518Y0001240D01*
X-0018168Y0001390D02*
X-0018368D01*
X-0018018Y0001240D02*
X-0018168Y0001390D01*
X-0018018Y0001040D02*
Y0001240D01*
X-0018168Y0000890D02*
X-0018018Y0001040D01*
X-0018368Y0000890D02*
X-0018168D01*
X-0018518Y0001040D02*
X-0018368Y0000890D01*
X-0017731Y0001240D02*
Y0001040D01*
X-0017581Y0001390D02*
X-0017731Y0001240D01*
X-0017381Y0001390D02*
X-0017581D01*
X-0017231Y0001240D02*
X-0017381Y0001390D01*
X-0017231Y0001040D02*
Y0001240D01*
X-0017381Y0000890D02*
X-0017231Y0001040D01*
X-0017581Y0000890D02*
X-0017381D01*
X-0017731Y0001040D02*
X-0017581Y0000890D01*
X-0018518Y0000452D02*
Y0000252D01*
X-0018368Y0000602D02*
X-0018518Y0000452D01*
X-0018168Y0000602D02*
X-0018368D01*
X-0018018Y0000452D02*
X-0018168Y0000602D01*
X-0018018Y0000252D02*
Y0000452D01*
X-0018168Y0000102D02*
X-0018018Y0000252D01*
X-0018368Y0000102D02*
X-0018168D01*
X-0018518Y0000252D02*
X-0018368Y0000102D01*
X-0017731Y0000452D02*
Y0000252D01*
X-0017581Y0000602D02*
X-0017731Y0000452D01*
X-0017381Y0000602D02*
X-0017581D01*
X-0017231Y0000452D02*
X-0017381Y0000602D01*
X-0017231Y0000252D02*
Y0000452D01*
X-0017381Y0000102D02*
X-0017231Y0000252D01*
X-0017581Y0000102D02*
X-0017381D01*
X-0017731Y0000252D02*
X-0017581Y0000102D01*
X-0018518Y-0000335D02*
Y-0000535D01*
X-0018368Y-0000185D02*
X-0018518Y-0000335D01*
X-0018168Y-0000185D02*
X-0018368D01*
X-0018018Y-0000335D02*
X-0018168Y-0000185D01*
X-0018018Y-0000535D02*
Y-0000335D01*
X-0018168Y-0000685D02*
X-0018018Y-0000535D01*
X-0018368Y-0000685D02*
X-0018168D01*
X-0018518Y-0000535D02*
X-0018368Y-0000685D01*
X-0017731Y-0000335D02*
Y-0000535D01*
X-0017581Y-0000185D02*
X-0017731Y-0000335D01*
X-0017381Y-0000185D02*
X-0017581D01*
X-0017231Y-0000335D02*
X-0017381Y-0000185D01*
X-0017231Y-0000535D02*
Y-0000335D01*
X-0017381Y-0000685D02*
X-0017231Y-0000535D01*
X-0017581Y-0000685D02*
X-0017381D01*
X-0017731Y-0000535D02*
X-0017581Y-0000685D01*
X-0018518Y-0001122D02*
Y-0001322D01*
X-0018368Y-0000972D02*
X-0018518Y-0001122D01*
X-0018168Y-0000972D02*
X-0018368D01*
X-0018018Y-0001122D02*
X-0018168Y-0000972D01*
X-0018018Y-0001322D02*
Y-0001122D01*
X-0018168Y-0001472D02*
X-0018018Y-0001322D01*
X-0018368Y-0001472D02*
X-0018168D01*
X-0018518Y-0001322D02*
X-0018368Y-0001472D01*
X-0017731Y-0001122D02*
Y-0001322D01*
X-0017581Y-0000972D02*
X-0017731Y-0001122D01*
X-0017381Y-0000972D02*
X-0017581D01*
X-0017231Y-0001122D02*
X-0017381Y-0000972D01*
X-0017231Y-0001322D02*
Y-0001122D01*
X-0017381Y-0001472D02*
X-0017231Y-0001322D01*
X-0017581Y-0001472D02*
X-0017381D01*
X-0017731Y-0001322D02*
X-0017581Y-0001472D01*
X-0018518Y-0001910D02*
Y-0002110D01*
X-0018368Y-0001760D02*
X-0018518Y-0001910D01*
X-0018168Y-0001760D02*
X-0018368D01*
X-0018018Y-0001910D02*
X-0018168Y-0001760D01*
X-0018018Y-0002110D02*
Y-0001910D01*
X-0018168Y-0002260D02*
X-0018018Y-0002110D01*
X-0018368Y-0002260D02*
X-0018168D01*
X-0018518Y-0002110D02*
X-0018368Y-0002260D01*
X-0017731Y-0001910D02*
Y-0002110D01*
X-0017581Y-0001760D02*
X-0017731Y-0001910D01*
X-0017381Y-0001760D02*
X-0017581D01*
X-0017231Y-0001910D02*
X-0017381Y-0001760D01*
X-0017231Y-0002110D02*
Y-0001910D01*
X-0017381Y-0002260D02*
X-0017231Y-0002110D01*
X-0017581Y-0002260D02*
X-0017381D01*
X-0017731Y-0002110D02*
X-0017581Y-0002260D01*
X-0018518Y-0002697D02*
Y-0002897D01*
X-0018368Y-0002547D02*
X-0018518Y-0002697D01*
X-0018168Y-0002547D02*
X-0018368D01*
X-0018018Y-0002697D02*
X-0018168Y-0002547D01*
X-0018018Y-0002897D02*
Y-0002697D01*
X-0018168Y-0003047D02*
X-0018018Y-0002897D01*
X-0018368Y-0003047D02*
X-0018168D01*
X-0018518Y-0002897D02*
X-0018368Y-0003047D01*
X-0017731Y-0002697D02*
Y-0002897D01*
X-0017581Y-0002547D02*
X-0017731Y-0002697D01*
X-0017381Y-0002547D02*
X-0017581D01*
X-0017231Y-0002697D02*
X-0017381Y-0002547D01*
X-0017231Y-0002897D02*
Y-0002697D01*
X-0017381Y-0003047D02*
X-0017231Y-0002897D01*
X-0017581Y-0003047D02*
X-0017381D01*
X-0017731Y-0002897D02*
X-0017581Y-0003047D01*
X-0018518Y-0003485D02*
Y-0003685D01*
X-0018368Y-0003335D02*
X-0018518Y-0003485D01*
X-0018168Y-0003335D02*
X-0018368D01*
X-0018018Y-0003485D02*
X-0018168Y-0003335D01*
X-0018018Y-0003685D02*
Y-0003485D01*
X-0018168Y-0003835D02*
X-0018018Y-0003685D01*
X-0018368Y-0003835D02*
X-0018168D01*
X-0018518Y-0003685D02*
X-0018368Y-0003835D01*
X-0017731Y-0003485D02*
Y-0003685D01*
X-0017581Y-0003335D02*
X-0017731Y-0003485D01*
X-0017381Y-0003335D02*
X-0017581D01*
X-0017231Y-0003485D02*
X-0017381Y-0003335D01*
X-0017231Y-0003685D02*
Y-0003485D01*
X-0017381Y-0003835D02*
X-0017231Y-0003685D01*
X-0017581Y-0003835D02*
X-0017381D01*
X-0017731Y-0003685D02*
X-0017581Y-0003835D01*
X0009992Y-0009240D02*
X0009492Y-0009740D01*
X0009992D02*
X0009492Y-0009240D01*
X0008992D02*
X0008492Y-0009740D01*
X0008992D02*
X0008492Y-0009240D01*
X-0015978Y-0006008D02*
Y-0006208D01*
X-0015828Y-0005858D02*
X-0015978Y-0006008D01*
X-0015628Y-0005858D02*
X-0015828D01*
X-0015478Y-0006008D02*
X-0015628Y-0005858D01*
X-0015478Y-0006208D02*
Y-0006008D01*
X-0015628Y-0006358D02*
X-0015478Y-0006208D01*
X-0015828Y-0006358D02*
X-0015628D01*
X-0015978Y-0006208D02*
X-0015828Y-0006358D01*
X-0016765Y-0006008D02*
Y-0006208D01*
X-0016615Y-0005858D02*
X-0016765Y-0006008D01*
X-0016415Y-0005858D02*
X-0016615D01*
X-0016265Y-0006008D02*
X-0016415Y-0005858D01*
X-0016265Y-0006208D02*
Y-0006008D01*
X-0016415Y-0006358D02*
X-0016265Y-0006208D01*
X-0016615Y-0006358D02*
X-0016415D01*
X-0016765Y-0006208D02*
X-0016615Y-0006358D01*
X-0015978Y-0006795D02*
Y-0006995D01*
X-0015828Y-0006645D02*
X-0015978Y-0006795D01*
X-0015628Y-0006645D02*
X-0015828D01*
X-0015478Y-0006795D02*
X-0015628Y-0006645D01*
X-0015478Y-0006995D02*
Y-0006795D01*
X-0015628Y-0007145D02*
X-0015478Y-0006995D01*
X-0015828Y-0007145D02*
X-0015628D01*
X-0015978Y-0006995D02*
X-0015828Y-0007145D01*
X-0016765Y-0006795D02*
Y-0006995D01*
X-0016615Y-0006645D02*
X-0016765Y-0006795D01*
X-0016415Y-0006645D02*
X-0016615D01*
X-0016265Y-0006795D02*
X-0016415Y-0006645D01*
X-0016265Y-0006995D02*
Y-0006795D01*
X-0016415Y-0007145D02*
X-0016265Y-0006995D01*
X-0016615Y-0007145D02*
X-0016415D01*
X-0016765Y-0006995D02*
X-0016615Y-0007145D01*
X-0015978Y-0007583D02*
Y-0007783D01*
X-0015828Y-0007433D02*
X-0015978Y-0007583D01*
X-0015628Y-0007433D02*
X-0015828D01*
X-0015478Y-0007583D02*
X-0015628Y-0007433D01*
X-0015478Y-0007783D02*
Y-0007583D01*
X-0015628Y-0007933D02*
X-0015478Y-0007783D01*
X-0015828Y-0007933D02*
X-0015628D01*
X-0015978Y-0007783D02*
X-0015828Y-0007933D01*
X-0016765Y-0007583D02*
Y-0007783D01*
X-0016615Y-0007433D02*
X-0016765Y-0007583D01*
X-0016415Y-0007433D02*
X-0016615D01*
X-0016265Y-0007583D02*
X-0016415Y-0007433D01*
X-0016265Y-0007783D02*
Y-0007583D01*
X-0016415Y-0007933D02*
X-0016265Y-0007783D01*
X-0016615Y-0007933D02*
X-0016415D01*
X-0016765Y-0007783D02*
X-0016615Y-0007933D01*
X-0015978Y-0008370D02*
Y-0008570D01*
X-0015828Y-0008220D02*
X-0015978Y-0008370D01*
X-0015628Y-0008220D02*
X-0015828D01*
X-0015478Y-0008370D02*
X-0015628Y-0008220D01*
X-0015478Y-0008570D02*
Y-0008370D01*
X-0015628Y-0008720D02*
X-0015478Y-0008570D01*
X-0015828Y-0008720D02*
X-0015628D01*
X-0015978Y-0008570D02*
X-0015828Y-0008720D01*
X-0016765Y-0008370D02*
Y-0008570D01*
X-0016615Y-0008220D02*
X-0016765Y-0008370D01*
X-0016415Y-0008220D02*
X-0016615D01*
X-0016265Y-0008370D02*
X-0016415Y-0008220D01*
X-0016265Y-0008570D02*
Y-0008370D01*
X-0016415Y-0008720D02*
X-0016265Y-0008570D01*
X-0016615Y-0008720D02*
X-0016415D01*
X-0016765Y-0008570D02*
X-0016615Y-0008720D01*
X-0015978Y-0009158D02*
Y-0009358D01*
X-0015828Y-0009008D02*
X-0015978Y-0009158D01*
X-0015628Y-0009008D02*
X-0015828D01*
X-0015478Y-0009158D02*
X-0015628Y-0009008D01*
X-0015478Y-0009358D02*
Y-0009158D01*
X-0015628Y-0009508D02*
X-0015478Y-0009358D01*
X-0015828Y-0009508D02*
X-0015628D01*
X-0015978Y-0009358D02*
X-0015828Y-0009508D01*
X-0016765Y-0009158D02*
Y-0009358D01*
X-0016615Y-0009008D02*
X-0016765Y-0009158D01*
X-0016415Y-0009008D02*
X-0016615D01*
X-0016265Y-0009158D02*
X-0016415Y-0009008D01*
X-0016265Y-0009358D02*
Y-0009158D01*
X-0016415Y-0009508D02*
X-0016265Y-0009358D01*
X-0016615Y-0009508D02*
X-0016415D01*
X-0016765Y-0009358D02*
X-0016615Y-0009508D01*
X-0015978Y-0009945D02*
Y-0010145D01*
X-0015828Y-0009795D02*
X-0015978Y-0009945D01*
X-0015628Y-0009795D02*
X-0015828D01*
X-0015478Y-0009945D02*
X-0015628Y-0009795D01*
X-0015478Y-0010145D02*
Y-0009945D01*
X-0015628Y-0010295D02*
X-0015478Y-0010145D01*
X-0015828Y-0010295D02*
X-0015628D01*
X-0015978Y-0010145D02*
X-0015828Y-0010295D01*
X-0016765Y-0009945D02*
Y-0010145D01*
X-0016615Y-0009795D02*
X-0016765Y-0009945D01*
X-0016415Y-0009795D02*
X-0016615D01*
X-0016265Y-0009945D02*
X-0016415Y-0009795D01*
X-0016265Y-0010145D02*
Y-0009945D01*
X-0016415Y-0010295D02*
X-0016265Y-0010145D01*
X-0016615Y-0010295D02*
X-0016415D01*
X-0016765Y-0010145D02*
X-0016615Y-0010295D01*
X-0010840Y-0004366D02*
Y-0004566D01*
X-0010690Y-0004216D02*
X-0010840Y-0004366D01*
X-0010490Y-0004216D02*
X-0010690D01*
X-0010340Y-0004366D02*
X-0010490Y-0004216D01*
X-0010340Y-0004566D02*
Y-0004366D01*
X-0010490Y-0004716D02*
X-0010340Y-0004566D01*
X-0010690Y-0004716D02*
X-0010490D01*
X-0010840Y-0004566D02*
X-0010690Y-0004716D01*
X-0010840Y-0003579D02*
Y-0003779D01*
X-0010690Y-0003429D02*
X-0010840Y-0003579D01*
X-0010490Y-0003429D02*
X-0010690D01*
X-0010340Y-0003579D02*
X-0010490Y-0003429D01*
X-0010340Y-0003779D02*
Y-0003579D01*
X-0010490Y-0003929D02*
X-0010340Y-0003779D01*
X-0010690Y-0003929D02*
X-0010490D01*
X-0010840Y-0003779D02*
X-0010690Y-0003929D01*
X-0011627Y-0004366D02*
Y-0004566D01*
X-0011477Y-0004216D02*
X-0011627Y-0004366D01*
X-0011277Y-0004216D02*
X-0011477D01*
X-0011127Y-0004366D02*
X-0011277Y-0004216D01*
X-0011127Y-0004566D02*
Y-0004366D01*
X-0011277Y-0004716D02*
X-0011127Y-0004566D01*
X-0011477Y-0004716D02*
X-0011277D01*
X-0011627Y-0004566D02*
X-0011477Y-0004716D01*
X-0011627Y-0003579D02*
Y-0003779D01*
X-0011477Y-0003429D02*
X-0011627Y-0003579D01*
X-0011277Y-0003429D02*
X-0011477D01*
X-0011127Y-0003579D02*
X-0011277Y-0003429D01*
X-0011127Y-0003779D02*
Y-0003579D01*
X-0011277Y-0003929D02*
X-0011127Y-0003779D01*
X-0011477Y-0003929D02*
X-0011277D01*
X-0011627Y-0003779D02*
X-0011477Y-0003929D01*
X-0012415Y-0004366D02*
Y-0004566D01*
X-0012265Y-0004216D02*
X-0012415Y-0004366D01*
X-0012065Y-0004216D02*
X-0012265D01*
X-0011915Y-0004366D02*
X-0012065Y-0004216D01*
X-0011915Y-0004566D02*
Y-0004366D01*
X-0012065Y-0004716D02*
X-0011915Y-0004566D01*
X-0012265Y-0004716D02*
X-0012065D01*
X-0012415Y-0004566D02*
X-0012265Y-0004716D01*
X-0012415Y-0003579D02*
Y-0003779D01*
X-0012265Y-0003429D02*
X-0012415Y-0003579D01*
X-0012065Y-0003429D02*
X-0012265D01*
X-0011915Y-0003579D02*
X-0012065Y-0003429D01*
X-0011915Y-0003779D02*
Y-0003579D01*
X-0012065Y-0003929D02*
X-0011915Y-0003779D01*
X-0012265Y-0003929D02*
X-0012065D01*
X-0012415Y-0003779D02*
X-0012265Y-0003929D01*
X-0013202Y-0004366D02*
Y-0004566D01*
X-0013052Y-0004216D02*
X-0013202Y-0004366D01*
X-0012852Y-0004216D02*
X-0013052D01*
X-0012702Y-0004366D02*
X-0012852Y-0004216D01*
X-0012702Y-0004566D02*
Y-0004366D01*
X-0012852Y-0004716D02*
X-0012702Y-0004566D01*
X-0013052Y-0004716D02*
X-0012852D01*
X-0013202Y-0004566D02*
X-0013052Y-0004716D01*
X-0013202Y-0003579D02*
Y-0003779D01*
X-0013052Y-0003429D02*
X-0013202Y-0003579D01*
X-0012852Y-0003429D02*
X-0013052D01*
X-0012702Y-0003579D02*
X-0012852Y-0003429D01*
X-0012702Y-0003779D02*
Y-0003579D01*
X-0012852Y-0003929D02*
X-0012702Y-0003779D01*
X-0013052Y-0003929D02*
X-0012852D01*
X-0013202Y-0003779D02*
X-0013052Y-0003929D01*
X-0013990Y-0004366D02*
Y-0004566D01*
X-0013840Y-0004216D02*
X-0013990Y-0004366D01*
X-0013640Y-0004216D02*
X-0013840D01*
X-0013490Y-0004366D02*
X-0013640Y-0004216D01*
X-0013490Y-0004566D02*
Y-0004366D01*
X-0013640Y-0004716D02*
X-0013490Y-0004566D01*
X-0013840Y-0004716D02*
X-0013640D01*
X-0013990Y-0004566D02*
X-0013840Y-0004716D01*
X-0013990Y-0003579D02*
Y-0003779D01*
X-0013840Y-0003429D02*
X-0013990Y-0003579D01*
X-0013640Y-0003429D02*
X-0013840D01*
X-0013490Y-0003579D02*
X-0013640Y-0003429D01*
X-0013490Y-0003779D02*
Y-0003579D01*
X-0013640Y-0003929D02*
X-0013490Y-0003779D01*
X-0013840Y-0003929D02*
X-0013640D01*
X-0013990Y-0003779D02*
X-0013840Y-0003929D01*
X-0014777Y-0004366D02*
Y-0004566D01*
X-0014627Y-0004216D02*
X-0014777Y-0004366D01*
X-0014427Y-0004216D02*
X-0014627D01*
X-0014277Y-0004366D02*
X-0014427Y-0004216D01*
X-0014277Y-0004566D02*
Y-0004366D01*
X-0014427Y-0004716D02*
X-0014277Y-0004566D01*
X-0014627Y-0004716D02*
X-0014427D01*
X-0014777Y-0004566D02*
X-0014627Y-0004716D01*
X-0014777Y-0003579D02*
Y-0003779D01*
X-0014627Y-0003429D02*
X-0014777Y-0003579D01*
X-0014427Y-0003429D02*
X-0014627D01*
X-0014277Y-0003579D02*
X-0014427Y-0003429D01*
X-0014277Y-0003779D02*
Y-0003579D01*
X-0014427Y-0003929D02*
X-0014277Y-0003779D01*
X-0014627Y-0003929D02*
X-0014427D01*
X-0014777Y-0003779D02*
X-0014627Y-0003929D01*
X-0005017Y-0010423D02*
X-0005517D01*
X-0005267Y-0010173D02*
Y-0010673D01*
X-0005017Y-0011423D02*
X-0005517D01*
X-0005267Y-0011173D02*
Y-0011673D01*
X-0006017Y-0010423D02*
X-0006517D01*
X-0006267Y-0010173D02*
Y-0010673D01*
X-0006017Y-0011423D02*
X-0006517D01*
X-0006267Y-0011173D02*
Y-0011673D01*
X-0007017Y-0010423D02*
X-0007517D01*
X-0007267Y-0010173D02*
Y-0010673D01*
X-0007017Y-0011423D02*
X-0007517D01*
X-0007267Y-0011173D02*
Y-0011673D01*
X0007861Y0003166D02*
X0007361D01*
X0007611Y0003416D02*
Y0002916D01*
X0006861Y0003166D02*
X0006361D01*
X0006611Y0003416D02*
Y0002916D01*
X0012441Y-0009656D02*
X0012191Y-0009906D01*
X0012691D02*
X0012441Y-0009656D01*
X0012191Y-0009906D02*
X0012691D01*
X0012650Y0010255D02*
X0012400Y0010005D01*
X0012900D02*
X0012650Y0010255D01*
X0012400Y0010005D02*
X0012900D01*
X-0013060Y0010226D02*
X-0013310Y0009976D01*
X-0012810D02*
X-0013060Y0010226D01*
X-0013310Y0009976D02*
X-0012810D01*
X0006743Y0012512D02*
X0006493Y0012262D01*
X0006993D02*
X0006743Y0012512D01*
Y0012012D02*
X0006993Y0012262D01*
X0006493D02*
X0006743Y0012012D01*
Y0013495D02*
X0006493Y0013245D01*
X0006993D02*
X0006743Y0013495D01*
Y0012995D02*
X0006993Y0013245D01*
X0006493D02*
X0006743Y0012995D01*
X0007726Y0012512D02*
X0007476Y0012262D01*
X0007976D02*
X0007726Y0012512D01*
Y0012012D02*
X0007976Y0012262D01*
X0007476D02*
X0007726Y0012012D01*
Y0013495D02*
X0007476Y0013245D01*
X0007976D02*
X0007726Y0013495D01*
Y0012995D02*
X0007976Y0013245D01*
X0007476D02*
X0007726Y0012995D01*
X-0000316Y0009964D02*
X-0000566Y0009714D01*
X-0000066D02*
X-0000316Y0009964D01*
Y0009464D02*
X-0000066Y0009714D01*
X-0000566D02*
X-0000316Y0009464D01*
X-0001299Y0009964D02*
X-0001549Y0009714D01*
X-0001049D02*
X-0001299Y0009964D01*
Y0009464D02*
X-0001049Y0009714D01*
X-0001549D02*
X-0001299Y0009464D01*
X-0002086Y0009964D02*
X-0002336Y0009714D01*
X-0001836D02*
X-0002086Y0009964D01*
Y0009464D02*
X-0001836Y0009714D01*
X-0002336D02*
X-0002086Y0009464D01*
X-0003069Y0009964D02*
X-0003319Y0009714D01*
X-0002819D02*
X-0003069Y0009964D01*
Y0009464D02*
X-0002819Y0009714D01*
X-0003319D02*
X-0003069Y0009464D01*
X0000653Y0011026D02*
Y0010526D01*
X0001153Y0011026D02*
X0000653D01*
X0001153Y0010526D02*
Y0011026D01*
X0000653Y0010526D02*
X0001153D01*
Y0010776D02*
X0000653D01*
X0000903Y0011026D02*
Y0010526D01*
X-0004539Y0011026D02*
Y0010526D01*
X-0004039Y0011026D02*
X-0004539D01*
X-0004039Y0010526D02*
Y0011026D01*
X-0004539Y0010526D02*
X-0004039D01*
Y0010776D02*
X-0004539D01*
X-0004289Y0011026D02*
Y0010526D01*
X0009805Y-0007448D02*
Y-0007648D01*
X0010055Y-0007698D02*
X0009805Y-0007448D01*
X0010305D02*
X0010055Y-0007698D01*
X0010305Y-0007648D02*
Y-0007448D01*
X0010055Y-0007398D02*
X0010305Y-0007648D01*
X0009805D02*
X0010055Y-0007398D01*
X0009412Y0002887D02*
Y0002687D01*
X0009662Y0002637D02*
X0009412Y0002887D01*
X0009912D02*
X0009662Y0002637D01*
X0009912Y0002687D02*
Y0002887D01*
X0009662Y0002937D02*
X0009912Y0002687D01*
X0009412D02*
X0009662Y0002937D01*
X-0017244Y-0009712D02*
X-0017744D01*
X-0017494Y-0009462D02*
Y-0009962D01*
X-0017244Y-0008712D02*
X-0017744D01*
X-0017494Y-0008462D02*
Y-0008962D01*
X-0017244Y-0007712D02*
X-0017744D01*
X-0017494Y-0007462D02*
Y-0007962D01*
X-0017244Y-0006712D02*
X-0017744D01*
X-0017494Y-0006462D02*
Y-0006962D01*
X-0017244Y-0005712D02*
X-0017744D01*
X-0017494Y-0005462D02*
Y-0005962D01*
X0005786Y-0007382D02*
X0005286Y-0007882D01*
X0005786D02*
X0005286Y-0007382D01*
X0005786Y-0008382D02*
X0005286Y-0008882D01*
X0005786D02*
X0005286Y-0008382D01*
X0007986Y-0008236D02*
X0007486Y-0008736D01*
X0007986D02*
X0007486Y-0008236D01*
X0008986D02*
X0008486Y-0008736D01*
X0008986D02*
X0008486Y-0008236D01*
X0009986D02*
X0009486Y-0008736D01*
X0009986D02*
X0009486Y-0008236D01*
X0010986D02*
X0010486Y-0008736D01*
X0010986D02*
X0010486Y-0008236D01*
M02*
