%
T1C0.0118F200S100
X-021182Y-000982
X-021142Y000248
X-021140Y001054
X-021136Y-000558
X-020338Y001646
X-019981Y004071
X-019740Y-000062
X-019724Y004566
X-019478Y002840
X-019446Y000246
X-019368Y-004606
X-019366Y004800
X-019284Y-000556
X-018966Y-007144
X-018774Y005025
X-018749Y-005182
X-018650Y006624
X-018460Y-006620
X-017726Y008328
X-017390Y006086
X-016614Y003404
X-016364Y-002044
X-016356Y-001698
X-016318Y-005002
X-016058Y-000973
X-016028Y011348
X-016024Y006238
X-015956Y-004490
X-015954Y-004870
X-015950Y001534
X-015620Y-011580
X-015568Y-004982
X-015370Y011672
X-015360Y012655
X-015240Y006706
X-015172Y-005656
X-015104Y-012193
X-014914Y-006360
X-014870Y-005030
X-014866Y-002696
X-014835Y002524
X-014829Y-000236
X-014829Y001593
X-014794Y-007226
X-014732Y007472
X-014711Y-001023
X-014710Y-001618
X-014648Y-014360
X-014642Y012862
X-014636Y-015598
X-014518Y-009464
X-014426Y-012386
X-014346Y-007198
X-014317Y000000
X-014298Y002773
X-014180Y-002045
X-014154Y-013518
X-014132Y-014840
X-014078Y001334
X-014026Y005670
X-013974Y-008755
X-013904Y-004882
X-013818Y013684
X-013810Y012792
X-013700Y-009156
X-013672Y002226
X-013472Y-002203
X-013422Y000012
X-013372Y-008590
X-013344Y-009004
X-013276Y-003180
X-013138Y-013934
X-013124Y-008280
X-013116Y001314
X-013082Y-001400
X-013056Y-000536
X-013044Y-015966
X-012882Y002950
X-012769Y-011535
X-012724Y001868
X-012492Y-002127
X-012318Y-011600
X-012264Y-010154
X-012256Y-005328
X-012156Y-013324
X-012112Y-014134
X-012018Y-000810
X-012016Y-001691
X-011966Y007684
X-011868Y-015970
X-011826Y012416
X-011726Y-008494
X-011680Y001476
X-011676Y-009008
X-011664Y-015394
X-011664Y-014918
X-011604Y-009868
X-011546Y015916
X-011544Y017450
X-011512Y-009282
X-011480Y-008738
X-011312Y002180
X-011298Y009479
X-011244Y014026
X-011238Y-006106
X-011222Y-007512
X-011182Y-000442
X-011131Y000826
X-011020Y-016904
X-010988Y-007808
X-010964Y-013874
X-010915Y-004838
X-010912Y-002199
X-010888Y-003284
X-010777Y004169
X-010739Y009484
X-010739Y011284
X-010738Y009125
X-010738Y009833
X-010620Y013338
X-010600Y-000826
X-010558Y-014086
X-010522Y002950
X-010476Y-008020
X-010428Y-012970
X-010378Y-008798
X-010345Y000826
X-010322Y-002174
X-010187Y009479
X-010112Y-011148
X-010092Y-008496
X-010076Y-006550
X-009992Y-012956
X-009968Y-015854
X-009950Y-014554
X-009850Y000924
X-009786Y-004316
X-009764Y001888
X-009755Y-000236
X-009732Y-001616
X-009755Y002517
X-009726Y-009856
X-009642Y-011312
X-009622Y-012690
X-009616Y-006960
X-009434Y-013540
X-009318Y013264
X-009260Y-013834
X-009244Y011280
X-009241Y009079
X-009241Y009479
X-009241Y009846
X-009233Y011692
X-008732Y001534
X-008731Y006564
X-008718Y-009850
X-008692Y-013008
X-008657Y-001026
X-008630Y011338
X-008535Y002714
X-008496Y-005241
X-008440Y016002
X-008372Y-009660
X-008358Y000118
X-008330Y-007908
X-008323Y-010624
X-008308Y-012964
X-008294Y-009142
X-008226Y006564
X-008170Y013658
X-008063Y006274
X-007924Y015536
X-007881Y006564
X-007842Y016544
X-007778Y-014117
X-007778Y-013467
X-007736Y015228
X-007562Y015536
X-007513Y-002399
X-007510Y016550
X-007503Y004553
X-007493Y-009263
X-007470Y009226
X-007434Y-000236
X-007390Y015230
X-007277Y000747
X-007224Y015536
X-007214Y-009708
X-007198Y-008853
X-007186Y016544
X-007078Y-013017
X-007052Y015230
X-007001Y007277
X-006906Y-007712
X-006870Y016544
X-006850Y015536
X-006726Y-010130
X-006696Y018015
X-006692Y018344
X-006676Y015230
X-006662Y-009798
X-006637Y009511
X-006414Y-013025
X-006314Y017444
X-006314Y018344
X-006274Y018015
X-006244Y009991
X-006057Y004582
X-006038Y-000236
X-005999Y000747
X-005949Y018015
X-005949Y018349
X-005929Y017444
X-005900Y-002458
X-005841Y-008368
X-005831Y-009233
X-005743Y005172
X-005742Y-015248
X-005605Y018015
X-005595Y018349
X-005566Y017444
X-005546Y007296
X-005500Y002360
X-005467Y003776
X-005200Y002610
X-005194Y006134
X-005143Y017444
X-005074Y002301
X-005040Y-014899
X-005040Y-014249
X-005016Y-013810
X-004897Y-004130
X-004897Y005035
X-004759Y017444
X-004650Y002500
X-004641Y-002026
X-004629Y004294
X-004464Y004740
X-004395Y-008486
X-004376Y017444
X-004356Y-009981
X-004307Y-004130
X-004302Y-013647
X-004248Y007552
X-004209Y006116
X-004169Y016903
X-004169Y018005
X-004080Y002480
X-004051Y-001888
X-004032Y-010590
X-004032Y-009381
X-004032Y-009047
X-004032Y-007886
X-004012Y-000728
X-003992Y-006274
X-003874Y017444
X-003717Y003933
X-003699Y-000372
X-003699Y002263
X-003628Y-009991
X-003616Y-013647
X-003614Y-013649
X-003602Y-008483
X-003550Y016874
X-003550Y018005
X-003530Y-002318
X-003422Y017444
X-003276Y-019908
X-003186Y-009990
X-003162Y-017542
X-003120Y002410
X-003068Y-000728
X-003038Y017444
X-002965Y-006298
X-002754Y002263
X-002753Y-000374
X-002743Y-015521
X-002694Y-009778
X-002665Y017444
X-002635Y004110
X-002619Y-013647
X-002616Y-003855
X-002602Y016592
X-002550Y-018750
X-002396Y-002316
X-002262Y017444
X-002258Y-021256
X-002230Y002370
X-002174Y-017666
X-002124Y-000728
X-002045Y-004150
X-001986Y-008624
X-001917Y-007867
X-001882Y018662
X-001874Y-019754
X-001868Y002321
X-001826Y-018212
X-001809Y-000374
X-001809Y-006608
X-001746Y-002322
X-001554Y002006
X-001482Y-017294
X-001462Y-021370
X-001456Y-019866
X-001292Y018590
X-001280Y002560
X-001179Y-000728
X-001101Y-004130
X-001082Y-005762
X-001080Y-018144
X-001040Y-017360
X-001023Y007650
X-000983Y002399
X-000944Y016002
X-000862Y017290
X-000767Y006077
X-000747Y000905
X-000747Y002104
X-000672Y-021306
X-000654Y-019128
X-000646Y-002278
X-000614Y021270
X-000576Y-021776
X-000458Y-018076
X-000442Y008771
X-000433Y007650
X-000433Y009086
X-000334Y-005644
X-000256Y-003770
X-000236Y-000275
X-000236Y000157
X-000236Y000590
X-000186Y018286
X000275Y008653
X000330Y-006514
X000365Y-003767
X000452Y-005644
X000452Y008103
X000558Y017258
X000592Y-015228
X000708Y-000767
X000787Y007395
X000787Y007886
X001023Y-000374
X001092Y018440
X001120Y017930
X001124Y016616
X001340Y-000770
X001357Y007690
X001396Y-003788
X001486Y-010808
X001504Y-010306
X001630Y-014806
X001632Y006038
X001652Y-000374
X001655Y003714
X001731Y-005782
X001947Y007670
X001967Y-000767
X001991Y-006534
X002000Y005510
X002045Y-004110
X002178Y021234
X002236Y014974
X002281Y-000374
X002281Y005330
X002542Y016632
X002586Y018442
X002594Y-006678
X002596Y-000767
X002616Y006116
X002596Y007808
X002712Y-010304
X002730Y004910
X002746Y017644
X002783Y-007906
X002811Y021577
X002911Y-000374
X002911Y004346
X003097Y-003530
X003204Y021577
X003225Y-001770
X003245Y-003176
X003225Y000924
X003304Y007473
X003383Y006116
X003469Y021194
X003566Y008988
X003598Y021577
X003650Y-016390
X003652Y018552
X003690Y002826
X003694Y002260
X003717Y-005900
X003795Y021184
X003992Y021577
X004012Y-003737
X004012Y-003186
X004012Y-002399
X004012Y-001839
X004012Y003579
X004012Y004150
X004046Y015926
X004096Y-004276
X004136Y-001240
X004184Y-010308
X004189Y-000374
X004247Y000767
X004248Y-000767
X004346Y000256
X004482Y-015870
X004970Y-014078
X005222Y-014482
X005244Y-012598
X005278Y-012930
X005378Y-016934
X005540Y-015130
X005546Y-001495
X005560Y014200
X005608Y014600
X005662Y-016074
X005743Y000354
X005800Y-012412
X005814Y-012412
X005841Y-000551
X005916Y008692
X005942Y014676
X005948Y016040
X006102Y010472
X006226Y-014288
X006352Y001259
X006462Y-018038
X006549Y-000787
X006562Y-012416
X006636Y-015764
X006744Y-014824
X006832Y-003624
X006834Y-002810
X006860Y-013230
X006932Y-018092
X007000Y-011800
X007170Y-011390
X007180Y-013276
X007218Y-000413
X007234Y-015950
X007410Y-011056
X007498Y-003496
X007498Y-002159
X007513Y-005389
X007612Y005620
X007738Y-012562
X007800Y-013056
X007802Y-016964
X007818Y-011098
X007834Y008826
X007834Y009158
X007834Y009496
X007836Y009880
X007838Y008464
X008024Y-015420
X008053Y002488
X008110Y000970
X008190Y-017886
X008240Y-007840
X008244Y-011028
X008437Y-002586
X008437Y-002026
X008530Y-011810
X008746Y-013080
X009050Y005072
X009066Y-000846
X009176Y-016074
X009176Y-015444
X009224Y-006411
X009224Y-005723
X009224Y001003
X009176Y014642
X009226Y-012014
X009229Y-004772
X009229Y-002804
X009243Y-003796
X009282Y-013448
X009372Y-015134
X009378Y-015764
X009456Y012400
X009668Y005456
X009670Y004692
X009672Y015978
X009708Y-014204
X009806Y014624
X009830Y016538
X010012Y000550
X010107Y007451
X010226Y005072
X010238Y012356
X010238Y013564
X010368Y-000368
X010368Y006988
X010394Y-012422
X010570Y005074
X010710Y003000
X010737Y007457
X010768Y-005320
X010878Y015236
X010906Y013884
X011060Y-002282
X011168Y004664
X011168Y005528
X011260Y012268
X011404Y017154
X011406Y017982
X011494Y001974
X011638Y-016060
X011650Y-013340
X011654Y-014704
X011658Y-015500
X011666Y-014144
X011686Y-012780
X011792Y005074
X011836Y-007120
X011982Y017566
X012124Y-016760
X012194Y-006887
X012280Y001672
X012336Y-004812
X012484Y-015498
X012822Y003564
X013030Y-012690
X013217Y-006887
X013308Y000386
X013322Y004460
X013344Y008238
X013724Y002586
X013734Y001822
X014004Y-004124
X014078Y-006136
X014152Y014668
X014174Y016186
X014336Y002034
X014746Y-003078
X014980Y002122
X015050Y003602
X015050Y004266
X015076Y013222
X015374Y003948
X015404Y-011834
X015430Y000384
X015564Y-006862
X015972Y002892
X016002Y-014292
X016125Y000699
X016200Y010532
X016278Y-001392
X016640Y011488
X016776Y009853
X016791Y-006265
X016791Y-005175
X016888Y-010804
X017182Y004870
X017320Y008726
X017356Y-000394
X017404Y003556
X017470Y-001646
X017796Y-008392
X017860Y-000446
X017888Y001442
X018054Y-001144
X018222Y-001882
X018258Y-003032
X018325Y-008251
X018620Y-004930
X019721Y-007813
X019736Y004880
X020942Y002066
X021122Y001426
T4C0.0340F200S100
X-000629Y-009279
X-000629Y-007359
X005536Y-008632
X005536Y-007632
X007736Y-008486
X008736Y-008486
X008742Y-009490
X009736Y-008486
X009742Y-009490
X010736Y-008486
T5C0.0370F200S100
X-017494Y-009712
X-017494Y-008712
X-017494Y-007712
X-017494Y-006712
X-017494Y-005712
X-007267Y-011423
X-007267Y-010423
X-006267Y-011423
X-006267Y-010423
X-005267Y-011423
X-005267Y-010423
X006611Y003166
X007611Y003166
T6C0.0380F200S100
X-003069Y009714
X-002086Y009714
X-001299Y009714
X-000316Y009714
X004525Y008360
X006525Y008360
X006525Y010860
X004525Y010860
X006743Y012262
X006743Y013245
X007726Y012262
X007726Y013245
T7C0.0512F200S100
X009662Y002787
X010055Y-007548
T8C0.0827F200S100
X-004289Y010776
X000903Y010776
T2C0.0236F200S100
X-020918Y-004477
X-020815Y004777
X-020785Y-004971
X-020682Y005271
X-020531Y-005921
X-020428Y006221
X-020399Y-006415
X-020295Y006715
X-017169Y-012743
X-017046Y012914
X-016841Y-013135
X-016717Y013305
X-016208Y-013888
X-016085Y014059
X-015880Y-014280
X-015757Y014450
X018050Y011483
X018196Y-011247
X018306Y011040
X018451Y-010805
X018797Y010189
X018943Y-009953
X019053Y009746
X019199Y-009510
T3C0.0315F200S100
X-018268Y-003585
X-017481Y-003585
X-017481Y-002797
X-018268Y-002797
X-018268Y-002010
X-017481Y-002010
X-017481Y-001222
X-018268Y-001222
X-018268Y-000435
X-018268Y000352
X-018268Y001140
X-018268Y001927
X-018268Y002715
X-018268Y003502
X-017481Y-000435
X-017481Y000352
X-017481Y001140
X-017481Y001927
X-017481Y002715
X-017481Y003502
X-016515Y-010045
X-016515Y-009258
X-016515Y-008470
X-016515Y-007683
X-016515Y-006895
X-016515Y-006108
X-015728Y-010045
X-015728Y-009258
X-015728Y-008470
X-015728Y-007683
X-015728Y-006895
X-015728Y-006108
X-014527Y-004466
X-014527Y-003679
X-013740Y-004466
X-013740Y-003679
X-012952Y-004466
X-012952Y-003679
X-012165Y-004466
X-012165Y-003679
X-011377Y-004466
X-011377Y-003679
X-010590Y-004466
X-010590Y-003679
M30
