<?xml version="1.0" encoding="UTF-8" standalone="no"?>
<svg
   xmlns:dc="http://purl.org/dc/elements/1.1/"
   xmlns:cc="http://creativecommons.org/ns#"
   xmlns:rdf="http://www.w3.org/1999/02/22-rdf-syntax-ns#"
   xmlns:svg="http://www.w3.org/2000/svg"
   xmlns="http://www.w3.org/2000/svg"
   xmlns:sodipodi="http://sodipodi.sourceforge.net/DTD/sodipodi-0.dtd"
   xmlns:inkscape="http://www.inkscape.org/namespaces/inkscape"
   version="1.1"
   viewBox="0.0 0.0 720.0 540.0"
   fill="none"
   stroke="none"
   stroke-linecap="square"
   stroke-miterlimit="10"
   id="svg2"
   inkscape:version="0.48.1 r9760"
   width="100%"
   height="100%"
   sodipodi:docname="CDIO.pdf">
  <metadata
     id="metadata34">
    <rdf:RDF>
      <cc:Work
         rdf:about="">
        <dc:format>image/svg+xml</dc:format>
        <dc:type
           rdf:resource="http://purl.org/dc/dcmitype/StillImage" />
        <dc:title></dc:title>
      </cc:Work>
    </rdf:RDF>
  </metadata>
  <defs
     id="defs32">
    <inkscape:perspective
       sodipodi:type="inkscape:persp3d"
       inkscape:vp_x="0 : 270 : 1"
       inkscape:vp_y="0 : 1000 : 0"
       inkscape:vp_z="720 : 270 : 1"
       inkscape:persp3d-origin="360 : 180 : 1"
       id="perspective36" />
  </defs>
  <sodipodi:namedview
     pagecolor="#ffffff"
     bordercolor="#666666"
     borderopacity="1"
     objecttolerance="10"
     gridtolerance="10"
     guidetolerance="10"
     inkscape:pageopacity="0"
     inkscape:pageshadow="2"
     inkscape:window-width="1024"
     inkscape:window-height="575"
     id="namedview30"
     showgrid="false"
     inkscape:zoom="1.7481481"
     inkscape:cx="360"
     inkscape:cy="403.36232"
     inkscape:window-x="0"
     inkscape:window-y="0"
     inkscape:window-maximized="1"
     inkscape:current-layer="svg2" />
  <path
     d="M279.88235 64.35294L471.75638 64.35294L471.75638 144.35295L279.88235 144.35295Z"
     fill-rule="nonzero"
     stroke="#000000"
     stroke-width="1.0"
     stroke-linejoin="round"
     stroke-linecap="butt"
     id="path4"
     inkscape:export-filename="/home/cain/Doctorado/docs/book/images/CDIO.png"
     inkscape:export-xdpi="90"
     inkscape:export-ydpi="90"
     style="fill:#f2f2f2" />
  <path
     d="M363.6636 106.08732L365.46048 106.54044Q364.89798 108.75919 363.42923 109.923256Q361.96048 111.08732 359.83548 111.08732Q357.63235 111.08732 356.25735 110.18888Q354.88235 109.29044 354.1636 107.59513Q353.44485 105.89982 353.44485 103.94669Q353.44485 101.82169 354.24954 100.24357Q355.05423 98.66544 356.55423 97.84513Q358.05423 97.02482 359.8511 97.02482Q361.89798 97.02482 363.2886 98.06388Q364.67923 99.10294 365.2261 100.97794L363.46048 101.39982Q362.99173 99.91544 362.08548 99.235756Q361.17923 98.55607 359.81985 98.55607Q358.25735 98.55607 357.20267 99.30607Q356.14798 100.05607 355.7183 101.329506Q355.2886 102.60294 355.2886 103.94669Q355.2886 105.68107 355.79642 106.97013Q356.30423 108.25919 357.37454 108.89982Q358.44485 109.54044 359.67923 109.54044Q361.19485 109.54044 362.24173 108.673256Q363.2886 107.80607 363.6636 106.08732ZM367.42923 110.85294L367.42923 97.25919L372.11673 97.25919Q373.69485 97.25919 374.5386 97.44669Q375.69485 97.71232 376.52298 98.41544Q377.6011 99.33732 378.13235 100.75138Q378.6636 102.16544 378.6636 103.97794Q378.6636 105.52482 378.30423 106.72013Q377.94485 107.91544 377.38235 108.704506Q376.81985 109.49357 376.14798 109.93888Q375.4761 110.38419 374.52298 110.61857Q373.56985 110.85294 372.33548 110.85294L367.42923 110.85294ZM369.2261 109.24357L372.13235 109.24357Q373.4761 109.24357 374.24173 108.99357Q375.00735 108.74357 375.46048 108.29044Q376.1011 107.64982 376.46048 106.57169Q376.81985 105.49357 376.81985 103.94669Q376.81985 101.82169 376.11673 100.673256Q375.4136 99.52482 374.4136 99.13419Q373.69485 98.85294 372.08548 98.85294L369.2261 98.85294L369.2261 109.24357ZM381.21048 110.85294L381.21048 97.25919L383.02298 97.25919L383.02298 110.85294L381.21048 110.85294ZM385.5386 104.22794Q385.5386 100.83732 387.35892 98.923256Q389.17923 97.00919 392.05423 97.00919Q393.92923 97.00919 395.44485 97.90763Q396.96048 98.80607 397.74954 100.41544Q398.5386 102.02482 398.5386 104.07169Q398.5386 106.13419 397.70267 107.767006Q396.86673 109.39982 395.33548 110.24357Q393.80423 111.08732 392.0386 111.08732Q390.11673 111.08732 388.60892 110.15763Q387.1011 109.22794 386.31985 107.62638Q385.5386 106.02482 385.5386 104.22794ZM387.39798 104.25919Q387.39798 106.71232 388.7183 108.12638Q390.0386 109.54044 392.02298 109.54044Q394.05423 109.54044 395.36673 108.110756Q396.67923 106.68107 396.67923 104.05607Q396.67923 102.39982 396.12454 101.16544Q395.56985 99.93107 394.48392 99.24357Q393.39798 98.55607 392.05423 98.55607Q390.14798 98.55607 388.77298 99.86857Q387.39798 101.18107 387.39798 104.25919Z"
     fill-rule="nonzero"
     fill="#000000"
     id="path6"
     inkscape:export-filename="/home/cain/Doctorado/docs/book/images/CDIO.png"
     inkscape:export-xdpi="90"
     inkscape:export-ydpi="90" />
  <path
     d="M184.0 144.0L312.0 144.0L312.0 224.0L184.0 224.0Z"
     fill-rule="nonzero"
     stroke="#000000"
     stroke-width="1.0"
     stroke-linejoin="round"
     stroke-linecap="butt"
     id="path8"
     inkscape:export-filename="/home/cain/Doctorado/docs/book/images/CDIO.png"
     inkscape:export-xdpi="90"
     inkscape:export-ydpi="90"
     style="fill:#ffd5d5" />
  <path
     d="M214.89062 171.23438L216.125 171.54688Q215.73438 173.0625 214.72656 173.85938Q213.71875 174.65625 212.26562 174.65625Q210.76562 174.65625 209.82031 174.04688Q208.875 173.4375 208.38281 172.27344Q207.89062 171.10938 207.89062 169.78125Q207.89062 168.32812 208.45312 167.24219Q209.01562 166.15625 210.03906 165.59375Q211.0625 165.03125 212.29688 165.03125Q213.6875 165.03125 214.64062 165.74219Q215.59375 166.45312 215.96875 167.75L214.75 168.03125Q214.42188 167.01562 213.8125 166.55469Q213.20312 166.09375 212.26562 166.09375Q211.1875 166.09375 210.46875 166.60938Q209.75 167.125 209.46094 167.98438Q209.17188 168.84375 209.17188 169.76562Q209.17188 170.95312 209.51562 171.84375Q209.85938 172.73438 210.58594 173.17188Q211.3125 173.60938 212.17188 173.60938Q213.20312 173.60938 213.92188 173.00781Q214.64062 172.40625 214.89062 171.23438ZM217.3125 171.125Q217.3125 169.25 218.34375 168.35938Q219.21875 167.60938 220.46875 167.60938Q221.85938 167.60938 222.74219 168.51562Q223.625 169.42188 223.625 171.03125Q223.625 172.32812 223.23438 173.07812Q222.84375 173.82812 222.09375 174.24219Q221.34375 174.65625 220.46875 174.65625Q219.04688 174.65625 218.17969 173.75Q217.3125 172.84375 217.3125 171.125ZM218.48438 171.125Q218.48438 172.42188 219.04688 173.07031Q219.60938 173.71875 220.46875 173.71875Q221.3125 173.71875 221.88281 173.07031Q222.45312 172.42188 222.45312 171.09375Q222.45312 169.84375 221.88281 169.19531Q221.3125 168.54688 220.46875 168.54688Q219.60938 168.54688 219.04688 169.1875Q218.48438 169.82812 218.48438 171.125ZM225.14062 174.5L225.14062 167.76562L226.17188 167.76562L226.17188 168.71875Q226.90625 167.60938 228.3125 167.60938Q228.92188 167.60938 229.42969 167.82812Q229.9375 168.04688 230.19531 168.39844Q230.45312 168.75 230.54688 169.25Q230.60938 169.5625 230.60938 170.35938L230.60938 174.5L229.46875 174.5L229.46875 170.40625Q229.46875 169.70312 229.33594 169.35938Q229.20312 169.01562 228.86719 168.80469Q228.53125 168.59375 228.07812 168.59375Q227.34375 168.59375 226.8125 169.05469Q226.28125 169.51562 226.28125 170.8125L226.28125 174.5L225.14062 174.5ZM232.14062 171.125Q232.14062 169.25 233.17188 168.35938Q234.04688 167.60938 235.29688 167.60938Q236.6875 167.60938 237.57031 168.51562Q238.45312 169.42188 238.45312 171.03125Q238.45312 172.32812 238.0625 173.07812Q237.67188 173.82812 236.92188 174.24219Q236.17188 174.65625 235.29688 174.65625Q233.875 174.65625 233.00781 173.75Q232.14062 172.84375 232.14062 171.125ZM233.3125 171.125Q233.3125 172.42188 233.875 173.07031Q234.4375 173.71875 235.29688 173.71875Q236.14062 173.71875 236.71094 173.07031Q237.28125 172.42188 237.28125 171.09375Q237.28125 169.84375 236.71094 169.19531Q236.14062 168.54688 235.29688 168.54688Q234.4375 168.54688 233.875 169.1875Q233.3125 169.82812 233.3125 171.125ZM244.35938 172.03125L245.48438 172.17188Q245.3125 173.34375 244.54688 174.0Q243.78125 174.65625 242.6875 174.65625Q241.29688 174.65625 240.46094 173.75Q239.625 172.84375 239.625 171.15625Q239.625 170.0625 239.98438 169.24219Q240.34375 168.42188 241.07812 168.01562Q241.8125 167.60938 242.6875 167.60938Q243.78125 167.60938 244.48438 168.16406Q245.1875 168.71875 245.375 169.73438L244.26562 169.90625Q244.10938 169.23438 243.71094 168.89062Q243.3125 168.54688 242.73438 168.54688Q241.875 168.54688 241.33594 169.16406Q240.79688 169.78125 240.79688 171.125Q240.79688 172.48438 241.3125 173.10156Q241.82812 173.71875 242.67188 173.71875Q243.34375 173.71875 243.79688 173.30469Q244.25 172.89062 244.35938 172.03125ZM246.625 166.51562L246.625 165.1875L247.76562 165.1875L247.76562 166.51562L246.625 166.51562ZM246.625 174.5L246.625 167.76562L247.76562 167.76562L247.76562 174.5L246.625 174.5ZM249.59375 174.5L249.59375 167.76562L250.60938 167.76562L250.60938 168.70312Q250.9375 168.20312 251.46094 167.90625Q251.98438 167.60938 252.65625 167.60938Q253.40625 167.60938 253.88281 167.92188Q254.35938 168.23438 254.5625 168.78125Q255.35938 167.60938 256.64062 167.60938Q257.64062 167.60938 258.1797 168.16406Q258.71875 168.71875 258.71875 169.875L258.71875 174.5L257.59375 174.5L257.59375 170.25Q257.59375 169.5625 257.48438 169.26562Q257.375 168.96875 257.07812 168.78125Q256.78125 168.59375 256.39062 168.59375Q255.67188 168.59375 255.20312 169.07031Q254.73438 169.54688 254.73438 170.57812L254.73438 174.5L253.59375 174.5L253.59375 170.125Q253.59375 169.35938 253.3125 168.97656Q253.03125 168.59375 252.40625 168.59375Q251.92188 168.59375 251.51562 168.85156Q251.10938 169.10938 250.92188 169.59375Q250.73438 170.07812 250.73438 171.0L250.73438 174.5L249.59375 174.5ZM260.70312 166.51562L260.70312 165.1875L261.84375 165.1875L261.84375 166.51562L260.70312 166.51562ZM260.70312 174.5L260.70312 167.76562L261.84375 167.76562L261.84375 174.5L260.70312 174.5ZM268.26562 172.32812L269.45312 172.46875Q269.17188 173.51562 268.41406 174.08594Q267.65625 174.65625 266.48438 174.65625Q265.0 174.65625 264.1328 173.74219Q263.26562 172.82812 263.26562 171.1875Q263.26562 169.48438 264.14844 168.54688Q265.03125 167.60938 266.42188 167.60938Q267.78125 167.60938 268.6328 168.53125Q269.48438 169.45312 269.48438 171.10938Q269.48438 171.21875 269.48438 171.42188L264.45312 171.42188Q264.51562 172.53125 265.07812 173.125Q265.64062 173.71875 266.48438 173.71875Q267.125 173.71875 267.5703 173.38281Q268.01562 173.04688 268.26562 172.32812ZM264.51562 170.48438L268.28125 170.48438Q268.20312 169.625 267.84375 169.20312Q267.29688 168.54688 266.4375 168.54688Q265.64062 168.54688 265.10938 169.07031Q264.57812 169.59375 264.51562 170.48438ZM271.0625 174.5L271.0625 167.76562L272.09375 167.76562L272.09375 168.71875Q272.82812 167.60938 274.23438 167.60938Q274.84375 167.60938 275.35156 167.82812Q275.85938 168.04688 276.1172 168.39844Q276.375 168.75 276.46875 169.25Q276.53125 169.5625 276.53125 170.35938L276.53125 174.5L275.39062 174.5L275.39062 170.40625Q275.39062 169.70312 275.2578 169.35938Q275.125 169.01562 274.78906 168.80469Q274.45312 168.59375 274.0 168.59375Q273.26562 168.59375 272.73438 169.05469Q272.20312 169.51562 272.20312 170.8125L272.20312 174.5L271.0625 174.5ZM280.98438 173.48438L281.14062 174.48438Q280.65625 174.59375 280.28125 174.59375Q279.65625 174.59375 279.3125 174.39062Q278.96875 174.1875 278.82812 173.86719Q278.6875 173.54688 278.6875 172.53125L278.6875 168.64062L277.85938 168.64062L277.85938 167.76562L278.6875 167.76562L278.6875 166.09375L279.82812 165.40625L279.82812 167.76562L280.98438 167.76562L280.98438 168.64062L279.82812 168.64062L279.82812 172.59375Q279.82812 173.07812 279.89062 173.21875Q279.95312 173.35938 280.08594 173.4375Q280.21875 173.51562 280.46875 173.51562Q280.67188 173.51562 280.98438 173.48438ZM281.76562 171.125Q281.76562 169.25 282.79688 168.35938Q283.67188 167.60938 284.92188 167.60938Q286.3125 167.60938 287.1953 168.51562Q288.07812 169.42188 288.07812 171.03125Q288.07812 172.32812 287.6875 173.07812Q287.29688 173.82812 286.54688 174.24219Q285.79688 174.65625 284.92188 174.65625Q283.5 174.65625 282.6328 173.75Q281.76562 172.84375 281.76562 171.125ZM282.9375 171.125Q282.9375 172.42188 283.5 173.07031Q284.0625 173.71875 284.92188 173.71875Q285.76562 173.71875 286.33594 173.07031Q286.90625 172.42188 286.90625 171.09375Q286.90625 169.84375 286.33594 169.19531Q285.76562 168.54688 284.92188 168.54688Q284.0625 168.54688 283.5 169.1875Q282.9375 169.82812 282.9375 171.125Z"
     fill-rule="nonzero"
     fill="#000000"
     id="path10"
     inkscape:export-filename="/home/cain/Doctorado/docs/book/images/CDIO.png"
     inkscape:export-xdpi="90"
     inkscape:export-ydpi="90" />
  <path
     d="M222.84375 189.5L222.84375 181.29688L219.78125 181.29688L219.78125 180.1875L227.15625 180.1875L227.15625 181.29688L224.07812 181.29688L224.07812 189.5L222.84375 189.5ZM233.07812 187.32812L234.26562 187.46875Q233.98438 188.51562 233.22656 189.08594Q232.46875 189.65625 231.29688 189.65625Q229.8125 189.65625 228.94531 188.74219Q228.07812 187.82812 228.07812 186.1875Q228.07812 184.48438 228.96094 183.54688Q229.84375 182.60938 231.23438 182.60938Q232.59375 182.60938 233.44531 183.53125Q234.29688 184.45312 234.29688 186.10938Q234.29688 186.21875 234.29688 186.42188L229.26562 186.42188Q229.32812 187.53125 229.89062 188.125Q230.45312 188.71875 231.29688 188.71875Q231.9375 188.71875 232.38281 188.38281Q232.82812 188.04688 233.07812 187.32812ZM229.32812 185.48438L233.09375 185.48438Q233.01562 184.625 232.65625 184.20312Q232.10938 183.54688 231.25 183.54688Q230.45312 183.54688 229.92188 184.07031Q229.39062 184.59375 229.32812 185.48438ZM231.01562 181.92188L231.85938 180.14062L233.35938 180.14062L231.96875 181.92188L231.01562 181.92188ZM240.28125 187.03125L241.40625 187.17188Q241.23438 188.34375 240.46875 189.0Q239.70312 189.65625 238.60938 189.65625Q237.21875 189.65625 236.38281 188.75Q235.54688 187.84375 235.54688 186.15625Q235.54688 185.0625 235.90625 184.24219Q236.26562 183.42188 237.0 183.01562Q237.73438 182.60938 238.60938 182.60938Q239.70312 182.60938 240.40625 183.16406Q241.10938 183.71875 241.29688 184.73438L240.1875 184.90625Q240.03125 184.23438 239.63281 183.89062Q239.23438 183.54688 238.65625 183.54688Q237.79688 183.54688 237.25781 184.16406Q236.71875 184.78125 236.71875 186.125Q236.71875 187.48438 237.23438 188.10156Q237.75 188.71875 238.59375 188.71875Q239.26562 188.71875 239.71875 188.30469Q240.17188 187.89062 240.28125 187.03125ZM242.54688 189.5L242.54688 182.76562L243.57812 182.76562L243.57812 183.71875Q244.3125 182.60938 245.71875 182.60938Q246.32812 182.60938 246.83594 182.82812Q247.34375 183.04688 247.60156 183.39844Q247.85938 183.75 247.95312 184.25Q248.01562 184.5625 248.01562 185.35938L248.01562 189.5L246.875 189.5L246.875 185.40625Q246.875 184.70312 246.74219 184.35938Q246.60938 184.01562 246.27344 183.80469Q245.9375 183.59375 245.48438 183.59375Q244.75 183.59375 244.21875 184.05469Q243.6875 184.51562 243.6875 185.8125L243.6875 189.5L242.54688 189.5ZM249.96875 181.51562L249.96875 180.1875L251.10938 180.1875L251.10938 181.51562L249.96875 181.51562ZM249.96875 189.5L249.96875 182.76562L251.10938 182.76562L251.10938 189.5L249.96875 189.5ZM257.3125 187.03125L258.4375 187.17188Q258.26562 188.34375 257.5 189.0Q256.73438 189.65625 255.64062 189.65625Q254.25 189.65625 253.41406 188.75Q252.57812 187.84375 252.57812 186.15625Q252.57812 185.0625 252.9375 184.24219Q253.29688 183.42188 254.03125 183.01562Q254.76562 182.60938 255.64062 182.60938Q256.73438 182.60938 257.4375 183.16406Q258.14062 183.71875 258.32812 184.73438L257.21875 184.90625Q257.0625 184.23438 256.66406 183.89062Q256.26562 183.54688 255.6875 183.54688Q254.82812 183.54688 254.28906 184.16406Q253.75 184.78125 253.75 186.125Q253.75 187.48438 254.26562 188.10156Q254.78125 188.71875 255.625 188.71875Q256.29688 188.71875 256.75 188.30469Q257.20312 187.89062 257.3125 187.03125ZM259.17188 186.125Q259.17188 184.25 260.20312 183.35938Q261.07812 182.60938 262.32812 182.60938Q263.71875 182.60938 264.60156 183.51562Q265.48438 184.42188 265.48438 186.03125Q265.48438 187.32812 265.09375 188.07812Q264.70312 188.82812 263.95312 189.24219Q263.20312 189.65625 262.32812 189.65625Q260.90625 189.65625 260.03906 188.75Q259.17188 187.84375 259.17188 186.125ZM260.34375 186.125Q260.34375 187.42188 260.90625 188.07031Q261.46875 188.71875 262.32812 188.71875Q263.17188 188.71875 263.7422 188.07031Q264.3125 187.42188 264.3125 186.09375Q264.3125 184.84375 263.7422 184.19531Q263.17188 183.54688 262.32812 183.54688Q261.46875 183.54688 260.90625 184.1875Q260.34375 184.82812 260.34375 186.125ZM270.65625 192.09375L270.51562 191.03125Q270.89062 191.125 271.17188 191.125Q271.5625 191.125 271.78906 191.0Q272.01562 190.875 272.15625 190.64062Q272.26562 190.46875 272.51562 189.79688Q272.54688 189.70312 272.60938 189.51562L270.04688 182.76562L271.28125 182.76562L272.6875 186.65625Q272.95312 187.40625 273.17188 188.21875Q273.375 187.4375 273.64062 186.6875L275.09375 182.76562L276.23438 182.76562L273.67188 189.60938Q273.25 190.71875 273.03125 191.14062Q272.71875 191.70312 272.32812 191.96875Q271.9375 192.23438 271.39062 192.23438Q271.0625 192.23438 270.65625 192.09375Z"
     fill-rule="nonzero"
     fill="#000000"
     id="path12"
     inkscape:export-filename="/home/cain/Doctorado/docs/book/images/CDIO.png"
     inkscape:export-xdpi="90"
     inkscape:export-ydpi="90" />
  <path
     d="M206.03125 204.5L206.03125 195.1875L210.15625 195.1875Q211.40625 195.1875 212.05469 195.44531Q212.70312 195.70312 213.09375 196.33594Q213.48438 196.96875 213.48438 197.73438Q213.48438 198.71875 212.83594 199.39844Q212.1875 200.07812 210.85938 200.26562Q211.34375 200.5 211.59375 200.73438Q212.14062 201.21875 212.625 201.96875L214.23438 204.5L212.6875 204.5L211.45312 202.5625Q210.92188 201.71875 210.57031 201.28125Q210.21875 200.84375 209.94531 200.66406Q209.67188 200.48438 209.39062 200.40625Q209.17188 200.375 208.70312 200.375L207.26562 200.375L207.26562 204.5L206.03125 204.5ZM207.26562 199.29688L209.92188 199.29688Q210.76562 199.29688 211.24219 199.125Q211.71875 198.95312 211.96094 198.57031Q212.20312 198.1875 212.20312 197.73438Q212.20312 197.07812 211.72656 196.64844Q211.25 196.21875 210.21875 196.21875L207.26562 196.21875L207.26562 199.29688ZM219.89062 203.67188Q219.26562 204.20312 218.67969 204.42969Q218.09375 204.65625 217.42188 204.65625Q216.29688 204.65625 215.70312 204.10938Q215.10938 203.5625 215.10938 202.71875Q215.10938 202.23438 215.33594 201.82031Q215.5625 201.40625 215.92969 201.15625Q216.29688 200.90625 216.75 200.78125Q217.07812 200.70312 217.76562 200.60938Q219.14062 200.45312 219.79688 200.21875Q219.8125 199.98438 219.8125 199.92188Q219.8125 199.21875 219.48438 198.9375Q219.04688 198.54688 218.1875 198.54688Q217.375 198.54688 216.99219 198.82812Q216.60938 199.10938 216.42188 199.82812L215.3125 199.6875Q215.45312 198.96875 215.80469 198.52344Q216.15625 198.07812 216.82031 197.84375Q217.48438 197.60938 218.34375 197.60938Q219.21875 197.60938 219.75781 197.8125Q220.29688 198.01562 220.54688 198.32031Q220.79688 198.625 220.90625 199.09375Q220.95312 199.39062 220.95312 200.15625L220.95312 201.67188Q220.95312 203.26562 221.03125 203.6875Q221.10938 204.10938 221.3125 204.5L220.125 204.5Q219.95312 204.14062 219.89062 203.67188ZM219.79688 201.10938Q219.17188 201.375 217.9375 201.54688Q217.23438 201.65625 216.9375 201.78125Q216.64062 201.90625 216.48438 202.14844Q216.32812 202.39062 216.32812 202.6875Q216.32812 203.14062 216.67188 203.44531Q217.01562 203.75 217.6875 203.75Q218.34375 203.75 218.85938 203.46094Q219.375 203.17188 219.625 202.67188Q219.79688 202.29688 219.79688 201.53125L219.79688 201.10938ZM222.3125 204.5L222.3125 203.57812L226.60938 198.64062Q225.875 198.6875 225.3125 198.6875L222.57812 198.6875L222.57812 197.76562L228.07812 197.76562L228.07812 198.51562L224.4375 202.79688L223.71875 203.57812Q224.5 203.51562 225.17188 203.51562L228.28125 203.51562L228.28125 204.5L222.3125 204.5ZM229.15625 201.125Q229.15625 199.25 230.1875 198.35938Q231.0625 197.60938 232.3125 197.60938Q233.70312 197.60938 234.58594 198.51562Q235.46875 199.42188 235.46875 201.03125Q235.46875 202.32812 235.07812 203.07812Q234.6875 203.82812 233.9375 204.24219Q233.1875 204.65625 232.3125 204.65625Q230.89062 204.65625 230.02344 203.75Q229.15625 202.84375 229.15625 201.125ZM230.32812 201.125Q230.32812 202.42188 230.89062 203.07031Q231.45312 203.71875 232.3125 203.71875Q233.15625 203.71875 233.72656 203.07031Q234.29688 202.42188 234.29688 201.09375Q234.29688 199.84375 233.72656 199.19531Q233.15625 198.54688 232.3125 198.54688Q231.45312 198.54688 230.89062 199.1875Q230.32812 199.82812 230.32812 201.125ZM237.0 204.5L237.0 197.76562L238.03125 197.76562L238.03125 198.71875Q238.76562 197.60938 240.17188 197.60938Q240.78125 197.60938 241.28906 197.82812Q241.79688 198.04688 242.05469 198.39844Q242.3125 198.75 242.40625 199.25Q242.46875 199.5625 242.46875 200.35938L242.46875 204.5L241.32812 204.5L241.32812 200.40625Q241.32812 199.70312 241.19531 199.35938Q241.0625 199.01562 240.72656 198.80469Q240.39062 198.59375 239.9375 198.59375Q239.20312 198.59375 238.67188 199.05469Q238.14062 199.51562 238.14062 200.8125L238.14062 204.5L237.0 204.5ZM248.79688 203.67188Q248.17188 204.20312 247.58594 204.42969Q247.0 204.65625 246.32812 204.65625Q245.20312 204.65625 244.60938 204.10938Q244.01562 203.5625 244.01562 202.71875Q244.01562 202.23438 244.24219 201.82031Q244.46875 201.40625 244.83594 201.15625Q245.20312 200.90625 245.65625 200.78125Q245.98438 200.70312 246.67188 200.60938Q248.04688 200.45312 248.70312 200.21875Q248.71875 199.98438 248.71875 199.92188Q248.71875 199.21875 248.39062 198.9375Q247.95312 198.54688 247.09375 198.54688Q246.28125 198.54688 245.89844 198.82812Q245.51562 199.10938 245.32812 199.82812L244.21875 199.6875Q244.35938 198.96875 244.71094 198.52344Q245.0625 198.07812 245.72656 197.84375Q246.39062 197.60938 247.25 197.60938Q248.125 197.60938 248.66406 197.8125Q249.20312 198.01562 249.45312 198.32031Q249.70312 198.625 249.8125 199.09375Q249.85938 199.39062 249.85938 200.15625L249.85938 201.67188Q249.85938 203.26562 249.9375 203.6875Q250.01562 204.10938 250.21875 204.5L249.03125 204.5Q248.85938 204.14062 248.79688 203.67188ZM248.70312 201.10938Q248.07812 201.375 246.84375 201.54688Q246.14062 201.65625 245.84375 201.78125Q245.54688 201.90625 245.39062 202.14844Q245.23438 202.39062 245.23438 202.6875Q245.23438 203.14062 245.57812 203.44531Q245.92188 203.75 246.59375 203.75Q247.25 203.75 247.76562 203.46094Q248.28125 203.17188 248.53125 202.67188Q248.70312 202.29688 248.70312 201.53125L248.70312 201.10938ZM251.8125 204.5L251.8125 197.76562L252.82812 197.76562L252.82812 198.70312Q253.15625 198.20312 253.67969 197.90625Q254.20312 197.60938 254.875 197.60938Q255.625 197.60938 256.10156 197.92188Q256.57812 198.23438 256.78125 198.78125Q257.57812 197.60938 258.85938 197.60938Q259.85938 197.60938 260.39844 198.16406Q260.9375 198.71875 260.9375 199.875L260.9375 204.5L259.8125 204.5L259.8125 200.25Q259.8125 199.5625 259.70312 199.26562Q259.59375 198.96875 259.29688 198.78125Q259.0 198.59375 258.60938 198.59375Q257.89062 198.59375 257.42188 199.07031Q256.95312 199.54688 256.95312 200.57812L256.95312 204.5L255.8125 204.5L255.8125 200.125Q255.8125 199.35938 255.53125 198.97656Q255.25 198.59375 254.625 198.59375Q254.14062 198.59375 253.73438 198.85156Q253.32812 199.10938 253.14062 199.59375Q252.95312 200.07812 252.95312 201.0L252.95312 204.5L251.8125 204.5ZM262.92188 196.51562L262.92188 195.1875L264.0625 195.1875L264.0625 196.51562L262.92188 196.51562ZM262.92188 204.5L262.92188 197.76562L264.0625 197.76562L264.0625 204.5L262.92188 204.5ZM270.48438 202.32812L271.67188 202.46875Q271.39062 203.51562 270.6328 204.08594Q269.875 204.65625 268.70312 204.65625Q267.21875 204.65625 266.35156 203.74219Q265.48438 202.82812 265.48438 201.1875Q265.48438 199.48438 266.3672 198.54688Q267.25 197.60938 268.64062 197.60938Q270.0 197.60938 270.85156 198.53125Q271.70312 199.45312 271.70312 201.10938Q271.70312 201.21875 271.70312 201.42188L266.67188 201.42188Q266.73438 202.53125 267.29688 203.125Q267.85938 203.71875 268.70312 203.71875Q269.34375 203.71875 269.78906 203.38281Q270.23438 203.04688 270.48438 202.32812ZM266.73438 200.48438L270.5 200.48438Q270.42188 199.625 270.0625 199.20312Q269.51562 198.54688 268.65625 198.54688Q267.85938 198.54688 267.32812 199.07031Q266.79688 199.59375 266.73438 200.48438ZM273.29688 204.5L273.29688 197.76562L274.32812 197.76562L274.32812 198.71875Q275.0625 197.60938 276.46875 197.60938Q277.07812 197.60938 277.58594 197.82812Q278.09375 198.04688 278.35156 198.39844Q278.60938 198.75 278.70312 199.25Q278.76562 199.5625 278.76562 200.35938L278.76562 204.5L277.625 204.5L277.625 200.40625Q277.625 199.70312 277.4922 199.35938Q277.35938 199.01562 277.02344 198.80469Q276.6875 198.59375 276.23438 198.59375Q275.5 198.59375 274.96875 199.05469Q274.4375 199.51562 274.4375 200.8125L274.4375 204.5L273.29688 204.5ZM283.20312 203.48438L283.35938 204.48438Q282.875 204.59375 282.5 204.59375Q281.875 204.59375 281.53125 204.39062Q281.1875 204.1875 281.04688 203.86719Q280.90625 203.54688 280.90625 202.53125L280.90625 198.64062L280.07812 198.64062L280.07812 197.76562L280.90625 197.76562L280.90625 196.09375L282.04688 195.40625L282.04688 197.76562L283.20312 197.76562L283.20312 198.64062L282.04688 198.64062L282.04688 202.59375Q282.04688 203.07812 282.10938 203.21875Q282.17188 203.35938 282.3047 203.4375Q282.4375 203.51562 282.6875 203.51562Q282.89062 203.51562 283.20312 203.48438ZM283.98438 201.125Q283.98438 199.25 285.01562 198.35938Q285.89062 197.60938 287.14062 197.60938Q288.53125 197.60938 289.41406 198.51562Q290.29688 199.42188 290.29688 201.03125Q290.29688 202.32812 289.90625 203.07812Q289.51562 203.82812 288.76562 204.24219Q288.01562 204.65625 287.14062 204.65625Q285.71875 204.65625 284.85156 203.75Q283.98438 202.84375 283.98438 201.125ZM285.15625 201.125Q285.15625 202.42188 285.71875 203.07031Q286.28125 203.71875 287.14062 203.71875Q287.98438 203.71875 288.5547 203.07031Q289.125 202.42188 289.125 201.09375Q289.125 199.84375 288.5547 199.19531Q287.98438 198.54688 287.14062 198.54688Q286.28125 198.54688 285.71875 199.1875Q285.15625 199.82812 285.15625 201.125Z"
     fill-rule="nonzero"
     fill="#000000"
     id="path14"
     inkscape:export-filename="/home/cain/Doctorado/docs/book/images/CDIO.png"
     inkscape:export-xdpi="90"
     inkscape:export-ydpi="90" />
  <path
     d="M312.11765 144.11765L440.11765 144.11765L440.11765 224.11765L312.11765 224.11765Z"
     fill-rule="nonzero"
     stroke="#000000"
     stroke-width="1.0"
     stroke-linejoin="round"
     stroke-linecap="butt"
     id="path16"
     inkscape:export-filename="/home/cain/Doctorado/docs/book/images/CDIO.png"
     inkscape:export-xdpi="90"
     inkscape:export-ydpi="90"
     style="fill:#ffb380" />
  <path
     d="M342.3364 174.61765L342.3364 165.30515L343.55515 165.30515L343.55515 169.13327L348.3989 169.13327L348.3989 165.30515L349.63327 165.30515L349.63327 174.61765L348.3989 174.61765L348.3989 170.22702L343.55515 170.22702L343.55515 174.61765L342.3364 174.61765ZM356.16452 173.78952Q355.53952 174.32077 354.95358 174.54733Q354.36765 174.7739 353.69577 174.7739Q352.57077 174.7739 351.97702 174.22702Q351.38327 173.68015 351.38327 172.8364Q351.38327 172.35202 351.60983 171.93796Q351.8364 171.5239 352.20358 171.2739Q352.57077 171.0239 353.0239 170.8989Q353.35202 170.82077 354.03952 170.72702Q355.41452 170.57077 356.07077 170.3364Q356.0864 170.10202 356.0864 170.03952Q356.0864 169.3364 355.75827 169.05515Q355.32077 168.66452 354.4614 168.66452Q353.6489 168.66452 353.26608 168.94577Q352.88327 169.22702 352.69577 169.94577L351.5864 169.80515Q351.72702 169.0864 352.07858 168.64108Q352.43015 168.19577 353.0942 167.9614Q353.75827 167.72702 354.61765 167.72702Q355.49265 167.72702 356.0317 167.93015Q356.57077 168.13327 356.82077 168.43796Q357.07077 168.74265 357.18015 169.2114Q357.22702 169.50827 357.22702 170.2739L357.22702 171.78952Q357.22702 173.38327 357.30515 173.80515Q357.38327 174.22702 357.5864 174.61765L356.3989 174.61765Q356.22702 174.25827 356.16452 173.78952ZM356.07077 171.22702Q355.44577 171.49265 354.2114 171.66452Q353.50827 171.7739 353.2114 171.8989Q352.91452 172.0239 352.75827 172.26608Q352.60202 172.50827 352.60202 172.80515Q352.60202 173.25827 352.94577 173.56296Q353.28952 173.86765 353.9614 173.86765Q354.61765 173.86765 355.13327 173.57858Q355.6489 173.28952 355.8989 172.78952Q356.07077 172.41452 356.07077 171.6489L356.07077 171.22702ZM360.22702 174.61765L359.16452 174.61765L359.16452 165.30515L360.32077 165.30515L360.32077 168.63327Q361.03952 167.72702 362.16452 167.72702Q362.78952 167.72702 363.3442 167.97702Q363.8989 168.22702 364.25827 168.68015Q364.61765 169.13327 364.82077 169.7739Q365.0239 170.41452 365.0239 171.1489Q365.0239 172.88327 364.16452 173.82858Q363.30515 174.7739 362.10202 174.7739Q360.91452 174.7739 360.22702 173.7739L360.22702 174.61765ZM360.2114 171.19577Q360.2114 172.41452 360.55515 172.94577Q361.0864 173.8364 362.00827 173.8364Q362.75827 173.8364 363.30515 173.18015Q363.85202 172.5239 363.85202 171.24265Q363.85202 169.91452 363.32858 169.28952Q362.80515 168.66452 362.05515 168.66452Q361.30515 168.66452 360.75827 169.31296Q360.2114 169.9614 360.2114 171.19577ZM366.60202 166.63327L366.60202 165.30515L367.74265 165.30515L367.74265 166.63327L366.60202 166.63327ZM366.60202 174.61765L366.60202 167.88327L367.74265 167.88327L367.74265 174.61765L366.60202 174.61765ZM369.5239 174.61765L369.5239 165.30515L370.66452 165.30515L370.66452 174.61765L369.5239 174.61765ZM372.5239 166.63327L372.5239 165.30515L373.66452 165.30515L373.66452 166.63327L372.5239 166.63327ZM372.5239 174.61765L372.5239 167.88327L373.66452 167.88327L373.66452 174.61765L372.5239 174.61765ZM379.85202 174.61765L379.85202 173.7739Q379.2114 174.7739 377.9614 174.7739Q377.16452 174.7739 376.48483 174.32858Q375.80515 173.88327 375.43015 173.0864Q375.05515 172.28952 375.05515 171.25827Q375.05515 170.24265 375.3989 169.42233Q375.74265 168.60202 376.41452 168.16452Q377.0864 167.72702 377.91452 167.72702Q378.5239 167.72702 379.00046 167.98483Q379.47702 168.24265 379.7739 168.6489L379.7739 165.30515L380.91452 165.30515L380.91452 174.61765L379.85202 174.61765ZM376.24265 171.25827Q376.24265 172.55515 376.7817 173.19577Q377.32077 173.8364 378.07077 173.8364Q378.82077 173.8364 379.3442 173.21921Q379.86765 172.60202 379.86765 171.35202Q379.86765 169.9614 379.3364 169.31296Q378.80515 168.66452 378.0239 168.66452Q377.25827 168.66452 376.75046 169.28952Q376.24265 169.91452 376.24265 171.25827ZM387.28952 173.78952Q386.66452 174.32077 386.07858 174.54733Q385.49265 174.7739 384.82077 174.7739Q383.69577 174.7739 383.10202 174.22702Q382.50827 173.68015 382.50827 172.8364Q382.50827 172.35202 382.73483 171.93796Q382.9614 171.5239 383.32858 171.2739Q383.69577 171.0239 384.1489 170.8989Q384.47702 170.82077 385.16452 170.72702Q386.53952 170.57077 387.19577 170.3364Q387.2114 170.10202 387.2114 170.03952Q387.2114 169.3364 386.88327 169.05515Q386.44577 168.66452 385.5864 168.66452Q384.7739 168.66452 384.39108 168.94577Q384.00827 169.22702 383.82077 169.94577L382.7114 169.80515Q382.85202 169.0864 383.20358 168.64108Q383.55515 168.19577 384.2192 167.9614Q384.88327 167.72702 385.74265 167.72702Q386.61765 167.72702 387.1567 167.93015Q387.69577 168.13327 387.94577 168.43796Q388.19577 168.74265 388.30515 169.2114Q388.35202 169.50827 388.35202 170.2739L388.35202 171.78952Q388.35202 173.38327 388.43015 173.80515Q388.50827 174.22702 388.7114 174.61765L387.5239 174.61765Q387.35202 174.25827 387.28952 173.78952ZM387.19577 171.22702Q386.57077 171.49265 385.3364 171.66452Q384.63327 171.7739 384.3364 171.8989Q384.03952 172.0239 383.88327 172.26608Q383.72702 172.50827 383.72702 172.80515Q383.72702 173.25827 384.07077 173.56296Q384.41452 173.86765 385.0864 173.86765Q385.74265 173.86765 386.25827 173.57858Q386.7739 173.28952 387.0239 172.78952Q387.19577 172.41452 387.19577 171.6489L387.19577 171.22702ZM394.68015 174.61765L394.68015 173.7739Q394.03952 174.7739 392.78952 174.7739Q391.99265 174.7739 391.31296 174.32858Q390.63327 173.88327 390.25827 173.0864Q389.88327 172.28952 389.88327 171.25827Q389.88327 170.24265 390.22702 169.42233Q390.57077 168.60202 391.24265 168.16452Q391.91452 167.72702 392.74265 167.72702Q393.35202 167.72702 393.82858 167.98483Q394.30515 168.24265 394.60202 168.6489L394.60202 165.30515L395.74265 165.30515L395.74265 174.61765L394.68015 174.61765ZM391.07077 171.25827Q391.07077 172.55515 391.60983 173.19577Q392.1489 173.8364 392.8989 173.8364Q393.6489 173.8364 394.17233 173.21921Q394.69577 172.60202 394.69577 171.35202Q394.69577 169.9614 394.16452 169.31296Q393.63327 168.66452 392.85202 168.66452Q392.0864 168.66452 391.57858 169.28952Q391.07077 169.91452 391.07077 171.25827ZM402.32077 172.44577L403.50827 172.5864Q403.22702 173.63327 402.4692 174.20358Q401.7114 174.7739 400.53952 174.7739Q399.05515 174.7739 398.18796 173.85983Q397.32077 172.94577 397.32077 171.30515Q397.32077 169.60202 398.20358 168.66452Q399.0864 167.72702 400.47702 167.72702Q401.8364 167.72702 402.68796 168.6489Q403.53952 169.57077 403.53952 171.22702Q403.53952 171.3364 403.53952 171.53952L398.50827 171.53952Q398.57077 172.6489 399.13327 173.24265Q399.69577 173.8364 400.53952 173.8364Q401.18015 173.8364 401.62546 173.50046Q402.07077 173.16452 402.32077 172.44577ZM398.57077 170.60202L402.3364 170.60202Q402.25827 169.74265 401.8989 169.32077Q401.35202 168.66452 400.49265 168.66452Q399.69577 168.66452 399.16452 169.18796Q398.63327 169.7114 398.57077 170.60202ZM404.68015 172.60202L405.80515 172.43015Q405.8989 173.10202 406.3364 173.46921Q406.7739 173.8364 407.55515 173.8364Q408.3364 173.8364 408.7192 173.51608Q409.10202 173.19577 409.10202 172.75827Q409.10202 172.36765 408.75827 172.1489Q408.5239 171.99265 407.5864 171.75827Q406.3364 171.44577 405.85202 171.2114Q405.36765 170.97702 405.11765 170.57077Q404.86765 170.16452 404.86765 169.66452Q404.86765 169.2114 405.07077 168.82858Q405.2739 168.44577 405.63327 168.19577Q405.8989 167.99265 406.35983 167.85983Q406.82077 167.72702 407.35202 167.72702Q408.13327 167.72702 408.73483 167.95358Q409.3364 168.18015 409.62546 168.57077Q409.91452 168.9614 410.0239 169.61765L408.8989 169.7739Q408.82077 169.24265 408.4614 168.95358Q408.10202 168.66452 407.43015 168.66452Q406.6489 168.66452 406.30515 168.92233Q405.9614 169.18015 405.9614 169.53952Q405.9614 169.75827 406.10202 169.93015Q406.24265 170.11765 406.53952 170.24265Q406.7114 170.30515 407.55515 170.5239Q408.7739 170.85202 409.25046 171.05515Q409.72702 171.25827 410.00046 171.65671Q410.2739 172.05515 410.2739 172.63327Q410.2739 173.2114 409.93796 173.7114Q409.60202 174.2114 408.97702 174.49265Q408.35202 174.7739 407.55515 174.7739Q406.24265 174.7739 405.55515 174.22702Q404.86765 173.68015 404.68015 172.60202Z"
     fill-rule="nonzero"
     fill="#000000"
     id="path18"
     inkscape:export-filename="/home/cain/Doctorado/docs/book/images/CDIO.png"
     inkscape:export-xdpi="90"
     inkscape:export-ydpi="90" />
  <path
     d="M338.5864 189.61765L338.5864 180.30515L342.10202 180.30515Q343.0239 180.30515 343.50827 180.3989Q344.19577 180.50827 344.66452 180.82858Q345.13327 181.1489 345.41452 181.72702Q345.69577 182.30515 345.69577 183.00827Q345.69577 184.19577 344.93796 185.01608Q344.18015 185.8364 342.2114 185.8364L339.82077 185.8364L339.82077 189.61765L338.5864 189.61765ZM339.82077 184.74265L342.22702 184.74265Q343.41452 184.74265 343.92233 184.29733Q344.43015 183.85202 344.43015 183.03952Q344.43015 182.4614 344.13327 182.04733Q343.8364 181.63327 343.35202 181.49265Q343.03952 181.41452 342.19577 181.41452L339.82077 181.41452L339.82077 184.74265ZM351.94577 187.44577L353.13327 187.5864Q352.85202 188.63327 352.0942 189.20358Q351.3364 189.7739 350.16452 189.7739Q348.68015 189.7739 347.81296 188.85983Q346.94577 187.94577 346.94577 186.30515Q346.94577 184.60202 347.82858 183.66452Q348.7114 182.72702 350.10202 182.72702Q351.4614 182.72702 352.31296 183.6489Q353.16452 184.57077 353.16452 186.22702Q353.16452 186.3364 353.16452 186.53952L348.13327 186.53952Q348.19577 187.6489 348.75827 188.24265Q349.32077 188.8364 350.16452 188.8364Q350.80515 188.8364 351.25046 188.50046Q351.69577 188.16452 351.94577 187.44577ZM348.19577 185.60202L351.9614 185.60202Q351.88327 184.74265 351.5239 184.32077Q350.97702 183.66452 350.11765 183.66452Q349.32077 183.66452 348.78952 184.18796Q348.25827 184.7114 348.19577 185.60202ZM354.72702 189.61765L354.72702 182.88327L355.75827 182.88327L355.75827 183.8989Q356.1489 183.18015 356.48483 182.95358Q356.82077 182.72702 357.2114 182.72702Q357.78952 182.72702 358.38327 183.0864L357.99265 184.1489Q357.57077 183.8989 357.16452 183.8989Q356.78952 183.8989 356.48483 184.12546Q356.18015 184.35202 356.05515 184.75827Q355.86765 185.36765 355.86765 186.0864L355.86765 189.61765L354.72702 189.61765ZM358.72702 187.60202L359.85202 187.43015Q359.94577 188.10202 360.38327 188.46921Q360.82077 188.8364 361.60202 188.8364Q362.38327 188.8364 362.76608 188.51608Q363.1489 188.19577 363.1489 187.75827Q363.1489 187.36765 362.80515 187.1489Q362.57077 186.99265 361.63327 186.75827Q360.38327 186.44577 359.8989 186.2114Q359.41452 185.97702 359.16452 185.57077Q358.91452 185.16452 358.91452 184.66452Q358.91452 184.2114 359.11765 183.82858Q359.32077 183.44577 359.68015 183.19577Q359.94577 182.99265 360.4067 182.85983Q360.86765 182.72702 361.3989 182.72702Q362.18015 182.72702 362.7817 182.95358Q363.38327 183.18015 363.67233 183.57077Q363.9614 183.9614 364.07077 184.61765L362.94577 184.7739Q362.86765 184.24265 362.50827 183.95358Q362.1489 183.66452 361.47702 183.66452Q360.69577 183.66452 360.35202 183.92233Q360.00827 184.18015 360.00827 184.53952Q360.00827 184.75827 360.1489 184.93015Q360.28952 185.11765 360.5864 185.24265Q360.75827 185.30515 361.60202 185.5239Q362.82077 185.85202 363.29733 186.05515Q363.7739 186.25827 364.04733 186.65671Q364.32077 187.05515 364.32077 187.63327Q364.32077 188.2114 363.98483 188.7114Q363.6489 189.2114 363.0239 189.49265Q362.3989 189.7739 361.60202 189.7739Q360.28952 189.7739 359.60202 189.22702Q358.91452 188.68015 358.72702 187.60202ZM365.43015 186.24265Q365.43015 184.36765 366.4614 183.47702Q367.3364 182.72702 368.5864 182.72702Q369.97702 182.72702 370.85983 183.63327Q371.74265 184.53952 371.74265 186.1489Q371.74265 187.44577 371.35202 188.19577Q370.9614 188.94577 370.2114 189.35983Q369.4614 189.7739 368.5864 189.7739Q367.16452 189.7739 366.29733 188.86765Q365.43015 187.9614 365.43015 186.24265ZM366.60202 186.24265Q366.60202 187.53952 367.16452 188.18796Q367.72702 188.8364 368.5864 188.8364Q369.43015 188.8364 370.00046 188.18796Q370.57077 187.53952 370.57077 186.2114Q370.57077 184.9614 370.00046 184.31296Q369.43015 183.66452 368.5864 183.66452Q367.72702 183.66452 367.16452 184.30515Q366.60202 184.94577 366.60202 186.24265ZM373.25827 189.61765L373.25827 182.88327L374.28952 182.88327L374.28952 183.8364Q375.0239 182.72702 376.43015 182.72702Q377.03952 182.72702 377.54733 182.94577Q378.05515 183.16452 378.31296 183.51608Q378.57077 183.86765 378.66452 184.36765Q378.72702 184.68015 378.72702 185.47702L378.72702 189.61765L377.5864 189.61765L377.5864 185.5239Q377.5864 184.82077 377.45358 184.47702Q377.32077 184.13327 376.98483 183.92233Q376.6489 183.7114 376.19577 183.7114Q375.4614 183.7114 374.93015 184.17233Q374.3989 184.63327 374.3989 185.93015L374.3989 189.61765L373.25827 189.61765ZM385.07077 188.78952Q384.44577 189.32077 383.85983 189.54733Q383.2739 189.7739 382.60202 189.7739Q381.47702 189.7739 380.88327 189.22702Q380.28952 188.68015 380.28952 187.8364Q380.28952 187.35202 380.51608 186.93796Q380.74265 186.5239 381.10983 186.2739Q381.47702 186.0239 381.93015 185.8989Q382.25827 185.82077 382.94577 185.72702Q384.32077 185.57077 384.97702 185.3364Q384.99265 185.10202 384.99265 185.03952Q384.99265 184.3364 384.66452 184.05515Q384.22702 183.66452 383.36765 183.66452Q382.55515 183.66452 382.17233 183.94577Q381.78952 184.22702 381.60202 184.94577L380.49265 184.80515Q380.63327 184.0864 380.98483 183.64108Q381.3364 183.19577 382.00046 182.9614Q382.66452 182.72702 383.5239 182.72702Q384.3989 182.72702 384.93796 182.93015Q385.47702 183.13327 385.72702 183.43796Q385.97702 183.74265 386.0864 184.2114Q386.13327 184.50827 386.13327 185.2739L386.13327 186.78952Q386.13327 188.38327 386.2114 188.80515Q386.28952 189.22702 386.49265 189.61765L385.30515 189.61765Q385.13327 189.25827 385.07077 188.78952ZM384.97702 186.22702Q384.35202 186.49265 383.11765 186.66452Q382.41452 186.7739 382.11765 186.8989Q381.82077 187.0239 381.66452 187.26608Q381.50827 187.50827 381.50827 187.80515Q381.50827 188.25827 381.85202 188.56296Q382.19577 188.86765 382.86765 188.86765Q383.5239 188.86765 384.03952 188.57858Q384.55515 188.28952 384.80515 187.78952Q384.97702 187.41452 384.97702 186.6489L384.97702 186.22702ZM388.05515 189.61765L388.05515 180.30515L389.19577 180.30515L389.19577 189.61765L388.05515 189.61765ZM395.66452 187.44577L396.85202 187.5864Q396.57077 188.63327 395.81296 189.20358Q395.05515 189.7739 393.88327 189.7739Q392.3989 189.7739 391.5317 188.85983Q390.66452 187.94577 390.66452 186.30515Q390.66452 184.60202 391.54733 183.66452Q392.43015 182.72702 393.82077 182.72702Q395.18015 182.72702 396.0317 183.6489Q396.88327 184.57077 396.88327 186.22702Q396.88327 186.3364 396.88327 186.53952L391.85202 186.53952Q391.91452 187.6489 392.47702 188.24265Q393.03952 188.8364 393.88327 188.8364Q394.5239 188.8364 394.9692 188.50046Q395.41452 188.16452 395.66452 187.44577ZM391.91452 185.60202L395.68015 185.60202Q395.60202 184.74265 395.24265 184.32077Q394.69577 183.66452 393.8364 183.66452Q393.03952 183.66452 392.50827 184.18796Q391.97702 184.7114 391.91452 185.60202ZM398.00827 187.60202L399.13327 187.43015Q399.22702 188.10202 399.66452 188.46921Q400.10202 188.8364 400.88327 188.8364Q401.66452 188.8364 402.04733 188.51608Q402.43015 188.19577 402.43015 187.75827Q402.43015 187.36765 402.0864 187.1489Q401.85202 186.99265 400.91452 186.75827Q399.66452 186.44577 399.18015 186.2114Q398.69577 185.97702 398.44577 185.57077Q398.19577 185.16452 398.19577 184.66452Q398.19577 184.2114 398.3989 183.82858Q398.60202 183.44577 398.9614 183.19577Q399.22702 182.99265 399.68796 182.85983Q400.1489 182.72702 400.68015 182.72702Q401.4614 182.72702 402.06296 182.95358Q402.66452 183.18015 402.95358 183.57077Q403.24265 183.9614 403.35202 184.61765L402.22702 184.7739Q402.1489 184.24265 401.78952 183.95358Q401.43015 183.66452 400.75827 183.66452Q399.97702 183.66452 399.63327 183.92233Q399.28952 184.18015 399.28952 184.53952Q399.28952 184.75827 399.43015 184.93015Q399.57077 185.11765 399.86765 185.24265Q400.03952 185.30515 400.88327 185.5239Q402.10202 185.85202 402.57858 186.05515Q403.05515 186.25827 403.32858 186.65671Q403.60202 187.05515 403.60202 187.63327Q403.60202 188.2114 403.26608 188.7114Q402.93015 189.2114 402.30515 189.49265Q401.68015 189.7739 400.88327 189.7739Q399.57077 189.7739 398.88327 189.22702Q398.19577 188.68015 398.00827 187.60202ZM408.7739 192.2114L408.63327 191.1489Q409.00827 191.24265 409.28952 191.24265Q409.68015 191.24265 409.9067 191.11765Q410.13327 190.99265 410.2739 190.75827Q410.38327 190.5864 410.63327 189.91452Q410.66452 189.82077 410.72702 189.63327L408.16452 182.88327L409.3989 182.88327L410.80515 186.7739Q411.07077 187.5239 411.28952 188.3364Q411.49265 187.55515 411.75827 186.80515L413.2114 182.88327L414.35202 182.88327L411.78952 189.72702Q411.36765 190.8364 411.1489 191.25827Q410.8364 191.82077 410.44577 192.0864Q410.05515 192.35202 409.50827 192.35202Q409.18015 192.35202 408.7739 192.2114Z"
     fill-rule="nonzero"
     fill="#000000"
     id="path20"
     inkscape:export-filename="/home/cain/Doctorado/docs/book/images/CDIO.png"
     inkscape:export-xdpi="90"
     inkscape:export-ydpi="90" />
  <path
     d="M336.72702 204.61765L336.72702 195.30515L340.24265 195.30515Q341.16452 195.30515 341.6489 195.3989Q342.3364 195.50827 342.80515 195.82858Q343.2739 196.1489 343.55515 196.72702Q343.8364 197.30515 343.8364 198.00827Q343.8364 199.19577 343.07858 200.01608Q342.32077 200.8364 340.35202 200.8364L337.9614 200.8364L337.9614 204.61765L336.72702 204.61765ZM337.9614 199.74265L340.36765 199.74265Q341.55515 199.74265 342.06296 199.29733Q342.57077 198.85202 342.57077 198.03952Q342.57077 197.4614 342.2739 197.04733Q341.97702 196.63327 341.49265 196.49265Q341.18015 196.41452 340.3364 196.41452L337.9614 196.41452L337.9614 199.74265ZM345.4614 204.61765L345.4614 197.88327L346.49265 197.88327L346.49265 198.8989Q346.88327 198.18015 347.2192 197.95358Q347.55515 197.72702 347.94577 197.72702Q348.5239 197.72702 349.11765 198.0864L348.72702 199.1489Q348.30515 198.8989 347.8989 198.8989Q347.5239 198.8989 347.2192 199.12546Q346.91452 199.35202 346.78952 199.75827Q346.60202 200.36765 346.60202 201.0864L346.60202 204.61765L345.4614 204.61765ZM349.49265 201.24265Q349.49265 199.36765 350.5239 198.47702Q351.3989 197.72702 352.6489 197.72702Q354.03952 197.72702 354.92233 198.63327Q355.80515 199.53952 355.80515 201.1489Q355.80515 202.44577 355.41452 203.19577Q355.0239 203.94577 354.2739 204.35983Q353.5239 204.7739 352.6489 204.7739Q351.22702 204.7739 350.35983 203.86765Q349.49265 202.9614 349.49265 201.24265ZM350.66452 201.24265Q350.66452 202.53952 351.22702 203.18796Q351.78952 203.8364 352.6489 203.8364Q353.49265 203.8364 354.06296 203.18796Q354.63327 202.53952 354.63327 201.2114Q354.63327 199.9614 354.06296 199.31296Q353.49265 198.66452 352.6489 198.66452Q351.78952 198.66452 351.22702 199.30515Q350.66452 199.94577 350.66452 201.24265ZM357.60202 204.61765L357.60202 198.75827L356.60202 198.75827L356.60202 197.88327L357.60202 197.88327L357.60202 197.16452Q357.60202 196.47702 357.72702 196.1489Q357.8989 195.7114 358.31296 195.43015Q358.72702 195.1489 359.47702 195.1489Q359.9614 195.1489 360.53952 195.2739L360.36765 196.25827Q360.00827 196.19577 359.69577 196.19577Q359.18015 196.19577 358.9614 196.42233Q358.74265 196.6489 358.74265 197.25827L358.74265 197.88327L360.05515 197.88327L360.05515 198.75827L358.74265 198.75827L358.74265 204.61765L357.60202 204.61765ZM365.6489 202.44577L366.8364 202.5864Q366.55515 203.63327 365.79733 204.20358Q365.03952 204.7739 363.86765 204.7739Q362.38327 204.7739 361.51608 203.85983Q360.6489 202.94577 360.6489 201.30515Q360.6489 199.60202 361.5317 198.66452Q362.41452 197.72702 363.80515 197.72702Q365.16452 197.72702 366.01608 198.6489Q366.86765 199.57077 366.86765 201.22702Q366.86765 201.3364 366.86765 201.53952L361.8364 201.53952Q361.8989 202.6489 362.4614 203.24265Q363.0239 203.8364 363.86765 203.8364Q364.50827 203.8364 364.95358 203.50046Q365.3989 203.16452 365.6489 202.44577ZM361.8989 200.60202L365.66452 200.60202Q365.5864 199.74265 365.22702 199.32077Q364.68015 198.66452 363.82077 198.66452Q363.0239 198.66452 362.49265 199.18796Q361.9614 199.7114 361.8989 200.60202ZM367.99265 202.60202L369.11765 202.43015Q369.2114 203.10202 369.6489 203.46921Q370.0864 203.8364 370.86765 203.8364Q371.6489 203.8364 372.0317 203.51608Q372.41452 203.19577 372.41452 202.75827Q372.41452 202.36765 372.07077 202.1489Q371.8364 201.99265 370.8989 201.75827Q369.6489 201.44577 369.16452 201.2114Q368.68015 200.97702 368.43015 200.57077Q368.18015 200.16452 368.18015 199.66452Q368.18015 199.2114 368.38327 198.82858Q368.5864 198.44577 368.94577 198.19577Q369.2114 197.99265 369.67233 197.85983Q370.13327 197.72702 370.66452 197.72702Q371.44577 197.72702 372.04733 197.95358Q372.6489 198.18015 372.93796 198.57077Q373.22702 198.9614 373.3364 199.61765L372.2114 199.7739Q372.13327 199.24265 371.7739 198.95358Q371.41452 198.66452 370.74265 198.66452Q369.9614 198.66452 369.61765 198.92233Q369.2739 199.18015 369.2739 199.53952Q369.2739 199.75827 369.41452 199.93015Q369.55515 200.11765 369.85202 200.24265Q370.0239 200.30515 370.86765 200.5239Q372.0864 200.85202 372.56296 201.05515Q373.03952 201.25827 373.31296 201.65671Q373.5864 202.05515 373.5864 202.63327Q373.5864 203.2114 373.25046 203.7114Q372.91452 204.2114 372.28952 204.49265Q371.66452 204.7739 370.86765 204.7739Q369.55515 204.7739 368.86765 204.22702Q368.18015 203.68015 367.99265 202.60202ZM375.11765 196.63327L375.11765 195.30515L376.25827 195.30515L376.25827 196.63327L375.11765 196.63327ZM375.11765 204.61765L375.11765 197.88327L376.25827 197.88327L376.25827 204.61765L375.11765 204.61765ZM377.6489 201.24265Q377.6489 199.36765 378.68015 198.47702Q379.55515 197.72702 380.80515 197.72702Q382.19577 197.72702 383.07858 198.63327Q383.9614 199.53952 383.9614 201.1489Q383.9614 202.44577 383.57077 203.19577Q383.18015 203.94577 382.43015 204.35983Q381.68015 204.7739 380.80515 204.7739Q379.38327 204.7739 378.51608 203.86765Q377.6489 202.9614 377.6489 201.24265ZM378.82077 201.24265Q378.82077 202.53952 379.38327 203.18796Q379.94577 203.8364 380.80515 203.8364Q381.6489 203.8364 382.2192 203.18796Q382.78952 202.53952 382.78952 201.2114Q382.78952 199.9614 382.2192 199.31296Q381.6489 198.66452 380.80515 198.66452Q379.94577 198.66452 379.38327 199.30515Q378.82077 199.94577 378.82077 201.24265ZM385.47702 204.61765L385.47702 197.88327L386.50827 197.88327L386.50827 198.8364Q387.24265 197.72702 388.6489 197.72702Q389.25827 197.72702 389.76608 197.94577Q390.2739 198.16452 390.5317 198.51608Q390.78952 198.86765 390.88327 199.36765Q390.94577 199.68015 390.94577 200.47702L390.94577 204.61765L389.80515 204.61765L389.80515 200.5239Q389.80515 199.82077 389.67233 199.47702Q389.53952 199.13327 389.20358 198.92233Q388.86765 198.7114 388.41452 198.7114Q387.68015 198.7114 387.1489 199.17233Q386.61765 199.63327 386.61765 200.93015L386.61765 204.61765L385.47702 204.61765ZM397.28952 203.78952Q396.66452 204.32077 396.07858 204.54733Q395.49265 204.7739 394.82077 204.7739Q393.69577 204.7739 393.10202 204.22702Q392.50827 203.68015 392.50827 202.8364Q392.50827 202.35202 392.73483 201.93796Q392.9614 201.5239 393.32858 201.2739Q393.69577 201.0239 394.1489 200.8989Q394.47702 200.82077 395.16452 200.72702Q396.53952 200.57077 397.19577 200.3364Q397.2114 200.10202 397.2114 200.03952Q397.2114 199.3364 396.88327 199.05515Q396.44577 198.66452 395.5864 198.66452Q394.7739 198.66452 394.39108 198.94577Q394.00827 199.22702 393.82077 199.94577L392.7114 199.80515Q392.85202 199.0864 393.20358 198.64108Q393.55515 198.19577 394.2192 197.9614Q394.88327 197.72702 395.74265 197.72702Q396.61765 197.72702 397.1567 197.93015Q397.69577 198.13327 397.94577 198.43796Q398.19577 198.74265 398.30515 199.2114Q398.35202 199.50827 398.35202 200.2739L398.35202 201.78952Q398.35202 203.38327 398.43015 203.80515Q398.50827 204.22702 398.7114 204.61765L397.5239 204.61765Q397.35202 204.25827 397.28952 203.78952ZM397.19577 201.22702Q396.57077 201.49265 395.3364 201.66452Q394.63327 201.7739 394.3364 201.8989Q394.03952 202.0239 393.88327 202.26608Q393.72702 202.50827 393.72702 202.80515Q393.72702 203.25827 394.07077 203.56296Q394.41452 203.86765 395.0864 203.86765Q395.74265 203.86765 396.25827 203.57858Q396.7739 203.28952 397.0239 202.78952Q397.19577 202.41452 397.19577 201.6489L397.19577 201.22702ZM400.2739 204.61765L400.2739 195.30515L401.41452 195.30515L401.41452 204.61765L400.2739 204.61765ZM407.88327 202.44577L409.07077 202.5864Q408.78952 203.63327 408.0317 204.20358Q407.2739 204.7739 406.10202 204.7739Q404.61765 204.7739 403.75046 203.85983Q402.88327 202.94577 402.88327 201.30515Q402.88327 199.60202 403.76608 198.66452Q404.6489 197.72702 406.03952 197.72702Q407.3989 197.72702 408.25046 198.6489Q409.10202 199.57077 409.10202 201.22702Q409.10202 201.3364 409.10202 201.53952L404.07077 201.53952Q404.13327 202.6489 404.69577 203.24265Q405.25827 203.8364 406.10202 203.8364Q406.74265 203.8364 407.18796 203.50046Q407.63327 203.16452 407.88327 202.44577ZM404.13327 200.60202L407.8989 200.60202Q407.82077 199.74265 407.4614 199.32077Q406.91452 198.66452 406.05515 198.66452Q405.25827 198.66452 404.72702 199.18796Q404.19577 199.7114 404.13327 200.60202ZM410.22702 202.60202L411.35202 202.43015Q411.44577 203.10202 411.88327 203.46921Q412.32077 203.8364 413.10202 203.8364Q413.88327 203.8364 414.26608 203.51608Q414.6489 203.19577 414.6489 202.75827Q414.6489 202.36765 414.30515 202.1489Q414.07077 201.99265 413.13327 201.75827Q411.88327 201.44577 411.3989 201.2114Q410.91452 200.97702 410.66452 200.57077Q410.41452 200.16452 410.41452 199.66452Q410.41452 199.2114 410.61765 198.82858Q410.82077 198.44577 411.18015 198.19577Q411.44577 197.99265 411.9067 197.85983Q412.36765 197.72702 412.8989 197.72702Q413.68015 197.72702 414.2817 197.95358Q414.88327 198.18015 415.17233 198.57077Q415.4614 198.9614 415.57077 199.61765L414.44577 199.7739Q414.36765 199.24265 414.00827 198.95358Q413.6489 198.66452 412.97702 198.66452Q412.19577 198.66452 411.85202 198.92233Q411.50827 199.18015 411.50827 199.53952Q411.50827 199.75827 411.6489 199.93015Q411.78952 200.11765 412.0864 200.24265Q412.25827 200.30515 413.10202 200.5239Q414.32077 200.85202 414.79733 201.05515Q415.2739 201.25827 415.54733 201.65671Q415.82077 202.05515 415.82077 202.63327Q415.82077 203.2114 415.48483 203.7114Q415.1489 204.2114 414.5239 204.49265Q413.8989 204.7739 413.10202 204.7739Q411.78952 204.7739 411.10202 204.22702Q410.41452 203.68015 410.22702 202.60202Z"
     fill-rule="nonzero"
     fill="#000000"
     id="path22"
     inkscape:export-filename="/home/cain/Doctorado/docs/book/images/CDIO.png"
     inkscape:export-xdpi="90"
     inkscape:export-ydpi="90" />
  <path
     d="M440.2353 144.23529L568.2353 144.23529L568.2353 224.2353L440.2353 224.2353Z"
     fill-rule="nonzero"
     stroke="#000000"
     stroke-width="1.0"
     stroke-linejoin="round"
     stroke-linecap="butt"
     id="path24"
     inkscape:export-filename="/home/cain/Doctorado/docs/book/images/CDIO.png"
     inkscape:export-xdpi="90"
     inkscape:export-ydpi="90"
     style="fill:#e3dbdb" />
  <path
     d="M453.0478 182.23529L453.0478 172.92279L454.26654 172.92279L454.26654 176.75092L459.1103 176.75092L459.1103 172.92279L460.34467 172.92279L460.34467 182.23529L459.1103 182.23529L459.1103 177.84467L454.26654 177.84467L454.26654 182.23529L453.0478 182.23529ZM466.87592 181.40717Q466.25092 181.93842 465.66498 182.16498Q465.07904 182.39154 464.40717 182.39154Q463.28217 182.39154 462.68842 181.84467Q462.09467 181.29779 462.09467 180.45404Q462.09467 179.96967 462.32123 179.5556Q462.5478 179.14154 462.91498 178.89154Q463.28217 178.64154 463.7353 178.51654Q464.06342 178.43842 464.75092 178.34467Q466.12592 178.18842 466.78217 177.95404Q466.7978 177.71967 466.7978 177.65717Q466.7978 176.95404 466.46967 176.67279Q466.03217 176.28217 465.1728 176.28217Q464.3603 176.28217 463.97748 176.56342Q463.59467 176.84467 463.40717 177.56342L462.2978 177.42279Q462.43842 176.70404 462.78998 176.25873Q463.14154 175.81342 463.8056 175.57904Q464.46967 175.34467 465.32904 175.34467Q466.20404 175.34467 466.7431 175.54779Q467.28217 175.75092 467.53217 176.0556Q467.78217 176.36029 467.89154 176.82904Q467.93842 177.12592 467.93842 177.89154L467.93842 179.40717Q467.93842 181.00092 468.01654 181.42279Q468.09467 181.84467 468.2978 182.23529L467.1103 182.23529Q466.93842 181.87592 466.87592 181.40717ZM466.78217 178.84467Q466.15717 179.11029 464.9228 179.28217Q464.21967 179.39154 463.9228 179.51654Q463.62592 179.64154 463.46967 179.88373Q463.31342 180.12592 463.31342 180.42279Q463.31342 180.87592 463.65717 181.1806Q464.00092 181.48529 464.6728 181.48529Q465.32904 181.48529 465.84467 181.19623Q466.3603 180.90717 466.6103 180.40717Q466.78217 180.03217 466.78217 179.26654L466.78217 178.84467ZM470.93842 182.23529L469.87592 182.23529L469.87592 172.92279L471.03217 172.92279L471.03217 176.25092Q471.75092 175.34467 472.87592 175.34467Q473.50092 175.34467 474.0556 175.59467Q474.6103 175.84467 474.96967 176.29779Q475.32904 176.75092 475.53217 177.39154Q475.7353 178.03217 475.7353 178.76654Q475.7353 180.50092 474.87592 181.44623Q474.01654 182.39154 472.81342 182.39154Q471.62592 182.39154 470.93842 181.39154L470.93842 182.23529ZM470.9228 178.81342Q470.9228 180.03217 471.26654 180.56342Q471.7978 181.45404 472.71967 181.45404Q473.46967 181.45404 474.01654 180.79779Q474.56342 180.14154 474.56342 178.86029Q474.56342 177.53217 474.03998 176.90717Q473.51654 176.28217 472.76654 176.28217Q472.01654 176.28217 471.46967 176.9306Q470.9228 177.57904 470.9228 178.81342ZM477.31342 174.25092L477.31342 172.92279L478.45404 172.92279L478.45404 174.25092L477.31342 174.25092ZM477.31342 182.23529L477.31342 175.50092L478.45404 175.50092L478.45404 182.23529L477.31342 182.23529ZM480.2353 182.23529L480.2353 172.92279L481.37592 172.92279L481.37592 182.23529L480.2353 182.23529ZM483.2353 174.25092L483.2353 172.92279L484.37592 172.92279L484.37592 174.25092L483.2353 174.25092ZM483.2353 182.23529L483.2353 175.50092L484.37592 175.50092L484.37592 182.23529L483.2353 182.23529ZM490.56342 182.23529L490.56342 181.39154Q489.9228 182.39154 488.6728 182.39154Q487.87592 182.39154 487.19623 181.94623Q486.51654 181.50092 486.14154 180.70404Q485.76654 179.90717 485.76654 178.87592Q485.76654 177.86029 486.1103 177.03998Q486.45404 176.21967 487.12592 175.78217Q487.7978 175.34467 488.62592 175.34467Q489.2353 175.34467 489.71185 175.60248Q490.18842 175.86029 490.4853 176.26654L490.4853 172.92279L491.62592 172.92279L491.62592 182.23529L490.56342 182.23529ZM486.95404 178.87592Q486.95404 180.17279 487.4931 180.81342Q488.03217 181.45404 488.78217 181.45404Q489.53217 181.45404 490.0556 180.83685Q490.57904 180.21967 490.57904 178.96967Q490.57904 177.57904 490.0478 176.9306Q489.51654 176.28217 488.7353 176.28217Q487.96967 176.28217 487.46185 176.90717Q486.95404 177.53217 486.95404 178.87592ZM498.00092 181.40717Q497.37592 181.93842 496.78998 182.16498Q496.20404 182.39154 495.53217 182.39154Q494.40717 182.39154 493.81342 181.84467Q493.21967 181.29779 493.21967 180.45404Q493.21967 179.96967 493.44623 179.5556Q493.6728 179.14154 494.03998 178.89154Q494.40717 178.64154 494.8603 178.51654Q495.18842 178.43842 495.87592 178.34467Q497.25092 178.18842 497.90717 177.95404Q497.9228 177.71967 497.9228 177.65717Q497.9228 176.95404 497.59467 176.67279Q497.15717 176.28217 496.2978 176.28217Q495.4853 176.28217 495.10248 176.56342Q494.71967 176.84467 494.53217 177.56342L493.4228 177.42279Q493.56342 176.70404 493.91498 176.25873Q494.26654 175.81342 494.9306 175.57904Q495.59467 175.34467 496.45404 175.34467Q497.32904 175.34467 497.8681 175.54779Q498.40717 175.75092 498.65717 176.0556Q498.90717 176.36029 499.01654 176.82904Q499.06342 177.12592 499.06342 177.89154L499.06342 179.40717Q499.06342 181.00092 499.14154 181.42279Q499.21967 181.84467 499.4228 182.23529L498.2353 182.23529Q498.06342 181.87592 498.00092 181.40717ZM497.90717 178.84467Q497.28217 179.11029 496.0478 179.28217Q495.34467 179.39154 495.0478 179.51654Q494.75092 179.64154 494.59467 179.88373Q494.43842 180.12592 494.43842 180.42279Q494.43842 180.87592 494.78217 181.1806Q495.12592 181.48529 495.7978 181.48529Q496.45404 181.48529 496.96967 181.19623Q497.4853 180.90717 497.7353 180.40717Q497.90717 180.03217 497.90717 179.26654L497.90717 178.84467ZM505.39154 182.23529L505.39154 181.39154Q504.75092 182.39154 503.50092 182.39154Q502.70404 182.39154 502.02435 181.94623Q501.34467 181.50092 500.96967 180.70404Q500.59467 179.90717 500.59467 178.87592Q500.59467 177.86029 500.93842 177.03998Q501.28217 176.21967 501.95404 175.78217Q502.62592 175.34467 503.45404 175.34467Q504.06342 175.34467 504.53998 175.60248Q505.01654 175.86029 505.31342 176.26654L505.31342 172.92279L506.45404 172.92279L506.45404 182.23529L505.39154 182.23529ZM501.78217 178.87592Q501.78217 180.17279 502.32123 180.81342Q502.8603 181.45404 503.6103 181.45404Q504.3603 181.45404 504.88373 180.83685Q505.40717 180.21967 505.40717 178.96967Q505.40717 177.57904 504.87592 176.9306Q504.34467 176.28217 503.56342 176.28217Q502.7978 176.28217 502.28998 176.90717Q501.78217 177.53217 501.78217 178.87592ZM513.03217 180.06342L514.21967 180.20404Q513.9384 181.25092 513.1806 181.82123Q512.4228 182.39154 511.25092 182.39154Q509.76654 182.39154 508.89935 181.47748Q508.03217 180.56342 508.03217 178.92279Q508.03217 177.21967 508.91498 176.28217Q509.7978 175.34467 511.18842 175.34467Q512.5478 175.34467 513.39935 176.26654Q514.2509 177.18842 514.2509 178.84467Q514.2509 178.95404 514.2509 179.15717L509.21967 179.15717Q509.28217 180.26654 509.84467 180.86029Q510.40717 181.45404 511.25092 181.45404Q511.89154 181.45404 512.33685 181.1181Q512.78217 180.78217 513.03217 180.06342ZM509.28217 178.21967L513.0478 178.21967Q512.96967 177.36029 512.6103 176.93842Q512.0634 176.28217 511.20404 176.28217Q510.40717 176.28217 509.87592 176.8056Q509.34467 177.32904 509.28217 178.21967ZM515.39154 180.21967L516.51654 180.04779Q516.6103 180.71967 517.0478 181.08685Q517.4853 181.45404 518.26654 181.45404Q519.0478 181.45404 519.4306 181.13373Q519.8134 180.81342 519.8134 180.37592Q519.8134 179.98529 519.46967 179.76654Q519.2353 179.61029 518.2978 179.37592Q517.0478 179.06342 516.5634 178.82904Q516.07904 178.59467 515.82904 178.18842Q515.57904 177.78217 515.57904 177.28217Q515.57904 176.82904 515.78217 176.44623Q515.9853 176.06342 516.34467 175.81342Q516.6103 175.61029 517.0712 175.47748Q517.53217 175.34467 518.0634 175.34467Q518.84467 175.34467 519.4462 175.57123Q520.0478 175.79779 520.33685 176.18842Q520.6259 176.57904 520.7353 177.23529L519.6103 177.39154Q519.53217 176.86029 519.1728 176.57123Q518.8134 176.28217 518.14154 176.28217Q517.3603 176.28217 517.01654 176.53998Q516.6728 176.79779 516.6728 177.15717Q516.6728 177.37592 516.8134 177.54779Q516.95404 177.73529 517.2509 177.86029Q517.4228 177.92279 518.26654 178.14154Q519.4853 178.46967 519.96185 178.67279Q520.4384 178.87592 520.71185 179.27435Q520.9853 179.67279 520.9853 180.25092Q520.9853 180.82904 520.64935 181.32904Q520.3134 181.82904 519.6884 182.11029Q519.0634 182.39154 518.26654 182.39154Q516.95404 182.39154 516.26654 181.84467Q515.57904 181.29779 515.39154 180.21967ZM526.5634 182.23529L526.5634 172.92279L527.78217 172.92279L527.78217 182.23529L526.5634 182.23529ZM529.90717 182.23529L529.90717 175.50092L530.9384 175.50092L530.9384 176.45404Q531.6728 175.34467 533.07904 175.34467Q533.6884 175.34467 534.1962 175.56342Q534.70404 175.78217 534.96185 176.13373Q535.21967 176.48529 535.3134 176.98529Q535.3759 177.29779 535.3759 178.09467L535.3759 182.23529L534.2353 182.23529L534.2353 178.14154Q534.2353 177.43842 534.1025 177.09467Q533.96967 176.75092 533.6337 176.53998Q533.2978 176.32904 532.84467 176.32904Q532.1103 176.32904 531.57904 176.78998Q531.0478 177.25092 531.0478 178.54779L531.0478 182.23529L529.90717 182.23529ZM539.82904 181.21967L539.9853 182.21967Q539.5009 182.32904 539.1259 182.32904Q538.5009 182.32904 538.15717 182.12592Q537.8134 181.92279 537.6728 181.60248Q537.53217 181.28217 537.53217 180.26654L537.53217 176.37592L536.70404 176.37592L536.70404 175.50092L537.53217 175.50092L537.53217 173.82904L538.6728 173.14154L538.6728 175.50092L539.82904 175.50092L539.82904 176.37592L538.6728 176.37592L538.6728 180.32904Q538.6728 180.81342 538.7353 180.95404Q538.7978 181.09467 538.9306 181.17279Q539.0634 181.25092 539.3134 181.25092Q539.51654 181.25092 539.82904 181.21967ZM545.64154 180.06342L546.82904 180.20404Q546.5478 181.25092 545.79 181.82123Q545.03217 182.39154 543.8603 182.39154Q542.3759 182.39154 541.5087 181.47748Q540.64154 180.56342 540.64154 178.92279Q540.64154 177.21967 541.52435 176.28217Q542.40717 175.34467 543.7978 175.34467Q545.15717 175.34467 546.0087 176.26654Q546.8603 177.18842 546.8603 178.84467Q546.8603 178.95404 546.8603 179.15717L541.82904 179.15717Q541.89154 180.26654 542.45404 180.86029Q543.01654 181.45404 543.8603 181.45404Q544.5009 181.45404 544.9462 181.1181Q545.39154 180.78217 545.64154 180.06342ZM541.89154 178.21967L545.65717 178.21967Q545.57904 177.36029 545.21967 176.93842Q544.6728 176.28217 543.8134 176.28217Q543.01654 176.28217 542.4853 176.8056Q541.95404 177.32904 541.89154 178.21967ZM548.4228 182.23529L548.4228 175.50092L549.45404 175.50092L549.45404 176.51654Q549.84467 175.79779 550.1806 175.57123Q550.51654 175.34467 550.90717 175.34467Q551.4853 175.34467 552.07904 175.70404L551.6884 176.76654Q551.26654 176.51654 550.8603 176.51654Q550.4853 176.51654 550.1806 176.7431Q549.8759 176.96967 549.7509 177.37592Q549.5634 177.98529 549.5634 178.70404L549.5634 182.23529L548.4228 182.23529ZM552.4228 179.43842L552.4228 178.29779L555.9384 178.29779L555.9384 179.43842L552.4228 179.43842Z"
     fill-rule="nonzero"
     fill="#000000"
     id="path26"
     inkscape:export-filename="/home/cain/Doctorado/docs/book/images/CDIO.png"
     inkscape:export-xdpi="90"
     inkscape:export-ydpi="90" />
  <path
     d="M472.4853 199.81342L472.4853 190.50092L473.51654 190.50092L473.51654 191.37592Q473.89154 190.86029 474.35248 190.60248Q474.81342 190.34467 475.4853 190.34467Q476.34467 190.34467 477.00092 190.78998Q477.65717 191.23529 477.9931 192.03998Q478.32904 192.84467 478.32904 193.81342Q478.32904 194.84467 477.96185 195.67279Q477.59467 196.50092 476.88373 196.94623Q476.1728 197.39154 475.39154 197.39154Q474.82904 197.39154 474.37592 197.14935Q473.9228 196.90717 473.62592 196.53217L473.62592 199.81342L472.4853 199.81342ZM473.51654 193.90717Q473.51654 195.20404 474.0478 195.82904Q474.57904 196.45404 475.31342 196.45404Q476.07904 196.45404 476.62592 195.8056Q477.1728 195.15717 477.1728 193.81342Q477.1728 192.51654 476.64154 191.87592Q476.1103 191.23529 475.37592 191.23529Q474.64154 191.23529 474.07904 191.91498Q473.51654 192.59467 473.51654 193.90717ZM484.50092 195.06342L485.68842 195.20404Q485.40717 196.25092 484.64935 196.82123Q483.89154 197.39154 482.71967 197.39154Q481.2353 197.39154 480.3681 196.47748Q479.50092 195.56342 479.50092 193.92279Q479.50092 192.21967 480.38373 191.28217Q481.26654 190.34467 482.65717 190.34467Q484.01654 190.34467 484.8681 191.26654Q485.71967 192.18842 485.71967 193.84467Q485.71967 193.95404 485.71967 194.15717L480.68842 194.15717Q480.75092 195.26654 481.31342 195.86029Q481.87592 196.45404 482.71967 196.45404Q483.3603 196.45404 483.8056 196.1181Q484.25092 195.78217 484.50092 195.06342ZM480.75092 193.21967L484.51654 193.21967Q484.43842 192.36029 484.07904 191.93842Q483.53217 191.28217 482.6728 191.28217Q481.87592 191.28217 481.34467 191.8056Q480.81342 192.32904 480.75092 193.21967ZM487.2978 197.23529L487.2978 190.50092L488.32904 190.50092L488.32904 191.51654Q488.71967 190.79779 489.0556 190.57123Q489.39154 190.34467 489.78217 190.34467Q490.3603 190.34467 490.95404 190.70404L490.56342 191.76654Q490.14154 191.51654 489.7353 191.51654Q489.3603 191.51654 489.0556 191.7431Q488.75092 191.96967 488.62592 192.37592Q488.43842 192.98529 488.43842 193.70404L488.43842 197.23529L487.2978 197.23529ZM491.2978 195.21967L492.4228 195.04779Q492.51654 195.71967 492.95404 196.08685Q493.39154 196.45404 494.1728 196.45404Q494.95404 196.45404 495.33685 196.13373Q495.71967 195.81342 495.71967 195.37592Q495.71967 194.98529 495.37592 194.76654Q495.14154 194.61029 494.20404 194.37592Q492.95404 194.06342 492.46967 193.82904Q491.9853 193.59467 491.7353 193.18842Q491.4853 192.78217 491.4853 192.28217Q491.4853 191.82904 491.68842 191.44623Q491.89154 191.06342 492.25092 190.81342Q492.51654 190.61029 492.97748 190.47748Q493.43842 190.34467 493.96967 190.34467Q494.75092 190.34467 495.35248 190.57123Q495.95404 190.79779 496.2431 191.18842Q496.53217 191.57904 496.64154 192.23529L495.51654 192.39154Q495.43842 191.86029 495.07904 191.57123Q494.71967 191.28217 494.0478 191.28217Q493.26654 191.28217 492.9228 191.53998Q492.57904 191.79779 492.57904 192.15717Q492.57904 192.37592 492.71967 192.54779Q492.8603 192.73529 493.15717 192.86029Q493.32904 192.92279 494.1728 193.14154Q495.39154 193.46967 495.8681 193.67279Q496.34467 193.87592 496.6181 194.27435Q496.89154 194.67279 496.89154 195.25092Q496.89154 195.82904 496.5556 196.32904Q496.21967 196.82904 495.59467 197.11029Q494.96967 197.39154 494.1728 197.39154Q492.8603 197.39154 492.1728 196.84467Q491.4853 196.29779 491.2978 195.21967ZM497.9853 193.86029Q497.9853 191.98529 499.01654 191.09467Q499.89154 190.34467 501.14154 190.34467Q502.53217 190.34467 503.41498 191.25092Q504.2978 192.15717 504.2978 193.76654Q504.2978 195.06342 503.90717 195.81342Q503.51654 196.56342 502.76654 196.97748Q502.01654 197.39154 501.14154 197.39154Q499.71967 197.39154 498.85248 196.48529Q497.9853 195.57904 497.9853 193.86029ZM499.15717 193.86029Q499.15717 195.15717 499.71967 195.8056Q500.28217 196.45404 501.14154 196.45404Q501.9853 196.45404 502.5556 195.8056Q503.12592 195.15717 503.12592 193.82904Q503.12592 192.57904 502.5556 191.9306Q501.9853 191.28217 501.14154 191.28217Q500.28217 191.28217 499.71967 191.92279Q499.15717 192.56342 499.15717 193.86029ZM505.82904 197.23529L505.82904 190.50092L506.8603 190.50092L506.8603 191.45404Q507.59467 190.34467 509.00092 190.34467Q509.6103 190.34467 510.1181 190.56342Q510.62592 190.78217 510.88373 191.13373Q511.14154 191.48529 511.2353 191.98529Q511.2978 192.29779 511.2978 193.09467L511.2978 197.23529L510.15717 197.23529L510.15717 193.14154Q510.15717 192.43842 510.02435 192.09467Q509.89154 191.75092 509.5556 191.53998Q509.21967 191.32904 508.76654 191.32904Q508.03217 191.32904 507.50092 191.78998Q506.96967 192.25092 506.96967 193.54779L506.96967 197.23529L505.82904 197.23529ZM517.6259 196.40717Q517.0009 196.93842 516.415 197.16498Q515.82904 197.39154 515.15717 197.39154Q514.03217 197.39154 513.4384 196.84467Q512.84467 196.29779 512.84467 195.45404Q512.84467 194.96967 513.0712 194.5556Q513.2978 194.14154 513.665 193.89154Q514.03217 193.64154 514.4853 193.51654Q514.8134 193.43842 515.5009 193.34467Q516.8759 193.18842 517.53217 192.95404Q517.5478 192.71967 517.5478 192.65717Q517.5478 191.95404 517.21967 191.67279Q516.78217 191.28217 515.9228 191.28217Q515.1103 191.28217 514.7275 191.56342Q514.34467 191.84467 514.15717 192.56342L513.0478 192.42279Q513.1884 191.70404 513.54 191.25873Q513.89154 190.81342 514.5556 190.57904Q515.21967 190.34467 516.07904 190.34467Q516.95404 190.34467 517.4931 190.54779Q518.03217 190.75092 518.28217 191.0556Q518.53217 191.36029 518.64154 191.82904Q518.6884 192.12592 518.6884 192.89154L518.6884 194.40717Q518.6884 196.00092 518.76654 196.42279Q518.84467 196.84467 519.0478 197.23529L517.8603 197.23529Q517.6884 196.87592 517.6259 196.40717ZM517.53217 193.84467Q516.90717 194.11029 515.6728 194.28217Q514.96967 194.39154 514.6728 194.51654Q514.3759 194.64154 514.21967 194.88373Q514.0634 195.12592 514.0634 195.42279Q514.0634 195.87592 514.40717 196.1806Q514.7509 196.48529 515.4228 196.48529Q516.07904 196.48529 516.59467 196.19623Q517.1103 195.90717 517.3603 195.40717Q517.53217 195.03217 517.53217 194.26654L517.53217 193.84467ZM520.6259 197.23529L520.6259 187.92279L521.76654 187.92279L521.76654 197.23529L520.6259 197.23529ZM528.21967 195.06342L529.40717 195.20404Q529.1259 196.25092 528.3681 196.82123Q527.6103 197.39154 526.4384 197.39154Q524.95404 197.39154 524.08685 196.47748Q523.21967 195.56342 523.21967 193.92279Q523.21967 192.21967 524.1025 191.28217Q524.9853 190.34467 526.3759 190.34467Q527.7353 190.34467 528.58685 191.26654Q529.4384 192.18842 529.4384 193.84467Q529.4384 193.95404 529.4384 194.15717L524.40717 194.15717Q524.46967 195.26654 525.03217 195.86029Q525.59467 196.45404 526.4384 196.45404Q527.07904 196.45404 527.52435 196.1181Q527.96967 195.78217 528.21967 195.06342ZM524.46967 193.21967L528.2353 193.21967Q528.15717 192.36029 527.7978 191.93842Q527.2509 191.28217 526.39154 191.28217Q525.59467 191.28217 525.0634 191.8056Q524.53217 192.32904 524.46967 193.21967ZM530.5634 195.21967L531.6884 195.04779Q531.78217 195.71967 532.21967 196.08685Q532.65717 196.45404 533.4384 196.45404Q534.21967 196.45404 534.6025 196.13373Q534.9853 195.81342 534.9853 195.37592Q534.9853 194.98529 534.64154 194.76654Q534.40717 194.61029 533.46967 194.37592Q532.21967 194.06342 531.7353 193.82904Q531.2509 193.59467 531.0009 193.18842Q530.7509 192.78217 530.7509 192.28217Q530.7509 191.82904 530.95404 191.44623Q531.15717 191.06342 531.51654 190.81342Q531.78217 190.61029 532.2431 190.47748Q532.70404 190.34467 533.2353 190.34467Q534.01654 190.34467 534.6181 190.57123Q535.21967 190.79779 535.5087 191.18842Q535.7978 191.57904 535.90717 192.23529L534.78217 192.39154Q534.70404 191.86029 534.34467 191.57123Q533.9853 191.28217 533.3134 191.28217Q532.53217 191.28217 532.1884 191.53998Q531.84467 191.79779 531.84467 192.15717Q531.84467 192.37592 531.9853 192.54779Q532.1259 192.73529 532.4228 192.86029Q532.59467 192.92279 533.4384 193.14154Q534.65717 193.46967 535.1337 193.67279Q535.6103 193.87592 535.8837 194.27435Q536.15717 194.67279 536.15717 195.25092Q536.15717 195.82904 535.8212 196.32904Q535.4853 196.82904 534.8603 197.11029Q534.2353 197.39154 533.4384 197.39154Q532.1259 197.39154 531.4384 196.84467Q530.7509 196.29779 530.5634 195.21967Z"
     fill-rule="nonzero"
     fill="#000000"
     id="path28"
     inkscape:export-filename="/home/cain/Doctorado/docs/book/images/CDIO.png"
     inkscape:export-xdpi="90"
     inkscape:export-ydpi="90" />
  <text
     xml:space="preserve"
     style="font-size:16px;font-style:normal;font-weight:normal;fill:#000000;fill-opacity:1;stroke:none;font-family:Bitstream Vera Sans"
     x="223.66525"
     y="218.51695"
     id="text2842"
     inkscape:export-filename="/home/cain/Doctorado/docs/book/images/CDIO.png"
     inkscape:export-xdpi="90"
     inkscape:export-ydpi="90"><tspan
       sodipodi:role="line"
       x="223.66525"
       y="218.51695"
       id="tspan2846"
       style="font-size:10px;fill:#ff0000">Producto</tspan></text>
  <text
     xml:space="preserve"
     style="font-size:10px;font-style:normal;font-weight:normal;fill:#ff0000;fill-opacity:1;stroke:none;font-family:Bitstream Vera Sans"
     x="355.80508"
     y="126.99152"
     id="text2850"
     inkscape:export-filename="/home/cain/Doctorado/docs/book/images/CDIO.png"
     inkscape:export-xdpi="90"
     inkscape:export-ydpi="90"><tspan
       sodipodi:role="line"
       id="tspan2852"
       x="355.80508"
       y="126.99152">Proceso</tspan></text>
  <text
     xml:space="preserve"
     style="font-size:10px;font-style:normal;font-weight:normal;fill:#ff0000;fill-opacity:1;stroke:none;font-family:Bitstream Vera Sans"
     x="487.37289"
     y="215.65677"
     id="text2854"
     inkscape:export-filename="/home/cain/Doctorado/docs/book/images/CDIO.png"
     inkscape:export-xdpi="90"
     inkscape:export-ydpi="90"><tspan
       sodipodi:role="line"
       id="tspan2856"
       x="487.37289"
       y="215.65677">Equipo</tspan></text>
  <text
     xml:space="preserve"
     style="font-size:10px;font-style:normal;font-weight:normal;fill:#ff0000;fill-opacity:1;stroke:none;font-family:Bitstream Vera Sans"
     x="352.94492"
     y="218.51694"
     id="text2858"
     inkscape:export-filename="/home/cain/Doctorado/docs/book/images/CDIO.png"
     inkscape:export-xdpi="90"
     inkscape:export-ydpi="90"><tspan
       sodipodi:role="line"
       id="tspan2860"
       x="352.94492"
       y="218.51694">S mismo</tspan></text>
</svg>
