*
G04 Mass Parameters ***
*
G04 Image ***
*
%INC:\CAINPCB\TELEM_SARURO\TELEM_SARURO.SST*%
%ICAS*%
%MOIN*%
%IPPOS*%
%ASAXBY*%
G74*%FSLAN2X34Y34*%
*
G04 Aperture Definitions ***
*
%ADD10C,0.0669*%
%ADD11R,0.0500X0.0400*%
%ADD12R,0.0400X0.0500*%
%ADD13R,0.0350X0.0300*%
%ADD14R,0.0400X0.0650*%
%ADD15R,0.0600X0.0600*%
%ADD16R,0.1000X0.0600*%
%ADD17R,0.0320X0.0380*%
%ADD18R,0.0300X0.0350*%
%ADD19C,0.0600*%
%ADD20C,0.0870*%
%ADD21C,0.1250*%
%ADD22C,0.0550*%
%ADD23R,0.0550X0.0550*%
%ADD24C,0.0620*%
%ADD25R,0.0620X0.0620*%
%ADD26C,0.0580*%
%ADD27R,0.0580X0.0580*%
%ADD28C,0.0551*%
%ADD29C,0.1340*%
%ADD30C,0.0775*%
%ADD31C,0.0492*%
%ADD32R,0.0500X0.0500*%
%ADD33O,0.0700X0.0110*%
%ADD34R,0.0700X0.0110*%
%ADD35O,0.0110X0.0700*%
%ADD36R,0.0110X0.0700*%
%ADD37O,0.0700X0.0180*%
%ADD38R,0.0700X0.0180*%
%ADD39O,0.0180X0.0700*%
%ADD40R,0.0180X0.0700*%
%ADD41R,0.0250X0.0800*%
%ADD42R,0.0550X0.0150*%
%ADD43R,0.0700X0.0160*%
%ADD44R,0.0100X0.0700*%
%ADD45R,0.0700X0.0100*%
%ADD46R,0.0250X0.0750*%
%ADD47R,0.0550X0.0350*%
%ADD48R,0.0450X0.0350*%
%ADD49R,0.0880X0.1420*%
%ADD50R,0.0880X0.0480*%
%ADD51R,0.0866X0.0512*%
%ADD52R,0.2165X0.0787*%
%ADD53R,0.0551X0.0472*%
%ADD54R,0.0787X0.2165*%
%ADD55C,0.0276*%
%ADD56C,0.0039*%
%ADD57C,0.0118*%
%ADD58C,0.0079*%
%ADD59C,0.0010*%
%ADD60C,0.0100*%
%ADD61C,0.0080*%
%ADD62C,0.0276*%
%ADD63C,0.0098*%
%ADD64C,0.0197*%
%ADD65C,0.0472*%
%ADD66C,0.0394*%
%ADD67C,0.0138*%
%ADD68C,0.0276*%
%ADD69C,0.0236*%
%ADD70C,0.0157*%
%ADD71C,0.0276*%
%ADD72C,0.0669*%
%ADD73R,0.0500X0.0400*%
%ADD74R,0.0400X0.0500*%
%ADD75R,0.0600X0.0600*%
%ADD76R,0.0320X0.0380*%
%ADD77C,0.0600*%
%ADD78C,0.0870*%
%ADD79C,0.1250*%
%ADD80C,0.0550*%
%ADD81R,0.0550X0.0550*%
%ADD82C,0.0620*%
%ADD83R,0.0620X0.0620*%
%ADD84C,0.0580*%
%ADD85R,0.0580X0.0580*%
%ADD86C,0.0551*%
%ADD87C,0.1340*%
%ADD88C,0.0775*%
%ADD89R,0.0394X0.0709*%
%ADD90R,0.0709X0.0669*%
%ADD91R,0.0165X0.0630*%
%ADD92R,0.0709X0.0748*%
%ADD93C,0.0492*%
%ADD94R,0.0500X0.0500*%
%ADD95R,0.0197X0.0551*%
%ADD96R,0.0700X0.0150*%
%ADD97R,0.0150X0.0700*%
%ADD98R,0.0350X0.0550*%
%ADD99R,0.0350X0.0450*%
%ADD100R,0.0880X0.1420*%
%ADD101R,0.0880X0.0480*%
%ADD102R,0.1500X0.0450*%
%ADD103C,0.0276*%
%ADD104C,0.0276*%
%ADD105C,0.0315*%
%ADD106C,0.0354*%
%ADD107C,0.0200*%
%ADD108C,0.0787*%
%ADD109R,0.0400X0.0350*%
%ADD110R,0.0450X0.0700*%
%ADD111R,0.1050X0.0650*%
%ADD112R,0.0350X0.0400*%
%ADD113C,0.0650*%
%ADD114C,0.0920*%
%ADD115C,0.1350*%
%ADD116C,0.1390*%
%ADD117C,0.0827*%
%ADD118C,0.0768*%
%ADD119C,0.0984*%
%ADD120O,0.0700X0.0110*%
%ADD121R,0.0700X0.0110*%
%ADD122O,0.0110X0.0700*%
%ADD123R,0.0110X0.0700*%
%ADD124O,0.0700X0.0180*%
%ADD125R,0.0700X0.0180*%
%ADD126O,0.0180X0.0700*%
%ADD127R,0.0180X0.0700*%
%ADD128R,0.0300X0.0850*%
%ADD129R,0.0600X0.0200*%
%ADD130R,0.0750X0.0210*%
%ADD131R,0.0130X0.0730*%
%ADD132R,0.0730X0.0130*%
%ADD133R,0.0300X0.0800*%
%ADD134R,0.0600X0.0400*%
%ADD135R,0.0930X0.1470*%
%ADD136R,0.0930X0.0530*%
%ADD137R,0.0905X0.0551*%
%ADD138R,0.2165X0.0787*%
%ADD139R,0.0590X0.0512*%
%ADD140R,0.0787X0.2165*%
%ADD141R,0.0236X0.0669*%
%ADD142R,0.0450X0.0550*%
%ADD143R,0.0236X0.0590*%
%ADD144R,0.0750X0.0200*%
%ADD145R,0.0200X0.0750*%
%ADD146R,0.0400X0.0600*%
%ADD147R,0.1550X0.0500*%
%ADD148C,0.0060*%
%ADD149C,0.0030*%
%ADD150C,0.0050*%
%ADD151C,0.0047*%
*
G04 Plot Data ***
*
G54D56*
G01X0004454Y0004115D02*
X0002880D01*
Y0005375D01*
X0004454D01*
Y0004115D01*
G54D58*
G01X0026480Y0002640D02*
X0026474D01*
Y-0000420D01*
X0025520D01*
Y0002660D01*
X0026480D01*
Y0002640D01*
X0027640Y0002620D02*
X0027634D01*
Y-0000440D01*
X0026680D01*
Y0002640D01*
X0027640D01*
Y0002620D01*
G54D59*
G01X0012921Y0008044D02*
X0011898D01*
Y0005762D01*
X0012921D01*
Y0008044D01*
X0020612Y0010890D02*
X0019589D01*
Y0008608D01*
X0020612D01*
Y0010890D01*
X0012724Y0003855D02*
Y0001829D01*
X0013786D01*
Y0003855D01*
X0012724D01*
G54D60*
G01X-0002584Y0020559D02*
X-0002647Y0020622D01*
Y0021184D01*
X-0002651Y0013064D02*
Y0013127D01*
X-0002713D01*
Y0010377D02*
X-0002651D01*
Y0010439D01*
X-0005338Y0010377D02*
X-0005401D01*
Y0010439D01*
X-0005338Y0013127D02*
X-0005401Y0013064D01*
X-0005963D01*
X-0002666Y0005117D02*
Y0005180D01*
X-0002728D01*
Y0002430D02*
X-0002666D01*
Y0002492D01*
X-0005353Y0002430D02*
X-0005416D01*
Y0002492D01*
X-0005353Y0005180D02*
X-0005416Y0005117D01*
X-0005978D01*
X-0005334Y0017934D02*
Y0017872D01*
X-0005272D01*
X-0002647D02*
X-0002584D01*
Y0017934D01*
X-0005334Y0020559D02*
Y0020622D01*
X-0005272D01*
X0007569Y0002987D02*
Y0003549D01*
X0030560Y-0000340D02*
X0033980D01*
Y0002660D01*
X0030560D01*
Y-0000340D01*
X0026837Y0014969D02*
Y0012776D01*
X0018964D01*
Y0014398D01*
X0022489D01*
Y0014969D01*
X0026837D01*
X0004277Y0021825D02*
X0004027D01*
Y0021575D01*
X0015027D02*
Y0021825D01*
X0014777D01*
Y0010825D02*
X0015027D01*
Y0011075D01*
X0004027D02*
X0004277Y0010825D01*
Y0010263D01*
X0033900Y0021354D02*
Y0021291D01*
X0028565D01*
Y0024078D01*
X0033940D01*
Y0021354D01*
X0033900D01*
G54D61*
G01X0027316Y0024632D02*
X0027266Y0024682D01*
X-0009448Y0000717D02*
Y0008717D01*
X-0011448D01*
Y0000717D01*
X-0009448D01*
X-0001725Y0021370D02*
Y0017026D01*
X-0006295Y0006123D02*
X-0001951D01*
X-0006327Y0008003D02*
X-0001971D01*
X-0009401Y0016310D02*
Y0024310D01*
X-0011401D01*
Y0016310D01*
X-0009401D01*
X0000154Y0021402D02*
Y0017046D01*
X-0011409Y0010098D02*
Y0015098D01*
X-0009409D01*
Y0010098D01*
X-0011409D01*
X-0006263Y0014031D02*
X-0001919D01*
X-0006295Y0015911D02*
X-0001939D01*
X0027340Y0002920D02*
X0023340D01*
Y0004920D01*
X0027340D01*
Y0002920D01*
X0027316Y0020632D02*
X0028316D01*
Y0024632D01*
X0027316D01*
Y0020632D01*
X0000400Y0024640D02*
Y0006637D01*
X0002400D01*
Y0024640D01*
X0000400D01*
X0002950Y0024540D02*
X0002550Y0024140D01*
X0002950Y0023740D01*
Y0024540D01*
X0000400Y-0001380D02*
Y0006620D01*
X0002400D01*
Y-0001380D01*
X0000400D01*
X0013060Y0000420D02*
X0021820D01*
Y-0001660D01*
X0013060D01*
Y0000420D01*
X0015780Y0007360D02*
X0015530Y0007110D01*
Y0007610D01*
X0015780Y0007360D01*
X0018030Y0007460D02*
X0016530D01*
Y0005460D01*
X0018030D01*
Y0007460D01*
X0020889Y0010227D02*
X0022889D01*
Y0011327D01*
X0020889D01*
Y0010997D01*
X0020939D01*
Y0010597D02*
X0020889D01*
Y0010227D01*
Y0009777D02*
X0020689Y0009577D01*
Y0009977D01*
X0020889Y0009777D01*
X0011500Y0001400D02*
Y0000650D01*
Y0000150D02*
Y-0000600D01*
X0009500D01*
Y0001400D01*
X0011500D01*
X0011750Y0001800D02*
Y0002300D01*
X0011500Y0002050D01*
X0011750Y0001800D01*
X0023650Y0018063D02*
X0021150D01*
Y0020563D01*
X0023650D01*
Y0018063D01*
X0020137Y0020396D02*
X0019937Y0020596D01*
Y0020196D01*
X0020137Y0020396D01*
X0019355Y0024916D02*
X0013355D01*
Y0023916D01*
X0019355Y0023948D01*
Y0024916D01*
X0019405Y0024966D01*
X0018937Y0018399D02*
Y0014399D01*
X0016937D01*
Y0018399D01*
X0018937D01*
X0016236Y0021763D02*
X0019236D01*
Y0022763D01*
X0016236D01*
Y0021763D01*
X0016186Y0021713D01*
X0022760Y-0001660D02*
Y0000420D01*
X0021760D01*
Y-0001660D01*
X0022760D01*
X0022250Y0022020D02*
X0024740D01*
Y0024020D02*
X0022250D01*
X0011280Y0024860D02*
Y0023860D01*
X0005280D01*
Y0024860D01*
X0011280D01*
X0033278Y0017600D02*
X0028748D01*
X0026938Y0017590D01*
Y0011380D01*
X0031375Y0017590D02*
X0033208D01*
Y0017960D01*
X0033698D01*
Y0017600D01*
X0033208D01*
Y0017960D01*
X0033698D01*
Y0017590D01*
X0034088D01*
Y0011360D01*
X0033708D01*
Y0010960D01*
X0033198D01*
Y0011350D01*
X0026980D01*
X0012880Y-0001640D02*
Y0000360D01*
X0011880D01*
Y-0001640D01*
X0012880D01*
X0012930Y-0001690D01*
X0017158Y0003710D02*
X0016958Y0003910D01*
X0017358D01*
X0017158Y0003710D01*
X0010814Y0005830D02*
Y0008320D01*
X0008814D02*
Y0005830D01*
G01X0016680Y0007110D02*
G03X0016780Y0007210I0000000J0000100D01*
G01X0016580D02*
G03X0016680Y0007110I0000100J0000000D01*
Y0007310D02*
G03X0016580Y0007210I0000000J0000100D01*
G01X0016780D02*
G03X0016680Y0007310I0000100J0000000D01*
G01X-0009815Y0025452D02*
G03X-0009770Y0025497I0000000J0000045D01*
G01X-0009860D02*
G03X-0009815Y0025452I0000045J0000000D01*
Y0025542D02*
G03X-0009860Y0025497I0000000J0000045D01*
G01X-0009770D02*
G03X-0009815Y0025542I0000045J0000000D01*
G01X0021091Y0010797D02*
G03X0020939Y0010997I0000207J0000000D01*
Y0010597D02*
G03X0021091Y0010797I0000055J0000200D01*
G01X0021139Y0010285D02*
G03X0021251Y0010397I0000000J0000112D01*
G01X0021027D02*
G03X0021139Y0010285I0000112J0000000D01*
Y0010509D02*
G03X0021027Y0010397I0000000J0000112D01*
G01X0021251D02*
G03X0021139Y0010509I0000112J0000000D01*
G01X0011250Y0000400D02*
G03X0011500Y0000150I0000250J0000000D01*
Y0000650D02*
G03X0011250Y0000400I0000000J0000250D01*
G01X0021449Y0020096D02*
G03X0021627Y0020274I0000000J0000178D01*
G01X0021271D02*
G03X0021449Y0020096I0000178J0000000D01*
Y0020451D02*
G03X0021272Y0020274I0000000J0000177D01*
G01X0021626D02*
G03X0021449Y0020451I0000177J0000000D01*
G01X0031540Y-0002620D02*
G03X0032240Y-0001920I0000000J0000700D01*
G01X0030840D02*
G03X0031540Y-0002620I0000700J0000000D01*
Y-0001220D02*
G03X0030840Y-0001920I0000000J0000700D01*
G01X0032240D02*
G03X0031540Y-0001220I0000700J0000000D01*
G01X-0008405Y-0001671D02*
G03X-0007705Y-0000971I0000000J0000700D01*
G01X-0009105D02*
G03X-0008405Y-0001671I0000700J0000000D01*
Y-0000271D02*
G03X-0009105Y-0000971I0000000J0000700D01*
G01X-0007705D02*
G03X-0008405Y-0000271I0000700J0000000D01*
G01X0021298Y0023020D02*
G03X0022250Y0022020I0001001J0000000D01*
Y0024020D02*
G03X0021298Y0023020I0000049J0001000D01*
G01X0025667D02*
G03X0024740Y0024020I0001003J0000000D01*
Y0022020D02*
G03X0025667Y0023020I0000076J0001000D01*
G01X0009814Y0004878D02*
G03X0010814Y0005830I0000000J0001001D01*
G01X0008814D02*
G03X0009814Y0004878I0001000J0000049D01*
Y0009247D02*
G03X0008814Y0008320I0000000J0001003D01*
G01X0010814D02*
G03X0009814Y0009247I0001000J0000076D01*
G54D148*
G01X-0003639Y0025121D02*
X-0004789D01*
Y0024476D01*
X-0003639D01*
Y0025121D01*
X-0003577Y0024477D02*
X-0002427D01*
Y0025122D01*
X-0003577D01*
Y0024477D01*
X-0003639Y0025825D02*
X-0004789D01*
Y0025180D01*
X-0003639D01*
Y0025825D01*
X-0002369Y0025181D02*
X-0001219D01*
Y0025826D01*
X-0002369D01*
Y0025181D01*
X-0005945Y0024263D02*
X-0005145D01*
Y0023013D01*
X-0005945D01*
Y0024263D01*
X-0000162Y0005255D02*
Y0005305D01*
X-0000762D01*
Y0005255D01*
X-0000162Y0004755D02*
Y0004705D01*
X-0000762D01*
Y0004755D01*
X-0000154Y0004637D02*
Y0004687D01*
X-0000754D01*
Y0004637D01*
X-0000154Y0004137D02*
Y0004087D01*
X-0000754D01*
Y0004137D01*
X-0007236Y0011311D02*
Y0011361D01*
X-0007836D01*
Y0011311D01*
X-0007236Y0010811D02*
Y0010761D01*
X-0007836D01*
Y0010811D01*
X-0006822Y0024247D02*
X-0006022D01*
Y0022997D01*
X-0006822D01*
Y0024247D01*
X-0000107Y0007347D02*
Y0007397D01*
X-0000707D01*
Y0007347D01*
X-0000107Y0006847D02*
Y0006797D01*
X-0000707D01*
Y0006847D01*
X-0004575Y0008076D02*
Y0008876D01*
X-0003325D01*
Y0008076D01*
X-0004575D01*
X-0008086Y0006816D02*
Y0006766D01*
X-0007486D01*
Y0006816D01*
X-0008086Y0007316D02*
Y0007366D01*
X-0007486D01*
Y0007316D01*
X-0004948Y0000870D02*
Y0000820D01*
X-0005548D01*
Y0000870D01*
X-0000170Y0002475D02*
Y0002525D01*
X-0000770D01*
Y0002475D01*
X-0004940Y0009399D02*
Y0009449D01*
X-0005540D01*
Y0009399D01*
X-0004940Y0008899D02*
Y0008849D01*
X-0005540D01*
Y0008899D01*
X-0001132Y0005003D02*
X-0001082D01*
Y0005603D01*
X-0001132D01*
X-0001632Y0005003D02*
X-0001682D01*
Y0005603D01*
X-0001632D01*
X-0002358Y0022435D02*
X-0003158D01*
Y0023685D01*
X-0002358D01*
Y0022435D01*
X-0000170Y0001975D02*
Y0001925D01*
X-0000770D01*
Y0001975D01*
X-0008139Y0000861D02*
Y0001661D01*
X-0006889D01*
Y0000861D01*
X-0008139D01*
X-0004940Y0000743D02*
Y0000793D01*
X-0005540D01*
Y0000743D01*
X-0004940Y0000243D02*
Y0000193D01*
X-0005540D01*
Y0000243D01*
X-0006571Y0020227D02*
Y0019427D01*
X-0007821D01*
Y0020227D01*
X-0006571D01*
X-0002979Y0008899D02*
Y0008849D01*
X-0002379D01*
Y0008899D01*
X-0002979Y0009399D02*
Y0009449D01*
X-0002379D01*
Y0009399D01*
X-0004129Y0022431D02*
X-0004929D01*
Y0023681D01*
X-0004129D01*
Y0022431D01*
X-0005827Y0016058D02*
Y0016858D01*
X-0004577D01*
Y0016058D01*
X-0005827D01*
X-0000170Y0001356D02*
Y0001306D01*
X-0000770D01*
Y0001356D01*
X-0001136Y0011697D02*
X-0001086D01*
Y0012297D01*
X-0001136D01*
X-0001636Y0011697D02*
X-0001686D01*
Y0012297D01*
X-0001636D01*
X-0006349Y0011704D02*
X-0006299D01*
Y0012304D01*
X-0006349D01*
X-0006849Y0011704D02*
X-0006899D01*
Y0012304D01*
X-0006849D01*
X-0008123Y0008640D02*
Y0009440D01*
X-0006873D01*
Y0008640D01*
X-0008123D01*
X-0000170Y0001856D02*
Y0001906D01*
X-0000770D01*
Y0001856D01*
X-0007232Y0010688D02*
Y0010738D01*
X-0007832D01*
Y0010688D01*
X-0007232Y0010188D02*
Y0010138D01*
X-0007832D01*
Y0010188D01*
X-0001392Y0022259D02*
Y0023059D01*
X-0000142D01*
Y0022259D01*
X-0001392D01*
X-0007847Y0011433D02*
Y0011383D01*
X-0007247D01*
Y0011433D01*
X-0007847Y0011933D02*
Y0011983D01*
X-0007247D01*
Y0011933D01*
X-0007216Y0003446D02*
Y0003496D01*
X-0007816D01*
Y0003446D01*
X-0007216Y0002946D02*
Y0002896D01*
X-0007816D01*
Y0002946D01*
X-0007832Y0009561D02*
Y0009511D01*
X-0007232D01*
Y0009561D01*
X-0007832Y0010061D02*
Y0010111D01*
X-0007232D01*
Y0010061D01*
X-0004575Y0000070D02*
Y0000870D01*
X-0003325D01*
Y0000070D01*
X-0004575D01*
X-0003102Y0021557D02*
Y0022357D01*
X-0001852D01*
Y0021557D01*
X-0003102D01*
X-0007832Y0012044D02*
Y0011994D01*
X-0007232D01*
Y0012044D01*
X-0007832Y0012544D02*
Y0012594D01*
X-0007232D01*
Y0012544D01*
X-0001629Y0002219D02*
X-0001679D01*
Y0001619D01*
X-0001629D01*
X-0001129Y0002219D02*
X-0001079D01*
Y0001619D01*
X-0001129D01*
X-0007912Y0021132D02*
Y0020332D01*
X-0009162D01*
Y0021132D01*
X-0007912D01*
X-0000178Y0012591D02*
Y0012641D01*
X-0000778D01*
Y0012591D01*
X-0000178Y0012091D02*
Y0012041D01*
X-0000778D01*
Y0012091D01*
X-0002987Y0000870D02*
Y0000820D01*
X-0002387D01*
Y0000870D01*
X-0002987Y0001370D02*
Y0001420D01*
X-0002387D01*
Y0001370D01*
X-0000464Y0014413D02*
Y0014463D01*
X-0001064D01*
Y0014413D01*
X-0000464Y0013913D02*
Y0013863D01*
X-0001064D01*
Y0013913D01*
X-0003211Y0016866D02*
Y0016066D01*
X-0004461D01*
Y0016866D01*
X-0003211D01*
X-0008256Y0019265D02*
X-0007456D01*
Y0018015D01*
X-0008256D01*
Y0019265D01*
X-0005968Y0022512D02*
Y0022912D01*
X-0005518D01*
Y0022862D01*
Y0022162D02*
Y0022362D01*
X-0005968Y0022012D02*
Y0021612D01*
X-0005518D01*
Y0021662D01*
X-0006569Y0021114D02*
Y0020314D01*
X-0007819D01*
Y0021114D01*
X-0006569D01*
X-0003111Y0016146D02*
Y0016946D01*
X-0001861D01*
Y0016146D01*
X-0003111D01*
X-0001344Y0002608D02*
Y0002548D01*
X-0000144D01*
Y0002608D01*
X-0001133Y0012938D02*
X-0001083D01*
Y0013538D01*
X-0001133D01*
X-0001633Y0012938D02*
X-0001683D01*
Y0013538D01*
X-0001633D01*
X-0007912Y0020223D02*
Y0019423D01*
X-0009162D01*
Y0020223D01*
X-0007912D01*
X-0008080Y0004840D02*
Y0005640D01*
X-0006830D01*
Y0004840D01*
X-0008080D01*
X-0001328Y0010469D02*
Y0010409D01*
X-0000128D01*
Y0010469D01*
X-0001328Y0011269D02*
Y0011319D01*
X-0000128D01*
Y0011269D01*
X-0006330Y0003844D02*
X-0006280D01*
Y0004444D01*
X-0006330D01*
X-0006830Y0003844D02*
X-0006880D01*
Y0004444D01*
X-0006830D01*
X-0001344Y0003408D02*
Y0003458D01*
X-0000144D01*
Y0003408D01*
X-0000107Y0010312D02*
Y0010362D01*
X-0000707D01*
Y0010312D01*
X-0000107Y0009812D02*
Y0009762D01*
X-0000707D01*
Y0009812D01*
X-0007355Y0019273D02*
X-0006555D01*
Y0018023D01*
X-0007355D01*
Y0019273D01*
X-0007212Y0002224D02*
Y0002274D01*
X-0007812D01*
Y0002224D01*
X-0007212Y0001724D02*
Y0001674D01*
X-0007812D01*
Y0001724D01*
X-0001473Y0022431D02*
X-0002273D01*
Y0023681D01*
X-0001473D01*
Y0022431D01*
X-0001660Y0009923D02*
X-0001710D01*
Y0009323D01*
X-0001660D01*
X-0001160Y0009923D02*
X-0001110D01*
Y0009323D01*
X-0001160D01*
X-0004940Y0008726D02*
Y0008776D01*
X-0005540D01*
Y0008726D01*
X-0004940Y0008226D02*
Y0008176D01*
X-0005540D01*
Y0008226D01*
X-0007812Y0003557D02*
Y0003507D01*
X-0007212D01*
Y0003557D01*
X-0007812Y0004057D02*
Y0004107D01*
X-0007212D01*
Y0004057D01*
X-0007458Y0021217D02*
X-0008258D01*
Y0022467D01*
X-0007458D01*
Y0021217D01*
X-0000107Y0009591D02*
Y0009641D01*
X-0000707D01*
Y0009591D01*
X-0000107Y0009091D02*
Y0009041D01*
X-0000707D01*
Y0009091D01*
X-0007836Y0013967D02*
Y0013917D01*
X-0007236D01*
Y0013967D01*
X-0007836Y0014467D02*
Y0014517D01*
X-0007236D01*
Y0014467D01*
X-0007812Y0002335D02*
Y0002285D01*
X-0007212D01*
Y0002335D01*
X-0007812Y0002835D02*
Y0002885D01*
X-0007212D01*
Y0002835D01*
X-0000174Y0013802D02*
Y0013852D01*
X-0000774D01*
Y0013802D01*
X-0000174Y0013302D02*
Y0013252D01*
X-0000774D01*
Y0013302D01*
X-0001136Y0003781D02*
X-0001086D01*
Y0004381D01*
X-0001136D01*
X-0001636Y0003781D02*
X-0001686D01*
Y0004381D01*
X-0001636D01*
X-0007796Y0004191D02*
Y0004141D01*
X-0007196D01*
Y0004191D01*
X-0007796Y0004691D02*
Y0004741D01*
X-0007196D01*
Y0004691D01*
X-0008210Y0013058D02*
Y0013858D01*
X-0006960D01*
Y0013058D01*
X-0008210D01*
X-0000174Y0013198D02*
Y0013248D01*
X-0000774D01*
Y0013198D01*
X-0000174Y0012698D02*
Y0012648D01*
X-0000774D01*
Y0012698D01*
X-0000154Y0004026D02*
Y0004076D01*
X-0000754D01*
Y0004026D01*
X-0000154Y0003526D02*
Y0003476D01*
X-0000754D01*
Y0003526D01*
X-0000060Y0015251D02*
Y0015301D01*
X-0000660D01*
Y0015251D01*
X-0000060Y0014751D02*
Y0014701D01*
X-0000660D01*
Y0014751D01*
X-0004948Y0001370D02*
Y0001420D01*
X-0005548D01*
Y0001370D01*
X-0003243Y0022423D02*
X-0004043D01*
Y0023673D01*
X-0003243D01*
Y0022423D01*
X-0000162Y0005874D02*
Y0005924D01*
X-0000762D01*
Y0005874D01*
X-0000162Y0005374D02*
Y0005324D01*
X-0000762D01*
Y0005374D01*
X-0006565Y0021209D02*
X-0007365D01*
Y0022459D01*
X-0006565D01*
Y0021209D01*
X-0008039Y0014735D02*
Y0014685D01*
X-0007439D01*
Y0014735D01*
X-0008039Y0015235D02*
Y0015285D01*
X-0007439D01*
Y0015235D01*
X0028930Y0008310D02*
Y0010510D01*
X0029830D01*
Y0008310D01*
X0028930D01*
X-0002367Y0024477D02*
X-0001217D01*
Y0025122D01*
X-0002367D01*
Y0024477D01*
X0005805Y0004920D02*
Y0004120D01*
X0004555D01*
Y0004920D01*
X0005805D01*
X0012074Y0002863D02*
X0009874D01*
Y0003763D01*
X0012074D01*
Y0002863D01*
X0024319Y0010155D02*
Y0009355D01*
X0023069D01*
Y0010155D01*
X0024319D01*
X0025862Y0018159D02*
Y0017359D01*
X0024612D01*
Y0018159D01*
X0025862D01*
Y0017274D02*
Y0016474D01*
X0024612D01*
Y0017274D01*
X0025862D01*
X0023924Y0011164D02*
Y0011964D01*
X0025174D01*
Y0011164D01*
X0023924D01*
X0021188Y0022665D02*
X0020388D01*
Y0023915D01*
X0021188D01*
Y0022665D01*
X0025862Y0016409D02*
Y0015609D01*
X0024612D01*
Y0016409D01*
X0025862D01*
X0021188Y0024002D02*
X0020388D01*
Y0025252D01*
X0021188D01*
Y0024002D01*
X0017827Y0020702D02*
Y0021502D01*
X0019077D01*
Y0020702D01*
X0017827D01*
X0020322Y0022665D02*
X0019522D01*
Y0023915D01*
X0020322D01*
Y0022665D01*
X0026545Y0008760D02*
Y0007960D01*
X0025295D01*
Y0008760D01*
X0026545D01*
X0028205Y0019570D02*
Y0019070D01*
X0029555D01*
X0029905Y0019420D01*
Y0019570D01*
X0028205Y0020270D02*
Y0020770D01*
X0029555D01*
X0029905Y0020420D01*
Y0020270D01*
X0026510Y0010090D02*
Y0010590D01*
X0025160D01*
X0024810Y0010240D01*
Y0010090D01*
X0026510Y0009390D02*
Y0008890D01*
X0025160D01*
X0024810Y0009240D01*
Y0009390D01*
X0003590Y0007390D02*
X0005790D01*
Y0006490D01*
X0003590D01*
Y0007390D01*
X0005770Y0007650D02*
X0003570D01*
Y0008550D01*
X0005770D01*
Y0007650D01*
X0005785Y0005820D02*
Y0005020D01*
X0004535D01*
Y0005820D01*
X0005785D01*
X0024910Y0005320D02*
X0026370D01*
Y0005780D01*
Y0007500D02*
Y0007960D01*
X0024910D01*
X0004265Y0024060D02*
Y0023260D01*
X0003015D01*
Y0024060D01*
X0004265D01*
X0007873Y0008072D02*
X0007073D01*
Y0009322D01*
X0007873D01*
Y0008072D01*
X0010908Y0008767D02*
X0011708D01*
Y0007650D01*
X0010908D01*
Y0008767D01*
X0022800Y0006785D02*
X0023600D01*
Y0005535D01*
X0022800D01*
Y0006785D01*
X0021142Y0021809D02*
Y0022559D01*
X0019542D01*
Y0021809D01*
X0021142D01*
X0017748Y0008883D02*
Y0009683D01*
X0018998D01*
Y0008883D01*
X0017748D01*
X0008057Y0008389D02*
X0008857D01*
Y0007139D01*
X0008057D01*
Y0008389D01*
X0016448Y0001032D02*
X0015648D01*
Y0002282D01*
X0016448D01*
Y0001032D01*
X0021070Y0002605D02*
X0020270D01*
Y0003855D01*
X0021070D01*
Y0002605D01*
X0016448Y0002389D02*
X0015648D01*
Y0003639D01*
X0016448D01*
Y0002389D01*
X0017648Y0003640D02*
X0018258D01*
Y0003460D01*
X0018558D01*
Y0003640D01*
X0019178D01*
Y0001080D01*
X0017648D01*
Y0003640D01*
X0011864Y0008402D02*
Y0009211D01*
X0012961D01*
X0012965Y0008402D01*
X0011864D01*
X0020340Y0002245D02*
X0021140D01*
Y0000995D01*
X0020340D01*
Y0002245D01*
X0021520Y0006765D02*
X0022320D01*
Y0005515D01*
X0021520D01*
Y0006765D01*
X0019068Y0004668D02*
Y0003868D01*
X0017818D01*
Y0004668D01*
X0019068D01*
X0008857Y0005850D02*
X0008057D01*
Y0007100D01*
X0008857D01*
Y0005850D01*
X0017763Y0007914D02*
Y0008714D01*
X0019013D01*
Y0007914D01*
X0017763D01*
X-0003579Y0025179D02*
X-0002429D01*
Y0025824D01*
X-0003579D01*
Y0025179D01*
G01X0029080Y0020720D02*
G03X0028405Y0020270I0000000J0000731D01*
G01X0029755D02*
G03X0029080Y0020720I0000675J0000281D01*
Y0019116D02*
G03X0029755Y0019570I0000000J0000729D01*
G01X0028405D02*
G03X0029080Y0019116I0000675J0000275D01*
G01X0025635Y0008939D02*
G03X0026310Y0009390I0000000J0000731D01*
G01X0024960D02*
G03X0025635Y0008939I0000675J0000280D01*
Y0010544D02*
G03X0024960Y0010090I0000000J0000729D01*
G01X0026310D02*
G03X0025635Y0010544I0000675J0000275D01*
G01X0017828Y0003394D02*
G03X0017904Y0003470I0000000J0000076D01*
G01X0017752D02*
G03X0017828Y0003394I0000076J0000000D01*
Y0003546D02*
G03X0017752Y0003470I0000000J0000076D01*
G01X0017904D02*
G03X0017828Y0003546I0000076J0000000D01*
G54D149*
G01X0028705Y0019555D02*
X0028388D01*
X0028705Y0019528D02*
X0028403D01*
X0028705Y0019501D02*
X0028420D01*
X0028705Y0019474D02*
X0028439D01*
X0028705Y0019447D02*
X0028460D01*
X0028705Y0019420D02*
X0028482D01*
X0028705Y0019393D02*
X0028507D01*
X0028705Y0019366D02*
X0028534D01*
X0028705Y0019339D02*
X0028564D01*
X0028705Y0019312D02*
X0028598D01*
X0028705Y0019285D02*
X0028637D01*
X0028636Y0019570D02*
Y0019285D01*
X0028609Y0019570D02*
Y0019304D01*
X0028582Y0019570D02*
Y0019324D01*
X0028555Y0019570D02*
Y0019347D01*
X0028528Y0019570D02*
Y0019371D01*
X0028501Y0019570D02*
Y0019399D01*
X0028474Y0019570D02*
Y0019429D01*
X0028447Y0019570D02*
Y0019463D01*
X0028420Y0019570D02*
Y0019501D01*
X0028393Y0019570D02*
Y0019546D01*
X0028705Y0019258D02*
X0028681D01*
X0028705Y0019570D02*
X0028380D01*
X0028705D02*
Y0019245D01*
X0028690Y0019570D02*
Y0019253D01*
X0028663Y0019570D02*
Y0019268D01*
X0028705Y0020580D02*
X0028677D01*
X0028705Y0020553D02*
X0028634D01*
X0028705Y0020526D02*
X0028596D01*
X0028705Y0020499D02*
X0028562D01*
X0028705Y0020472D02*
X0028532D01*
X0028705Y0020445D02*
X0028505D01*
X0028705Y0020418D02*
X0028480D01*
X0028705Y0020391D02*
X0028458D01*
X0028705Y0020364D02*
X0028438D01*
X0028705Y0020337D02*
X0028419D01*
X0028705Y0020310D02*
X0028402D01*
X0028636Y0020554D02*
Y0020270D01*
X0028609Y0020535D02*
Y0020270D01*
X0028582Y0020515D02*
Y0020270D01*
X0028555Y0020492D02*
Y0020270D01*
X0028528Y0020468D02*
Y0020270D01*
X0028501Y0020440D02*
Y0020270D01*
X0028474Y0020410D02*
Y0020270D01*
X0028447Y0020376D02*
Y0020270D01*
X0028420Y0020338D02*
Y0020270D01*
X0028393Y0020293D02*
Y0020270D01*
X0028705Y0020283D02*
X0028387D01*
X0028705Y0020270D02*
X0028380D01*
X0028705Y0020595D02*
Y0020270D01*
X0028690Y0020586D02*
Y0020270D01*
X0028663Y0020571D02*
Y0020270D01*
X0026037Y0010400D02*
X0026010D01*
X0026081Y0010373D02*
X0026010D01*
X0026119Y0010346D02*
X0026010D01*
X0026153Y0010319D02*
X0026010D01*
X0026183Y0010292D02*
X0026010D01*
X0026210Y0010265D02*
X0026010D01*
X0026234Y0010238D02*
X0026010D01*
X0026257Y0010211D02*
X0026010D01*
X0026277Y0010184D02*
X0026010D01*
X0026296Y0010157D02*
X0026010D01*
X0026313Y0010130D02*
X0026010D01*
X0026266Y0010199D02*
Y0010090D01*
X0026239Y0010233D02*
Y0010090D01*
X0026212Y0010263D02*
Y0010090D01*
X0026185Y0010290D02*
Y0010090D01*
X0026158Y0010314D02*
Y0010090D01*
X0026131Y0010337D02*
Y0010090D01*
X0026104Y0010357D02*
Y0010090D01*
X0026077Y0010376D02*
Y0010090D01*
X0026050Y0010393D02*
Y0010090D01*
X0026023Y0010408D02*
Y0010090D01*
X0026328Y0010103D02*
X0026010D01*
X0026335Y0010090D02*
X0026010D01*
Y0010415D02*
Y0010090D01*
X0026320Y0010117D02*
Y0010090D01*
X0026293Y0010161D02*
Y0010090D01*
X0026327Y0009375D02*
X0026010D01*
X0026311Y0009348D02*
X0026010D01*
X0026294Y0009321D02*
X0026010D01*
X0026276Y0009294D02*
X0026010D01*
X0026255Y0009267D02*
X0026010D01*
X0026233Y0009240D02*
X0026010D01*
X0026208Y0009213D02*
X0026010D01*
X0026181Y0009186D02*
X0026010D01*
X0026150Y0009159D02*
X0026010D01*
X0026116Y0009132D02*
X0026010D01*
X0026078Y0009105D02*
X0026010D01*
X0026266Y0009390D02*
Y0009281D01*
X0026239Y0009390D02*
Y0009247D01*
X0026212Y0009390D02*
Y0009217D01*
X0026185Y0009390D02*
Y0009190D01*
X0026158Y0009390D02*
Y0009165D01*
X0026131Y0009390D02*
Y0009143D01*
X0026104Y0009390D02*
Y0009123D01*
X0026077Y0009390D02*
Y0009104D01*
X0026050Y0009390D02*
Y0009087D01*
X0026023Y0009390D02*
Y0009072D01*
X0026034Y0009078D02*
X0026010D01*
X0026335Y0009390D02*
X0026010D01*
Y0009065D01*
X0026320Y0009390D02*
Y0009362D01*
X0026293Y0009390D02*
Y0009319D01*
G01X0028380Y0019570D02*
G03X0028705Y0019245I0000675J0000350D01*
Y0020595D02*
G03X0028380Y0020270I0000350J0000675D01*
G01X0026335Y0010090D02*
G03X0026010Y0010415I0000675J0000350D01*
Y0009065D02*
G03X0026335Y0009390I0000350J0000675D01*
G54D150*
G01X0020137Y0020396D02*
X0019937Y0020196D01*
Y0020596D01*
X0020137Y0020396D01*
X0019937Y0020196D01*
Y0020596D01*
X0020137Y0020396D01*
G01X0021449Y0020151D02*
G03X0021572Y0020274I0000000J0000123D01*
G01X0021326D02*
G03X0021449Y0020151I0000123J0000000D01*
Y0020397D02*
G03X0021326Y0020274I0000000J0000123D01*
G01X0021572D02*
G03X0021449Y0020397I0000123J0000000D01*
G54D151*
G01X0016035Y0009155D02*
X0015991Y0009111D01*
X0015947Y0009089D01*
X0015860D01*
X0015816Y0009111D01*
X0015773Y0009155D01*
Y0009199D01*
X0015816Y0009242D01*
X0015860Y0009264D01*
X0015947D01*
X0015991Y0009242D01*
X0016035Y0009199D01*
Y0009155D01*
X0015991Y0008798D02*
X0016035Y0008842D01*
Y0008929D01*
X0015991Y0008973D01*
X0015947D01*
X0015860Y0008886D01*
X0015773Y0008973D01*
Y0008798D01*
X0015947Y0008529D02*
X0015991D01*
X0016035Y0008551D01*
Y0008638D01*
X0015991Y0008660D01*
X0015773D01*
Y0008682D02*
Y0008594D01*
X0033589Y-0001671D02*
Y-0001846D01*
X0033414Y-0001758D01*
Y-0001715D01*
X0033676D01*
Y-0001962D02*
Y-0002137D01*
X0033501Y-0001962D01*
X0033457D01*
X0033414Y-0001984D01*
Y-0002115D01*
X0033457Y-0002137D01*
X0033589Y-0002406D02*
X0033632D01*
X0033676Y-0002384D01*
Y-0002297D01*
X0033632Y-0002275D01*
X0033414D01*
Y-0002253D02*
Y-0002341D01*
X-0006745Y0026177D02*
Y0026002D01*
X-0006919Y0026089D01*
Y0026133D01*
X-0006657D01*
X-0006701Y0025711D02*
X-0006657Y0025754D01*
Y0025842D01*
X-0006701Y0025886D01*
X-0006745D01*
X-0006832Y0025798D01*
X-0006919Y0025886D01*
Y0025711D01*
X-0006745Y0025442D02*
X-0006701D01*
X-0006657Y0025463D01*
Y0025551D01*
X-0006701Y0025573D01*
X-0006919D01*
Y0025595D02*
Y0025507D01*
X-0000393Y0024784D02*
X-0000371Y0024828D01*
Y0024872D01*
X-0000393Y0024915D01*
X-0000524D01*
X-0000546Y0024872D01*
Y0024828D01*
X-0000524Y0024784D01*
X-0000393D01*
X-0000371Y0024741D01*
Y0024697D01*
X-0000393Y0024653D01*
X-0000524D01*
X-0000546Y0024697D01*
Y0024741D01*
X-0000524Y0024784D01*
X-0000837Y0024697D02*
X-0000794Y0024653D01*
X-0000706D01*
X-0000662Y0024697D01*
Y0024741D01*
X-0000750Y0024828D01*
X-0000662Y0024915D01*
X-0000837D01*
X-0001019Y0024784D02*
X-0000954Y0024653D01*
X-0001129Y0024784D02*
X-0000997D01*
X-0000954Y0024828D01*
Y0024872D01*
X-0000997Y0024915D01*
X-0001129D01*
Y0024653D01*
X-0002663Y0026050D02*
X-0002794D01*
X-0002816Y0026094D01*
Y0026138D01*
X-0002794Y0026181D01*
X-0002663D01*
X-0002641Y0026138D01*
Y0026094D01*
X-0002729Y0025919D01*
X-0003086Y0026050D02*
X-0002954D01*
X-0002932Y0026007D01*
Y0025963D01*
X-0002954Y0025919D01*
X-0003086D01*
X-0003107Y0025963D01*
Y0026007D01*
X-0003020Y0026181D01*
X-0003289Y0026050D02*
X-0003224Y0025919D01*
X-0003399Y0026050D02*
X-0003267D01*
X-0003224Y0026094D01*
Y0026138D01*
X-0003267Y0026181D01*
X-0003399D01*
Y0025919D01*
X-0005066Y0024843D02*
X-0005022Y0024799D01*
X-0004935D01*
X-0004891Y0024843D01*
Y0024887D01*
X-0004978Y0024974D01*
X-0004891Y0025062D01*
X-0005066D01*
X-0005182Y0024799D02*
X-0005357D01*
X-0005182Y0024974D01*
Y0025018D01*
X-0005204Y0025062D01*
X-0005335D01*
X-0005357Y0025018D01*
X-0005473Y0024799D02*
X-0005561D01*
X-0005517D02*
Y0025062D01*
X-0005561Y0025018D01*
X-0005721Y0024843D02*
X-0005743Y0024799D01*
X-0005874D01*
X-0005896Y0024843D01*
Y0025018D01*
X-0005874Y0025062D01*
X-0005743D01*
X-0005721Y0025018D01*
X-0002631Y0024262D02*
X-0002609Y0024306D01*
Y0024350D01*
X-0002631Y0024393D01*
X-0002762D01*
X-0002784Y0024350D01*
Y0024306D01*
X-0002762Y0024262D01*
X-0002631D01*
X-0002609Y0024219D01*
Y0024175D01*
X-0002631Y0024131D01*
X-0002762D01*
X-0002784Y0024175D01*
Y0024219D01*
X-0002762Y0024262D01*
X-0003054D02*
X-0002922D01*
X-0002900Y0024219D01*
Y0024175D01*
X-0002922Y0024131D01*
X-0003054D01*
X-0003075Y0024175D01*
Y0024219D01*
X-0002988Y0024393D01*
X-0003257Y0024262D02*
X-0003192Y0024131D01*
X-0003367Y0024262D02*
X-0003235D01*
X-0003192Y0024306D01*
Y0024350D01*
X-0003235Y0024393D01*
X-0003367D01*
Y0024131D01*
X-0004915Y0025369D02*
X-0005090D01*
X-0004915Y0025544D01*
Y0025588D01*
X-0004937Y0025632D01*
X-0005068D01*
X-0005090Y0025588D01*
X-0005206Y0025369D02*
X-0005381D01*
X-0005206Y0025544D01*
Y0025588D01*
X-0005228Y0025632D01*
X-0005359D01*
X-0005381Y0025588D01*
X-0005497Y0025369D02*
X-0005585D01*
X-0005541D02*
Y0025632D01*
X-0005585Y0025588D01*
X-0005745Y0025413D02*
X-0005767Y0025369D01*
X-0005898D01*
X-0005920Y0025413D01*
Y0025588D01*
X-0005898Y0025632D01*
X-0005767D01*
X-0005745Y0025588D01*
X-0000051Y0000293D02*
X-0000182D01*
X-0000204Y0000336D01*
Y0000380D01*
X-0000182Y0000424D01*
X-0000051D01*
X-0000029Y0000380D01*
Y0000336D01*
X-0000116Y0000162D01*
X-0000320Y0000249D02*
X-0000495D01*
X-0000408Y0000424D01*
X-0000364D01*
Y0000162D01*
X-0000611Y0000205D02*
X-0000633Y0000162D01*
X-0000764D01*
X-0000786Y0000205D01*
Y0000380D01*
X-0000764Y0000424D01*
X-0000633D01*
X-0000611Y0000380D01*
X-0008381Y0021424D02*
X-0008556D01*
X-0008381Y0021599D01*
Y0021643D01*
X-0008403Y0021687D01*
X-0008534D01*
X-0008556Y0021643D01*
X-0008825Y0021555D02*
X-0008694D01*
X-0008672Y0021512D01*
Y0021468D01*
X-0008694Y0021424D01*
X-0008825D01*
X-0008847Y0021468D01*
Y0021512D01*
X-0008760Y0021687D01*
X-0009029Y0021555D02*
X-0008963Y0021424D01*
X-0009138Y0021555D02*
X-0009007D01*
X-0008963Y0021599D01*
Y0021643D01*
X-0009007Y0021687D01*
X-0009138D01*
Y0021424D01*
X-0006028Y0008334D02*
X-0006072Y0008378D01*
X-0006094Y0008421D01*
Y0008509D01*
X-0006072Y0008553D01*
X-0006028Y0008596D01*
X-0005984D01*
X-0005941Y0008553D01*
X-0005919Y0008509D01*
Y0008421D01*
X-0005941Y0008378D01*
X-0005984Y0008334D01*
X-0006028D01*
X-0006210D02*
X-0006297D01*
X-0006253D02*
Y0008596D01*
X-0006297Y0008553D01*
X-0006523Y0008465D02*
X-0006457Y0008334D01*
X-0006632Y0008465D02*
X-0006501D01*
X-0006457Y0008509D01*
Y0008553D01*
X-0006501Y0008596D01*
X-0006632D01*
Y0008334D01*
X-0008413Y0013653D02*
Y0013478D01*
X-0008588Y0013565D01*
Y0013609D01*
X-0008325D01*
Y0013208D02*
X-0008588D01*
X-0008325Y0013186D02*
Y0013318D01*
X-0008413Y0013361D01*
X-0008500D01*
X-0008588Y0013318D01*
Y0013186D01*
X-0008325Y0019135D02*
X-0008303Y0019179D01*
Y0019222D01*
X-0008325Y0019266D01*
X-0008456D01*
X-0008478Y0019222D01*
Y0019179D01*
X-0008456Y0019135D01*
X-0008325D01*
X-0008303Y0019091D01*
Y0019047D01*
X-0008325Y0019004D01*
X-0008456D01*
X-0008478Y0019047D01*
Y0019091D01*
X-0008456Y0019135D01*
X-0008594Y0019004D02*
X-0008682D01*
X-0008638D02*
Y0019266D01*
X-0008682Y0019222D01*
X-0008841Y0019004D02*
X-0008929D01*
X-0008885D02*
Y0019266D01*
X-0008929Y0019222D01*
X-0009089Y0019047D02*
X-0009111Y0019004D01*
X-0009242D01*
X-0009264Y0019047D01*
Y0019222D01*
X-0009242Y0019266D01*
X-0009111D01*
X-0009089Y0019222D01*
X-0005914Y0001097D02*
X-0006089D01*
X-0006001Y0001272D01*
X-0005958D01*
Y0001010D01*
X-0006205Y0001097D02*
X-0006380D01*
X-0006293Y0001272D01*
X-0006249D01*
Y0001010D01*
X-0006562Y0001141D02*
X-0006496Y0001010D01*
X-0006671Y0001141D02*
X-0006540D01*
X-0006496Y0001185D01*
Y0001228D01*
X-0006540Y0001272D01*
X-0006671D01*
Y0001010D01*
X-0000045Y-0000073D02*
X-0000023Y-0000029D01*
Y0000014D01*
X-0000045Y0000058D01*
X-0000176D01*
X-0000198Y0000014D01*
Y-0000029D01*
X-0000176Y-0000073D01*
X-0000045D01*
X-0000023Y-0000117D01*
Y-0000161D01*
X-0000045Y-0000204D01*
X-0000176D01*
X-0000198Y-0000161D01*
Y-0000117D01*
X-0000176Y-0000073D01*
X-0000314Y-0000117D02*
X-0000489D01*
X-0000402Y0000058D01*
X-0000358D01*
Y-0000204D01*
X-0000606Y-0000161D02*
X-0000628Y-0000204D01*
X-0000759D01*
X-0000781Y-0000161D01*
Y0000014D01*
X-0000759Y0000058D01*
X-0000628D01*
X-0000606Y0000014D01*
X-0004204Y0011490D02*
X-0004161Y0011534D01*
X-0004117Y0011555D01*
X-0004029D01*
X-0003986Y0011534D01*
X-0003942Y0011490D01*
Y0011446D01*
X-0003986Y0011402D01*
X-0004029Y0011380D01*
X-0004117D01*
X-0004161Y0011402D01*
X-0004204Y0011446D01*
Y0011490D01*
Y0011672D02*
Y0011759D01*
Y0011715D02*
X-0003942D01*
X-0003986Y0011759D01*
X-0003942Y0011919D02*
X-0004161D01*
X-0004204Y0011941D01*
Y0012072D01*
X-0004161Y0012094D01*
X-0003942D01*
X-0005097Y0012738D02*
Y0012825D01*
Y0012781D02*
X-0004835D01*
X-0004879Y0012825D01*
X-0002997Y0011037D02*
X-0002954Y0011059D01*
Y0011190D01*
X-0002997Y0011212D01*
X-0003085D01*
X-0003128Y0011168D01*
Y0011037D01*
X-0003216D01*
Y0011212D01*
X-0002954Y0010921D02*
Y0010746D01*
X-0003128Y0010921D01*
X-0003172D01*
X-0003216Y0010899D01*
Y0010768D01*
X-0003172Y0010746D01*
X-0005097Y0012738D02*
Y0012825D01*
Y0012781D02*
X-0004835D01*
X-0004879Y0012825D01*
X-0003659Y0016944D02*
X-0003637Y0016900D01*
X-0003506D01*
X-0003484Y0016944D01*
Y0017031D01*
X-0003528Y0017075D01*
X-0003659D01*
Y0017162D01*
X-0003484D01*
X-0003928Y0017031D02*
X-0003797D01*
X-0003775Y0016987D01*
Y0016944D01*
X-0003797Y0016900D01*
X-0003928D01*
X-0003950Y0016944D01*
Y0016987D01*
X-0003863Y0017162D01*
X-0004132Y0017031D02*
X-0004066Y0016900D01*
X-0004241Y0017031D02*
X-0004110D01*
X-0004066Y0017075D01*
Y0017119D01*
X-0004110Y0017162D01*
X-0004241D01*
Y0016900D01*
X-0002997Y0011037D02*
X-0002954Y0011059D01*
Y0011190D01*
X-0002997Y0011212D01*
X-0003085D01*
X-0003128Y0011168D01*
Y0011037D01*
X-0003216D01*
Y0011212D01*
X-0002954Y0010921D02*
Y0010746D01*
X-0003128Y0010921D01*
X-0003172D01*
X-0003216Y0010899D01*
Y0010768D01*
X-0003172Y0010746D01*
X-0001256Y0000937D02*
X-0001212Y0000959D01*
Y0001090D01*
X-0001256Y0001112D01*
X-0001343D01*
X-0001387Y0001069D01*
Y0000937D01*
X-0001475D01*
Y0001112D01*
X-0001212Y0000668D02*
X-0001475D01*
X-0001212Y0000646D02*
Y0000777D01*
X-0001256Y0000821D01*
X-0001300D01*
X-0001343Y0000799D01*
Y0000668D02*
Y0000799D01*
X-0001387Y0000821D01*
X-0001431D01*
X-0001475Y0000777D01*
Y0000646D01*
X-0001343Y0000486D02*
Y0000355D01*
X-0001212D02*
X-0001475D01*
Y0000530D01*
X-0002380Y0000376D02*
X-0002249Y0000638D01*
X-0002424D01*
X-0002540Y0000376D02*
X-0002715D01*
X-0002540Y0000551D01*
Y0000595D01*
X-0002562Y0000638D01*
X-0002693D01*
X-0002715Y0000595D01*
X-0002897Y0000507D02*
X-0002831Y0000376D01*
X-0003006Y0000507D02*
X-0002875D01*
X-0002831Y0000551D01*
Y0000595D01*
X-0002875Y0000638D01*
X-0003006D01*
Y0000376D01*
X-0004874Y0022307D02*
Y0022132D01*
X-0005049Y0022307D01*
X-0005093D01*
X-0005136Y0022285D01*
Y0022154D01*
X-0005093Y0022132D01*
X-0004874Y0022016D02*
Y0021929D01*
Y0021972D02*
X-0005136D01*
X-0005093Y0021929D01*
X-0005136Y0021769D02*
X-0004918D01*
X-0004874Y0021747D01*
Y0021616D01*
X-0004918Y0021594D01*
X-0005136D01*
X-0000162Y-0000565D02*
X-0000031Y-0000302D01*
X-0000206D01*
X-0000322Y-0000477D02*
X-0000497D01*
X-0000410Y-0000302D01*
X-0000366D01*
Y-0000565D01*
X-0000613Y-0000521D02*
X-0000635Y-0000565D01*
X-0000767D01*
X-0000788Y-0000521D01*
Y-0000346D01*
X-0000767Y-0000302D01*
X-0000635D01*
X-0000613Y-0000346D01*
X-0008418Y0014616D02*
Y0014441D01*
X-0008593Y0014529D01*
Y0014572D01*
X-0008331D01*
Y0014325D02*
Y0014238D01*
Y0014281D02*
X-0008593D01*
X-0008549Y0014238D01*
X-0008462Y0014012D02*
X-0008331Y0014078D01*
X-0008462Y0013903D02*
Y0014034D01*
X-0008506Y0014078D01*
X-0008549D01*
X-0008593Y0014034D01*
Y0013903D01*
X-0008331D01*
X0000298Y0013367D02*
Y0013192D01*
X0000123Y0013367D01*
X0000080D01*
X0000036Y0013345D01*
Y0013214D01*
X0000080Y0013192D01*
X0000167Y0013054D02*
X0000123Y0013076D01*
X0000080D01*
X0000036Y0013054D01*
Y0012923D01*
X0000080Y0012901D01*
X0000123D01*
X0000167Y0012923D01*
Y0013054D01*
X0000211Y0013076D01*
X0000255D01*
X0000298Y0013054D01*
Y0012923D01*
X0000255Y0012901D01*
X0000211D01*
X0000167Y0012923D01*
X0000255Y0012785D02*
X0000298Y0012763D01*
Y0012631D01*
X0000255Y0012610D01*
X0000080D01*
X0000036Y0012631D01*
Y0012763D01*
X0000080Y0012785D01*
X-0004674Y0018218D02*
X-0004652Y0018175D01*
X-0004521D01*
X-0004499Y0018218D01*
Y0018306D01*
X-0004542Y0018350D01*
X-0004674D01*
Y0018437D01*
X-0004499D01*
X-0004790Y0018175D02*
X-0004965D01*
X-0004790Y0018350D01*
Y0018393D01*
X-0004812Y0018437D01*
X-0004943D01*
X-0004965Y0018393D01*
X-0002973Y0020319D02*
X-0002885D01*
X-0002929D02*
Y0020056D01*
X-0002885Y0020100D01*
X-0004674Y0018218D02*
X-0004652Y0018175D01*
X-0004521D01*
X-0004499Y0018218D01*
Y0018306D01*
X-0004542Y0018350D01*
X-0004674D01*
Y0018437D01*
X-0004499D01*
X-0004790Y0018175D02*
X-0004965D01*
X-0004790Y0018350D01*
Y0018393D01*
X-0004812Y0018437D01*
X-0004943D01*
X-0004965Y0018393D01*
X0000262Y0013873D02*
X0000306Y0013917D01*
Y0014005D01*
X0000262Y0014048D01*
X0000219D01*
X0000131Y0013961D01*
X0000044Y0014048D01*
Y0013873D01*
X0000175Y0013735D02*
X0000131Y0013757D01*
X0000087D01*
X0000044Y0013735D01*
Y0013604D01*
X0000087Y0013582D01*
X0000131D01*
X0000175Y0013604D01*
Y0013735D01*
X0000219Y0013757D01*
X0000262D01*
X0000306Y0013735D01*
Y0013604D01*
X0000262Y0013582D01*
X0000219D01*
X0000175Y0013604D01*
X0000262Y0013466D02*
X0000306Y0013444D01*
Y0013313D01*
X0000262Y0013291D01*
X0000087D01*
X0000044Y0013313D01*
Y0013444D01*
X0000087Y0013466D01*
X-0005415Y0024462D02*
X-0005393Y0024418D01*
X-0005262D01*
X-0005240Y0024462D01*
Y0024549D01*
X-0005284Y0024593D01*
X-0005415D01*
Y0024681D01*
X-0005240D01*
X-0005531Y0024506D02*
X-0005706D01*
X-0005619Y0024681D01*
X-0005575D01*
Y0024418D01*
X-0005888Y0024549D02*
X-0005823Y0024418D01*
X-0005998Y0024549D02*
X-0005866D01*
X-0005823Y0024593D01*
Y0024637D01*
X-0005866Y0024681D01*
X-0005998D01*
Y0024418D01*
X-0002983Y0005757D02*
X-0002808D01*
X-0002895Y0005582D01*
X-0002939D01*
Y0005845D01*
X-0002604D02*
Y0005714D01*
X-0002691Y0005582D02*
X-0002626Y0005714D01*
X-0002582D01*
X-0002516Y0005582D01*
X-0000255Y0006162D02*
X-0000124D01*
X-0000102Y0006118D01*
Y0006075D01*
X-0000124Y0006031D01*
X-0000255D01*
X-0000277Y0006075D01*
Y0006118D01*
X-0000189Y0006293D01*
X-0000393Y0006118D02*
X-0000568D01*
X-0000480Y0006293D01*
X-0000437D01*
Y0006031D01*
X-0000684Y0006075D02*
X-0000706Y0006031D01*
X-0000837D01*
X-0000859Y0006075D01*
Y0006250D01*
X-0000837Y0006293D01*
X-0000706D01*
X-0000684Y0006250D01*
X-0007738Y0022614D02*
X-0007607Y0022877D01*
X-0007782D01*
X-0008073Y0022658D02*
X-0008051Y0022614D01*
X-0007920D01*
X-0007898Y0022658D01*
Y0022745D01*
X-0007942Y0022789D01*
X-0008073D01*
Y0022877D01*
X-0007898D01*
X-0008255Y0022745D02*
X-0008189Y0022614D01*
X-0008364Y0022745D02*
X-0008233D01*
X-0008189Y0022789D01*
Y0022833D01*
X-0008233Y0022877D01*
X-0008364D01*
Y0022614D01*
X0000008Y0008081D02*
X-0000167D01*
X-0000079Y0008255D01*
X-0000036D01*
Y0007993D01*
X-0000305Y0008124D02*
X-0000283Y0008168D01*
Y0008212D01*
X-0000305Y0008255D01*
X-0000436D01*
X-0000458Y0008212D01*
Y0008168D01*
X-0000436Y0008124D01*
X-0000305D01*
X-0000283Y0008081D01*
Y0008037D01*
X-0000305Y0007993D01*
X-0000436D01*
X-0000458Y0008037D01*
Y0008081D01*
X-0000436Y0008124D01*
X-0000574Y0008037D02*
X-0000596Y0007993D01*
X-0000727D01*
X-0000749Y0008037D01*
Y0008212D01*
X-0000727Y0008255D01*
X-0000596D01*
X-0000574Y0008212D01*
X-0000206Y0000905D02*
X-0000184Y0000861D01*
X-0000053D01*
X-0000031Y0000905D01*
Y0000992D01*
X-0000075Y0001036D01*
X-0000206D01*
Y0001123D01*
X-0000031D01*
X-0000322Y0000948D02*
X-0000497D01*
X-0000410Y0001123D01*
X-0000366D01*
Y0000861D01*
X-0000613Y0000905D02*
X-0000635Y0000861D01*
X-0000767D01*
X-0000788Y0000905D01*
Y0001080D01*
X-0000767Y0001123D01*
X-0000635D01*
X-0000613Y0001080D01*
X-0008206Y0010944D02*
X-0008381D01*
X-0008206Y0011119D01*
Y0011163D01*
X-0008228Y0011207D01*
X-0008359D01*
X-0008381Y0011163D01*
X-0008519Y0011075D02*
X-0008650D01*
X-0008672Y0011119D01*
Y0011163D01*
X-0008650Y0011207D01*
X-0008519D01*
X-0008497Y0011163D01*
Y0011119D01*
X-0008584Y0010944D01*
X-0008788Y0010988D02*
X-0008810Y0010944D01*
X-0008941D01*
X-0008963Y0010988D01*
Y0011163D01*
X-0008941Y0011207D01*
X-0008810D01*
X-0008788Y0011163D01*
X-0006723Y0017709D02*
X-0006985Y0017841D01*
Y0017666D01*
X-0006723Y0017549D02*
Y0017462D01*
Y0017506D02*
X-0006985D01*
X-0006942Y0017462D01*
X-0006723Y0017302D02*
Y0017215D01*
Y0017258D02*
X-0006985D01*
X-0006942Y0017215D01*
X-0006767Y0017055D02*
X-0006723Y0017033D01*
Y0016902D01*
X-0006767Y0016880D01*
X-0006942D01*
X-0006985Y0016902D01*
Y0017033D01*
X-0006942Y0017055D01*
X-0006990Y0023793D02*
X-0006946Y0023815D01*
Y0023946D01*
X-0006990Y0023968D01*
X-0007077D01*
X-0007121Y0023924D01*
Y0023793D01*
X-0007209D01*
Y0023968D01*
X-0007077Y0023655D02*
Y0023524D01*
X-0007121Y0023502D01*
X-0007165D01*
X-0007209Y0023524D01*
Y0023655D01*
X-0007165Y0023677D01*
X-0007121D01*
X-0006946Y0023589D01*
X-0006990Y0023386D02*
X-0006946Y0023364D01*
Y0023232D01*
X-0006990Y0023211D01*
X-0007165D01*
X-0007209Y0023232D01*
Y0023364D01*
X-0007165Y0023386D01*
X-0000062Y0007575D02*
X-0000237D01*
X-0000150Y0007750D01*
X-0000106D01*
Y0007488D01*
X-0000354Y0007575D02*
X-0000529D01*
X-0000441Y0007750D01*
X-0000397D01*
Y0007488D01*
X-0000645Y0007532D02*
X-0000667Y0007488D01*
X-0000798D01*
X-0000820Y0007532D01*
Y0007707D01*
X-0000798Y0007750D01*
X-0000667D01*
X-0000645Y0007707D01*
X-0011485Y0001461D02*
X-0011748Y0001592D01*
Y0001417D01*
X-0011529Y0001126D02*
X-0011485Y0001170D01*
Y0001257D01*
X-0011529Y0001301D01*
X-0011573D01*
X-0011660Y0001214D01*
X-0011748Y0001301D01*
Y0001126D01*
X-0011573Y0000857D02*
X-0011529D01*
X-0011485Y0000879D01*
Y0000966D01*
X-0011529Y0000988D01*
X-0011748D01*
Y0001010D02*
Y0000923D01*
X-0010745Y0000521D02*
Y0000434D01*
Y0000477D02*
X-0011007D01*
X-0010964Y0000434D01*
X-0009753Y0000549D02*
Y0000374D01*
X-0009928Y0000549D01*
X-0009971D01*
X-0010015Y0000527D01*
Y0000396D01*
X-0009971Y0000374D01*
X-0009868Y0009081D02*
Y0009212D01*
X-0009825Y0009234D01*
X-0009781D01*
X-0009737Y0009212D01*
Y0009081D01*
X-0009781Y0009059D01*
X-0009825D01*
X-0009999Y0009146D01*
X-0009737Y0008943D02*
Y0008855D01*
Y0008899D02*
X-0009999D01*
X-0009956Y0008855D01*
X-0010820Y0009035D02*
X-0010776Y0009057D01*
Y0009188D01*
X-0010820Y0009210D01*
X-0010908D01*
X-0010951Y0009167D01*
Y0009035D01*
X-0011039D01*
Y0009210D01*
X-0010776Y0008919D02*
Y0008832D01*
Y0008876D02*
X-0011039D01*
X-0010995Y0008832D01*
X-0004268Y0009056D02*
X-0004225Y0009013D01*
X-0004137D01*
X-0004093Y0009056D01*
Y0009100D01*
X-0004181Y0009187D01*
X-0004093Y0009275D01*
X-0004268D01*
X-0004538Y0009013D02*
Y0009275D01*
X-0004560Y0009013D02*
X-0004428D01*
X-0004385Y0009100D01*
Y0009187D01*
X-0004428Y0009275D01*
X-0004560D01*
X-0006318Y0020976D02*
Y0021107D01*
X-0006275Y0021129D01*
X-0006231D01*
X-0006187Y0021107D01*
Y0020976D01*
X-0006231Y0020954D01*
X-0006275D01*
X-0006449Y0021041D01*
X-0006231Y0020663D02*
X-0006187Y0020684D01*
Y0020816D01*
X-0006231Y0020838D01*
X-0006318D01*
X-0006362Y0020794D01*
Y0020663D01*
X-0006449D01*
Y0020838D01*
X-0006318Y0020481D02*
X-0006187Y0020546D01*
X-0006318Y0020371D02*
Y0020503D01*
X-0006362Y0020546D01*
X-0006406D01*
X-0006449Y0020503D01*
Y0020371D01*
X-0006187D01*
X-0007586Y0007587D02*
X-0007542Y0007543D01*
X-0007455D01*
X-0007411Y0007587D01*
Y0007631D01*
X-0007498Y0007718D01*
X-0007411Y0007806D01*
X-0007586D01*
X-0007702Y0007631D02*
X-0007877D01*
X-0007790Y0007806D01*
X-0007746D01*
Y0007543D01*
X-0007993Y0007587D02*
X-0008015Y0007543D01*
X-0008146D01*
X-0008168Y0007587D01*
Y0007762D01*
X-0008146Y0007806D01*
X-0008015D01*
X-0007993Y0007762D01*
X-0006512Y0022719D02*
X-0006381D01*
X-0006359Y0022675D01*
Y0022631D01*
X-0006381Y0022588D01*
X-0006512D01*
X-0006534Y0022631D01*
Y0022675D01*
X-0006446Y0022850D01*
X-0006650Y0022588D02*
X-0006737D01*
X-0006693D02*
Y0022850D01*
X-0006737Y0022806D01*
X-0006897Y0022588D02*
X-0006985D01*
X-0006941D02*
Y0022850D01*
X-0006985Y0022806D01*
X-0007144Y0022631D02*
X-0007166Y0022588D01*
X-0007298D01*
X-0007319Y0022631D01*
Y0022806D01*
X-0007298Y0022850D01*
X-0007166D01*
X-0007144Y0022806D01*
X-0006094Y0009051D02*
X-0006050Y0009008D01*
X-0005962D01*
X-0005919Y0009051D01*
Y0009095D01*
X-0006006Y0009182D01*
X-0005919Y0009270D01*
X-0006094D01*
X-0006210Y0009008D02*
X-0006297D01*
X-0006253D02*
Y0009270D01*
X-0006297Y0009226D01*
X-0006523Y0009139D02*
X-0006457Y0009008D01*
X-0006632Y0009139D02*
X-0006501D01*
X-0006457Y0009182D01*
Y0009226D01*
X-0006501Y0009270D01*
X-0006632D01*
Y0009008D01*
X-0000198Y0000560D02*
X-0000176Y0000516D01*
X-0000045D01*
X-0000023Y0000560D01*
Y0000647D01*
X-0000067Y0000691D01*
X-0000198D01*
Y0000779D01*
X-0000023D01*
X-0000446Y0000516D02*
X-0000314Y0000779D01*
X-0000489D01*
X-0000606Y0000560D02*
X-0000628Y0000516D01*
X-0000759D01*
X-0000781Y0000560D01*
Y0000735D01*
X-0000759Y0000779D01*
X-0000628D01*
X-0000606Y0000735D01*
X-0006225Y0020066D02*
X-0006181Y0020088D01*
Y0020219D01*
X-0006225Y0020241D01*
X-0006312D01*
X-0006356Y0020198D01*
Y0020066D01*
X-0006444D01*
Y0020241D01*
X-0006181Y0019950D02*
Y0019863D01*
Y0019907D02*
X-0006444D01*
X-0006400Y0019863D01*
X-0006181Y0019703D02*
Y0019615D01*
Y0019659D02*
X-0006444D01*
X-0006400Y0019615D01*
X-0006225Y0019456D02*
X-0006181Y0019434D01*
Y0019302D01*
X-0006225Y0019281D01*
X-0006400D01*
X-0006444Y0019302D01*
Y0019434D01*
X-0006400Y0019456D01*
X-0007384Y0015439D02*
X-0007472D01*
X-0007428D02*
Y0015702D01*
X-0007472Y0015658D01*
X-0007807Y0015483D02*
X-0007785Y0015439D01*
X-0007654D01*
X-0007632Y0015483D01*
Y0015571D01*
X-0007675Y0015614D01*
X-0007807D01*
Y0015702D01*
X-0007632D01*
X-0007923Y0015483D02*
X-0007945Y0015439D01*
X-0008076D01*
X-0008098Y0015483D01*
Y0015658D01*
X-0008076Y0015702D01*
X-0007945D01*
X-0007923Y0015658D01*
X-0000109Y0006360D02*
X-0000284D01*
X-0000109Y0006535D01*
Y0006579D01*
X-0000131Y0006622D01*
X-0000263D01*
X-0000284Y0006579D01*
X-0000576Y0006404D02*
X-0000554Y0006360D01*
X-0000423D01*
X-0000401Y0006404D01*
Y0006491D01*
X-0000444Y0006535D01*
X-0000576D01*
Y0006622D01*
X-0000401D01*
X-0000692Y0006404D02*
X-0000714Y0006360D01*
X-0000845D01*
X-0000867Y0006404D01*
Y0006579D01*
X-0000845Y0006622D01*
X-0000714D01*
X-0000692Y0006579D01*
X-0008345Y0001111D02*
X-0008214Y0001373D01*
X-0008389D01*
X-0008680Y0001154D02*
X-0008636Y0001111D01*
X-0008549D01*
X-0008505Y0001154D01*
Y0001198D01*
X-0008592Y0001286D01*
X-0008505Y0001373D01*
X-0008680D01*
X-0008862Y0001242D02*
X-0008796Y0001111D01*
X-0008971Y0001242D02*
X-0008840D01*
X-0008796Y0001286D01*
Y0001329D01*
X-0008840Y0001373D01*
X-0008971D01*
Y0001111D01*
X-0006098Y0000499D02*
X-0005967D01*
X-0005945Y0000455D01*
Y0000411D01*
X-0005967Y0000367D01*
X-0006098D01*
X-0006120Y0000411D01*
Y0000455D01*
X-0006033Y0000630D01*
X-0006236Y0000455D02*
X-0006411D01*
X-0006324Y0000630D01*
X-0006280D01*
Y0000367D01*
X-0006593Y0000499D02*
X-0006528Y0000367D01*
X-0006703Y0000499D02*
X-0006571D01*
X-0006528Y0000542D01*
Y0000586D01*
X-0006571Y0000630D01*
X-0006703D01*
Y0000367D01*
X-0002440Y0008444D02*
X-0002308Y0008707D01*
X-0002483D01*
X-0002599Y0008444D02*
X-0002687D01*
X-0002643D02*
Y0008707D01*
X-0002687Y0008663D01*
X-0002912Y0008575D02*
X-0002847Y0008444D01*
X-0003022Y0008575D02*
X-0002891D01*
X-0002847Y0008619D01*
Y0008663D01*
X-0002891Y0008707D01*
X-0003022D01*
Y0008444D01*
X-0004157Y0023914D02*
X-0004135Y0023958D01*
Y0024002D01*
X-0004157Y0024046D01*
X-0004288D01*
X-0004310Y0024002D01*
Y0023958D01*
X-0004288Y0023914D01*
X-0004157D01*
X-0004135Y0023871D01*
Y0023827D01*
X-0004157Y0023783D01*
X-0004288D01*
X-0004310Y0023827D01*
Y0023871D01*
X-0004288Y0023914D01*
X-0004601Y0023827D02*
X-0004579Y0023783D01*
X-0004448D01*
X-0004426Y0023827D01*
Y0023914D01*
X-0004470Y0023958D01*
X-0004601D01*
Y0024046D01*
X-0004426D01*
X-0004783Y0023914D02*
X-0004717Y0023783D01*
X-0004892Y0023914D02*
X-0004761D01*
X-0004717Y0023958D01*
Y0024002D01*
X-0004761Y0024046D01*
X-0004892D01*
Y0023783D01*
X-0004042Y0003601D02*
X-0003998Y0003579D01*
X-0003954D01*
X-0003911Y0003601D01*
Y0003732D01*
X-0003954Y0003754D01*
X-0003998D01*
X-0004042Y0003732D01*
Y0003601D01*
X-0004086Y0003579D01*
X-0004129D01*
X-0004173Y0003601D01*
Y0003732D01*
X-0004129Y0003754D01*
X-0004086D01*
X-0004042Y0003732D01*
X-0003911Y0003870D02*
X-0004129D01*
X-0004173Y0003892D01*
Y0004023D01*
X-0004129Y0004045D01*
X-0003911D01*
X-0005113Y0004791D02*
Y0004878D01*
Y0004834D02*
X-0004851D01*
X-0004895Y0004878D01*
X-0003013Y0003090D02*
X-0002969Y0003112D01*
Y0003243D01*
X-0003013Y0003265D01*
X-0003101D01*
X-0003144Y0003221D01*
Y0003090D01*
X-0003232D01*
Y0003265D01*
X-0002969Y0002974D02*
Y0002799D01*
X-0003144Y0002974D01*
X-0003188D01*
X-0003232Y0002952D01*
Y0002821D01*
X-0003188Y0002799D01*
X-0005113Y0004791D02*
Y0004878D01*
Y0004834D02*
X-0004851D01*
X-0004895Y0004878D01*
X-0001748Y0017182D02*
X-0001879D01*
X-0001901Y0017226D01*
Y0017270D01*
X-0001879Y0017314D01*
X-0001748D01*
X-0001726Y0017270D01*
Y0017226D01*
X-0001814Y0017051D01*
X-0002017D02*
X-0002105D01*
X-0002061D02*
Y0017314D01*
X-0002105Y0017270D01*
X-0002265Y0017051D02*
X-0002352D01*
X-0002308D02*
Y0017314D01*
X-0002352Y0017270D01*
X-0002512Y0017095D02*
X-0002534Y0017051D01*
X-0002665D01*
X-0002687Y0017095D01*
Y0017270D01*
X-0002665Y0017314D01*
X-0002534D01*
X-0002512Y0017270D01*
X-0003013Y0003090D02*
X-0002969Y0003112D01*
Y0003243D01*
X-0003013Y0003265D01*
X-0003101D01*
X-0003144Y0003221D01*
Y0003090D01*
X-0003232D01*
Y0003265D01*
X-0002969Y0002974D02*
Y0002799D01*
X-0003144Y0002974D01*
X-0003188D01*
X-0003232Y0002952D01*
Y0002821D01*
X-0003188Y0002799D01*
X-0002420Y0023900D02*
X-0002551D01*
X-0002573Y0023943D01*
Y0023987D01*
X-0002551Y0024031D01*
X-0002420D01*
X-0002398Y0023987D01*
Y0023943D01*
X-0002485Y0023768D01*
X-0002711Y0023900D02*
X-0002842D01*
X-0002864Y0023943D01*
Y0023987D01*
X-0002842Y0024031D01*
X-0002711D01*
X-0002689Y0023987D01*
Y0023943D01*
X-0002776Y0023768D01*
X-0002980Y0023812D02*
X-0003002Y0023768D01*
X-0003133D01*
X-0003155Y0023812D01*
Y0023987D01*
X-0003133Y0024031D01*
X-0003002D01*
X-0002980Y0023987D01*
X-0001673Y0023809D02*
X-0001630Y0023765D01*
X-0001542D01*
X-0001498Y0023809D01*
Y0023853D01*
X-0001586Y0023940D01*
X-0001498Y0024027D01*
X-0001673D01*
X-0001789Y0023853D02*
X-0001964D01*
X-0001877Y0024027D01*
X-0001833D01*
Y0023765D01*
X-0002146Y0023896D02*
X-0002081Y0023765D01*
X-0002256Y0023896D02*
X-0002124D01*
X-0002081Y0023940D01*
Y0023984D01*
X-0002124Y0024027D01*
X-0002256D01*
Y0023765D01*
X-0003736Y0007693D02*
X-0003911D01*
X-0003823Y0007868D01*
X-0003779D01*
Y0007606D01*
X-0004114D02*
Y0007737D01*
X-0004027Y0007868D02*
X-0004092Y0007737D01*
X-0004136D01*
X-0004202Y0007868D01*
X-0011648Y0016884D02*
Y0017015D01*
X-0011604Y0017037D01*
X-0011560D01*
X-0011517Y0017015D01*
Y0016884D01*
X-0011560Y0016862D01*
X-0011604D01*
X-0011779Y0016949D01*
X-0011560Y0016571D02*
X-0011517Y0016614D01*
Y0016702D01*
X-0011560Y0016746D01*
X-0011604D01*
X-0011691Y0016658D01*
X-0011779Y0016746D01*
Y0016571D01*
X-0011604Y0016301D02*
X-0011560D01*
X-0011517Y0016323D01*
Y0016411D01*
X-0011560Y0016433D01*
X-0011779D01*
Y0016454D02*
Y0016367D01*
X-0010698Y0016138D02*
Y0016050D01*
Y0016094D02*
X-0010960D01*
X-0010917Y0016050D01*
X-0009682Y0016127D02*
Y0015952D01*
X-0009857Y0016127D01*
X-0009901D01*
X-0009945Y0016105D01*
Y0015974D01*
X-0009901Y0015952D01*
X-0009915Y0024635D02*
Y0024766D01*
X-0009872Y0024788D01*
X-0009828D01*
X-0009784Y0024766D01*
Y0024635D01*
X-0009828Y0024613D01*
X-0009872D01*
X-0010046Y0024700D01*
X-0009784Y0024497D02*
Y0024409D01*
Y0024453D02*
X-0010046D01*
X-0010003Y0024409D01*
X-0010734Y0024652D02*
X-0010690Y0024674D01*
Y0024805D01*
X-0010734Y0024827D01*
X-0010821D01*
X-0010865Y0024783D01*
Y0024652D01*
X-0010953D01*
Y0024827D01*
X-0010690Y0024536D02*
Y0024448D01*
Y0024492D02*
X-0010953D01*
X-0010909Y0024448D01*
X-0005129Y0016917D02*
X-0005304D01*
X-0005129Y0017091D01*
Y0017135D01*
X-0005151Y0017179D01*
X-0005283D01*
X-0005304Y0017135D01*
X-0005421Y0016917D02*
X-0005508D01*
X-0005464D02*
Y0017179D01*
X-0005508Y0017135D01*
X-0005821Y0016917D02*
Y0017179D01*
X-0005843Y0016917D02*
X-0005712D01*
X-0005668Y0017004D01*
Y0017091D01*
X-0005712Y0017179D01*
X-0005843D01*
X-0001708Y0012443D02*
Y0012268D01*
X-0001883Y0012443D01*
X-0001926D01*
X-0001970Y0012421D01*
Y0012290D01*
X-0001926Y0012268D01*
X-0001708Y0011999D02*
X-0001970D01*
X-0001708Y0011977D02*
Y0012108D01*
X-0001751Y0012152D01*
X-0001795D01*
X-0001839Y0012130D01*
Y0011999D02*
Y0012130D01*
X-0001883Y0012152D01*
X-0001926D01*
X-0001970Y0012108D01*
Y0011977D01*
X-0001839Y0011817D02*
Y0011686D01*
X-0001708D02*
X-0001970D01*
Y0011861D01*
X-0006215Y0012836D02*
X-0006193Y0012880D01*
Y0012923D01*
X-0006215Y0012967D01*
X-0006347D01*
X-0006368Y0012923D01*
Y0012880D01*
X-0006347Y0012836D01*
X-0006215D01*
X-0006193Y0012792D01*
Y0012748D01*
X-0006215Y0012705D01*
X-0006347D01*
X-0006368Y0012748D01*
Y0012792D01*
X-0006347Y0012836D01*
X-0006485Y0012705D02*
X-0006572D01*
X-0006528D02*
Y0012967D01*
X-0006572Y0012923D01*
X-0006798Y0012836D02*
X-0006732Y0012705D01*
X-0006907Y0012836D02*
X-0006776D01*
X-0006732Y0012880D01*
Y0012923D01*
X-0006776Y0012967D01*
X-0006907D01*
Y0012705D01*
X-0008320Y0008936D02*
X-0008364Y0008980D01*
X-0008385Y0009023D01*
Y0009111D01*
X-0008364Y0009155D01*
X-0008320Y0009198D01*
X-0008276D01*
X-0008232Y0009155D01*
X-0008210Y0009111D01*
Y0009023D01*
X-0008232Y0008980D01*
X-0008276Y0008936D01*
X-0008320D01*
X-0008655Y0009067D02*
X-0008524D01*
X-0008502Y0009023D01*
Y0008980D01*
X-0008524Y0008936D01*
X-0008655D01*
X-0008677Y0008980D01*
Y0009023D01*
X-0008589Y0009198D01*
X-0008858Y0009067D02*
X-0008793Y0008936D01*
X-0008968Y0009067D02*
X-0008837D01*
X-0008793Y0009111D01*
Y0009155D01*
X-0008837Y0009198D01*
X-0008968D01*
Y0008936D01*
X-0001017Y0006213D02*
X-0000995Y0006257D01*
Y0006300D01*
X-0001017Y0006344D01*
X-0001148D01*
X-0001170Y0006300D01*
Y0006257D01*
X-0001148Y0006213D01*
X-0001017D01*
X-0000995Y0006169D01*
Y0006125D01*
X-0001017Y0006082D01*
X-0001148D01*
X-0001170Y0006125D01*
Y0006169D01*
X-0001148Y0006213D01*
X-0001286Y0006169D02*
X-0001461D01*
X-0001374Y0006344D01*
X-0001330D01*
Y0006082D01*
X-0001643Y0006213D02*
X-0001578Y0006082D01*
X-0001753Y0006213D02*
X-0001621D01*
X-0001578Y0006257D01*
Y0006300D01*
X-0001621Y0006344D01*
X-0001753D01*
Y0006082D01*
X-0008232Y0010287D02*
X-0008319D01*
X-0008275D02*
Y0010549D01*
X-0008319Y0010505D01*
X-0008501Y0010418D02*
X-0008632D01*
X-0008654Y0010462D01*
Y0010505D01*
X-0008632Y0010549D01*
X-0008501D01*
X-0008479Y0010505D01*
Y0010462D01*
X-0008567Y0010287D01*
X-0008770Y0010330D02*
X-0008792Y0010287D01*
X-0008923D01*
X-0008945Y0010330D01*
Y0010505D01*
X-0008923Y0010549D01*
X-0008792D01*
X-0008770Y0010505D01*
X0000016Y0015404D02*
X-0000071D01*
X-0000027D02*
Y0015666D01*
X-0000071Y0015623D01*
X-0000253Y0015535D02*
X-0000231Y0015579D01*
Y0015623D01*
X-0000253Y0015666D01*
X-0000384D01*
X-0000406Y0015623D01*
Y0015579D01*
X-0000384Y0015535D01*
X-0000253D01*
X-0000231Y0015492D01*
Y0015448D01*
X-0000253Y0015404D01*
X-0000384D01*
X-0000406Y0015448D01*
Y0015492D01*
X-0000384Y0015535D01*
X-0000522Y0015448D02*
X-0000544Y0015404D01*
X-0000675D01*
X-0000697Y0015448D01*
Y0015623D01*
X-0000675Y0015666D01*
X-0000544D01*
X-0000522Y0015623D01*
X-0008491Y0011680D02*
X-0008469Y0011724D01*
Y0011768D01*
X-0008491Y0011811D01*
X-0008623D01*
X-0008644Y0011768D01*
Y0011724D01*
X-0008623Y0011680D01*
X-0008491D01*
X-0008469Y0011636D01*
Y0011593D01*
X-0008491Y0011549D01*
X-0008623D01*
X-0008644Y0011593D01*
Y0011636D01*
X-0008623Y0011680D01*
X-0008826D02*
X-0008761Y0011549D01*
X-0008936Y0011680D02*
X-0008804D01*
X-0008761Y0011724D01*
Y0011768D01*
X-0008804Y0011811D01*
X-0008936D01*
Y0011549D01*
X-0008321Y0003059D02*
X-0008364Y0003103D01*
X-0008386Y0003147D01*
Y0003234D01*
X-0008364Y0003278D01*
X-0008321Y0003322D01*
X-0008277D01*
X-0008233Y0003278D01*
X-0008211Y0003234D01*
Y0003147D01*
X-0008233Y0003103D01*
X-0008277Y0003059D01*
X-0008321D01*
X-0008524Y0003191D02*
X-0008502Y0003234D01*
Y0003278D01*
X-0008524Y0003322D01*
X-0008656D01*
X-0008677Y0003278D01*
Y0003234D01*
X-0008656Y0003191D01*
X-0008524D01*
X-0008502Y0003147D01*
Y0003103D01*
X-0008524Y0003059D01*
X-0008656D01*
X-0008677Y0003103D01*
Y0003147D01*
X-0008656Y0003191D01*
X-0008794Y0003103D02*
X-0008816Y0003059D01*
X-0008947D01*
X-0008969Y0003103D01*
Y0003278D01*
X-0008947Y0003322D01*
X-0008816D01*
X-0008794Y0003278D01*
X-0008496Y0009846D02*
X-0008627D01*
X-0008649Y0009890D01*
Y0009933D01*
X-0008627Y0009977D01*
X-0008496D01*
X-0008474Y0009933D01*
Y0009890D01*
X-0008562Y0009715D01*
X-0008831Y0009846D02*
X-0008765Y0009715D01*
X-0008940Y0009846D02*
X-0008809D01*
X-0008765Y0009890D01*
Y0009933D01*
X-0008809Y0009977D01*
X-0008940D01*
Y0009715D01*
X-0011593Y0010777D02*
X-0011549Y0010798D01*
Y0010930D01*
X-0011593Y0010952D01*
X-0011680D01*
X-0011724Y0010908D01*
Y0010777D01*
X-0011811D01*
Y0010952D01*
X-0011593Y0010485D02*
X-0011549Y0010529D01*
Y0010617D01*
X-0011593Y0010660D01*
X-0011637D01*
X-0011724Y0010573D01*
X-0011811Y0010660D01*
Y0010485D01*
X-0011637Y0010216D02*
X-0011593D01*
X-0011549Y0010238D01*
Y0010326D01*
X-0011593Y0010347D01*
X-0011811D01*
Y0010369D02*
Y0010282D01*
X-0010720Y0015435D02*
X-0010764Y0015392D01*
X-0010808Y0015370D01*
X-0010895D01*
X-0010939Y0015392D01*
X-0010982Y0015435D01*
Y0015479D01*
X-0010939Y0015523D01*
X-0010895Y0015545D01*
X-0010808D01*
X-0010764Y0015523D01*
X-0010720Y0015479D01*
Y0015435D01*
Y0015254D02*
Y0015166D01*
Y0015210D02*
X-0010982D01*
X-0010939Y0015166D01*
X-0009665Y0009895D02*
Y0009807D01*
Y0009851D02*
X-0009927D01*
X-0009884Y0009807D01*
X-0010720Y0009891D02*
Y0009716D01*
X-0010895Y0009891D01*
X-0010939D01*
X-0010982Y0009869D01*
Y0009738D01*
X-0010939Y0009716D01*
X-0009820Y0015446D02*
Y0015315D01*
X-0009863Y0015293D01*
X-0009907D01*
X-0009951Y0015315D01*
Y0015446D01*
X-0009907Y0015468D01*
X-0009863D01*
X-0009689Y0015380D01*
X-0000973Y0021704D02*
X-0001148D01*
X-0000973Y0021879D01*
Y0021923D01*
X-0000995Y0021966D01*
X-0001126D01*
X-0001148Y0021923D01*
X-0001264Y0021792D02*
X-0001439D01*
X-0001351Y0021966D01*
X-0001308D01*
Y0021704D01*
X-0001621Y0021835D02*
X-0001555Y0021704D01*
X-0001730Y0021835D02*
X-0001599D01*
X-0001555Y0021879D01*
Y0021923D01*
X-0001599Y0021966D01*
X-0001730D01*
Y0021704D01*
X-0008278Y0012188D02*
X-0008321Y0012232D01*
X-0008343Y0012275D01*
Y0012363D01*
X-0008321Y0012407D01*
X-0008278Y0012450D01*
X-0008234D01*
X-0008190Y0012407D01*
X-0008168Y0012363D01*
Y0012275D01*
X-0008190Y0012232D01*
X-0008234Y0012188D01*
X-0008278D01*
X-0008481Y0012319D02*
X-0008613D01*
X-0008634Y0012363D01*
Y0012407D01*
X-0008613Y0012450D01*
X-0008481D01*
X-0008459Y0012407D01*
Y0012363D01*
X-0008547Y0012188D01*
X-0008751Y0012232D02*
X-0008773Y0012188D01*
X-0008904D01*
X-0008926Y0012232D01*
Y0012407D01*
X-0008904Y0012450D01*
X-0008773D01*
X-0008751Y0012407D01*
X-0008375Y0004486D02*
X-0008244D01*
X-0008222Y0004442D01*
Y0004398D01*
X-0008244Y0004355D01*
X-0008375D01*
X-0008397Y0004398D01*
Y0004442D01*
X-0008310Y0004617D01*
X-0008645Y0004355D02*
X-0008513Y0004617D01*
X-0008688D01*
X-0008804Y0004398D02*
X-0008826Y0004355D01*
X-0008958D01*
X-0008979Y0004398D01*
Y0004573D01*
X-0008958Y0004617D01*
X-0008826D01*
X-0008804Y0004573D01*
X-0003448Y0022001D02*
X-0003404Y0021957D01*
X-0003317D01*
X-0003273Y0022001D01*
Y0022044D01*
X-0003360Y0022132D01*
X-0003273Y0022219D01*
X-0003448D01*
X-0003564Y0021957D02*
X-0003652D01*
X-0003608D02*
Y0022219D01*
X-0003652Y0022176D01*
X-0003811Y0021957D02*
X-0003899D01*
X-0003855D02*
Y0022219D01*
X-0003899Y0022176D01*
X-0004059Y0022001D02*
X-0004081Y0021957D01*
X-0004212D01*
X-0004234Y0022001D01*
Y0022176D01*
X-0004212Y0022219D01*
X-0004081D01*
X-0004059Y0022176D01*
X-0000101Y0011811D02*
X-0000232D01*
X-0000254Y0011854D01*
Y0011898D01*
X-0000232Y0011942D01*
X-0000101D01*
X-0000079Y0011898D01*
Y0011854D01*
X-0000167Y0011679D01*
X-0000392Y0011811D02*
X-0000370Y0011854D01*
Y0011898D01*
X-0000392Y0011942D01*
X-0000523D01*
X-0000545Y0011898D01*
Y0011854D01*
X-0000523Y0011811D01*
X-0000392D01*
X-0000370Y0011767D01*
Y0011723D01*
X-0000392Y0011679D01*
X-0000523D01*
X-0000545Y0011723D01*
Y0011767D01*
X-0000523Y0011811D01*
X-0000661Y0011723D02*
X-0000683Y0011679D01*
X-0000815D01*
X-0000836Y0011723D01*
Y0011898D01*
X-0000815Y0011942D01*
X-0000683D01*
X-0000661Y0011898D01*
X-0000326Y0019516D02*
X-0000369Y0019538D01*
X-0000413D01*
X-0000457Y0019516D01*
Y0019385D01*
X-0000413Y0019363D01*
X-0000369D01*
X-0000326Y0019385D01*
Y0019516D01*
X-0000282Y0019538D01*
X-0000238D01*
X-0000195Y0019516D01*
Y0019385D01*
X-0000238Y0019363D01*
X-0000282D01*
X-0000326Y0019385D01*
X-0000195Y0019160D02*
X-0000326D01*
X-0000457Y0019247D02*
X-0000326Y0019181D01*
Y0019138D01*
X-0000457Y0019072D01*
X-0000068Y0014667D02*
X-0000111Y0014689D01*
X-0000155D01*
X-0000199Y0014667D01*
Y0014535D01*
X-0000155Y0014514D01*
X-0000111D01*
X-0000068Y0014535D01*
Y0014667D01*
X-0000024Y0014689D01*
X0000020D01*
X0000063Y0014667D01*
Y0014535D01*
X0000020Y0014514D01*
X-0000024D01*
X-0000068Y0014535D01*
Y0014375D02*
X-0000111Y0014397D01*
X-0000155D01*
X-0000199Y0014375D01*
Y0014244D01*
X-0000155Y0014222D01*
X-0000111D01*
X-0000068Y0014244D01*
Y0014375D01*
X-0000024Y0014397D01*
X0000020D01*
X0000063Y0014375D01*
Y0014244D01*
X0000020Y0014222D01*
X-0000024D01*
X-0000068Y0014244D01*
X0000020Y0014106D02*
X0000063Y0014084D01*
Y0013953D01*
X0000020Y0013931D01*
X-0000155D01*
X-0000199Y0013953D01*
Y0014084D01*
X-0000155Y0014106D01*
X-0007718Y0017861D02*
Y0017773D01*
Y0017817D02*
X-0007980D01*
X-0007936Y0017773D01*
X-0007849Y0017460D02*
Y0017591D01*
X-0007805Y0017613D01*
X-0007761D01*
X-0007718Y0017591D01*
Y0017460D01*
X-0007761Y0017438D01*
X-0007805D01*
X-0007980Y0017526D01*
X-0007849Y0017257D02*
X-0007718Y0017322D01*
X-0007849Y0017147D02*
Y0017278D01*
X-0007892Y0017322D01*
X-0007936D01*
X-0007980Y0017278D01*
Y0017147D01*
X-0007718D01*
X-0003936Y0019084D02*
X-0003979Y0019128D01*
X-0004067D01*
X-0004111Y0019084D01*
Y0019040D01*
X-0004023Y0018953D01*
X-0004111Y0018865D01*
X-0003936D01*
X-0003820Y0019128D02*
X-0003732D01*
X-0003776D02*
Y0018865D01*
X-0003732Y0018909D01*
X-0003572Y0018865D02*
Y0019084D01*
X-0003550Y0019128D01*
X-0003419D01*
X-0003397Y0019084D01*
Y0018865D01*
X-0002973Y0020319D02*
X-0002885D01*
X-0002929D02*
Y0020056D01*
X-0002885Y0020100D01*
X-0008236Y0002398D02*
X-0008323D01*
X-0008280D02*
Y0002661D01*
X-0008323Y0002617D01*
X-0008658Y0002442D02*
X-0008636Y0002398D01*
X-0008505D01*
X-0008483Y0002442D01*
Y0002530D01*
X-0008527Y0002573D01*
X-0008658D01*
Y0002661D01*
X-0008483D01*
X-0008840Y0002530D02*
X-0008774Y0002398D01*
X-0008949Y0002530D02*
X-0008818D01*
X-0008774Y0002573D01*
Y0002617D01*
X-0008818Y0002661D01*
X-0008949D01*
Y0002398D01*
X-0001408Y0014271D02*
X-0001670Y0014402D01*
Y0014227D01*
X-0001539Y0014045D02*
X-0001408Y0014111D01*
X-0001539Y0013936D02*
Y0014067D01*
X-0001583Y0014111D01*
X-0001627D01*
X-0001670Y0014067D01*
Y0013936D01*
X-0001408D01*
X-0007179Y0005909D02*
X-0007048D01*
X-0007026Y0005865D01*
Y0005821D01*
X-0007048Y0005777D01*
X-0007179D01*
X-0007201Y0005821D01*
Y0005865D01*
X-0007113Y0006040D01*
X-0007492Y0005821D02*
X-0007448Y0005777D01*
X-0007361D01*
X-0007317Y0005821D01*
Y0005865D01*
X-0007404Y0005952D01*
X-0007317Y0006040D01*
X-0007492D01*
X-0007674Y0005909D02*
X-0007608Y0005777D01*
X-0007783Y0005909D02*
X-0007652D01*
X-0007608Y0005952D01*
Y0005996D01*
X-0007652Y0006040D01*
X-0007783D01*
Y0005777D01*
X-0003911Y0015357D02*
X-0003780Y0015620D01*
X-0003955D01*
X-0004158Y0015357D02*
Y0015488D01*
X-0004071Y0015620D02*
X-0004137Y0015488D01*
X-0004180D01*
X-0004246Y0015620D01*
X-0000158Y0008808D02*
X-0000026D01*
X-0000004Y0008765D01*
Y0008721D01*
X-0000026Y0008677D01*
X-0000158D01*
X-0000179Y0008721D01*
Y0008765D01*
X-0000092Y0008939D01*
X-0000318Y0008808D02*
X-0000296Y0008852D01*
Y0008896D01*
X-0000318Y0008939D01*
X-0000449D01*
X-0000471Y0008896D01*
Y0008852D01*
X-0000449Y0008808D01*
X-0000318D01*
X-0000296Y0008765D01*
Y0008721D01*
X-0000318Y0008677D01*
X-0000449D01*
X-0000471Y0008721D01*
Y0008765D01*
X-0000449Y0008808D01*
X-0000587Y0008721D02*
X-0000609Y0008677D01*
X-0000740D01*
X-0000762Y0008721D01*
Y0008896D01*
X-0000740Y0008939D01*
X-0000609D01*
X-0000587Y0008896D01*
X-0006459Y0005464D02*
X-0006415Y0005508D01*
Y0005595D01*
X-0006459Y0005639D01*
X-0006503D01*
X-0006590Y0005552D01*
X-0006678Y0005639D01*
Y0005464D01*
X-0006459Y0005173D02*
X-0006415Y0005195D01*
Y0005326D01*
X-0006459Y0005348D01*
X-0006547D01*
X-0006590Y0005304D01*
Y0005173D01*
X-0006678D01*
Y0005348D01*
X-0006547Y0004991D02*
X-0006415Y0005057D01*
X-0006547Y0004882D02*
Y0005013D01*
X-0006590Y0005057D01*
X-0006634D01*
X-0006678Y0005013D01*
Y0004882D01*
X-0006415D01*
X-0001829Y0004519D02*
Y0004344D01*
X-0002004Y0004432D01*
Y0004475D01*
X-0001742D01*
Y0004075D02*
X-0002004D01*
X-0001742Y0004053D02*
Y0004184D01*
X-0001786Y0004228D01*
X-0001829D01*
X-0001873Y0004206D01*
Y0004075D02*
Y0004206D01*
X-0001917Y0004228D01*
X-0001961D01*
X-0002004Y0004184D01*
Y0004053D01*
X-0001873Y0003893D02*
Y0003762D01*
X-0001742D02*
X-0002004D01*
Y0003937D01*
X-0000175Y0008381D02*
X-0000153Y0008338D01*
X-0000022D01*
X0000000Y0008381D01*
Y0008469D01*
X-0000044Y0008513D01*
X-0000175D01*
Y0008600D01*
X0000000D01*
X-0000313Y0008469D02*
X-0000291Y0008513D01*
Y0008556D01*
X-0000313Y0008600D01*
X-0000444D01*
X-0000466Y0008556D01*
Y0008513D01*
X-0000444Y0008469D01*
X-0000313D01*
X-0000291Y0008425D01*
Y0008381D01*
X-0000313Y0008338D01*
X-0000444D01*
X-0000466Y0008381D01*
Y0008425D01*
X-0000444Y0008469D01*
X-0000582Y0008381D02*
X-0000604Y0008338D01*
X-0000735D01*
X-0000757Y0008381D01*
Y0008556D01*
X-0000735Y0008600D01*
X-0000604D01*
X-0000582Y0008556D01*
X-0008209Y0001967D02*
X-0008340D01*
X-0008362Y0002010D01*
Y0002054D01*
X-0008340Y0002098D01*
X-0008209D01*
X-0008187Y0002054D01*
Y0002010D01*
X-0008274Y0001835D01*
X-0008609D02*
X-0008478Y0002098D01*
X-0008653D01*
X-0008769Y0001879D02*
X-0008791Y0001835D01*
X-0008922D01*
X-0008944Y0001879D01*
Y0002054D01*
X-0008922Y0002098D01*
X-0008791D01*
X-0008769Y0002054D01*
X-0001035Y0008609D02*
X-0001122D01*
X-0001078D02*
Y0008871D01*
X-0001122Y0008827D01*
X-0001435Y0008609D02*
Y0008871D01*
X-0001457Y0008609D02*
X-0001326D01*
X-0001282Y0008652D01*
Y0008696D01*
X-0001304Y0008740D01*
X-0001435D02*
X-0001304D01*
X-0001282Y0008784D01*
Y0008827D01*
X-0001326Y0008871D01*
X-0001457D01*
X-0001617Y0008740D02*
X-0001748D01*
Y0008609D02*
Y0008871D01*
X-0001573D01*
X-0000601Y0023211D02*
X-0000470Y0023474D01*
X-0000645D01*
X-0000783Y0023343D02*
X-0000914D01*
X-0000936Y0023386D01*
Y0023430D01*
X-0000914Y0023474D01*
X-0000783D01*
X-0000761Y0023430D01*
Y0023386D01*
X-0000849Y0023211D01*
X-0001052Y0023255D02*
X-0001074Y0023211D01*
X-0001206D01*
X-0001227Y0023255D01*
Y0023430D01*
X-0001206Y0023474D01*
X-0001074D01*
X-0001052Y0023430D01*
X-0008210Y0003638D02*
X-0008385D01*
X-0008210Y0003813D01*
Y0003857D01*
X-0008232Y0003900D01*
X-0008363D01*
X-0008385Y0003857D01*
X-0008676Y0003682D02*
X-0008655Y0003638D01*
X-0008523D01*
X-0008501Y0003682D01*
Y0003769D01*
X-0008545Y0003813D01*
X-0008676D01*
Y0003900D01*
X-0008501D01*
X-0008858Y0003769D02*
X-0008793Y0003638D01*
X-0008968Y0003769D02*
X-0008836D01*
X-0008793Y0003813D01*
Y0003857D01*
X-0008836Y0003900D01*
X-0008968D01*
Y0003638D01*
X-0000385Y0025518D02*
X-0000516D01*
X-0000538Y0025562D01*
Y0025606D01*
X-0000516Y0025649D01*
X-0000385D01*
X-0000363Y0025606D01*
Y0025562D01*
X-0000451Y0025387D01*
X-0000829Y0025431D02*
X-0000786Y0025387D01*
X-0000698D01*
X-0000654Y0025431D01*
Y0025475D01*
X-0000742Y0025562D01*
X-0000654Y0025649D01*
X-0000829D01*
X-0001011Y0025518D02*
X-0000946Y0025387D01*
X-0001121Y0025518D02*
X-0000989D01*
X-0000946Y0025562D01*
Y0025606D01*
X-0000989Y0025649D01*
X-0001121D01*
Y0025387D01*
X-0003713Y0000991D02*
X-0003756Y0001035D01*
X-0003778Y0001079D01*
Y0001166D01*
X-0003756Y0001210D01*
X-0003713Y0001254D01*
X-0003669D01*
X-0003625Y0001210D01*
X-0003603Y0001166D01*
Y0001079D01*
X-0003625Y0001035D01*
X-0003669Y0000991D01*
X-0003713D01*
X-0003894D02*
X-0003982D01*
X-0003938D02*
Y0001254D01*
X-0003982Y0001210D01*
X-0004295Y0000991D02*
Y0001254D01*
X-0004317Y0000991D02*
X-0004186D01*
X-0004142Y0001079D01*
Y0001166D01*
X-0004186Y0001254D01*
X-0004317D01*
X0018371Y0013863D02*
X0018415Y0013841D01*
X0018459D01*
X0018502Y0013863D01*
Y0013994D01*
X0018459Y0014016D01*
X0018415D01*
X0018371Y0013994D01*
Y0013863D01*
X0018328Y0013841D01*
X0018284D01*
X0018240Y0013863D01*
Y0013994D01*
X0018284Y0014016D01*
X0018328D01*
X0018371Y0013994D01*
X0017240Y0013972D02*
X0017502Y0013841D01*
Y0014016D01*
X0033094Y0005165D02*
Y0005034D01*
X0033269Y0005187D02*
Y0005099D01*
X0033225Y0005077D01*
X0033007D01*
Y0004874D02*
X0033006D01*
X0033007D01*
X0033269Y0004918D02*
Y0004830D01*
Y0004874D02*
X0033094D01*
Y0004830D01*
Y0004539D02*
Y0004670D01*
X0033138Y0004692D01*
X0033225D01*
X0033269Y0004670D01*
Y0004539D01*
X0033007D01*
X0033181Y0004335D02*
X0033269Y0004423D01*
X0033225Y0004248D02*
X0033269Y0004270D01*
Y0004357D01*
X0033225Y0004379D01*
X0033181Y0004423D01*
X0033050D01*
X0033007Y0004401D01*
Y0004270D01*
X0033050Y0004248D01*
X0033225D01*
X0033269Y0004044D02*
X0033138D01*
X0033269Y0004132D02*
X0033138D01*
X0033094Y0004110D01*
Y0004066D01*
X0033138Y0004044D01*
X0033094Y0004022D01*
Y0003979D01*
X0033138Y0003957D01*
X0033269D01*
X0033138Y0003797D02*
Y0003666D01*
X0033269Y0003841D02*
Y0003666D01*
X0033007D01*
Y0003841D01*
X0005899Y0023474D02*
X0006031D01*
X0006053Y0023431D01*
Y0023387D01*
X0006031Y0023343D01*
X0005899D01*
X0005878Y0023387D01*
Y0023431D01*
X0005965Y0023605D01*
X0005761Y0023343D02*
X0005586D01*
X0005761Y0023518D01*
Y0023562D01*
X0005739Y0023605D01*
X0005608D01*
X0005586Y0023562D01*
X0005317Y0023431D02*
Y0023387D01*
X0005339Y0023343D01*
X0005427D01*
X0005448Y0023387D01*
Y0023605D01*
X0005470D02*
X0005383D01*
X0004794Y0024163D02*
X0004707D01*
X0004750D02*
Y0024425D01*
X0004707Y0024382D01*
X0011685Y0024294D02*
X0011816D01*
X0011838Y0024250D01*
Y0024207D01*
X0011816Y0024163D01*
X0011685D01*
X0011663Y0024207D01*
Y0024250D01*
X0011750Y0024425D01*
X0022804Y0003486D02*
X0022782Y0003442D01*
Y0003398D01*
X0022804Y0003354D01*
X0022935D01*
X0022957Y0003398D01*
Y0003442D01*
X0022935Y0003486D01*
X0022804D01*
X0022782Y0003529D01*
Y0003573D01*
X0022804Y0003617D01*
X0022935D01*
X0022957Y0003573D01*
Y0003529D01*
X0022935Y0003486D01*
X0022913Y0004617D02*
X0022782Y0004355D01*
X0022957D01*
X0023887Y0002399D02*
X0023908Y0002356D01*
X0024040D01*
X0024062Y0002399D01*
Y0002487D01*
X0024018Y0002530D01*
X0023887D01*
Y0002618D01*
X0024062D01*
X0023770Y0002356D02*
X0023595D01*
X0023770Y0002530D01*
Y0002574D01*
X0023748Y0002618D01*
X0023617D01*
X0023595Y0002574D01*
X0023326Y0002443D02*
Y0002399D01*
X0023348Y0002356D01*
X0023436D01*
X0023457Y0002399D01*
Y0002618D01*
X0023479D02*
X0023392D01*
X0027826Y0004617D02*
X0027913D01*
X0027869D02*
Y0004355D01*
X0027913Y0004398D01*
X0027782Y0003617D02*
X0027957D01*
X0027782Y0003442D01*
Y0003398D01*
X0027804Y0003354D01*
X0027935D01*
X0027957Y0003398D01*
X0006539Y0004462D02*
X0006671Y0004724D01*
X0006496D01*
X0006204Y0004505D02*
X0006248Y0004462D01*
X0006336D01*
X0006379Y0004505D01*
Y0004549D01*
X0006292Y0004636D01*
X0006379Y0004724D01*
X0006204D01*
X0006088Y0004505D02*
X0006066Y0004462D01*
X0005935D01*
X0005913Y0004505D01*
Y0004680D01*
X0005935Y0004724D01*
X0006066D01*
X0006088Y0004680D01*
X0006517Y0005353D02*
X0006649D01*
X0006671Y0005309D01*
Y0005265D01*
X0006649Y0005222D01*
X0006517D01*
X0006496Y0005265D01*
Y0005309D01*
X0006583Y0005484D01*
X0006204Y0005265D02*
X0006248Y0005222D01*
X0006336D01*
X0006379Y0005265D01*
Y0005309D01*
X0006292Y0005396D01*
X0006379Y0005484D01*
X0006204D01*
X0006088Y0005265D02*
X0006066Y0005222D01*
X0005935D01*
X0005913Y0005265D01*
Y0005440D01*
X0005935Y0005484D01*
X0006066D01*
X0006088Y0005440D01*
X0018240Y0018841D02*
Y0019016D01*
X0018415Y0018841D01*
X0018459D01*
X0018502Y0018863D01*
Y0018994D01*
X0018459Y0019016D01*
X0027204Y0024209D02*
X0026942Y0024340D01*
Y0024165D01*
X0027117Y0023896D02*
X0027161D01*
X0027204Y0023918D01*
Y0024006D01*
X0027161Y0024027D01*
X0026942D01*
Y0024049D02*
Y0023962D01*
X0033676Y0026203D02*
Y0026116D01*
Y0026159D02*
X0033414D01*
X0033457Y0026116D01*
X0033632Y0025781D02*
X0033676Y0025824D01*
Y0025912D01*
X0033632Y0025956D01*
X0033589D01*
X0033501Y0025868D01*
X0033414Y0025956D01*
Y0025781D01*
X0033589Y0025512D02*
X0033632D01*
X0033676Y0025533D01*
Y0025621D01*
X0033632Y0025643D01*
X0033414D01*
Y0025665D02*
Y0025577D01*
X0022131Y0000894D02*
X0022393D01*
Y0000807D02*
Y0000982D01*
X0022219Y0001098D02*
Y0001273D01*
X0022131Y0001098D02*
X0022262D01*
X0022393Y0001164D01*
Y0001208D01*
X0022262Y0001273D01*
X0022131D01*
Y0001542D02*
X0022393D01*
X0022131Y0001564D02*
Y0001433D01*
X0022175Y0001389D01*
X0022219D01*
X0022262Y0001411D01*
Y0001542D02*
Y0001411D01*
X0022306Y0001389D01*
X0022350D01*
X0022393Y0001433D01*
Y0001564D01*
X0022044Y0001680D02*
Y0001855D01*
X0022393Y0001972D02*
X0022306D01*
X0022131Y0002059D01*
X0022306Y0002147D01*
X0022393D01*
X0002584Y0022727D02*
Y0022814D01*
Y0022770D02*
X0002847D01*
X0002803Y0022814D01*
X0002584Y0022974D02*
Y0023149D01*
X0002759Y0022974D01*
X0002803D01*
X0002847Y0022996D01*
Y0023127D01*
X0002803Y0023149D01*
X0002672Y0023418D02*
X0002628D01*
X0002584Y0023396D01*
Y0023309D01*
X0002628Y0023287D01*
X0002847D01*
Y0023265D02*
Y0023353D01*
X0028886Y0024275D02*
X0028908Y0024231D01*
X0029039D01*
X0029061Y0024275D01*
Y0024362D01*
X0029017Y0024406D01*
X0028886D01*
Y0024494D01*
X0029061D01*
X0028617Y0024319D02*
Y0024275D01*
X0028639Y0024231D01*
X0028726D01*
X0028748Y0024275D01*
Y0024494D01*
X0028770D02*
X0028682D01*
X0022113Y0007236D02*
X0021938D01*
X0022113Y0007410D01*
Y0007454D01*
X0022091Y0007498D01*
X0021960D01*
X0021938Y0007454D01*
X0021734Y0007236D02*
Y0007498D01*
X0021822D02*
X0021647D01*
X0021377Y0007236D02*
Y0007498D01*
X0021356Y0007236D02*
X0021487D01*
X0021531Y0007279D01*
Y0007323D01*
X0021509Y0007367D01*
X0021377D02*
X0021509D01*
X0021531Y0007410D01*
Y0007454D01*
X0021487Y0007498D01*
X0021356D01*
X0021335Y0008138D02*
X0021160D01*
X0021247Y0008050D02*
Y0008225D01*
X0022389Y0008089D02*
Y0008264D01*
X0003100Y-0000981D02*
Y-0001068D01*
Y-0001024D02*
X0002838D01*
X0002881Y-0001068D01*
X0002734Y0006167D02*
X0002778Y0006189D01*
Y0006320D01*
X0002734Y0006342D01*
X0002646D01*
X0002603Y0006298D01*
Y0006167D01*
X0002515D01*
Y0006342D01*
X0002778Y0006051D02*
Y0005964D01*
Y0006007D02*
X0002515D01*
X0002559Y0005964D01*
X0003075Y-0000046D02*
X0003031Y-0000089D01*
X0002987Y-0000111D01*
X0002900D01*
X0002856Y-0000089D01*
X0002813Y-0000046D01*
Y-0000002D01*
X0002856Y0000042D01*
X0002900Y0000064D01*
X0002987D01*
X0003031Y0000042D01*
X0003075Y-0000002D01*
Y-0000046D01*
Y-0000227D02*
Y-0000402D01*
X0002900Y-0000227D01*
X0002856D01*
X0002813Y-0000249D01*
Y-0000381D01*
X0002856Y-0000402D01*
X0002987Y-0000672D02*
X0003031D01*
X0003075Y-0000650D01*
Y-0000562D01*
X0003031Y-0000540D01*
X0002813D01*
Y-0000519D02*
Y-0000606D01*
X0005479Y0000540D02*
X0005610Y0000803D01*
X0005435D01*
X0005319Y0000540D02*
X0005232D01*
X0005276D02*
Y0000803D01*
X0005232Y0000759D01*
X0007180Y0002684D02*
X0007268D01*
X0007224D02*
Y0002422D01*
X0007268Y0002465D01*
X0007180Y0002684D02*
X0007268D01*
X0007224D02*
Y0002422D01*
X0007268Y0002465D01*
X0006086Y0002006D02*
X0006173D01*
X0006129D02*
Y0001744D01*
X0006173Y0001787D01*
X0006333Y0001744D02*
Y0001962D01*
X0006355Y0002006D01*
X0006486D01*
X0006508Y0001962D01*
Y0001744D01*
X0013624Y0001462D02*
Y0001374D01*
Y0001418D02*
X0013362D01*
X0013405Y0001374D01*
X0013455Y0007239D02*
Y0007064D01*
X0013280Y0007239D01*
X0013236D01*
X0013192Y0007217D01*
Y0007086D01*
X0013236Y0007064D01*
X0013455Y0006860D02*
X0013324D01*
X0013192Y0006948D02*
X0013324Y0006882D01*
Y0006838D01*
X0013192Y0006773D01*
X0017038Y0006297D02*
X0016994Y0006253D01*
Y0006166D01*
X0017038Y0006122D01*
X0017082D01*
X0017169Y0006209D01*
X0017257Y0006122D01*
Y0006297D01*
Y0006413D02*
X0017038D01*
X0016994Y0006435D01*
Y0006566D01*
X0017038Y0006588D01*
X0017257D01*
X0013330Y-0002119D02*
X0013374Y-0002163D01*
X0013462D01*
X0013505Y-0002119D01*
Y-0002075D01*
X0013418Y-0001988D01*
X0013505Y-0001900D01*
X0013330D01*
X0013061Y-0002075D02*
Y-0002119D01*
X0013083Y-0002163D01*
X0013171D01*
X0013192Y-0002119D01*
Y-0001900D01*
X0013214D02*
X0013127D01*
X0019313Y0009768D02*
X0019357Y0009790D01*
Y0009921D01*
X0019313Y0009943D01*
X0019226D01*
X0019182Y0009899D01*
Y0009768D01*
X0019095D01*
Y0009943D01*
X0019357Y0009565D02*
X0019226D01*
X0019095Y0009652D02*
X0019226Y0009586D01*
Y0009543D01*
X0019095Y0009477D01*
X0021847Y0010716D02*
X0021979Y0010978D01*
X0021804D01*
X0021687D02*
Y0010759D01*
X0021665Y0010716D01*
X0021534D01*
X0021512Y0010759D01*
Y0010978D01*
X0024022Y0010396D02*
X0023890D01*
X0023869Y0010440D01*
Y0010484D01*
X0023890Y0010527D01*
X0024022D01*
X0024044Y0010484D01*
Y0010440D01*
X0023956Y0010265D01*
X0023577Y0010309D02*
X0023621Y0010265D01*
X0023709D01*
X0023752Y0010309D01*
Y0010352D01*
X0023665Y0010440D01*
X0023752Y0010527D01*
X0023577D01*
X0023461Y0010309D02*
X0023439Y0010265D01*
X0023308D01*
X0023286Y0010309D01*
Y0010484D01*
X0023308Y0010527D01*
X0023439D01*
X0023461Y0010484D01*
X0024900Y0012188D02*
X0024725D01*
X0024812Y0012363D01*
X0024856D01*
Y0012101D01*
X0024609D02*
X0024521D01*
X0024565D02*
Y0012363D01*
X0024521Y0012320D01*
X0024361Y0012101D02*
X0024274D01*
X0024318D02*
Y0012363D01*
X0024274Y0012320D01*
X0024114Y0012145D02*
X0024092Y0012101D01*
X0023961D01*
X0023939Y0012145D01*
Y0012320D01*
X0023961Y0012363D01*
X0024092D01*
X0024114Y0012320D01*
X0013263Y0004047D02*
X0013306Y0004003D01*
X0013394D01*
X0013438Y0004047D01*
Y0004091D01*
X0013350Y0004178D01*
X0013438Y0004266D01*
X0013263D01*
X0013146Y0004003D02*
X0013059D01*
X0013103D02*
Y0004266D01*
X0013059Y0004222D01*
X0012746Y0004091D02*
Y0004047D01*
X0012768Y0004003D01*
X0012855D01*
X0012877Y0004047D01*
Y0004266D01*
X0012899D02*
X0012812D01*
X0019567Y0017929D02*
X0019392D01*
X0019479Y0018104D01*
X0019523D01*
Y0017842D01*
X0019123Y0017929D02*
Y0017886D01*
X0019144Y0017842D01*
X0019232D01*
X0019254Y0017886D01*
Y0018104D01*
X0019276D02*
X0019188D01*
X0017240Y0018885D02*
Y0018972D01*
Y0018929D02*
X0017502D01*
X0017459Y0018972D01*
X0014491Y0025364D02*
Y0025561D01*
X0014622Y0025364D02*
Y0025561D01*
X0014589Y0025626D01*
X0014524D01*
X0014491Y0025561D01*
X0014458Y0025626D01*
X0014393D01*
X0014360Y0025561D01*
Y0025364D01*
X0014003D02*
X0013970Y0025429D01*
Y0025561D01*
X0014003Y0025626D01*
X0014200D01*
X0014233Y0025561D01*
Y0025429D01*
X0014200Y0025364D01*
X0014003D01*
X0013843Y0025626D02*
X0013646D01*
X0013614Y0025561D01*
Y0025429D01*
X0013646Y0025364D01*
X0013843D01*
X0013421D02*
X0013487D01*
Y0025429D01*
X0013421D01*
Y0025364D01*
X0013195Y0025626D02*
X0012999D01*
X0013228Y0025364D02*
X0013097D01*
X0013064Y0025429D01*
Y0025757D01*
X0012806D02*
Y0025758D01*
Y0025757D01*
X0012872Y0025364D02*
X0012740D01*
X0012806D02*
Y0025626D01*
X0012740D01*
X0012351D02*
X0012548D01*
X0012580Y0025561D01*
Y0025429D01*
X0012548Y0025364D01*
X0012351D01*
Y0025757D01*
X0012224Y0025232D02*
Y0025626D01*
X0012027D01*
X0011994Y0025561D01*
Y0025429D01*
X0012027Y0025364D01*
X0012224D01*
X0011703D02*
Y0025561D01*
X0011834Y0025364D02*
Y0025561D01*
X0011801Y0025626D01*
X0011736D01*
X0011703Y0025561D01*
X0011670Y0025626D01*
X0011605D01*
X0011572Y0025561D01*
Y0025364D01*
X0011412D02*
X0011215D01*
X0011182Y0025429D01*
Y0025561D01*
X0011215Y0025626D01*
X0011412D01*
X0011445Y0025561D01*
Y0025495D01*
X0011182D01*
X0010990Y0025364D02*
X0011055D01*
Y0025429D01*
X0010990D01*
Y0025364D01*
X0010797Y0025626D02*
Y0025429D01*
X0010764Y0025364D01*
X0010666Y0025561D01*
X0010567Y0025364D01*
X0010534Y0025429D01*
Y0025626D01*
X0010407D02*
Y0025429D01*
X0010375Y0025364D01*
X0010276Y0025561D01*
X0010178Y0025364D01*
X0010145Y0025429D01*
Y0025626D01*
X0010018D02*
Y0025429D01*
X0009985Y0025364D01*
X0009887Y0025561D01*
X0009788Y0025364D01*
X0009755Y0025429D01*
Y0025626D01*
X0024421Y0013032D02*
X0024290D01*
X0024356D02*
Y0013426D01*
X0024290Y0013360D01*
X0024065Y0013229D02*
X0023868D01*
X0023835Y0013294D01*
Y0013360D01*
X0023868Y0013426D01*
X0024065D01*
X0024098Y0013360D01*
Y0013294D01*
X0023966Y0013032D01*
X0023577D02*
Y0013426D01*
X0023708D02*
X0023446D01*
X0023319Y0013163D02*
X0023056D01*
X0023319Y0013032D02*
Y0013229D01*
X0023220Y0013426D01*
X0023155D01*
X0023056Y0013229D01*
Y0013032D01*
X0022929Y0012901D02*
X0022667D01*
X0022310Y0013032D02*
X0022277Y0013097D01*
Y0013360D01*
X0022310Y0013426D01*
X0022507D01*
X0022540Y0013360D01*
Y0013097D01*
X0022507Y0013032D01*
X0022310D01*
X0022052Y0013229D02*
X0022150Y0013032D01*
X0021888Y0013229D02*
X0022084D01*
X0022150Y0013294D01*
Y0013360D01*
X0022084Y0013426D01*
X0021888D01*
Y0013032D01*
X0021761Y0013426D02*
Y0013097D01*
X0021728Y0013032D01*
X0021531D01*
X0021498Y0013097D01*
Y0013426D01*
X0021273Y0013229D02*
X0021371Y0013032D01*
X0021109Y0013229D02*
X0021305D01*
X0021371Y0013294D01*
Y0013360D01*
X0021305Y0013426D01*
X0021109D01*
Y0013032D01*
X0020982Y0013163D02*
X0020719D01*
X0020982Y0013032D02*
Y0013229D01*
X0020883Y0013426D01*
X0020818D01*
X0020719Y0013229D01*
Y0013032D01*
X0020592Y0013360D02*
X0020559Y0013426D01*
X0020362D01*
X0020330Y0013360D01*
Y0013294D01*
X0020362Y0013229D01*
X0020559D01*
X0020592Y0013163D01*
Y0013097D01*
X0020559Y0013032D01*
X0020362D01*
X0020330Y0013097D01*
X0027134Y0001480D02*
X0027222D01*
X0027397Y0001392D01*
X0027222Y0001305D01*
X0027134D01*
X0027353Y0001014D02*
X0027397Y0001036D01*
Y0001167D01*
X0027353Y0001189D01*
X0027265D01*
X0027222Y0001145D01*
Y0001014D01*
X0027134D01*
Y0001189D01*
X0027222Y0000898D02*
Y0000723D01*
X0027309Y0000898D02*
Y0000723D01*
X0027397Y0000606D02*
X0027265D01*
X0027222Y0000585D01*
Y0000453D01*
X0027397D01*
X0027134Y0000293D03*
Y0000294D01*
Y0000293D01*
X0027397Y0000337D02*
Y0000250D01*
Y0000293D02*
X0027222D01*
Y0000250D01*
X0027134Y0000112D02*
X0027222D01*
X0027397Y0000024D01*
X0027222Y-0000063D01*
X0027134D01*
X0026093Y0001381D02*
X0026180D01*
X0026355Y0001293D01*
X0026180Y0001206D01*
X0026093D01*
X0026355Y0000958D02*
X0026093Y0001089D01*
Y0000914D01*
Y0000667D02*
X0026224Y0000798D01*
X0026355Y0000667D01*
Y0000507D02*
X0026224D01*
X0026180Y0000485D01*
Y0000354D01*
X0026355D01*
X0026093Y0000194D03*
X0026355Y0000238D02*
Y0000150D01*
Y0000194D02*
X0026180D01*
Y0000150D01*
X0026093Y0000012D02*
X0026180D01*
X0026355Y-0000075D01*
X0026180Y-0000162D01*
X0026093D01*
X0014595Y0000529D02*
X0014507D01*
X0014551D02*
Y0000791D01*
X0014507D01*
X0014238Y0000703D02*
X0014326D01*
X0014347Y0000660D01*
Y0000572D01*
X0014369Y0000529D01*
X0014216D01*
X0014194Y0000572D01*
X0014216Y0000616D01*
X0014347D01*
X0014034Y0000791D03*
X0014035D01*
X0014034D01*
X0014078Y0000529D02*
X0013991D01*
X0014034D02*
Y0000703D01*
X0013991D01*
X0013853D02*
X0013765D01*
X0013743Y0000660D01*
X0013700D01*
Y0000703D02*
Y0000529D01*
X0013562D02*
X0013430D01*
X0013409Y0000572D01*
Y0000660D01*
X0013430Y0000703D01*
X0013562D01*
X0013584Y0000660D01*
Y0000616D01*
X0013409D01*
X0013292Y0000747D02*
X0013270Y0000791D01*
X0013139D01*
X0013117Y0000747D01*
Y0000703D01*
X0013139Y0000660D01*
X0013270D01*
X0013292Y0000616D01*
Y0000572D01*
X0013270Y0000529D01*
X0013139D01*
X0013117Y0000572D01*
X0006677Y-0002211D02*
X0006502D01*
X0006677Y-0002299D02*
Y-0002168D01*
X0006611Y-0002036D01*
X0006567D01*
X0006502Y-0002168D01*
Y-0002299D01*
X0006386D02*
X0006298D01*
X0006342D02*
Y-0002036D01*
X0006386D02*
X0006298D01*
X0005985Y-0002299D02*
Y-0002036D01*
X0005963Y-0002299D02*
X0006095D01*
X0006138Y-0002255D01*
Y-0002211D01*
X0006116Y-0002168D01*
X0005985D02*
X0006116D01*
X0006138Y-0002124D01*
Y-0002080D01*
X0006095Y-0002036D01*
X0005963D01*
X0005847Y-0002299D02*
Y-0002036D01*
X0005803Y-0002080D01*
X0005760Y-0002168D01*
X0005716Y-0002080D01*
X0005672Y-0002036D01*
Y-0002299D01*
X0005403D02*
X0005381Y-0002255D01*
Y-0002080D01*
X0005403Y-0002036D01*
X0005534D01*
X0005556Y-0002080D01*
Y-0002255D01*
X0005534Y-0002299D01*
X0005403D01*
X0005265D02*
X0005112D01*
Y-0002036D01*
X0004843Y-0002299D02*
X0004821Y-0002255D01*
Y-0002080D01*
X0004843Y-0002036D01*
X0004974D01*
X0004996Y-0002080D01*
Y-0002255D01*
X0004974Y-0002299D01*
X0004843D01*
X0004705Y-0002255D02*
X0004683Y-0002299D01*
X0004551D01*
X0004530Y-0002255D01*
Y-0002080D01*
X0004551Y-0002036D01*
X0004683D01*
X0004705Y-0002080D01*
X0006541Y-0001762D02*
Y-0001631D01*
X0006519Y-0001587D01*
X0006388D01*
Y-0001762D01*
X0006228Y-0001500D03*
X0006272Y-0001762D02*
X0006184D01*
X0006228D02*
Y-0001587D01*
X0006184D01*
X0005635Y-0001762D02*
X0005504D01*
X0005482Y-0001719D01*
Y-0001631D01*
X0005504Y-0001587D01*
X0005635D01*
X0005657Y-0001631D01*
Y-0001675D01*
X0005482D01*
X0005366Y-0001500D02*
Y-0001762D01*
X0005234D01*
X0005213Y-0001719D01*
Y-0001631D01*
X0005234Y-0001587D01*
X0005366D01*
X0004965D02*
X0005053D01*
X0005074Y-0001631D01*
Y-0001719D01*
X0005096Y-0001762D01*
X0004943D01*
X0004921Y-0001719D01*
X0004943Y-0001675D01*
X0005074D01*
X0004805Y-0001762D02*
Y-0001500D01*
X0004761Y-0001544D01*
X0004718Y-0001631D01*
X0004674Y-0001544D01*
X0004630Y-0001500D01*
Y-0001762D01*
X0024677Y0014178D02*
X0024589D01*
X0024633D02*
Y0014440D01*
X0024589Y0014397D01*
X0024364Y0014309D02*
X0024429Y0014178D01*
X0024254Y0014309D02*
X0024386D01*
X0024429Y0014353D01*
Y0014397D01*
X0024386Y0014440D01*
X0024254D01*
Y0014178D01*
X0023749D02*
X0023574D01*
X0023749Y0014353D01*
Y0014397D01*
X0023727Y0014440D01*
X0023596D01*
X0023574Y0014397D01*
X0023458Y0014440D02*
Y0014353D01*
X0023370Y0014178D01*
X0023283Y0014353D01*
Y0014440D01*
X0025103Y0008440D02*
X0025147Y0008462D01*
Y0008593D01*
X0025103Y0008615D01*
X0025016D01*
X0024972Y0008571D01*
Y0008440D01*
X0024885D01*
Y0008615D01*
X0025147Y0008171D02*
X0024885D01*
X0025147Y0008149D02*
Y0008280D01*
X0025060Y0008324D01*
X0024972D01*
X0024885Y0008280D01*
Y0008149D01*
X0013504Y-0001337D02*
X0013417D01*
X0013460D02*
Y-0001075D01*
X0013417Y-0001118D01*
X0013548Y-0000337D02*
X0013373D01*
X0013548Y-0000162D01*
Y-0000118D01*
X0013526Y-0000075D01*
X0013395D01*
X0013373Y-0000118D01*
X0012577Y0009449D02*
X0012599Y0009493D01*
Y0009537D01*
X0012577Y0009580D01*
X0012446D01*
X0012424Y0009537D01*
Y0009493D01*
X0012446Y0009449D01*
X0012577D01*
X0012599Y0009405D01*
Y0009362D01*
X0012577Y0009318D01*
X0012446D01*
X0012424Y0009362D01*
Y0009405D01*
X0012446Y0009449D01*
X0012308Y0009362D02*
X0012286Y0009318D01*
X0012155D01*
X0012133Y0009362D01*
Y0009537D01*
X0012155Y0009580D01*
X0012286D01*
X0012308Y0009537D01*
X0003459Y0007152D02*
X0003197Y0007283D01*
Y0007108D01*
X0003415Y0006817D02*
X0003459Y0006839D01*
Y0006970D01*
X0003415Y0006992D01*
X0003328D01*
X0003284Y0006948D01*
Y0006817D01*
X0003197D01*
Y0006992D01*
X0003415Y0006701D02*
X0003459Y0006679D01*
Y0006548D01*
X0003415Y0006526D01*
X0003240D01*
X0003197Y0006548D01*
Y0006679D01*
X0003240Y0006701D01*
X0003285Y0008433D02*
X0003241Y0008455D01*
X0003197D01*
X0003154Y0008433D01*
Y0008302D01*
X0003197Y0008280D01*
X0003241D01*
X0003285Y0008302D01*
Y0008433D01*
X0003329Y0008455D01*
X0003372D01*
X0003416Y0008433D01*
Y0008302D01*
X0003372Y0008280D01*
X0003329D01*
X0003285Y0008302D01*
X0003372Y0007989D02*
X0003416Y0008011D01*
Y0008142D01*
X0003372Y0008164D01*
X0003285D01*
X0003241Y0008120D01*
Y0007989D01*
X0003154D01*
Y0008164D01*
X0003372Y0007873D02*
X0003416Y0007851D01*
Y0007719D01*
X0003372Y0007698D01*
X0003197D01*
X0003154Y0007719D01*
Y0007851D01*
X0003197Y0007873D01*
X0003695Y0005862D02*
X0003826D01*
X0003848Y0005818D01*
Y0005774D01*
X0003826Y0005730D01*
X0003695D01*
X0003673Y0005774D01*
Y0005818D01*
X0003761Y0005993D01*
X0003469Y0005730D02*
Y0005862D01*
X0003557Y0005993D02*
X0003491Y0005862D01*
X0003447D01*
X0003382Y0005993D01*
X0027549Y0005738D02*
X0027505Y0005694D01*
Y0005607D01*
X0027549Y0005563D01*
X0027592D01*
X0027680Y0005650D01*
X0027767Y0005563D01*
Y0005738D01*
X0027505Y0005898D02*
Y0005854D01*
X0027549D01*
Y0005898D01*
X0027505D01*
X0027549Y0006233D02*
X0027505Y0006189D01*
Y0006101D01*
X0027549Y0006058D01*
X0027592D01*
X0027680Y0006145D01*
X0027767Y0006058D01*
Y0006233D01*
X0027636Y0006349D02*
Y0006524D01*
X0027505Y0006771D02*
X0027767Y0006640D01*
Y0006815D01*
X0027505Y0006931D02*
Y0007019D01*
Y0006975D02*
X0027767D01*
X0027724Y0007019D01*
X0027505Y0007178D02*
Y0007266D01*
Y0007222D02*
X0027767D01*
X0027724Y0007266D01*
X0027505Y0007426D02*
Y0007513D01*
Y0007469D02*
X0027767D01*
X0027724Y0007513D01*
X0027505Y0007761D02*
X0027767D01*
Y0007673D02*
Y0007848D01*
X0027505Y0007964D02*
Y0008117D01*
X0027767D01*
X0011008Y0002596D02*
X0011139D01*
X0011161Y0002552D01*
Y0002508D01*
X0011139Y0002464D01*
X0011008D01*
X0010986Y0002508D01*
Y0002552D01*
X0011074Y0002727D01*
X0010695Y0002508D02*
X0010717Y0002464D01*
X0010848D01*
X0010870Y0002508D01*
Y0002596D01*
X0010826Y0002639D01*
X0010695D01*
Y0002727D01*
X0010870D01*
X0010579Y0002508D02*
X0010557Y0002464D01*
X0010426D01*
X0010404Y0002508D01*
Y0002683D01*
X0010426Y0002727D01*
X0010557D01*
X0010579Y0002683D01*
X0029977Y0009750D02*
X0029933Y0009707D01*
Y0009619D01*
X0029977Y0009575D01*
X0030021D01*
X0030108Y0009663D01*
X0030195Y0009575D01*
Y0009750D01*
X0029933Y0009998D02*
X0030195Y0009866D01*
Y0010041D01*
X0029977Y0010158D02*
X0029933Y0010180D01*
Y0010311D01*
X0029977Y0010333D01*
X0030152D01*
X0030195Y0010311D01*
Y0010180D01*
X0030152Y0010158D01*
X0029493Y0000620D02*
X0029362Y0000554D01*
X0029493Y0000729D02*
Y0000598D01*
X0029536Y0000554D01*
X0029580D01*
X0029624Y0000598D01*
Y0000729D01*
X0029362D01*
X0029493Y0000889D02*
Y0001021D01*
X0029362Y0000846D02*
Y0001021D01*
X0029624D01*
Y0000846D01*
Y0001137D02*
X0029405D01*
X0029362Y0001159D01*
X0029493Y0001224D01*
X0029536D02*
X0029493D01*
X0029362Y0001290D01*
X0029405Y0001312D01*
X0029624D01*
X0029362Y0001581D02*
X0029405Y0001603D01*
X0029580D01*
X0029624Y0001581D01*
Y0001450D01*
X0029580Y0001428D01*
X0029405D01*
X0029362Y0001450D01*
Y0001581D01*
X0029493Y0001894D02*
Y0001763D01*
X0029536Y0001719D01*
X0029580D01*
X0029624Y0001763D01*
Y0001894D01*
X0029362D01*
X0021391Y-0002033D02*
X0021413Y-0002077D01*
X0021544D01*
X0021566Y-0002033D01*
Y-0001946D01*
X0021522Y-0001902D01*
X0021391D01*
Y-0001815D01*
X0021566D01*
X0021275Y-0002077D02*
X0021188D01*
X0021231D02*
Y-0001815D01*
X0021188Y-0001858D01*
X0030096Y0019192D02*
Y0019367D01*
X0030008Y0019279D02*
X0030183D01*
X0029191Y0018640D02*
X0029147Y0018684D01*
X0029125Y0018728D01*
Y0018815D01*
X0029147Y0018859D01*
X0029191Y0018903D01*
X0029234D01*
X0029278Y0018859D01*
X0029300Y0018815D01*
Y0018728D01*
X0029278Y0018684D01*
X0029234Y0018640D01*
X0029191D01*
X0028856Y0018771D02*
X0028987D01*
X0029009Y0018728D01*
Y0018684D01*
X0028987Y0018640D01*
X0028856D01*
X0028834Y0018684D01*
Y0018728D01*
X0028921Y0018903D01*
X0028718Y0018684D02*
X0028696Y0018640D01*
X0028565D01*
X0028543Y0018684D01*
Y0018859D01*
X0028565Y0018903D01*
X0028696D01*
X0028718Y0018859D01*
X0024619Y0010468D02*
Y0010293D01*
X0024707Y0010380D02*
X0024532D01*
X0026053Y0010840D02*
X0025922D01*
X0025900Y0010884D01*
Y0010928D01*
X0025922Y0010971D01*
X0026053D01*
X0026075Y0010928D01*
Y0010884D01*
X0025988Y0010709D01*
X0025609Y0010753D02*
X0025631Y0010709D01*
X0025762D01*
X0025784Y0010753D01*
Y0010840D01*
X0025740Y0010884D01*
X0025609D01*
Y0010971D01*
X0025784D01*
X0025493Y0010753D02*
X0025471Y0010709D01*
X0025340D01*
X0025318Y0010753D01*
Y0010928D01*
X0025340Y0010971D01*
X0025471D01*
X0025493Y0010928D01*
X0015491Y0002047D02*
Y0001872D01*
X0015316Y0002047D01*
X0015273D01*
X0015229Y0002025D01*
Y0001894D01*
X0015273Y0001872D01*
X0015491Y0001756D02*
Y0001668D01*
Y0001712D02*
X0015229D01*
X0015273Y0001668D01*
X0015491Y0001509D02*
Y0001421D01*
Y0001465D02*
X0015229D01*
X0015273Y0001421D01*
X0015448Y0001261D02*
X0015491Y0001239D01*
Y0001108D01*
X0015448Y0001086D01*
X0015273D01*
X0015229Y0001108D01*
Y0001239D01*
X0015273Y0001261D01*
X0003880Y0024147D02*
X0003837Y0024191D01*
X0003815Y0024234D01*
Y0024322D01*
X0003837Y0024366D01*
X0003880Y0024409D01*
X0003924D01*
X0003968Y0024366D01*
X0003990Y0024322D01*
Y0024234D01*
X0003968Y0024191D01*
X0003924Y0024147D01*
X0003880D01*
X0003699Y0024234D02*
X0003524D01*
X0003611Y0024409D01*
X0003655D01*
Y0024147D01*
X0003254D02*
Y0024409D01*
X0003233Y0024147D02*
X0003364D01*
X0003408Y0024234D01*
Y0024322D01*
X0003364Y0024409D01*
X0003233D01*
X0021369Y0003641D02*
X0021325Y0003663D01*
X0021282D01*
X0021238Y0003641D01*
Y0003510D01*
X0021282Y0003488D01*
X0021325D01*
X0021369Y0003510D01*
Y0003641D01*
X0021413Y0003663D01*
X0021457D01*
X0021500Y0003641D01*
Y0003510D01*
X0021457Y0003488D01*
X0021413D01*
X0021369Y0003510D01*
X0021500Y0003262D02*
X0021457Y0003219D01*
X0021413Y0003197D01*
X0021325D01*
X0021282Y0003219D01*
X0021238Y0003262D01*
Y0003306D01*
X0021282Y0003350D01*
X0021325Y0003372D01*
X0021413D01*
X0021457Y0003350D01*
X0021500Y0003306D01*
Y0003262D01*
Y0003081D02*
Y0002993D01*
Y0003037D02*
X0021238D01*
X0021282Y0002993D01*
X0021457Y0002833D02*
X0021500Y0002811D01*
Y0002680D01*
X0021457Y0002658D01*
X0021282D01*
X0021238Y0002680D01*
Y0002811D01*
X0021282Y0002833D01*
X0024113Y0016757D02*
X0024134Y0016713D01*
X0024266D01*
X0024288Y0016757D01*
Y0016844D01*
X0024244Y0016888D01*
X0024113D01*
Y0016975D01*
X0024288D01*
X0023843Y0016844D02*
X0023974D01*
X0023996Y0016800D01*
Y0016757D01*
X0023974Y0016713D01*
X0023843D01*
X0023821Y0016757D01*
Y0016800D01*
X0023909Y0016975D01*
X0023705Y0016757D02*
X0023683Y0016713D01*
X0023552D01*
X0023530Y0016757D01*
Y0016932D01*
X0023552Y0016975D01*
X0023683D01*
X0023705Y0016932D01*
X0012598Y0000503D02*
X0012423D01*
X0012598Y0000678D01*
Y0000722D01*
X0012576Y0000766D01*
X0012445D01*
X0012423Y0000722D01*
X0012154Y0000591D02*
Y0000547D01*
X0012176Y0000503D01*
X0012263D01*
X0012285Y0000547D01*
Y0000766D01*
X0012307D02*
X0012219D01*
X0010372Y0000816D02*
X0010547D01*
X0010372Y0000641D01*
Y0000597D01*
X0010394Y0000553D01*
X0010525D01*
X0010547Y0000597D01*
X0010663Y0000553D02*
Y0000772D01*
X0010685Y0000816D01*
X0010816D01*
X0010838Y0000772D01*
Y0000553D01*
X0019805Y0019709D02*
Y0019578D01*
X0019761Y0019556D01*
X0019718D01*
X0019674Y0019578D01*
Y0019709D01*
X0019718Y0019731D01*
X0019761D01*
X0019936Y0019643D01*
Y0019847D02*
X0019718D01*
X0019674Y0019869D01*
Y0020000D01*
X0019718Y0020022D01*
X0019936D01*
X0021493Y0000714D02*
X0021624D01*
X0021646Y0000670D01*
Y0000627D01*
X0021624Y0000583D01*
X0021493D01*
X0021471Y0000627D01*
Y0000670D01*
X0021559Y0000845D01*
X0021355Y0000583D02*
X0021268D01*
X0021311D02*
Y0000845D01*
X0021268Y0000802D01*
X0031558Y0020543D02*
X0031164D01*
Y0020674D02*
Y0020412D01*
X0031361Y0020219D02*
Y0020022D01*
X0031558Y0020285D02*
Y0020022D01*
X0031164D01*
Y0020285D01*
X0031230Y0019895D02*
X0031164Y0019862D01*
Y0019665D01*
X0031230Y0019633D01*
X0031295D01*
X0031361Y0019665D01*
Y0019862D01*
X0031426Y0019895D01*
X0031492D01*
X0031558Y0019862D01*
Y0019665D01*
X0031492Y0019633D01*
X0031361Y0019440D02*
Y0019243D01*
X0031558Y0019506D02*
Y0019243D01*
X0031164D01*
Y0019506D01*
X0031361Y0019018D02*
X0031558Y0019116D01*
X0031361Y0018854D02*
Y0019050D01*
X0031295Y0019116D01*
X0031230D01*
X0031164Y0019050D01*
Y0018854D01*
X0031558D01*
X0015452Y0003334D02*
X0015408Y0003290D01*
X0015364Y0003268D01*
X0015277D01*
X0015233Y0003290D01*
X0015190Y0003334D01*
Y0003378D01*
X0015233Y0003421D01*
X0015277Y0003443D01*
X0015364D01*
X0015408Y0003421D01*
X0015452Y0003378D01*
Y0003334D01*
Y0003152D02*
Y0003065D01*
Y0003109D02*
X0015190D01*
X0015233Y0003065D01*
X0015452Y0002905D02*
Y0002817D01*
Y0002861D02*
X0015190D01*
X0015233Y0002817D01*
X0015408Y0002658D02*
X0015452Y0002636D01*
Y0002504D01*
X0015408Y0002483D01*
X0015233D01*
X0015190Y0002504D01*
Y0002636D01*
X0015233Y0002658D01*
X0018397Y0002656D02*
Y0002481D01*
X0018222Y0002568D01*
Y0002612D01*
X0018484D01*
X0018222Y0002364D02*
X0018441D01*
X0018484Y0002342D01*
Y0002211D01*
X0018441Y0002189D01*
X0018222D01*
X0014555Y0011610D02*
X0014599Y0011653D01*
Y0011741D01*
X0014555Y0011785D01*
X0014511D01*
X0014424Y0011697D01*
X0014336Y0011785D01*
Y0011610D01*
X0014555Y0011319D02*
X0014599Y0011340D01*
Y0011472D01*
X0014555Y0011494D01*
X0014467D01*
X0014424Y0011450D01*
Y0011319D01*
X0014336D01*
Y0011494D01*
X0014008Y0021353D02*
X0013986Y0021397D01*
X0013855D01*
X0013833Y0021353D01*
Y0021265D01*
X0013877Y0021222D01*
X0014008D01*
Y0021134D01*
X0013833D01*
X0014234Y0021397D02*
X0014277Y0021353D01*
X0014299Y0021309D01*
Y0021222D01*
X0014277Y0021178D01*
X0014234Y0021134D01*
X0014190D01*
X0014146Y0021178D01*
X0014124Y0021222D01*
Y0021309D01*
X0014146Y0021353D01*
X0014190Y0021397D01*
X0014234D01*
X0014415D02*
X0014503D01*
X0014459D02*
Y0021134D01*
X0014503Y0021178D01*
X0019956Y0024840D02*
X0019912Y0024862D01*
X0019869D01*
X0019825Y0024840D01*
Y0024709D01*
X0019869Y0024687D01*
X0019912D01*
X0019956Y0024709D01*
Y0024840D01*
X0020000Y0024862D01*
X0020044D01*
X0020087Y0024840D01*
Y0024709D01*
X0020044Y0024687D01*
X0020000D01*
X0019956Y0024709D01*
X0020044Y0024396D02*
X0020087Y0024440D01*
Y0024527D01*
X0020044Y0024571D01*
X0020000D01*
X0019912Y0024484D01*
X0019825Y0024571D01*
Y0024396D01*
X0020044Y0024280D02*
X0020087Y0024258D01*
Y0024127D01*
X0020044Y0024105D01*
X0019869D01*
X0019825Y0024127D01*
Y0024258D01*
X0019869Y0024280D01*
X0018807Y0020261D02*
X0018763Y0020305D01*
X0018741Y0020349D01*
Y0020436D01*
X0018763Y0020480D01*
X0018807Y0020524D01*
X0018851D01*
X0018894Y0020480D01*
X0018916Y0020436D01*
Y0020349D01*
X0018894Y0020305D01*
X0018851Y0020261D01*
X0018807D01*
X0018450Y0020305D02*
X0018472Y0020261D01*
X0018603D01*
X0018625Y0020305D01*
Y0020392D01*
X0018581Y0020436D01*
X0018450D01*
Y0020524D01*
X0018625D01*
X0018268Y0020392D02*
X0018334Y0020261D01*
X0018159Y0020392D02*
X0018290D01*
X0018334Y0020436D01*
Y0020480D01*
X0018290Y0020524D01*
X0018159D01*
Y0020261D01*
X0022149Y0005151D02*
X0021974D01*
X0022149Y0005326D01*
Y0005369D01*
X0022127Y0005413D01*
X0021995D01*
X0021974Y0005369D01*
X0021704Y0005151D02*
Y0005413D01*
X0021682Y0005151D02*
X0021814D01*
X0021857Y0005238D01*
Y0005326D01*
X0021814Y0005413D01*
X0021682D01*
X0021513Y0001771D02*
X0021469Y0001727D01*
X0021425Y0001705D01*
X0021338D01*
X0021294Y0001727D01*
X0021251Y0001771D01*
Y0001815D01*
X0021294Y0001858D01*
X0021338Y0001880D01*
X0021425D01*
X0021469Y0001858D01*
X0021513Y0001815D01*
Y0001771D01*
Y0001589D02*
Y0001414D01*
X0021338Y0001589D01*
X0021294D01*
X0021251Y0001567D01*
Y0001436D01*
X0021294Y0001414D01*
X0021382Y0001232D02*
X0021513Y0001298D01*
X0021382Y0001123D02*
Y0001254D01*
X0021338Y0001298D01*
X0021294D01*
X0021251Y0001254D01*
Y0001123D01*
X0021513D01*
X0023383Y0005133D02*
X0023296D01*
X0023340D02*
Y0005395D01*
X0023296Y0005351D01*
X0022983Y0005133D02*
Y0005395D01*
X0022961Y0005133D02*
X0023092D01*
X0023136Y0005220D01*
Y0005308D01*
X0023092Y0005395D01*
X0022961D01*
X0007783Y0007821D02*
Y0007646D01*
X0007608Y0007734D01*
Y0007777D01*
X0007870D01*
X0007827Y0007530D02*
X0007870Y0007508D01*
Y0007377D01*
X0007827Y0007355D01*
X0007652D01*
X0007608Y0007377D01*
Y0007508D01*
X0007652Y0007530D01*
X0026228Y0016347D02*
Y0016522D01*
X0026097Y0016347D02*
X0026360D01*
X0026097Y0016522D02*
X0026360D01*
X0026097Y0016726D02*
X0026360D01*
Y0016638D02*
Y0016813D01*
X0026228Y0016973D02*
Y0017104D01*
X0026097Y0016929D02*
Y0017104D01*
X0026360D01*
Y0016929D01*
X0018774Y0004736D02*
X0018686D01*
X0018730D02*
Y0004998D01*
X0018686Y0004955D01*
X0018527Y0004736D02*
X0018439D01*
X0018483D02*
Y0004998D01*
X0018439Y0004955D01*
X0018279Y0004736D02*
X0018192D01*
X0018236D02*
Y0004998D01*
X0018192Y0004955D01*
X0018032Y0004780D02*
X0018010Y0004736D01*
X0017879D01*
X0017857Y0004780D01*
Y0004955D01*
X0017879Y0004998D01*
X0018010D01*
X0018032Y0004955D01*
X0004541Y0011253D02*
X0004453D01*
X0004497D02*
Y0011515D01*
X0004453Y0011471D01*
X0021538Y0025059D02*
Y0024884D01*
X0021363Y0024972D01*
Y0025016D01*
X0021626D01*
X0021582Y0024593D02*
X0021626Y0024637D01*
Y0024724D01*
X0021582Y0024768D01*
X0021538D01*
X0021451Y0024681D01*
X0021363Y0024768D01*
Y0024593D01*
X0021582Y0024477D02*
X0021626Y0024455D01*
Y0024324D01*
X0021582Y0024302D01*
X0021407D01*
X0021363Y0024324D01*
Y0024455D01*
X0021407Y0024477D01*
X0017583Y0009089D02*
X0017408D01*
X0017583Y0009264D01*
Y0009308D01*
X0017561Y0009352D01*
X0017430D01*
X0017408Y0009308D01*
X0017292Y0009089D02*
X0017117D01*
X0017292Y0009264D01*
Y0009308D01*
X0017270Y0009352D01*
X0017139D01*
X0017117Y0009308D01*
X0016935Y0009220D02*
X0017001Y0009089D01*
X0016826Y0009220D02*
X0016957D01*
X0017001Y0009264D01*
Y0009308D01*
X0016957Y0009352D01*
X0016826D01*
Y0009089D01*
X0007868Y0006414D02*
X0007911Y0006436D01*
Y0006567D01*
X0007868Y0006589D01*
X0007780D01*
X0007736Y0006546D01*
Y0006414D01*
X0007649D01*
Y0006589D01*
X0007868Y0006298D02*
X0007911Y0006276D01*
Y0006145D01*
X0007868Y0006123D01*
X0007693D01*
X0007649Y0006145D01*
Y0006276D01*
X0007693Y0006298D01*
X0021239Y0021376D02*
X0021261Y0021332D01*
X0021392D01*
X0021414Y0021376D01*
Y0021463D01*
X0021371Y0021507D01*
X0021239D01*
Y0021594D01*
X0021414D01*
X0020948Y0021376D02*
X0020992Y0021332D01*
X0021079D01*
X0021123Y0021376D01*
Y0021420D01*
X0021036Y0021507D01*
X0021123Y0021594D01*
X0020948D01*
X0020832Y0021376D02*
X0020810Y0021332D01*
X0020679D01*
X0020657Y0021376D01*
Y0021551D01*
X0020679Y0021594D01*
X0020810D01*
X0020832Y0021551D01*
X0024213Y0017650D02*
X0024344D01*
X0024366Y0017607D01*
Y0017563D01*
X0024344Y0017519D01*
X0024213D01*
X0024191Y0017563D01*
Y0017607D01*
X0024279Y0017782D01*
X0023922Y0017650D02*
X0024053D01*
X0024075Y0017607D01*
Y0017563D01*
X0024053Y0017519D01*
X0023922D01*
X0023900Y0017563D01*
Y0017607D01*
X0023988Y0017782D01*
X0023784Y0017563D02*
X0023762Y0017519D01*
X0023631D01*
X0023609Y0017563D01*
Y0017738D01*
X0023631Y0017782D01*
X0023762D01*
X0023784Y0017738D01*
X0017557Y0008173D02*
X0017469D01*
X0017513D02*
Y0008435D01*
X0017469Y0008391D01*
X0017309Y0008173D02*
X0017134D01*
X0017309Y0008347D01*
Y0008391D01*
X0017287Y0008435D01*
X0017156D01*
X0017134Y0008391D01*
X0016953Y0008304D02*
X0017018Y0008173D01*
X0016843Y0008304D02*
X0016974D01*
X0017018Y0008347D01*
Y0008391D01*
X0016974Y0008435D01*
X0016843D01*
Y0008173D01*
X0024347Y0015915D02*
X0024172D01*
X0024259Y0016090D01*
X0024303D01*
Y0015828D01*
X0023902Y0015959D02*
X0024033D01*
X0024055Y0015915D01*
Y0015872D01*
X0024033Y0015828D01*
X0023902D01*
X0023880Y0015872D01*
Y0015915D01*
X0023968Y0016090D01*
X0023764Y0015872D02*
X0023742Y0015828D01*
X0023611D01*
X0023589Y0015872D01*
Y0016047D01*
X0023611Y0016090D01*
X0023742D01*
X0023764Y0016047D01*
X0004455Y0020512D02*
X0004717Y0020381D01*
Y0020556D01*
X0004498Y0020847D02*
X0004455Y0020825D01*
Y0020694D01*
X0004498Y0020672D01*
X0004586D01*
X0004629Y0020716D01*
Y0020847D01*
X0004717D01*
Y0020672D01*
X0004455Y0020963D02*
Y0021051D01*
Y0021007D02*
X0004717D01*
X0004673Y0021051D01*
X0006651Y0008632D02*
X0006672Y0008588D01*
X0006804D01*
X0006826Y0008632D01*
Y0008719D01*
X0006782Y0008763D01*
X0006651D01*
Y0008850D01*
X0006826D01*
X0006469Y0008719D02*
X0006534Y0008588D01*
X0006359Y0008719D02*
X0006491D01*
X0006534Y0008763D01*
Y0008807D01*
X0006491Y0008850D01*
X0006359D01*
Y0008588D01*
X0010018Y0004479D02*
X0009931D01*
X0009975D02*
Y0004741D01*
X0009931Y0004698D01*
X0009684Y0004479D02*
Y0004610D01*
X0009771Y0004741D02*
X0009705Y0004610D01*
X0009662D01*
X0009596Y0004741D01*
X0011410Y0007236D02*
X0011541Y0007498D01*
X0011366D01*
X0011250Y0007280D02*
X0011228Y0007236D01*
X0011097D01*
X0011075Y0007280D01*
Y0007455D01*
X0011097Y0007498D01*
X0011228D01*
X0011250Y0007455D01*
X0020099Y0021356D02*
X0019924D01*
X0020099Y0021531D01*
Y0021574D01*
X0020077Y0021618D01*
X0019946D01*
X0019924Y0021574D01*
X0019808Y0021356D02*
X0019655D01*
Y0021618D01*
X0017236Y0023466D02*
X0017324D01*
Y0023379D01*
X0017302Y0023335D01*
X0017171D01*
X0017149Y0023379D01*
Y0023554D01*
X0017171Y0023597D01*
X0017302D01*
X0017324Y0023554D01*
X0017033Y0023423D02*
X0016858D01*
X0017033Y0023335D02*
Y0023466D01*
X0016967Y0023597D01*
X0016923D01*
X0016858Y0023466D01*
Y0023335D01*
X0016654D02*
Y0023597D01*
X0016741D02*
X0016566D01*
X0016297Y0023423D02*
Y0023379D01*
X0016319Y0023335D01*
X0016407D01*
X0016428Y0023379D01*
Y0023597D01*
X0016450D02*
X0016363D01*
X0025638Y-0002690D02*
X0025616Y-0002734D01*
X0025485D01*
X0025463Y-0002690D01*
Y-0002515D01*
X0025485Y-0002471D01*
X0025616D01*
X0025638Y-0002515D01*
X0025194Y-0002734D02*
Y-0002471D01*
X0025172Y-0002734D02*
X0025303D01*
X0025347Y-0002690D01*
Y-0002646D01*
X0025325Y-0002602D01*
X0025194D02*
X0025325D01*
X0025347Y-0002559D01*
Y-0002515D01*
X0025303Y-0002471D01*
X0025172D01*
X0025056Y-0002515D02*
X0025034Y-0002471D01*
X0024902D01*
X0024881Y-0002515D01*
Y-0002559D01*
X0024902Y-0002602D01*
X0025034D01*
X0025056Y-0002646D01*
Y-0002690D01*
X0025034Y-0002734D01*
X0024902D01*
X0024881Y-0002690D01*
X0024375Y-0002734D02*
X0024244Y-0002471D01*
X0024375D02*
X0024244Y-0002734D01*
X0024106Y-0002471D02*
Y-0002690D01*
X0024084Y-0002734D01*
X0023953D01*
X0023931Y-0002690D01*
Y-0002471D01*
X0023815D02*
Y-0002734D01*
X0023771Y-0002690D01*
X0023683Y-0002515D01*
X0023640Y-0002471D01*
Y-0002734D01*
X0023523D02*
X0023436D01*
X0023480D02*
Y-0002471D01*
X0023523D02*
X0023436D01*
X0023276Y-0002734D02*
X0023123D01*
Y-0002471D01*
X0009895Y0015583D02*
X0009851Y0015627D01*
X0009830Y0015671D01*
Y0015758D01*
X0009851Y0015802D01*
X0009895Y0015846D01*
X0009939D01*
X0009983Y0015802D01*
X0010005Y0015758D01*
Y0015671D01*
X0009983Y0015627D01*
X0009939Y0015583D01*
X0009895D01*
X0009604D02*
X0009560Y0015627D01*
X0009538Y0015671D01*
Y0015758D01*
X0009560Y0015802D01*
X0009604Y0015846D01*
X0009648D01*
X0009691Y0015802D01*
X0009713Y0015758D01*
Y0015671D01*
X0009691Y0015627D01*
X0009648Y0015583D01*
X0009604D01*
X0009422D02*
X0009247D01*
X0009422Y0015758D01*
Y0015802D01*
X0009400Y0015846D01*
X0009269D01*
X0009247Y0015802D01*
X0009109Y0015715D02*
X0008978D01*
X0008956Y0015758D01*
Y0015802D01*
X0008978Y0015846D01*
X0009109D01*
X0009131Y0015802D01*
Y0015758D01*
X0009044Y0015583D01*
X0008840D02*
Y0015846D01*
X0008796Y0015802D01*
X0008752Y0015715D01*
X0008709Y0015802D01*
X0008665Y0015846D01*
Y0015583D01*
X0008483Y0015715D02*
X0008549Y0015583D01*
X0008374Y0015715D02*
X0008505D01*
X0008549Y0015758D01*
Y0015802D01*
X0008505Y0015846D01*
X0008374D01*
Y0015583D01*
X0008258D02*
X0008170D01*
X0008214D02*
Y0015846D01*
X0008170Y0015802D01*
X0007988Y0015715D02*
X0007857D01*
X0007835Y0015758D01*
Y0015802D01*
X0007857Y0015846D01*
X0007988D01*
X0008010Y0015802D01*
Y0015758D01*
X0007923Y0015583D01*
X0007632D02*
Y0015846D01*
X0007719D02*
X0007544D01*
X0007428Y0015671D02*
X0007253D01*
X0007428Y0015583D02*
Y0015715D01*
X0007362Y0015846D01*
X0007318D01*
X0007253Y0015715D01*
Y0015583D01*
X0024087Y0024210D02*
X0023956D01*
X0023978Y0024253D01*
X0024065Y0024341D01*
X0024087Y0024384D01*
X0023956D01*
X0023840Y0024341D02*
X0023665D01*
X0023840Y0024210D02*
Y0024472D01*
X0023665Y0024210D02*
Y0024472D01*
X0023548Y0024210D02*
Y0024472D01*
X0023505Y0024428D01*
X0023461Y0024341D01*
X0023417Y0024428D01*
X0023373Y0024472D01*
Y0024210D01*
X0023082Y0024253D02*
X0023104Y0024210D01*
X0023235D01*
X0023257Y0024253D01*
Y0024341D01*
X0023213Y0024384D01*
X0023082D01*
Y0024472D01*
X0023257D01*
X0022966Y0024210D02*
X0022791D01*
X0022966Y0024384D01*
Y0024428D01*
X0022944Y0024472D01*
X0022813D01*
X0022791Y0024428D01*
M02*
