*
G04 Mass Parameters ***
*
G04 Image ***
*
%INC:\CAINPCB\TELEM_SARURO\TELEM_SARURO.SMT*%
%ICAS*%
%MOIN*%
%IPPOS*%
%ASAXBY*%
G74*%FSLAN2X34Y34*%
*
G04 Aperture Definitions ***
*
%ADD10C,0.0669*%
%ADD11R,0.0500X0.0400*%
%ADD12R,0.0400X0.0500*%
%ADD13R,0.0350X0.0300*%
%ADD14R,0.0400X0.0650*%
%ADD15R,0.0600X0.0600*%
%ADD16R,0.1000X0.0600*%
%ADD17R,0.0320X0.0380*%
%ADD18R,0.0300X0.0350*%
%ADD19C,0.0600*%
%ADD20C,0.0870*%
%ADD21C,0.1250*%
%ADD22C,0.0550*%
%ADD23R,0.0550X0.0550*%
%ADD24C,0.0620*%
%ADD25R,0.0620X0.0620*%
%ADD26C,0.0580*%
%ADD27R,0.0580X0.0580*%
%ADD28C,0.0551*%
%ADD29C,0.1340*%
%ADD30C,0.0775*%
%ADD31C,0.0492*%
%ADD32R,0.0500X0.0500*%
%ADD33O,0.0700X0.0110*%
%ADD34R,0.0700X0.0110*%
%ADD35O,0.0110X0.0700*%
%ADD36R,0.0110X0.0700*%
%ADD37O,0.0700X0.0180*%
%ADD38R,0.0700X0.0180*%
%ADD39O,0.0180X0.0700*%
%ADD40R,0.0180X0.0700*%
%ADD41R,0.0250X0.0800*%
%ADD42R,0.0550X0.0150*%
%ADD43R,0.0700X0.0160*%
%ADD44R,0.0100X0.0700*%
%ADD45R,0.0700X0.0100*%
%ADD46R,0.0250X0.0750*%
%ADD47R,0.0550X0.0350*%
%ADD48R,0.0450X0.0350*%
%ADD49R,0.0880X0.1420*%
%ADD50R,0.0880X0.0480*%
%ADD51R,0.0866X0.0512*%
%ADD52R,0.2165X0.0787*%
%ADD53R,0.0551X0.0472*%
%ADD54R,0.0787X0.2165*%
%ADD55C,0.0276*%
%ADD56C,0.0039*%
%ADD57C,0.0118*%
%ADD58C,0.0079*%
%ADD59C,0.0010*%
%ADD60C,0.0100*%
%ADD61C,0.0080*%
%ADD62C,0.0276*%
%ADD63C,0.0098*%
%ADD64C,0.0197*%
%ADD65C,0.0472*%
%ADD66C,0.0394*%
%ADD67C,0.0138*%
%ADD68C,0.0276*%
%ADD69C,0.0236*%
%ADD70C,0.0157*%
%ADD71C,0.0276*%
%ADD72C,0.0669*%
%ADD73R,0.0500X0.0400*%
%ADD74R,0.0400X0.0500*%
%ADD75R,0.0600X0.0600*%
%ADD76R,0.0320X0.0380*%
%ADD77C,0.0600*%
%ADD78C,0.0870*%
%ADD79C,0.1250*%
%ADD80C,0.0550*%
%ADD81R,0.0550X0.0550*%
%ADD82C,0.0620*%
%ADD83R,0.0620X0.0620*%
%ADD84C,0.0580*%
%ADD85R,0.0580X0.0580*%
%ADD86C,0.0551*%
%ADD87C,0.1340*%
%ADD88C,0.0775*%
%ADD89R,0.0394X0.0709*%
%ADD90R,0.0709X0.0669*%
%ADD91R,0.0165X0.0630*%
%ADD92R,0.0709X0.0748*%
%ADD93C,0.0492*%
%ADD94R,0.0500X0.0500*%
%ADD95R,0.0197X0.0551*%
%ADD96R,0.0700X0.0150*%
%ADD97R,0.0150X0.0700*%
%ADD98R,0.0350X0.0550*%
%ADD99R,0.0350X0.0450*%
%ADD100R,0.0880X0.1420*%
%ADD101R,0.0880X0.0480*%
%ADD102R,0.1500X0.0450*%
%ADD103C,0.0276*%
%ADD104C,0.0276*%
%ADD105C,0.0315*%
%ADD106C,0.0354*%
%ADD107C,0.0200*%
%ADD108C,0.0787*%
%ADD109R,0.0400X0.0350*%
%ADD110R,0.0450X0.0700*%
%ADD111R,0.1050X0.0650*%
%ADD112R,0.0350X0.0400*%
%ADD113C,0.0650*%
%ADD114C,0.0920*%
%ADD115C,0.1350*%
%ADD116C,0.1390*%
%ADD117C,0.0827*%
%ADD118C,0.0768*%
%ADD119C,0.0984*%
%ADD120O,0.0700X0.0110*%
%ADD121R,0.0700X0.0110*%
%ADD122O,0.0110X0.0700*%
%ADD123R,0.0110X0.0700*%
%ADD124O,0.0700X0.0180*%
%ADD125R,0.0700X0.0180*%
%ADD126O,0.0180X0.0700*%
%ADD127R,0.0180X0.0700*%
%ADD128R,0.0300X0.0850*%
%ADD129R,0.0600X0.0200*%
%ADD130R,0.0750X0.0210*%
%ADD131R,0.0130X0.0730*%
%ADD132R,0.0730X0.0130*%
%ADD133R,0.0300X0.0800*%
%ADD134R,0.0600X0.0400*%
%ADD135R,0.0930X0.1470*%
%ADD136R,0.0930X0.0530*%
%ADD137R,0.0905X0.0551*%
%ADD138R,0.2165X0.0787*%
%ADD139R,0.0590X0.0512*%
%ADD140R,0.0787X0.2165*%
*
G04 Plot Data ***
*
G54D73*
X-0005288Y0021892D03*
Y0022632D03*
X-0007856Y0018920D03*
Y0018360D03*
X-0004529Y0022776D03*
Y0023336D03*
X-0007858Y0021562D03*
Y0022122D03*
X-0005545Y0023918D03*
Y0023358D03*
X-0001873Y0022776D03*
Y0023336D03*
X0020740Y0001900D03*
Y0001340D03*
X0007473Y0008417D03*
Y0008977D03*
X0023200Y0006440D03*
Y0005880D03*
X0021920Y0006420D03*
Y0005860D03*
X-0006955Y0018928D03*
Y0018368D03*
X-0006965Y0021554D03*
Y0022114D03*
X-0003643Y0022768D03*
Y0023328D03*
X0016048Y0001377D03*
Y0001937D03*
Y0002734D03*
Y0003294D03*
X0020670Y0002950D03*
Y0003510D03*
X-0002758Y0022780D03*
Y0023340D03*
X-0006422Y0023902D03*
Y0023342D03*
X0019922Y0023010D03*
Y0023570D03*
X0020788Y0023010D03*
Y0023570D03*
Y0024347D03*
Y0024907D03*
X0011308Y0008555D03*
Y0007995D03*
X0008457Y0006195D03*
Y0006755D03*
Y0008044D03*
Y0007484D03*
G54D74*
X-0003556Y0016466D03*
X-0004116D03*
X-0008257Y0020732D03*
X-0008817D03*
X-0007778Y0009040D03*
X-0007218D03*
X-0006914Y0020714D03*
X-0007474D03*
X0018172Y0021102D03*
X0018732D03*
X-0002757Y0021957D03*
X-0002197D03*
X-0007794Y0001261D03*
X-0007234D03*
X-0007735Y0005240D03*
X-0007175D03*
X0018093Y0009283D03*
X0018653D03*
X0018108Y0008314D03*
X0018668D03*
X0003920Y0023660D03*
X0003360D03*
X-0005482Y0016458D03*
X-0004922D03*
X-0004230Y0000470D03*
X-0003670D03*
X0026200Y0008360D03*
X0025640D03*
X-0007865Y0013458D03*
X-0007305D03*
X-0004230Y0008476D03*
X-0003670D03*
X-0002766Y0016546D03*
X-0002206D03*
X-0008257Y0019823D03*
X-0008817D03*
X-0006916Y0019827D03*
X-0007476D03*
X0024269Y0011564D03*
X0024829D03*
X0018723Y0004268D03*
X0018163D03*
X-0001047Y0022659D03*
X-0000487D03*
X0025517Y0017759D03*
X0024957D03*
X0025517Y0016874D03*
X0024957D03*
X0025517Y0016009D03*
X0024957D03*
X0023974Y0009755D03*
X0023414D03*
X0005460Y0004520D03*
X0004900D03*
X0005440Y0005420D03*
X0004880D03*
X0012056Y0008811D03*
X0012616D03*
G54D75*
X0029380Y0010060D03*
Y0008760D03*
X0004020Y0008100D03*
X0005320D03*
X0005340Y0006940D03*
X0004040D03*
X0010324Y0003313D03*
X0011624D03*
G54D76*
X-0003284Y0025504D03*
X-0002724D03*
X-0003282Y0024802D03*
X-0002722D03*
X-0002074Y0025506D03*
X-0001514D03*
X-0002072Y0024802D03*
X-0001512D03*
X-0003934Y0024796D03*
X-0004494D03*
X-0003934Y0025500D03*
X-0004494D03*
G54D80*
X0017736Y0022263D03*
X0018736D03*
X0027816Y0023082D03*
Y0022082D03*
Y0021082D03*
X0017855Y0024416D03*
X0016855D03*
X0015855D03*
X0014855D03*
X0013855D03*
X0012380Y-0000140D03*
G54D81*
X0016736Y0022263D03*
X0027816Y0024082D03*
X0018855Y0024416D03*
X0012380Y-0001140D03*
G54D82*
X0014240Y-0000140D03*
X0015240Y-0001140D03*
Y-0000140D03*
X0016240Y-0001140D03*
Y-0000140D03*
X0017240Y-0001140D03*
Y-0000140D03*
X0018240Y-0001140D03*
X0019240D03*
Y-0000140D03*
X0020240Y-0001140D03*
Y-0000140D03*
X0021240Y-0001140D03*
Y-0000140D03*
G54D83*
X0014240Y-0001140D03*
X0018240Y-0000140D03*
G54D84*
X-0009948Y0001217D03*
X-0010948Y0002217D03*
X-0009948D03*
X-0010948Y0003217D03*
X-0009948D03*
X-0010948Y0004217D03*
X-0009948D03*
X-0010948Y0005217D03*
Y0006217D03*
X-0009948D03*
X-0010948Y0007217D03*
X-0009948D03*
X-0010948Y0008217D03*
X-0009948D03*
X-0009901Y0016810D03*
X-0010901Y0017810D03*
X-0009901D03*
X-0010901Y0018810D03*
X-0009901D03*
X-0010901Y0019810D03*
X-0009901D03*
X-0010901Y0020810D03*
Y0021810D03*
X-0009901D03*
X-0010901Y0022810D03*
X-0009901D03*
X-0010901Y0023810D03*
X-0009901D03*
X-0010909Y0010598D03*
X-0009909Y0011598D03*
X-0010909D03*
X-0009909Y0012598D03*
X-0010909D03*
X-0009909Y0013598D03*
X-0010909D03*
X-0009909Y0014598D03*
X-0010909D03*
X0006780Y0024360D03*
X0007780D03*
X0008780D03*
X0009780D03*
X0010780D03*
X0026840Y0003420D03*
X0025840Y0004420D03*
Y0003420D03*
X0024840Y0004420D03*
Y0003420D03*
X0023840Y0004420D03*
Y0003420D03*
X0022260Y-0001160D03*
X0000900Y-0000880D03*
X0001900Y0000120D03*
X0000900D03*
X0001900Y0001120D03*
X0000900D03*
X0001900Y0002120D03*
X0000900D03*
X0001900Y0003120D03*
Y0004120D03*
X0000900D03*
X0001900Y0005120D03*
X0000900D03*
X0001900Y0006120D03*
X0000900D03*
X0013244Y0003332D03*
X0018437Y0017899D03*
X0017437Y0016899D03*
X0018437D03*
X0017437Y0015899D03*
X0018437D03*
X0017437Y0014899D03*
X0018437D03*
G54D85*
X-0010948Y0001217D03*
X-0009948Y0005217D03*
X-0010901Y0016810D03*
X-0009901Y0020810D03*
X-0009909Y0010598D03*
X0005780Y0024360D03*
X0026840Y0004420D03*
X0022260Y-0000160D03*
X0001900Y-0000880D03*
X0000900Y0003120D03*
X0013244Y0002332D03*
X0017437Y0017899D03*
G54D86*
X0028880Y0021600D03*
Y0023742D03*
X0031640Y0021600D03*
Y0023740D03*
X0031242Y0022671D03*
X0030455D03*
X0029667D03*
X0028880D03*
G54D94*
X0019922Y0022184D03*
X0020762D03*
G54D108*
X0021440Y0008680D03*
X0022621Y0007400D03*
G54D109*
X-0007187Y0003807D03*
X-0007837D03*
X-0007187Y0002585D03*
X-0007837D03*
X-0005565Y0000493D03*
X-0004915D03*
X-0005573Y0001120D03*
X-0004923D03*
X-0002362D03*
X-0003012D03*
X-0002354Y0009149D03*
X-0003004D03*
X-0007211Y0014217D03*
X-0007861D03*
X-0005565Y0009149D03*
X-0004915D03*
X-0005565Y0008476D03*
X-0004915D03*
X-0007207Y0009811D03*
X-0007857D03*
X-0007222Y0011683D03*
X-0007872D03*
X-0007861Y0011061D03*
X-0007211D03*
X-0007857Y0010438D03*
X-0007207D03*
Y0012294D03*
X-0007857D03*
X-0000803Y0012341D03*
X-0000153D03*
X-0001089Y0014163D03*
X-0000439D03*
X-0000732Y0010062D03*
X-0000082D03*
X-0000732Y0009341D03*
X-0000082D03*
X-0000799Y0013552D03*
X-0000149D03*
X-0000799Y0012948D03*
X-0000149D03*
X-0000685Y0015001D03*
X-0000035D03*
X-0007841Y0003196D03*
X-0007191D03*
X-0007837Y0001974D03*
X-0007187D03*
X-0007171Y0004441D03*
X-0007821D03*
X-0000779Y0003776D03*
X-0000129D03*
X-0000787Y0005624D03*
X-0000137D03*
X-0007414Y0014985D03*
X-0008064D03*
X-0000795Y0002225D03*
X-0000145D03*
X-0000795Y0001606D03*
X-0000145D03*
X-0000787Y0005005D03*
X-0000137D03*
X-0000779Y0004387D03*
X-0000129D03*
X-0000732Y0007097D03*
X-0000082D03*
X-0007461Y0007066D03*
X-0008111D03*
G54D110*
X-0001353Y0010869D03*
X-0000103D03*
X-0001369Y0003008D03*
X-0000119D03*
G54D111*
X0029805Y0019920D03*
X0028305D03*
X0024910Y0009740D03*
X0026410D03*
G54D112*
X-0006580Y0004469D03*
Y0003819D03*
X-0001382Y0005628D03*
Y0004978D03*
X-0006599Y0012329D03*
Y0011679D03*
X-0001383Y0013563D03*
Y0012913D03*
X-0001379Y0001594D03*
Y0002244D03*
X-0001386Y0004406D03*
Y0003756D03*
Y0012322D03*
Y0011672D03*
X-0001410Y0009298D03*
Y0009948D03*
G54D113*
X0022520Y0023020D03*
X0024440D03*
X0009814Y0006100D03*
Y0008020D03*
X0001900Y0024140D03*
X0000900D03*
X0001900Y0023140D03*
X0000900D03*
X0001900Y0022140D03*
X0000900D03*
X0001900Y0021140D03*
X0000900D03*
X0001900Y0020140D03*
X0000900D03*
X0001900Y0019140D03*
X0000900D03*
X0001900Y0018140D03*
X0000900D03*
X0001900Y0017140D03*
X0000900D03*
X0001900Y0016140D03*
X0000900D03*
X0001900Y0015140D03*
X0000900D03*
X0001900Y0014140D03*
X0000900D03*
X0001900Y0013140D03*
X0000900D03*
X0001900Y0012140D03*
X0000900D03*
X0001900Y0011140D03*
X0000900D03*
X0001900Y0010140D03*
X0000900D03*
X0001900Y0009140D03*
X0000900D03*
X0001900Y0008140D03*
X0000900D03*
X0001900Y0007140D03*
X0000900D03*
X0030138Y0012740D03*
X0029138Y0013240D03*
X0030138Y0013740D03*
X0029138Y0014240D03*
X0030138Y0014740D03*
X0029138Y0015240D03*
X0030138Y0015740D03*
X0029138Y0016240D03*
X0027338Y0012240D03*
Y0013240D03*
Y0016740D03*
Y0015740D03*
G54D114*
X0031338Y0011440D03*
X0031438Y0017540D03*
G54D115*
X0032638Y0016740D03*
Y0012240D03*
G54D116*
X0026760Y0025611D03*
X0031560Y-0001900D03*
X-0008458Y0025517D03*
X-0008385Y-0000991D03*
X0033060Y0001160D03*
X0030560D03*
X0031560Y0002660D03*
G54D117*
X0032480Y0018081D03*
Y0020836D03*
G54D118*
X0033464Y0018573D03*
Y0020344D03*
G54D119*
X-0006869Y0025741D03*
X0033464Y0025811D03*
X0015823Y0008828D03*
X0033464Y-0002107D03*
G54D120*
X-0005633Y0020330D03*
Y0020133D03*
Y0019936D03*
Y0019739D03*
Y0019542D03*
Y0019345D03*
Y0019148D03*
Y0018754D03*
Y0018557D03*
Y0018360D03*
Y0018163D03*
X-0002286D03*
Y0018360D03*
Y0018557D03*
Y0018951D03*
Y0019148D03*
Y0019345D03*
Y0019542D03*
Y0019739D03*
Y0019936D03*
Y0020133D03*
Y0020330D03*
X-0005699Y0012638D03*
Y0012441D03*
Y0012244D03*
Y0012047D03*
Y0011850D03*
Y0011653D03*
Y0011456D03*
Y0011259D03*
Y0010865D03*
Y0010668D03*
X-0002352D03*
Y0010865D03*
Y0011062D03*
Y0011259D03*
Y0011456D03*
Y0011850D03*
Y0012047D03*
Y0012244D03*
Y0012441D03*
Y0012638D03*
Y0012835D03*
X-0005714Y0004691D03*
Y0004494D03*
Y0004297D03*
Y0004100D03*
Y0003903D03*
Y0003706D03*
Y0003509D03*
Y0003312D03*
Y0002918D03*
Y0002721D03*
X-0002367D03*
Y0002918D03*
Y0003115D03*
Y0003312D03*
Y0003509D03*
Y0003903D03*
Y0004100D03*
Y0004297D03*
Y0004494D03*
Y0004691D03*
Y0004888D03*
X0015331Y0011302D03*
Y0011499D03*
Y0011696D03*
Y0011893D03*
Y0012090D03*
Y0012287D03*
Y0012484D03*
Y0012878D03*
Y0013075D03*
Y0013272D03*
Y0013469D03*
Y0013666D03*
Y0013863D03*
Y0014060D03*
Y0014257D03*
Y0014454D03*
Y0014848D03*
Y0015045D03*
Y0015242D03*
Y0015439D03*
Y0015636D03*
Y0015833D03*
Y0016030D03*
Y0016227D03*
Y0016424D03*
Y0016818D03*
Y0017015D03*
Y0017212D03*
Y0017409D03*
Y0017606D03*
Y0017803D03*
Y0018000D03*
Y0018197D03*
Y0018394D03*
Y0018788D03*
Y0018985D03*
Y0019182D03*
Y0019379D03*
Y0019576D03*
Y0019773D03*
Y0019970D03*
Y0020167D03*
Y0020364D03*
Y0020758D03*
Y0020955D03*
Y0021152D03*
Y0021349D03*
X0003724D03*
Y0021152D03*
Y0020955D03*
Y0020561D03*
Y0020364D03*
Y0020167D03*
Y0019970D03*
Y0019773D03*
Y0019576D03*
Y0019379D03*
Y0019182D03*
Y0018985D03*
Y0018591D03*
Y0018394D03*
Y0018197D03*
Y0018000D03*
Y0017803D03*
Y0017606D03*
Y0017409D03*
Y0017212D03*
Y0017015D03*
Y0016621D03*
Y0016424D03*
Y0016227D03*
Y0016030D03*
Y0015833D03*
Y0015636D03*
Y0015439D03*
Y0015242D03*
Y0015045D03*
Y0014651D03*
Y0014454D03*
Y0014257D03*
Y0014060D03*
Y0013863D03*
Y0013666D03*
Y0013469D03*
Y0013272D03*
Y0013075D03*
Y0012681D03*
Y0012484D03*
Y0012287D03*
Y0012090D03*
Y0011893D03*
Y0011696D03*
Y0011499D03*
Y0011302D03*
G54D121*
X-0005633Y0018951D03*
X-0002286Y0018754D03*
X-0005699Y0012835D03*
Y0011062D03*
X-0002352Y0011653D03*
X-0005714Y0004888D03*
Y0003115D03*
X-0002367Y0003706D03*
X0015331Y0012681D03*
Y0014651D03*
Y0016621D03*
Y0018591D03*
Y0020561D03*
X0003724Y0020758D03*
Y0018788D03*
Y0016818D03*
Y0014848D03*
Y0012878D03*
G54D122*
X-0003073Y0020920D03*
X-0003270D03*
X-0003467D03*
X-0003664D03*
X-0003861D03*
X-0004058D03*
X-0004255D03*
X-0004452D03*
X-0004846D03*
X-0005043D03*
Y0017573D03*
X-0004846D03*
X-0004649D03*
X-0004452D03*
X-0004255D03*
X-0003861D03*
X-0003664D03*
X-0003467D03*
X-0003270D03*
X-0003073D03*
X-0002876D03*
X-0005109Y0010078D03*
X-0004912D03*
X-0004715D03*
X-0004518D03*
X-0004321D03*
X-0004124D03*
X-0003927D03*
X-0003533D03*
X-0003336D03*
X-0003139D03*
X-0002942D03*
Y0013425D03*
X-0003139D03*
X-0003336D03*
X-0003730D03*
X-0003927D03*
X-0004124D03*
X-0004321D03*
X-0004518D03*
X-0004715D03*
X-0004912D03*
X-0005109D03*
X-0005124Y0002131D03*
X-0004927D03*
X-0004730D03*
X-0004533D03*
X-0004336D03*
X-0004139D03*
X-0003942D03*
X-0003548D03*
X-0003351D03*
X-0003154D03*
X-0002957D03*
Y0005478D03*
X-0003154D03*
X-0003351D03*
X-0003745D03*
X-0003942D03*
X-0004139D03*
X-0004336D03*
X-0004533D03*
X-0004730D03*
X-0004927D03*
X-0005124D03*
X0004701Y0010522D03*
X0004898D03*
X0005095D03*
X0005292D03*
X0005489D03*
X0005686D03*
X0005883D03*
X0006080D03*
X0006474D03*
X0006671D03*
X0006868D03*
X0007065D03*
X0007262D03*
X0007459D03*
X0007656D03*
X0007853D03*
X0008050D03*
X0008444D03*
X0008641D03*
X0008838D03*
X0009035D03*
X0009232D03*
X0009429D03*
X0009626D03*
X0009823D03*
X0010020D03*
X0010414D03*
X0010611D03*
X0010808D03*
X0011005D03*
X0011202D03*
X0011399D03*
X0011596D03*
X0011793D03*
X0011990D03*
X0012384D03*
X0012581D03*
X0012778D03*
X0012975D03*
X0013172D03*
X0013369D03*
X0013566D03*
X0013763D03*
X0013960D03*
X0014354D03*
X0014551D03*
Y0022129D03*
X0014354D03*
X0014157D03*
X0013960D03*
X0013763D03*
X0013369D03*
X0013172D03*
X0012975D03*
X0012778D03*
X0012581D03*
X0012384D03*
X0012187D03*
X0011990D03*
X0011793D03*
X0011399D03*
X0011202D03*
X0011005D03*
X0010808D03*
X0010611D03*
X0010414D03*
X0010217D03*
X0010020D03*
X0009823D03*
X0009429D03*
X0009232D03*
X0009035D03*
X0008838D03*
X0008641D03*
X0008444D03*
X0008247D03*
X0008050D03*
X0007853D03*
X0007459D03*
X0007262D03*
X0007065D03*
X0006868D03*
X0006671D03*
X0006474D03*
X0006277D03*
X0006080D03*
X0005883D03*
X0005489D03*
X0005292D03*
X0005095D03*
X0004898D03*
X0004701D03*
X0004504D03*
G54D123*
X-0002876Y0020920D03*
X-0004649D03*
X-0004058Y0017573D03*
X-0003730Y0010078D03*
X-0003533Y0013425D03*
X-0003745Y0002131D03*
X-0003548Y0005478D03*
X0004504Y0010522D03*
X0006277D03*
X0008247D03*
X0010217D03*
X0012187D03*
X0014157D03*
X0013566Y0022129D03*
X0011596D03*
X0009626D03*
X0007656D03*
X0005686D03*
G54D124*
X0004521Y0002714D03*
Y0002084D03*
Y0001769D03*
Y0001454D03*
Y0001139D03*
Y0000824D03*
Y0000509D03*
X0007866D03*
Y0000824D03*
Y0001139D03*
Y0001454D03*
Y0001769D03*
Y0002399D03*
Y0002714D03*
G54D125*
X0004521Y0002399D03*
X0007866Y0002084D03*
G54D126*
X0006981Y0003284D03*
X0006666D03*
X0006351D03*
X0006036D03*
X0005721D03*
X0005406D03*
X0005091D03*
Y-0000061D03*
X0005406D03*
X0005721D03*
X0006351D03*
X0006666D03*
X0006981D03*
X0007296D03*
G54D127*
Y0003284D03*
X0006036Y-0000061D03*
G54D128*
X0011250Y0001750D03*
X0010750D03*
X0010250D03*
X0009750D03*
Y-0000950D03*
X0010250D03*
X0010750D03*
X0011250D03*
G54D129*
X0016130Y0007335D03*
Y0007085D03*
Y0006835D03*
Y0006585D03*
Y0006335D03*
Y0006085D03*
Y0005835D03*
Y0005585D03*
X0018430D03*
Y0005835D03*
Y0006085D03*
Y0006335D03*
Y0006585D03*
Y0006835D03*
Y0007085D03*
Y0007335D03*
G54D130*
X0017238Y0003511D03*
Y0003256D03*
Y0002999D03*
Y0002743D03*
Y0002488D03*
Y0002232D03*
Y0001976D03*
Y0001720D03*
Y0001464D03*
Y0001209D03*
X0019578D03*
Y0001464D03*
Y0001720D03*
Y0001976D03*
Y0002232D03*
Y0002488D03*
Y0002743D03*
Y0002999D03*
Y0003256D03*
Y0003511D03*
G54D131*
X0021318Y0017663D03*
X0021515D03*
X0021711D03*
X0021908D03*
X0022105D03*
X0022302D03*
X0022499D03*
X0022695D03*
X0022892D03*
X0023089D03*
X0023286D03*
X0023483D03*
Y0020963D03*
X0023286D03*
X0023089D03*
X0022892D03*
X0022695D03*
X0022499D03*
X0022302D03*
X0022105D03*
X0021908D03*
X0021711D03*
X0021515D03*
X0021318D03*
G54D132*
X0020750Y0020395D03*
Y0020198D03*
Y0020001D03*
Y0019805D03*
Y0019608D03*
Y0019411D03*
Y0019214D03*
Y0019017D03*
Y0018821D03*
Y0018624D03*
Y0018427D03*
Y0018230D03*
X0024050D03*
Y0018427D03*
Y0018624D03*
Y0018821D03*
Y0019017D03*
Y0019214D03*
Y0019411D03*
Y0019608D03*
Y0019805D03*
Y0020001D03*
Y0020198D03*
Y0020395D03*
G54D133*
X0021139Y0009777D03*
X0021639D03*
X0022139D03*
X0022639D03*
Y0011777D03*
X0022139D03*
X0021639D03*
X0021139D03*
G54D134*
X-0006148Y0022262D03*
G54D135*
X0026860Y0006640D03*
G54D136*
X0024420Y0007540D03*
Y0006640D03*
Y0005740D03*
G54D137*
X0020100Y0010575D03*
Y0008921D03*
X0012410Y0007729D03*
Y0006075D03*
G54D138*
X-0002171Y0014981D03*
X-0005911D03*
X-0002203Y0007073D03*
X-0005943D03*
G54D139*
X0004100Y0005060D03*
X0003234D03*
Y0004430D03*
X0004100D03*
G54D140*
X-0000775Y0017278D03*
Y0021018D03*
M02*
