*
G04 Mass Parameters ***
*
G04 Image ***
*
%INC:\CAINPCB\TELEM_SARURO\TELEM_SARURO.FAB*%
%ICAS*%
%MOIN*%
%IPPOS*%
%ASAXBY*%
G74*%FSLAN2X34Y34*%
*
G04 Aperture Definitions ***
*
%ADD10C,0.0669*%
%ADD11R,0.0500X0.0400*%
%ADD12R,0.0400X0.0500*%
%ADD13R,0.0350X0.0300*%
%ADD14R,0.0400X0.0650*%
%ADD15R,0.0600X0.0600*%
%ADD16R,0.1000X0.0600*%
%ADD17R,0.0320X0.0380*%
%ADD18R,0.0300X0.0350*%
%ADD19C,0.0600*%
%ADD20C,0.0870*%
%ADD21C,0.1250*%
%ADD22C,0.0550*%
%ADD23R,0.0550X0.0550*%
%ADD24C,0.0620*%
%ADD25R,0.0620X0.0620*%
%ADD26C,0.0580*%
%ADD27R,0.0580X0.0580*%
%ADD28C,0.0551*%
%ADD29C,0.1340*%
%ADD30C,0.0775*%
%ADD31C,0.0492*%
%ADD32R,0.0500X0.0500*%
%ADD33O,0.0700X0.0110*%
%ADD34R,0.0700X0.0110*%
%ADD35O,0.0110X0.0700*%
%ADD36R,0.0110X0.0700*%
%ADD37O,0.0700X0.0180*%
%ADD38R,0.0700X0.0180*%
%ADD39O,0.0180X0.0700*%
%ADD40R,0.0180X0.0700*%
%ADD41R,0.0250X0.0800*%
%ADD42R,0.0550X0.0150*%
%ADD43R,0.0700X0.0160*%
%ADD44R,0.0100X0.0700*%
%ADD45R,0.0700X0.0100*%
%ADD46R,0.0250X0.0750*%
%ADD47R,0.0550X0.0350*%
%ADD48R,0.0450X0.0350*%
%ADD49R,0.0880X0.1420*%
%ADD50R,0.0880X0.0480*%
%ADD51R,0.0866X0.0512*%
%ADD52R,0.2165X0.0787*%
%ADD53R,0.0551X0.0472*%
%ADD54R,0.0787X0.2165*%
%ADD55C,0.0276*%
%ADD56C,0.0039*%
%ADD57C,0.0118*%
%ADD58C,0.0079*%
%ADD59C,0.0010*%
%ADD60C,0.0100*%
%ADD61C,0.0080*%
%ADD62C,0.0276*%
%ADD63C,0.0098*%
%ADD64C,0.0197*%
%ADD65C,0.0472*%
%ADD66C,0.0394*%
%ADD67C,0.0138*%
%ADD68C,0.0276*%
%ADD69C,0.0236*%
%ADD70C,0.0157*%
%ADD71C,0.0276*%
%ADD72C,0.0669*%
%ADD73R,0.0500X0.0400*%
%ADD74R,0.0400X0.0500*%
%ADD75R,0.0600X0.0600*%
%ADD76R,0.0320X0.0380*%
%ADD77C,0.0600*%
%ADD78C,0.0870*%
%ADD79C,0.1250*%
%ADD80C,0.0550*%
%ADD81R,0.0550X0.0550*%
%ADD82C,0.0620*%
%ADD83R,0.0620X0.0620*%
%ADD84C,0.0580*%
%ADD85R,0.0580X0.0580*%
%ADD86C,0.0551*%
%ADD87C,0.1340*%
%ADD88C,0.0775*%
%ADD89R,0.0394X0.0709*%
%ADD90R,0.0709X0.0669*%
%ADD91R,0.0165X0.0630*%
%ADD92R,0.0709X0.0748*%
%ADD93C,0.0492*%
%ADD94R,0.0500X0.0500*%
%ADD95R,0.0197X0.0551*%
%ADD96R,0.0700X0.0150*%
%ADD97R,0.0150X0.0700*%
%ADD98R,0.0350X0.0550*%
%ADD99R,0.0350X0.0450*%
%ADD100R,0.0880X0.1420*%
%ADD101R,0.0880X0.0480*%
%ADD102R,0.1500X0.0450*%
%ADD103C,0.0276*%
%ADD104C,0.0276*%
%ADD105C,0.0315*%
%ADD106C,0.0354*%
%ADD107C,0.0200*%
%ADD108C,0.0787*%
%ADD109R,0.0400X0.0350*%
%ADD110R,0.0450X0.0700*%
%ADD111R,0.1050X0.0650*%
%ADD112R,0.0350X0.0400*%
%ADD113C,0.0650*%
%ADD114C,0.0920*%
%ADD115C,0.1350*%
%ADD116C,0.1390*%
%ADD117C,0.0827*%
%ADD118C,0.0768*%
%ADD119C,0.0984*%
%ADD120O,0.0700X0.0110*%
%ADD121R,0.0700X0.0110*%
%ADD122O,0.0110X0.0700*%
%ADD123R,0.0110X0.0700*%
%ADD124O,0.0700X0.0180*%
%ADD125R,0.0700X0.0180*%
%ADD126O,0.0180X0.0700*%
%ADD127R,0.0180X0.0700*%
%ADD128R,0.0300X0.0850*%
%ADD129R,0.0600X0.0200*%
%ADD130R,0.0750X0.0210*%
%ADD131R,0.0130X0.0730*%
%ADD132R,0.0730X0.0130*%
%ADD133R,0.0300X0.0800*%
%ADD134R,0.0600X0.0400*%
%ADD135R,0.0930X0.1470*%
%ADD136R,0.0930X0.0530*%
%ADD137R,0.0905X0.0551*%
%ADD138R,0.2165X0.0787*%
%ADD139R,0.0590X0.0512*%
%ADD140R,0.0787X0.2165*%
%ADD141R,0.0236X0.0669*%
%ADD142R,0.0450X0.0550*%
%ADD143R,0.0236X0.0590*%
%ADD144R,0.0750X0.0200*%
%ADD145R,0.0200X0.0750*%
%ADD146R,0.0400X0.0600*%
%ADD147R,0.1550X0.0500*%
%ADD148C,0.0060*%
%ADD149C,0.0030*%
%ADD150C,0.0050*%
%ADD151C,0.0047*%
%ADD152C,0.0063*%
%ADD153C,0.0059*%
%ADD154C,0.0157*%
%ADD155C,0.0157*%
%ADD156C,0.0157*%
*
G04 Plot Data ***
*
G54D56*
G01X-0011883Y-0002812D02*
Y0026484D01*
X0034200D01*
Y-0002780D01*
X-0011883Y-0002812D01*
G54D154*
X0016598Y0002988D03*
X0026742Y0023308D03*
X0025394Y0025302D03*
X0024756Y0025510D03*
X-0003858Y0022124D03*
X0011350Y0023346D03*
X0004904Y0025296D03*
X0004612Y0024930D03*
X-0000332Y0025148D03*
X-0001064D03*
X-0003614Y0025116D03*
X-0005118Y0025112D03*
X-0004690Y0018766D03*
X-0004284Y0018772D03*
X0025714Y0022424D03*
X0026252Y0022626D03*
X0028564Y0024678D03*
X0010954Y0023726D03*
X0030663Y0023967D03*
X0010686Y0023464D03*
X-0001047Y0023113D03*
X-0002758Y0023652D03*
X-0005512Y0024424D03*
X-0005962Y0024468D03*
X-0006310Y0018464D03*
X-0006334Y0018984D03*
X-0007926Y0007767D03*
X-0007545Y0007768D03*
X-0000145Y0001920D03*
X-0000433Y0006038D03*
X-0007864Y0011350D03*
X-0000767Y0016009D03*
X-0002205Y0016149D03*
X-0006746Y0014219D03*
X-0001735Y0011377D03*
X-0001514Y0018978D03*
X-0003533Y0014133D03*
X-0002891Y0014121D03*
X-0002395Y0014178D03*
X-0004905Y0014187D03*
X-0005251Y0006254D03*
X-0003363D03*
X-0002498Y0001770D03*
X-0002655Y0002321D03*
X-0002495Y0009577D03*
X-0002146Y0010107D03*
X-0007198Y0016894D03*
X-0007080Y0016500D03*
X-0007856Y0017768D03*
X-0008752Y0021220D03*
X-0007858Y0022389D03*
X-0006372Y0021004D03*
X-0003422Y0020316D03*
X-0004386Y0019568D03*
X0005020Y0024628D03*
X0011151Y0005074D03*
X0024453Y0014991D03*
X0003713Y0003551D03*
X0019973Y0004121D03*
X0017174Y0019462D03*
X0014393Y0021011D03*
X0010713Y0021401D03*
X0002573Y0023161D03*
X0019364Y0010331D03*
X0018873Y0009851D03*
X0016643Y0009301D03*
X0010874Y0008939D03*
X0009615Y0015387D03*
X0014675Y0011157D03*
X0012895Y0011507D03*
X0014935Y0022117D03*
X0009153Y0017492D03*
X0004095Y0021927D03*
X0003435Y0022377D03*
X0014263Y0016811D03*
X0012105Y0017067D03*
X0011205Y0005687D03*
X0002755Y0006777D03*
X0006235Y0012907D03*
X0003675Y0010937D03*
X0007346Y0015017D03*
X0018904Y0022872D03*
X0011308Y0007572D03*
X0003146Y0020010D03*
X0004976Y0019254D03*
X0003170Y0015172D03*
X0004855Y0015208D03*
X0003102Y0016198D03*
X0012630Y0024872D03*
X0014090Y0023750D03*
X0013650Y0023590D03*
X0015575Y0023178D03*
X0016034Y0023148D03*
X0012100Y0022780D03*
X0012334Y0023331D03*
X0027112Y0007725D03*
X0026640D03*
X0028647Y0007489D03*
X0028175D03*
X0027703D03*
X0028647Y0007017D03*
X0028175D03*
X0027703D03*
X0030537Y0006545D03*
X0030064D03*
X0029592D03*
X0029120D03*
X0028647D03*
X0028175D03*
X0027703D03*
X0030537Y0006072D03*
X0030064D03*
X0029592D03*
X0029120D03*
X0028647D03*
X0028175D03*
X0027703D03*
X0030537Y0005600D03*
X0030064D03*
X0029592D03*
X0029120D03*
X0028647D03*
X0028175D03*
X0027703D03*
X0027230D03*
X0026758D03*
X0025209Y0005965D03*
X0025563Y0005728D03*
X0025209Y0005492D03*
X0025445Y0005020D03*
X0024973D03*
X0024500D03*
X0024028D03*
X0025319Y0002222D03*
X0024965Y0001986D03*
X0024493D03*
X0024020D03*
X0023548D03*
X0025319Y0001750D03*
X0024965Y0001514D03*
X0024493D03*
X0024020D03*
X0023548D03*
X0025319Y0001278D03*
X0024965Y0001042D03*
X0024493D03*
X0024020D03*
X0023548D03*
X0025319Y0000805D03*
X0024965Y0000569D03*
X0024493D03*
X0024020D03*
X0023548D03*
X0025437Y0000097D03*
X0024965D03*
X0024493D03*
X0024020D03*
X0023548D03*
X0025437Y-0000375D03*
X0024965D03*
X0024493D03*
X0024020D03*
X0023548D03*
X0025437Y-0000848D03*
X0024965D03*
X0024493D03*
X0024020D03*
X0023548D03*
X0029830Y0003630D03*
X0030620Y0003730D03*
X0010260Y-0000060D03*
X0008680Y-0000620D03*
X0013420Y0000300D03*
X0011580Y0000030D03*
X0011620Y-0000550D03*
X0028500Y0012740D03*
X0022580Y0001250D03*
X0022460Y0002640D03*
X0015375Y0022538D03*
X0015940Y0020870D03*
X0006931Y0009468D03*
X0007294Y0009788D03*
X0003360Y0009240D03*
X0003385Y0009637D03*
X0003800Y0023120D03*
X0003650Y0022720D03*
X0016650Y0001530D03*
X0026190Y0018930D03*
X0032080Y0020080D03*
X0028190Y-0000740D03*
X0028520Y-0000410D03*
X0029530Y-0000740D03*
X0029170Y-0000410D03*
X0028860Y-0000740D03*
X0028200Y0001880D03*
X0028520Y0001580D03*
X0029520Y0001880D03*
X0029200Y0001530D03*
X0028860Y0001880D03*
X0010160Y-0000700D03*
X0009410Y-0000980D03*
X0028305Y0020310D03*
X0028835Y0019920D03*
X0028305Y0019570D03*
X0011663Y0002623D03*
X0012160Y0002560D03*
X0012060Y0001970D03*
X0011663Y0002037D03*
X0025860Y0009740D03*
X0026410Y0010090D03*
X0026980Y0009740D03*
X0026410Y0009410D03*
X0023069Y0010758D03*
X0023922Y0010738D03*
X0023560Y0010740D03*
X0009864Y0003527D03*
X0007855Y0014937D03*
X0013230Y0011210D03*
X0032606Y0005714D03*
X0030960Y0015490D03*
X0013382Y0021040D03*
X0013660Y0020762D03*
X0006690Y0011730D03*
X0007100D03*
X0007480Y0011740D03*
X0006920Y0001460D03*
X0022980Y0009360D03*
X0019040Y0007120D03*
X0015580Y0007180D03*
X0015740Y0007680D03*
X0016620Y0005440D03*
X0010540Y-0000330D03*
X0003400Y0007010D03*
X0003410Y0006630D03*
Y0006260D03*
X0004914Y0014222D03*
X0004534Y0014058D03*
X0004720Y0012958D03*
X0004300Y0012160D03*
X0005743Y0013295D03*
X0006640Y0004360D03*
X0024740Y0011890D03*
X0024730Y0011250D03*
X0025123Y0011510D03*
X0010224Y0002402D03*
X0009241D03*
X0008771Y0008830D03*
X0013434Y0008551D03*
X0006038Y0007985D03*
X0009833Y0014691D03*
Y0013059D03*
X0008004Y0013590D03*
X0021330Y0005840D03*
X0031633Y0016951D03*
X0033620Y0016680D03*
X0027450Y0014800D03*
X0020442Y0023571D03*
X0021043Y0022184D03*
X0025508Y0015576D03*
X0017510Y0020764D03*
X0013152Y0006780D03*
X0025198Y0019258D03*
X0024680Y0015860D03*
X0024962Y0018150D03*
X0024269Y0020847D03*
X0022872Y0020217D03*
X0020164Y0017972D03*
X0020846Y0017368D03*
X0023344Y0019214D03*
X0021705Y0018381D03*
X0021496Y0019214D03*
X0023930Y0017646D03*
X0023969Y0017086D03*
X0022223Y0016599D03*
X0022774Y0016953D03*
X0021732Y0016677D03*
X0021364Y0016152D03*
X0022830Y0019170D03*
X0022420Y0019096D03*
X0022070Y0018990D03*
X0019903Y0018998D03*
X0019814Y0018481D03*
X0005292Y0021497D03*
X0014674Y0018721D03*
X0006234Y0021496D03*
X0004780Y0020190D03*
X0003402Y0007513D03*
X0011102Y0011650D03*
X0010860Y0012650D03*
X0007827Y0011623D03*
X0010895Y0009735D03*
X0010010Y0023030D03*
X0014273Y0018342D03*
X0014622Y0019750D03*
X0012174Y0009597D03*
X0010109Y0009735D03*
X0006541Y0009278D03*
X0009361Y0009617D03*
X0008398Y0011230D03*
X0008830Y0006765D03*
X0012098Y0019093D03*
X0013612Y0016329D03*
X0013826Y0021496D03*
X0012488Y0011269D03*
X0009342Y0011249D03*
G54D155*
X0019750Y0020120D03*
X0018290Y0020340D03*
X0013039Y0014612D03*
X0013354Y0015006D03*
X0012410Y0014612D03*
X0022670Y0015180D03*
X0004936Y0017818D03*
X0007689Y0017642D03*
X0011151Y0014612D03*
X0012095Y0015006D03*
X0011783Y0014609D03*
X0005721Y-0000372D03*
X0026820Y0008440D03*
X0018330Y0013380D03*
X0017307Y0013452D03*
X0016000Y0017020D03*
X0019765Y0014986D03*
X0018302Y0019970D03*
X0019280Y0019790D03*
X0010207Y0015969D03*
X0016904Y0008202D03*
X0018680Y0018750D03*
X0021181Y0016992D03*
X0010207Y0015537D03*
X0020250Y0002350D03*
X0019510Y0006890D03*
X0017110Y0020490D03*
X0020316Y0004523D03*
X0019870Y0005580D03*
X0016554Y0018346D03*
X0017956Y0018310D03*
X0024485Y0021496D03*
X0004520Y0000820D03*
X0005428Y0008968D03*
X0007520Y-0000200D03*
X0013196Y0020217D03*
X0016420Y0017500D03*
X0005799Y0018076D03*
X0012698Y0020764D03*
X0016480Y0017110D03*
X0012410Y0021024D03*
X0013354Y0019726D03*
X-0001590Y0018160D03*
X-0002250Y0017330D03*
X0006981Y-0000335D03*
X0005252Y0018062D03*
X0016890Y0015260D03*
X0020080Y0006210D03*
X0020866Y0004464D03*
X0004380Y0023340D03*
X0011466Y0015006D03*
X0005990Y0019860D03*
X0005566Y0020414D03*
X0008780Y0009760D03*
X0014710Y0009370D03*
X0012724Y0015006D03*
X0026540Y0017810D03*
X0015969Y0011190D03*
X0015910Y0012134D03*
X0017818Y0007591D03*
X0004640Y0008905D03*
X0005350Y0002510D03*
X0016040Y0015780D03*
X0016166Y0014140D03*
X0018644Y0013668D03*
X0005369Y0017680D03*
X0010207Y0015104D03*
X0005035Y-0000079D03*
X0005740Y0009270D03*
X0005090Y0008730D03*
X0005140Y0000680D03*
X0015900Y0013470D03*
X0017990Y0006350D03*
G54D156*
X0024677Y0020139D03*
X0024614Y0016874D03*
X0022302Y0021535D03*
X0023049Y0019647D03*
X0029590Y0018350D03*
X0007198Y0006785D03*
X0007760Y0007910D03*
X0007768Y0007513D03*
X0004460Y0005500D03*
X0004610Y0004490D03*
X0017700Y0004268D03*
X0005220Y0022970D03*
X0009420Y0023030D03*
X0006726Y0019313D03*
X0006070Y0008850D03*
X0012616Y0008310D03*
X0020168Y0002999D03*
X0016618Y0003973D03*
X0023797Y0009066D03*
X0028261Y0009125D03*
X0011191Y0011250D03*
X0011840D03*
X0014140Y0012170D03*
X0012882Y0022813D03*
X0006330Y0022860D03*
X0012332Y0003641D03*
X0004940Y0016190D03*
X0013790Y0012020D03*
X0004570Y0003130D03*
X0003400Y0005880D03*
X0019690Y0000400D03*
X0006175Y0003855D03*
X0021397Y0002517D03*
X0019273Y0007513D03*
X0008103Y0019372D03*
X0020751Y0011777D03*
X0022440Y0010777D03*
X0013100Y0003340D03*
X0022656Y0012292D03*
X0005054Y0012626D03*
X0011760Y0012510D03*
X0011633Y0012774D03*
X0007914Y0022876D03*
X0011623Y0021417D03*
X0012547Y0013059D03*
X0014691Y0012882D03*
X0006136Y0011249D03*
X0014510Y0020520D03*
X0009676Y0021456D03*
X0010187Y0011387D03*
X0005090Y0002190D03*
X0005546Y0011249D03*
X0029520Y0019057D03*
X0011910Y0004530D03*
X0031040Y0021440D03*
X0013460Y0023260D03*
X0009360Y-0000140D03*
X0005860Y0000490D03*
X0007120Y0014710D03*
X0005910Y0000860D03*
X0013649Y0011249D03*
X0012311Y0004209D03*
X0020925Y0021417D03*
X0008318Y0014651D03*
X0017630Y0012780D03*
X0004700Y0020552D03*
X0005410Y0001460D03*
X0006215Y0001888D03*
X0014691Y0013413D03*
X0023305Y0021555D03*
X0008575Y0017700D03*
X0006400Y0018050D03*
X0006440Y0013640D03*
X0020925Y0011072D03*
X0023462Y0016068D03*
X0016756Y0019254D03*
X0016870Y0020850D03*
X0017440Y0021320D03*
X0009170Y0018050D03*
X0017818Y0009283D03*
X0016080Y0016590D03*
X0008221Y0017995D03*
X0009617Y0017444D03*
Y0016127D03*
X0007398Y0018022D03*
X0006744Y0017643D03*
X0008633Y0015005D03*
X0009263Y0014651D03*
X0014711Y0014711D03*
X0022139Y0012238D03*
X0019020Y0021680D03*
X0006744Y0015007D03*
X0018929Y0001880D03*
X0022450Y0014620D03*
X0016670Y0006160D03*
X0023030Y0015596D03*
X0016330Y0019330D03*
X0016500Y0021050D03*
X0017770Y0021470D03*
X0010970Y-0000330D03*
X0019273Y0006077D03*
X0020190Y0001710D03*
X0015920Y0013000D03*
X0016810Y0007420D03*
X0017390Y0007090D03*
X0015980Y0016240D03*
M02*
