%
T1C0.0118F200S100
X-008752Y021220
X-007926Y007767
X-007864Y011350
X-007858Y022389
X-007856Y017768
X-007545Y007768
X-007198Y016894
X-007080Y016500
X-006746Y014219
X-006372Y021004
X-006334Y018984
X-006310Y018464
X-005962Y024468
X-005512Y024424
X-005251Y006254
X-005118Y025112
X-004905Y014187
X-004690Y018766
X-004386Y019568
X-004284Y018772
X-003858Y022124
X-003614Y025116
X-003533Y014133
X-003422Y020316
X-003363Y006254
X-002891Y014121
X-002758Y023652
X-002655Y002321
X-002498Y001770
X-002495Y009577
X-002395Y014178
X-002250Y017330
X-002205Y016149
X-002146Y010107
X-001735Y011377
X-001590Y018160
X-001514Y018978
X-001064Y025148
X-001047Y023113
X-000767Y016009
X-000433Y006038
X-000332Y025148
X-000145Y001920
X002573Y023161
X002755Y006777
X003102Y016198
X003146Y020010
X003170Y015172
X003360Y009240
X003385Y009637
X003400Y005880
X003400Y007010
X003402Y007513
X003410Y006260
X003410Y006630
X003435Y022377
X003650Y022720
X003675Y010937
X003713Y003551
X003800Y023120
X004095Y021927
X004300Y012160
X004380Y023340
X004460Y005500
X004520Y000820
X004534Y014058
X004570Y003130
X004610Y004490
X004612Y024930
X004640Y008905
X004700Y020552
X004720Y012958
X004780Y020190
X004855Y015208
X004904Y025296
X004914Y014222
X004936Y017818
X004940Y016190
X004976Y019254
X005020Y024628
X005035Y-000079
X005054Y012626
X005090Y002190
X005140Y000680
X005090Y008730
X005220Y022970
X005252Y018062
X005292Y021497
X005350Y002510
X005369Y017680
X005410Y001460
X005428Y008968
X005546Y011249
X005566Y020414
X005721Y-000372
X005740Y009270
X005743Y013295
X005799Y018076
X005860Y000490
X005910Y000860
X005990Y019860
X006038Y007985
X006070Y008850
X006136Y011249
X006175Y003855
X006215Y001888
X006234Y021496
X006235Y012907
X006330Y022860
X006400Y018050
X006440Y013640
X006541Y009278
X006640Y004360
X006690Y011730
X006726Y019313
X006744Y015007
X006744Y017643
X006920Y001460
X006931Y009468
X006981Y-000335
X007100Y011730
X007120Y014710
X007198Y006785
X007294Y009788
X007346Y015017
X007398Y018022
X007480Y011740
X007520Y-000200
X007689Y017642
X007760Y007910
X007768Y007513
X007827Y011623
X007855Y014937
X007914Y022876
X008004Y013590
X008103Y019372
X008221Y017995
X008318Y014651
X008398Y011230
X008575Y017700
X008633Y015005
X008680Y-000620
X008771Y008830
X008780Y009760
X008830Y006765
X009153Y017492
X009170Y018050
X009241Y002402
X009263Y014651
X009342Y011249
X009360Y-000140
X009361Y009617
X009410Y-000980
X009420Y023030
X009615Y015387
X009617Y016127
X009617Y017444
X009676Y021456
X009833Y013059
X009833Y014691
X009864Y003527
X010010Y023030
X010109Y009735
X010160Y-000700
X010187Y011387
X010207Y015104
X010207Y015537
X010207Y015969
X010224Y002402
X010260Y-000060
X010540Y-000330
X010686Y023464
X010713Y021401
X010860Y012650
X010874Y008939
X010895Y009735
X010954Y023726
X010970Y-000330
X011102Y011650
X011151Y005074
X011151Y014612
X011191Y011250
X011205Y005687
X011308Y007572
X011350Y023346
X011466Y015006
X011580Y000030
X011620Y-000550
X011623Y021417
X011633Y012774
X011663Y002037
X011663Y002623
X011760Y012510
X011783Y014609
X011840Y011250
X011910Y004530
X012060Y001970
X012095Y015006
X012098Y019093
X012100Y022780
X012105Y017067
X012160Y002560
X012174Y009597
X012311Y004209
X012332Y003641
X012334Y023331
X012410Y014612
X012488Y011269
X012410Y021024
X012547Y013059
X012616Y008310
X012630Y024872
X012698Y020764
X012724Y015006
X012882Y022813
X012895Y011507
X013039Y014612
X013100Y003340
X013152Y006780
X013196Y020217
X013230Y011210
X013354Y015006
X013354Y019726
X013382Y021040
X013420Y000300
X013434Y008551
X013460Y023260
X013612Y016329
X013649Y011249
X013650Y023590
X013660Y020762
X013790Y012020
X013826Y021496
X014090Y023750
X014140Y012170
X014263Y016811
X014273Y018342
X014393Y021011
X014510Y020520
X014622Y019750
X014674Y018721
X014675Y011157
X014691Y012882
X014691Y013413
X014710Y009370
X014711Y014711
X014935Y022117
X015375Y022538
X015575Y023178
X015580Y007180
X015740Y007680
X015900Y013470
X015910Y012134
X015920Y013000
X015940Y020870
X015969Y011190
X015980Y016240
X016000Y017020
X016034Y023148
X016040Y015780
X016080Y016590
X016166Y014140
X016330Y019330
X016420Y017500
X016480Y017110
X016500Y021050
X016554Y018346
X016598Y002988
X016618Y003973
X016620Y005440
X016643Y009301
X016650Y001530
X016670Y006160
X016756Y019254
X016810Y007420
X016870Y020850
X016890Y015260
X016904Y008202
X017110Y020490
X017174Y019462
X017307Y013452
X017390Y007090
X017440Y021320
X017510Y020764
X017630Y012780
X017700Y004268
X017770Y021470
X017818Y007591
X017818Y009283
X017956Y018310
X017990Y006350
X018290Y020340
X018302Y019970
X018330Y013380
X018644Y013668
X018680Y018750
X018873Y009851
X018904Y022872
X018929Y001880
X019020Y021680
X019040Y007120
X019273Y006077
X019273Y007513
X019280Y019790
X019364Y010331
X019510Y006890
X019690Y000400
X019750Y020120
X019765Y014986
X019814Y018481
X019870Y005580
X019903Y018998
X019973Y004121
X020080Y006210
X020164Y017972
X020168Y002999
X020190Y001710
X020250Y002350
X020316Y004523
X020442Y023571
X020751Y011777
X020846Y017368
X020866Y004464
X020925Y011072
X020925Y021417
X021043Y022184
X021181Y016992
X021330Y005840
X021364Y016152
X021397Y002517
X021496Y019214
X021705Y018381
X021732Y016677
X022070Y018990
X022139Y012238
X022223Y016599
X022302Y021535
X022420Y019096
X022440Y010777
X022450Y014620
X022460Y002640
X022580Y001250
X022656Y012292
X022670Y015180
X022774Y016953
X022830Y019170
X022872Y020217
X022980Y009360
X023030Y015596
X023049Y019647
X023069Y010758
X023305Y021555
X023344Y019214
X023462Y016068
X023548Y-000848
X023548Y-000375
X023548Y000097
X023548Y000569
X023548Y001042
X023548Y001514
X023548Y001986
X023560Y010740
X023797Y009066
X023922Y010738
X023930Y017646
X023969Y017086
X024020Y-000848
X024020Y-000375
X024020Y000097
X024020Y000569
X024020Y001042
X024020Y001514
X024020Y001986
X024028Y005020
X024269Y020847
X024453Y014991
X024485Y021496
X024493Y-000848
X024493Y-000375
X024493Y000097
X024493Y000569
X024493Y001042
X024493Y001514
X024493Y001986
X024500Y005020
X024614Y016874
X024677Y020139
X024680Y015860
X024730Y011250
X024740Y011890
X024756Y025510
X024962Y018150
X024965Y-000848
X024965Y-000375
X024965Y000097
X024965Y000569
X024965Y001042
X024965Y001514
X024965Y001986
X024973Y005020
X025123Y011510
X025198Y019258
X025209Y005492
X025209Y005965
X025319Y000805
X025319Y001278
X025319Y001750
X025319Y002222
X025394Y025302
X025437Y-000848
X025437Y-000375
X025437Y000097
X025445Y005020
X025508Y015576
X025563Y005728
X025714Y022424
X025860Y009740
X026190Y018930
X026252Y022626
X026410Y009410
X026410Y010090
X026540Y017810
X026640Y007725
X026742Y023308
X026758Y005600
X026820Y008440
X026980Y009740
X027112Y007725
X027230Y005600
X027450Y014800
X027703Y005600
X027703Y006072
X027703Y006545
X027703Y007017
X027703Y007489
X028175Y005600
X028175Y006072
X028175Y006545
X028175Y007017
X028175Y007489
X028190Y-000740
X028200Y001880
X028261Y009125
X028305Y019570
X028305Y020310
X028500Y012740
X028520Y-000410
X028520Y001580
X028564Y024678
X028647Y005600
X028647Y006072
X028647Y006545
X028647Y007017
X028647Y007489
X028835Y019920
X028860Y-000740
X028860Y001880
X029120Y005600
X029120Y006072
X029120Y006545
X029170Y-000410
X029200Y001530
X029520Y019057
X029520Y001880
X029530Y-000740
X029590Y018350
X029592Y005600
X029592Y006072
X029592Y006545
X029830Y003630
X030064Y005600
X030064Y006072
X030064Y006545
X030537Y005600
X030537Y006072
X030537Y006545
X030620Y003730
X030663Y023967
X030960Y015490
X031040Y021440
X031633Y016951
X032080Y020080
X032606Y005714
X033620Y016680
T2C0.0340F200S100
X009814Y006100
X009814Y008020
X012380Y-001140
X012380Y-000140
X013855Y024416
X014855Y024416
X015855Y024416
X016736Y022263
X016855Y024416
X017736Y022263
X017855Y024416
X018736Y022263
X018855Y024416
X022520Y023020
X024440Y023020
X027816Y021082
X027816Y022082
X027816Y023082
X027816Y024082
T10C0.1100F200S100
X-008458Y025517
X-008385Y-000991
X026760Y025611
X030560Y001160
X031560Y-001900
X031560Y002660
X033060Y001160
T3C0.0370F200S100
X-010948Y001217
X-010948Y002217
X-010948Y003217
X-010948Y004217
X-010948Y005217
X-010948Y006217
X-010948Y007217
X-010948Y008217
X-010909Y010598
X-010909Y011598
X-010909Y012598
X-010909Y013598
X-010909Y014598
X-010901Y016810
X-010901Y017810
X-010901Y018810
X-010901Y019810
X-010901Y020810
X-010901Y021810
X-010901Y022810
X-010901Y023810
X-009948Y001217
X-009948Y002217
X-009948Y003217
X-009948Y004217
X-009948Y005217
X-009948Y006217
X-009948Y007217
X-009948Y008217
X-009909Y010598
X-009909Y011598
X-009909Y012598
X-009909Y013598
X-009909Y014598
X-009901Y016810
X-009901Y017810
X-009901Y018810
X-009901Y019810
X-009901Y020810
X-009901Y021810
X-009901Y022810
X-009901Y023810
X000900Y-000880
X000900Y000120
X000900Y001120
X000900Y002120
X000900Y003120
X000900Y004120
X000900Y005120
X000900Y006120
X000900Y007140
X000900Y008140
X000900Y009140
X000900Y010140
X000900Y011140
X000900Y012140
X000900Y013140
X000900Y014140
X000900Y015140
X000900Y016140
X000900Y017140
X000900Y018140
X000900Y019140
X000900Y020140
X000900Y021140
X000900Y022140
X000900Y023140
X000900Y024140
X001900Y-000880
X001900Y000120
X001900Y001120
X001900Y002120
X001900Y003120
X001900Y004120
X001900Y005120
X001900Y006120
X001900Y007140
X001900Y008140
X001900Y009140
X001900Y010140
X001900Y011140
X001900Y012140
X001900Y013140
X001900Y014140
X001900Y015140
X001900Y016140
X001900Y017140
X001900Y018140
X001900Y019140
X001900Y020140
X001900Y021140
X001900Y022140
X001900Y023140
X001900Y024140
X005780Y024360
X006780Y024360
X007780Y024360
X008780Y024360
X009780Y024360
X010780Y024360
X013244Y002332
X013244Y003332
X017437Y014899
X017437Y015899
X017437Y016899
X017437Y017899
X018437Y014899
X018437Y015899
X018437Y016899
X018437Y017899
X022260Y-001160
X022260Y-000160
X023840Y003420
X023840Y004420
X024840Y003420
X024840Y004420
X025840Y003420
X025840Y004420
X026840Y003420
X026840Y004420
X027338Y012240
X027338Y013240
X029138Y013240
X029138Y014240
X029138Y015240
X029138Y016240
X027338Y015740
X027338Y016740
X030138Y012740
X030138Y013740
X030138Y014740
X030138Y015740
T11C0.1250F200S100
X032638Y012240
X032638Y016740
T9C0.0630F200S100
X031338Y011440
X031438Y017540
T7C0.0420F200S100
X014240Y-001140
X014240Y-000140
X015240Y-001140
X015240Y-000140
X016240Y-001140
X016240Y-000140
X017240Y-001140
X017240Y-000140
X018240Y-001140
X018240Y-000140
X019240Y-001140
X019240Y-000140
X020240Y-001140
X020240Y-000140
X021240Y-001140
X021240Y-000140
T6C0.0417F200S100
X033464Y018573
X033464Y020344
T8C0.0531F200S100
X032480Y018081
X032480Y020836
T4C0.0380F200S100
X021440Y008680
X022621Y007400
T5C0.0394F200S100
X028880Y021600
X028880Y022671
X029667Y022671
X028880Y023742
X030455Y022671
X031242Y022671
X031640Y021600
X031640Y023740
M30
